<?xml version="1.0" encoding="UTF-8" standalone="no"?>
<!-- Created with Inkscape (http://www.inkscape.org/) -->
<svg
   xmlns:dc="http://purl.org/dc/elements/1.1/"
   xmlns:cc="http://web.resource.org/cc/"
   xmlns:rdf="http://www.w3.org/1999/02/22-rdf-syntax-ns#"
   xmlns:svg="http://www.w3.org/2000/svg"
   xmlns="http://www.w3.org/2000/svg"
   xmlns:xlink="http://www.w3.org/1999/xlink"
   xmlns:sodipodi="http://sodipodi.sourceforge.net/DTD/sodipodi-0.dtd"
   xmlns:inkscape="http://www.inkscape.org/namespaces/inkscape"
   width="128"
   height="128"
   id="svg2"
   sodipodi:version="0.32"
   inkscape:version="0.44.1"
   version="1.0"
   sodipodi:docbase="/home/njp/svn/avant-window-navigator/data"
   sodipodi:docname="avant-window-navigator.svg"
   inkscape:export-filename="/home/njp/svn/avant-window-navigator/data/avant-window-navigator-48.png"
   inkscape:export-xdpi="33.75"
   inkscape:export-ydpi="33.75">
  <defs
     id="defs4">
    <linearGradient
       id="linearGradient2822">
      <stop
         style="stop-color:#f2aa00;stop-opacity:1;"
         offset="0"
         id="stop2824" />
      <stop
         style="stop-color:#9f5a00;stop-opacity:1;"
         offset="1"
         id="stop2826" />
    </linearGradient>
    <linearGradient
       id="linearGradient2782">
      <stop
         id="stop2784"
         offset="0"
         style="stop-color:white;stop-opacity:1;" />
      <stop
         id="stop2786"
         offset="1"
         style="stop-color:white;stop-opacity:0.26041666;" />
    </linearGradient>
    <linearGradient
       id="linearGradient2770">
      <stop
         style="stop-color:white;stop-opacity:0.625;"
         offset="0"
         id="stop2772" />
      <stop
         style="stop-color:black;stop-opacity:0;"
         offset="1"
         id="stop2774" />
    </linearGradient>
    <linearGradient
       inkscape:collect="always"
       xlink:href="#linearGradient2770"
       id="linearGradient2776"
       x1="69"
       y1="7.1789193"
       x2="69"
       y2="123.00816"
       gradientUnits="userSpaceOnUse"
       gradientTransform="translate(8.155823e-3,-8.1563e-3)" />
    <linearGradient
       inkscape:collect="always"
       xlink:href="#linearGradient2782"
       id="linearGradient2780"
       gradientUnits="userSpaceOnUse"
       gradientTransform="matrix(1.003168,0,0,0.336865,0.781417,4.44065)"
       x1="69"
       y1="7.1789193"
       x2="69"
       y2="123.00816" />
    <linearGradient
       inkscape:collect="always"
       xlink:href="#linearGradient2822"
       id="linearGradient2832"
       x1="26.769184"
       y1="25.668007"
       x2="26.814625"
       y2="32.48019"
       gradientUnits="userSpaceOnUse" />
    <linearGradient
       inkscape:collect="always"
       xlink:href="#linearGradient2822"
       id="linearGradient2851"
       gradientUnits="userSpaceOnUse"
       x1="26.769184"
       y1="25.668007"
       x2="26.814625"
       y2="32.48019"
       gradientTransform="matrix(16.67267,0,0,13.38754,-375.6031,-326.4957)" />
  </defs>
  <sodipodi:namedview
     id="base"
     pagecolor="#ffffff"
     bordercolor="#666666"
     borderopacity="1.0"
     gridtolerance="10000"
     guidetolerance="10"
     objecttolerance="10"
     inkscape:pageopacity="0.0"
     inkscape:pageshadow="2"
     inkscape:zoom="2"
     inkscape:cx="57.851246"
     inkscape:cy="39.411855"
     inkscape:document-units="px"
     inkscape:current-layer="layer1"
     width="128px"
     height="128px"
     inkscape:window-width="1072"
     inkscape:window-height="807"
     inkscape:window-x="129"
     inkscape:window-y="100" />
  <metadata
     id="metadata7">
    <rdf:RDF>
      <cc:Work
         rdf:about="">
        <dc:format>image/svg+xml</dc:format>
        <dc:type
           rdf:resource="http://purl.org/dc/dcmitype/StillImage" />
      </cc:Work>
    </rdf:RDF>
  </metadata>
  <g
     inkscape:label="Layer 1"
     inkscape:groupmode="layer"
     id="layer1"
     style="display:inline">
    <rect
       style="opacity:1;fill:black;fill-opacity:1;stroke:black;stroke-width:1;stroke-linejoin:miter;stroke-miterlimit:4;stroke-dasharray:none;stroke-opacity:1"
       id="rect1872"
       width="128"
       height="120"
       x="4"
       y="4"
       ry="0" />
    <rect
       style="opacity:1;fill:url(#linearGradient2776);fill-opacity:1;stroke:#fffcff;stroke-width:1;stroke-linejoin:miter;stroke-miterlimit:4;stroke-dasharray:none;stroke-opacity:0.36144577"
       id="rect2768"
       width="127.01631"
       height="117.01631"
       x="5.5"
       y="5.4836884"
       ry="0" />
    <rect
       style="opacity:0.33526013;fill:url(#linearGradient2780);fill-opacity:1;stroke:none;stroke-width:0.58131921;stroke-linejoin:miter;stroke-miterlimit:4;stroke-dasharray:none;stroke-opacity:0.36144577"
       id="rect2778"
       width="127.41868"
       height="39.418682"
       x="6.2906594"
       y="6.2906585"
       ry="0" />
    <path
       transform="matrix(16.67262,0,0,13.38754,-376.7995,-327.0926)"
       style="opacity:0.37572255;fill:black;fill-opacity:1;stroke:none;stroke-width:0.06693404;stroke-miterlimit:4;stroke-opacity:0.41566264;font-family:Sans"
       d="M 27.613281,29.068412 L 27.255859,29.068412 C 26.62695,29.068415 26.152341,29.179743 25.832031,29.402396 C 25.515623,29.621149 25.35742,29.949274 25.357422,30.386771 C 25.35742,30.781304 25.476561,31.087944 25.714844,31.306693 C 25.953123,31.525444 26.2832,31.634819 26.705078,31.634818 C 27.298824,31.634819 27.765621,31.429741 28.105469,31.019584 C 28.445308,30.605523 28.617182,30.035211 28.621094,29.308646 L 28.621094,29.068412 L 27.613281,29.068412 M 29.705078,28.623099 L 29.705078,32.36724 L 28.621094,32.36724 L 28.621094,31.394584 C 28.39062,31.785209 28.099605,32.074271 27.748047,32.261771 C 27.400387,32.445365 26.976559,32.537162 26.476562,32.537162 C 25.808591,32.537162 25.275389,32.349662 24.876953,31.974662 C 24.478515,31.595756 24.279296,31.089897 24.279297,30.457084 C 24.279296,29.726618 24.523436,29.171931 25.011719,28.793021 C 25.503904,28.414119 26.224607,28.224666 27.173828,28.224662 L 28.621094,28.224662 L 28.621094,28.05474 C 28.617182,27.531307 28.48437,27.152401 28.222656,26.918021 C 27.960933,26.679746 27.542965,26.560605 26.96875,26.560599 C 26.601559,26.560605 26.230466,26.613339 25.855469,26.718802 C 25.480467,26.824277 25.115233,26.978573 24.759766,27.181693 L 24.759766,26.103568 C 25.158201,25.951231 25.53906,25.83795 25.902344,25.763724 C 26.269528,25.685606 26.624997,25.646544 26.96875,25.646537 C 27.511715,25.646544 27.974605,25.726622 28.357422,25.886771 C 28.744135,26.046934 29.056635,26.287168 29.294922,26.607474 C 29.443353,26.802792 29.548822,27.04498 29.611328,27.334037 C 29.673822,27.619198 29.705072,28.048885 29.705078,28.623099"
       id="flowRoot2834" />
    <path
       style="fill:url(#linearGradient2851);fill-opacity:1;stroke:white;stroke-width:1;stroke-miterlimit:4;stroke-opacity:0.25301208;font-family:Sans"
       d="M 84.78402,62.658828 L 78.824843,62.658828 C 68.33925,62.658869 60.426251,64.149277 55.085828,67.130053 C 49.810462,70.058617 47.172796,74.451404 47.172829,80.308412 C 47.172796,85.590239 49.159194,89.695394 53.132008,92.623905 C 57.104755,95.552443 62.60802,97.016705 69.641853,97.016691 C 79.541184,97.016705 87.32394,94.271215 92.99011,88.780222 C 98.65613,83.236963 101.52173,75.601889 101.58696,65.874971 L 101.58696,62.658828 L 84.78402,62.658828 M 119.65986,56.697183 L 119.65986,106.82202 L 101.58696,106.82202 L 101.58696,93.800549 C 97.74434,99.030057 92.89234,102.89989 87.03093,105.41005 C 81.23451,107.86792 74.168166,109.09686 65.831881,109.09686 C 54.695021,109.09686 45.80512,106.58669 39.162128,101.56637 C 32.519103,96.493747 29.19759,89.72154 29.197607,81.24973 C 29.19759,71.470588 33.268056,64.044693 41.409037,58.97202 C 49.615075,53.899455 61.631118,51.363145 77.457167,51.363092 L 101.58696,51.363092 L 101.58696,49.088254 C 101.52173,42.080774 99.3074,37.008154 94.94393,33.870383 C 90.58031,30.680467 83.61167,29.085462 74.037969,29.085382 C 67.915915,29.085462 61.728804,29.79144 55.476602,31.203331 C 49.224318,32.615381 43.134892,34.681025 37.208308,37.400302 L 37.208308,22.966861 C 43.851283,20.927443 50.201219,19.410889 56.258134,18.417186 C 62.380071,17.371378 68.306689,16.848434 74.037969,16.84834 C 83.09065,16.848434 90.80826,17.920481 97.19084,20.064482 C 103.63838,22.208671 108.84859,25.424813 112.82147,29.712922 C 115.29621,32.32775 117.05466,35.570052 118.0968,39.439814 C 119.13874,43.257418 119.65976,49.00987 119.65986,56.697183"
       id="flowRoot2806" />
  </g>
</svg>
