STARTFONT 2.1
COMMENT AUTOMATICALLY GENERATED FILE. DO NOT EDIT!
COMMENT Generated with 'ucs2any helvB08.bdf /usr/local/share/fonts/X11/util/map-ISO8859-2 ISO8859-2'
COMMENT from an ISO10646-1 encoded source BDF font.
COMMENT ucs2any by Ben Collver <collver1@attbi.com>, 2003, based on
COMMENT ucs2any.pl by Markus Kuhn <http://www.cl.cam.ac.uk/~mgk25/>, 2000.
FONT -Adobe-Helvetica-Bold-R-Normal--8-80-75-75-P-50-ISO8859-2
SIZE 8 75 75
FONTBOUNDINGBOX 9 12 -1 -2
COMMENT ISO10646-1 extension by Markus Kuhn <mkuhn@acm.org>, 2001-03-20
COMMENT
COMMENT +
COMMENT  Copyright 1984-1989, 1994 Adobe Systems Incorporated.
COMMENT  Copyright 1988, 1994 Digital Equipment Corporation.
COMMENT
COMMENT  Adobe is a trademark of Adobe Systems Incorporated which may be
COMMENT  registered in certain jurisdictions.
COMMENT  Permission to use these trademarks is hereby granted only in
COMMENT  association with the images described in this file.
COMMENT
COMMENT  Permission to use, copy, modify, distribute and sell this software
COMMENT  and its documentation for any purpose and without fee is hereby
COMMENT  granted, provided that the above copyright notices appear in all
COMMENT  copies and that both those copyright notices and this permission
COMMENT  notice appear in supporting documentation, and that the names of
COMMENT  Adobe Systems and Digital Equipment Corporation not be used in
COMMENT  advertising or publicity pertaining to distribution of the software
COMMENT  without specific, written prior permission.  Adobe Systems and
COMMENT  Digital Equipment Corporation make no representations about the
COMMENT  suitability of this software for any purpose.  It is provided "as
COMMENT  is" without express or implied warranty.
COMMENT -
STARTPROPERTIES 26
FOUNDRY "Adobe"
FAMILY_NAME "Helvetica"
WEIGHT_NAME "Bold"
SLANT "R"
SETWIDTH_NAME "Normal"
ADD_STYLE_NAME ""
PIXEL_SIZE 8
POINT_SIZE 80
RESOLUTION_X 75
RESOLUTION_Y 75
SPACING "P"
AVERAGE_WIDTH 50
CHARSET_REGISTRY "ISO8859"
CHARSET_ENCODING "2"
CAP_HEIGHT 6
X_HEIGHT 5
FONT_ASCENT 8
FONT_DESCENT 2
FACE_NAME "Helvetica Bold"
COPYRIGHT "Copyright (c) 1984, 1987 Adobe Systems Incorporated. All Rights Reserved. Copyright (c) 1988, 1991 Digital Equipment Corporation. All Rights Reserved."
NOTICE "Helvetica is a trademark of Linotype-Hell AG and/or its subsidiaries.  "
_DEC_DEVICE_FONTNAMES "PS=Helvetica-Bold"
DEFAULT_CHAR 0
RELATIVE_SETWIDTH 50
RELATIVE_WEIGHT 70
FULL_NAME "Helvetica Bold"
ENDPROPERTIES
CHARS 192
STARTCHAR defaultchar
ENCODING 0
SWIDTH 722 0
DWIDTH 6 0
BBX 5 5 0 0
BITMAP
A8
00
88
00
A8
ENDCHAR
STARTCHAR space
ENCODING 32
SWIDTH 278 0
DWIDTH 2 0
BBX 1 1 0 0
BITMAP
00
ENDCHAR
STARTCHAR exclam
ENCODING 33
SWIDTH 333 0
DWIDTH 3 0
BBX 2 7 0 0
BITMAP
C0
C0
C0
80
00
80
80
ENDCHAR
STARTCHAR quotedbl
ENCODING 34
SWIDTH 474 0
DWIDTH 4 0
BBX 3 2 0 4
BITMAP
A0
A0
ENDCHAR
STARTCHAR numbersign
ENCODING 35
SWIDTH 556 0
DWIDTH 5 0
BBX 5 6 -1 0
BITMAP
50
F8
50
F8
A0
A0
ENDCHAR
STARTCHAR dollar
ENCODING 36
SWIDTH 556 0
DWIDTH 5 0
BBX 4 8 0 -1
BITMAP
20
70
C0
E0
70
30
E0
40
ENDCHAR
STARTCHAR percent
ENCODING 37
SWIDTH 889 0
DWIDTH 6 0
BBX 5 6 0 0
BITMAP
68
B0
E0
38
68
B0
ENDCHAR
STARTCHAR ampersand
ENCODING 38
SWIDTH 722 0
DWIDTH 6 0
BBX 5 6 0 0
BITMAP
70
50
60
F8
D0
68
ENDCHAR
STARTCHAR quotesingle
ENCODING 39
SWIDTH 238 0
DWIDTH 3 0
BBX 1 3 1 5
BITMAP
80
80
80
ENDCHAR
STARTCHAR parenleft
ENCODING 40
SWIDTH 333 0
DWIDTH 3 0
BBX 2 8 0 -2
BITMAP
40
40
80
80
80
80
40
40
ENDCHAR
STARTCHAR parenright
ENCODING 41
SWIDTH 333 0
DWIDTH 3 0
BBX 2 8 0 -2
BITMAP
80
80
40
40
40
40
80
80
ENDCHAR
STARTCHAR asterisk
ENCODING 42
SWIDTH 389 0
DWIDTH 3 0
BBX 3 3 0 3
BITMAP
40
E0
40
ENDCHAR
STARTCHAR plus
ENCODING 43
SWIDTH 584 0
DWIDTH 5 0
BBX 4 5 0 0
BITMAP
20
20
F0
20
20
ENDCHAR
STARTCHAR comma
ENCODING 44
SWIDTH 278 0
DWIDTH 2 0
BBX 2 3 -1 -1
BITMAP
40
40
80
ENDCHAR
STARTCHAR hyphen
ENCODING 45
SWIDTH 333 0
DWIDTH 4 0
BBX 3 1 0 2
BITMAP
E0
ENDCHAR
STARTCHAR period
ENCODING 46
SWIDTH 278 0
DWIDTH 2 0
BBX 1 2 0 0
BITMAP
80
80
ENDCHAR
STARTCHAR slash
ENCODING 47
SWIDTH 278 0
DWIDTH 3 0
BBX 3 6 0 0
BITMAP
20
20
40
40
80
80
ENDCHAR
STARTCHAR zero
ENCODING 48
SWIDTH 556 0
DWIDTH 5 0
BBX 4 6 0 0
BITMAP
60
D0
D0
D0
D0
60
ENDCHAR
STARTCHAR one
ENCODING 49
SWIDTH 556 0
DWIDTH 5 0
BBX 3 6 0 0
BITMAP
20
E0
60
60
60
60
ENDCHAR
STARTCHAR two
ENCODING 50
SWIDTH 556 0
DWIDTH 5 0
BBX 4 6 0 0
BITMAP
60
B0
30
60
C0
F0
ENDCHAR
STARTCHAR three
ENCODING 51
SWIDTH 556 0
DWIDTH 5 0
BBX 4 6 0 0
BITMAP
60
B0
60
30
B0
60
ENDCHAR
STARTCHAR four
ENCODING 52
SWIDTH 556 0
DWIDTH 5 0
BBX 5 6 0 0
BITMAP
30
50
D0
F8
30
30
ENDCHAR
STARTCHAR five
ENCODING 53
SWIDTH 556 0
DWIDTH 5 0
BBX 4 6 0 0
BITMAP
70
C0
E0
30
B0
60
ENDCHAR
STARTCHAR six
ENCODING 54
SWIDTH 556 0
DWIDTH 5 0
BBX 4 6 0 0
BITMAP
70
C0
E0
D0
D0
60
ENDCHAR
STARTCHAR seven
ENCODING 55
SWIDTH 556 0
DWIDTH 5 0
BBX 4 6 0 0
BITMAP
F0
30
30
60
40
C0
ENDCHAR
STARTCHAR eight
ENCODING 56
SWIDTH 556 0
DWIDTH 5 0
BBX 4 6 0 0
BITMAP
60
D0
60
D0
D0
60
ENDCHAR
STARTCHAR nine
ENCODING 57
SWIDTH 556 0
DWIDTH 5 0
BBX 4 6 0 0
BITMAP
60
B0
B0
70
30
E0
ENDCHAR
STARTCHAR colon
ENCODING 58
SWIDTH 333 0
DWIDTH 2 0
BBX 1 5 0 0
BITMAP
80
80
00
80
80
ENDCHAR
STARTCHAR semicolon
ENCODING 59
SWIDTH 333 0
DWIDTH 2 0
BBX 2 6 -1 -1
BITMAP
40
40
00
40
40
80
ENDCHAR
STARTCHAR less
ENCODING 60
SWIDTH 584 0
DWIDTH 4 0
BBX 3 5 0 0
BITMAP
20
40
80
40
20
ENDCHAR
STARTCHAR equal
ENCODING 61
SWIDTH 584 0
DWIDTH 5 0
BBX 4 3 0 1
BITMAP
F0
00
F0
ENDCHAR
STARTCHAR greater
ENCODING 62
SWIDTH 584 0
DWIDTH 4 0
BBX 3 5 0 0
BITMAP
80
40
20
40
80
ENDCHAR
STARTCHAR question
ENCODING 63
SWIDTH 611 0
DWIDTH 5 0
BBX 4 7 0 0
BITMAP
E0
30
60
40
00
40
40
ENDCHAR
STARTCHAR at
ENCODING 64
SWIDTH 975 0
DWIDTH 9 0
BBX 8 7 0 -1
BITMAP
7E
C3
99
A9
99
CE
60
ENDCHAR
STARTCHAR A
ENCODING 65
SWIDTH 722 0
DWIDTH 6 0
BBX 5 6 0 0
BITMAP
70
D8
D8
F8
D8
D8
ENDCHAR
STARTCHAR B
ENCODING 66
SWIDTH 722 0
DWIDTH 6 0
BBX 5 6 0 0
BITMAP
F0
D8
F0
D8
D8
F0
ENDCHAR
STARTCHAR C
ENCODING 67
SWIDTH 722 0
DWIDTH 6 0
BBX 5 6 0 0
BITMAP
78
C8
C0
C0
C8
78
ENDCHAR
STARTCHAR D
ENCODING 68
SWIDTH 722 0
DWIDTH 6 0
BBX 5 6 0 0
BITMAP
F0
D8
D8
D8
D8
F0
ENDCHAR
STARTCHAR E
ENCODING 69
SWIDTH 667 0
DWIDTH 5 0
BBX 4 6 0 0
BITMAP
F0
C0
F0
C0
C0
F0
ENDCHAR
STARTCHAR F
ENCODING 70
SWIDTH 611 0
DWIDTH 5 0
BBX 4 6 0 0
BITMAP
F0
C0
F0
C0
C0
C0
ENDCHAR
STARTCHAR G
ENCODING 71
SWIDTH 778 0
DWIDTH 6 0
BBX 5 6 0 0
BITMAP
78
C8
C0
D8
C8
78
ENDCHAR
STARTCHAR H
ENCODING 72
SWIDTH 722 0
DWIDTH 6 0
BBX 5 6 0 0
BITMAP
D8
D8
F8
D8
D8
D8
ENDCHAR
STARTCHAR I
ENCODING 73
SWIDTH 278 0
DWIDTH 2 0
BBX 1 6 0 0
BITMAP
80
80
80
80
80
80
ENDCHAR
STARTCHAR J
ENCODING 74
SWIDTH 556 0
DWIDTH 5 0
BBX 4 6 0 0
BITMAP
30
30
30
30
B0
60
ENDCHAR
STARTCHAR K
ENCODING 75
SWIDTH 722 0
DWIDTH 6 0
BBX 6 6 0 0
BITMAP
D8
D0
E0
F0
D8
CC
ENDCHAR
STARTCHAR L
ENCODING 76
SWIDTH 611 0
DWIDTH 5 0
BBX 4 6 0 0
BITMAP
C0
C0
C0
C0
C0
F0
ENDCHAR
STARTCHAR M
ENCODING 77
SWIDTH 833 0
DWIDTH 8 0
BBX 7 6 0 0
BITMAP
C6
C6
EE
FE
D6
D6
ENDCHAR
STARTCHAR N
ENCODING 78
SWIDTH 722 0
DWIDTH 6 0
BBX 5 6 0 0
BITMAP
C8
C8
E8
F8
D8
C8
ENDCHAR
STARTCHAR O
ENCODING 79
SWIDTH 778 0
DWIDTH 6 0
BBX 5 6 0 0
BITMAP
70
D8
C8
C8
D8
70
ENDCHAR
STARTCHAR P
ENCODING 80
SWIDTH 667 0
DWIDTH 6 0
BBX 5 6 0 0
BITMAP
F0
D8
D8
F0
C0
C0
ENDCHAR
STARTCHAR Q
ENCODING 81
SWIDTH 778 0
DWIDTH 6 0
BBX 6 7 0 -1
BITMAP
70
D8
C8
C8
D8
78
04
ENDCHAR
STARTCHAR R
ENCODING 82
SWIDTH 722 0
DWIDTH 6 0
BBX 5 6 0 0
BITMAP
F0
D8
D8
F0
D8
D8
ENDCHAR
STARTCHAR S
ENCODING 83
SWIDTH 667 0
DWIDTH 6 0
BBX 5 6 0 0
BITMAP
78
C0
F0
38
D8
70
ENDCHAR
STARTCHAR T
ENCODING 84
SWIDTH 611 0
DWIDTH 6 0
BBX 5 6 0 0
BITMAP
F8
60
60
60
60
60
ENDCHAR
STARTCHAR U
ENCODING 85
SWIDTH 722 0
DWIDTH 6 0
BBX 5 6 0 0
BITMAP
D8
D8
D8
D8
D8
70
ENDCHAR
STARTCHAR V
ENCODING 86
SWIDTH 667 0
DWIDTH 6 0
BBX 5 6 0 0
BITMAP
E8
68
68
68
70
20
ENDCHAR
STARTCHAR W
ENCODING 87
SWIDTH 944 0
DWIDTH 9 0
BBX 8 6 0 0
BITMAP
DB
DB
DA
DA
6C
6C
ENDCHAR
STARTCHAR X
ENCODING 88
SWIDTH 667 0
DWIDTH 6 0
BBX 5 6 0 0
BITMAP
D8
D8
70
70
D8
D8
ENDCHAR
STARTCHAR Y
ENCODING 89
SWIDTH 667 0
DWIDTH 7 0
BBX 6 6 0 0
BITMAP
EC
68
68
78
30
30
ENDCHAR
STARTCHAR Z
ENCODING 90
SWIDTH 611 0
DWIDTH 6 0
BBX 6 6 0 0
BITMAP
FC
38
30
60
E0
F8
ENDCHAR
STARTCHAR bracketleft
ENCODING 91
SWIDTH 333 0
DWIDTH 3 0
BBX 2 8 0 -2
BITMAP
C0
80
80
80
80
80
80
C0
ENDCHAR
STARTCHAR backslash
ENCODING 92
SWIDTH 278 0
DWIDTH 3 0
BBX 3 6 0 0
BITMAP
80
80
40
40
20
20
ENDCHAR
STARTCHAR bracketright
ENCODING 93
SWIDTH 333 0
DWIDTH 3 0
BBX 2 8 0 -2
BITMAP
C0
40
40
40
40
40
40
C0
ENDCHAR
STARTCHAR asciicircum
ENCODING 94
SWIDTH 584 0
DWIDTH 4 0
BBX 4 3 0 3
BITMAP
60
60
90
ENDCHAR
STARTCHAR underscore
ENCODING 95
SWIDTH 556 0
DWIDTH 5 0
BBX 5 1 0 -1
BITMAP
F8
ENDCHAR
STARTCHAR grave
ENCODING 96
SWIDTH 333 0
DWIDTH 3 0
BBX 2 2 0 6
BITMAP
80
40
ENDCHAR
STARTCHAR a
ENCODING 97
SWIDTH 556 0
DWIDTH 5 0
BBX 5 5 0 0
BITMAP
E0
30
F0
B0
D8
ENDCHAR
STARTCHAR b
ENCODING 98
SWIDTH 611 0
DWIDTH 5 0
BBX 4 7 0 0
BITMAP
C0
C0
E0
D0
D0
D0
E0
ENDCHAR
STARTCHAR c
ENCODING 99
SWIDTH 556 0
DWIDTH 4 0
BBX 3 5 0 0
BITMAP
60
C0
C0
C0
60
ENDCHAR
STARTCHAR d
ENCODING 100
SWIDTH 611 0
DWIDTH 5 0
BBX 4 7 0 0
BITMAP
30
30
70
B0
B0
B0
70
ENDCHAR
STARTCHAR e
ENCODING 101
SWIDTH 556 0
DWIDTH 5 0
BBX 4 5 0 0
BITMAP
60
D0
F0
C0
60
ENDCHAR
STARTCHAR f
ENCODING 102
SWIDTH 333 0
DWIDTH 3 0
BBX 4 7 -1 0
BITMAP
30
60
F0
60
60
60
60
ENDCHAR
STARTCHAR g
ENCODING 103
SWIDTH 611 0
DWIDTH 5 0
BBX 4 6 0 -1
BITMAP
D0
B0
B0
F0
30
E0
ENDCHAR
STARTCHAR h
ENCODING 104
SWIDTH 611 0
DWIDTH 5 0
BBX 4 7 0 0
BITMAP
C0
C0
E0
D0
D0
D0
D0
ENDCHAR
STARTCHAR i
ENCODING 105
SWIDTH 278 0
DWIDTH 2 0
BBX 1 7 0 0
BITMAP
80
00
80
80
80
80
80
ENDCHAR
STARTCHAR j
ENCODING 106
SWIDTH 278 0
DWIDTH 2 0
BBX 2 8 -1 -1
BITMAP
40
00
40
40
40
40
40
80
ENDCHAR
STARTCHAR k
ENCODING 107
SWIDTH 556 0
DWIDTH 5 0
BBX 4 7 0 0
BITMAP
C0
C0
D0
D0
E0
D0
D0
ENDCHAR
STARTCHAR l
ENCODING 108
SWIDTH 278 0
DWIDTH 2 0
BBX 1 7 0 0
BITMAP
80
80
80
80
80
80
80
ENDCHAR
STARTCHAR m
ENCODING 109
SWIDTH 889 0
DWIDTH 7 0
BBX 6 5 0 0
BITMAP
E8
D4
D4
D4
D4
ENDCHAR
STARTCHAR n
ENCODING 110
SWIDTH 611 0
DWIDTH 5 0
BBX 4 5 0 0
BITMAP
E0
D0
D0
D0
D0
ENDCHAR
STARTCHAR o
ENCODING 111
SWIDTH 611 0
DWIDTH 5 0
BBX 4 5 0 0
BITMAP
60
D0
D0
D0
60
ENDCHAR
STARTCHAR p
ENCODING 112
SWIDTH 611 0
DWIDTH 5 0
BBX 4 6 0 -1
BITMAP
E0
D0
D0
D0
E0
C0
ENDCHAR
STARTCHAR q
ENCODING 113
SWIDTH 611 0
DWIDTH 5 0
BBX 4 6 0 -1
BITMAP
70
B0
B0
B0
70
30
ENDCHAR
STARTCHAR r
ENCODING 114
SWIDTH 389 0
DWIDTH 3 0
BBX 3 5 0 0
BITMAP
A0
E0
C0
C0
C0
ENDCHAR
STARTCHAR s
ENCODING 115
SWIDTH 556 0
DWIDTH 5 0
BBX 4 5 0 0
BITMAP
70
C0
F0
30
E0
ENDCHAR
STARTCHAR t
ENCODING 116
SWIDTH 333 0
DWIDTH 3 0
BBX 4 7 -1 0
BITMAP
20
60
F0
60
60
60
30
ENDCHAR
STARTCHAR u
ENCODING 117
SWIDTH 611 0
DWIDTH 5 0
BBX 4 5 0 0
BITMAP
D0
D0
D0
F0
50
ENDCHAR
STARTCHAR v
ENCODING 118
SWIDTH 556 0
DWIDTH 5 0
BBX 4 5 0 0
BITMAP
D0
D0
D0
60
40
ENDCHAR
STARTCHAR w
ENCODING 119
SWIDTH 778 0
DWIDTH 6 0
BBX 5 5 0 0
BITMAP
A8
A8
F8
F8
48
ENDCHAR
STARTCHAR x
ENCODING 120
SWIDTH 556 0
DWIDTH 6 0
BBX 5 5 0 0
BITMAP
D8
D8
70
D8
D8
ENDCHAR
STARTCHAR y
ENCODING 121
SWIDTH 556 0
DWIDTH 5 0
BBX 4 6 0 -1
BITMAP
D0
D0
D0
70
60
60
ENDCHAR
STARTCHAR z
ENCODING 122
SWIDTH 500 0
DWIDTH 5 0
BBX 4 5 0 0
BITMAP
F0
30
60
C0
F0
ENDCHAR
STARTCHAR braceleft
ENCODING 123
SWIDTH 389 0
DWIDTH 4 0
BBX 3 7 0 -1
BITMAP
20
40
40
80
40
40
20
ENDCHAR
STARTCHAR bar
ENCODING 124
SWIDTH 280 0
DWIDTH 2 0
BBX 1 7 1 -1
BITMAP
80
80
80
80
80
80
80
ENDCHAR
STARTCHAR braceright
ENCODING 125
SWIDTH 389 0
DWIDTH 4 0
BBX 3 7 0 -1
BITMAP
80
40
40
20
40
40
80
ENDCHAR
STARTCHAR asciitilde
ENCODING 126
SWIDTH 584 0
DWIDTH 5 0
BBX 5 2 0 2
BITMAP
58
B0
ENDCHAR
STARTCHAR space
ENCODING 160
SWIDTH 278 0
DWIDTH 2 0
BBX 1 1 0 0
BITMAP
00
ENDCHAR
STARTCHAR Aogonek
ENCODING 161
SWIDTH 722 0
DWIDTH 6 0
BBX 5 8 0 -2
BITMAP
70
D8
D8
F8
D8
D8
20
30
ENDCHAR
STARTCHAR breve
ENCODING 162
SWIDTH 333 0
DWIDTH 4 0
BBX 4 2 0 6
BITMAP
90
60
ENDCHAR
STARTCHAR Lslash
ENCODING 163
SWIDTH 611 0
DWIDTH 6 0
BBX 6 8 -1 0
BITMAP
60
60
60
70
E0
60
60
7C
ENDCHAR
STARTCHAR currency
ENCODING 164
SWIDTH 556 0
DWIDTH 5 0
BBX 5 5 0 1
BITMAP
88
70
50
70
88
ENDCHAR
STARTCHAR Lcaron
ENCODING 165
SWIDTH 858 0
DWIDTH 7 0
BBX 7 6 0 0
BITMAP
C2
C2
C4
C0
C0
F0
ENDCHAR
STARTCHAR Sacute
ENCODING 166
SWIDTH 667 0
DWIDTH 6 0
BBX 5 9 0 0
BITMAP
10
20
00
78
C0
F0
38
D8
70
ENDCHAR
STARTCHAR section
ENCODING 167
SWIDTH 556 0
DWIDTH 5 0
BBX 4 8 0 -2
BITMAP
70
C0
E0
D0
50
30
B0
E0
ENDCHAR
STARTCHAR dieresis
ENCODING 168
SWIDTH 333 0
DWIDTH 2 0
BBX 3 1 0 5
BITMAP
A0
ENDCHAR
STARTCHAR Scaron
ENCODING 169
SWIDTH 667 0
DWIDTH 7 0
BBX 6 9 0 0
BITMAP
28
10
00
78
CC
70
3C
CC
78
ENDCHAR
STARTCHAR Scedilla
ENCODING 170
SWIDTH 667 0
DWIDTH 6 0
BBX 5 8 0 -2
BITMAP
78
C0
F0
38
D8
70
20
60
ENDCHAR
STARTCHAR Tcaron
ENCODING 171
SWIDTH 611 0
DWIDTH 6 0
BBX 5 9 0 0
BITMAP
50
20
00
F8
60
60
60
60
60
ENDCHAR
STARTCHAR Zacute
ENCODING 172
SWIDTH 611 0
DWIDTH 6 0
BBX 6 9 0 0
BITMAP
10
20
00
FC
38
30
60
E0
F8
ENDCHAR
STARTCHAR hyphen
ENCODING 173
SWIDTH 333 0
DWIDTH 4 0
BBX 3 1 0 2
BITMAP
E0
ENDCHAR
STARTCHAR Zcaron
ENCODING 174
SWIDTH 611 0
DWIDTH 7 0
BBX 6 9 0 0
BITMAP
28
10
00
FC
18
30
60
C0
FC
ENDCHAR
STARTCHAR Zdotaccent
ENCODING 175
SWIDTH 611 0
DWIDTH 6 0
BBX 6 8 0 0
BITMAP
10
00
FC
38
30
60
E0
F8
ENDCHAR
STARTCHAR degree
ENCODING 176
SWIDTH 400 0
DWIDTH 3 0
BBX 3 3 0 3
BITMAP
E0
A0
E0
ENDCHAR
STARTCHAR aogonek
ENCODING 177
SWIDTH 556 0
DWIDTH 5 0
BBX 5 7 0 -2
BITMAP
E0
30
F0
B0
D8
20
30
ENDCHAR
STARTCHAR ogonek
ENCODING 178
SWIDTH 333 0
DWIDTH 3 0
BBX 2 2 0 -2
BITMAP
80
C0
ENDCHAR
STARTCHAR lslash
ENCODING 179
SWIDTH 278 0
DWIDTH 3 0
BBX 4 8 -1 0
BITMAP
60
60
60
70
E0
60
60
60
ENDCHAR
STARTCHAR acute
ENCODING 180
SWIDTH 333 0
DWIDTH 2 0
BBX 2 2 0 5
BITMAP
40
80
ENDCHAR
STARTCHAR lcaron
ENCODING 181
SWIDTH 542 0
DWIDTH 4 0
BBX 4 7 0 0
BITMAP
80
90
90
A0
80
80
80
ENDCHAR
STARTCHAR sacute
ENCODING 182
SWIDTH 556 0
DWIDTH 5 0
BBX 4 8 0 0
BITMAP
20
40
00
70
C0
F0
30
E0
ENDCHAR
STARTCHAR caron
ENCODING 183
SWIDTH 333 0
DWIDTH 4 0
BBX 3 2 0 6
BITMAP
A0
40
ENDCHAR
STARTCHAR cedilla
ENCODING 184
SWIDTH 333 0
DWIDTH 2 0
BBX 2 2 0 -2
BITMAP
40
C0
ENDCHAR
STARTCHAR scaron
ENCODING 185
SWIDTH 556 0
DWIDTH 6 0
BBX 5 9 0 0
BITMAP
50
20
00
70
D8
70
18
D8
70
ENDCHAR
STARTCHAR scedilla
ENCODING 186
SWIDTH 556 0
DWIDTH 5 0
BBX 4 7 0 -2
BITMAP
70
C0
F0
30
E0
20
60
ENDCHAR
STARTCHAR tcaron
ENCODING 187
SWIDTH 594 0
DWIDTH 5 0
BBX 6 7 -1 0
BITMAP
20
64
F4
68
60
60
30
ENDCHAR
STARTCHAR zacute
ENCODING 188
SWIDTH 500 0
DWIDTH 5 0
BBX 4 8 0 0
BITMAP
10
20
00
F0
30
60
C0
F0
ENDCHAR
STARTCHAR hungarumlaut
ENCODING 189
SWIDTH 333 0
DWIDTH 5 0
BBX 4 2 0 6
BITMAP
50
A0
ENDCHAR
STARTCHAR zcaron
ENCODING 190
SWIDTH 500 0
DWIDTH 5 0
BBX 5 9 0 0
BITMAP
50
20
00
F8
18
30
60
C0
F8
ENDCHAR
STARTCHAR zdotaccent
ENCODING 191
SWIDTH 500 0
DWIDTH 5 0
BBX 4 7 0 0
BITMAP
20
00
F0
30
60
C0
F0
ENDCHAR
STARTCHAR Racute
ENCODING 192
SWIDTH 722 0
DWIDTH 6 0
BBX 5 9 0 0
BITMAP
10
20
00
F0
D8
D8
F0
D8
D8
ENDCHAR
STARTCHAR Aacute
ENCODING 193
SWIDTH 722 0
DWIDTH 6 0
BBX 5 9 0 0
BITMAP
10
20
00
70
D8
D8
F8
D8
D8
ENDCHAR
STARTCHAR Acircumflex
ENCODING 194
SWIDTH 722 0
DWIDTH 6 0
BBX 5 9 0 0
BITMAP
20
50
00
70
D8
D8
F8
D8
D8
ENDCHAR
STARTCHAR Abreve
ENCODING 195
SWIDTH 722 0
DWIDTH 6 0
BBX 5 9 0 0
BITMAP
48
30
00
70
D8
D8
F8
D8
D8
ENDCHAR
STARTCHAR Adieresis
ENCODING 196
SWIDTH 722 0
DWIDTH 6 0
BBX 5 8 0 0
BITMAP
50
00
70
D8
D8
F8
D8
D8
ENDCHAR
STARTCHAR Lacute
ENCODING 197
SWIDTH 611 0
DWIDTH 5 0
BBX 4 9 0 0
BITMAP
20
40
00
C0
C0
C0
C0
C0
F0
ENDCHAR
STARTCHAR Cacute
ENCODING 198
SWIDTH 722 0
DWIDTH 6 0
BBX 5 9 0 0
BITMAP
10
20
00
78
C8
C0
C0
C8
78
ENDCHAR
STARTCHAR Ccedilla
ENCODING 199
SWIDTH 722 0
DWIDTH 6 0
BBX 5 8 0 -2
BITMAP
78
C8
C0
C0
C8
78
20
60
ENDCHAR
STARTCHAR Ccaron
ENCODING 200
SWIDTH 722 0
DWIDTH 6 0
BBX 5 9 0 0
BITMAP
50
20
00
78
C8
C0
C0
C8
78
ENDCHAR
STARTCHAR Eacute
ENCODING 201
SWIDTH 667 0
DWIDTH 5 0
BBX 4 9 0 0
BITMAP
10
20
00
F0
C0
F0
C0
C0
F0
ENDCHAR
STARTCHAR Eogonek
ENCODING 202
SWIDTH 667 0
DWIDTH 5 0
BBX 4 8 0 -2
BITMAP
F0
C0
F0
C0
C0
F0
40
60
ENDCHAR
STARTCHAR Edieresis
ENCODING 203
SWIDTH 667 0
DWIDTH 5 0
BBX 4 8 0 0
BITMAP
A0
00
F0
C0
F0
C0
C0
F0
ENDCHAR
STARTCHAR Ecaron
ENCODING 204
SWIDTH 667 0
DWIDTH 5 0
BBX 4 9 0 0
BITMAP
A0
40
00
F0
C0
F0
C0
C0
F0
ENDCHAR
STARTCHAR Iacute
ENCODING 205
SWIDTH 278 0
DWIDTH 2 0
BBX 2 9 0 0
BITMAP
40
80
00
80
80
80
80
80
80
ENDCHAR
STARTCHAR Icircumflex
ENCODING 206
SWIDTH 278 0
DWIDTH 2 0
BBX 3 9 -1 0
BITMAP
40
A0
00
40
40
40
40
40
40
ENDCHAR
STARTCHAR Dcaron
ENCODING 207
SWIDTH 722 0
DWIDTH 6 0
BBX 5 9 0 0
BITMAP
50
20
00
F0
D8
D8
D8
D8
F0
ENDCHAR
STARTCHAR Dcroat
ENCODING 208
SWIDTH 722 0
DWIDTH 6 0
BBX 5 6 0 0
BITMAP
70
58
E8
58
58
70
ENDCHAR
STARTCHAR Nacute
ENCODING 209
SWIDTH 722 0
DWIDTH 6 0
BBX 5 9 0 0
BITMAP
10
20
00
C8
C8
E8
F8
D8
C8
ENDCHAR
STARTCHAR Ncaron
ENCODING 210
SWIDTH 722 0
DWIDTH 6 0
BBX 5 9 0 0
BITMAP
50
20
00
C8
C8
E8
F8
D8
C8
ENDCHAR
STARTCHAR Oacute
ENCODING 211
SWIDTH 778 0
DWIDTH 6 0
BBX 5 9 0 0
BITMAP
10
20
00
70
D8
C8
C8
D8
70
ENDCHAR
STARTCHAR Ocircumflex
ENCODING 212
SWIDTH 778 0
DWIDTH 6 0
BBX 5 9 0 0
BITMAP
20
50
00
70
D8
C8
C8
D8
70
ENDCHAR
STARTCHAR Ohungarumlaut
ENCODING 213
SWIDTH 778 0
DWIDTH 6 0
BBX 5 9 0 0
BITMAP
28
50
00
70
D8
C8
C8
D8
70
ENDCHAR
STARTCHAR Odieresis
ENCODING 214
SWIDTH 778 0
DWIDTH 6 0
BBX 5 8 0 0
BITMAP
50
00
70
D8
C8
C8
D8
70
ENDCHAR
STARTCHAR multiply
ENCODING 215
SWIDTH 584 0
DWIDTH 5 0
BBX 5 4 0 1
BITMAP
D8
70
70
D8
ENDCHAR
STARTCHAR Rcaron
ENCODING 216
SWIDTH 722 0
DWIDTH 6 0
BBX 5 9 0 0
BITMAP
50
20
00
F0
D8
D8
F0
D8
D8
ENDCHAR
STARTCHAR Uring
ENCODING 217
SWIDTH 722 0
DWIDTH 6 0
BBX 5 10 0 0
BITMAP
20
50
20
00
D8
D8
D8
D8
D8
70
ENDCHAR
STARTCHAR Uacute
ENCODING 218
SWIDTH 722 0
DWIDTH 6 0
BBX 5 9 0 0
BITMAP
10
20
00
D8
D8
D8
D8
D8
70
ENDCHAR
STARTCHAR Uhungarumlaut
ENCODING 219
SWIDTH 722 0
DWIDTH 6 0
BBX 5 9 0 0
BITMAP
28
50
00
D8
D8
D8
D8
D8
70
ENDCHAR
STARTCHAR Udieresis
ENCODING 220
SWIDTH 722 0
DWIDTH 6 0
BBX 5 8 0 0
BITMAP
50
00
D8
D8
D8
D8
D8
70
ENDCHAR
STARTCHAR Yacute
ENCODING 221
SWIDTH 667 0
DWIDTH 7 0
BBX 6 9 0 0
BITMAP
08
10
00
EC
68
68
78
30
30
ENDCHAR
STARTCHAR Tcommaaccent
ENCODING 222
SWIDTH 611 0
DWIDTH 6 0
BBX 5 8 0 -2
BITMAP
F8
60
60
60
60
60
20
60
ENDCHAR
STARTCHAR germandbls
ENCODING 223
SWIDTH 611 0
DWIDTH 5 0
BBX 4 6 0 0
BITMAP
E0
D0
E0
D0
D0
A0
ENDCHAR
STARTCHAR racute
ENCODING 224
SWIDTH 389 0
DWIDTH 3 0
BBX 3 8 0 0
BITMAP
20
40
00
A0
E0
C0
C0
C0
ENDCHAR
STARTCHAR aacute
ENCODING 225
SWIDTH 556 0
DWIDTH 5 0
BBX 5 8 0 0
BITMAP
10
20
00
E0
30
F0
B0
D8
ENDCHAR
STARTCHAR acircumflex
ENCODING 226
SWIDTH 556 0
DWIDTH 5 0
BBX 5 8 0 0
BITMAP
40
A0
00
E0
30
F0
B0
D8
ENDCHAR
STARTCHAR abreve
ENCODING 227
SWIDTH 556 0
DWIDTH 5 0
BBX 5 8 0 0
BITMAP
90
60
00
E0
30
F0
B0
D8
ENDCHAR
STARTCHAR adieresis
ENCODING 228
SWIDTH 556 0
DWIDTH 5 0
BBX 5 7 0 0
BITMAP
A0
00
E0
30
F0
B0
D8
ENDCHAR
STARTCHAR lacute
ENCODING 229
SWIDTH 278 0
DWIDTH 2 0
BBX 2 10 0 0
BITMAP
40
80
00
80
80
80
80
80
80
80
ENDCHAR
STARTCHAR cacute
ENCODING 230
SWIDTH 556 0
DWIDTH 4 0
BBX 3 8 0 0
BITMAP
20
40
00
60
C0
C0
C0
60
ENDCHAR
STARTCHAR ccedilla
ENCODING 231
SWIDTH 556 0
DWIDTH 4 0
BBX 3 7 0 -2
BITMAP
60
C0
C0
C0
60
40
C0
ENDCHAR
STARTCHAR ccaron
ENCODING 232
SWIDTH 556 0
DWIDTH 4 0
BBX 3 8 0 0
BITMAP
A0
40
00
60
C0
C0
C0
60
ENDCHAR
STARTCHAR eacute
ENCODING 233
SWIDTH 556 0
DWIDTH 5 0
BBX 4 8 0 0
BITMAP
10
20
00
60
D0
F0
C0
60
ENDCHAR
STARTCHAR eogonek
ENCODING 234
SWIDTH 556 0
DWIDTH 5 0
BBX 4 7 0 -2
BITMAP
60
D0
F0
C0
60
40
60
ENDCHAR
STARTCHAR edieresis
ENCODING 235
SWIDTH 556 0
DWIDTH 5 0
BBX 4 7 0 0
BITMAP
50
00
60
D0
F0
C0
60
ENDCHAR
STARTCHAR ecaron
ENCODING 236
SWIDTH 556 0
DWIDTH 5 0
BBX 4 8 0 0
BITMAP
A0
40
00
60
D0
F0
C0
60
ENDCHAR
STARTCHAR iacute
ENCODING 237
SWIDTH 278 0
DWIDTH 2 0
BBX 2 8 0 0
BITMAP
40
80
00
80
80
80
80
80
ENDCHAR
STARTCHAR icircumflex
ENCODING 238
SWIDTH 278 0
DWIDTH 2 0
BBX 3 8 -1 0
BITMAP
40
A0
00
40
40
40
40
40
ENDCHAR
STARTCHAR dcaron
ENCODING 239
SWIDTH 858 0
DWIDTH 7 0
BBX 7 7 0 0
BITMAP
30
32
72
B4
B0
B0
70
ENDCHAR
STARTCHAR dcroat
ENCODING 240
SWIDTH 611 0
DWIDTH 5 0
BBX 4 7 0 0
BITMAP
30
F0
70
B0
B0
B0
70
ENDCHAR
STARTCHAR nacute
ENCODING 241
SWIDTH 611 0
DWIDTH 5 0
BBX 4 8 0 0
BITMAP
20
40
00
E0
D0
D0
D0
D0
ENDCHAR
STARTCHAR ncaron
ENCODING 242
SWIDTH 611 0
DWIDTH 5 0
BBX 4 8 0 0
BITMAP
A0
40
00
E0
D0
D0
D0
D0
ENDCHAR
STARTCHAR oacute
ENCODING 243
SWIDTH 611 0
DWIDTH 5 0
BBX 4 8 0 0
BITMAP
10
20
00
60
D0
D0
D0
60
ENDCHAR
STARTCHAR ocircumflex
ENCODING 244
SWIDTH 611 0
DWIDTH 5 0
BBX 4 8 0 0
BITMAP
20
50
00
60
D0
D0
D0
60
ENDCHAR
STARTCHAR ohungarumlaut
ENCODING 245
SWIDTH 611 0
DWIDTH 5 0
BBX 4 8 0 0
BITMAP
50
A0
00
60
D0
D0
D0
60
ENDCHAR
STARTCHAR odieresis
ENCODING 246
SWIDTH 611 0
DWIDTH 5 0
BBX 4 7 0 0
BITMAP
50
00
60
D0
D0
D0
60
ENDCHAR
STARTCHAR divide
ENCODING 247
SWIDTH 584 0
DWIDTH 5 0
BBX 5 5 0 0
BITMAP
20
00
F8
00
20
ENDCHAR
STARTCHAR rcaron
ENCODING 248
SWIDTH 389 0
DWIDTH 3 0
BBX 3 8 0 0
BITMAP
A0
40
00
A0
E0
C0
C0
C0
ENDCHAR
STARTCHAR uring
ENCODING 249
SWIDTH 611 0
DWIDTH 5 0
BBX 4 9 0 0
BITMAP
40
A0
40
00
D0
D0
D0
F0
50
ENDCHAR
STARTCHAR uacute
ENCODING 250
SWIDTH 611 0
DWIDTH 5 0
BBX 4 8 0 0
BITMAP
10
20
00
D0
D0
D0
F0
50
ENDCHAR
STARTCHAR uhungarumlaut
ENCODING 251
SWIDTH 611 0
DWIDTH 5 0
BBX 4 8 0 0
BITMAP
50
A0
00
D0
D0
D0
F0
50
ENDCHAR
STARTCHAR udieresis
ENCODING 252
SWIDTH 611 0
DWIDTH 5 0
BBX 4 7 0 0
BITMAP
50
00
D0
D0
D0
F0
50
ENDCHAR
STARTCHAR yacute
ENCODING 253
SWIDTH 556 0
DWIDTH 5 0
BBX 4 9 0 -1
BITMAP
10
20
00
D0
D0
D0
70
60
60
ENDCHAR
STARTCHAR tcommaaccent
ENCODING 254
SWIDTH 333 0
DWIDTH 3 0
BBX 4 9 -1 -2
BITMAP
20
60
F0
60
60
60
30
20
60
ENDCHAR
STARTCHAR dotaccent
ENCODING 255
SWIDTH 333 0
DWIDTH 2 0
BBX 1 1 0 7
BITMAP
80
ENDCHAR
ENDFONT
