STARTFONT 2.1
COMMENT AUTOMATICALLY GENERATED FILE. DO NOT EDIT!
COMMENT Generated with 'ucs2any ncenBI10.bdf /usr/local/share/fonts/X11/util/map-ISO8859-4 ISO8859-4'
COMMENT from an ISO10646-1 encoded source BDF font.
COMMENT ucs2any by Ben Collver <collver1@attbi.com>, 2003, based on
COMMENT ucs2any.pl by Markus Kuhn <http://www.cl.cam.ac.uk/~mgk25/>, 2000.
FONT -Adobe-New Century Schoolbook-Bold-I-Normal--10-100-75-75-P-66-ISO8859-4
SIZE 10 75 75
FONTBOUNDINGBOX 13 17 -2 -5
COMMENT ISO10646-1 extension by Markus Kuhn <mkuhn@acm.org>, 2001-03-20
COMMENT
COMMENT +
COMMENT  Copyright 1984-1989, 1994 Adobe Systems Incorporated.
COMMENT  Copyright 1988, 1994 Digital Equipment Corporation.
COMMENT
COMMENT  Adobe is a trademark of Adobe Systems Incorporated which may be
COMMENT  registered in certain jurisdictions.
COMMENT  Permission to use these trademarks is hereby granted only in
COMMENT  association with the images described in this file.
COMMENT
COMMENT  Permission to use, copy, modify, distribute and sell this software
COMMENT  and its documentation for any purpose and without fee is hereby
COMMENT  granted, provided that the above copyright notices appear in all
COMMENT  copies and that both those copyright notices and this permission
COMMENT  notice appear in supporting documentation, and that the names of
COMMENT  Adobe Systems and Digital Equipment Corporation not be used in
COMMENT  advertising or publicity pertaining to distribution of the software
COMMENT  without specific, written prior permission.  Adobe Systems and
COMMENT  Digital Equipment Corporation make no representations about the
COMMENT  suitability of this software for any purpose.  It is provided "as
COMMENT  is" without express or implied warranty.
COMMENT -
STARTPROPERTIES 26
FOUNDRY "Adobe"
FAMILY_NAME "New Century Schoolbook"
WEIGHT_NAME "Bold"
SLANT "I"
SETWIDTH_NAME "Normal"
ADD_STYLE_NAME ""
PIXEL_SIZE 10
POINT_SIZE 100
RESOLUTION_X 75
RESOLUTION_Y 75
SPACING "P"
AVERAGE_WIDTH 66
CHARSET_REGISTRY "ISO8859"
CHARSET_ENCODING "4"
CAP_HEIGHT 8
X_HEIGHT 5
FONT_ASCENT 10
FONT_DESCENT 2
FACE_NAME "New Century Schoolbook Bold Italic"
COPYRIGHT "Copyright (c) 1984, 1987 Adobe Systems Incorporated. All Rights Reserved. Copyright (c) 1988, 1991 Digital Equipment Corporation. All Rights Reserved."
NOTICE "New Century Schoolbook is a trademark of Linotype-Hell AG and/or its subsidiaries."
_DEC_DEVICE_FONTNAMES "PS=NewCenturySchlbk-BoldItalic"
DEFAULT_CHAR 0
RELATIVE_SETWIDTH 50
RELATIVE_WEIGHT 70
FULL_NAME "New Century Schoolbook Bold Italic"
ENDPROPERTIES
CHARS 192
STARTCHAR defaultchar
ENCODING 0
SWIDTH 870 0
DWIDTH 10 0
BBX 9 7 0 0
BITMAP
AA80
0000
8080
0000
8080
0000
AA80
ENDCHAR
STARTCHAR space
ENCODING 32
SWIDTH 287 0
DWIDTH 2 0
BBX 1 1 0 0
BITMAP
00
ENDCHAR
STARTCHAR exclam
ENCODING 33
SWIDTH 333 0
DWIDTH 5 0
BBX 3 8 0 0
BITMAP
60
60
60
40
40
00
C0
C0
ENDCHAR
STARTCHAR quotedbl
ENCODING 34
SWIDTH 400 0
DWIDTH 6 0
BBX 3 3 1 5
BITMAP
A0
A0
A0
ENDCHAR
STARTCHAR numbersign
ENCODING 35
SWIDTH 606 0
DWIDTH 8 0
BBX 7 7 0 0
BITMAP
14
14
7E
28
FC
50
50
ENDCHAR
STARTCHAR dollar
ENCODING 36
SWIDTH 574 0
DWIDTH 6 0
BBX 6 10 0 -1
BITMAP
10
38
54
50
70
38
28
A8
70
40
ENDCHAR
STARTCHAR percent
ENCODING 37
SWIDTH 889 0
DWIDTH 11 0
BBX 10 8 0 0
BITMAP
3200
5E00
D400
E4C0
C940
0B40
1380
1300
ENDCHAR
STARTCHAR ampersand
ENCODING 38
SWIDTH 889 0
DWIDTH 10 0
BBX 9 8 0 0
BITMAP
1800
3400
3400
3B80
5900
CE00
CC80
7700
ENDCHAR
STARTCHAR quotesingle
ENCODING 39
SWIDTH 287 0
DWIDTH 4 0
BBX 1 3 1 5
BITMAP
80
80
80
ENDCHAR
STARTCHAR parenleft
ENCODING 40
SWIDTH 407 0
DWIDTH 4 0
BBX 4 9 0 -1
BITMAP
10
20
40
40
80
80
80
80
40
ENDCHAR
STARTCHAR parenright
ENCODING 41
SWIDTH 407 0
DWIDTH 5 0
BBX 4 9 0 -1
BITMAP
20
10
10
10
10
20
20
40
80
ENDCHAR
STARTCHAR asterisk
ENCODING 42
SWIDTH 500 0
DWIDTH 6 0
BBX 5 5 0 3
BITMAP
20
A8
70
A8
20
ENDCHAR
STARTCHAR plus
ENCODING 43
SWIDTH 606 0
DWIDTH 6 0
BBX 5 5 0 1
BITMAP
20
20
F8
20
20
ENDCHAR
STARTCHAR comma
ENCODING 44
SWIDTH 287 0
DWIDTH 3 0
BBX 2 4 0 -2
BITMAP
C0
C0
40
80
ENDCHAR
STARTCHAR hyphen
ENCODING 45
SWIDTH 333 0
DWIDTH 4 0
BBX 3 1 0 3
BITMAP
E0
ENDCHAR
STARTCHAR period
ENCODING 46
SWIDTH 287 0
DWIDTH 3 0
BBX 2 2 0 0
BITMAP
C0
C0
ENDCHAR
STARTCHAR slash
ENCODING 47
SWIDTH 278 0
DWIDTH 5 0
BBX 4 8 0 0
BITMAP
10
10
20
20
40
40
80
80
ENDCHAR
STARTCHAR zero
ENCODING 48
SWIDTH 574 0
DWIDTH 6 0
BBX 5 8 0 0
BITMAP
30
58
58
98
98
B0
B0
60
ENDCHAR
STARTCHAR one
ENCODING 49
SWIDTH 574 0
DWIDTH 6 0
BBX 4 8 0 0
BITMAP
30
70
30
30
60
60
60
F0
ENDCHAR
STARTCHAR two
ENCODING 50
SWIDTH 574 0
DWIDTH 6 0
BBX 5 8 0 0
BITMAP
70
58
18
10
20
48
F8
F0
ENDCHAR
STARTCHAR three
ENCODING 51
SWIDTH 574 0
DWIDTH 6 0
BBX 5 8 0 0
BITMAP
30
58
18
30
18
18
B0
E0
ENDCHAR
STARTCHAR four
ENCODING 52
SWIDTH 574 0
DWIDTH 6 0
BBX 5 8 0 0
BITMAP
18
38
58
58
B0
F8
30
78
ENDCHAR
STARTCHAR five
ENCODING 53
SWIDTH 574 0
DWIDTH 6 0
BBX 6 8 0 0
BITMAP
3C
38
40
70
18
18
B0
E0
ENDCHAR
STARTCHAR six
ENCODING 54
SWIDTH 574 0
DWIDTH 6 0
BBX 5 8 0 0
BITMAP
38
68
40
F0
C8
C8
D0
60
ENDCHAR
STARTCHAR seven
ENCODING 55
SWIDTH 574 0
DWIDTH 6 0
BBX 5 8 0 0
BITMAP
F8
F8
90
10
20
20
60
60
ENDCHAR
STARTCHAR eight
ENCODING 56
SWIDTH 574 0
DWIDTH 6 0
BBX 5 8 0 0
BITMAP
30
48
68
70
B8
98
90
60
ENDCHAR
STARTCHAR nine
ENCODING 57
SWIDTH 574 0
DWIDTH 6 0
BBX 5 8 0 0
BITMAP
30
58
98
98
78
10
B0
E0
ENDCHAR
STARTCHAR colon
ENCODING 58
SWIDTH 287 0
DWIDTH 4 0
BBX 3 5 0 0
BITMAP
60
60
00
C0
C0
ENDCHAR
STARTCHAR semicolon
ENCODING 59
SWIDTH 287 0
DWIDTH 4 0
BBX 3 7 0 -2
BITMAP
60
60
00
C0
C0
40
80
ENDCHAR
STARTCHAR less
ENCODING 60
SWIDTH 606 0
DWIDTH 7 0
BBX 6 5 0 1
BITMAP
0C
30
C0
30
0C
ENDCHAR
STARTCHAR equal
ENCODING 61
SWIDTH 606 0
DWIDTH 6 0
BBX 5 3 0 2
BITMAP
F8
00
F8
ENDCHAR
STARTCHAR greater
ENCODING 62
SWIDTH 606 0
DWIDTH 7 0
BBX 6 5 0 1
BITMAP
C0
30
0C
30
C0
ENDCHAR
STARTCHAR question
ENCODING 63
SWIDTH 481 0
DWIDTH 6 0
BBX 5 8 0 0
BITMAP
70
98
18
30
40
00
C0
C0
ENDCHAR
STARTCHAR at
ENCODING 64
SWIDTH 747 0
DWIDTH 11 0
BBX 10 8 0 0
BITMAP
0F80
3040
4F40
9340
B680
BB00
4080
3F00
ENDCHAR
STARTCHAR A
ENCODING 65
SWIDTH 741 0
DWIDTH 8 0
BBX 9 8 -1 0
BITMAP
0C00
0C00
1C00
1600
2600
3F00
4300
E780
ENDCHAR
STARTCHAR B
ENCODING 66
SWIDTH 759 0
DWIDTH 8 0
BBX 7 8 0 0
BITMAP
7C
36
36
3C
66
66
66
FC
ENDCHAR
STARTCHAR C
ENCODING 67
SWIDTH 759 0
DWIDTH 7 0
BBX 7 8 0 0
BITMAP
3E
62
60
C0
C0
C0
C4
78
ENDCHAR
STARTCHAR D
ENCODING 68
SWIDTH 833 0
DWIDTH 9 0
BBX 8 8 0 0
BITMAP
7E
33
33
33
63
66
66
FC
ENDCHAR
STARTCHAR E
ENCODING 69
SWIDTH 741 0
DWIDTH 8 0
BBX 7 8 0 0
BITMAP
7E
32
34
3C
64
60
64
FC
ENDCHAR
STARTCHAR F
ENCODING 70
SWIDTH 704 0
DWIDTH 7 0
BBX 7 8 0 0
BITMAP
7E
32
34
3C
64
60
60
F0
ENDCHAR
STARTCHAR G
ENCODING 71
SWIDTH 815 0
DWIDTH 8 0
BBX 7 8 0 0
BITMAP
3E
62
60
C0
CE
C6
CC
74
ENDCHAR
STARTCHAR H
ENCODING 72
SWIDTH 870 0
DWIDTH 10 0
BBX 9 8 0 0
BITMAP
7B80
3300
3300
3E00
6600
6600
6600
EF00
ENDCHAR
STARTCHAR I
ENCODING 73
SWIDTH 444 0
DWIDTH 6 0
BBX 5 8 0 0
BITMAP
78
30
30
30
60
60
60
F0
ENDCHAR
STARTCHAR J
ENCODING 74
SWIDTH 667 0
DWIDTH 7 0
BBX 7 8 -1 0
BITMAP
1E
0C
0C
0C
18
D8
98
70
ENDCHAR
STARTCHAR K
ENCODING 75
SWIDTH 778 0
DWIDTH 10 0
BBX 9 8 0 0
BITMAP
7B80
3100
3200
3400
7E00
6600
6300
F380
ENDCHAR
STARTCHAR L
ENCODING 76
SWIDTH 704 0
DWIDTH 7 0
BBX 6 8 0 0
BITMAP
78
30
30
30
60
60
64
FC
ENDCHAR
STARTCHAR M
ENCODING 77
SWIDTH 944 0
DWIDTH 11 0
BBX 12 8 -1 0
BITMAP
78F0
38E0
3960
2D60
6EC0
4EC0
4CC0
EDE0
ENDCHAR
STARTCHAR N
ENCODING 78
SWIDTH 852 0
DWIDTH 8 0
BBX 9 8 -1 0
BITMAP
7380
3900
3900
2D00
6F00
4600
4600
E200
ENDCHAR
STARTCHAR O
ENCODING 79
SWIDTH 833 0
DWIDTH 8 0
BBX 7 8 0 0
BITMAP
3C
66
66
C6
C6
CC
CC
78
ENDCHAR
STARTCHAR P
ENCODING 80
SWIDTH 741 0
DWIDTH 8 0
BBX 8 8 0 0
BITMAP
7E
33
33
33
7C
60
60
F0
ENDCHAR
STARTCHAR Q
ENCODING 81
SWIDTH 833 0
DWIDTH 8 0
BBX 7 10 0 -2
BITMAP
3C
66
66
C6
C6
EC
DC
78
1A
0C
ENDCHAR
STARTCHAR R
ENCODING 82
SWIDTH 796 0
DWIDTH 9 0
BBX 8 8 0 0
BITMAP
7E
33
33
3E
6C
66
66
F7
ENDCHAR
STARTCHAR S
ENCODING 83
SWIDTH 685 0
DWIDTH 7 0
BBX 6 8 0 0
BITMAP
3C
64
40
70
38
08
98
F0
ENDCHAR
STARTCHAR T
ENCODING 84
SWIDTH 722 0
DWIDTH 7 0
BBX 6 8 0 0
BITMAP
FC
B4
B4
30
60
60
60
F0
ENDCHAR
STARTCHAR U
ENCODING 85
SWIDTH 833 0
DWIDTH 8 0
BBX 8 8 0 0
BITMAP
F7
62
62
62
C4
C4
C4
78
ENDCHAR
STARTCHAR V
ENCODING 86
SWIDTH 741 0
DWIDTH 8 0
BBX 8 8 0 0
BITMAP
F7
62
64
64
68
38
30
30
ENDCHAR
STARTCHAR W
ENCODING 87
SWIDTH 944 0
DWIDTH 11 0
BBX 11 8 0 0
BITMAP
F6E0
6640
6640
6E80
6E80
3300
3300
3300
ENDCHAR
STARTCHAR X
ENCODING 88
SWIDTH 741 0
DWIDTH 8 0
BBX 9 8 -1 0
BITMAP
7B80
3100
1A00
0C00
1800
2C00
4600
EF00
ENDCHAR
STARTCHAR Y
ENCODING 89
SWIDTH 704 0
DWIDTH 7 0
BBX 8 8 0 0
BITMAP
F7
62
64
68
30
30
60
F0
ENDCHAR
STARTCHAR Z
ENCODING 90
SWIDTH 704 0
DWIDTH 8 0
BBX 7 8 0 0
BITMAP
7E
46
4C
18
30
64
C4
FC
ENDCHAR
STARTCHAR bracketleft
ENCODING 91
SWIDTH 407 0
DWIDTH 5 0
BBX 4 9 0 -1
BITMAP
30
20
20
40
40
40
80
80
C0
ENDCHAR
STARTCHAR backslash
ENCODING 92
SWIDTH 606 0
DWIDTH 5 0
BBX 4 8 0 0
BITMAP
80
80
40
40
20
20
10
10
ENDCHAR
STARTCHAR bracketright
ENCODING 93
SWIDTH 407 0
DWIDTH 5 0
BBX 4 9 0 -1
BITMAP
30
10
10
20
20
20
40
40
C0
ENDCHAR
STARTCHAR asciicircum
ENCODING 94
SWIDTH 606 0
DWIDTH 6 0
BBX 5 6 0 2
BITMAP
20
20
50
50
88
88
ENDCHAR
STARTCHAR underscore
ENCODING 95
SWIDTH 500 0
DWIDTH 5 0
BBX 5 1 0 -2
BITMAP
F8
ENDCHAR
STARTCHAR grave
ENCODING 96
SWIDTH 333 0
DWIDTH 4 0
BBX 3 2 0 6
BITMAP
C0
60
ENDCHAR
STARTCHAR a
ENCODING 97
SWIDTH 667 0
DWIDTH 7 0
BBX 6 5 0 0
BITMAP
3C
CC
D8
D8
6C
ENDCHAR
STARTCHAR b
ENCODING 98
SWIDTH 611 0
DWIDTH 7 0
BBX 6 8 0 0
BITMAP
70
30
60
78
CC
CC
D8
70
ENDCHAR
STARTCHAR c
ENCODING 99
SWIDTH 537 0
DWIDTH 6 0
BBX 5 5 0 0
BITMAP
38
48
C0
C8
70
ENDCHAR
STARTCHAR d
ENCODING 100
SWIDTH 667 0
DWIDTH 7 0
BBX 7 8 0 0
BITMAP
0E
06
0C
3C
CC
D8
D8
6C
ENDCHAR
STARTCHAR e
ENCODING 101
SWIDTH 519 0
DWIDTH 6 0
BBX 5 5 0 0
BITMAP
38
48
F0
C8
70
ENDCHAR
STARTCHAR f
ENCODING 102
SWIDTH 389 0
DWIDTH 5 0
BBX 6 10 0 -2
BITMAP
1C
34
30
F8
60
60
60
C0
C0
C0
ENDCHAR
STARTCHAR g
ENCODING 103
SWIDTH 611 0
DWIDTH 6 0
BBX 7 8 -1 -2
BITMAP
06
3C
64
78
20
7C
8C
F8
ENDCHAR
STARTCHAR h
ENCODING 104
SWIDTH 685 0
DWIDTH 7 0
BBX 6 8 0 0
BITMAP
70
30
60
78
6C
6C
D8
DC
ENDCHAR
STARTCHAR i
ENCODING 105
SWIDTH 389 0
DWIDTH 4 0
BBX 3 8 0 0
BITMAP
60
60
00
E0
60
C0
C0
E0
ENDCHAR
STARTCHAR j
ENCODING 106
SWIDTH 370 0
DWIDTH 4 0
BBX 5 10 -2 -2
BITMAP
18
18
00
38
18
18
30
30
30
E0
ENDCHAR
STARTCHAR k
ENCODING 107
SWIDTH 648 0
DWIDTH 7 0
BBX 7 8 0 0
BITMAP
70
30
60
6C
74
F8
DA
CC
ENDCHAR
STARTCHAR l
ENCODING 108
SWIDTH 389 0
DWIDTH 4 0
BBX 4 8 0 0
BITMAP
70
30
60
60
60
C0
C0
E0
ENDCHAR
STARTCHAR m
ENCODING 109
SWIDTH 944 0
DWIDTH 10 0
BBX 9 5 0 0
BITMAP
DB00
6D80
6D80
DB00
DB80
ENDCHAR
STARTCHAR n
ENCODING 110
SWIDTH 685 0
DWIDTH 7 0
BBX 6 5 0 0
BITMAP
D8
6C
6C
D8
DC
ENDCHAR
STARTCHAR o
ENCODING 111
SWIDTH 574 0
DWIDTH 6 0
BBX 5 5 0 0
BITMAP
30
58
D8
D0
60
ENDCHAR
STARTCHAR p
ENCODING 112
SWIDTH 648 0
DWIDTH 7 0
BBX 7 7 -1 -2
BITMAP
6C
36
36
64
78
60
F0
ENDCHAR
STARTCHAR q
ENCODING 113
SWIDTH 630 0
DWIDTH 7 0
BBX 6 7 0 -2
BITMAP
34
CC
CC
D8
78
18
3C
ENDCHAR
STARTCHAR r
ENCODING 114
SWIDTH 519 0
DWIDTH 5 0
BBX 5 5 0 0
BITMAP
D8
68
60
C0
C0
ENDCHAR
STARTCHAR s
ENCODING 115
SWIDTH 481 0
DWIDTH 4 0
BBX 5 5 -1 0
BITMAP
38
60
70
30
E0
ENDCHAR
STARTCHAR t
ENCODING 116
SWIDTH 407 0
DWIDTH 4 0
BBX 4 7 0 0
BITMAP
60
60
F0
60
C0
C0
E0
ENDCHAR
STARTCHAR u
ENCODING 117
SWIDTH 685 0
DWIDTH 7 0
BBX 6 5 0 0
BITMAP
EC
6C
D8
D8
6C
ENDCHAR
STARTCHAR v
ENCODING 118
SWIDTH 556 0
DWIDTH 6 0
BBX 5 5 0 0
BITMAP
E8
68
C8
D0
60
ENDCHAR
STARTCHAR w
ENCODING 119
SWIDTH 833 0
DWIDTH 10 0
BBX 9 5 0 0
BITMAP
ED80
6C80
CC80
D500
6600
ENDCHAR
STARTCHAR x
ENCODING 120
SWIDTH 574 0
DWIDTH 7 0
BBX 7 5 -1 0
BITMAP
36
5C
18
3A
CC
ENDCHAR
STARTCHAR y
ENCODING 121
SWIDTH 519 0
DWIDTH 7 0
BBX 6 7 0 -2
BITMAP
EC
64
68
28
30
A0
C0
ENDCHAR
STARTCHAR z
ENCODING 122
SWIDTH 519 0
DWIDTH 5 0
BBX 6 5 -1 0
BITMAP
7C
58
30
68
F8
ENDCHAR
STARTCHAR braceleft
ENCODING 123
SWIDTH 407 0
DWIDTH 5 0
BBX 4 9 0 -1
BITMAP
10
20
20
40
80
40
40
40
20
ENDCHAR
STARTCHAR bar
ENCODING 124
SWIDTH 606 0
DWIDTH 6 0
BBX 1 8 2 0
BITMAP
80
80
80
80
80
80
80
80
ENDCHAR
STARTCHAR braceright
ENCODING 125
SWIDTH 407 0
DWIDTH 5 0
BBX 4 9 0 -1
BITMAP
40
20
20
20
10
20
40
40
80
ENDCHAR
STARTCHAR asciitilde
ENCODING 126
SWIDTH 606 0
DWIDTH 7 0
BBX 6 2 0 3
BITMAP
64
98
ENDCHAR
STARTCHAR space
ENCODING 160
SWIDTH 287 0
DWIDTH 2 0
BBX 1 1 0 0
BITMAP
00
ENDCHAR
STARTCHAR Aogonek
ENCODING 161
SWIDTH 741 0
DWIDTH 8 0
BBX 9 10 -1 -2
BITMAP
0C00
0C00
1C00
1600
2600
3F00
4300
EF80
1000
1800
ENDCHAR
STARTCHAR kgreenlandic
ENCODING 162
SWIDTH 648 0
DWIDTH 7 0
BBX 7 5 0 0
BITMAP
6C
74
F8
DA
CC
ENDCHAR
STARTCHAR Rcommaaccent
ENCODING 163
SWIDTH 796 0
DWIDTH 9 0
BBX 8 13 0 -5
BITMAP
7E
33
33
3E
6C
66
66
F7
00
18
18
08
10
ENDCHAR
STARTCHAR currency
ENCODING 164
SWIDTH 574 0
DWIDTH 7 0
BBX 6 6 0 1
BITMAP
84
78
CC
CC
78
84
ENDCHAR
STARTCHAR Itilde
ENCODING 165
SWIDTH 444 0
DWIDTH 6 0
BBX 6 11 0 0
BITMAP
34
58
00
78
30
30
30
60
60
60
F0
ENDCHAR
STARTCHAR Lcommaaccent
ENCODING 166
SWIDTH 704 0
DWIDTH 7 0
BBX 6 13 0 -5
BITMAP
78
30
30
30
60
60
64
FC
00
30
30
10
20
ENDCHAR
STARTCHAR section
ENCODING 167
SWIDTH 500 0
DWIDTH 6 0
BBX 5 10 0 -2
BITMAP
38
48
60
70
98
C8
70
30
90
E0
ENDCHAR
STARTCHAR dieresis
ENCODING 168
SWIDTH 333 0
DWIDTH 4 0
BBX 3 2 0 6
BITMAP
A0
A0
ENDCHAR
STARTCHAR Scaron
ENCODING 169
SWIDTH 685 0
DWIDTH 7 0
BBX 6 9 0 0
BITMAP
6C
38
10
3C
64
70
38
98
F0
ENDCHAR
STARTCHAR Emacron
ENCODING 170
SWIDTH 741 0
DWIDTH 8 0
BBX 7 10 0 0
BITMAP
3C
00
7E
32
34
3C
64
60
64
FC
ENDCHAR
STARTCHAR Gcommaaccent
ENCODING 171
SWIDTH 815 0
DWIDTH 8 0
BBX 7 13 0 -5
BITMAP
3E
62
60
C0
CE
C6
CC
74
00
30
30
10
20
ENDCHAR
STARTCHAR Tbar
ENCODING 172
SWIDTH 722 0
DWIDTH 7 0
BBX 6 8 0 0
BITMAP
FC
B4
B4
7C
60
60
60
F0
ENDCHAR
STARTCHAR hyphen
ENCODING 173
SWIDTH 333 0
DWIDTH 4 0
BBX 3 1 0 3
BITMAP
E0
ENDCHAR
STARTCHAR Zcaron
ENCODING 174
SWIDTH 704 0
DWIDTH 8 0
BBX 7 9 0 0
BITMAP
6C
38
10
7E
4C
18
30
64
FC
ENDCHAR
STARTCHAR macron
ENCODING 175
SWIDTH 333 0
DWIDTH 5 0
BBX 4 1 0 6
BITMAP
F0
ENDCHAR
STARTCHAR degree
ENCODING 176
SWIDTH 400 0
DWIDTH 4 0
BBX 3 3 1 5
BITMAP
60
A0
C0
ENDCHAR
STARTCHAR aogonek
ENCODING 177
SWIDTH 667 0
DWIDTH 7 0
BBX 6 7 0 -2
BITMAP
3C
CC
D8
D8
7C
20
30
ENDCHAR
STARTCHAR ogonek
ENCODING 178
SWIDTH 333 0
DWIDTH 3 0
BBX 2 3 0 -2
BITMAP
40
80
C0
ENDCHAR
STARTCHAR rcommaaccent
ENCODING 179
SWIDTH 519 0
DWIDTH 5 0
BBX 5 10 0 -5
BITMAP
D8
68
60
C0
C0
00
60
60
20
40
ENDCHAR
STARTCHAR acute
ENCODING 180
SWIDTH 333 0
DWIDTH 4 0
BBX 3 2 0 6
BITMAP
60
C0
ENDCHAR
STARTCHAR itilde
ENCODING 181
SWIDTH 389 0
DWIDTH 4 0
BBX 5 8 -1 0
BITMAP
68
B0
00
70
30
60
60
70
ENDCHAR
STARTCHAR lcommaaccent
ENCODING 182
SWIDTH 389 0
DWIDTH 4 0
BBX 4 13 0 -5
BITMAP
70
30
60
60
60
C0
C0
E0
00
C0
C0
40
80
ENDCHAR
STARTCHAR caron
ENCODING 183
SWIDTH 333 0
DWIDTH 6 0
BBX 5 3 0 6
BITMAP
D8
70
20
ENDCHAR
STARTCHAR cedilla
ENCODING 184
SWIDTH 333 0
DWIDTH 4 0
BBX 3 3 0 -2
BITMAP
40
20
C0
ENDCHAR
STARTCHAR scaron
ENCODING 185
SWIDTH 481 0
DWIDTH 4 0
BBX 6 9 -1 0
BITMAP
6C
38
10
00
38
60
70
30
E0
ENDCHAR
STARTCHAR emacron
ENCODING 186
SWIDTH 519 0
DWIDTH 6 0
BBX 5 7 0 0
BITMAP
78
00
38
48
F0
C8
70
ENDCHAR
STARTCHAR gcommaaccent
ENCODING 187
SWIDTH 611 0
DWIDTH 6 0
BBX 7 13 -1 -2
BITMAP
08
10
18
18
00
06
3C
64
78
20
7C
8C
F8
ENDCHAR
STARTCHAR tbar
ENCODING 188
SWIDTH 407 0
DWIDTH 4 0
BBX 5 7 0 0
BITMAP
60
60
F0
60
F8
C0
E0
ENDCHAR
STARTCHAR Eng
ENCODING 189
SWIDTH 852 0
DWIDTH 8 0
BBX 9 10 -1 -2
BITMAP
7380
3900
3900
2D00
6F00
4600
4600
E600
0600
1C00
ENDCHAR
STARTCHAR zcaron
ENCODING 190
SWIDTH 519 0
DWIDTH 5 0
BBX 6 9 -1 0
BITMAP
6C
38
10
00
7C
58
30
68
F8
ENDCHAR
STARTCHAR eng
ENCODING 191
SWIDTH 685 0
DWIDTH 7 0
BBX 6 7 0 -2
BITMAP
D8
6C
6C
D8
D8
18
70
ENDCHAR
STARTCHAR Amacron
ENCODING 192
SWIDTH 741 0
DWIDTH 8 0
BBX 9 10 -1 0
BITMAP
1E00
0000
0C00
0C00
1C00
1600
2600
3F00
4300
E780
ENDCHAR
STARTCHAR Aacute
ENCODING 193
SWIDTH 741 0
DWIDTH 8 0
BBX 9 11 -1 0
BITMAP
0600
0C00
0000
0C00
0C00
1C00
1600
2600
3F00
4300
E780
ENDCHAR
STARTCHAR Acircumflex
ENCODING 194
SWIDTH 741 0
DWIDTH 8 0
BBX 9 11 -1 0
BITMAP
0E00
1B00
0000
0C00
0C00
1C00
1600
2600
3F00
4300
E780
ENDCHAR
STARTCHAR Atilde
ENCODING 195
SWIDTH 741 0
DWIDTH 8 0
BBX 9 11 -1 0
BITMAP
0D00
1600
0000
0C00
0C00
1C00
1600
2600
3F00
4300
E780
ENDCHAR
STARTCHAR Adieresis
ENCODING 196
SWIDTH 741 0
DWIDTH 8 0
BBX 9 11 -1 0
BITMAP
0A00
0A00
0000
0C00
0C00
1C00
1600
2600
3F00
4300
E780
ENDCHAR
STARTCHAR Aring
ENCODING 197
SWIDTH 741 0
DWIDTH 8 0
BBX 9 11 -1 0
BITMAP
0C00
1200
0C00
0C00
0C00
1C00
1600
2600
3F00
4300
E780
ENDCHAR
STARTCHAR AE
ENCODING 198
SWIDTH 889 0
DWIDTH 10 0
BBX 10 8 -1 0
BITMAP
3FC0
1640
1680
2780
3C80
4C00
4C80
DF80
ENDCHAR
STARTCHAR Iogonek
ENCODING 199
SWIDTH 444 0
DWIDTH 6 0
BBX 5 10 0 -2
BITMAP
78
30
30
30
60
60
60
F0
40
60
ENDCHAR
STARTCHAR Ccaron
ENCODING 200
SWIDTH 759 0
DWIDTH 7 0
BBX 7 12 0 0
BITMAP
6C
38
10
00
3E
62
60
C0
C0
C0
C4
78
ENDCHAR
STARTCHAR Eacute
ENCODING 201
SWIDTH 741 0
DWIDTH 8 0
BBX 7 11 0 0
BITMAP
0C
18
00
7E
32
34
3C
64
60
64
FC
ENDCHAR
STARTCHAR Eogonek
ENCODING 202
SWIDTH 741 0
DWIDTH 8 0
BBX 7 10 0 -2
BITMAP
7E
32
34
3C
64
60
64
FC
20
30
ENDCHAR
STARTCHAR Edieresis
ENCODING 203
SWIDTH 741 0
DWIDTH 8 0
BBX 7 11 0 0
BITMAP
14
14
00
7E
32
34
3C
64
60
64
FC
ENDCHAR
STARTCHAR Edotaccent
ENCODING 204
SWIDTH 741 0
DWIDTH 8 0
BBX 7 11 0 0
BITMAP
10
10
00
7E
32
34
3C
64
60
64
FC
ENDCHAR
STARTCHAR Iacute
ENCODING 205
SWIDTH 444 0
DWIDTH 6 0
BBX 5 11 0 0
BITMAP
18
30
00
78
30
30
30
60
60
60
F0
ENDCHAR
STARTCHAR Icircumflex
ENCODING 206
SWIDTH 444 0
DWIDTH 6 0
BBX 6 11 0 0
BITMAP
38
6C
00
78
30
30
30
60
60
60
F0
ENDCHAR
STARTCHAR Imacron
ENCODING 207
SWIDTH 444 0
DWIDTH 6 0
BBX 5 10 0 0
BITMAP
78
00
78
30
30
30
60
60
60
F0
ENDCHAR
STARTCHAR Dcroat
ENCODING 208
SWIDTH 833 0
DWIDTH 9 0
BBX 8 8 0 0
BITMAP
7E
33
33
FB
23
62
66
FC
ENDCHAR
STARTCHAR Ncommaaccent
ENCODING 209
SWIDTH 852 0
DWIDTH 8 0
BBX 9 13 -1 -5
BITMAP
7380
3900
3900
2D00
6F00
4600
4600
E200
0000
1800
1800
0800
1000
ENDCHAR
STARTCHAR Omacron
ENCODING 210
SWIDTH 833 0
DWIDTH 8 0
BBX 7 10 0 0
BITMAP
3C
00
3C
66
66
C6
C6
CC
CC
78
ENDCHAR
STARTCHAR Kcommaaccent
ENCODING 211
SWIDTH 778 0
DWIDTH 10 0
BBX 9 13 0 -5
BITMAP
7B80
3100
3200
3400
7E00
6600
6300
F380
0000
1800
1800
0800
1000
ENDCHAR
STARTCHAR Ocircumflex
ENCODING 212
SWIDTH 833 0
DWIDTH 8 0
BBX 7 11 0 0
BITMAP
1C
36
00
3C
66
66
C6
C6
CC
CC
78
ENDCHAR
STARTCHAR Otilde
ENCODING 213
SWIDTH 833 0
DWIDTH 8 0
BBX 8 11 0 0
BITMAP
0D
16
00
3C
66
66
C6
C6
CC
CC
78
ENDCHAR
STARTCHAR Odieresis
ENCODING 214
SWIDTH 833 0
DWIDTH 8 0
BBX 7 11 0 0
BITMAP
14
14
00
3C
66
66
C6
C6
CC
CC
78
ENDCHAR
STARTCHAR multiply
ENCODING 215
SWIDTH 606 0
DWIDTH 6 0
BBX 6 5 0 1
BITMAP
CC
78
30
78
CC
ENDCHAR
STARTCHAR Oslash
ENCODING 216
SWIDTH 833 0
DWIDTH 8 0
BBX 9 8 -1 0
BITMAP
1E80
3300
6700
6B00
6B00
7300
6600
BC00
ENDCHAR
STARTCHAR Uogonek
ENCODING 217
SWIDTH 833 0
DWIDTH 8 0
BBX 8 10 0 -2
BITMAP
F7
62
62
62
C4
C4
C4
78
20
30
ENDCHAR
STARTCHAR Uacute
ENCODING 218
SWIDTH 833 0
DWIDTH 8 0
BBX 8 11 0 0
BITMAP
06
0C
00
F7
62
62
62
C4
C4
C4
78
ENDCHAR
STARTCHAR Ucircumflex
ENCODING 219
SWIDTH 833 0
DWIDTH 8 0
BBX 8 11 0 0
BITMAP
0E
33
00
F7
62
62
62
C4
C4
C4
78
ENDCHAR
STARTCHAR Udieresis
ENCODING 220
SWIDTH 833 0
DWIDTH 8 0
BBX 8 11 0 0
BITMAP
14
14
00
F7
62
62
62
C4
C4
C4
78
ENDCHAR
STARTCHAR Utilde
ENCODING 221
SWIDTH 833 0
DWIDTH 8 0
BBX 8 11 0 0
BITMAP
1A
2C
00
F7
62
62
62
C4
C4
C4
78
ENDCHAR
STARTCHAR Umacron
ENCODING 222
SWIDTH 833 0
DWIDTH 8 0
BBX 8 10 0 0
BITMAP
3C
00
F7
62
62
62
C4
C4
C4
78
ENDCHAR
STARTCHAR germandbls
ENCODING 223
SWIDTH 574 0
DWIDTH 8 0
BBX 7 10 0 -2
BITMAP
1C
36
36
6C
66
66
66
DC
C0
C0
ENDCHAR
STARTCHAR amacron
ENCODING 224
SWIDTH 667 0
DWIDTH 7 0
BBX 6 7 0 0
BITMAP
78
00
3C
CC
D8
D8
6C
ENDCHAR
STARTCHAR aacute
ENCODING 225
SWIDTH 667 0
DWIDTH 7 0
BBX 6 8 0 0
BITMAP
18
30
00
3C
CC
D8
D8
6C
ENDCHAR
STARTCHAR acircumflex
ENCODING 226
SWIDTH 667 0
DWIDTH 7 0
BBX 6 8 0 0
BITMAP
38
6C
00
3C
CC
D8
D8
6C
ENDCHAR
STARTCHAR atilde
ENCODING 227
SWIDTH 667 0
DWIDTH 7 0
BBX 6 8 0 0
BITMAP
34
58
00
3C
CC
D8
D8
6C
ENDCHAR
STARTCHAR adieresis
ENCODING 228
SWIDTH 667 0
DWIDTH 7 0
BBX 6 8 0 0
BITMAP
28
28
00
3C
CC
D8
D8
6C
ENDCHAR
STARTCHAR aring
ENCODING 229
SWIDTH 667 0
DWIDTH 7 0
BBX 6 9 0 0
BITMAP
18
24
18
00
3C
CC
D8
D8
6C
ENDCHAR
STARTCHAR ae
ENCODING 230
SWIDTH 815 0
DWIDTH 9 0
BBX 8 5 0 0
BITMAP
77
1B
7E
D9
EE
ENDCHAR
STARTCHAR iogonek
ENCODING 231
SWIDTH 389 0
DWIDTH 4 0
BBX 3 10 0 -2
BITMAP
60
60
00
E0
60
C0
C0
E0
80
C0
ENDCHAR
STARTCHAR ccaron
ENCODING 232
SWIDTH 537 0
DWIDTH 6 0
BBX 6 9 0 0
BITMAP
6C
38
10
00
38
48
C0
C8
70
ENDCHAR
STARTCHAR eacute
ENCODING 233
SWIDTH 519 0
DWIDTH 6 0
BBX 5 8 0 0
BITMAP
18
30
00
38
48
F0
C8
70
ENDCHAR
STARTCHAR eogonek
ENCODING 234
SWIDTH 519 0
DWIDTH 6 0
BBX 5 7 0 -2
BITMAP
38
48
F0
C8
70
40
60
ENDCHAR
STARTCHAR edieresis
ENCODING 235
SWIDTH 519 0
DWIDTH 6 0
BBX 5 8 0 0
BITMAP
28
28
00
38
48
F0
C8
70
ENDCHAR
STARTCHAR edotaccent
ENCODING 236
SWIDTH 519 0
DWIDTH 6 0
BBX 5 8 0 0
BITMAP
10
10
00
38
48
F0
C8
70
ENDCHAR
STARTCHAR iacute
ENCODING 237
SWIDTH 389 0
DWIDTH 4 0
BBX 3 8 0 0
BITMAP
60
C0
00
E0
60
C0
C0
E0
ENDCHAR
STARTCHAR icircumflex
ENCODING 238
SWIDTH 389 0
DWIDTH 4 0
BBX 5 8 -1 0
BITMAP
70
D8
00
70
30
60
60
70
ENDCHAR
STARTCHAR imacron
ENCODING 239
SWIDTH 389 0
DWIDTH 4 0
BBX 4 7 0 0
BITMAP
F0
00
E0
60
C0
C0
E0
ENDCHAR
STARTCHAR dcroat
ENCODING 240
SWIDTH 667 0
DWIDTH 7 0
BBX 8 8 0 0
BITMAP
0E
06
1F
3C
CC
D8
D8
6C
ENDCHAR
STARTCHAR ncommaaccent
ENCODING 241
SWIDTH 685 0
DWIDTH 7 0
BBX 6 10 0 -5
BITMAP
D8
6C
6C
D8
DC
00
30
30
10
20
ENDCHAR
STARTCHAR omacron
ENCODING 242
SWIDTH 574 0
DWIDTH 6 0
BBX 5 7 0 0
BITMAP
78
00
30
58
D8
D0
60
ENDCHAR
STARTCHAR kcommaaccent
ENCODING 243
SWIDTH 648 0
DWIDTH 7 0
BBX 7 13 0 -5
BITMAP
70
30
60
6C
74
F8
DA
CC
00
30
30
10
20
ENDCHAR
STARTCHAR ocircumflex
ENCODING 244
SWIDTH 574 0
DWIDTH 6 0
BBX 5 8 0 0
BITMAP
70
D8
00
30
58
D8
D0
60
ENDCHAR
STARTCHAR otilde
ENCODING 245
SWIDTH 574 0
DWIDTH 6 0
BBX 5 8 0 0
BITMAP
68
B0
00
30
58
D8
D0
60
ENDCHAR
STARTCHAR odieresis
ENCODING 246
SWIDTH 574 0
DWIDTH 6 0
BBX 5 8 0 0
BITMAP
28
28
00
30
58
D8
D0
60
ENDCHAR
STARTCHAR divide
ENCODING 247
SWIDTH 606 0
DWIDTH 6 0
BBX 5 5 0 1
BITMAP
20
00
F8
00
20
ENDCHAR
STARTCHAR oslash
ENCODING 248
SWIDTH 574 0
DWIDTH 6 0
BBX 7 5 -1 0
BITMAP
1A
6C
6C
6C
B0
ENDCHAR
STARTCHAR uogonek
ENCODING 249
SWIDTH 685 0
DWIDTH 7 0
BBX 6 7 0 -2
BITMAP
EC
6C
D8
D8
7C
20
30
ENDCHAR
STARTCHAR uacute
ENCODING 250
SWIDTH 685 0
DWIDTH 7 0
BBX 6 8 0 0
BITMAP
18
30
00
EC
6C
D8
D8
6C
ENDCHAR
STARTCHAR ucircumflex
ENCODING 251
SWIDTH 685 0
DWIDTH 7 0
BBX 6 8 0 0
BITMAP
38
6C
00
EC
6C
D8
D8
6C
ENDCHAR
STARTCHAR udieresis
ENCODING 252
SWIDTH 685 0
DWIDTH 7 0
BBX 6 8 0 0
BITMAP
28
28
00
EC
6C
D8
D8
6C
ENDCHAR
STARTCHAR utilde
ENCODING 253
SWIDTH 685 0
DWIDTH 7 0
BBX 6 8 0 0
BITMAP
34
58
00
EC
6C
D8
D8
6C
ENDCHAR
STARTCHAR umacron
ENCODING 254
SWIDTH 685 0
DWIDTH 7 0
BBX 6 7 0 0
BITMAP
78
00
EC
6C
D8
D8
6C
ENDCHAR
STARTCHAR dotaccent
ENCODING 255
SWIDTH 333 0
DWIDTH 4 0
BBX 1 2 1 6
BITMAP
80
80
ENDCHAR
ENDFONT
