STARTFONT 2.1
COMMENT AUTOMATICALLY GENERATED FILE. DO NOT EDIT!
COMMENT Generated with 'ucs2any ncenB08.bdf /usr/local/share/fonts/X11/util/map-ISO8859-10 ISO8859-10'
COMMENT from an ISO10646-1 encoded source BDF font.
COMMENT ucs2any by Ben Collver <collver1@attbi.com>, 2003, based on
COMMENT ucs2any.pl by Markus Kuhn <http://www.cl.cam.ac.uk/~mgk25/>, 2000.
FONT -Adobe-New Century Schoolbook-Bold-R-Normal--8-80-75-75-P-56-ISO8859-10
SIZE 8 75 75
FONTBOUNDINGBOX 11 15 -1 -5
COMMENT ISO10646-1 extension by Markus Kuhn <mkuhn@acm.org>, 2001-03-20
COMMENT
COMMENT +
COMMENT  Copyright 1984-1989, 1994 Adobe Systems Incorporated.
COMMENT  Copyright 1988, 1994 Digital Equipment Corporation.
COMMENT
COMMENT  Adobe is a trademark of Adobe Systems Incorporated which may be
COMMENT  registered in certain jurisdictions.
COMMENT  Permission to use these trademarks is hereby granted only in
COMMENT  association with the images described in this file.
COMMENT
COMMENT  Permission to use, copy, modify, distribute and sell this software
COMMENT  and its documentation for any purpose and without fee is hereby
COMMENT  granted, provided that the above copyright notices appear in all
COMMENT  copies and that both those copyright notices and this permission
COMMENT  notice appear in supporting documentation, and that the names of
COMMENT  Adobe Systems and Digital Equipment Corporation not be used in
COMMENT  advertising or publicity pertaining to distribution of the software
COMMENT  without specific, written prior permission.  Adobe Systems and
COMMENT  Digital Equipment Corporation make no representations about the
COMMENT  suitability of this software for any purpose.  It is provided "as
COMMENT  is" without express or implied warranty.
COMMENT -
STARTPROPERTIES 26
FOUNDRY "Adobe"
FAMILY_NAME "New Century Schoolbook"
WEIGHT_NAME "Bold"
SLANT "R"
SETWIDTH_NAME "Normal"
ADD_STYLE_NAME ""
PIXEL_SIZE 8
POINT_SIZE 80
RESOLUTION_X 75
RESOLUTION_Y 75
SPACING "P"
AVERAGE_WIDTH 56
CHARSET_REGISTRY "ISO8859"
CHARSET_ENCODING "10"
CAP_HEIGHT 6
X_HEIGHT 4
FONT_ASCENT 7
FONT_DESCENT 2
FACE_NAME "New Century Schoolbook Bold"
COPYRIGHT "Copyright (c) 1984, 1987 Adobe Systems Incorporated. All Rights Reserved. Copyright (c) 1988, 1991 Digital Equipment Corporation. All Rights Reserved."
NOTICE "New Century Schoolbook is a trademark of Linotype-Hell AG and/or its subsidiaries."
_DEC_DEVICE_FONTNAMES "PS=NewCenturySchlbk-Bold"
DEFAULT_CHAR 0
RELATIVE_SETWIDTH 50
RELATIVE_WEIGHT 70
FULL_NAME "New Century Schoolbook Bold"
ENDPROPERTIES
CHARS 192
STARTCHAR defaultchar
ENCODING 0
SWIDTH 870 0
DWIDTH 8 0
BBX 7 5 0 0
BITMAP
AA
00
82
00
AA
ENDCHAR
STARTCHAR space
ENCODING 32
SWIDTH 287 0
DWIDTH 2 0
BBX 1 1 0 0
BITMAP
00
ENDCHAR
STARTCHAR exclam
ENCODING 33
SWIDTH 296 0
DWIDTH 2 0
BBX 2 6 0 0
BITMAP
C0
C0
80
00
80
80
ENDCHAR
STARTCHAR quotedbl
ENCODING 34
SWIDTH 333 0
DWIDTH 5 0
BBX 3 2 1 4
BITMAP
A0
A0
ENDCHAR
STARTCHAR numbersign
ENCODING 35
SWIDTH 574 0
DWIDTH 6 0
BBX 5 6 0 0
BITMAP
28
F8
50
F8
A0
A0
ENDCHAR
STARTCHAR dollar
ENCODING 36
SWIDTH 574 0
DWIDTH 5 0
BBX 4 8 0 -1
BITMAP
20
70
A0
E0
70
50
E0
40
ENDCHAR
STARTCHAR percent
ENCODING 37
SWIDTH 833 0
DWIDTH 9 0
BBX 8 6 0 0
BITMAP
7C
D4
68
16
2D
46
ENDCHAR
STARTCHAR ampersand
ENCODING 38
SWIDTH 852 0
DWIDTH 7 0
BBX 6 6 0 0
BITMAP
70
D0
60
F4
DC
68
ENDCHAR
STARTCHAR quotesingle
ENCODING 39
SWIDTH 241 0
DWIDTH 4 0
BBX 1 3 1 5
BITMAP
80
80
80
ENDCHAR
STARTCHAR parenleft
ENCODING 40
SWIDTH 389 0
DWIDTH 4 0
BBX 3 7 0 -1
BITMAP
20
40
C0
C0
C0
40
20
ENDCHAR
STARTCHAR parenright
ENCODING 41
SWIDTH 389 0
DWIDTH 4 0
BBX 3 7 0 -1
BITMAP
80
40
60
60
60
40
80
ENDCHAR
STARTCHAR asterisk
ENCODING 42
SWIDTH 500 0
DWIDTH 5 0
BBX 4 3 0 3
BITMAP
D0
60
D0
ENDCHAR
STARTCHAR plus
ENCODING 43
SWIDTH 606 0
DWIDTH 5 0
BBX 4 5 0 0
BITMAP
40
40
F0
40
40
ENDCHAR
STARTCHAR comma
ENCODING 44
SWIDTH 278 0
DWIDTH 2 0
BBX 2 4 -1 -2
BITMAP
40
40
40
80
ENDCHAR
STARTCHAR hyphen
ENCODING 45
SWIDTH 333 0
DWIDTH 3 0
BBX 2 1 0 2
BITMAP
C0
ENDCHAR
STARTCHAR period
ENCODING 46
SWIDTH 278 0
DWIDTH 2 0
BBX 1 2 0 0
BITMAP
80
80
ENDCHAR
STARTCHAR slash
ENCODING 47
SWIDTH 278 0
DWIDTH 4 0
BBX 3 6 0 0
BITMAP
20
20
40
40
80
80
ENDCHAR
STARTCHAR zero
ENCODING 48
SWIDTH 574 0
DWIDTH 5 0
BBX 4 6 0 0
BITMAP
60
D0
D0
D0
D0
60
ENDCHAR
STARTCHAR one
ENCODING 49
SWIDTH 574 0
DWIDTH 5 0
BBX 4 6 0 0
BITMAP
E0
60
60
60
60
F0
ENDCHAR
STARTCHAR two
ENCODING 50
SWIDTH 574 0
DWIDTH 5 0
BBX 4 6 0 0
BITMAP
F0
B0
30
60
D0
F0
ENDCHAR
STARTCHAR three
ENCODING 51
SWIDTH 574 0
DWIDTH 5 0
BBX 4 6 0 0
BITMAP
E0
B0
60
30
B0
60
ENDCHAR
STARTCHAR four
ENCODING 52
SWIDTH 574 0
DWIDTH 5 0
BBX 5 6 0 0
BITMAP
30
70
B0
F0
30
78
ENDCHAR
STARTCHAR five
ENCODING 53
SWIDTH 574 0
DWIDTH 5 0
BBX 4 6 0 0
BITMAP
F0
80
E0
B0
30
E0
ENDCHAR
STARTCHAR six
ENCODING 54
SWIDTH 574 0
DWIDTH 5 0
BBX 4 6 0 0
BITMAP
70
C0
E0
D0
D0
60
ENDCHAR
STARTCHAR seven
ENCODING 55
SWIDTH 574 0
DWIDTH 5 0
BBX 4 6 0 0
BITMAP
F0
D0
20
60
60
60
ENDCHAR
STARTCHAR eight
ENCODING 56
SWIDTH 574 0
DWIDTH 5 0
BBX 4 6 0 0
BITMAP
60
D0
60
D0
D0
60
ENDCHAR
STARTCHAR nine
ENCODING 57
SWIDTH 574 0
DWIDTH 5 0
BBX 4 6 0 0
BITMAP
60
D0
D0
70
90
60
ENDCHAR
STARTCHAR colon
ENCODING 58
SWIDTH 278 0
DWIDTH 2 0
BBX 1 5 0 0
BITMAP
80
80
00
80
80
ENDCHAR
STARTCHAR semicolon
ENCODING 59
SWIDTH 278 0
DWIDTH 2 0
BBX 2 7 -1 -2
BITMAP
40
40
00
40
40
40
80
ENDCHAR
STARTCHAR less
ENCODING 60
SWIDTH 606 0
DWIDTH 6 0
BBX 5 5 0 0
BITMAP
38
60
C0
60
38
ENDCHAR
STARTCHAR equal
ENCODING 61
SWIDTH 606 0
DWIDTH 5 0
BBX 4 3 0 1
BITMAP
F0
00
F0
ENDCHAR
STARTCHAR greater
ENCODING 62
SWIDTH 606 0
DWIDTH 6 0
BBX 5 5 0 0
BITMAP
E0
30
18
30
E0
ENDCHAR
STARTCHAR question
ENCODING 63
SWIDTH 500 0
DWIDTH 5 0
BBX 4 6 0 0
BITMAP
E0
30
60
00
40
40
ENDCHAR
STARTCHAR at
ENCODING 64
SWIDTH 747 0
DWIDTH 8 0
BBX 7 7 0 0
BITMAP
7C
C6
9A
AA
BC
C0
78
ENDCHAR
STARTCHAR A
ENCODING 65
SWIDTH 759 0
DWIDTH 6 0
BBX 7 6 -1 0
BITMAP
10
38
4C
7C
4C
CE
ENDCHAR
STARTCHAR B
ENCODING 66
SWIDTH 778 0
DWIDTH 6 0
BBX 6 6 0 0
BITMAP
F8
64
78
64
64
F8
ENDCHAR
STARTCHAR C
ENCODING 67
SWIDTH 778 0
DWIDTH 6 0
BBX 5 6 0 0
BITMAP
78
C8
C0
C0
C8
70
ENDCHAR
STARTCHAR D
ENCODING 68
SWIDTH 833 0
DWIDTH 7 0
BBX 6 6 0 0
BITMAP
F8
64
64
64
64
F8
ENDCHAR
STARTCHAR E
ENCODING 69
SWIDTH 759 0
DWIDTH 6 0
BBX 5 6 0 0
BITMAP
F8
60
78
60
68
F8
ENDCHAR
STARTCHAR F
ENCODING 70
SWIDTH 722 0
DWIDTH 6 0
BBX 5 6 0 0
BITMAP
F8
60
78
60
60
F0
ENDCHAR
STARTCHAR G
ENCODING 71
SWIDTH 833 0
DWIDTH 6 0
BBX 5 6 0 0
BITMAP
78
C8
C0
D8
C8
78
ENDCHAR
STARTCHAR H
ENCODING 72
SWIDTH 870 0
DWIDTH 8 0
BBX 7 6 0 0
BITMAP
EE
64
7C
64
64
EE
ENDCHAR
STARTCHAR I
ENCODING 73
SWIDTH 444 0
DWIDTH 4 0
BBX 3 6 0 0
BITMAP
E0
60
60
60
60
E0
ENDCHAR
STARTCHAR J
ENCODING 74
SWIDTH 648 0
DWIDTH 6 0
BBX 5 6 0 0
BITMAP
78
30
30
B0
B0
60
ENDCHAR
STARTCHAR K
ENCODING 75
SWIDTH 815 0
DWIDTH 7 0
BBX 7 6 0 0
BITMAP
EC
68
70
78
6C
EE
ENDCHAR
STARTCHAR L
ENCODING 76
SWIDTH 722 0
DWIDTH 6 0
BBX 5 6 0 0
BITMAP
F0
60
60
60
68
F8
ENDCHAR
STARTCHAR M
ENCODING 77
SWIDTH 981 0
DWIDTH 10 0
BBX 8 6 0 0
BITMAP
E3
77
5B
5B
5B
CB
ENDCHAR
STARTCHAR N
ENCODING 78
SWIDTH 833 0
DWIDTH 7 0
BBX 6 6 0 0
BITMAP
CC
68
78
78
58
C8
ENDCHAR
STARTCHAR O
ENCODING 79
SWIDTH 833 0
DWIDTH 6 0
BBX 5 6 0 0
BITMAP
70
C8
C8
C8
C8
70
ENDCHAR
STARTCHAR P
ENCODING 80
SWIDTH 759 0
DWIDTH 6 0
BBX 5 6 0 0
BITMAP
F0
68
68
70
60
F0
ENDCHAR
STARTCHAR Q
ENCODING 81
SWIDTH 833 0
DWIDTH 6 0
BBX 6 6 0 0
BITMAP
78
CC
CC
EC
D8
7C
ENDCHAR
STARTCHAR R
ENCODING 82
SWIDTH 815 0
DWIDTH 7 0
BBX 6 6 0 0
BITMAP
F0
68
68
70
68
EC
ENDCHAR
STARTCHAR S
ENCODING 83
SWIDTH 667 0
DWIDTH 6 0
BBX 5 6 0 0
BITMAP
78
C8
F0
78
98
F0
ENDCHAR
STARTCHAR T
ENCODING 84
SWIDTH 722 0
DWIDTH 6 0
BBX 5 6 0 0
BITMAP
F8
E8
60
60
60
F0
ENDCHAR
STARTCHAR U
ENCODING 85
SWIDTH 833 0
DWIDTH 7 0
BBX 6 6 0 0
BITMAP
EC
68
68
68
68
30
ENDCHAR
STARTCHAR V
ENCODING 86
SWIDTH 759 0
DWIDTH 7 0
BBX 6 6 0 0
BITMAP
EC
68
68
68
30
30
ENDCHAR
STARTCHAR W
ENCODING 87
SWIDTH 981 0
DWIDTH 10 0
BBX 8 6 0 0
BITMAP
E9
6D
6D
6D
76
24
ENDCHAR
STARTCHAR X
ENCODING 88
SWIDTH 722 0
DWIDTH 7 0
BBX 6 6 0 0
BITMAP
EC
68
30
30
58
DC
ENDCHAR
STARTCHAR Y
ENCODING 89
SWIDTH 722 0
DWIDTH 7 0
BBX 6 6 0 0
BITMAP
EC
68
68
30
30
78
ENDCHAR
STARTCHAR Z
ENCODING 90
SWIDTH 667 0
DWIDTH 6 0
BBX 5 6 0 0
BITMAP
F8
98
30
60
C8
F8
ENDCHAR
STARTCHAR bracketleft
ENCODING 91
SWIDTH 389 0
DWIDTH 3 0
BBX 2 7 0 -1
BITMAP
C0
80
80
80
80
80
C0
ENDCHAR
STARTCHAR backslash
ENCODING 92
SWIDTH 606 0
DWIDTH 4 0
BBX 4 6 0 0
BITMAP
80
C0
40
60
20
30
ENDCHAR
STARTCHAR bracketright
ENCODING 93
SWIDTH 389 0
DWIDTH 3 0
BBX 2 7 0 -1
BITMAP
C0
40
40
40
40
40
C0
ENDCHAR
STARTCHAR asciicircum
ENCODING 94
SWIDTH 606 0
DWIDTH 5 0
BBX 4 3 0 2
BITMAP
60
60
90
ENDCHAR
STARTCHAR underscore
ENCODING 95
SWIDTH 500 0
DWIDTH 4 0
BBX 4 1 0 -1
BITMAP
F0
ENDCHAR
STARTCHAR grave
ENCODING 96
SWIDTH 333 0
DWIDTH 4 0
BBX 3 2 0 6
BITMAP
C0
60
ENDCHAR
STARTCHAR a
ENCODING 97
SWIDTH 611 0
DWIDTH 4 0
BBX 4 4 0 0
BITMAP
C0
60
E0
F0
ENDCHAR
STARTCHAR b
ENCODING 98
SWIDTH 648 0
DWIDTH 6 0
BBX 6 6 -1 0
BITMAP
E0
60
78
6C
6C
78
ENDCHAR
STARTCHAR c
ENCODING 99
SWIDTH 556 0
DWIDTH 5 0
BBX 4 4 0 0
BITMAP
70
C0
D0
60
ENDCHAR
STARTCHAR d
ENCODING 100
SWIDTH 667 0
DWIDTH 6 0
BBX 5 6 0 0
BITMAP
38
18
78
D8
D8
68
ENDCHAR
STARTCHAR e
ENCODING 101
SWIDTH 574 0
DWIDTH 5 0
BBX 4 4 0 0
BITMAP
60
F0
C0
70
ENDCHAR
STARTCHAR f
ENCODING 102
SWIDTH 389 0
DWIDTH 4 0
BBX 4 6 0 0
BITMAP
70
60
F0
60
60
E0
ENDCHAR
STARTCHAR g
ENCODING 103
SWIDTH 611 0
DWIDTH 5 0
BBX 5 7 0 -2
BITMAP
08
70
B0
60
20
D0
F0
ENDCHAR
STARTCHAR h
ENCODING 104
SWIDTH 685 0
DWIDTH 6 0
BBX 6 6 -1 0
BITMAP
E0
60
78
6C
6C
6C
ENDCHAR
STARTCHAR i
ENCODING 105
SWIDTH 370 0
DWIDTH 4 0
BBX 3 6 0 0
BITMAP
60
00
E0
60
60
E0
ENDCHAR
STARTCHAR j
ENCODING 106
SWIDTH 352 0
DWIDTH 4 0
BBX 3 8 0 -2
BITMAP
60
00
E0
60
60
60
60
C0
ENDCHAR
STARTCHAR k
ENCODING 107
SWIDTH 667 0
DWIDTH 5 0
BBX 5 6 -1 0
BITMAP
E0
60
68
70
70
68
ENDCHAR
STARTCHAR l
ENCODING 108
SWIDTH 352 0
DWIDTH 4 0
BBX 3 6 0 0
BITMAP
E0
60
60
60
60
E0
ENDCHAR
STARTCHAR m
ENCODING 109
SWIDTH 963 0
DWIDTH 9 0
BBX 8 4 0 0
BITMAP
F6
DB
DB
DB
ENDCHAR
STARTCHAR n
ENCODING 110
SWIDTH 685 0
DWIDTH 6 0
BBX 5 4 0 0
BITMAP
F0
D8
D8
D8
ENDCHAR
STARTCHAR o
ENCODING 111
SWIDTH 611 0
DWIDTH 6 0
BBX 5 4 0 0
BITMAP
70
D8
D8
70
ENDCHAR
STARTCHAR p
ENCODING 112
SWIDTH 667 0
DWIDTH 6 0
BBX 5 6 0 -2
BITMAP
F0
68
68
70
60
E0
ENDCHAR
STARTCHAR q
ENCODING 113
SWIDTH 648 0
DWIDTH 6 0
BBX 6 6 0 -2
BITMAP
78
D8
D8
78
18
1C
ENDCHAR
STARTCHAR r
ENCODING 114
SWIDTH 519 0
DWIDTH 4 0
BBX 3 4 0 0
BITMAP
A0
E0
C0
C0
ENDCHAR
STARTCHAR s
ENCODING 115
SWIDTH 500 0
DWIDTH 4 0
BBX 3 4 0 0
BITMAP
E0
C0
60
E0
ENDCHAR
STARTCHAR t
ENCODING 116
SWIDTH 426 0
DWIDTH 3 0
BBX 4 6 -1 0
BITMAP
60
60
E0
60
60
30
ENDCHAR
STARTCHAR u
ENCODING 117
SWIDTH 685 0
DWIDTH 6 0
BBX 5 4 0 0
BITMAP
D8
D8
D8
68
ENDCHAR
STARTCHAR v
ENCODING 118
SWIDTH 611 0
DWIDTH 6 0
BBX 5 4 0 0
BITMAP
D8
D0
F0
60
ENDCHAR
STARTCHAR w
ENCODING 119
SWIDTH 889 0
DWIDTH 8 0
BBX 7 4 0 0
BITMAP
DA
DA
6C
6C
ENDCHAR
STARTCHAR x
ENCODING 120
SWIDTH 611 0
DWIDTH 6 0
BBX 5 4 0 0
BITMAP
D8
F0
78
D8
ENDCHAR
STARTCHAR y
ENCODING 121
SWIDTH 611 0
DWIDTH 6 0
BBX 5 6 0 -2
BITMAP
D8
D8
D0
60
60
C0
ENDCHAR
STARTCHAR z
ENCODING 122
SWIDTH 537 0
DWIDTH 5 0
BBX 4 4 0 0
BITMAP
F0
60
D0
F0
ENDCHAR
STARTCHAR braceleft
ENCODING 123
SWIDTH 389 0
DWIDTH 4 0
BBX 3 7 0 -1
BITMAP
20
40
40
80
40
40
20
ENDCHAR
STARTCHAR bar
ENCODING 124
SWIDTH 606 0
DWIDTH 5 0
BBX 1 6 2 0
BITMAP
80
80
80
80
80
80
ENDCHAR
STARTCHAR braceright
ENCODING 125
SWIDTH 389 0
DWIDTH 4 0
BBX 3 7 0 -1
BITMAP
80
40
40
20
40
40
80
ENDCHAR
STARTCHAR asciitilde
ENCODING 126
SWIDTH 606 0
DWIDTH 6 0
BBX 5 2 0 2
BITMAP
68
B0
ENDCHAR
STARTCHAR space
ENCODING 160
SWIDTH 287 0
DWIDTH 2 0
BBX 1 1 0 0
BITMAP
00
ENDCHAR
STARTCHAR Aogonek
ENCODING 161
SWIDTH 759 0
DWIDTH 6 0
BBX 7 8 -1 -2
BITMAP
10
38
4C
7C
4C
DE
20
30
ENDCHAR
STARTCHAR Emacron
ENCODING 162
SWIDTH 759 0
DWIDTH 6 0
BBX 5 8 0 0
BITMAP
70
00
F8
60
78
60
68
F8
ENDCHAR
STARTCHAR Gcommaaccent
ENCODING 163
SWIDTH 833 0
DWIDTH 6 0
BBX 5 11 0 -5
BITMAP
78
C8
C0
D8
C8
78
00
20
20
20
40
ENDCHAR
STARTCHAR Imacron
ENCODING 164
SWIDTH 444 0
DWIDTH 4 0
BBX 3 8 0 0
BITMAP
E0
00
E0
60
60
60
60
E0
ENDCHAR
STARTCHAR Itilde
ENCODING 165
SWIDTH 444 0
DWIDTH 4 0
BBX 5 9 -1 0
BITMAP
68
B0
00
70
30
30
30
30
70
ENDCHAR
STARTCHAR Kcommaaccent
ENCODING 166
SWIDTH 815 0
DWIDTH 7 0
BBX 7 11 0 -5
BITMAP
EC
68
70
78
6C
EE
00
10
10
10
20
ENDCHAR
STARTCHAR section
ENCODING 167
SWIDTH 500 0
DWIDTH 4 0
BBX 3 8 0 -2
BITMAP
60
80
C0
A0
A0
60
20
C0
ENDCHAR
STARTCHAR Lcommaaccent
ENCODING 168
SWIDTH 722 0
DWIDTH 6 0
BBX 5 11 0 -5
BITMAP
F0
60
60
60
68
F8
00
20
20
20
40
ENDCHAR
STARTCHAR Dcroat
ENCODING 169
SWIDTH 833 0
DWIDTH 7 0
BBX 6 6 0 0
BITMAP
F8
64
F4
64
64
F8
ENDCHAR
STARTCHAR Scaron
ENCODING 170
SWIDTH 667 0
DWIDTH 7 0
BBX 6 9 0 0
BITMAP
28
28
10
00
7C
E0
7C
8C
F8
ENDCHAR
STARTCHAR Tbar
ENCODING 171
SWIDTH 722 0
DWIDTH 6 0
BBX 5 6 0 0
BITMAP
F8
E8
70
60
60
F0
ENDCHAR
STARTCHAR Zcaron
ENCODING 172
SWIDTH 667 0
DWIDTH 7 0
BBX 6 9 0 0
BITMAP
28
28
10
00
FC
9C
70
C4
FC
ENDCHAR
STARTCHAR hyphen
ENCODING 173
SWIDTH 333 0
DWIDTH 3 0
BBX 2 1 0 2
BITMAP
C0
ENDCHAR
STARTCHAR Umacron
ENCODING 174
SWIDTH 833 0
DWIDTH 7 0
BBX 6 8 0 0
BITMAP
70
00
EC
68
68
68
68
30
ENDCHAR
STARTCHAR Eng
ENCODING 175
SWIDTH 833 0
DWIDTH 7 0
BBX 6 8 0 -2
BITMAP
CC
68
78
78
58
D8
18
30
ENDCHAR
STARTCHAR degree
ENCODING 176
SWIDTH 400 0
DWIDTH 3 0
BBX 3 3 0 3
BITMAP
E0
A0
E0
ENDCHAR
STARTCHAR aogonek
ENCODING 177
SWIDTH 611 0
DWIDTH 4 0
BBX 4 6 0 -2
BITMAP
C0
60
E0
F0
40
60
ENDCHAR
STARTCHAR emacron
ENCODING 178
SWIDTH 574 0
DWIDTH 5 0
BBX 4 6 0 0
BITMAP
70
00
60
F0
C0
70
ENDCHAR
STARTCHAR gcommaaccent
ENCODING 179
SWIDTH 611 0
DWIDTH 5 0
BBX 5 11 0 -2
BITMAP
10
20
20
00
08
70
B0
60
20
D0
F0
ENDCHAR
STARTCHAR imacron
ENCODING 180
SWIDTH 370 0
DWIDTH 5 0
BBX 4 7 0 0
BITMAP
E0
00
E0
60
60
60
F0
ENDCHAR
STARTCHAR itilde
ENCODING 181
SWIDTH 370 0
DWIDTH 5 0
BBX 5 8 0 0
BITMAP
68
B0
00
E0
60
60
60
F0
ENDCHAR
STARTCHAR kcommaaccent
ENCODING 182
SWIDTH 667 0
DWIDTH 5 0
BBX 5 11 -1 -5
BITMAP
E0
60
68
70
70
68
00
20
20
20
40
ENDCHAR
STARTCHAR periodcentered
ENCODING 183
SWIDTH 278 0
DWIDTH 2 0
BBX 2 2 0 2
BITMAP
C0
C0
ENDCHAR
STARTCHAR lcommaaccent
ENCODING 184
SWIDTH 352 0
DWIDTH 4 0
BBX 3 11 0 -5
BITMAP
E0
60
60
60
60
E0
00
40
40
40
80
ENDCHAR
STARTCHAR dcroat
ENCODING 185
SWIDTH 667 0
DWIDTH 6 0
BBX 5 6 0 0
BITMAP
38
38
78
D8
D8
68
ENDCHAR
STARTCHAR scaron
ENCODING 186
SWIDTH 500 0
DWIDTH 5 0
BBX 5 8 0 0
BITMAP
D8
70
20
70
C0
F0
30
E0
ENDCHAR
STARTCHAR tbar
ENCODING 187
SWIDTH 426 0
DWIDTH 3 0
BBX 4 6 -1 0
BITMAP
60
60
E0
70
60
30
ENDCHAR
STARTCHAR zcaron
ENCODING 188
SWIDTH 537 0
DWIDTH 6 0
BBX 5 8 0 0
BITMAP
D8
70
20
F8
B0
60
C8
F8
ENDCHAR
STARTCHAR afii00208
ENCODING 189
SWIDTH 1000 0
DWIDTH 10 0
BBX 10 1 0 3
BITMAP
FFC0
ENDCHAR
STARTCHAR umacron
ENCODING 190
SWIDTH 685 0
DWIDTH 6 0
BBX 5 6 0 0
BITMAP
70
00
D8
D8
D8
68
ENDCHAR
STARTCHAR eng
ENCODING 191
SWIDTH 685 0
DWIDTH 6 0
BBX 5 6 0 -2
BITMAP
F0
D8
D8
D8
18
30
ENDCHAR
STARTCHAR Amacron
ENCODING 192
SWIDTH 759 0
DWIDTH 6 0
BBX 7 8 -1 0
BITMAP
38
00
10
38
4C
7C
4C
CE
ENDCHAR
STARTCHAR Aacute
ENCODING 193
SWIDTH 759 0
DWIDTH 6 0
BBX 7 8 -1 0
BITMAP
08
10
10
38
4C
7C
4C
CE
ENDCHAR
STARTCHAR Acircumflex
ENCODING 194
SWIDTH 759 0
DWIDTH 6 0
BBX 7 8 -1 0
BITMAP
10
28
00
38
4C
7C
4C
CE
ENDCHAR
STARTCHAR Atilde
ENCODING 195
SWIDTH 759 0
DWIDTH 6 0
BBX 7 8 -1 0
BITMAP
14
28
10
38
4C
7C
4C
CE
ENDCHAR
STARTCHAR Adieresis
ENCODING 196
SWIDTH 759 0
DWIDTH 6 0
BBX 7 8 -1 0
BITMAP
28
00
10
38
4C
7C
4C
CE
ENDCHAR
STARTCHAR Aring
ENCODING 197
SWIDTH 759 0
DWIDTH 6 0
BBX 7 8 -1 0
BITMAP
10
28
10
38
4C
7C
4C
CE
ENDCHAR
STARTCHAR AE
ENCODING 198
SWIDTH 981 0
DWIDTH 9 0
BBX 8 6 0 0
BITMAP
7F
2C
6F
7C
CD
DF
ENDCHAR
STARTCHAR Iogonek
ENCODING 199
SWIDTH 444 0
DWIDTH 4 0
BBX 3 8 0 -2
BITMAP
E0
60
60
60
60
E0
80
C0
ENDCHAR
STARTCHAR Ccaron
ENCODING 200
SWIDTH 778 0
DWIDTH 6 0
BBX 5 10 0 0
BITMAP
D8
70
20
00
78
C8
C0
C0
C8
70
ENDCHAR
STARTCHAR Eacute
ENCODING 201
SWIDTH 759 0
DWIDTH 6 0
BBX 5 8 0 0
BITMAP
10
20
F8
60
78
60
68
F8
ENDCHAR
STARTCHAR Eogonek
ENCODING 202
SWIDTH 759 0
DWIDTH 6 0
BBX 5 8 0 -2
BITMAP
F8
60
78
60
68
F8
40
60
ENDCHAR
STARTCHAR Edieresis
ENCODING 203
SWIDTH 759 0
DWIDTH 6 0
BBX 5 8 0 0
BITMAP
50
00
F8
60
78
60
68
F8
ENDCHAR
STARTCHAR Edotaccent
ENCODING 204
SWIDTH 759 0
DWIDTH 6 0
BBX 5 9 0 0
BITMAP
20
20
00
F8
60
78
60
68
F8
ENDCHAR
STARTCHAR Iacute
ENCODING 205
SWIDTH 444 0
DWIDTH 4 0
BBX 3 8 0 0
BITMAP
20
40
E0
60
60
60
60
E0
ENDCHAR
STARTCHAR Icircumflex
ENCODING 206
SWIDTH 444 0
DWIDTH 4 0
BBX 3 8 0 0
BITMAP
40
A0
E0
60
60
60
60
E0
ENDCHAR
STARTCHAR Idieresis
ENCODING 207
SWIDTH 444 0
DWIDTH 4 0
BBX 3 8 0 0
BITMAP
A0
00
E0
60
60
60
60
E0
ENDCHAR
STARTCHAR Eth
ENCODING 208
SWIDTH 833 0
DWIDTH 7 0
BBX 6 6 0 0
BITMAP
F8
64
F4
64
64
F8
ENDCHAR
STARTCHAR Ncommaaccent
ENCODING 209
SWIDTH 833 0
DWIDTH 7 0
BBX 6 11 0 -5
BITMAP
CC
68
78
78
58
C8
00
20
20
20
40
ENDCHAR
STARTCHAR Omacron
ENCODING 210
SWIDTH 833 0
DWIDTH 6 0
BBX 5 8 0 0
BITMAP
70
00
70
C8
C8
C8
C8
70
ENDCHAR
STARTCHAR Oacute
ENCODING 211
SWIDTH 833 0
DWIDTH 6 0
BBX 5 8 0 0
BITMAP
08
10
70
C8
C8
C8
C8
70
ENDCHAR
STARTCHAR Ocircumflex
ENCODING 212
SWIDTH 833 0
DWIDTH 6 0
BBX 5 8 0 0
BITMAP
20
50
70
C8
C8
C8
C8
70
ENDCHAR
STARTCHAR Otilde
ENCODING 213
SWIDTH 833 0
DWIDTH 6 0
BBX 5 8 0 0
BITMAP
28
50
70
C8
C8
C8
C8
70
ENDCHAR
STARTCHAR Odieresis
ENCODING 214
SWIDTH 833 0
DWIDTH 6 0
BBX 5 8 0 0
BITMAP
50
00
70
C8
C8
C8
C8
70
ENDCHAR
STARTCHAR Utilde
ENCODING 215
SWIDTH 833 0
DWIDTH 7 0
BBX 6 9 0 0
BITMAP
34
58
00
EC
68
68
68
68
30
ENDCHAR
STARTCHAR Oslash
ENCODING 216
SWIDTH 833 0
DWIDTH 6 0
BBX 6 8 0 -1
BITMAP
04
78
C8
D8
E8
C8
70
80
ENDCHAR
STARTCHAR Uogonek
ENCODING 217
SWIDTH 833 0
DWIDTH 7 0
BBX 6 8 0 -2
BITMAP
EC
68
68
68
68
30
20
30
ENDCHAR
STARTCHAR Uacute
ENCODING 218
SWIDTH 833 0
DWIDTH 7 0
BBX 6 8 0 0
BITMAP
08
10
EC
68
68
68
68
30
ENDCHAR
STARTCHAR Ucircumflex
ENCODING 219
SWIDTH 833 0
DWIDTH 7 0
BBX 6 8 0 0
BITMAP
10
28
EC
68
68
68
68
30
ENDCHAR
STARTCHAR Udieresis
ENCODING 220
SWIDTH 833 0
DWIDTH 7 0
BBX 6 8 0 0
BITMAP
28
00
EC
68
68
68
68
30
ENDCHAR
STARTCHAR Yacute
ENCODING 221
SWIDTH 722 0
DWIDTH 7 0
BBX 6 8 0 0
BITMAP
08
10
EC
68
68
30
30
78
ENDCHAR
STARTCHAR Thorn
ENCODING 222
SWIDTH 759 0
DWIDTH 6 0
BBX 5 7 0 0
BITMAP
40
F0
68
68
70
60
F0
ENDCHAR
STARTCHAR germandbls
ENCODING 223
SWIDTH 611 0
DWIDTH 6 0
BBX 6 6 0 0
BITMAP
30
68
78
64
64
E8
ENDCHAR
STARTCHAR amacron
ENCODING 224
SWIDTH 611 0
DWIDTH 4 0
BBX 4 6 0 0
BITMAP
E0
00
C0
60
E0
F0
ENDCHAR
STARTCHAR aacute
ENCODING 225
SWIDTH 611 0
DWIDTH 4 0
BBX 3 7 0 0
BITMAP
20
40
00
C0
60
E0
E0
ENDCHAR
STARTCHAR acircumflex
ENCODING 226
SWIDTH 611 0
DWIDTH 4 0
BBX 3 7 0 0
BITMAP
40
A0
00
C0
60
E0
E0
ENDCHAR
STARTCHAR atilde
ENCODING 227
SWIDTH 611 0
DWIDTH 4 0
BBX 4 7 0 0
BITMAP
50
A0
00
C0
60
E0
E0
ENDCHAR
STARTCHAR adieresis
ENCODING 228
SWIDTH 611 0
DWIDTH 4 0
BBX 3 6 0 0
BITMAP
A0
00
C0
60
E0
E0
ENDCHAR
STARTCHAR aring
ENCODING 229
SWIDTH 611 0
DWIDTH 4 0
BBX 3 7 0 0
BITMAP
40
A0
40
C0
60
E0
E0
ENDCHAR
STARTCHAR ae
ENCODING 230
SWIDTH 870 0
DWIDTH 7 0
BBX 6 4 0 0
BITMAP
D8
7C
F0
DC
ENDCHAR
STARTCHAR iogonek
ENCODING 231
SWIDTH 370 0
DWIDTH 4 0
BBX 3 8 0 -2
BITMAP
60
00
E0
60
60
E0
80
C0
ENDCHAR
STARTCHAR ccaron
ENCODING 232
SWIDTH 556 0
DWIDTH 5 0
BBX 5 8 -1 0
BITMAP
D8
70
20
00
38
60
68
30
ENDCHAR
STARTCHAR eacute
ENCODING 233
SWIDTH 574 0
DWIDTH 5 0
BBX 4 7 0 0
BITMAP
10
20
00
60
F0
C0
70
ENDCHAR
STARTCHAR eogonek
ENCODING 234
SWIDTH 574 0
DWIDTH 5 0
BBX 4 6 0 -2
BITMAP
60
F0
C0
70
40
60
ENDCHAR
STARTCHAR edieresis
ENCODING 235
SWIDTH 574 0
DWIDTH 5 0
BBX 4 6 0 0
BITMAP
50
00
60
F0
C0
70
ENDCHAR
STARTCHAR edotaccent
ENCODING 236
SWIDTH 574 0
DWIDTH 5 0
BBX 4 7 0 0
BITMAP
20
20
00
60
F0
C0
70
ENDCHAR
STARTCHAR iacute
ENCODING 237
SWIDTH 370 0
DWIDTH 4 0
BBX 3 7 0 0
BITMAP
20
40
00
C0
40
40
E0
ENDCHAR
STARTCHAR icircumflex
ENCODING 238
SWIDTH 370 0
DWIDTH 4 0
BBX 3 7 0 0
BITMAP
40
A0
00
C0
40
40
E0
ENDCHAR
STARTCHAR idieresis
ENCODING 239
SWIDTH 370 0
DWIDTH 4 0
BBX 3 6 0 0
BITMAP
A0
00
C0
40
40
E0
ENDCHAR
STARTCHAR eth
ENCODING 240
SWIDTH 611 0
DWIDTH 6 0
BBX 5 7 0 0
BITMAP
D0
60
B0
78
D8
D8
70
ENDCHAR
STARTCHAR ncommaaccent
ENCODING 241
SWIDTH 685 0
DWIDTH 6 0
BBX 5 9 0 -5
BITMAP
F0
D8
D8
D8
00
20
20
20
40
ENDCHAR
STARTCHAR omacron
ENCODING 242
SWIDTH 611 0
DWIDTH 6 0
BBX 5 6 0 0
BITMAP
70
00
70
D8
D8
70
ENDCHAR
STARTCHAR oacute
ENCODING 243
SWIDTH 611 0
DWIDTH 6 0
BBX 5 7 0 0
BITMAP
10
20
00
70
D8
D8
70
ENDCHAR
STARTCHAR ocircumflex
ENCODING 244
SWIDTH 611 0
DWIDTH 6 0
BBX 5 7 0 0
BITMAP
20
50
00
70
D8
D8
70
ENDCHAR
STARTCHAR otilde
ENCODING 245
SWIDTH 611 0
DWIDTH 6 0
BBX 5 7 0 0
BITMAP
28
50
00
70
D8
D8
70
ENDCHAR
STARTCHAR odieresis
ENCODING 246
SWIDTH 611 0
DWIDTH 6 0
BBX 5 6 0 0
BITMAP
50
00
70
D8
D8
70
ENDCHAR
STARTCHAR utilde
ENCODING 247
SWIDTH 685 0
DWIDTH 6 0
BBX 5 7 0 0
BITMAP
68
B0
00
D8
D8
D8
68
ENDCHAR
STARTCHAR oslash
ENCODING 248
SWIDTH 611 0
DWIDTH 6 0
BBX 5 6 0 -1
BITMAP
08
70
D8
D8
70
80
ENDCHAR
STARTCHAR uogonek
ENCODING 249
SWIDTH 685 0
DWIDTH 6 0
BBX 5 6 0 -2
BITMAP
D8
D8
D8
68
40
60
ENDCHAR
STARTCHAR uacute
ENCODING 250
SWIDTH 685 0
DWIDTH 6 0
BBX 5 7 0 0
BITMAP
10
20
00
D8
D8
D8
68
ENDCHAR
STARTCHAR ucircumflex
ENCODING 251
SWIDTH 685 0
DWIDTH 6 0
BBX 5 7 0 0
BITMAP
20
50
00
D8
D8
D8
68
ENDCHAR
STARTCHAR udieresis
ENCODING 252
SWIDTH 685 0
DWIDTH 6 0
BBX 5 6 0 0
BITMAP
50
00
D8
D8
D8
68
ENDCHAR
STARTCHAR yacute
ENCODING 253
SWIDTH 611 0
DWIDTH 6 0
BBX 5 8 0 -1
BITMAP
08
10
00
D8
50
60
60
C0
ENDCHAR
STARTCHAR thorn
ENCODING 254
SWIDTH 667 0
DWIDTH 6 0
BBX 5 8 0 -2
BITMAP
C0
40
70
68
68
70
40
E0
ENDCHAR
STARTCHAR kgreenlandic
ENCODING 255
SWIDTH 667 0
DWIDTH 5 0
BBX 5 4 -1 0
BITMAP
68
70
70
68
ENDCHAR
ENDFONT
