STARTFONT 2.1
COMMENT AUTOMATICALLY GENERATED FILE. DO NOT EDIT!
COMMENT Generated with 'ucs2any timB08.bdf /usr/local/share/fonts/X11/util/map-ISO8859-2 ISO8859-2'
COMMENT from an ISO10646-1 encoded source BDF font.
COMMENT ucs2any by Ben Collver <collver1@attbi.com>, 2003, based on
COMMENT ucs2any.pl by Markus Kuhn <http://www.cl.cam.ac.uk/~mgk25/>, 2000.
FONT -Adobe-Times-Bold-R-Normal--8-80-75-75-P-47-ISO8859-2
SIZE 8 75 75
FONTBOUNDINGBOX 9 12 -1 -3
COMMENT ISO10646-1 extension by Markus Kuhn <mkuhn@acm.org>, 2001-03-20
COMMENT
COMMENT +
COMMENT  Copyright 1984-1989, 1994 Adobe Systems Incorporated.
COMMENT  Copyright 1988, 1994 Digital Equipment Corporation.
COMMENT
COMMENT  Adobe is a trademark of Adobe Systems Incorporated which may be
COMMENT  registered in certain jurisdictions.
COMMENT  Permission to use these trademarks is hereby granted only in
COMMENT  association with the images described in this file.
COMMENT
COMMENT  Permission to use, copy, modify, distribute and sell this software
COMMENT  and its documentation for any purpose and without fee is hereby
COMMENT  granted, provided that the above copyright notices appear in all
COMMENT  copies and that both those copyright notices and this permission
COMMENT  notice appear in supporting documentation, and that the names of
COMMENT  Adobe Systems and Digital Equipment Corporation not be used in
COMMENT  advertising or publicity pertaining to distribution of the software
COMMENT  without specific, written prior permission.  Adobe Systems and
COMMENT  Digital Equipment Corporation make no representations about the
COMMENT  suitability of this software for any purpose.  It is provided "as
COMMENT  is" without express or implied warranty.
COMMENT -
STARTPROPERTIES 26
FOUNDRY "Adobe"
FAMILY_NAME "Times"
WEIGHT_NAME "Bold"
SLANT "R"
SETWIDTH_NAME "Normal"
ADD_STYLE_NAME ""
PIXEL_SIZE 8
POINT_SIZE 80
RESOLUTION_X 75
RESOLUTION_Y 75
SPACING "P"
AVERAGE_WIDTH 47
CHARSET_REGISTRY "ISO8859"
CHARSET_ENCODING "2"
CAP_HEIGHT 5
X_HEIGHT 4
FONT_ASCENT 7
FONT_DESCENT 2
FACE_NAME "Times Bold"
COPYRIGHT "Copyright (c) 1984, 1987 Adobe Systems Incorporated. All Rights Reserved. Copyright (c) 1988, 1991 Digital Equipment Corporation. All Rights Reserved."
NOTICE "Times is a trademark of Linotype-Hell AG and/or its subsidiaries."
_DEC_DEVICE_FONTNAMES "PS=Times-Bold"
DEFAULT_CHAR 0
RELATIVE_SETWIDTH 50
RELATIVE_WEIGHT 70
FULL_NAME "Times Bold"
ENDPROPERTIES
CHARS 192
STARTCHAR defaultchar
ENCODING 0
SWIDTH 778 0
DWIDTH 7 0
BBX 5 5 0 0
BITMAP
A8
00
88
00
A8
ENDCHAR
STARTCHAR space
ENCODING 32
SWIDTH 250 0
DWIDTH 2 0
BBX 1 1 0 0
BITMAP
00
ENDCHAR
STARTCHAR exclam
ENCODING 33
SWIDTH 333 0
DWIDTH 3 0
BBX 2 6 0 0
BITMAP
C0
C0
C0
C0
00
C0
ENDCHAR
STARTCHAR quotedbl
ENCODING 34
SWIDTH 555 0
DWIDTH 4 0
BBX 3 3 0 3
BITMAP
A0
A0
A0
ENDCHAR
STARTCHAR numbersign
ENCODING 35
SWIDTH 500 0
DWIDTH 5 0
BBX 5 5 -1 0
BITMAP
50
F8
50
F8
50
ENDCHAR
STARTCHAR dollar
ENCODING 36
SWIDTH 500 0
DWIDTH 4 0
BBX 4 7 -1 -1
BITMAP
20
70
C0
60
30
E0
20
ENDCHAR
STARTCHAR percent
ENCODING 37
SWIDTH 1000 0
DWIDTH 7 0
BBX 5 5 0 0
BITMAP
C8
D0
20
58
98
ENDCHAR
STARTCHAR ampersand
ENCODING 38
SWIDTH 833 0
DWIDTH 7 0
BBX 6 5 0 0
BITMAP
70
C0
74
D8
6C
ENDCHAR
STARTCHAR quotesingle
ENCODING 39
SWIDTH 278 0
DWIDTH 3 0
BBX 1 3 0 2
BITMAP
80
80
80
ENDCHAR
STARTCHAR parenleft
ENCODING 40
SWIDTH 333 0
DWIDTH 2 0
BBX 2 7 -1 -1
BITMAP
40
80
80
80
80
80
40
ENDCHAR
STARTCHAR parenright
ENCODING 41
SWIDTH 333 0
DWIDTH 3 0
BBX 2 7 -1 -1
BITMAP
80
40
40
40
40
40
80
ENDCHAR
STARTCHAR asterisk
ENCODING 42
SWIDTH 500 0
DWIDTH 5 0
BBX 4 3 0 2
BITMAP
F0
60
F0
ENDCHAR
STARTCHAR plus
ENCODING 43
SWIDTH 570 0
DWIDTH 5 0
BBX 4 3 0 1
BITMAP
60
F0
60
ENDCHAR
STARTCHAR comma
ENCODING 44
SWIDTH 250 0
DWIDTH 3 0
BBX 3 3 -1 -2
BITMAP
60
60
80
ENDCHAR
STARTCHAR hyphen
ENCODING 45
SWIDTH 333 0
DWIDTH 3 0
BBX 2 1 0 2
BITMAP
C0
ENDCHAR
STARTCHAR period
ENCODING 46
SWIDTH 250 0
DWIDTH 2 0
BBX 2 1 -1 0
BITMAP
C0
ENDCHAR
STARTCHAR slash
ENCODING 47
SWIDTH 278 0
DWIDTH 2 0
BBX 2 7 -1 -1
BITMAP
40
40
40
C0
C0
80
80
ENDCHAR
STARTCHAR zero
ENCODING 48
SWIDTH 500 0
DWIDTH 4 0
BBX 4 5 -1 0
BITMAP
60
D0
D0
D0
60
ENDCHAR
STARTCHAR one
ENCODING 49
SWIDTH 500 0
DWIDTH 4 0
BBX 4 5 -1 0
BITMAP
E0
60
60
60
F0
ENDCHAR
STARTCHAR two
ENCODING 50
SWIDTH 500 0
DWIDTH 4 0
BBX 4 5 -1 0
BITMAP
E0
30
60
C0
F0
ENDCHAR
STARTCHAR three
ENCODING 51
SWIDTH 500 0
DWIDTH 4 0
BBX 4 5 -1 0
BITMAP
E0
30
70
30
E0
ENDCHAR
STARTCHAR four
ENCODING 52
SWIDTH 500 0
DWIDTH 4 0
BBX 4 5 -1 0
BITMAP
20
60
A0
F0
60
ENDCHAR
STARTCHAR five
ENCODING 53
SWIDTH 500 0
DWIDTH 4 0
BBX 4 5 -1 0
BITMAP
F0
C0
60
30
E0
ENDCHAR
STARTCHAR six
ENCODING 54
SWIDTH 500 0
DWIDTH 4 0
BBX 4 5 -1 0
BITMAP
70
C0
F0
D0
60
ENDCHAR
STARTCHAR seven
ENCODING 55
SWIDTH 500 0
DWIDTH 4 0
BBX 4 5 -1 0
BITMAP
F0
30
60
40
C0
ENDCHAR
STARTCHAR eight
ENCODING 56
SWIDTH 500 0
DWIDTH 4 0
BBX 4 5 -1 0
BITMAP
60
D0
60
D0
60
ENDCHAR
STARTCHAR nine
ENCODING 57
SWIDTH 500 0
DWIDTH 4 0
BBX 4 5 -1 0
BITMAP
60
B0
70
30
E0
ENDCHAR
STARTCHAR colon
ENCODING 58
SWIDTH 333 0
DWIDTH 3 0
BBX 2 3 0 0
BITMAP
C0
00
C0
ENDCHAR
STARTCHAR semicolon
ENCODING 59
SWIDTH 333 0
DWIDTH 3 0
BBX 2 5 0 -2
BITMAP
C0
00
C0
40
80
ENDCHAR
STARTCHAR less
ENCODING 60
SWIDTH 570 0
DWIDTH 5 0
BBX 4 5 0 0
BITMAP
30
60
C0
60
30
ENDCHAR
STARTCHAR equal
ENCODING 61
SWIDTH 570 0
DWIDTH 5 0
BBX 3 3 0 1
BITMAP
E0
00
E0
ENDCHAR
STARTCHAR greater
ENCODING 62
SWIDTH 570 0
DWIDTH 5 0
BBX 4 5 0 0
BITMAP
C0
60
30
60
C0
ENDCHAR
STARTCHAR question
ENCODING 63
SWIDTH 500 0
DWIDTH 5 0
BBX 4 6 0 0
BITMAP
E0
30
E0
C0
00
C0
ENDCHAR
STARTCHAR at
ENCODING 64
SWIDTH 930 0
DWIDTH 9 0
BBX 8 7 0 -1
BITMAP
3E
61
CF
DB
CE
60
38
ENDCHAR
STARTCHAR A
ENCODING 65
SWIDTH 722 0
DWIDTH 6 0
BBX 6 5 -1 0
BITMAP
30
58
78
58
DC
ENDCHAR
STARTCHAR B
ENCODING 66
SWIDTH 667 0
DWIDTH 6 0
BBX 5 5 0 0
BITMAP
F0
D8
F0
D8
F0
ENDCHAR
STARTCHAR C
ENCODING 67
SWIDTH 722 0
DWIDTH 6 0
BBX 5 5 0 0
BITMAP
70
C8
C0
C8
70
ENDCHAR
STARTCHAR D
ENCODING 68
SWIDTH 722 0
DWIDTH 6 0
BBX 5 5 -1 0
BITMAP
F0
68
68
68
F0
ENDCHAR
STARTCHAR E
ENCODING 69
SWIDTH 667 0
DWIDTH 6 0
BBX 5 5 0 0
BITMAP
F8
60
78
60
F8
ENDCHAR
STARTCHAR F
ENCODING 70
SWIDTH 611 0
DWIDTH 6 0
BBX 5 5 0 0
BITMAP
F8
60
78
60
F0
ENDCHAR
STARTCHAR G
ENCODING 71
SWIDTH 778 0
DWIDTH 6 0
BBX 5 5 0 0
BITMAP
70
C0
D8
D8
70
ENDCHAR
STARTCHAR H
ENCODING 72
SWIDTH 778 0
DWIDTH 7 0
BBX 5 5 0 0
BITMAP
D8
D8
F8
D8
D8
ENDCHAR
STARTCHAR I
ENCODING 73
SWIDTH 389 0
DWIDTH 4 0
BBX 4 5 -1 0
BITMAP
F0
60
60
60
F0
ENDCHAR
STARTCHAR J
ENCODING 74
SWIDTH 500 0
DWIDTH 4 0
BBX 3 5 0 0
BITMAP
E0
60
60
60
C0
ENDCHAR
STARTCHAR K
ENCODING 75
SWIDTH 778 0
DWIDTH 6 0
BBX 5 5 0 0
BITMAP
D8
D0
E0
F0
D8
ENDCHAR
STARTCHAR L
ENCODING 76
SWIDTH 667 0
DWIDTH 6 0
BBX 5 5 0 0
BITMAP
E0
60
60
68
F8
ENDCHAR
STARTCHAR M
ENCODING 77
SWIDTH 944 0
DWIDTH 8 0
BBX 8 5 -1 0
BITMAP
E7
6E
7E
56
D7
ENDCHAR
STARTCHAR N
ENCODING 78
SWIDTH 722 0
DWIDTH 6 0
BBX 6 5 -1 0
BITMAP
CC
68
78
58
C8
ENDCHAR
STARTCHAR O
ENCODING 79
SWIDTH 778 0
DWIDTH 6 0
BBX 5 5 0 0
BITMAP
70
D8
D8
D8
70
ENDCHAR
STARTCHAR P
ENCODING 80
SWIDTH 611 0
DWIDTH 5 0
BBX 5 5 -1 0
BITMAP
F0
68
68
70
E0
ENDCHAR
STARTCHAR Q
ENCODING 81
SWIDTH 778 0
DWIDTH 6 0
BBX 5 7 0 -2
BITMAP
70
D8
D8
D8
70
20
10
ENDCHAR
STARTCHAR R
ENCODING 82
SWIDTH 722 0
DWIDTH 6 0
BBX 6 5 -1 0
BITMAP
F8
6C
78
68
EC
ENDCHAR
STARTCHAR S
ENCODING 83
SWIDTH 556 0
DWIDTH 5 0
BBX 5 5 -1 0
BITMAP
78
E0
70
38
F0
ENDCHAR
STARTCHAR T
ENCODING 84
SWIDTH 667 0
DWIDTH 6 0
BBX 6 5 -1 0
BITMAP
FC
B4
30
30
78
ENDCHAR
STARTCHAR U
ENCODING 85
SWIDTH 722 0
DWIDTH 6 0
BBX 5 5 0 0
BITMAP
C8
C8
C8
C8
70
ENDCHAR
STARTCHAR V
ENCODING 86
SWIDTH 722 0
DWIDTH 6 0
BBX 6 5 -1 0
BITMAP
E4
6C
68
38
10
ENDCHAR
STARTCHAR W
ENCODING 87
SWIDTH 1000 0
DWIDTH 8 0
BBX 8 5 -1 0
BITMAP
EB
6A
6E
7C
24
ENDCHAR
STARTCHAR X
ENCODING 88
SWIDTH 722 0
DWIDTH 6 0
BBX 5 5 0 0
BITMAP
D8
F8
20
F8
D8
ENDCHAR
STARTCHAR Y
ENCODING 89
SWIDTH 722 0
DWIDTH 6 0
BBX 6 5 -1 0
BITMAP
CC
68
30
30
30
ENDCHAR
STARTCHAR Z
ENCODING 90
SWIDTH 667 0
DWIDTH 6 0
BBX 4 5 0 0
BITMAP
F0
30
60
C0
F0
ENDCHAR
STARTCHAR bracketleft
ENCODING 91
SWIDTH 333 0
DWIDTH 3 0
BBX 3 7 -1 -1
BITMAP
E0
C0
C0
C0
C0
C0
E0
ENDCHAR
STARTCHAR backslash
ENCODING 92
SWIDTH 278 0
DWIDTH 2 0
BBX 2 7 -1 -1
BITMAP
80
80
80
C0
C0
40
40
ENDCHAR
STARTCHAR bracketright
ENCODING 93
SWIDTH 333 0
DWIDTH 3 0
BBX 3 7 -1 -1
BITMAP
E0
60
60
60
60
60
E0
ENDCHAR
STARTCHAR asciicircum
ENCODING 94
SWIDTH 581 0
DWIDTH 5 0
BBX 5 3 -1 2
BITMAP
20
70
D8
ENDCHAR
STARTCHAR underscore
ENCODING 95
SWIDTH 500 0
DWIDTH 4 0
BBX 4 1 -1 -2
BITMAP
F0
ENDCHAR
STARTCHAR grave
ENCODING 96
SWIDTH 333 0
DWIDTH 4 0
BBX 3 2 0 5
BITMAP
C0
60
ENDCHAR
STARTCHAR a
ENCODING 97
SWIDTH 500 0
DWIDTH 4 0
BBX 3 4 0 0
BITMAP
C0
60
E0
E0
ENDCHAR
STARTCHAR b
ENCODING 98
SWIDTH 556 0
DWIDTH 4 0
BBX 3 6 0 0
BITMAP
80
80
C0
A0
A0
C0
ENDCHAR
STARTCHAR c
ENCODING 99
SWIDTH 444 0
DWIDTH 4 0
BBX 3 4 0 0
BITMAP
60
C0
C0
60
ENDCHAR
STARTCHAR d
ENCODING 100
SWIDTH 556 0
DWIDTH 5 0
BBX 3 6 0 0
BITMAP
20
20
60
A0
A0
60
ENDCHAR
STARTCHAR e
ENCODING 101
SWIDTH 444 0
DWIDTH 4 0
BBX 3 4 0 0
BITMAP
60
E0
C0
60
ENDCHAR
STARTCHAR f
ENCODING 102
SWIDTH 333 0
DWIDTH 2 0
BBX 3 6 -1 0
BITMAP
20
40
E0
40
40
40
ENDCHAR
STARTCHAR g
ENCODING 103
SWIDTH 500 0
DWIDTH 4 0
BBX 3 6 0 -2
BITMAP
60
A0
A0
60
20
C0
ENDCHAR
STARTCHAR h
ENCODING 104
SWIDTH 556 0
DWIDTH 4 0
BBX 3 6 0 0
BITMAP
80
80
C0
A0
A0
A0
ENDCHAR
STARTCHAR i
ENCODING 105
SWIDTH 278 0
DWIDTH 2 0
BBX 1 6 0 0
BITMAP
80
00
80
80
80
80
ENDCHAR
STARTCHAR j
ENCODING 106
SWIDTH 333 0
DWIDTH 3 0
BBX 2 8 0 -2
BITMAP
40
00
40
40
40
40
40
80
ENDCHAR
STARTCHAR k
ENCODING 107
SWIDTH 556 0
DWIDTH 4 0
BBX 3 6 0 0
BITMAP
80
80
A0
C0
A0
A0
ENDCHAR
STARTCHAR l
ENCODING 108
SWIDTH 278 0
DWIDTH 2 0
BBX 1 6 0 0
BITMAP
80
80
80
80
80
80
ENDCHAR
STARTCHAR m
ENCODING 109
SWIDTH 833 0
DWIDTH 6 0
BBX 6 4 0 0
BITMAP
F8
D4
D4
D4
ENDCHAR
STARTCHAR n
ENCODING 110
SWIDTH 556 0
DWIDTH 5 0
BBX 4 4 0 0
BITMAP
E0
D0
D0
D0
ENDCHAR
STARTCHAR o
ENCODING 111
SWIDTH 500 0
DWIDTH 5 0
BBX 4 4 0 0
BITMAP
60
D0
D0
60
ENDCHAR
STARTCHAR p
ENCODING 112
SWIDTH 556 0
DWIDTH 4 0
BBX 3 6 0 -2
BITMAP
C0
A0
A0
C0
80
80
ENDCHAR
STARTCHAR q
ENCODING 113
SWIDTH 556 0
DWIDTH 4 0
BBX 3 6 0 -2
BITMAP
60
A0
A0
60
20
20
ENDCHAR
STARTCHAR r
ENCODING 114
SWIDTH 444 0
DWIDTH 3 0
BBX 3 4 0 0
BITMAP
E0
80
80
80
ENDCHAR
STARTCHAR s
ENCODING 115
SWIDTH 389 0
DWIDTH 3 0
BBX 3 4 0 0
BITMAP
60
C0
60
C0
ENDCHAR
STARTCHAR t
ENCODING 116
SWIDTH 333 0
DWIDTH 3 0
BBX 3 5 -1 0
BITMAP
40
E0
40
40
20
ENDCHAR
STARTCHAR u
ENCODING 117
SWIDTH 556 0
DWIDTH 4 0
BBX 3 4 0 0
BITMAP
A0
A0
A0
60
ENDCHAR
STARTCHAR v
ENCODING 118
SWIDTH 500 0
DWIDTH 4 0
BBX 4 4 0 0
BITMAP
D0
D0
E0
40
ENDCHAR
STARTCHAR w
ENCODING 119
SWIDTH 722 0
DWIDTH 5 0
BBX 5 4 -1 0
BITMAP
88
A8
F8
50
ENDCHAR
STARTCHAR x
ENCODING 120
SWIDTH 500 0
DWIDTH 4 0
BBX 3 4 0 0
BITMAP
A0
E0
E0
A0
ENDCHAR
STARTCHAR y
ENCODING 121
SWIDTH 500 0
DWIDTH 4 0
BBX 3 6 0 -2
BITMAP
A0
A0
A0
60
20
C0
ENDCHAR
STARTCHAR z
ENCODING 122
SWIDTH 444 0
DWIDTH 4 0
BBX 3 4 0 0
BITMAP
E0
60
C0
E0
ENDCHAR
STARTCHAR braceleft
ENCODING 123
SWIDTH 394 0
DWIDTH 3 0
BBX 3 7 -1 -1
BITMAP
60
40
40
C0
40
40
60
ENDCHAR
STARTCHAR bar
ENCODING 124
SWIDTH 220 0
DWIDTH 2 0
BBX 1 7 -1 -1
BITMAP
80
80
80
80
80
80
80
ENDCHAR
STARTCHAR braceright
ENCODING 125
SWIDTH 394 0
DWIDTH 3 0
BBX 3 7 -1 -1
BITMAP
C0
40
40
60
40
40
C0
ENDCHAR
STARTCHAR asciitilde
ENCODING 126
SWIDTH 520 0
DWIDTH 5 0
BBX 5 2 -1 2
BITMAP
68
B0
ENDCHAR
STARTCHAR space
ENCODING 160
SWIDTH 250 0
DWIDTH 2 0
BBX 1 1 0 0
BITMAP
00
ENDCHAR
STARTCHAR Aogonek
ENCODING 161
SWIDTH 722 0
DWIDTH 6 0
BBX 6 8 -1 -3
BITMAP
30
58
78
58
DC
10
20
38
ENDCHAR
STARTCHAR breve
ENCODING 162
SWIDTH 333 0
DWIDTH 4 0
BBX 3 2 0 5
BITMAP
A0
E0
ENDCHAR
STARTCHAR Lslash
ENCODING 163
SWIDTH 667 0
DWIDTH 7 0
BBX 5 5 0 0
BITMAP
E0
70
E0
68
F8
ENDCHAR
STARTCHAR currency
ENCODING 164
SWIDTH 500 0
DWIDTH 5 0
BBX 4 5 0 0
BITMAP
90
60
60
60
90
ENDCHAR
STARTCHAR Lcaron
ENCODING 165
SWIDTH 967 0
DWIDTH 9 0
BBX 8 6 0 0
BITMAP
03
E3
61
60
68
F8
ENDCHAR
STARTCHAR Sacute
ENCODING 166
SWIDTH 556 0
DWIDTH 5 0
BBX 5 8 -1 0
BITMAP
30
60
00
78
E0
70
38
F0
ENDCHAR
STARTCHAR section
ENCODING 167
SWIDTH 500 0
DWIDTH 4 0
BBX 3 7 -1 -1
BITMAP
60
C0
E0
A0
E0
60
C0
ENDCHAR
STARTCHAR dieresis
ENCODING 168
SWIDTH 333 0
DWIDTH 3 0
BBX 3 1 -1 5
BITMAP
A0
ENDCHAR
STARTCHAR Scaron
ENCODING 169
SWIDTH 556 0
DWIDTH 6 0
BBX 5 8 0 0
BITMAP
D0
60
00
78
E0
70
38
F0
ENDCHAR
STARTCHAR Scedilla
ENCODING 170
SWIDTH 556 0
DWIDTH 5 0
BBX 5 7 -1 -2
BITMAP
78
E0
70
38
F0
30
20
ENDCHAR
STARTCHAR Tcaron
ENCODING 171
SWIDTH 667 0
DWIDTH 6 0
BBX 6 8 -1 0
BITMAP
28
10
00
FC
B4
30
30
78
ENDCHAR
STARTCHAR Zacute
ENCODING 172
SWIDTH 667 0
DWIDTH 6 0
BBX 4 8 0 0
BITMAP
30
60
00
F0
30
60
C0
F0
ENDCHAR
STARTCHAR hyphen
ENCODING 173
SWIDTH 333 0
DWIDTH 3 0
BBX 2 1 0 2
BITMAP
C0
ENDCHAR
STARTCHAR Zcaron
ENCODING 174
SWIDTH 667 0
DWIDTH 7 0
BBX 6 8 0 0
BITMAP
28
10
00
FC
98
30
64
FC
ENDCHAR
STARTCHAR Zdotaccent
ENCODING 175
SWIDTH 667 0
DWIDTH 6 0
BBX 4 8 0 0
BITMAP
20
20
00
F0
30
60
C0
F0
ENDCHAR
STARTCHAR degree
ENCODING 176
SWIDTH 400 0
DWIDTH 3 0
BBX 3 3 -1 2
BITMAP
40
A0
40
ENDCHAR
STARTCHAR aogonek
ENCODING 177
SWIDTH 500 0
DWIDTH 4 0
BBX 3 7 0 -3
BITMAP
C0
60
E0
E0
40
80
E0
ENDCHAR
STARTCHAR ogonek
ENCODING 178
SWIDTH 333 0
DWIDTH 3 0
BBX 3 3 0 -3
BITMAP
40
80
E0
ENDCHAR
STARTCHAR lslash
ENCODING 179
SWIDTH 278 0
DWIDTH 4 0
BBX 3 6 0 0
BITMAP
C0
40
60
C0
40
40
ENDCHAR
STARTCHAR acute
ENCODING 180
SWIDTH 333 0
DWIDTH 3 0
BBX 3 2 -1 4
BITMAP
60
C0
ENDCHAR
STARTCHAR lcaron
ENCODING 181
SWIDTH 597 0
DWIDTH 5 0
BBX 4 6 0 0
BITMAP
B0
B0
90
80
80
80
ENDCHAR
STARTCHAR sacute
ENCODING 182
SWIDTH 389 0
DWIDTH 3 0
BBX 3 7 0 0
BITMAP
60
C0
00
60
C0
60
C0
ENDCHAR
STARTCHAR caron
ENCODING 183
SWIDTH 333 0
DWIDTH 4 0
BBX 3 2 0 5
BITMAP
A0
40
ENDCHAR
STARTCHAR cedilla
ENCODING 184
SWIDTH 333 0
DWIDTH 2 0
BBX 2 3 -1 -2
BITMAP
C0
C0
80
ENDCHAR
STARTCHAR scaron
ENCODING 185
SWIDTH 389 0
DWIDTH 4 0
BBX 3 7 0 0
BITMAP
A0
40
00
60
C0
60
C0
ENDCHAR
STARTCHAR scedilla
ENCODING 186
SWIDTH 389 0
DWIDTH 3 0
BBX 3 6 0 -2
BITMAP
60
C0
60
E0
60
40
ENDCHAR
STARTCHAR tcaron
ENCODING 187
SWIDTH 649 0
DWIDTH 6 0
BBX 6 6 -1 0
BITMAP
0C
4C
E4
40
40
20
ENDCHAR
STARTCHAR zacute
ENCODING 188
SWIDTH 444 0
DWIDTH 4 0
BBX 3 7 0 0
BITMAP
60
C0
00
E0
60
C0
E0
ENDCHAR
STARTCHAR hungarumlaut
ENCODING 189
SWIDTH 333 0
DWIDTH 4 0
BBX 6 2 0 5
BITMAP
6C
D8
ENDCHAR
STARTCHAR zcaron
ENCODING 190
SWIDTH 444 0
DWIDTH 5 0
BBX 4 7 0 0
BITMAP
A0
40
00
F0
60
C0
F0
ENDCHAR
STARTCHAR zdotaccent
ENCODING 191
SWIDTH 444 0
DWIDTH 4 0
BBX 3 7 0 0
BITMAP
40
40
00
E0
60
C0
E0
ENDCHAR
STARTCHAR Racute
ENCODING 192
SWIDTH 722 0
DWIDTH 6 0
BBX 6 8 -1 0
BITMAP
18
30
00
F8
6C
78
68
EC
ENDCHAR
STARTCHAR Aacute
ENCODING 193
SWIDTH 722 0
DWIDTH 6 0
BBX 6 8 -1 0
BITMAP
18
30
00
30
58
78
58
DC
ENDCHAR
STARTCHAR Acircumflex
ENCODING 194
SWIDTH 722 0
DWIDTH 6 0
BBX 6 8 -1 0
BITMAP
30
58
00
30
58
78
58
DC
ENDCHAR
STARTCHAR Abreve
ENCODING 195
SWIDTH 722 0
DWIDTH 6 0
BBX 6 8 -1 0
BITMAP
28
38
00
30
58
78
58
DC
ENDCHAR
STARTCHAR Adieresis
ENCODING 196
SWIDTH 722 0
DWIDTH 6 0
BBX 6 8 -1 0
BITMAP
48
48
00
30
58
78
58
DC
ENDCHAR
STARTCHAR Lacute
ENCODING 197
SWIDTH 667 0
DWIDTH 6 0
BBX 5 8 0 0
BITMAP
30
60
00
E0
60
60
68
F8
ENDCHAR
STARTCHAR Cacute
ENCODING 198
SWIDTH 722 0
DWIDTH 6 0
BBX 5 8 0 0
BITMAP
30
60
00
70
C8
C0
C8
70
ENDCHAR
STARTCHAR Ccedilla
ENCODING 199
SWIDTH 722 0
DWIDTH 6 0
BBX 5 7 0 -2
BITMAP
70
C8
C0
C8
70
20
40
ENDCHAR
STARTCHAR Ccaron
ENCODING 200
SWIDTH 722 0
DWIDTH 6 0
BBX 5 8 0 0
BITMAP
50
20
00
70
C8
C0
C8
70
ENDCHAR
STARTCHAR Eacute
ENCODING 201
SWIDTH 667 0
DWIDTH 6 0
BBX 5 8 0 0
BITMAP
18
30
00
F8
60
78
60
F8
ENDCHAR
STARTCHAR Eogonek
ENCODING 202
SWIDTH 667 0
DWIDTH 6 0
BBX 5 8 0 -3
BITMAP
F8
60
78
60
F8
20
40
70
ENDCHAR
STARTCHAR Edieresis
ENCODING 203
SWIDTH 667 0
DWIDTH 6 0
BBX 5 8 0 0
BITMAP
48
48
00
F8
60
78
60
F8
ENDCHAR
STARTCHAR Ecaron
ENCODING 204
SWIDTH 667 0
DWIDTH 6 0
BBX 5 8 0 0
BITMAP
50
20
00
F8
60
78
60
F8
ENDCHAR
STARTCHAR Iacute
ENCODING 205
SWIDTH 389 0
DWIDTH 4 0
BBX 4 8 -1 0
BITMAP
30
60
00
F0
60
60
60
F0
ENDCHAR
STARTCHAR Icircumflex
ENCODING 206
SWIDTH 389 0
DWIDTH 4 0
BBX 4 8 -1 0
BITMAP
60
90
00
F0
60
60
60
F0
ENDCHAR
STARTCHAR Dcaron
ENCODING 207
SWIDTH 722 0
DWIDTH 6 0
BBX 5 8 -1 0
BITMAP
50
20
00
F0
68
68
68
F0
ENDCHAR
STARTCHAR Dcroat
ENCODING 208
SWIDTH 722 0
DWIDTH 6 0
BBX 5 5 -1 0
BITMAP
70
68
E8
68
70
ENDCHAR
STARTCHAR Nacute
ENCODING 209
SWIDTH 722 0
DWIDTH 6 0
BBX 6 8 -1 0
BITMAP
18
30
00
CC
68
78
58
C8
ENDCHAR
STARTCHAR Ncaron
ENCODING 210
SWIDTH 722 0
DWIDTH 6 0
BBX 6 8 -1 0
BITMAP
50
20
00
CC
68
78
58
C8
ENDCHAR
STARTCHAR Oacute
ENCODING 211
SWIDTH 778 0
DWIDTH 6 0
BBX 5 8 0 0
BITMAP
18
30
00
70
D8
D8
D8
70
ENDCHAR
STARTCHAR Ocircumflex
ENCODING 212
SWIDTH 778 0
DWIDTH 6 0
BBX 5 8 0 0
BITMAP
70
D8
00
70
D8
D8
D8
70
ENDCHAR
STARTCHAR Ohungarumlaut
ENCODING 213
SWIDTH 778 0
DWIDTH 6 0
BBX 6 8 0 0
BITMAP
6C
D8
00
70
D8
D8
D8
70
ENDCHAR
STARTCHAR Odieresis
ENCODING 214
SWIDTH 778 0
DWIDTH 6 0
BBX 5 8 0 0
BITMAP
50
50
00
70
D8
D8
D8
70
ENDCHAR
STARTCHAR multiply
ENCODING 215
SWIDTH 570 0
DWIDTH 5 0
BBX 5 4 -1 0
BITMAP
D8
70
70
D8
ENDCHAR
STARTCHAR Rcaron
ENCODING 216
SWIDTH 722 0
DWIDTH 6 0
BBX 6 8 -1 0
BITMAP
50
20
00
F8
6C
78
68
EC
ENDCHAR
STARTCHAR Uring
ENCODING 217
SWIDTH 722 0
DWIDTH 6 0
BBX 5 9 0 0
BITMAP
20
50
20
00
C8
C8
C8
C8
70
ENDCHAR
STARTCHAR Uacute
ENCODING 218
SWIDTH 722 0
DWIDTH 6 0
BBX 5 8 0 0
BITMAP
18
30
00
C8
C8
C8
C8
70
ENDCHAR
STARTCHAR Uhungarumlaut
ENCODING 219
SWIDTH 722 0
DWIDTH 6 0
BBX 6 8 0 0
BITMAP
6C
D8
00
C8
C8
C8
C8
70
ENDCHAR
STARTCHAR Udieresis
ENCODING 220
SWIDTH 722 0
DWIDTH 6 0
BBX 5 8 0 0
BITMAP
48
48
00
C8
C8
C8
C8
70
ENDCHAR
STARTCHAR Yacute
ENCODING 221
SWIDTH 722 0
DWIDTH 6 0
BBX 6 8 -1 0
BITMAP
18
30
00
CC
68
30
30
30
ENDCHAR
STARTCHAR Tcommaaccent
ENCODING 222
SWIDTH 667 0
DWIDTH 6 0
BBX 6 7 -1 -2
BITMAP
FC
B4
30
30
78
30
20
ENDCHAR
STARTCHAR germandbls
ENCODING 223
SWIDTH 556 0
DWIDTH 5 0
BBX 4 6 0 0
BITMAP
60
D0
E0
D0
D0
A0
ENDCHAR
STARTCHAR racute
ENCODING 224
SWIDTH 444 0
DWIDTH 3 0
BBX 3 7 0 0
BITMAP
60
C0
00
E0
80
80
80
ENDCHAR
STARTCHAR aacute
ENCODING 225
SWIDTH 500 0
DWIDTH 4 0
BBX 4 7 0 0
BITMAP
30
60
00
C0
60
E0
E0
ENDCHAR
STARTCHAR acircumflex
ENCODING 226
SWIDTH 500 0
DWIDTH 4 0
BBX 3 7 0 0
BITMAP
40
A0
00
C0
60
E0
E0
ENDCHAR
STARTCHAR abreve
ENCODING 227
SWIDTH 500 0
DWIDTH 4 0
BBX 3 7 0 0
BITMAP
A0
E0
00
C0
60
E0
E0
ENDCHAR
STARTCHAR adieresis
ENCODING 228
SWIDTH 500 0
DWIDTH 4 0
BBX 3 7 0 0
BITMAP
A0
A0
00
C0
60
E0
E0
ENDCHAR
STARTCHAR lacute
ENCODING 229
SWIDTH 278 0
DWIDTH 2 0
BBX 3 9 -1 0
BITMAP
60
C0
00
40
40
40
40
40
40
ENDCHAR
STARTCHAR cacute
ENCODING 230
SWIDTH 444 0
DWIDTH 4 0
BBX 3 7 0 0
BITMAP
60
C0
00
60
C0
C0
60
ENDCHAR
STARTCHAR ccedilla
ENCODING 231
SWIDTH 444 0
DWIDTH 4 0
BBX 3 6 0 -2
BITMAP
60
C0
C0
60
40
80
ENDCHAR
STARTCHAR ccaron
ENCODING 232
SWIDTH 444 0
DWIDTH 4 0
BBX 3 7 0 0
BITMAP
A0
40
00
60
C0
C0
60
ENDCHAR
STARTCHAR eacute
ENCODING 233
SWIDTH 444 0
DWIDTH 4 0
BBX 4 7 0 0
BITMAP
30
60
00
60
E0
C0
60
ENDCHAR
STARTCHAR eogonek
ENCODING 234
SWIDTH 444 0
DWIDTH 4 0
BBX 3 7 0 -3
BITMAP
60
E0
C0
60
40
80
E0
ENDCHAR
STARTCHAR edieresis
ENCODING 235
SWIDTH 444 0
DWIDTH 4 0
BBX 3 7 0 0
BITMAP
A0
A0
00
60
E0
C0
60
ENDCHAR
STARTCHAR ecaron
ENCODING 236
SWIDTH 444 0
DWIDTH 4 0
BBX 3 7 0 0
BITMAP
A0
40
00
60
E0
C0
60
ENDCHAR
STARTCHAR iacute
ENCODING 237
SWIDTH 278 0
DWIDTH 2 0
BBX 3 7 -1 0
BITMAP
60
C0
00
40
40
40
40
ENDCHAR
STARTCHAR icircumflex
ENCODING 238
SWIDTH 278 0
DWIDTH 2 0
BBX 3 7 -1 0
BITMAP
40
A0
00
40
40
40
40
ENDCHAR
STARTCHAR dcaron
ENCODING 239
SWIDTH 861 0
DWIDTH 8 0
BBX 7 6 0 0
BITMAP
26
26
62
A0
A0
60
ENDCHAR
STARTCHAR dcroat
ENCODING 240
SWIDTH 556 0
DWIDTH 5 0
BBX 4 6 -1 0
BITMAP
10
F0
30
50
50
30
ENDCHAR
STARTCHAR nacute
ENCODING 241
SWIDTH 556 0
DWIDTH 5 0
BBX 4 7 0 0
BITMAP
30
60
00
E0
D0
D0
D0
ENDCHAR
STARTCHAR ncaron
ENCODING 242
SWIDTH 556 0
DWIDTH 5 0
BBX 4 7 0 0
BITMAP
A0
40
00
E0
D0
D0
D0
ENDCHAR
STARTCHAR oacute
ENCODING 243
SWIDTH 500 0
DWIDTH 5 0
BBX 4 7 0 0
BITMAP
30
60
00
60
D0
D0
60
ENDCHAR
STARTCHAR ocircumflex
ENCODING 244
SWIDTH 500 0
DWIDTH 5 0
BBX 4 7 0 0
BITMAP
60
B0
00
60
D0
D0
60
ENDCHAR
STARTCHAR ohungarumlaut
ENCODING 245
SWIDTH 500 0
DWIDTH 5 0
BBX 6 7 -1 0
BITMAP
6C
D8
00
30
68
68
30
ENDCHAR
STARTCHAR odieresis
ENCODING 246
SWIDTH 500 0
DWIDTH 5 0
BBX 4 7 0 0
BITMAP
50
50
00
60
D0
D0
60
ENDCHAR
STARTCHAR divide
ENCODING 247
SWIDTH 570 0
DWIDTH 5 0
BBX 3 5 0 0
BITMAP
40
00
E0
00
40
ENDCHAR
STARTCHAR rcaron
ENCODING 248
SWIDTH 444 0
DWIDTH 3 0
BBX 3 7 0 0
BITMAP
A0
40
00
E0
80
80
80
ENDCHAR
STARTCHAR uring
ENCODING 249
SWIDTH 556 0
DWIDTH 4 0
BBX 3 8 0 0
BITMAP
40
A0
40
00
A0
A0
A0
60
ENDCHAR
STARTCHAR uacute
ENCODING 250
SWIDTH 556 0
DWIDTH 4 0
BBX 4 7 0 0
BITMAP
30
60
00
A0
A0
A0
60
ENDCHAR
STARTCHAR uhungarumlaut
ENCODING 251
SWIDTH 556 0
DWIDTH 4 0
BBX 6 7 -1 0
BITMAP
6C
D8
00
50
50
50
30
ENDCHAR
STARTCHAR udieresis
ENCODING 252
SWIDTH 556 0
DWIDTH 4 0
BBX 3 7 0 0
BITMAP
A0
A0
00
A0
A0
A0
60
ENDCHAR
STARTCHAR yacute
ENCODING 253
SWIDTH 500 0
DWIDTH 4 0
BBX 4 9 0 -2
BITMAP
30
60
00
A0
A0
A0
60
20
C0
ENDCHAR
STARTCHAR tcommaaccent
ENCODING 254
SWIDTH 333 0
DWIDTH 3 0
BBX 3 7 -1 -2
BITMAP
40
E0
40
40
60
60
40
ENDCHAR
STARTCHAR dotaccent
ENCODING 255
SWIDTH 333 0
DWIDTH 4 0
BBX 1 2 1 5
BITMAP
80
80
ENDCHAR
ENDFONT
