STARTFONT 2.1
COMMENT AUTOMATICALLY GENERATED FILE. DO NOT EDIT!
COMMENT Generated with 'ucs2any timR12.bdf /usr/local/share/fonts/X11/util/map-ISO8859-4 ISO8859-4'
COMMENT from an ISO10646-1 encoded source BDF font.
COMMENT ucs2any by Ben Collver <collver1@attbi.com>, 2003, based on
COMMENT ucs2any.pl by Markus Kuhn <http://www.cl.cam.ac.uk/~mgk25/>, 2000.
FONT -Adobe-Times-Medium-R-Normal--12-120-75-75-P-64-ISO8859-4
SIZE 12 75 75
FONTBOUNDINGBOX 13 16 -1 -4
COMMENT ISO10646-1 extension by Markus Kuhn <mkuhn@acm.org>, 2001-03-20
COMMENT
COMMENT +
COMMENT  Copyright 1984-1989, 1994 Adobe Systems Incorporated.
COMMENT  Copyright 1988, 1994 Digital Equipment Corporation.
COMMENT
COMMENT  Adobe is a trademark of Adobe Systems Incorporated which may be
COMMENT  registered in certain jurisdictions.
COMMENT  Permission to use these trademarks is hereby granted only in
COMMENT  association with the images described in this file.
COMMENT
COMMENT  Permission to use, copy, modify, distribute and sell this software
COMMENT  and its documentation for any purpose and without fee is hereby
COMMENT  granted, provided that the above copyright notices appear in all
COMMENT  copies and that both those copyright notices and this permission
COMMENT  notice appear in supporting documentation, and that the names of
COMMENT  Adobe Systems and Digital Equipment Corporation not be used in
COMMENT  advertising or publicity pertaining to distribution of the software
COMMENT  without specific, written prior permission.  Adobe Systems and
COMMENT  Digital Equipment Corporation make no representations about the
COMMENT  suitability of this software for any purpose.  It is provided "as
COMMENT  is" without express or implied warranty.
COMMENT -
STARTPROPERTIES 26
FOUNDRY "Adobe"
FAMILY_NAME "Times"
WEIGHT_NAME "Medium"
SLANT "R"
SETWIDTH_NAME "Normal"
ADD_STYLE_NAME ""
PIXEL_SIZE 12
POINT_SIZE 120
RESOLUTION_X 75
RESOLUTION_Y 75
SPACING "P"
AVERAGE_WIDTH 64
CHARSET_REGISTRY "ISO8859"
CHARSET_ENCODING "4"
CAP_HEIGHT 9
X_HEIGHT 6
FONT_ASCENT 11
FONT_DESCENT 3
FACE_NAME "Times Roman"
COPYRIGHT "Copyright (c) 1984, 1987 Adobe Systems Incorporated. All Rights Reserved. Copyright (c) 1988, 1991 Digital Equipment Corporation. All Rights Reserved."
NOTICE "Times is a trademark of Linotype-Hell AG and/or its subsidiaries."
_DEC_DEVICE_FONTNAMES "PS=Times-Roman"
DEFAULT_CHAR 0
RELATIVE_SETWIDTH 50
RELATIVE_WEIGHT 50
FULL_NAME "Times Roman"
ENDPROPERTIES
CHARS 192
STARTCHAR defaultchar
ENCODING 0
SWIDTH 722 0
DWIDTH 9 0
BBX 7 9 0 0
BITMAP
AA
00
82
00
82
00
82
00
AA
ENDCHAR
STARTCHAR space
ENCODING 32
SWIDTH 250 0
DWIDTH 3 0
BBX 1 1 0 0
BITMAP
00
ENDCHAR
STARTCHAR exclam
ENCODING 33
SWIDTH 333 0
DWIDTH 3 0
BBX 1 9 1 0
BITMAP
80
80
80
80
80
80
80
00
80
ENDCHAR
STARTCHAR quotedbl
ENCODING 34
SWIDTH 408 0
DWIDTH 5 0
BBX 3 3 1 6
BITMAP
A0
A0
A0
ENDCHAR
STARTCHAR numbersign
ENCODING 35
SWIDTH 500 0
DWIDTH 6 0
BBX 5 8 0 0
BITMAP
50
50
F8
50
50
F8
50
50
ENDCHAR
STARTCHAR dollar
ENCODING 36
SWIDTH 500 0
DWIDTH 6 0
BBX 5 11 0 -1
BITMAP
20
70
A8
A0
60
30
28
28
A8
70
20
ENDCHAR
STARTCHAR percent
ENCODING 37
SWIDTH 833 0
DWIDTH 10 0
BBX 8 9 1 0
BITMAP
63
9E
94
68
10
36
29
49
46
ENDCHAR
STARTCHAR ampersand
ENCODING 38
SWIDTH 778 0
DWIDTH 10 0
BBX 9 9 0 0
BITMAP
1800
2400
2400
1B80
7900
CE00
8400
CE80
7B00
ENDCHAR
STARTCHAR quotesingle
ENCODING 39
SWIDTH 180 0
DWIDTH 2 0
BBX 1 3 0 6
BITMAP
80
80
80
ENDCHAR
STARTCHAR parenleft
ENCODING 40
SWIDTH 333 0
DWIDTH 5 0
BBX 3 12 1 -3
BITMAP
20
40
40
80
80
80
80
80
80
40
40
20
ENDCHAR
STARTCHAR parenright
ENCODING 41
SWIDTH 333 0
DWIDTH 5 0
BBX 3 12 0 -3
BITMAP
80
40
40
20
20
20
20
20
20
40
40
80
ENDCHAR
STARTCHAR asterisk
ENCODING 42
SWIDTH 500 0
DWIDTH 6 0
BBX 5 5 0 4
BITMAP
20
A8
70
A8
20
ENDCHAR
STARTCHAR plus
ENCODING 43
SWIDTH 564 0
DWIDTH 7 0
BBX 5 5 1 1
BITMAP
20
20
F8
20
20
ENDCHAR
STARTCHAR comma
ENCODING 44
SWIDTH 250 0
DWIDTH 3 0
BBX 2 3 0 -2
BITMAP
40
40
80
ENDCHAR
STARTCHAR hyphen
ENCODING 45
SWIDTH 333 0
DWIDTH 4 0
BBX 4 1 0 3
BITMAP
F0
ENDCHAR
STARTCHAR period
ENCODING 46
SWIDTH 250 0
DWIDTH 3 0
BBX 1 1 1 0
BITMAP
80
ENDCHAR
STARTCHAR slash
ENCODING 47
SWIDTH 278 0
DWIDTH 3 0
BBX 3 9 0 0
BITMAP
20
20
20
40
40
40
80
80
80
ENDCHAR
STARTCHAR zero
ENCODING 48
SWIDTH 500 0
DWIDTH 6 0
BBX 5 9 0 0
BITMAP
70
D8
88
88
88
88
88
D8
70
ENDCHAR
STARTCHAR one
ENCODING 49
SWIDTH 500 0
DWIDTH 6 0
BBX 4 9 0 0
BITMAP
20
60
A0
20
20
20
20
20
70
ENDCHAR
STARTCHAR two
ENCODING 50
SWIDTH 500 0
DWIDTH 6 0
BBX 5 9 0 0
BITMAP
70
88
08
08
10
20
40
88
F8
ENDCHAR
STARTCHAR three
ENCODING 51
SWIDTH 500 0
DWIDTH 6 0
BBX 5 9 0 0
BITMAP
70
88
08
10
70
08
08
88
70
ENDCHAR
STARTCHAR four
ENCODING 52
SWIDTH 500 0
DWIDTH 6 0
BBX 5 9 0 0
BITMAP
10
30
30
50
50
90
F8
10
10
ENDCHAR
STARTCHAR five
ENCODING 53
SWIDTH 500 0
DWIDTH 6 0
BBX 5 9 0 0
BITMAP
38
40
40
70
18
08
08
98
70
ENDCHAR
STARTCHAR six
ENCODING 54
SWIDTH 500 0
DWIDTH 6 0
BBX 5 9 0 0
BITMAP
18
60
40
F0
98
88
88
C8
70
ENDCHAR
STARTCHAR seven
ENCODING 55
SWIDTH 500 0
DWIDTH 6 0
BBX 5 9 0 0
BITMAP
F8
88
10
10
20
20
40
40
40
ENDCHAR
STARTCHAR eight
ENCODING 56
SWIDTH 500 0
DWIDTH 6 0
BBX 5 9 0 0
BITMAP
70
88
88
C8
70
98
88
88
70
ENDCHAR
STARTCHAR nine
ENCODING 57
SWIDTH 500 0
DWIDTH 6 0
BBX 5 9 0 0
BITMAP
70
98
88
88
C8
78
10
30
C0
ENDCHAR
STARTCHAR colon
ENCODING 58
SWIDTH 278 0
DWIDTH 3 0
BBX 1 6 1 0
BITMAP
80
00
00
00
00
80
ENDCHAR
STARTCHAR semicolon
ENCODING 59
SWIDTH 278 0
DWIDTH 3 0
BBX 2 8 0 -2
BITMAP
40
00
00
00
00
40
40
80
ENDCHAR
STARTCHAR less
ENCODING 60
SWIDTH 564 0
DWIDTH 7 0
BBX 6 5 0 1
BITMAP
0C
30
C0
30
0C
ENDCHAR
STARTCHAR equal
ENCODING 61
SWIDTH 564 0
DWIDTH 7 0
BBX 5 3 1 2
BITMAP
F8
00
F8
ENDCHAR
STARTCHAR greater
ENCODING 62
SWIDTH 564 0
DWIDTH 7 0
BBX 6 5 1 1
BITMAP
C0
30
0C
30
C0
ENDCHAR
STARTCHAR question
ENCODING 63
SWIDTH 444 0
DWIDTH 5 0
BBX 4 9 0 0
BITMAP
60
90
10
20
40
40
40
00
40
ENDCHAR
STARTCHAR at
ENCODING 64
SWIDTH 921 0
DWIDTH 11 0
BBX 10 11 1 -2
BITMAP
0F00
3080
6040
4D40
9240
A240
A480
A480
9B00
4000
3E00
ENDCHAR
STARTCHAR A
ENCODING 65
SWIDTH 722 0
DWIDTH 9 0
BBX 9 9 0 0
BITMAP
0800
0800
1400
1400
2200
3E00
2200
4100
E380
ENDCHAR
STARTCHAR B
ENCODING 66
SWIDTH 667 0
DWIDTH 8 0
BBX 7 9 0 0
BITMAP
FC
46
42
46
7C
42
42
46
FC
ENDCHAR
STARTCHAR C
ENCODING 67
SWIDTH 667 0
DWIDTH 8 0
BBX 7 9 0 0
BITMAP
3A
66
42
80
80
80
42
66
3C
ENDCHAR
STARTCHAR D
ENCODING 68
SWIDTH 722 0
DWIDTH 9 0
BBX 8 9 1 0
BITMAP
FC
46
42
41
41
41
42
46
FC
ENDCHAR
STARTCHAR E
ENCODING 69
SWIDTH 611 0
DWIDTH 8 0
BBX 7 9 0 0
BITMAP
FE
42
40
44
7C
44
40
42
FE
ENDCHAR
STARTCHAR F
ENCODING 70
SWIDTH 556 0
DWIDTH 7 0
BBX 7 9 0 0
BITMAP
FE
42
40
44
7C
44
40
40
F0
ENDCHAR
STARTCHAR G
ENCODING 71
SWIDTH 722 0
DWIDTH 9 0
BBX 8 9 0 0
BITMAP
3A
66
42
80
87
82
42
66
3C
ENDCHAR
STARTCHAR H
ENCODING 72
SWIDTH 722 0
DWIDTH 9 0
BBX 8 9 0 0
BITMAP
E7
42
42
42
7E
42
42
42
E7
ENDCHAR
STARTCHAR I
ENCODING 73
SWIDTH 333 0
DWIDTH 4 0
BBX 3 9 0 0
BITMAP
E0
40
40
40
40
40
40
40
E0
ENDCHAR
STARTCHAR J
ENCODING 74
SWIDTH 389 0
DWIDTH 5 0
BBX 4 9 1 0
BITMAP
70
20
20
20
20
20
20
A0
C0
ENDCHAR
STARTCHAR K
ENCODING 75
SWIDTH 722 0
DWIDTH 9 0
BBX 8 9 0 0
BITMAP
EE
44
48
50
70
58
4C
46
E7
ENDCHAR
STARTCHAR L
ENCODING 76
SWIDTH 611 0
DWIDTH 7 0
BBX 6 9 0 0
BITMAP
E0
40
40
40
40
40
40
44
FC
ENDCHAR
STARTCHAR M
ENCODING 77
SWIDTH 889 0
DWIDTH 11 0
BBX 11 9 0 0
BITMAP
C060
60C0
60C0
5140
5140
4A40
4A40
4440
E4E0
ENDCHAR
STARTCHAR N
ENCODING 78
SWIDTH 722 0
DWIDTH 9 0
BBX 9 9 0 0
BITMAP
C380
6100
6100
5100
4900
4900
4500
4300
E100
ENDCHAR
STARTCHAR O
ENCODING 79
SWIDTH 722 0
DWIDTH 9 0
BBX 8 9 0 0
BITMAP
3C
66
42
81
81
81
42
66
3C
ENDCHAR
STARTCHAR P
ENCODING 80
SWIDTH 556 0
DWIDTH 7 0
BBX 7 9 0 0
BITMAP
FC
46
42
46
7C
40
40
40
E0
ENDCHAR
STARTCHAR Q
ENCODING 81
SWIDTH 722 0
DWIDTH 9 0
BBX 8 11 0 -2
BITMAP
3C
66
42
81
81
81
42
66
3C
0C
03
ENDCHAR
STARTCHAR R
ENCODING 82
SWIDTH 667 0
DWIDTH 8 0
BBX 8 9 0 0
BITMAP
FC
46
42
46
7C
48
44
42
E3
ENDCHAR
STARTCHAR S
ENCODING 83
SWIDTH 556 0
DWIDTH 7 0
BBX 6 9 0 0
BITMAP
74
8C
84
60
38
0C
84
CC
B8
ENDCHAR
STARTCHAR T
ENCODING 84
SWIDTH 611 0
DWIDTH 7 0
BBX 7 9 0 0
BITMAP
FE
92
10
10
10
10
10
10
38
ENDCHAR
STARTCHAR U
ENCODING 85
SWIDTH 722 0
DWIDTH 9 0
BBX 8 9 1 0
BITMAP
E7
42
42
42
42
42
42
66
3C
ENDCHAR
STARTCHAR V
ENCODING 86
SWIDTH 722 0
DWIDTH 9 0
BBX 9 9 0 0
BITMAP
E380
4100
2200
2200
1400
1400
1C00
0800
0800
ENDCHAR
STARTCHAR W
ENCODING 87
SWIDTH 944 0
DWIDTH 12 0
BBX 12 9 0 0
BITMAP
EE70
4420
6620
2240
3740
1540
1980
0880
0880
ENDCHAR
STARTCHAR X
ENCODING 88
SWIDTH 722 0
DWIDTH 9 0
BBX 8 9 1 0
BITMAP
E7
42
24
38
18
2C
24
42
E7
ENDCHAR
STARTCHAR Y
ENCODING 89
SWIDTH 722 0
DWIDTH 9 0
BBX 9 9 0 0
BITMAP
E380
4100
2200
1200
1C00
0800
0800
0800
1C00
ENDCHAR
STARTCHAR Z
ENCODING 90
SWIDTH 611 0
DWIDTH 8 0
BBX 7 9 0 0
BITMAP
FE
86
0C
18
30
60
C0
82
FE
ENDCHAR
STARTCHAR bracketleft
ENCODING 91
SWIDTH 333 0
DWIDTH 4 0
BBX 3 12 1 -3
BITMAP
E0
80
80
80
80
80
80
80
80
80
80
E0
ENDCHAR
STARTCHAR backslash
ENCODING 92
SWIDTH 278 0
DWIDTH 3 0
BBX 3 9 0 0
BITMAP
80
80
80
40
40
40
20
20
20
ENDCHAR
STARTCHAR bracketright
ENCODING 93
SWIDTH 333 0
DWIDTH 4 0
BBX 3 12 0 -3
BITMAP
E0
20
20
20
20
20
20
20
20
20
20
E0
ENDCHAR
STARTCHAR asciicircum
ENCODING 94
SWIDTH 469 0
DWIDTH 6 0
BBX 5 5 0 4
BITMAP
20
50
50
88
88
ENDCHAR
STARTCHAR underscore
ENCODING 95
SWIDTH 500 0
DWIDTH 6 0
BBX 6 1 0 -3
BITMAP
FC
ENDCHAR
STARTCHAR grave
ENCODING 96
SWIDTH 333 0
DWIDTH 4 0
BBX 2 2 1 7
BITMAP
80
40
ENDCHAR
STARTCHAR a
ENCODING 97
SWIDTH 444 0
DWIDTH 6 0
BBX 5 6 1 0
BITMAP
60
90
70
90
90
68
ENDCHAR
STARTCHAR b
ENCODING 98
SWIDTH 500 0
DWIDTH 6 0
BBX 5 9 0 0
BITMAP
C0
40
40
70
48
48
48
48
70
ENDCHAR
STARTCHAR c
ENCODING 99
SWIDTH 444 0
DWIDTH 6 0
BBX 4 6 1 0
BITMAP
60
90
80
80
90
60
ENDCHAR
STARTCHAR d
ENCODING 100
SWIDTH 500 0
DWIDTH 6 0
BBX 5 9 1 0
BITMAP
30
10
10
70
90
90
90
90
68
ENDCHAR
STARTCHAR e
ENCODING 101
SWIDTH 444 0
DWIDTH 6 0
BBX 5 6 1 0
BITMAP
60
90
F0
80
C8
70
ENDCHAR
STARTCHAR f
ENCODING 102
SWIDTH 333 0
DWIDTH 4 0
BBX 3 9 0 0
BITMAP
20
40
40
E0
40
40
40
40
40
ENDCHAR
STARTCHAR g
ENCODING 103
SWIDTH 500 0
DWIDTH 6 0
BBX 5 9 1 -3
BITMAP
78
90
90
E0
40
70
88
88
70
ENDCHAR
STARTCHAR h
ENCODING 104
SWIDTH 500 0
DWIDTH 6 0
BBX 6 9 0 0
BITMAP
C0
40
40
70
48
48
48
48
EC
ENDCHAR
STARTCHAR i
ENCODING 105
SWIDTH 278 0
DWIDTH 3 0
BBX 3 9 0 0
BITMAP
40
00
00
C0
40
40
40
40
E0
ENDCHAR
STARTCHAR j
ENCODING 106
SWIDTH 278 0
DWIDTH 3 0
BBX 2 12 0 -3
BITMAP
40
00
00
C0
40
40
40
40
40
40
40
80
ENDCHAR
STARTCHAR k
ENCODING 107
SWIDTH 500 0
DWIDTH 6 0
BBX 6 9 0 0
BITMAP
C0
40
40
48
50
60
50
48
4C
ENDCHAR
STARTCHAR l
ENCODING 108
SWIDTH 278 0
DWIDTH 3 0
BBX 3 9 0 0
BITMAP
C0
40
40
40
40
40
40
40
E0
ENDCHAR
STARTCHAR m
ENCODING 109
SWIDTH 778 0
DWIDTH 9 0
BBX 9 6 0 0
BITMAP
B600
4900
4900
4900
4900
ED80
ENDCHAR
STARTCHAR n
ENCODING 110
SWIDTH 500 0
DWIDTH 6 0
BBX 6 6 0 0
BITMAP
B0
48
48
48
48
EC
ENDCHAR
STARTCHAR o
ENCODING 111
SWIDTH 500 0
DWIDTH 6 0
BBX 4 6 1 0
BITMAP
60
90
90
90
90
60
ENDCHAR
STARTCHAR p
ENCODING 112
SWIDTH 500 0
DWIDTH 6 0
BBX 5 9 0 -3
BITMAP
F0
48
48
48
48
70
40
40
E0
ENDCHAR
STARTCHAR q
ENCODING 113
SWIDTH 500 0
DWIDTH 6 0
BBX 5 9 1 -3
BITMAP
70
90
90
90
90
70
10
10
38
ENDCHAR
STARTCHAR r
ENCODING 114
SWIDTH 333 0
DWIDTH 4 0
BBX 4 6 0 0
BITMAP
B0
60
40
40
40
E0
ENDCHAR
STARTCHAR s
ENCODING 115
SWIDTH 389 0
DWIDTH 6 0
BBX 4 6 1 0
BITMAP
70
90
C0
30
90
E0
ENDCHAR
STARTCHAR t
ENCODING 116
SWIDTH 278 0
DWIDTH 4 0
BBX 4 7 0 0
BITMAP
40
F0
40
40
40
40
30
ENDCHAR
STARTCHAR u
ENCODING 117
SWIDTH 500 0
DWIDTH 6 0
BBX 6 6 0 0
BITMAP
D8
48
48
48
48
34
ENDCHAR
STARTCHAR v
ENCODING 118
SWIDTH 500 0
DWIDTH 6 0
BBX 6 6 0 0
BITMAP
CC
48
58
50
30
20
ENDCHAR
STARTCHAR w
ENCODING 119
SWIDTH 722 0
DWIDTH 9 0
BBX 9 6 0 0
BITMAP
ED80
4900
6B00
2A00
3400
2400
ENDCHAR
STARTCHAR x
ENCODING 120
SWIDTH 500 0
DWIDTH 6 0
BBX 5 6 1 0
BITMAP
D8
50
20
20
50
D8
ENDCHAR
STARTCHAR y
ENCODING 121
SWIDTH 500 0
DWIDTH 6 0
BBX 6 9 0 -3
BITMAP
CC
48
58
50
30
20
20
40
C0
ENDCHAR
STARTCHAR z
ENCODING 122
SWIDTH 444 0
DWIDTH 6 0
BBX 4 6 1 0
BITMAP
F0
90
20
40
90
F0
ENDCHAR
STARTCHAR braceleft
ENCODING 123
SWIDTH 480 0
DWIDTH 6 0
BBX 4 12 1 -3
BITMAP
30
40
40
40
40
80
40
40
40
40
40
30
ENDCHAR
STARTCHAR bar
ENCODING 124
SWIDTH 200 0
DWIDTH 3 0
BBX 1 9 1 0
BITMAP
80
80
80
80
80
80
80
80
80
ENDCHAR
STARTCHAR braceright
ENCODING 125
SWIDTH 480 0
DWIDTH 6 0
BBX 4 12 0 -3
BITMAP
C0
20
20
20
20
10
20
20
20
20
20
C0
ENDCHAR
STARTCHAR asciitilde
ENCODING 126
SWIDTH 541 0
DWIDTH 7 0
BBX 6 2 0 3
BITMAP
64
98
ENDCHAR
STARTCHAR space
ENCODING 160
SWIDTH 250 0
DWIDTH 3 0
BBX 1 1 0 0
BITMAP
00
ENDCHAR
STARTCHAR Aogonek
ENCODING 161
SWIDTH 722 0
DWIDTH 9 0
BBX 9 12 0 -3
BITMAP
0800
0800
1400
1400
2200
3E00
2200
4100
E380
0800
1000
0C00
ENDCHAR
STARTCHAR kgreenlandic
ENCODING 162
SWIDTH 500 0
DWIDTH 6 0
BBX 6 6 0 0
BITMAP
48
50
60
50
48
4C
ENDCHAR
STARTCHAR Rcommaaccent
ENCODING 163
SWIDTH 667 0
DWIDTH 8 0
BBX 8 13 0 -4
BITMAP
FC
46
42
46
7C
48
44
42
E3
00
10
10
20
ENDCHAR
STARTCHAR currency
ENCODING 164
SWIDTH 500 0
DWIDTH 7 0
BBX 6 7 1 1
BITMAP
84
78
48
48
48
78
84
ENDCHAR
STARTCHAR Itilde
ENCODING 165
SWIDTH 333 0
DWIDTH 4 0
BBX 4 12 0 0
BITMAP
50
A0
00
E0
40
40
40
40
40
40
40
E0
ENDCHAR
STARTCHAR Lcommaaccent
ENCODING 166
SWIDTH 611 0
DWIDTH 7 0
BBX 6 13 0 -4
BITMAP
E0
40
40
40
40
40
40
44
FC
00
10
10
20
ENDCHAR
STARTCHAR section
ENCODING 167
SWIDTH 500 0
DWIDTH 6 0
BBX 4 12 1 -3
BITMAP
70
90
C0
60
B0
90
90
D0
60
30
90
E0
ENDCHAR
STARTCHAR dieresis
ENCODING 168
SWIDTH 333 0
DWIDTH 3 0
BBX 3 1 0 7
BITMAP
A0
ENDCHAR
STARTCHAR Scaron
ENCODING 169
SWIDTH 556 0
DWIDTH 7 0
BBX 6 12 0 0
BITMAP
28
10
00
74
8C
84
60
38
0C
84
CC
B8
ENDCHAR
STARTCHAR Emacron
ENCODING 170
SWIDTH 611 0
DWIDTH 8 0
BBX 7 11 0 0
BITMAP
78
00
FE
42
40
44
7C
44
40
42
FE
ENDCHAR
STARTCHAR Gcommaaccent
ENCODING 171
SWIDTH 722 0
DWIDTH 9 0
BBX 8 13 0 -4
BITMAP
3A
66
42
80
87
82
42
66
3C
00
08
08
10
ENDCHAR
STARTCHAR Tbar
ENCODING 172
SWIDTH 611 0
DWIDTH 7 0
BBX 7 9 0 0
BITMAP
FE
92
10
10
38
10
10
10
38
ENDCHAR
STARTCHAR hyphen
ENCODING 173
SWIDTH 333 0
DWIDTH 4 0
BBX 4 1 0 3
BITMAP
F0
ENDCHAR
STARTCHAR Zcaron
ENCODING 174
SWIDTH 611 0
DWIDTH 8 0
BBX 7 12 0 0
BITMAP
28
10
00
FE
86
0C
18
30
60
C0
82
FE
ENDCHAR
STARTCHAR macron
ENCODING 175
SWIDTH 333 0
DWIDTH 4 0
BBX 4 1 0 7
BITMAP
F0
ENDCHAR
STARTCHAR degree
ENCODING 176
SWIDTH 400 0
DWIDTH 5 0
BBX 4 4 0 5
BITMAP
60
90
90
60
ENDCHAR
STARTCHAR aogonek
ENCODING 177
SWIDTH 444 0
DWIDTH 6 0
BBX 5 9 1 -3
BITMAP
60
90
70
90
90
68
20
40
30
ENDCHAR
STARTCHAR ogonek
ENCODING 178
SWIDTH 333 0
DWIDTH 3 0
BBX 3 3 0 -3
BITMAP
40
80
60
ENDCHAR
STARTCHAR rcommaaccent
ENCODING 179
SWIDTH 333 0
DWIDTH 4 0
BBX 4 10 0 -4
BITMAP
B0
60
40
40
40
E0
00
40
40
80
ENDCHAR
STARTCHAR acute
ENCODING 180
SWIDTH 333 0
DWIDTH 4 0
BBX 2 2 1 7
BITMAP
40
80
ENDCHAR
STARTCHAR itilde
ENCODING 181
SWIDTH 278 0
DWIDTH 3 0
BBX 4 9 0 0
BITMAP
50
A0
00
C0
40
40
40
40
E0
ENDCHAR
STARTCHAR lcommaaccent
ENCODING 182
SWIDTH 278 0
DWIDTH 3 0
BBX 3 13 0 -4
BITMAP
C0
40
40
40
40
40
40
40
E0
00
40
40
80
ENDCHAR
STARTCHAR caron
ENCODING 183
SWIDTH 333 0
DWIDTH 3 0
BBX 3 2 0 7
BITMAP
A0
40
ENDCHAR
STARTCHAR cedilla
ENCODING 184
SWIDTH 333 0
DWIDTH 3 0
BBX 3 3 0 -3
BITMAP
40
20
E0
ENDCHAR
STARTCHAR scaron
ENCODING 185
SWIDTH 389 0
DWIDTH 6 0
BBX 4 9 1 0
BITMAP
50
20
00
70
90
C0
30
90
E0
ENDCHAR
STARTCHAR emacron
ENCODING 186
SWIDTH 444 0
DWIDTH 6 0
BBX 5 8 1 0
BITMAP
F0
00
60
90
F0
80
C8
70
ENDCHAR
STARTCHAR gcommaaccent
ENCODING 187
SWIDTH 500 0
DWIDTH 6 0
BBX 5 13 1 -3
BITMAP
10
20
30
00
78
90
90
E0
40
70
88
88
70
ENDCHAR
STARTCHAR tbar
ENCODING 188
SWIDTH 278 0
DWIDTH 4 0
BBX 4 7 0 0
BITMAP
40
F0
40
70
40
40
30
ENDCHAR
STARTCHAR Eng
ENCODING 189
SWIDTH 722 0
DWIDTH 9 0
BBX 9 12 0 -3
BITMAP
C380
6100
6100
5100
4900
4900
4500
4300
E100
0100
0100
0200
ENDCHAR
STARTCHAR zcaron
ENCODING 190
SWIDTH 444 0
DWIDTH 6 0
BBX 4 9 1 0
BITMAP
50
20
00
F0
90
20
40
90
F0
ENDCHAR
STARTCHAR eng
ENCODING 191
SWIDTH 500 0
DWIDTH 6 0
BBX 5 9 0 -3
BITMAP
B0
48
48
48
48
E8
08
08
10
ENDCHAR
STARTCHAR Amacron
ENCODING 192
SWIDTH 722 0
DWIDTH 9 0
BBX 9 11 0 0
BITMAP
1E00
0000
0800
0800
1400
1400
2200
3E00
2200
4100
E380
ENDCHAR
STARTCHAR Aacute
ENCODING 193
SWIDTH 722 0
DWIDTH 9 0
BBX 9 12 0 0
BITMAP
0400
0800
0000
0800
0800
1400
1400
2200
3E00
2200
4100
E380
ENDCHAR
STARTCHAR Acircumflex
ENCODING 194
SWIDTH 722 0
DWIDTH 9 0
BBX 9 12 0 0
BITMAP
0800
1400
0000
0800
0800
1400
1400
2200
3E00
2200
4100
E380
ENDCHAR
STARTCHAR Atilde
ENCODING 195
SWIDTH 722 0
DWIDTH 9 0
BBX 9 12 0 0
BITMAP
0A00
1400
0000
0800
0800
1400
1400
2200
3E00
2200
4100
E380
ENDCHAR
STARTCHAR Adieresis
ENCODING 196
SWIDTH 722 0
DWIDTH 9 0
BBX 9 11 0 0
BITMAP
1400
0000
0800
0800
1400
1400
2200
3E00
2200
4100
E380
ENDCHAR
STARTCHAR Aring
ENCODING 197
SWIDTH 722 0
DWIDTH 9 0
BBX 9 12 0 0
BITMAP
0800
1400
0800
0800
0800
1400
1400
2200
3E00
2200
4100
E380
ENDCHAR
STARTCHAR AE
ENCODING 198
SWIDTH 889 0
DWIDTH 11 0
BBX 10 9 0 0
BITMAP
3FC0
1840
2800
2880
4F80
7880
4800
8840
CFC0
ENDCHAR
STARTCHAR Iogonek
ENCODING 199
SWIDTH 333 0
DWIDTH 4 0
BBX 3 12 0 -3
BITMAP
E0
40
40
40
40
40
40
40
E0
40
80
60
ENDCHAR
STARTCHAR Ccaron
ENCODING 200
SWIDTH 667 0
DWIDTH 8 0
BBX 7 12 0 0
BITMAP
28
10
00
3A
66
42
80
80
80
42
66
3C
ENDCHAR
STARTCHAR Eacute
ENCODING 201
SWIDTH 611 0
DWIDTH 8 0
BBX 7 12 0 0
BITMAP
08
10
00
FE
42
40
44
7C
44
40
42
FE
ENDCHAR
STARTCHAR Eogonek
ENCODING 202
SWIDTH 611 0
DWIDTH 8 0
BBX 7 12 0 -3
BITMAP
FE
42
40
44
7C
44
40
42
FE
10
20
18
ENDCHAR
STARTCHAR Edieresis
ENCODING 203
SWIDTH 611 0
DWIDTH 8 0
BBX 7 11 0 0
BITMAP
28
00
FE
42
40
44
7C
44
40
42
FE
ENDCHAR
STARTCHAR Edotaccent
ENCODING 204
SWIDTH 611 0
DWIDTH 8 0
BBX 7 11 0 0
BITMAP
10
00
FE
42
40
44
7C
44
40
42
FE
ENDCHAR
STARTCHAR Iacute
ENCODING 205
SWIDTH 333 0
DWIDTH 4 0
BBX 3 12 0 0
BITMAP
20
40
00
E0
40
40
40
40
40
40
40
E0
ENDCHAR
STARTCHAR Icircumflex
ENCODING 206
SWIDTH 333 0
DWIDTH 4 0
BBX 3 12 0 0
BITMAP
40
A0
00
E0
40
40
40
40
40
40
40
E0
ENDCHAR
STARTCHAR Imacron
ENCODING 207
SWIDTH 333 0
DWIDTH 4 0
BBX 4 11 0 0
BITMAP
F0
00
E0
40
40
40
40
40
40
40
E0
ENDCHAR
STARTCHAR Dcroat
ENCODING 208
SWIDTH 722 0
DWIDTH 9 0
BBX 8 9 0 0
BITMAP
FC
46
42
41
E1
41
42
46
FC
ENDCHAR
STARTCHAR Ncommaaccent
ENCODING 209
SWIDTH 722 0
DWIDTH 9 0
BBX 9 13 0 -4
BITMAP
C380
6100
6100
5100
4900
4900
4500
4300
E100
0000
0800
0800
1000
ENDCHAR
STARTCHAR Omacron
ENCODING 210
SWIDTH 722 0
DWIDTH 9 0
BBX 8 11 0 0
BITMAP
3C
00
3C
66
42
81
81
81
42
66
3C
ENDCHAR
STARTCHAR Kcommaaccent
ENCODING 211
SWIDTH 722 0
DWIDTH 9 0
BBX 8 13 0 -4
BITMAP
EE
44
48
50
70
58
4C
46
E7
00
08
08
10
ENDCHAR
STARTCHAR Ocircumflex
ENCODING 212
SWIDTH 722 0
DWIDTH 9 0
BBX 8 12 0 0
BITMAP
10
28
00
3C
66
42
81
81
81
42
66
3C
ENDCHAR
STARTCHAR Otilde
ENCODING 213
SWIDTH 722 0
DWIDTH 9 0
BBX 8 12 0 0
BITMAP
14
28
00
3C
66
42
81
81
81
42
66
3C
ENDCHAR
STARTCHAR Odieresis
ENCODING 214
SWIDTH 722 0
DWIDTH 9 0
BBX 8 11 0 0
BITMAP
24
00
3C
66
42
81
81
81
42
66
3C
ENDCHAR
STARTCHAR multiply
ENCODING 215
SWIDTH 564 0
DWIDTH 7 0
BBX 5 5 1 1
BITMAP
88
50
20
50
88
ENDCHAR
STARTCHAR Oslash
ENCODING 216
SWIDTH 722 0
DWIDTH 9 0
BBX 9 10 0 0
BITMAP
0080
3D00
6600
4600
8900
8900
9100
6200
6600
BC00
ENDCHAR
STARTCHAR Uogonek
ENCODING 217
SWIDTH 722 0
DWIDTH 9 0
BBX 8 12 1 -3
BITMAP
E7
42
42
42
42
42
42
66
3C
08
10
0C
ENDCHAR
STARTCHAR Uacute
ENCODING 218
SWIDTH 722 0
DWIDTH 8 0
BBX 8 12 0 0
BITMAP
04
08
00
E7
42
42
42
42
42
42
66
3C
ENDCHAR
STARTCHAR Ucircumflex
ENCODING 219
SWIDTH 722 0
DWIDTH 8 0
BBX 8 12 0 0
BITMAP
10
28
00
E7
42
42
42
42
42
42
66
3C
ENDCHAR
STARTCHAR Udieresis
ENCODING 220
SWIDTH 722 0
DWIDTH 8 0
BBX 8 11 0 0
BITMAP
24
00
E7
42
42
42
42
42
42
66
3C
ENDCHAR
STARTCHAR Utilde
ENCODING 221
SWIDTH 722 0
DWIDTH 9 0
BBX 8 12 1 0
BITMAP
14
28
00
E7
42
42
42
42
42
42
66
3C
ENDCHAR
STARTCHAR Umacron
ENCODING 222
SWIDTH 722 0
DWIDTH 9 0
BBX 8 11 1 0
BITMAP
3C
00
E7
42
42
42
42
42
42
66
3C
ENDCHAR
STARTCHAR germandbls
ENCODING 223
SWIDTH 500 0
DWIDTH 6 0
BBX 6 9 0 0
BITMAP
30
48
48
50
70
48
44
44
D8
ENDCHAR
STARTCHAR amacron
ENCODING 224
SWIDTH 444 0
DWIDTH 6 0
BBX 5 8 1 0
BITMAP
F0
00
60
90
70
90
90
68
ENDCHAR
STARTCHAR aacute
ENCODING 225
SWIDTH 444 0
DWIDTH 6 0
BBX 5 9 1 0
BITMAP
10
20
00
60
90
70
90
90
68
ENDCHAR
STARTCHAR acircumflex
ENCODING 226
SWIDTH 444 0
DWIDTH 6 0
BBX 5 9 1 0
BITMAP
20
50
00
60
90
70
90
90
68
ENDCHAR
STARTCHAR atilde
ENCODING 227
SWIDTH 444 0
DWIDTH 6 0
BBX 5 9 1 0
BITMAP
50
A0
00
60
90
70
90
90
68
ENDCHAR
STARTCHAR adieresis
ENCODING 228
SWIDTH 444 0
DWIDTH 6 0
BBX 5 8 1 0
BITMAP
50
00
60
90
70
90
90
68
ENDCHAR
STARTCHAR aring
ENCODING 229
SWIDTH 444 0
DWIDTH 6 0
BBX 5 9 1 0
BITMAP
20
50
20
60
90
70
90
90
68
ENDCHAR
STARTCHAR ae
ENCODING 230
SWIDTH 667 0
DWIDTH 9 0
BBX 8 6 1 0
BITMAP
6C
92
7E
90
99
6E
ENDCHAR
STARTCHAR iogonek
ENCODING 231
SWIDTH 278 0
DWIDTH 3 0
BBX 3 12 0 -3
BITMAP
40
00
00
C0
40
40
40
40
E0
40
80
60
ENDCHAR
STARTCHAR ccaron
ENCODING 232
SWIDTH 444 0
DWIDTH 6 0
BBX 4 9 1 0
BITMAP
50
20
00
60
90
80
80
90
60
ENDCHAR
STARTCHAR eacute
ENCODING 233
SWIDTH 444 0
DWIDTH 6 0
BBX 5 9 1 0
BITMAP
20
40
00
60
90
F0
80
C8
70
ENDCHAR
STARTCHAR eogonek
ENCODING 234
SWIDTH 444 0
DWIDTH 6 0
BBX 5 9 1 -3
BITMAP
60
90
F0
80
C8
70
20
40
30
ENDCHAR
STARTCHAR edieresis
ENCODING 235
SWIDTH 444 0
DWIDTH 6 0
BBX 5 8 1 0
BITMAP
50
00
60
90
F0
80
C8
70
ENDCHAR
STARTCHAR edotaccent
ENCODING 236
SWIDTH 444 0
DWIDTH 6 0
BBX 5 8 1 0
BITMAP
20
00
60
90
F0
80
C8
70
ENDCHAR
STARTCHAR iacute
ENCODING 237
SWIDTH 278 0
DWIDTH 3 0
BBX 3 9 0 0
BITMAP
40
80
00
C0
40
40
40
40
E0
ENDCHAR
STARTCHAR icircumflex
ENCODING 238
SWIDTH 278 0
DWIDTH 3 0
BBX 3 9 0 0
BITMAP
40
A0
00
C0
40
40
40
40
E0
ENDCHAR
STARTCHAR imacron
ENCODING 239
SWIDTH 278 0
DWIDTH 3 0
BBX 4 8 -1 0
BITMAP
F0
00
60
20
20
20
20
70
ENDCHAR
STARTCHAR dcroat
ENCODING 240
SWIDTH 500 0
DWIDTH 6 0
BBX 5 9 1 0
BITMAP
30
10
38
70
90
90
90
90
68
ENDCHAR
STARTCHAR ncommaaccent
ENCODING 241
SWIDTH 500 0
DWIDTH 6 0
BBX 6 10 0 -4
BITMAP
B0
48
48
48
48
EC
00
10
10
20
ENDCHAR
STARTCHAR omacron
ENCODING 242
SWIDTH 500 0
DWIDTH 6 0
BBX 4 8 1 0
BITMAP
F0
00
60
90
90
90
90
60
ENDCHAR
STARTCHAR kcommaaccent
ENCODING 243
SWIDTH 500 0
DWIDTH 6 0
BBX 6 13 0 -4
BITMAP
C0
40
40
48
50
60
50
48
4C
00
10
10
20
ENDCHAR
STARTCHAR ocircumflex
ENCODING 244
SWIDTH 500 0
DWIDTH 6 0
BBX 4 9 1 0
BITMAP
20
50
00
60
90
90
90
90
60
ENDCHAR
STARTCHAR otilde
ENCODING 245
SWIDTH 500 0
DWIDTH 6 0
BBX 4 9 1 0
BITMAP
50
A0
00
60
90
90
90
90
60
ENDCHAR
STARTCHAR odieresis
ENCODING 246
SWIDTH 500 0
DWIDTH 6 0
BBX 4 8 1 0
BITMAP
A0
00
60
90
90
90
90
60
ENDCHAR
STARTCHAR divide
ENCODING 247
SWIDTH 564 0
DWIDTH 7 0
BBX 5 5 1 1
BITMAP
20
00
F8
00
20
ENDCHAR
STARTCHAR oslash
ENCODING 248
SWIDTH 500 0
DWIDTH 6 0
BBX 6 7 0 -1
BITMAP
34
48
48
48
48
70
80
ENDCHAR
STARTCHAR uogonek
ENCODING 249
SWIDTH 500 0
DWIDTH 6 0
BBX 6 9 0 -3
BITMAP
D8
48
48
48
48
34
10
20
18
ENDCHAR
STARTCHAR uacute
ENCODING 250
SWIDTH 500 0
DWIDTH 6 0
BBX 6 9 0 0
BITMAP
10
20
00
D8
48
48
48
48
34
ENDCHAR
STARTCHAR ucircumflex
ENCODING 251
SWIDTH 500 0
DWIDTH 6 0
BBX 6 9 0 0
BITMAP
20
50
00
D8
48
48
48
48
34
ENDCHAR
STARTCHAR udieresis
ENCODING 252
SWIDTH 500 0
DWIDTH 6 0
BBX 6 8 0 0
BITMAP
50
00
D8
48
48
48
48
34
ENDCHAR
STARTCHAR utilde
ENCODING 253
SWIDTH 500 0
DWIDTH 6 0
BBX 6 9 0 0
BITMAP
28
50
00
D8
48
48
48
48
34
ENDCHAR
STARTCHAR umacron
ENCODING 254
SWIDTH 500 0
DWIDTH 6 0
BBX 6 8 0 0
BITMAP
78
00
D8
48
48
48
48
34
ENDCHAR
STARTCHAR dotaccent
ENCODING 255
SWIDTH 333 0
DWIDTH 3 0
BBX 1 1 1 7
BITMAP
80
ENDCHAR
ENDFONT
