/* XPM */
static char * marker_xpm[] = {
"26 32 3 1",
" 	c None",
".	c #000000",
"+	c #FF0000",
"           ....           ",
"           .++.           ",
"           .++.           ",
"           .++.           ",
"           .++.           ",
"           .++.           ",
"           .++.           ",
"           .++.           ",
"           .++.           ",
"    ..     .++.     ..    ",
"    .+.    .++.    .+.    ",
"    .++.   .++.   .++.    ",
"    .+++.  .++.  .+++.    ",
".....++++. .++. .++++.....",
".+++++++++..++..+++++++++.",
".++++++++++.++.++++++++++.",
".+++++++++..++..+++++++++.",
".....++++. .++. .++++.....",
"    .+++.  .++.  .+++.    ",
"    .++.   .++.   .++.    ",
"    .+.    .++.    .+.    ",
"    ..     .++.     ..    ",
"           .++.           ",
"           .++.           ",
"           .++.           ",
"           .++.           ",
"           .++.           ",
"           .++.           ",
"           .++.           ",
"           .++.           ",
"           .++.           ",
"           ....           "};
