STARTFONT 2.1
COMMENT AUTOMATICALLY GENERATED FILE. DO NOT EDIT!
COMMENT Generated with 'ucs2any 8x13O.bdf /usr/local/share/fonts/X11/util/map-ISO8859-2 ISO8859-2'
COMMENT from an ISO10646-1 encoded source BDF font.
COMMENT ucs2any by Ben Collver <collver1@attbi.com>, 2003, based on
COMMENT ucs2any.pl by Markus Kuhn <http://www.cl.cam.ac.uk/~mgk25/>, 2000.
COMMENT "$ucs-fonts: 8x13O.bdf,v 1.8 2006-01-05 20:31:45+00 mgk25 Rel $"
COMMENT "Send bug reports to Markus Kuhn <http://www.cl.cam.ac.uk/~mgk25/>"
FONT -Misc-Fixed-Medium-O-Normal--13-120-75-75-C-80-ISO8859-2
SIZE 13 78 78
FONTBOUNDINGBOX 8 13 0 -2
STARTPROPERTIES 21
FONTNAME_REGISTRY ""
FOUNDRY "Misc"
FAMILY_NAME "Fixed"
WEIGHT_NAME "Medium"
SLANT "O"
SETWIDTH_NAME "Normal"
ADD_STYLE_NAME ""
PIXEL_SIZE 13
POINT_SIZE 120
RESOLUTION_X 75
RESOLUTION_Y 75
SPACING "C"
AVERAGE_WIDTH 80
CHARSET_REGISTRY "ISO8859"
CHARSET_ENCODING "2"
DEFAULT_CHAR 0
FONT_DESCENT 2
FONT_ASCENT 11
COPYRIGHT "Public domain font.  Share and enjoy."
CAP_HEIGHT 9
X_HEIGHT 6
ENDPROPERTIES
CHARS 192
STARTCHAR defaultchar
ENCODING 0
SWIDTH 568 0
DWIDTH 8 0
BBX 8 13 0 -2
BITMAP
00
00
55
00
41
00
41
00
82
00
AA
00
00
ENDCHAR
STARTCHAR space
ENCODING 32
SWIDTH 568 0
DWIDTH 8 0
BBX 8 13 0 -2
BITMAP
00
00
00
00
00
00
00
00
00
00
00
00
00
ENDCHAR
STARTCHAR exclam
ENCODING 33
SWIDTH 568 0
DWIDTH 8 0
BBX 8 13 0 -2
BITMAP
00
00
08
08
08
08
10
10
10
00
10
00
00
ENDCHAR
STARTCHAR quotedbl
ENCODING 34
SWIDTH 568 0
DWIDTH 8 0
BBX 8 13 0 -2
BITMAP
00
00
24
24
24
00
00
00
00
00
00
00
00
ENDCHAR
STARTCHAR numbersign
ENCODING 35
SWIDTH 568 0
DWIDTH 8 0
BBX 8 13 0 -2
BITMAP
00
00
00
24
24
7E
24
FC
48
48
00
00
00
ENDCHAR
STARTCHAR dollar
ENCODING 36
SWIDTH 568 0
DWIDTH 8 0
BBX 8 13 0 -2
BITMAP
00
00
08
1E
28
28
1C
14
14
78
10
00
00
ENDCHAR
STARTCHAR percent
ENCODING 37
SWIDTH 568 0
DWIDTH 8 0
BBX 8 13 0 -2
BITMAP
00
00
22
52
24
08
10
20
48
94
88
00
00
ENDCHAR
STARTCHAR ampersand
ENCODING 38
SWIDTH 568 0
DWIDTH 8 0
BBX 8 13 0 -2
BITMAP
00
00
00
0C
12
14
18
2A
44
4C
32
00
00
ENDCHAR
STARTCHAR quotesingle
ENCODING 39
SWIDTH 568 0
DWIDTH 8 0
BBX 8 13 0 -2
BITMAP
00
00
10
10
10
00
00
00
00
00
00
00
00
ENDCHAR
STARTCHAR parenleft
ENCODING 40
SWIDTH 568 0
DWIDTH 8 0
BBX 8 13 0 -2
BITMAP
00
00
04
08
10
10
20
20
10
10
08
00
00
ENDCHAR
STARTCHAR parenright
ENCODING 41
SWIDTH 568 0
DWIDTH 8 0
BBX 8 13 0 -2
BITMAP
00
00
10
08
08
04
04
08
08
10
20
00
00
ENDCHAR
STARTCHAR asterisk
ENCODING 42
SWIDTH 568 0
DWIDTH 8 0
BBX 8 13 0 -2
BITMAP
00
00
00
00
24
18
7E
30
48
00
00
00
00
ENDCHAR
STARTCHAR plus
ENCODING 43
SWIDTH 568 0
DWIDTH 8 0
BBX 8 13 0 -2
BITMAP
00
00
00
00
10
10
7C
20
20
00
00
00
00
ENDCHAR
STARTCHAR comma
ENCODING 44
SWIDTH 568 0
DWIDTH 8 0
BBX 8 13 0 -2
BITMAP
00
00
00
00
00
00
00
00
00
1C
18
20
00
ENDCHAR
STARTCHAR hyphen
ENCODING 45
SWIDTH 568 0
DWIDTH 8 0
BBX 8 13 0 -2
BITMAP
00
00
00
00
00
00
7C
00
00
00
00
00
00
ENDCHAR
STARTCHAR period
ENCODING 46
SWIDTH 568 0
DWIDTH 8 0
BBX 8 13 0 -2
BITMAP
00
00
00
00
00
00
00
00
00
10
38
10
00
ENDCHAR
STARTCHAR slash
ENCODING 47
SWIDTH 568 0
DWIDTH 8 0
BBX 8 13 0 -2
BITMAP
00
00
01
01
02
04
18
20
40
80
80
00
00
ENDCHAR
STARTCHAR zero
ENCODING 48
SWIDTH 568 0
DWIDTH 8 0
BBX 8 13 0 -2
BITMAP
00
00
18
24
42
42
42
84
84
48
30
00
00
ENDCHAR
STARTCHAR one
ENCODING 49
SWIDTH 568 0
DWIDTH 8 0
BBX 8 13 0 -2
BITMAP
00
00
08
18
28
08
08
10
10
10
7C
00
00
ENDCHAR
STARTCHAR two
ENCODING 50
SWIDTH 568 0
DWIDTH 8 0
BBX 8 13 0 -2
BITMAP
00
00
3C
42
42
02
0C
30
40
80
FC
00
00
ENDCHAR
STARTCHAR three
ENCODING 51
SWIDTH 568 0
DWIDTH 8 0
BBX 8 13 0 -2
BITMAP
00
00
7E
02
04
08
18
04
04
84
78
00
00
ENDCHAR
STARTCHAR four
ENCODING 52
SWIDTH 568 0
DWIDTH 8 0
BBX 8 13 0 -2
BITMAP
00
00
02
06
0A
12
24
44
7E
08
08
00
00
ENDCHAR
STARTCHAR five
ENCODING 53
SWIDTH 568 0
DWIDTH 8 0
BBX 8 13 0 -2
BITMAP
00
00
3E
20
20
5C
62
02
04
84
78
00
00
ENDCHAR
STARTCHAR six
ENCODING 54
SWIDTH 568 0
DWIDTH 8 0
BBX 8 13 0 -2
BITMAP
00
00
1C
22
40
40
78
84
84
84
78
00
00
ENDCHAR
STARTCHAR seven
ENCODING 55
SWIDTH 568 0
DWIDTH 8 0
BBX 8 13 0 -2
BITMAP
00
00
7E
02
04
08
10
20
20
40
40
00
00
ENDCHAR
STARTCHAR eight
ENCODING 56
SWIDTH 568 0
DWIDTH 8 0
BBX 8 13 0 -2
BITMAP
00
00
3C
42
42
42
7C
84
84
84
78
00
00
ENDCHAR
STARTCHAR nine
ENCODING 57
SWIDTH 568 0
DWIDTH 8 0
BBX 8 13 0 -2
BITMAP
00
00
3C
42
42
46
3A
04
04
08
70
00
00
ENDCHAR
STARTCHAR colon
ENCODING 58
SWIDTH 568 0
DWIDTH 8 0
BBX 8 13 0 -2
BITMAP
00
00
00
00
08
1C
08
00
00
10
38
10
00
ENDCHAR
STARTCHAR semicolon
ENCODING 59
SWIDTH 568 0
DWIDTH 8 0
BBX 8 13 0 -2
BITMAP
00
00
00
00
08
1C
08
00
00
38
30
40
00
ENDCHAR
STARTCHAR less
ENCODING 60
SWIDTH 568 0
DWIDTH 8 0
BBX 8 13 0 -2
BITMAP
00
00
04
08
10
20
40
40
20
10
08
00
00
ENDCHAR
STARTCHAR equal
ENCODING 61
SWIDTH 568 0
DWIDTH 8 0
BBX 8 13 0 -2
BITMAP
00
00
00
00
00
7E
00
00
FC
00
00
00
00
ENDCHAR
STARTCHAR greater
ENCODING 62
SWIDTH 568 0
DWIDTH 8 0
BBX 8 13 0 -2
BITMAP
00
00
20
10
08
04
04
08
10
20
40
00
00
ENDCHAR
STARTCHAR question
ENCODING 63
SWIDTH 568 0
DWIDTH 8 0
BBX 8 13 0 -2
BITMAP
00
00
1C
22
42
04
08
10
10
00
10
00
00
ENDCHAR
STARTCHAR at
ENCODING 64
SWIDTH 568 0
DWIDTH 8 0
BBX 8 13 0 -2
BITMAP
00
00
3C
42
42
4E
52
A6
98
80
78
00
00
ENDCHAR
STARTCHAR A
ENCODING 65
SWIDTH 568 0
DWIDTH 8 0
BBX 8 13 0 -2
BITMAP
00
00
18
24
42
42
42
FC
84
84
84
00
00
ENDCHAR
STARTCHAR B
ENCODING 66
SWIDTH 568 0
DWIDTH 8 0
BBX 8 13 0 -2
BITMAP
00
00
78
44
42
44
78
88
84
88
F0
00
00
ENDCHAR
STARTCHAR C
ENCODING 67
SWIDTH 568 0
DWIDTH 8 0
BBX 8 13 0 -2
BITMAP
00
00
3C
42
40
40
40
80
80
84
78
00
00
ENDCHAR
STARTCHAR D
ENCODING 68
SWIDTH 568 0
DWIDTH 8 0
BBX 8 13 0 -2
BITMAP
00
00
78
44
42
42
42
84
84
88
F0
00
00
ENDCHAR
STARTCHAR E
ENCODING 69
SWIDTH 568 0
DWIDTH 8 0
BBX 8 13 0 -2
BITMAP
00
00
7E
40
40
40
78
80
80
80
FC
00
00
ENDCHAR
STARTCHAR F
ENCODING 70
SWIDTH 568 0
DWIDTH 8 0
BBX 8 13 0 -2
BITMAP
00
00
7E
40
40
40
78
80
80
80
80
00
00
ENDCHAR
STARTCHAR G
ENCODING 71
SWIDTH 568 0
DWIDTH 8 0
BBX 8 13 0 -2
BITMAP
00
00
3C
42
40
40
40
9C
84
8C
74
00
00
ENDCHAR
STARTCHAR H
ENCODING 72
SWIDTH 568 0
DWIDTH 8 0
BBX 8 13 0 -2
BITMAP
00
00
42
42
42
42
7C
84
84
84
84
00
00
ENDCHAR
STARTCHAR I
ENCODING 73
SWIDTH 568 0
DWIDTH 8 0
BBX 8 13 0 -2
BITMAP
00
00
3E
08
08
08
08
10
10
10
7C
00
00
ENDCHAR
STARTCHAR J
ENCODING 74
SWIDTH 568 0
DWIDTH 8 0
BBX 8 13 0 -2
BITMAP
00
00
1E
04
04
04
04
08
08
88
70
00
00
ENDCHAR
STARTCHAR K
ENCODING 75
SWIDTH 568 0
DWIDTH 8 0
BBX 8 13 0 -2
BITMAP
00
00
42
44
48
50
60
A0
90
88
84
00
00
ENDCHAR
STARTCHAR L
ENCODING 76
SWIDTH 568 0
DWIDTH 8 0
BBX 8 13 0 -2
BITMAP
00
00
20
20
20
20
20
40
40
40
7E
00
00
ENDCHAR
STARTCHAR M
ENCODING 77
SWIDTH 568 0
DWIDTH 8 0
BBX 8 13 0 -2
BITMAP
00
00
41
41
63
55
49
82
82
82
82
00
00
ENDCHAR
STARTCHAR N
ENCODING 78
SWIDTH 568 0
DWIDTH 8 0
BBX 8 13 0 -2
BITMAP
00
00
42
42
62
52
4A
8C
84
84
84
00
00
ENDCHAR
STARTCHAR O
ENCODING 79
SWIDTH 568 0
DWIDTH 8 0
BBX 8 13 0 -2
BITMAP
00
00
3C
42
42
42
42
84
84
84
78
00
00
ENDCHAR
STARTCHAR P
ENCODING 80
SWIDTH 568 0
DWIDTH 8 0
BBX 8 13 0 -2
BITMAP
00
00
7C
42
42
42
7C
80
80
80
80
00
00
ENDCHAR
STARTCHAR Q
ENCODING 81
SWIDTH 568 0
DWIDTH 8 0
BBX 8 13 0 -2
BITMAP
00
00
3C
42
42
42
84
84
A4
94
78
04
00
ENDCHAR
STARTCHAR R
ENCODING 82
SWIDTH 568 0
DWIDTH 8 0
BBX 8 13 0 -2
BITMAP
00
00
7C
42
42
42
7C
A0
90
88
84
00
00
ENDCHAR
STARTCHAR S
ENCODING 83
SWIDTH 568 0
DWIDTH 8 0
BBX 8 13 0 -2
BITMAP
00
00
3C
42
40
40
38
04
04
84
78
00
00
ENDCHAR
STARTCHAR T
ENCODING 84
SWIDTH 568 0
DWIDTH 8 0
BBX 8 13 0 -2
BITMAP
00
00
FE
10
10
10
10
20
20
20
20
00
00
ENDCHAR
STARTCHAR U
ENCODING 85
SWIDTH 568 0
DWIDTH 8 0
BBX 8 13 0 -2
BITMAP
00
00
42
42
42
42
84
84
84
84
78
00
00
ENDCHAR
STARTCHAR V
ENCODING 86
SWIDTH 568 0
DWIDTH 8 0
BBX 8 13 0 -2
BITMAP
00
00
82
82
84
44
48
48
50
50
20
00
00
ENDCHAR
STARTCHAR W
ENCODING 87
SWIDTH 568 0
DWIDTH 8 0
BBX 8 13 0 -2
BITMAP
00
00
41
41
41
41
49
92
92
AA
44
00
00
ENDCHAR
STARTCHAR X
ENCODING 88
SWIDTH 568 0
DWIDTH 8 0
BBX 8 13 0 -2
BITMAP
00
00
41
41
22
14
18
28
44
82
82
00
00
ENDCHAR
STARTCHAR Y
ENCODING 89
SWIDTH 568 0
DWIDTH 8 0
BBX 8 13 0 -2
BITMAP
00
00
82
82
44
28
10
10
20
20
20
00
00
ENDCHAR
STARTCHAR Z
ENCODING 90
SWIDTH 568 0
DWIDTH 8 0
BBX 8 13 0 -2
BITMAP
00
00
7E
02
04
08
10
20
40
80
FC
00
00
ENDCHAR
STARTCHAR bracketleft
ENCODING 91
SWIDTH 568 0
DWIDTH 8 0
BBX 8 13 0 -2
BITMAP
00
00
3C
20
20
20
20
40
40
40
78
00
00
ENDCHAR
STARTCHAR backslash
ENCODING 92
SWIDTH 568 0
DWIDTH 8 0
BBX 8 13 0 -2
BITMAP
00
00
40
40
20
10
08
08
04
02
02
00
00
ENDCHAR
STARTCHAR bracketright
ENCODING 93
SWIDTH 568 0
DWIDTH 8 0
BBX 8 13 0 -2
BITMAP
00
00
3C
04
04
04
04
08
08
08
78
00
00
ENDCHAR
STARTCHAR asciicircum
ENCODING 94
SWIDTH 568 0
DWIDTH 8 0
BBX 8 13 0 -2
BITMAP
00
00
10
28
44
00
00
00
00
00
00
00
00
ENDCHAR
STARTCHAR underscore
ENCODING 95
SWIDTH 568 0
DWIDTH 8 0
BBX 8 13 0 -2
BITMAP
00
00
00
00
00
00
00
00
00
00
00
FE
00
ENDCHAR
STARTCHAR grave
ENCODING 96
SWIDTH 568 0
DWIDTH 8 0
BBX 8 13 0 -2
BITMAP
00
10
08
00
00
00
00
00
00
00
00
00
00
ENDCHAR
STARTCHAR a
ENCODING 97
SWIDTH 568 0
DWIDTH 8 0
BBX 8 13 0 -2
BITMAP
00
00
00
00
00
3C
02
7C
84
8C
74
00
00
ENDCHAR
STARTCHAR b
ENCODING 98
SWIDTH 568 0
DWIDTH 8 0
BBX 8 13 0 -2
BITMAP
00
00
40
40
40
5C
62
42
84
C4
B8
00
00
ENDCHAR
STARTCHAR c
ENCODING 99
SWIDTH 568 0
DWIDTH 8 0
BBX 8 13 0 -2
BITMAP
00
00
00
00
00
3C
42
80
80
84
78
00
00
ENDCHAR
STARTCHAR d
ENCODING 100
SWIDTH 568 0
DWIDTH 8 0
BBX 8 13 0 -2
BITMAP
00
00
02
02
02
3A
44
84
84
8C
74
00
00
ENDCHAR
STARTCHAR e
ENCODING 101
SWIDTH 568 0
DWIDTH 8 0
BBX 8 13 0 -2
BITMAP
00
00
00
00
00
3C
42
7C
80
84
78
00
00
ENDCHAR
STARTCHAR f
ENCODING 102
SWIDTH 568 0
DWIDTH 8 0
BBX 8 13 0 -2
BITMAP
00
00
1C
22
20
20
7C
20
40
40
40
00
00
ENDCHAR
STARTCHAR g
ENCODING 103
SWIDTH 568 0
DWIDTH 8 0
BBX 8 13 0 -2
BITMAP
00
00
00
00
00
3A
44
88
70
80
78
84
78
ENDCHAR
STARTCHAR h
ENCODING 104
SWIDTH 568 0
DWIDTH 8 0
BBX 8 13 0 -2
BITMAP
00
00
20
20
40
5C
62
42
84
84
84
00
00
ENDCHAR
STARTCHAR i
ENCODING 105
SWIDTH 568 0
DWIDTH 8 0
BBX 8 13 0 -2
BITMAP
00
00
00
08
00
18
08
08
10
10
7C
00
00
ENDCHAR
STARTCHAR j
ENCODING 106
SWIDTH 568 0
DWIDTH 8 0
BBX 8 13 0 -2
BITMAP
00
00
00
02
00
06
02
02
04
04
44
44
38
ENDCHAR
STARTCHAR k
ENCODING 107
SWIDTH 568 0
DWIDTH 8 0
BBX 8 13 0 -2
BITMAP
00
00
20
20
20
22
2C
30
48
44
42
00
00
ENDCHAR
STARTCHAR l
ENCODING 108
SWIDTH 568 0
DWIDTH 8 0
BBX 8 13 0 -2
BITMAP
00
00
18
08
08
08
08
10
10
10
7C
00
00
ENDCHAR
STARTCHAR m
ENCODING 109
SWIDTH 568 0
DWIDTH 8 0
BBX 8 13 0 -2
BITMAP
00
00
00
00
00
76
49
49
92
92
82
00
00
ENDCHAR
STARTCHAR n
ENCODING 110
SWIDTH 568 0
DWIDTH 8 0
BBX 8 13 0 -2
BITMAP
00
00
00
00
00
5C
62
42
84
84
84
00
00
ENDCHAR
STARTCHAR o
ENCODING 111
SWIDTH 568 0
DWIDTH 8 0
BBX 8 13 0 -2
BITMAP
00
00
00
00
00
3C
42
42
84
84
78
00
00
ENDCHAR
STARTCHAR p
ENCODING 112
SWIDTH 568 0
DWIDTH 8 0
BBX 8 13 0 -2
BITMAP
00
00
00
00
00
2E
31
21
62
5C
40
80
80
ENDCHAR
STARTCHAR q
ENCODING 113
SWIDTH 568 0
DWIDTH 8 0
BBX 8 13 0 -2
BITMAP
00
00
00
00
00
3A
46
84
8C
74
04
08
08
ENDCHAR
STARTCHAR r
ENCODING 114
SWIDTH 568 0
DWIDTH 8 0
BBX 8 13 0 -2
BITMAP
00
00
00
00
00
5C
22
20
40
40
40
00
00
ENDCHAR
STARTCHAR s
ENCODING 115
SWIDTH 568 0
DWIDTH 8 0
BBX 8 13 0 -2
BITMAP
00
00
00
00
00
3C
42
20
18
84
78
00
00
ENDCHAR
STARTCHAR t
ENCODING 116
SWIDTH 568 0
DWIDTH 8 0
BBX 8 13 0 -2
BITMAP
00
00
00
20
20
7C
20
40
40
44
38
00
00
ENDCHAR
STARTCHAR u
ENCODING 117
SWIDTH 568 0
DWIDTH 8 0
BBX 8 13 0 -2
BITMAP
00
00
00
00
00
22
22
22
44
44
3A
00
00
ENDCHAR
STARTCHAR v
ENCODING 118
SWIDTH 568 0
DWIDTH 8 0
BBX 8 13 0 -2
BITMAP
00
00
00
00
00
44
44
48
50
50
20
00
00
ENDCHAR
STARTCHAR w
ENCODING 119
SWIDTH 568 0
DWIDTH 8 0
BBX 8 13 0 -2
BITMAP
00
00
00
00
00
41
41
92
92
AA
44
00
00
ENDCHAR
STARTCHAR x
ENCODING 120
SWIDTH 568 0
DWIDTH 8 0
BBX 8 13 0 -2
BITMAP
00
00
00
00
00
42
24
18
30
48
84
00
00
ENDCHAR
STARTCHAR y
ENCODING 121
SWIDTH 568 0
DWIDTH 8 0
BBX 8 13 0 -2
BITMAP
00
00
00
00
00
42
42
84
8C
74
04
84
78
ENDCHAR
STARTCHAR z
ENCODING 122
SWIDTH 568 0
DWIDTH 8 0
BBX 8 13 0 -2
BITMAP
00
00
00
00
00
7E
04
18
20
40
FC
00
00
ENDCHAR
STARTCHAR braceleft
ENCODING 123
SWIDTH 568 0
DWIDTH 8 0
BBX 8 13 0 -2
BITMAP
00
00
1C
20
20
10
60
20
40
40
38
00
00
ENDCHAR
STARTCHAR bar
ENCODING 124
SWIDTH 568 0
DWIDTH 8 0
BBX 8 13 0 -2
BITMAP
00
00
08
08
08
08
08
10
10
10
10
00
00
ENDCHAR
STARTCHAR braceright
ENCODING 125
SWIDTH 568 0
DWIDTH 8 0
BBX 8 13 0 -2
BITMAP
00
00
38
04
04
08
0C
10
08
08
70
00
00
ENDCHAR
STARTCHAR asciitilde
ENCODING 126
SWIDTH 568 0
DWIDTH 8 0
BBX 8 13 0 -2
BITMAP
00
00
24
54
48
00
00
00
00
00
00
00
00
ENDCHAR
STARTCHAR space
ENCODING 160
SWIDTH 568 0
DWIDTH 8 0
BBX 8 13 0 -2
BITMAP
00
00
00
00
00
00
00
00
00
00
00
00
00
ENDCHAR
STARTCHAR Aogonek
ENCODING 161
SWIDTH 568 0
DWIDTH 8 0
BBX 8 13 0 -2
BITMAP
00
00
18
24
42
42
42
7C
84
84
84
08
06
ENDCHAR
STARTCHAR breve
ENCODING 162
SWIDTH 568 0
DWIDTH 8 0
BBX 8 13 0 -2
BITMAP
00
42
3C
00
00
00
00
00
00
00
00
00
00
ENDCHAR
STARTCHAR Lslash
ENCODING 163
SWIDTH 568 0
DWIDTH 8 0
BBX 8 13 0 -2
BITMAP
00
00
20
20
20
20
30
C0
40
40
7E
00
00
ENDCHAR
STARTCHAR currency
ENCODING 164
SWIDTH 568 0
DWIDTH 8 0
BBX 8 13 0 -2
BITMAP
00
00
00
00
42
3C
24
48
78
84
00
00
00
ENDCHAR
STARTCHAR Lcaron
ENCODING 165
SWIDTH 568 0
DWIDTH 8 0
BBX 8 13 0 -2
BITMAP
24
18
00
20
20
20
20
40
40
40
7E
00
00
ENDCHAR
STARTCHAR Sacute
ENCODING 166
SWIDTH 568 0
DWIDTH 8 0
BBX 8 13 0 -2
BITMAP
00
08
10
00
3C
42
40
38
04
84
78
00
00
ENDCHAR
STARTCHAR section
ENCODING 167
SWIDTH 568 0
DWIDTH 8 0
BBX 8 13 0 -2
BITMAP
00
18
24
20
18
24
48
30
08
48
30
00
00
ENDCHAR
STARTCHAR dieresis
ENCODING 168
SWIDTH 568 0
DWIDTH 8 0
BBX 8 13 0 -2
BITMAP
00
24
24
00
00
00
00
00
00
00
00
00
00
ENDCHAR
STARTCHAR Scaron
ENCODING 169
SWIDTH 568 0
DWIDTH 8 0
BBX 8 13 0 -2
BITMAP
00
24
18
00
3C
42
40
38
04
84
78
00
00
ENDCHAR
STARTCHAR Scedilla
ENCODING 170
SWIDTH 568 0
DWIDTH 8 0
BBX 8 13 0 -2
BITMAP
00
00
3C
42
40
40
38
04
04
84
78
10
20
ENDCHAR
STARTCHAR Tcaron
ENCODING 171
SWIDTH 568 0
DWIDTH 8 0
BBX 8 13 0 -2
BITMAP
00
28
10
00
FE
10
10
20
20
20
20
00
00
ENDCHAR
STARTCHAR Zacute
ENCODING 172
SWIDTH 568 0
DWIDTH 8 0
BBX 8 13 0 -2
BITMAP
00
08
10
00
7E
04
08
30
40
80
FC
00
00
ENDCHAR
STARTCHAR hyphen
ENCODING 173
SWIDTH 568 0
DWIDTH 8 0
BBX 8 13 0 -2
BITMAP
00
00
00
00
00
00
3C
00
00
00
00
00
00
ENDCHAR
STARTCHAR Zcaron
ENCODING 174
SWIDTH 568 0
DWIDTH 8 0
BBX 8 13 0 -2
BITMAP
00
24
18
00
7E
04
08
30
40
80
FC
00
00
ENDCHAR
STARTCHAR Zdotaccent
ENCODING 175
SWIDTH 568 0
DWIDTH 8 0
BBX 8 13 0 -2
BITMAP
00
18
00
7E
02
04
18
20
40
80
FC
00
00
ENDCHAR
STARTCHAR degree
ENCODING 176
SWIDTH 568 0
DWIDTH 8 0
BBX 8 13 0 -2
BITMAP
00
00
18
24
24
18
00
00
00
00
00
00
00
ENDCHAR
STARTCHAR aogonek
ENCODING 177
SWIDTH 568 0
DWIDTH 8 0
BBX 8 13 0 -2
BITMAP
00
00
00
00
00
3C
02
7C
84
8C
74
08
06
ENDCHAR
STARTCHAR ogonek
ENCODING 178
SWIDTH 568 0
DWIDTH 8 0
BBX 8 13 0 -2
BITMAP
00
00
00
00
00
00
00
00
00
00
00
20
38
ENDCHAR
STARTCHAR lslash
ENCODING 179
SWIDTH 568 0
DWIDTH 8 0
BBX 8 13 0 -2
BITMAP
00
18
08
08
08
0C
30
10
10
10
7C
00
00
ENDCHAR
STARTCHAR acute
ENCODING 180
SWIDTH 568 0
DWIDTH 8 0
BBX 8 13 0 -2
BITMAP
00
08
10
00
00
00
00
00
00
00
00
00
00
ENDCHAR
STARTCHAR lcaron
ENCODING 181
SWIDTH 568 0
DWIDTH 8 0
BBX 8 13 0 -2
BITMAP
24
18
00
18
08
08
08
10
10
10
7C
00
00
ENDCHAR
STARTCHAR sacute
ENCODING 182
SWIDTH 568 0
DWIDTH 8 0
BBX 8 13 0 -2
BITMAP
00
00
08
10
00
3C
42
30
08
84
78
00
00
ENDCHAR
STARTCHAR caron
ENCODING 183
SWIDTH 568 0
DWIDTH 8 0
BBX 8 13 0 -2
BITMAP
00
24
18
00
00
00
00
00
00
00
00
00
00
ENDCHAR
STARTCHAR cedilla
ENCODING 184
SWIDTH 568 0
DWIDTH 8 0
BBX 8 13 0 -2
BITMAP
00
00
00
00
00
00
00
00
00
00
00
08
18
ENDCHAR
STARTCHAR scaron
ENCODING 185
SWIDTH 568 0
DWIDTH 8 0
BBX 8 13 0 -2
BITMAP
00
00
24
18
00
3C
42
30
08
84
78
00
00
ENDCHAR
STARTCHAR scedilla
ENCODING 186
SWIDTH 568 0
DWIDTH 8 0
BBX 8 13 0 -2
BITMAP
00
00
00
00
00
3C
42
30
08
84
78
10
20
ENDCHAR
STARTCHAR tcaron
ENCODING 187
SWIDTH 568 0
DWIDTH 8 0
BBX 8 13 0 -2
BITMAP
00
48
30
00
20
20
7C
20
40
44
38
00
00
ENDCHAR
STARTCHAR zacute
ENCODING 188
SWIDTH 568 0
DWIDTH 8 0
BBX 8 13 0 -2
BITMAP
00
00
08
10
00
7E
04
18
20
40
FC
00
00
ENDCHAR
STARTCHAR hungarumlaut
ENCODING 189
SWIDTH 568 0
DWIDTH 8 0
BBX 8 13 0 -2
BITMAP
00
22
44
00
00
00
00
00
00
00
00
00
00
ENDCHAR
STARTCHAR zcaron
ENCODING 190
SWIDTH 568 0
DWIDTH 8 0
BBX 8 13 0 -2
BITMAP
00
00
24
18
00
7E
04
18
20
40
FC
00
00
ENDCHAR
STARTCHAR zdotaccent
ENCODING 191
SWIDTH 568 0
DWIDTH 8 0
BBX 8 13 0 -2
BITMAP
00
00
00
18
00
7E
04
18
20
40
FC
00
00
ENDCHAR
STARTCHAR Racute
ENCODING 192
SWIDTH 568 0
DWIDTH 8 0
BBX 8 13 0 -2
BITMAP
00
08
10
00
7C
42
42
7C
90
88
84
00
00
ENDCHAR
STARTCHAR Aacute
ENCODING 193
SWIDTH 568 0
DWIDTH 8 0
BBX 8 13 0 -2
BITMAP
00
08
10
00
18
24
42
42
7C
84
84
00
00
ENDCHAR
STARTCHAR Acircumflex
ENCODING 194
SWIDTH 568 0
DWIDTH 8 0
BBX 8 13 0 -2
BITMAP
00
18
24
00
18
24
42
42
7C
84
84
00
00
ENDCHAR
STARTCHAR Abreve
ENCODING 195
SWIDTH 568 0
DWIDTH 8 0
BBX 8 13 0 -2
BITMAP
00
42
3C
00
18
24
42
42
7C
84
84
00
00
ENDCHAR
STARTCHAR Adieresis
ENCODING 196
SWIDTH 568 0
DWIDTH 8 0
BBX 8 13 0 -2
BITMAP
00
24
24
00
18
24
42
42
7C
84
84
00
00
ENDCHAR
STARTCHAR Lacute
ENCODING 197
SWIDTH 568 0
DWIDTH 8 0
BBX 8 13 0 -2
BITMAP
00
04
08
20
20
20
20
40
40
40
7E
00
00
ENDCHAR
STARTCHAR Cacute
ENCODING 198
SWIDTH 568 0
DWIDTH 8 0
BBX 8 13 0 -2
BITMAP
00
08
10
00
3C
42
40
80
80
84
78
00
00
ENDCHAR
STARTCHAR Ccedilla
ENCODING 199
SWIDTH 568 0
DWIDTH 8 0
BBX 8 13 0 -2
BITMAP
00
00
3C
42
40
40
40
80
80
84
78
10
20
ENDCHAR
STARTCHAR Ccaron
ENCODING 200
SWIDTH 568 0
DWIDTH 8 0
BBX 8 13 0 -2
BITMAP
00
24
18
00
3C
42
40
80
80
84
78
00
00
ENDCHAR
STARTCHAR Eacute
ENCODING 201
SWIDTH 568 0
DWIDTH 8 0
BBX 8 13 0 -2
BITMAP
00
08
10
00
7E
40
40
70
80
80
FC
00
00
ENDCHAR
STARTCHAR Eogonek
ENCODING 202
SWIDTH 568 0
DWIDTH 8 0
BBX 8 13 0 -2
BITMAP
00
00
7E
40
40
40
78
80
80
80
FC
20
38
ENDCHAR
STARTCHAR Edieresis
ENCODING 203
SWIDTH 568 0
DWIDTH 8 0
BBX 8 13 0 -2
BITMAP
00
24
24
00
7E
40
40
70
80
80
FC
00
00
ENDCHAR
STARTCHAR Ecaron
ENCODING 204
SWIDTH 568 0
DWIDTH 8 0
BBX 8 13 0 -2
BITMAP
00
24
18
00
7E
40
40
70
80
80
FC
00
00
ENDCHAR
STARTCHAR Iacute
ENCODING 205
SWIDTH 568 0
DWIDTH 8 0
BBX 8 13 0 -2
BITMAP
00
04
08
00
3E
08
08
10
10
10
7C
00
00
ENDCHAR
STARTCHAR Icircumflex
ENCODING 206
SWIDTH 568 0
DWIDTH 8 0
BBX 8 13 0 -2
BITMAP
00
0C
12
00
3E
08
08
10
10
10
7C
00
00
ENDCHAR
STARTCHAR Dcaron
ENCODING 207
SWIDTH 568 0
DWIDTH 8 0
BBX 8 13 0 -2
BITMAP
00
24
18
00
78
44
42
42
84
88
F0
00
00
ENDCHAR
STARTCHAR Dcroat
ENCODING 208
SWIDTH 568 0
DWIDTH 8 0
BBX 8 13 0 -2
BITMAP
00
00
78
44
42
42
F2
44
84
88
F0
00
00
ENDCHAR
STARTCHAR Nacute
ENCODING 209
SWIDTH 568 0
DWIDTH 8 0
BBX 8 13 0 -2
BITMAP
00
08
10
42
42
62
52
94
8C
84
84
00
00
ENDCHAR
STARTCHAR Ncaron
ENCODING 210
SWIDTH 568 0
DWIDTH 8 0
BBX 8 13 0 -2
BITMAP
00
24
18
42
42
62
52
94
8C
84
84
00
00
ENDCHAR
STARTCHAR Oacute
ENCODING 211
SWIDTH 568 0
DWIDTH 8 0
BBX 8 13 0 -2
BITMAP
00
04
08
00
3E
41
41
82
82
82
7C
00
00
ENDCHAR
STARTCHAR Ocircumflex
ENCODING 212
SWIDTH 568 0
DWIDTH 8 0
BBX 8 13 0 -2
BITMAP
00
0C
12
00
3E
41
41
82
82
82
7C
00
00
ENDCHAR
STARTCHAR Ohungarumlaut
ENCODING 213
SWIDTH 568 0
DWIDTH 8 0
BBX 8 13 0 -2
BITMAP
00
12
24
00
3E
41
41
82
82
82
7C
00
00
ENDCHAR
STARTCHAR Odieresis
ENCODING 214
SWIDTH 568 0
DWIDTH 8 0
BBX 8 13 0 -2
BITMAP
00
22
22
00
3E
41
41
82
82
82
7C
00
00
ENDCHAR
STARTCHAR multiply
ENCODING 215
SWIDTH 568 0
DWIDTH 8 0
BBX 8 13 0 -2
BITMAP
00
00
00
00
42
24
18
30
48
84
00
00
00
ENDCHAR
STARTCHAR Rcaron
ENCODING 216
SWIDTH 568 0
DWIDTH 8 0
BBX 8 13 0 -2
BITMAP
00
24
18
00
7C
42
42
7C
90
88
84
00
00
ENDCHAR
STARTCHAR Uring
ENCODING 217
SWIDTH 568 0
DWIDTH 8 0
BBX 8 13 0 -2
BITMAP
00
18
24
18
42
42
42
84
84
84
78
00
00
ENDCHAR
STARTCHAR Uacute
ENCODING 218
SWIDTH 568 0
DWIDTH 8 0
BBX 8 13 0 -2
BITMAP
00
08
10
00
42
42
42
84
84
84
78
00
00
ENDCHAR
STARTCHAR Uhungarumlaut
ENCODING 219
SWIDTH 568 0
DWIDTH 8 0
BBX 8 13 0 -2
BITMAP
00
12
24
00
42
42
42
84
84
84
78
00
00
ENDCHAR
STARTCHAR Udieresis
ENCODING 220
SWIDTH 568 0
DWIDTH 8 0
BBX 8 13 0 -2
BITMAP
00
24
24
00
42
42
42
84
84
84
78
00
00
ENDCHAR
STARTCHAR Yacute
ENCODING 221
SWIDTH 568 0
DWIDTH 8 0
BBX 8 13 0 -2
BITMAP
00
08
10
00
44
44
28
30
20
20
20
00
00
ENDCHAR
STARTCHAR Tcommaaccent
ENCODING 222
SWIDTH 568 0
DWIDTH 8 0
BBX 8 13 0 -2
BITMAP
00
00
FE
10
10
10
10
20
20
20
20
10
20
ENDCHAR
STARTCHAR germandbls
ENCODING 223
SWIDTH 568 0
DWIDTH 8 0
BBX 8 13 0 -2
BITMAP
00
00
1C
22
22
24
28
44
42
42
5C
00
00
ENDCHAR
STARTCHAR racute
ENCODING 224
SWIDTH 568 0
DWIDTH 8 0
BBX 8 13 0 -2
BITMAP
00
00
08
10
00
5C
22
20
40
40
40
00
00
ENDCHAR
STARTCHAR aacute
ENCODING 225
SWIDTH 568 0
DWIDTH 8 0
BBX 8 13 0 -2
BITMAP
00
00
04
08
00
3C
02
7C
84
8C
74
00
00
ENDCHAR
STARTCHAR acircumflex
ENCODING 226
SWIDTH 568 0
DWIDTH 8 0
BBX 8 13 0 -2
BITMAP
00
00
18
24
00
3C
02
7C
84
8C
74
00
00
ENDCHAR
STARTCHAR abreve
ENCODING 227
SWIDTH 568 0
DWIDTH 8 0
BBX 8 13 0 -2
BITMAP
00
00
42
3C
00
3C
02
7C
84
8C
74
00
00
ENDCHAR
STARTCHAR adieresis
ENCODING 228
SWIDTH 568 0
DWIDTH 8 0
BBX 8 13 0 -2
BITMAP
00
00
24
24
00
3C
02
7C
84
8C
74
00
00
ENDCHAR
STARTCHAR lacute
ENCODING 229
SWIDTH 568 0
DWIDTH 8 0
BBX 8 13 0 -2
BITMAP
04
08
00
18
08
08
08
10
10
10
7C
00
00
ENDCHAR
STARTCHAR cacute
ENCODING 230
SWIDTH 568 0
DWIDTH 8 0
BBX 8 13 0 -2
BITMAP
00
00
08
10
00
3C
42
80
80
84
78
00
00
ENDCHAR
STARTCHAR ccedilla
ENCODING 231
SWIDTH 568 0
DWIDTH 8 0
BBX 8 13 0 -2
BITMAP
00
00
00
00
00
3C
42
80
80
84
78
10
20
ENDCHAR
STARTCHAR ccaron
ENCODING 232
SWIDTH 568 0
DWIDTH 8 0
BBX 8 13 0 -2
BITMAP
00
00
24
18
00
3C
42
80
80
84
78
00
00
ENDCHAR
STARTCHAR eacute
ENCODING 233
SWIDTH 568 0
DWIDTH 8 0
BBX 8 13 0 -2
BITMAP
00
00
08
10
00
3C
42
7C
80
84
78
00
00
ENDCHAR
STARTCHAR eogonek
ENCODING 234
SWIDTH 568 0
DWIDTH 8 0
BBX 8 13 0 -2
BITMAP
00
00
00
00
00
3C
42
7C
80
84
78
20
38
ENDCHAR
STARTCHAR edieresis
ENCODING 235
SWIDTH 568 0
DWIDTH 8 0
BBX 8 13 0 -2
BITMAP
00
00
24
24
00
3C
42
7C
80
84
78
00
00
ENDCHAR
STARTCHAR ecaron
ENCODING 236
SWIDTH 568 0
DWIDTH 8 0
BBX 8 13 0 -2
BITMAP
00
00
24
18
00
3C
42
7C
80
84
78
00
00
ENDCHAR
STARTCHAR iacute
ENCODING 237
SWIDTH 568 0
DWIDTH 8 0
BBX 8 13 0 -2
BITMAP
00
00
08
10
00
18
08
08
10
10
7C
00
00
ENDCHAR
STARTCHAR icircumflex
ENCODING 238
SWIDTH 568 0
DWIDTH 8 0
BBX 8 13 0 -2
BITMAP
00
00
18
24
00
18
08
08
10
10
7C
00
00
ENDCHAR
STARTCHAR dcaron
ENCODING 239
SWIDTH 568 0
DWIDTH 8 0
BBX 8 13 0 -2
BITMAP
00
24
18
02
02
3A
46
42
84
8C
74
00
00
ENDCHAR
STARTCHAR dcroat
ENCODING 240
SWIDTH 568 0
DWIDTH 8 0
BBX 8 13 0 -2
BITMAP
00
00
02
0F
02
3A
44
84
84
8C
74
00
00
ENDCHAR
STARTCHAR nacute
ENCODING 241
SWIDTH 568 0
DWIDTH 8 0
BBX 8 13 0 -2
BITMAP
00
00
08
10
00
5C
62
42
84
84
84
00
00
ENDCHAR
STARTCHAR ncaron
ENCODING 242
SWIDTH 568 0
DWIDTH 8 0
BBX 8 13 0 -2
BITMAP
00
00
24
18
00
5C
62
42
84
84
84
00
00
ENDCHAR
STARTCHAR oacute
ENCODING 243
SWIDTH 568 0
DWIDTH 8 0
BBX 8 13 0 -2
BITMAP
00
00
08
10
00
3C
42
42
84
84
78
00
00
ENDCHAR
STARTCHAR ocircumflex
ENCODING 244
SWIDTH 568 0
DWIDTH 8 0
BBX 8 13 0 -2
BITMAP
00
00
18
24
00
3C
42
42
84
84
78
00
00
ENDCHAR
STARTCHAR ohungarumlaut
ENCODING 245
SWIDTH 568 0
DWIDTH 8 0
BBX 8 13 0 -2
BITMAP
00
00
12
24
00
3C
42
42
84
84
78
00
00
ENDCHAR
STARTCHAR odieresis
ENCODING 246
SWIDTH 568 0
DWIDTH 8 0
BBX 8 13 0 -2
BITMAP
00
00
24
24
00
3C
42
42
84
84
78
00
00
ENDCHAR
STARTCHAR divide
ENCODING 247
SWIDTH 568 0
DWIDTH 8 0
BBX 8 13 0 -2
BITMAP
00
00
00
08
08
00
7E
00
10
10
00
00
00
ENDCHAR
STARTCHAR rcaron
ENCODING 248
SWIDTH 568 0
DWIDTH 8 0
BBX 8 13 0 -2
BITMAP
00
00
24
18
00
5C
22
20
40
40
40
00
00
ENDCHAR
STARTCHAR uring
ENCODING 249
SWIDTH 568 0
DWIDTH 8 0
BBX 8 13 0 -2
BITMAP
00
0C
12
0C
00
22
22
22
44
44
3A
00
00
ENDCHAR
STARTCHAR uacute
ENCODING 250
SWIDTH 568 0
DWIDTH 8 0
BBX 8 13 0 -2
BITMAP
00
00
04
08
00
22
22
22
44
44
3A
00
00
ENDCHAR
STARTCHAR uhungarumlaut
ENCODING 251
SWIDTH 568 0
DWIDTH 8 0
BBX 8 13 0 -2
BITMAP
00
00
12
24
00
44
44
44
88
88
74
00
00
ENDCHAR
STARTCHAR udieresis
ENCODING 252
SWIDTH 568 0
DWIDTH 8 0
BBX 8 13 0 -2
BITMAP
00
00
14
14
00
22
22
22
44
44
3A
00
00
ENDCHAR
STARTCHAR yacute
ENCODING 253
SWIDTH 568 0
DWIDTH 8 0
BBX 8 13 0 -2
BITMAP
00
00
08
10
00
42
42
84
8C
74
04
84
78
ENDCHAR
STARTCHAR tcommaaccent
ENCODING 254
SWIDTH 568 0
DWIDTH 8 0
BBX 8 13 0 -2
BITMAP
00
00
00
20
20
7C
20
40
40
44
38
10
20
ENDCHAR
STARTCHAR dotaccent
ENCODING 255
SWIDTH 568 0
DWIDTH 8 0
BBX 8 13 0 -2
BITMAP
00
00
18
00
00
00
00
00
00
00
00
00
00
ENDCHAR
ENDFONT
