STARTFONT 2.1
COMMENT AUTOMATICALLY GENERATED FILE. DO NOT EDIT!
COMMENT Generated with 'ucs2any 9x15B.bdf /usr/local/share/fonts/X11/util/map-ISO8859-5 ISO8859-5'
COMMENT from an ISO10646-1 encoded source BDF font.
COMMENT ucs2any by Ben Collver <collver1@attbi.com>, 2003, based on
COMMENT ucs2any.pl by Markus Kuhn <http://www.cl.cam.ac.uk/~mgk25/>, 2000.
COMMENT "$ucs-fonts: 9x15B.bdf,v 1.35 2006-01-05 20:03:17+00 mgk25 Rel $"
COMMENT "Send bug reports to Markus Kuhn <http://www.cl.cam.ac.uk/~mgk25/>"
FONT -Misc-Fixed-Bold-R-Normal--15-140-75-75-C-90-ISO8859-5
SIZE 11 75 75
FONTBOUNDINGBOX 9 15 0 -3
STARTPROPERTIES 21
FONTNAME_REGISTRY ""
FOUNDRY "Misc"
FAMILY_NAME "Fixed"
WEIGHT_NAME "Bold"
SLANT "R"
SETWIDTH_NAME "Normal"
ADD_STYLE_NAME ""
PIXEL_SIZE 15
POINT_SIZE 140
RESOLUTION_X 75
RESOLUTION_Y 75
SPACING "C"
AVERAGE_WIDTH 90
CHARSET_REGISTRY "ISO8859"
CHARSET_ENCODING "5"
DEFAULT_CHAR 0
FONT_DESCENT 3
FONT_ASCENT 12
COPYRIGHT "Public domain font.  Share and enjoy."
X_HEIGHT 7
CAP_HEIGHT 10
ENDPROPERTIES
CHARS 223
STARTCHAR defaultchar
ENCODING 0
SWIDTH 785 0
DWIDTH 9 0
BBX 9 15 0 -3
BITMAP
0000
DB00
DB00
0000
C300
C300
0000
C300
C300
0000
DB00
DB00
0000
0000
0000
ENDCHAR
STARTCHAR uni25C6
ENCODING 1
SWIDTH 785 0
DWIDTH 9 0
BBX 9 15 0 -3
BITMAP
0000
0000
0000
0800
1C00
3E00
7F00
FF80
7F00
3E00
1C00
0800
0000
0000
0000
ENDCHAR
STARTCHAR shade
ENCODING 2
SWIDTH 785 0
DWIDTH 9 0
BBX 9 15 0 -3
BITMAP
AA80
5500
AA80
5500
AA80
5500
AA80
5500
AA80
5500
AA80
5500
AA80
5500
AA80
ENDCHAR
STARTCHAR uni2409
ENCODING 3
SWIDTH 785 0
DWIDTH 9 0
BBX 9 15 0 -3
BITMAP
0000
0000
D800
D800
F800
D800
D800
0F00
0600
0600
0600
0600
0000
0000
0000
ENDCHAR
STARTCHAR uni240C
ENCODING 4
SWIDTH 785 0
DWIDTH 9 0
BBX 9 15 0 -3
BITMAP
0000
0000
F000
C000
E000
C000
C000
0F00
0C00
0E00
0C00
0C00
0000
0000
0000
ENDCHAR
STARTCHAR uni240D
ENCODING 5
SWIDTH 785 0
DWIDTH 9 0
BBX 9 15 0 -3
BITMAP
0000
0000
7000
C000
C000
C000
7000
1E00
1B00
1E00
1B00
1B00
0000
0000
0000
ENDCHAR
STARTCHAR uni240A
ENCODING 6
SWIDTH 785 0
DWIDTH 9 0
BBX 9 15 0 -3
BITMAP
0000
0000
C000
C000
C000
C000
F000
0F00
0C00
0E00
0C00
0C00
0000
0000
0000
ENDCHAR
STARTCHAR degree
ENCODING 7
SWIDTH 785 0
DWIDTH 9 0
BBX 9 15 0 -3
BITMAP
0000
0000
1E00
3300
3300
1E00
0000
0000
0000
0000
0000
0000
0000
0000
0000
ENDCHAR
STARTCHAR plusminus
ENCODING 8
SWIDTH 785 0
DWIDTH 9 0
BBX 9 15 0 -3
BITMAP
0000
0000
1800
1800
1800
FF00
FF00
1800
1800
1800
FF00
FF00
0000
0000
0000
ENDCHAR
STARTCHAR uni2424
ENCODING 9
SWIDTH 785 0
DWIDTH 9 0
BBX 9 15 0 -3
BITMAP
0000
F000
D800
D800
D800
D800
0000
1800
1800
1800
1800
1F00
0000
0000
0000
ENDCHAR
STARTCHAR uni240B
ENCODING 10
SWIDTH 785 0
DWIDTH 9 0
BBX 9 15 0 -3
BITMAP
0000
0000
D800
D800
D800
7000
2000
0F00
0600
0600
0600
0600
0000
0000
0000
ENDCHAR
STARTCHAR SF040000
ENCODING 11
SWIDTH 785 0
DWIDTH 9 0
BBX 9 15 0 -3
BITMAP
0C00
0C00
0C00
0C00
0C00
0C00
FC00
FC00
0000
0000
0000
0000
0000
0000
0000
ENDCHAR
STARTCHAR SF030000
ENCODING 12
SWIDTH 785 0
DWIDTH 9 0
BBX 9 15 0 -3
BITMAP
0000
0000
0000
0000
0000
0000
FC00
FC00
0C00
0C00
0C00
0C00
0C00
0C00
0C00
ENDCHAR
STARTCHAR SF010000
ENCODING 13
SWIDTH 785 0
DWIDTH 9 0
BBX 9 15 0 -3
BITMAP
0000
0000
0000
0000
0000
0000
0F80
0F80
0C00
0C00
0C00
0C00
0C00
0C00
0C00
ENDCHAR
STARTCHAR SF020000
ENCODING 14
SWIDTH 785 0
DWIDTH 9 0
BBX 9 15 0 -3
BITMAP
0C00
0C00
0C00
0C00
0C00
0C00
0F80
0F80
0000
0000
0000
0000
0000
0000
0000
ENDCHAR
STARTCHAR SF050000
ENCODING 15
SWIDTH 785 0
DWIDTH 9 0
BBX 9 15 0 -3
BITMAP
0C00
0C00
0C00
0C00
0C00
0C00
FF80
FF80
0C00
0C00
0C00
0C00
0C00
0C00
0C00
ENDCHAR
STARTCHAR uni23BA
ENCODING 16
SWIDTH 785 0
DWIDTH 9 0
BBX 9 15 0 -3
BITMAP
FF80
FF80
0000
0000
0000
0000
0000
0000
0000
0000
0000
0000
0000
0000
0000
ENDCHAR
STARTCHAR uni23BB
ENCODING 17
SWIDTH 785 0
DWIDTH 9 0
BBX 9 15 0 -3
BITMAP
0000
0000
0000
FF80
FF80
0000
0000
0000
0000
0000
0000
0000
0000
0000
0000
ENDCHAR
STARTCHAR SF100000
ENCODING 18
SWIDTH 785 0
DWIDTH 9 0
BBX 9 15 0 -3
BITMAP
0000
0000
0000
0000
0000
0000
FF80
FF80
0000
0000
0000
0000
0000
0000
0000
ENDCHAR
STARTCHAR uni23BC
ENCODING 19
SWIDTH 785 0
DWIDTH 9 0
BBX 9 15 0 -3
BITMAP
0000
0000
0000
0000
0000
0000
0000
0000
0000
0000
FF80
FF80
0000
0000
0000
ENDCHAR
STARTCHAR uni23BD
ENCODING 20
SWIDTH 785 0
DWIDTH 9 0
BBX 9 15 0 -3
BITMAP
0000
0000
0000
0000
0000
0000
0000
0000
0000
0000
0000
0000
0000
FF80
FF80
ENDCHAR
STARTCHAR SF080000
ENCODING 21
SWIDTH 785 0
DWIDTH 9 0
BBX 9 15 0 -3
BITMAP
0C00
0C00
0C00
0C00
0C00
0C00
0F80
0F80
0C00
0C00
0C00
0C00
0C00
0C00
0C00
ENDCHAR
STARTCHAR SF090000
ENCODING 22
SWIDTH 785 0
DWIDTH 9 0
BBX 9 15 0 -3
BITMAP
0C00
0C00
0C00
0C00
0C00
0C00
FC00
FC00
0C00
0C00
0C00
0C00
0C00
0C00
0C00
ENDCHAR
STARTCHAR SF070000
ENCODING 23
SWIDTH 785 0
DWIDTH 9 0
BBX 9 15 0 -3
BITMAP
0C00
0C00
0C00
0C00
0C00
0C00
FF80
FF80
0000
0000
0000
0000
0000
0000
0000
ENDCHAR
STARTCHAR SF060000
ENCODING 24
SWIDTH 785 0
DWIDTH 9 0
BBX 9 15 0 -3
BITMAP
0000
0000
0000
0000
0000
0000
FF80
FF80
0C00
0C00
0C00
0C00
0C00
0C00
0C00
ENDCHAR
STARTCHAR SF110000
ENCODING 25
SWIDTH 785 0
DWIDTH 9 0
BBX 9 15 0 -3
BITMAP
0C00
0C00
0C00
0C00
0C00
0C00
0C00
0C00
0C00
0C00
0C00
0C00
0C00
0C00
0C00
ENDCHAR
STARTCHAR lessequal
ENCODING 26
SWIDTH 785 0
DWIDTH 9 0
BBX 9 15 0 -3
BITMAP
0000
0000
0000
0700
1C00
7000
C000
7000
1C00
0700
0000
FF00
0000
0000
0000
ENDCHAR
STARTCHAR greaterequal
ENCODING 27
SWIDTH 785 0
DWIDTH 9 0
BBX 9 15 0 -3
BITMAP
0000
0000
0000
E000
3800
0E00
0300
0E00
3800
E000
0000
FF00
0000
0000
0000
ENDCHAR
STARTCHAR pi
ENCODING 28
SWIDTH 785 0
DWIDTH 9 0
BBX 9 15 0 -3
BITMAP
0000
0000
0000
0000
0000
FF00
6600
6600
6600
6600
6600
6600
0000
0000
0000
ENDCHAR
STARTCHAR notequal
ENCODING 29
SWIDTH 785 0
DWIDTH 9 0
BBX 9 15 0 -3
BITMAP
0000
0000
0000
0000
0C00
0C00
FF00
1800
1800
FF00
3000
3000
0000
0000
0000
ENDCHAR
STARTCHAR sterling
ENCODING 30
SWIDTH 785 0
DWIDTH 9 0
BBX 9 15 0 -3
BITMAP
0000
0000
0000
1E00
3300
3000
3000
7C00
3000
3000
F800
BF00
E000
0000
0000
ENDCHAR
STARTCHAR periodcentered
ENCODING 31
SWIDTH 785 0
DWIDTH 9 0
BBX 9 15 0 -3
BITMAP
0000
0000
0000
0000
0000
0000
0800
1C00
0800
0000
0000
0000
0000
0000
0000
ENDCHAR
STARTCHAR space
ENCODING 32
SWIDTH 785 0
DWIDTH 9 0
BBX 9 15 0 -3
BITMAP
0000
0000
0000
0000
0000
0000
0000
0000
0000
0000
0000
0000
0000
0000
0000
ENDCHAR
STARTCHAR exclam
ENCODING 33
SWIDTH 785 0
DWIDTH 9 0
BBX 9 15 0 -3
BITMAP
0000
0000
1800
1800
1800
1800
1800
1800
1800
1800
0000
1800
0000
0000
0000
ENDCHAR
STARTCHAR quotedbl
ENCODING 34
SWIDTH 785 0
DWIDTH 9 0
BBX 9 15 0 -3
BITMAP
0000
0000
3600
3600
3600
0000
0000
0000
0000
0000
0000
0000
0000
0000
0000
ENDCHAR
STARTCHAR numbersign
ENCODING 35
SWIDTH 785 0
DWIDTH 9 0
BBX 9 15 0 -3
BITMAP
0000
0000
0000
3600
3600
7F00
3600
3600
7F00
3600
3600
0000
0000
0000
0000
ENDCHAR
STARTCHAR dollar
ENCODING 36
SWIDTH 785 0
DWIDTH 9 0
BBX 9 15 0 -3
BITMAP
0000
0000
0800
3E00
6B00
6800
7800
3E00
0F00
0B00
6B00
3E00
0800
0000
0000
ENDCHAR
STARTCHAR percent
ENCODING 37
SWIDTH 785 0
DWIDTH 9 0
BBX 9 15 0 -3
BITMAP
0000
0000
4300
E600
E600
4C00
1800
1800
3200
6700
6700
C200
0000
0000
0000
ENDCHAR
STARTCHAR ampersand
ENCODING 38
SWIDTH 785 0
DWIDTH 9 0
BBX 9 15 0 -3
BITMAP
0000
0000
3800
6C00
6C00
7800
3000
7900
CF00
C600
CE00
7B00
0000
0000
0000
ENDCHAR
STARTCHAR quotesingle
ENCODING 39
SWIDTH 785 0
DWIDTH 9 0
BBX 9 15 0 -3
BITMAP
0000
0000
1800
1800
1800
1800
0000
0000
0000
0000
0000
0000
0000
0000
0000
ENDCHAR
STARTCHAR parenleft
ENCODING 40
SWIDTH 785 0
DWIDTH 9 0
BBX 9 15 0 -3
BITMAP
0000
0600
0C00
1800
1800
3000
3000
3000
3000
1800
1800
0C00
0600
0000
0000
ENDCHAR
STARTCHAR parenright
ENCODING 41
SWIDTH 785 0
DWIDTH 9 0
BBX 9 15 0 -3
BITMAP
0000
3000
1800
0C00
0C00
0600
0600
0600
0600
0C00
0C00
1800
3000
0000
0000
ENDCHAR
STARTCHAR asterisk
ENCODING 42
SWIDTH 785 0
DWIDTH 9 0
BBX 9 15 0 -3
BITMAP
0000
0000
0000
0000
0000
3600
1C00
7F00
1C00
3600
0000
0000
0000
0000
0000
ENDCHAR
STARTCHAR plus
ENCODING 43
SWIDTH 785 0
DWIDTH 9 0
BBX 9 15 0 -3
BITMAP
0000
0000
0000
0000
1800
1800
1800
FF00
1800
1800
1800
0000
0000
0000
0000
ENDCHAR
STARTCHAR comma
ENCODING 44
SWIDTH 785 0
DWIDTH 9 0
BBX 9 15 0 -3
BITMAP
0000
0000
0000
0000
0000
0000
0000
0000
0000
0000
1C00
1C00
0C00
0C00
1800
ENDCHAR
STARTCHAR hyphen
ENCODING 45
SWIDTH 785 0
DWIDTH 9 0
BBX 9 15 0 -3
BITMAP
0000
0000
0000
0000
0000
0000
0000
FF00
0000
0000
0000
0000
0000
0000
0000
ENDCHAR
STARTCHAR period
ENCODING 46
SWIDTH 785 0
DWIDTH 9 0
BBX 9 15 0 -3
BITMAP
0000
0000
0000
0000
0000
0000
0000
0000
0000
0000
1800
3C00
1800
0000
0000
ENDCHAR
STARTCHAR slash
ENCODING 47
SWIDTH 785 0
DWIDTH 9 0
BBX 9 15 0 -3
BITMAP
0000
0000
0300
0600
0600
0C00
1800
1800
3000
6000
6000
C000
0000
0000
0000
ENDCHAR
STARTCHAR zero
ENCODING 48
SWIDTH 785 0
DWIDTH 9 0
BBX 9 15 0 -3
BITMAP
0000
0000
1800
3C00
6600
C300
C300
C300
C300
6600
3C00
1800
0000
0000
0000
ENDCHAR
STARTCHAR one
ENCODING 49
SWIDTH 785 0
DWIDTH 9 0
BBX 9 15 0 -3
BITMAP
0000
0000
1800
3800
7800
1800
1800
1800
1800
1800
1800
7E00
0000
0000
0000
ENDCHAR
STARTCHAR two
ENCODING 50
SWIDTH 785 0
DWIDTH 9 0
BBX 9 15 0 -3
BITMAP
0000
0000
3C00
6600
C300
0300
0600
0C00
1800
3000
6000
FF00
0000
0000
0000
ENDCHAR
STARTCHAR three
ENCODING 51
SWIDTH 785 0
DWIDTH 9 0
BBX 9 15 0 -3
BITMAP
0000
0000
7C00
C600
0300
0600
1C00
0600
0300
0300
C600
7C00
0000
0000
0000
ENDCHAR
STARTCHAR four
ENCODING 52
SWIDTH 785 0
DWIDTH 9 0
BBX 9 15 0 -3
BITMAP
0000
0000
0600
0E00
1E00
3600
6600
C600
FF00
0600
0600
0600
0000
0000
0000
ENDCHAR
STARTCHAR five
ENCODING 53
SWIDTH 785 0
DWIDTH 9 0
BBX 9 15 0 -3
BITMAP
0000
0000
FE00
C000
C000
DC00
E600
0300
0300
C300
6600
3C00
0000
0000
0000
ENDCHAR
STARTCHAR six
ENCODING 54
SWIDTH 785 0
DWIDTH 9 0
BBX 9 15 0 -3
BITMAP
0000
0000
3C00
6600
C200
C000
DC00
E600
C300
C300
6600
3C00
0000
0000
0000
ENDCHAR
STARTCHAR seven
ENCODING 55
SWIDTH 785 0
DWIDTH 9 0
BBX 9 15 0 -3
BITMAP
0000
0000
FF00
0300
0300
0600
0C00
0C00
1800
1800
1800
1800
0000
0000
0000
ENDCHAR
STARTCHAR eight
ENCODING 56
SWIDTH 785 0
DWIDTH 9 0
BBX 9 15 0 -3
BITMAP
0000
0000
3C00
6600
C300
6600
3C00
6600
C300
C300
6600
3C00
0000
0000
0000
ENDCHAR
STARTCHAR nine
ENCODING 57
SWIDTH 785 0
DWIDTH 9 0
BBX 9 15 0 -3
BITMAP
0000
0000
3C00
6600
C300
C300
6700
3B00
0300
4300
6600
3C00
0000
0000
0000
ENDCHAR
STARTCHAR colon
ENCODING 58
SWIDTH 785 0
DWIDTH 9 0
BBX 9 15 0 -3
BITMAP
0000
0000
0000
0000
0000
1800
3C00
1800
0000
0000
1800
3C00
1800
0000
0000
ENDCHAR
STARTCHAR semicolon
ENCODING 59
SWIDTH 785 0
DWIDTH 9 0
BBX 9 15 0 -3
BITMAP
0000
0000
0000
0000
0000
1800
3C00
1800
0000
0000
1C00
1C00
0C00
0C00
1800
ENDCHAR
STARTCHAR less
ENCODING 60
SWIDTH 785 0
DWIDTH 9 0
BBX 9 15 0 -3
BITMAP
0000
0000
0600
0C00
1800
3000
6000
6000
3000
1800
0C00
0600
0000
0000
0000
ENDCHAR
STARTCHAR equal
ENCODING 61
SWIDTH 785 0
DWIDTH 9 0
BBX 9 15 0 -3
BITMAP
0000
0000
0000
0000
0000
0000
FF00
0000
0000
FF00
0000
0000
0000
0000
0000
ENDCHAR
STARTCHAR greater
ENCODING 62
SWIDTH 785 0
DWIDTH 9 0
BBX 9 15 0 -3
BITMAP
0000
0000
6000
3000
1800
0C00
0600
0600
0C00
1800
3000
6000
0000
0000
0000
ENDCHAR
STARTCHAR question
ENCODING 63
SWIDTH 785 0
DWIDTH 9 0
BBX 9 15 0 -3
BITMAP
0000
0000
3E00
6300
6300
0300
0600
0C00
1800
0000
1800
1800
0000
0000
0000
ENDCHAR
STARTCHAR at
ENCODING 64
SWIDTH 785 0
DWIDTH 9 0
BBX 9 15 0 -3
BITMAP
0000
0000
3C00
6600
C300
CF00
DB00
DB00
CE00
C000
6300
3E00
0000
0000
0000
ENDCHAR
STARTCHAR A
ENCODING 65
SWIDTH 785 0
DWIDTH 9 0
BBX 9 15 0 -3
BITMAP
0000
0000
1800
3C00
6600
C300
C300
C300
FF00
C300
C300
C300
0000
0000
0000
ENDCHAR
STARTCHAR B
ENCODING 66
SWIDTH 785 0
DWIDTH 9 0
BBX 9 15 0 -3
BITMAP
0000
0000
FC00
C600
C300
C600
FC00
C600
C300
C300
C600
FC00
0000
0000
0000
ENDCHAR
STARTCHAR C
ENCODING 67
SWIDTH 785 0
DWIDTH 9 0
BBX 9 15 0 -3
BITMAP
0000
0000
3E00
6300
C100
C000
C000
C000
C000
C100
6300
3E00
0000
0000
0000
ENDCHAR
STARTCHAR D
ENCODING 68
SWIDTH 785 0
DWIDTH 9 0
BBX 9 15 0 -3
BITMAP
0000
0000
FC00
C600
C300
C300
C300
C300
C300
C300
C600
FC00
0000
0000
0000
ENDCHAR
STARTCHAR E
ENCODING 69
SWIDTH 785 0
DWIDTH 9 0
BBX 9 15 0 -3
BITMAP
0000
0000
7F00
6000
6000
6000
7E00
6000
6000
6000
6000
7F00
0000
0000
0000
ENDCHAR
STARTCHAR F
ENCODING 70
SWIDTH 785 0
DWIDTH 9 0
BBX 9 15 0 -3
BITMAP
0000
0000
FF00
C000
C000
C000
FC00
C000
C000
C000
C000
C000
0000
0000
0000
ENDCHAR
STARTCHAR G
ENCODING 71
SWIDTH 785 0
DWIDTH 9 0
BBX 9 15 0 -3
BITMAP
0000
0000
3E00
6300
C000
C000
C000
C700
C300
C300
6300
3E00
0000
0000
0000
ENDCHAR
STARTCHAR H
ENCODING 72
SWIDTH 785 0
DWIDTH 9 0
BBX 9 15 0 -3
BITMAP
0000
0000
C300
C300
C300
C300
FF00
C300
C300
C300
C300
C300
0000
0000
0000
ENDCHAR
STARTCHAR I
ENCODING 73
SWIDTH 785 0
DWIDTH 9 0
BBX 9 15 0 -3
BITMAP
0000
0000
7E00
1800
1800
1800
1800
1800
1800
1800
1800
7E00
0000
0000
0000
ENDCHAR
STARTCHAR J
ENCODING 74
SWIDTH 785 0
DWIDTH 9 0
BBX 9 15 0 -3
BITMAP
0000
0000
1E00
0600
0600
0600
0600
0600
0600
4600
6C00
3800
0000
0000
0000
ENDCHAR
STARTCHAR K
ENCODING 75
SWIDTH 785 0
DWIDTH 9 0
BBX 9 15 0 -3
BITMAP
0000
0000
C300
C600
CC00
D800
F000
F000
D800
CC00
C600
C300
0000
0000
0000
ENDCHAR
STARTCHAR L
ENCODING 76
SWIDTH 785 0
DWIDTH 9 0
BBX 9 15 0 -3
BITMAP
0000
0000
6000
6000
6000
6000
6000
6000
6000
6000
6000
7F00
0000
0000
0000
ENDCHAR
STARTCHAR M
ENCODING 77
SWIDTH 785 0
DWIDTH 9 0
BBX 9 15 0 -3
BITMAP
0000
0000
C300
E700
FF00
DB00
DB00
DB00
C300
C300
C300
C300
0000
0000
0000
ENDCHAR
STARTCHAR N
ENCODING 78
SWIDTH 785 0
DWIDTH 9 0
BBX 9 15 0 -3
BITMAP
0000
0000
C300
E300
F300
F300
DB00
DB00
CF00
C700
C700
C300
0000
0000
0000
ENDCHAR
STARTCHAR O
ENCODING 79
SWIDTH 785 0
DWIDTH 9 0
BBX 9 15 0 -3
BITMAP
0000
0000
3C00
6600
C300
C300
C300
C300
C300
C300
6600
3C00
0000
0000
0000
ENDCHAR
STARTCHAR P
ENCODING 80
SWIDTH 785 0
DWIDTH 9 0
BBX 9 15 0 -3
BITMAP
0000
0000
FE00
C300
C300
C300
FE00
C000
C000
C000
C000
C000
0000
0000
0000
ENDCHAR
STARTCHAR Q
ENCODING 81
SWIDTH 785 0
DWIDTH 9 0
BBX 9 15 0 -3
BITMAP
0000
0000
3C00
6600
C300
C300
C300
C300
DB00
CF00
6600
3D00
0000
0000
0000
ENDCHAR
STARTCHAR R
ENCODING 82
SWIDTH 785 0
DWIDTH 9 0
BBX 9 15 0 -3
BITMAP
0000
0000
FE00
C300
C300
C300
FE00
F800
CC00
C600
C300
C300
0000
0000
0000
ENDCHAR
STARTCHAR S
ENCODING 83
SWIDTH 785 0
DWIDTH 9 0
BBX 9 15 0 -3
BITMAP
0000
0000
7E00
C300
C000
C000
7E00
0300
0300
0300
C300
7E00
0000
0000
0000
ENDCHAR
STARTCHAR T
ENCODING 84
SWIDTH 785 0
DWIDTH 9 0
BBX 9 15 0 -3
BITMAP
0000
0000
FF00
1800
1800
1800
1800
1800
1800
1800
1800
1800
0000
0000
0000
ENDCHAR
STARTCHAR U
ENCODING 85
SWIDTH 785 0
DWIDTH 9 0
BBX 9 15 0 -3
BITMAP
0000
0000
C300
C300
C300
C300
C300
C300
C300
C300
6600
3C00
0000
0000
0000
ENDCHAR
STARTCHAR V
ENCODING 86
SWIDTH 785 0
DWIDTH 9 0
BBX 9 15 0 -3
BITMAP
0000
0000
C300
C300
C300
6600
6600
6600
3C00
3C00
1800
1800
0000
0000
0000
ENDCHAR
STARTCHAR W
ENCODING 87
SWIDTH 785 0
DWIDTH 9 0
BBX 9 15 0 -3
BITMAP
0000
0000
C300
C300
C300
C300
DB00
DB00
DB00
FF00
E700
C300
0000
0000
0000
ENDCHAR
STARTCHAR X
ENCODING 88
SWIDTH 785 0
DWIDTH 9 0
BBX 9 15 0 -3
BITMAP
0000
0000
C300
C300
6600
3C00
1800
1800
3C00
6600
C300
C300
0000
0000
0000
ENDCHAR
STARTCHAR Y
ENCODING 89
SWIDTH 785 0
DWIDTH 9 0
BBX 9 15 0 -3
BITMAP
0000
0000
C300
C300
6600
3C00
1800
1800
1800
1800
1800
1800
0000
0000
0000
ENDCHAR
STARTCHAR Z
ENCODING 90
SWIDTH 785 0
DWIDTH 9 0
BBX 9 15 0 -3
BITMAP
0000
0000
7F00
0300
0300
0600
0C00
1800
3000
6000
6000
7F00
0000
0000
0000
ENDCHAR
STARTCHAR bracketleft
ENCODING 91
SWIDTH 785 0
DWIDTH 9 0
BBX 9 15 0 -3
BITMAP
0000
3E00
3000
3000
3000
3000
3000
3000
3000
3000
3000
3000
3E00
0000
0000
ENDCHAR
STARTCHAR backslash
ENCODING 92
SWIDTH 785 0
DWIDTH 9 0
BBX 9 15 0 -3
BITMAP
0000
0000
C000
6000
6000
3000
1800
1800
0C00
0600
0600
0300
0000
0000
0000
ENDCHAR
STARTCHAR bracketright
ENCODING 93
SWIDTH 785 0
DWIDTH 9 0
BBX 9 15 0 -3
BITMAP
0000
3E00
0600
0600
0600
0600
0600
0600
0600
0600
0600
0600
3E00
0000
0000
ENDCHAR
STARTCHAR asciicircum
ENCODING 94
SWIDTH 785 0
DWIDTH 9 0
BBX 9 15 0 -3
BITMAP
0000
0000
1800
3C00
6600
4200
0000
0000
0000
0000
0000
0000
0000
0000
0000
ENDCHAR
STARTCHAR underscore
ENCODING 95
SWIDTH 785 0
DWIDTH 9 0
BBX 9 15 0 -3
BITMAP
0000
0000
0000
0000
0000
0000
0000
0000
0000
0000
0000
0000
FF00
0000
0000
ENDCHAR
STARTCHAR grave
ENCODING 96
SWIDTH 785 0
DWIDTH 9 0
BBX 9 15 0 -3
BITMAP
0000
3000
1800
0C00
0000
0000
0000
0000
0000
0000
0000
0000
0000
0000
0000
ENDCHAR
STARTCHAR a
ENCODING 97
SWIDTH 785 0
DWIDTH 9 0
BBX 9 15 0 -3
BITMAP
0000
0000
0000
0000
0000
3E00
6300
0300
7F00
C300
C700
7B00
0000
0000
0000
ENDCHAR
STARTCHAR b
ENCODING 98
SWIDTH 785 0
DWIDTH 9 0
BBX 9 15 0 -3
BITMAP
0000
0000
C000
C000
C000
DC00
E600
C300
C300
C300
E600
DC00
0000
0000
0000
ENDCHAR
STARTCHAR c
ENCODING 99
SWIDTH 785 0
DWIDTH 9 0
BBX 9 15 0 -3
BITMAP
0000
0000
0000
0000
0000
3E00
6300
C000
C000
C000
6300
3E00
0000
0000
0000
ENDCHAR
STARTCHAR d
ENCODING 100
SWIDTH 785 0
DWIDTH 9 0
BBX 9 15 0 -3
BITMAP
0000
0000
0300
0300
0300
3B00
6700
C300
C300
C300
6700
3B00
0000
0000
0000
ENDCHAR
STARTCHAR e
ENCODING 101
SWIDTH 785 0
DWIDTH 9 0
BBX 9 15 0 -3
BITMAP
0000
0000
0000
0000
0000
3C00
6600
C300
FF00
C000
6300
3E00
0000
0000
0000
ENDCHAR
STARTCHAR f
ENCODING 102
SWIDTH 785 0
DWIDTH 9 0
BBX 9 15 0 -3
BITMAP
0000
0000
1E00
3300
3300
3000
3000
FC00
3000
3000
3000
3000
0000
0000
0000
ENDCHAR
STARTCHAR g
ENCODING 103
SWIDTH 785 0
DWIDTH 9 0
BBX 9 15 0 -3
BITMAP
0000
0000
0000
0000
0000
7D00
C700
C600
C600
7C00
C000
7E00
C300
C300
7E00
ENDCHAR
STARTCHAR h
ENCODING 104
SWIDTH 785 0
DWIDTH 9 0
BBX 9 15 0 -3
BITMAP
0000
0000
C000
C000
C000
DC00
E600
C300
C300
C300
C300
C300
0000
0000
0000
ENDCHAR
STARTCHAR i
ENCODING 105
SWIDTH 785 0
DWIDTH 9 0
BBX 9 15 0 -3
BITMAP
0000
0000
1800
1800
0000
3800
1800
1800
1800
1800
1800
7E00
0000
0000
0000
ENDCHAR
STARTCHAR j
ENCODING 106
SWIDTH 785 0
DWIDTH 9 0
BBX 9 15 0 -3
BITMAP
0000
0000
0300
0300
0000
0F00
0300
0300
0300
0300
0300
6300
6300
6300
3E00
ENDCHAR
STARTCHAR k
ENCODING 107
SWIDTH 785 0
DWIDTH 9 0
BBX 9 15 0 -3
BITMAP
0000
0000
6000
6000
6000
6600
6C00
7800
7800
6C00
6600
6300
0000
0000
0000
ENDCHAR
STARTCHAR l
ENCODING 108
SWIDTH 785 0
DWIDTH 9 0
BBX 9 15 0 -3
BITMAP
0000
0000
3800
1800
1800
1800
1800
1800
1800
1800
1800
7E00
0000
0000
0000
ENDCHAR
STARTCHAR m
ENCODING 109
SWIDTH 785 0
DWIDTH 9 0
BBX 9 15 0 -3
BITMAP
0000
0000
0000
0000
0000
B600
DB00
DB00
DB00
DB00
DB00
DB00
0000
0000
0000
ENDCHAR
STARTCHAR n
ENCODING 110
SWIDTH 785 0
DWIDTH 9 0
BBX 9 15 0 -3
BITMAP
0000
0000
0000
0000
0000
DC00
E600
C300
C300
C300
C300
C300
0000
0000
0000
ENDCHAR
STARTCHAR o
ENCODING 111
SWIDTH 785 0
DWIDTH 9 0
BBX 9 15 0 -3
BITMAP
0000
0000
0000
0000
0000
3C00
6600
C300
C300
C300
6600
3C00
0000
0000
0000
ENDCHAR
STARTCHAR p
ENCODING 112
SWIDTH 785 0
DWIDTH 9 0
BBX 9 15 0 -3
BITMAP
0000
0000
0000
0000
0000
DC00
E600
C300
C300
C300
E600
DC00
C000
C000
C000
ENDCHAR
STARTCHAR q
ENCODING 113
SWIDTH 785 0
DWIDTH 9 0
BBX 9 15 0 -3
BITMAP
0000
0000
0000
0000
0000
3B00
6700
C300
C300
C300
6700
3B00
0300
0300
0300
ENDCHAR
STARTCHAR r
ENCODING 114
SWIDTH 785 0
DWIDTH 9 0
BBX 9 15 0 -3
BITMAP
0000
0000
0000
0000
0000
DE00
7300
6000
6000
6000
6000
6000
0000
0000
0000
ENDCHAR
STARTCHAR s
ENCODING 115
SWIDTH 785 0
DWIDTH 9 0
BBX 9 15 0 -3
BITMAP
0000
0000
0000
0000
0000
7E00
C300
C000
7E00
0300
C300
7E00
0000
0000
0000
ENDCHAR
STARTCHAR t
ENCODING 116
SWIDTH 785 0
DWIDTH 9 0
BBX 9 15 0 -3
BITMAP
0000
0000
0000
3000
3000
FC00
3000
3000
3000
3000
3300
1E00
0000
0000
0000
ENDCHAR
STARTCHAR u
ENCODING 117
SWIDTH 785 0
DWIDTH 9 0
BBX 9 15 0 -3
BITMAP
0000
0000
0000
0000
0000
C300
C300
C300
C300
C300
6700
3B00
0000
0000
0000
ENDCHAR
STARTCHAR v
ENCODING 118
SWIDTH 785 0
DWIDTH 9 0
BBX 9 15 0 -3
BITMAP
0000
0000
0000
0000
0000
C300
C300
6600
6600
3C00
3C00
1800
0000
0000
0000
ENDCHAR
STARTCHAR w
ENCODING 119
SWIDTH 785 0
DWIDTH 9 0
BBX 9 15 0 -3
BITMAP
0000
0000
0000
0000
0000
C300
C300
DB00
DB00
DB00
FF00
6600
0000
0000
0000
ENDCHAR
STARTCHAR x
ENCODING 120
SWIDTH 785 0
DWIDTH 9 0
BBX 9 15 0 -3
BITMAP
0000
0000
0000
0000
0000
C300
6600
3C00
1800
3C00
6600
C300
0000
0000
0000
ENDCHAR
STARTCHAR y
ENCODING 121
SWIDTH 785 0
DWIDTH 9 0
BBX 9 15 0 -3
BITMAP
0000
0000
0000
0000
0000
C300
C300
C300
C300
C300
6700
3B00
0300
C600
7C00
ENDCHAR
STARTCHAR z
ENCODING 122
SWIDTH 785 0
DWIDTH 9 0
BBX 9 15 0 -3
BITMAP
0000
0000
0000
0000
0000
7E00
0600
0C00
1800
3000
6000
7E00
0000
0000
0000
ENDCHAR
STARTCHAR braceleft
ENCODING 123
SWIDTH 785 0
DWIDTH 9 0
BBX 9 15 0 -3
BITMAP
0000
0E00
1800
1800
1800
1800
3000
3000
1800
1800
1800
1800
0E00
0000
0000
ENDCHAR
STARTCHAR bar
ENCODING 124
SWIDTH 785 0
DWIDTH 9 0
BBX 9 15 0 -3
BITMAP
0000
0000
1800
1800
1800
1800
1800
1800
1800
1800
1800
1800
0000
0000
0000
ENDCHAR
STARTCHAR braceright
ENCODING 125
SWIDTH 785 0
DWIDTH 9 0
BBX 9 15 0 -3
BITMAP
0000
3800
0C00
0C00
0C00
0C00
0600
0600
0C00
0C00
0C00
0C00
3800
0000
0000
ENDCHAR
STARTCHAR asciitilde
ENCODING 126
SWIDTH 785 0
DWIDTH 9 0
BBX 9 15 0 -3
BITMAP
0000
0000
7300
DB00
CE00
0000
0000
0000
0000
0000
0000
0000
0000
0000
0000
ENDCHAR
STARTCHAR space
ENCODING 160
SWIDTH 785 0
DWIDTH 9 0
BBX 9 15 0 -3
BITMAP
0000
0000
0000
0000
0000
0000
0000
0000
0000
0000
0000
0000
0000
0000
0000
ENDCHAR
STARTCHAR afii10023
ENCODING 161
SWIDTH 785 0
DWIDTH 9 0
BBX 9 15 0 -3
BITMAP
0000
3300
3300
0000
7F00
6000
6000
7C00
6000
6000
6000
7F00
0000
0000
0000
ENDCHAR
STARTCHAR afii10051
ENCODING 162
SWIDTH 785 0
DWIDTH 9 0
BBX 9 15 0 -3
BITMAP
0000
0000
FE00
3000
3000
3000
3E00
3300
3300
3300
3300
3300
0300
0600
0000
ENDCHAR
STARTCHAR afii10052
ENCODING 163
SWIDTH 785 0
DWIDTH 9 0
BBX 9 15 0 -3
BITMAP
0000
0C00
1800
0000
7F00
6000
6000
6000
6000
6000
6000
6000
0000
0000
0000
ENDCHAR
STARTCHAR afii10053
ENCODING 164
SWIDTH 785 0
DWIDTH 9 0
BBX 9 15 0 -3
BITMAP
0000
0000
0000
1E00
2300
6000
6000
7800
6000
6000
2300
1E00
0000
0000
0000
ENDCHAR
STARTCHAR afii10054
ENCODING 165
SWIDTH 785 0
DWIDTH 9 0
BBX 9 15 0 -3
BITMAP
0000
0000
3E00
6300
6300
6000
3800
0600
0300
6300
6300
3E00
0000
0000
0000
ENDCHAR
STARTCHAR afii10055
ENCODING 166
SWIDTH 785 0
DWIDTH 9 0
BBX 9 15 0 -3
BITMAP
0000
0000
7E00
1800
1800
1800
1800
1800
1800
1800
1800
7E00
0000
0000
0000
ENDCHAR
STARTCHAR afii10056
ENCODING 167
SWIDTH 785 0
DWIDTH 9 0
BBX 9 15 0 -3
BITMAP
0000
6600
6600
0000
7E00
1800
1800
1800
1800
1800
1800
7E00
0000
0000
0000
ENDCHAR
STARTCHAR afii10057
ENCODING 168
SWIDTH 785 0
DWIDTH 9 0
BBX 9 15 0 -3
BITMAP
0000
0000
0F00
0600
0600
0600
0600
0600
0600
0600
4600
3C00
0000
0000
0000
ENDCHAR
STARTCHAR afii10058
ENCODING 169
SWIDTH 785 0
DWIDTH 9 0
BBX 9 15 0 -3
BITMAP
0000
0000
7C00
6C00
6C00
6C00
6F00
6D80
6D80
6D80
6D80
EF00
0000
0000
0000
ENDCHAR
STARTCHAR afii10059
ENCODING 170
SWIDTH 785 0
DWIDTH 9 0
BBX 9 15 0 -3
BITMAP
0000
0000
D800
D800
D800
D800
FE00
DB00
DB00
DB00
DB00
DE00
0000
0000
0000
ENDCHAR
STARTCHAR afii10060
ENCODING 171
SWIDTH 785 0
DWIDTH 9 0
BBX 9 15 0 -3
BITMAP
0000
0000
FE00
3000
3000
3000
3E00
3300
3300
3300
3300
3300
0000
0000
0000
ENDCHAR
STARTCHAR afii10061
ENCODING 172
SWIDTH 785 0
DWIDTH 9 0
BBX 9 15 0 -3
BITMAP
0400
0800
6300
6600
6C00
7800
7000
7000
7800
6C00
6600
6300
0000
0000
0000
ENDCHAR
STARTCHAR hyphen
ENCODING 173
SWIDTH 785 0
DWIDTH 9 0
BBX 9 15 0 -3
BITMAP
0000
0000
0000
0000
0000
0000
0000
7E00
0000
0000
0000
0000
0000
0000
0000
ENDCHAR
STARTCHAR afii10062
ENCODING 174
SWIDTH 785 0
DWIDTH 9 0
BBX 9 15 0 -3
BITMAP
0000
2200
1C00
0000
6300
6300
6300
6300
3F00
0300
4300
3E00
0000
0000
0000
ENDCHAR
STARTCHAR afii10145
ENCODING 175
SWIDTH 785 0
DWIDTH 9 0
BBX 9 15 0 -3
BITMAP
0000
0000
6300
6300
6300
6300
6300
6300
6300
6300
6300
7F00
0800
0800
0000
ENDCHAR
STARTCHAR afii10017
ENCODING 176
SWIDTH 785 0
DWIDTH 9 0
BBX 9 15 0 -3
BITMAP
0000
0000
1800
3C00
6600
C300
C300
C300
FF00
C300
C300
C300
0000
0000
0000
ENDCHAR
STARTCHAR afii10018
ENCODING 177
SWIDTH 785 0
DWIDTH 9 0
BBX 9 15 0 -3
BITMAP
0000
0000
7E00
6000
6000
6000
7E00
6300
6300
6300
6300
7E00
0000
0000
0000
ENDCHAR
STARTCHAR afii10019
ENCODING 178
SWIDTH 785 0
DWIDTH 9 0
BBX 9 15 0 -3
BITMAP
0000
0000
FC00
C600
C300
C600
FC00
C600
C300
C300
C600
FC00
0000
0000
0000
ENDCHAR
STARTCHAR afii10020
ENCODING 179
SWIDTH 785 0
DWIDTH 9 0
BBX 9 15 0 -3
BITMAP
0000
0000
7F00
6000
6000
6000
6000
6000
6000
6000
6000
6000
0000
0000
0000
ENDCHAR
STARTCHAR afii10021
ENCODING 180
SWIDTH 785 0
DWIDTH 9 0
BBX 9 15 0 -3
BITMAP
0000
0000
1F00
1B00
1B00
1B00
3300
3300
3300
6300
6300
7F00
4100
0000
0000
ENDCHAR
STARTCHAR afii10022
ENCODING 181
SWIDTH 785 0
DWIDTH 9 0
BBX 9 15 0 -3
BITMAP
0000
0000
7F00
6000
6000
6000
7C00
6000
6000
6000
6000
7F00
0000
0000
0000
ENDCHAR
STARTCHAR afii10024
ENCODING 182
SWIDTH 785 0
DWIDTH 9 0
BBX 9 15 0 -3
BITMAP
0000
0000
6B00
6B00
3E00
3E00
1C00
3E00
3E00
6B00
6B00
6B00
0000
0000
0000
ENDCHAR
STARTCHAR afii10025
ENCODING 183
SWIDTH 785 0
DWIDTH 9 0
BBX 9 15 0 -3
BITMAP
0000
0000
3E00
4300
0300
0300
0E00
0300
0300
0300
4300
3E00
0000
0000
0000
ENDCHAR
STARTCHAR afii10026
ENCODING 184
SWIDTH 785 0
DWIDTH 9 0
BBX 9 15 0 -3
BITMAP
0000
0000
6300
6300
6300
6700
6B00
7300
6300
6300
6300
6300
0000
0000
0000
ENDCHAR
STARTCHAR afii10027
ENCODING 185
SWIDTH 785 0
DWIDTH 9 0
BBX 9 15 0 -3
BITMAP
0000
2200
1C00
0000
6300
6300
6700
6B00
7300
6300
6300
6300
0000
0000
0000
ENDCHAR
STARTCHAR afii10028
ENCODING 186
SWIDTH 785 0
DWIDTH 9 0
BBX 9 15 0 -3
BITMAP
0000
0000
6300
6600
6C00
7800
7000
7000
7800
6C00
6600
6300
0000
0000
0000
ENDCHAR
STARTCHAR afii10029
ENCODING 187
SWIDTH 785 0
DWIDTH 9 0
BBX 9 15 0 -3
BITMAP
0000
0000
1F00
1B00
1B00
1B00
3300
3300
3300
3300
7300
6300
0000
0000
0000
ENDCHAR
STARTCHAR afii10030
ENCODING 188
SWIDTH 785 0
DWIDTH 9 0
BBX 9 15 0 -3
BITMAP
0000
0000
6300
6300
7700
7700
7F00
6B00
6B00
6300
6300
6300
0000
0000
0000
ENDCHAR
STARTCHAR afii10031
ENCODING 189
SWIDTH 785 0
DWIDTH 9 0
BBX 9 15 0 -3
BITMAP
0000
0000
6300
6300
6300
6300
7F00
6300
6300
6300
6300
6300
0000
0000
0000
ENDCHAR
STARTCHAR afii10032
ENCODING 190
SWIDTH 785 0
DWIDTH 9 0
BBX 9 15 0 -3
BITMAP
0000
0000
3E00
6300
6300
6300
6300
6300
6300
6300
6300
3E00
0000
0000
0000
ENDCHAR
STARTCHAR afii10033
ENCODING 191
SWIDTH 785 0
DWIDTH 9 0
BBX 9 15 0 -3
BITMAP
0000
0000
7F00
6300
6300
6300
6300
6300
6300
6300
6300
6300
0000
0000
0000
ENDCHAR
STARTCHAR afii10034
ENCODING 192
SWIDTH 785 0
DWIDTH 9 0
BBX 9 15 0 -3
BITMAP
0000
0000
7E00
6300
6300
6300
7E00
6000
6000
6000
6000
6000
0000
0000
0000
ENDCHAR
STARTCHAR afii10035
ENCODING 193
SWIDTH 785 0
DWIDTH 9 0
BBX 9 15 0 -3
BITMAP
0000
0000
3E00
6300
6000
6000
6000
6000
6000
6000
6300
3E00
0000
0000
0000
ENDCHAR
STARTCHAR afii10036
ENCODING 194
SWIDTH 785 0
DWIDTH 9 0
BBX 9 15 0 -3
BITMAP
0000
0000
FF00
1800
1800
1800
1800
1800
1800
1800
1800
1800
0000
0000
0000
ENDCHAR
STARTCHAR afii10037
ENCODING 195
SWIDTH 785 0
DWIDTH 9 0
BBX 9 15 0 -3
BITMAP
0000
0000
6300
6300
6300
6300
6300
6300
3F00
0300
6300
3E00
0000
0000
0000
ENDCHAR
STARTCHAR afii10038
ENCODING 196
SWIDTH 785 0
DWIDTH 9 0
BBX 9 15 0 -3
BITMAP
0000
0000
0800
3E00
6B00
6B00
6B00
6B00
6B00
6B00
3E00
0800
0000
0000
0000
ENDCHAR
STARTCHAR afii10039
ENCODING 197
SWIDTH 785 0
DWIDTH 9 0
BBX 9 15 0 -3
BITMAP
0000
0000
C300
C300
6600
3C00
1800
1800
3C00
6600
C300
C300
0000
0000
0000
ENDCHAR
STARTCHAR afii10040
ENCODING 198
SWIDTH 785 0
DWIDTH 9 0
BBX 9 15 0 -3
BITMAP
0000
0000
6300
6300
6300
6300
6300
6300
6300
6300
6300
7F00
0300
0300
0000
ENDCHAR
STARTCHAR afii10041
ENCODING 199
SWIDTH 785 0
DWIDTH 9 0
BBX 9 15 0 -3
BITMAP
0000
0000
6300
6300
6300
6300
6300
3F00
0300
0300
0300
0300
0000
0000
0000
ENDCHAR
STARTCHAR afii10042
ENCODING 200
SWIDTH 785 0
DWIDTH 9 0
BBX 9 15 0 -3
BITMAP
0000
0000
DB00
DB00
DB00
DB00
DB00
DB00
DB00
DB00
DB00
FF00
0000
0000
0000
ENDCHAR
STARTCHAR afii10043
ENCODING 201
SWIDTH 785 0
DWIDTH 9 0
BBX 9 15 0 -3
BITMAP
0000
0000
DB00
DB00
DB00
DB00
DB00
DB00
DB00
DB00
DB00
FF00
0300
0300
0000
ENDCHAR
STARTCHAR afii10044
ENCODING 202
SWIDTH 785 0
DWIDTH 9 0
BBX 9 15 0 -3
BITMAP
0000
0000
F000
3000
3000
3000
3E00
3300
3300
3300
3300
3E00
0000
0000
0000
ENDCHAR
STARTCHAR afii10045
ENCODING 203
SWIDTH 785 0
DWIDTH 9 0
BBX 9 15 0 -3
BITMAP
0000
0000
C300
C300
C300
C300
F300
DB00
DB00
DB00
DB00
F300
0000
0000
0000
ENDCHAR
STARTCHAR afii10046
ENCODING 204
SWIDTH 785 0
DWIDTH 9 0
BBX 9 15 0 -3
BITMAP
0000
0000
6000
6000
6000
6000
7E00
6300
6300
6300
6300
7E00
0000
0000
0000
ENDCHAR
STARTCHAR afii10047
ENCODING 205
SWIDTH 785 0
DWIDTH 9 0
BBX 9 15 0 -3
BITMAP
0000
0000
0000
3C00
4600
0300
0300
0F00
0300
0300
4600
3C00
0000
0000
0000
ENDCHAR
STARTCHAR afii10048
ENCODING 206
SWIDTH 785 0
DWIDTH 9 0
BBX 9 15 0 -3
BITMAP
0000
0000
CE00
DB00
DB00
DB00
FB00
DB00
DB00
DB00
DB00
CE00
0000
0000
0000
ENDCHAR
STARTCHAR afii10049
ENCODING 207
SWIDTH 785 0
DWIDTH 9 0
BBX 9 15 0 -3
BITMAP
0000
0000
3F00
6300
6300
6300
3F00
0F00
1B00
3300
6300
6300
0000
0000
0000
ENDCHAR
STARTCHAR afii10065
ENCODING 208
SWIDTH 785 0
DWIDTH 9 0
BBX 9 15 0 -3
BITMAP
0000
0000
0000
0000
0000
3E00
0300
0300
3F00
6300
6300
3F00
0000
0000
0000
ENDCHAR
STARTCHAR afii10066
ENCODING 209
SWIDTH 785 0
DWIDTH 9 0
BBX 9 15 0 -3
BITMAP
0000
0000
0200
3C00
6000
7E00
6300
6300
6300
6300
6300
3E00
0000
0000
0000
ENDCHAR
STARTCHAR afii10067
ENCODING 210
SWIDTH 785 0
DWIDTH 9 0
BBX 9 15 0 -3
BITMAP
0000
0000
0000
0000
0000
7E00
6300
6300
7E00
6300
6300
7E00
0000
0000
0000
ENDCHAR
STARTCHAR afii10068
ENCODING 211
SWIDTH 785 0
DWIDTH 9 0
BBX 9 15 0 -3
BITMAP
0000
0000
0000
0000
0000
7F00
6000
6000
6000
6000
6000
6000
0000
0000
0000
ENDCHAR
STARTCHAR afii10069
ENCODING 212
SWIDTH 785 0
DWIDTH 9 0
BBX 9 15 0 -3
BITMAP
0000
0000
0000
0000
0000
1E00
1600
3600
3600
6600
6600
7F00
4100
0000
0000
ENDCHAR
STARTCHAR afii10070
ENCODING 213
SWIDTH 785 0
DWIDTH 9 0
BBX 9 15 0 -3
BITMAP
0000
0000
0000
0000
0000
3C00
6600
C300
FF00
C000
6300
3E00
0000
0000
0000
ENDCHAR
STARTCHAR afii10072
ENCODING 214
SWIDTH 785 0
DWIDTH 9 0
BBX 9 15 0 -3
BITMAP
0000
0000
0000
0000
0000
DB00
DB00
7E00
3C00
7E00
DB00
DB00
0000
0000
0000
ENDCHAR
STARTCHAR afii10073
ENCODING 215
SWIDTH 785 0
DWIDTH 9 0
BBX 9 15 0 -3
BITMAP
0000
0000
0000
0000
0000
3E00
6300
0300
0E00
0300
6300
3E00
0000
0000
0000
ENDCHAR
STARTCHAR afii10074
ENCODING 216
SWIDTH 785 0
DWIDTH 9 0
BBX 9 15 0 -3
BITMAP
0000
0000
0000
0000
0000
6300
6300
6700
6B00
7300
6300
6300
0000
0000
0000
ENDCHAR
STARTCHAR afii10075
ENCODING 217
SWIDTH 785 0
DWIDTH 9 0
BBX 9 15 0 -3
BITMAP
0000
0000
2200
1C00
0000
6300
6300
6700
6B00
7300
6300
6300
0000
0000
0000
ENDCHAR
STARTCHAR afii10076
ENCODING 218
SWIDTH 785 0
DWIDTH 9 0
BBX 9 15 0 -3
BITMAP
0000
0000
0000
0000
0000
6300
6600
6C00
7800
6C00
6600
6300
0000
0000
0000
ENDCHAR
STARTCHAR afii10077
ENCODING 219
SWIDTH 785 0
DWIDTH 9 0
BBX 9 15 0 -3
BITMAP
0000
0000
0000
0000
0000
0F00
1B00
1B00
3300
3300
3300
6300
0000
0000
0000
ENDCHAR
STARTCHAR afii10078
ENCODING 220
SWIDTH 785 0
DWIDTH 9 0
BBX 9 15 0 -3
BITMAP
0000
0000
0000
0000
0000
6300
7700
7F00
6B00
6300
6300
6300
0000
0000
0000
ENDCHAR
STARTCHAR afii10079
ENCODING 221
SWIDTH 785 0
DWIDTH 9 0
BBX 9 15 0 -3
BITMAP
0000
0000
0000
0000
0000
6300
6300
6300
7F00
6300
6300
6300
0000
0000
0000
ENDCHAR
STARTCHAR afii10080
ENCODING 222
SWIDTH 785 0
DWIDTH 9 0
BBX 9 15 0 -3
BITMAP
0000
0000
0000
0000
0000
3E00
6300
6300
6300
6300
6300
3E00
0000
0000
0000
ENDCHAR
STARTCHAR afii10081
ENCODING 223
SWIDTH 785 0
DWIDTH 9 0
BBX 9 15 0 -3
BITMAP
0000
0000
0000
0000
0000
7F00
6300
6300
6300
6300
6300
6300
0000
0000
0000
ENDCHAR
STARTCHAR afii10082
ENCODING 224
SWIDTH 785 0
DWIDTH 9 0
BBX 9 15 0 -3
BITMAP
0000
0000
0000
0000
0000
7E00
6300
6300
6300
6300
6300
7E00
6000
6000
6000
ENDCHAR
STARTCHAR afii10083
ENCODING 225
SWIDTH 785 0
DWIDTH 9 0
BBX 9 15 0 -3
BITMAP
0000
0000
0000
0000
0000
3E00
6300
6000
6000
6000
6300
3E00
0000
0000
0000
ENDCHAR
STARTCHAR afii10084
ENCODING 226
SWIDTH 785 0
DWIDTH 9 0
BBX 9 15 0 -3
BITMAP
0000
0000
0000
0000
0000
FF00
1800
1800
1800
1800
1800
1800
0000
0000
0000
ENDCHAR
STARTCHAR afii10085
ENCODING 227
SWIDTH 785 0
DWIDTH 9 0
BBX 9 15 0 -3
BITMAP
0000
0000
0000
0000
0000
6300
6300
6300
6300
6300
6300
3F00
0300
4300
3E00
ENDCHAR
STARTCHAR afii10086
ENCODING 228
SWIDTH 785 0
DWIDTH 9 0
BBX 9 15 0 -3
BITMAP
0000
0000
0000
0000
1800
7E00
DB00
DB00
DB00
DB00
DB00
7E00
1800
1800
1800
ENDCHAR
STARTCHAR afii10087
ENCODING 229
SWIDTH 785 0
DWIDTH 9 0
BBX 9 15 0 -3
BITMAP
0000
0000
0000
0000
0000
C300
6600
3C00
1800
3C00
6600
C300
0000
0000
0000
ENDCHAR
STARTCHAR afii10088
ENCODING 230
SWIDTH 785 0
DWIDTH 9 0
BBX 9 15 0 -3
BITMAP
0000
0000
0000
0000
0000
6300
6300
6300
6300
6300
6300
7F00
0300
0300
0000
ENDCHAR
STARTCHAR afii10089
ENCODING 231
SWIDTH 785 0
DWIDTH 9 0
BBX 9 15 0 -3
BITMAP
0000
0000
0000
0000
0000
6300
6300
6300
3F00
0300
0300
0300
0000
0000
0000
ENDCHAR
STARTCHAR afii10090
ENCODING 232
SWIDTH 785 0
DWIDTH 9 0
BBX 9 15 0 -3
BITMAP
0000
0000
0000
0000
0000
DB00
DB00
DB00
DB00
DB00
DB00
FF00
0000
0000
0000
ENDCHAR
STARTCHAR afii10091
ENCODING 233
SWIDTH 785 0
DWIDTH 9 0
BBX 9 15 0 -3
BITMAP
0000
0000
0000
0000
0000
DB00
DB00
DB00
DB00
DB00
DB00
FF00
0300
0300
0000
ENDCHAR
STARTCHAR afii10092
ENCODING 234
SWIDTH 785 0
DWIDTH 9 0
BBX 9 15 0 -3
BITMAP
0000
0000
0000
0000
0000
F000
3000
3000
3E00
3300
3300
3E00
0000
0000
0000
ENDCHAR
STARTCHAR afii10093
ENCODING 235
SWIDTH 785 0
DWIDTH 9 0
BBX 9 15 0 -3
BITMAP
0000
0000
0000
0000
0000
C300
C300
C300
F300
DB00
DB00
F300
0000
0000
0000
ENDCHAR
STARTCHAR afii10094
ENCODING 236
SWIDTH 785 0
DWIDTH 9 0
BBX 9 15 0 -3
BITMAP
0000
0000
0000
0000
0000
6000
6000
6000
7E00
6300
6300
7E00
0000
0000
0000
ENDCHAR
STARTCHAR afii10095
ENCODING 237
SWIDTH 785 0
DWIDTH 9 0
BBX 9 15 0 -3
BITMAP
0000
0000
0000
0000
0000
3E00
6300
0300
0F00
0300
6300
3E00
0000
0000
0000
ENDCHAR
STARTCHAR afii10096
ENCODING 238
SWIDTH 785 0
DWIDTH 9 0
BBX 9 15 0 -3
BITMAP
0000
0000
0000
0000
0000
CE00
DB00
DB00
FB00
DB00
DB00
CE00
0000
0000
0000
ENDCHAR
STARTCHAR afii10097
ENCODING 239
SWIDTH 785 0
DWIDTH 9 0
BBX 9 15 0 -3
BITMAP
0000
0000
0000
0000
0000
3F00
6300
6300
3F00
1B00
3300
6300
0000
0000
0000
ENDCHAR
STARTCHAR afii61352
ENCODING 240
SWIDTH 785 0
DWIDTH 9 0
BBX 9 15 0 -3
BITMAP
0000
0000
F000
F000
D800
D800
DB00
DF80
DF80
DB00
D800
DF80
0000
0000
0000
ENDCHAR
STARTCHAR afii10071
ENCODING 241
SWIDTH 785 0
DWIDTH 9 0
BBX 9 15 0 -3
BITMAP
0000
0000
3300
3300
0000
3E00
6300
6300
7F00
6000
6300
3E00
0000
0000
0000
ENDCHAR
STARTCHAR afii10099
ENCODING 242
SWIDTH 785 0
DWIDTH 9 0
BBX 9 15 0 -3
BITMAP
0000
0000
3000
7C00
3000
3E00
3300
3300
3300
3300
3300
3300
0300
0E00
0000
ENDCHAR
STARTCHAR afii10100
ENCODING 243
SWIDTH 785 0
DWIDTH 9 0
BBX 9 15 0 -3
BITMAP
0000
0000
0C00
1800
0000
7F00
6000
6000
6000
6000
6000
6000
0000
0000
0000
ENDCHAR
STARTCHAR afii10101
ENCODING 244
SWIDTH 785 0
DWIDTH 9 0
BBX 9 15 0 -3
BITMAP
0000
0000
0000
0000
0000
3E00
6100
6000
7800
6000
6100
3E00
0000
0000
0000
ENDCHAR
STARTCHAR afii10102
ENCODING 245
SWIDTH 785 0
DWIDTH 9 0
BBX 9 15 0 -3
BITMAP
0000
0000
0000
0000
0000
3E00
6100
6000
3E00
0300
4300
3E00
0000
0000
0000
ENDCHAR
STARTCHAR afii10103
ENCODING 246
SWIDTH 785 0
DWIDTH 9 0
BBX 9 15 0 -3
BITMAP
0000
0000
1800
1800
0000
3800
1800
1800
1800
1800
1800
7E00
0000
0000
0000
ENDCHAR
STARTCHAR afii10104
ENCODING 247
SWIDTH 785 0
DWIDTH 9 0
BBX 9 15 0 -3
BITMAP
0000
0000
6600
6600
0000
3800
1800
1800
1800
1800
1800
7E00
0000
0000
0000
ENDCHAR
STARTCHAR afii10105
ENCODING 248
SWIDTH 785 0
DWIDTH 9 0
BBX 9 15 0 -3
BITMAP
0000
0000
0600
0600
0000
0E00
0600
0600
0600
0600
0600
6600
6600
6600
3C00
ENDCHAR
STARTCHAR afii10106
ENCODING 249
SWIDTH 785 0
DWIDTH 9 0
BBX 9 15 0 -3
BITMAP
0000
0000
0000
0000
0000
3C00
6C00
6C00
6F00
6D80
ED80
CF00
0000
0000
0000
ENDCHAR
STARTCHAR afii10107
ENCODING 250
SWIDTH 785 0
DWIDTH 9 0
BBX 9 15 0 -3
BITMAP
0000
0000
0000
0000
0000
D800
D800
D800
FE00
DB00
DB00
DE00
0000
0000
0000
ENDCHAR
STARTCHAR afii10108
ENCODING 251
SWIDTH 785 0
DWIDTH 9 0
BBX 9 15 0 -3
BITMAP
0000
0000
3000
7C00
3000
3E00
3300
3300
3300
3300
3300
3300
0000
0000
0000
ENDCHAR
STARTCHAR afii10109
ENCODING 252
SWIDTH 785 0
DWIDTH 9 0
BBX 9 15 0 -3
BITMAP
0000
0000
0C00
1800
0000
6300
6600
6C00
7800
6C00
6600
6300
0000
0000
0000
ENDCHAR
STARTCHAR section
ENCODING 253
SWIDTH 785 0
DWIDTH 9 0
BBX 9 15 0 -3
BITMAP
0000
0000
3C00
6600
6000
3C00
6600
6600
6600
3C00
0600
6600
3C00
0000
0000
ENDCHAR
STARTCHAR afii10110
ENCODING 254
SWIDTH 785 0
DWIDTH 9 0
BBX 9 15 0 -3
BITMAP
0000
0000
2200
1C00
0000
6300
6300
6300
6300
6300
6300
3F00
0300
6300
3E00
ENDCHAR
STARTCHAR afii10193
ENCODING 255
SWIDTH 785 0
DWIDTH 9 0
BBX 9 15 0 -3
BITMAP
0000
0000
0000
0000
0000
6300
6300
6300
6300
6300
6300
7F00
0800
0800
0000
ENDCHAR
ENDFONT
