STARTFONT 2.1
COMMENT AUTOMATICALLY GENERATED FILE. DO NOT EDIT!
COMMENT Generated with 'ucs2any 9x18.bdf /usr/local/share/fonts/X11/util/map-ISO8859-11 ISO8859-11'
COMMENT from an ISO10646-1 encoded source BDF font.
COMMENT ucs2any by Ben Collver <collver1@attbi.com>, 2003, based on
COMMENT ucs2any.pl by Markus Kuhn <http://www.cl.cam.ac.uk/~mgk25/>, 2000.
COMMENT "$ucs-fonts: 9x18.bdf,v 1.53 2009-04-06 18:50:15+01 mgk25 Rel $"
COMMENT "Send bug reports to Markus Kuhn <http://www.cl.cam.ac.uk/~mgk25/>"
FONT -Misc-Fixed-Medium-R-Normal--18-120-100-100-C-90-ISO8859-11
SIZE 12 100 100
FONTBOUNDINGBOX 9 18 0 -4
STARTPROPERTIES 22
FONTNAME_REGISTRY ""
FOUNDRY "Misc"
FAMILY_NAME "Fixed"
WEIGHT_NAME "Medium"
SLANT "R"
SETWIDTH_NAME "Normal"
ADD_STYLE_NAME ""
PIXEL_SIZE 18
POINT_SIZE 120
RESOLUTION_X 100
RESOLUTION_Y 100
SPACING "C"
AVERAGE_WIDTH 90
CHARSET_REGISTRY "ISO8859"
CHARSET_ENCODING "11"
DEFAULT_CHAR 0
FONT_DESCENT 4
FONT_ASCENT 14
COPYRIGHT "Public domain font.  Share and enjoy."
CAP_HEIGHT 10
X_HEIGHT 7
_GBDFED_INFO "Edited with gbdfed 1.3."
ENDPROPERTIES
CHARS 215
STARTCHAR defaultchar
ENCODING 0
SWIDTH 540 0
DWIDTH 9 0
BBX 9 18 0 -4
BITMAP
0000
0000
0000
0000
6D00
0100
4000
4100
0100
4000
4100
0100
4000
5B00
0000
0000
0000
0000
ENDCHAR
STARTCHAR uni25C6
ENCODING 1
SWIDTH 540 0
DWIDTH 9 0
BBX 9 18 0 -4
BITMAP
0000
0000
0000
0000
0000
0800
1C00
3E00
7F00
FF80
7F00
3E00
1C00
0800
0000
0000
0000
0000
ENDCHAR
STARTCHAR shade
ENCODING 2
SWIDTH 540 0
DWIDTH 9 0
BBX 9 18 0 -4
BITMAP
AA80
5500
AA80
5500
AA80
5500
AA80
5500
AA80
5500
AA80
5500
AA80
5500
AA80
5500
AA80
5500
ENDCHAR
STARTCHAR uni2409
ENCODING 3
SWIDTH 540 0
DWIDTH 9 0
BBX 9 18 0 -4
BITMAP
0000
0000
0000
4800
4800
7800
4800
4800
0000
1F00
0400
0400
0400
0400
0000
0000
0000
0000
ENDCHAR
STARTCHAR uni240C
ENCODING 4
SWIDTH 540 0
DWIDTH 9 0
BBX 9 18 0 -4
BITMAP
0000
0000
0000
0000
7800
4000
7000
4000
4F00
4800
0E00
0800
0800
0800
0000
0000
0000
0000
ENDCHAR
STARTCHAR uni240D
ENCODING 5
SWIDTH 540 0
DWIDTH 9 0
BBX 9 18 0 -4
BITMAP
0000
0000
0000
3800
4000
4000
4000
3800
0000
0E00
0900
0E00
0900
0900
0000
0000
0000
0000
ENDCHAR
STARTCHAR uni240A
ENCODING 6
SWIDTH 540 0
DWIDTH 9 0
BBX 9 18 0 -4
BITMAP
0000
0000
0000
4000
4000
4000
4000
7800
0000
0F00
0800
0E00
0800
0800
0000
0000
0000
0000
ENDCHAR
STARTCHAR degree
ENCODING 7
SWIDTH 540 0
DWIDTH 9 0
BBX 9 18 0 -4
BITMAP
0000
0000
0000
0000
0C00
1200
1200
0C00
0000
0000
0000
0000
0000
0000
0000
0000
0000
0000
ENDCHAR
STARTCHAR plusminus
ENCODING 8
SWIDTH 540 0
DWIDTH 9 0
BBX 9 18 0 -4
BITMAP
0000
0000
0000
0000
0800
0800
0800
7F00
0800
0800
0800
0000
7F00
0000
0000
0000
0000
0000
ENDCHAR
STARTCHAR uni2424
ENCODING 9
SWIDTH 540 0
DWIDTH 9 0
BBX 9 18 0 -4
BITMAP
0000
0000
0000
4400
6400
5400
4C00
4400
0000
0800
0800
0800
0800
0F00
0000
0000
0000
0000
ENDCHAR
STARTCHAR uni240B
ENCODING 10
SWIDTH 540 0
DWIDTH 9 0
BBX 9 18 0 -4
BITMAP
0000
0000
0000
4400
4400
2800
2800
1000
0000
1F00
0400
0400
0400
0400
0000
0000
0000
0000
ENDCHAR
STARTCHAR SF040000
ENCODING 11
SWIDTH 540 0
DWIDTH 9 0
BBX 9 18 0 -4
BITMAP
0800
0800
0800
0800
0800
0800
0800
0800
0800
F800
0000
0000
0000
0000
0000
0000
0000
0000
ENDCHAR
STARTCHAR SF030000
ENCODING 12
SWIDTH 540 0
DWIDTH 9 0
BBX 9 18 0 -4
BITMAP
0000
0000
0000
0000
0000
0000
0000
0000
0000
F800
0800
0800
0800
0800
0800
0800
0800
0800
ENDCHAR
STARTCHAR SF010000
ENCODING 13
SWIDTH 540 0
DWIDTH 9 0
BBX 9 18 0 -4
BITMAP
0000
0000
0000
0000
0000
0000
0000
0000
0000
0F80
0800
0800
0800
0800
0800
0800
0800
0800
ENDCHAR
STARTCHAR SF020000
ENCODING 14
SWIDTH 540 0
DWIDTH 9 0
BBX 9 18 0 -4
BITMAP
0800
0800
0800
0800
0800
0800
0800
0800
0800
0F80
0000
0000
0000
0000
0000
0000
0000
0000
ENDCHAR
STARTCHAR SF050000
ENCODING 15
SWIDTH 540 0
DWIDTH 9 0
BBX 9 18 0 -4
BITMAP
0800
0800
0800
0800
0800
0800
0800
0800
0800
FF80
0800
0800
0800
0800
0800
0800
0800
0800
ENDCHAR
STARTCHAR uni23BA
ENCODING 16
SWIDTH 540 0
DWIDTH 9 0
BBX 9 18 0 -4
BITMAP
FF80
0000
0000
0000
0000
0000
0000
0000
0000
0000
0000
0000
0000
0000
0000
0000
0000
0000
ENDCHAR
STARTCHAR uni23BB
ENCODING 17
SWIDTH 540 0
DWIDTH 9 0
BBX 9 18 0 -4
BITMAP
0000
0000
0000
0000
FF80
0000
0000
0000
0000
0000
0000
0000
0000
0000
0000
0000
0000
0000
ENDCHAR
STARTCHAR SF100000
ENCODING 18
SWIDTH 540 0
DWIDTH 9 0
BBX 9 18 0 -4
BITMAP
0000
0000
0000
0000
0000
0000
0000
0000
0000
FF80
0000
0000
0000
0000
0000
0000
0000
0000
ENDCHAR
STARTCHAR uni23BC
ENCODING 19
SWIDTH 540 0
DWIDTH 9 0
BBX 9 18 0 -4
BITMAP
0000
0000
0000
0000
0000
0000
0000
0000
0000
0000
0000
0000
0000
FF80
0000
0000
0000
0000
ENDCHAR
STARTCHAR uni23BD
ENCODING 20
SWIDTH 540 0
DWIDTH 9 0
BBX 9 18 0 -4
BITMAP
0000
0000
0000
0000
0000
0000
0000
0000
0000
0000
0000
0000
0000
0000
0000
0000
0000
FF80
ENDCHAR
STARTCHAR SF080000
ENCODING 21
SWIDTH 540 0
DWIDTH 9 0
BBX 9 18 0 -4
BITMAP
0800
0800
0800
0800
0800
0800
0800
0800
0800
0F80
0800
0800
0800
0800
0800
0800
0800
0800
ENDCHAR
STARTCHAR SF090000
ENCODING 22
SWIDTH 540 0
DWIDTH 9 0
BBX 9 18 0 -4
BITMAP
0800
0800
0800
0800
0800
0800
0800
0800
0800
F800
0800
0800
0800
0800
0800
0800
0800
0800
ENDCHAR
STARTCHAR SF070000
ENCODING 23
SWIDTH 540 0
DWIDTH 9 0
BBX 9 18 0 -4
BITMAP
0800
0800
0800
0800
0800
0800
0800
0800
0800
FF80
0000
0000
0000
0000
0000
0000
0000
0000
ENDCHAR
STARTCHAR SF060000
ENCODING 24
SWIDTH 540 0
DWIDTH 9 0
BBX 9 18 0 -4
BITMAP
0000
0000
0000
0000
0000
0000
0000
0000
0000
FF80
0800
0800
0800
0800
0800
0800
0800
0800
ENDCHAR
STARTCHAR SF110000
ENCODING 25
SWIDTH 540 0
DWIDTH 9 0
BBX 9 18 0 -4
BITMAP
0800
0800
0800
0800
0800
0800
0800
0800
0800
0800
0800
0800
0800
0800
0800
0800
0800
0800
ENDCHAR
STARTCHAR lessequal
ENCODING 26
SWIDTH 540 0
DWIDTH 9 0
BBX 9 18 0 -4
BITMAP
0000
0000
0000
0000
0000
0000
0300
1C00
6000
1C00
0300
0000
7F00
0000
0000
0000
0000
0000
ENDCHAR
STARTCHAR greaterequal
ENCODING 27
SWIDTH 540 0
DWIDTH 9 0
BBX 9 18 0 -4
BITMAP
0000
0000
0000
0000
0000
0000
6000
1C00
0300
1C00
6000
0000
7F00
0000
0000
0000
0000
0000
ENDCHAR
STARTCHAR pi
ENCODING 28
SWIDTH 540 0
DWIDTH 9 0
BBX 9 18 0 -4
BITMAP
0000
0000
0000
0000
0000
0000
0000
7F00
2200
2200
2200
2200
2200
2200
0000
0000
0000
0000
ENDCHAR
STARTCHAR notequal
ENCODING 29
SWIDTH 540 0
DWIDTH 9 0
BBX 9 18 0 -4
BITMAP
0000
0000
0000
0000
0000
0000
0400
0400
7F00
0800
7F00
1000
1000
0000
0000
0000
0000
0000
ENDCHAR
STARTCHAR sterling
ENCODING 30
SWIDTH 540 0
DWIDTH 9 0
BBX 9 18 0 -4
BITMAP
0000
0000
0000
0000
0E00
1100
1000
1000
7C00
1000
1000
3000
5100
2E00
0000
0000
0000
0000
ENDCHAR
STARTCHAR periodcentered
ENCODING 31
SWIDTH 540 0
DWIDTH 9 0
BBX 9 18 0 -4
BITMAP
0000
0000
0000
0000
0000
0000
0000
0000
0C00
0C00
0000
0000
0000
0000
0000
0000
0000
0000
ENDCHAR
STARTCHAR space
ENCODING 32
SWIDTH 540 0
DWIDTH 9 0
BBX 9 18 0 -4
BITMAP
0000
0000
0000
0000
0000
0000
0000
0000
0000
0000
0000
0000
0000
0000
0000
0000
0000
0000
ENDCHAR
STARTCHAR exclam
ENCODING 33
SWIDTH 540 0
DWIDTH 9 0
BBX 9 18 0 -4
BITMAP
0000
0000
0000
0800
0800
0800
0800
0800
0800
0800
0000
0000
0800
0800
0000
0000
0000
0000
ENDCHAR
STARTCHAR quotedbl
ENCODING 34
SWIDTH 540 0
DWIDTH 9 0
BBX 9 18 0 -4
BITMAP
0000
0000
0000
1200
1200
1200
1200
0000
0000
0000
0000
0000
0000
0000
0000
0000
0000
0000
ENDCHAR
STARTCHAR numbersign
ENCODING 35
SWIDTH 540 0
DWIDTH 9 0
BBX 9 18 0 -4
BITMAP
0000
0000
0000
0000
2400
2400
2400
FF00
2400
2400
FF00
2400
2400
2400
0000
0000
0000
0000
ENDCHAR
STARTCHAR dollar
ENCODING 36
SWIDTH 540 0
DWIDTH 9 0
BBX 9 18 0 -4
BITMAP
0000
0000
0000
0000
0800
3E00
4900
4800
2800
1C00
0A00
0900
4900
3E00
0800
0000
0000
0000
ENDCHAR
STARTCHAR percent
ENCODING 37
SWIDTH 540 0
DWIDTH 9 0
BBX 9 18 0 -4
BITMAP
0000
0000
0000
0000
2100
5200
5200
2400
0800
0800
1200
2500
2500
4200
0000
0000
0000
0000
ENDCHAR
STARTCHAR ampersand
ENCODING 38
SWIDTH 540 0
DWIDTH 9 0
BBX 9 18 0 -4
BITMAP
0000
0000
0000
0000
3000
4800
4800
4800
3000
3100
4A00
4400
4A00
3100
0000
0000
0000
0000
ENDCHAR
STARTCHAR quotesingle
ENCODING 39
SWIDTH 540 0
DWIDTH 9 0
BBX 9 18 0 -4
BITMAP
0000
0000
0000
0800
0800
0800
0800
0000
0000
0000
0000
0000
0000
0000
0000
0000
0000
0000
ENDCHAR
STARTCHAR parenleft
ENCODING 40
SWIDTH 540 0
DWIDTH 9 0
BBX 9 18 0 -4
BITMAP
0000
0000
0000
0400
0800
0800
1000
1000
1000
1000
1000
1000
0800
0800
0400
0000
0000
0000
ENDCHAR
STARTCHAR parenright
ENCODING 41
SWIDTH 540 0
DWIDTH 9 0
BBX 9 18 0 -4
BITMAP
0000
0000
0000
1000
0800
0800
0400
0400
0400
0400
0400
0400
0800
0800
1000
0000
0000
0000
ENDCHAR
STARTCHAR asterisk
ENCODING 42
SWIDTH 540 0
DWIDTH 9 0
BBX 9 18 0 -4
BITMAP
0000
0000
0000
0000
0800
4900
2A00
1C00
2A00
4900
0800
0000
0000
0000
0000
0000
0000
0000
ENDCHAR
STARTCHAR plus
ENCODING 43
SWIDTH 540 0
DWIDTH 9 0
BBX 9 18 0 -4
BITMAP
0000
0000
0000
0000
0000
0000
0800
0800
0800
7F00
0800
0800
0800
0000
0000
0000
0000
0000
ENDCHAR
STARTCHAR comma
ENCODING 44
SWIDTH 540 0
DWIDTH 9 0
BBX 9 18 0 -4
BITMAP
0000
0000
0000
0000
0000
0000
0000
0000
0000
0000
0000
0000
0C00
0C00
0400
0800
0000
0000
ENDCHAR
STARTCHAR hyphen
ENCODING 45
SWIDTH 540 0
DWIDTH 9 0
BBX 9 18 0 -4
BITMAP
0000
0000
0000
0000
0000
0000
0000
0000
0000
7F00
0000
0000
0000
0000
0000
0000
0000
0000
ENDCHAR
STARTCHAR period
ENCODING 46
SWIDTH 540 0
DWIDTH 9 0
BBX 9 18 0 -4
BITMAP
0000
0000
0000
0000
0000
0000
0000
0000
0000
0000
0000
0000
0C00
0C00
0000
0000
0000
0000
ENDCHAR
STARTCHAR slash
ENCODING 47
SWIDTH 540 0
DWIDTH 9 0
BBX 9 18 0 -4
BITMAP
0000
0000
0000
0000
0100
0200
0200
0400
0800
0800
1000
2000
2000
4000
0000
0000
0000
0000
ENDCHAR
STARTCHAR zero
ENCODING 48
SWIDTH 540 0
DWIDTH 9 0
BBX 9 18 0 -4
BITMAP
0000
0000
0000
0000
1C00
2200
4100
4100
4100
4100
4100
4100
2200
1C00
0000
0000
0000
0000
ENDCHAR
STARTCHAR one
ENCODING 49
SWIDTH 540 0
DWIDTH 9 0
BBX 9 18 0 -4
BITMAP
0000
0000
0000
0000
0800
1800
2800
4800
0800
0800
0800
0800
0800
7F00
0000
0000
0000
0000
ENDCHAR
STARTCHAR two
ENCODING 50
SWIDTH 540 0
DWIDTH 9 0
BBX 9 18 0 -4
BITMAP
0000
0000
0000
0000
1C00
2200
4100
0100
0200
0400
0800
1000
2000
7F00
0000
0000
0000
0000
ENDCHAR
STARTCHAR three
ENCODING 51
SWIDTH 540 0
DWIDTH 9 0
BBX 9 18 0 -4
BITMAP
0000
0000
0000
0000
7F00
0100
0200
0400
0C00
0200
0100
0100
4200
3C00
0000
0000
0000
0000
ENDCHAR
STARTCHAR four
ENCODING 52
SWIDTH 540 0
DWIDTH 9 0
BBX 9 18 0 -4
BITMAP
0000
0000
0000
0000
0200
0600
0A00
1200
2200
4200
7F00
0200
0200
0200
0000
0000
0000
0000
ENDCHAR
STARTCHAR five
ENCODING 53
SWIDTH 540 0
DWIDTH 9 0
BBX 9 18 0 -4
BITMAP
0000
0000
0000
0000
7F00
4000
4000
4000
7C00
0200
0100
0100
4200
3C00
0000
0000
0000
0000
ENDCHAR
STARTCHAR six
ENCODING 54
SWIDTH 540 0
DWIDTH 9 0
BBX 9 18 0 -4
BITMAP
0000
0000
0000
0000
1E00
2000
4000
4000
5C00
6200
4100
4100
2200
1C00
0000
0000
0000
0000
ENDCHAR
STARTCHAR seven
ENCODING 55
SWIDTH 540 0
DWIDTH 9 0
BBX 9 18 0 -4
BITMAP
0000
0000
0000
0000
7F00
0100
0200
0200
0400
0400
0800
0800
0800
0800
0000
0000
0000
0000
ENDCHAR
STARTCHAR eight
ENCODING 56
SWIDTH 540 0
DWIDTH 9 0
BBX 9 18 0 -4
BITMAP
0000
0000
0000
0000
1C00
2200
4100
2200
1C00
2200
4100
4100
2200
1C00
0000
0000
0000
0000
ENDCHAR
STARTCHAR nine
ENCODING 57
SWIDTH 540 0
DWIDTH 9 0
BBX 9 18 0 -4
BITMAP
0000
0000
0000
0000
1C00
2200
4100
4100
2300
1D00
0100
0100
0200
3C00
0000
0000
0000
0000
ENDCHAR
STARTCHAR colon
ENCODING 58
SWIDTH 540 0
DWIDTH 9 0
BBX 9 18 0 -4
BITMAP
0000
0000
0000
0000
0000
0000
0000
0C00
0C00
0000
0000
0000
0C00
0C00
0000
0000
0000
0000
ENDCHAR
STARTCHAR semicolon
ENCODING 59
SWIDTH 540 0
DWIDTH 9 0
BBX 9 18 0 -4
BITMAP
0000
0000
0000
0000
0000
0000
0000
0C00
0C00
0000
0000
0000
0C00
0C00
0400
0800
0000
0000
ENDCHAR
STARTCHAR less
ENCODING 60
SWIDTH 540 0
DWIDTH 9 0
BBX 9 18 0 -4
BITMAP
0000
0000
0000
0000
0000
0200
0400
0800
1000
2000
1000
0800
0400
0200
0000
0000
0000
0000
ENDCHAR
STARTCHAR equal
ENCODING 61
SWIDTH 540 0
DWIDTH 9 0
BBX 9 18 0 -4
BITMAP
0000
0000
0000
0000
0000
0000
0000
0000
7F00
0000
0000
7F00
0000
0000
0000
0000
0000
0000
ENDCHAR
STARTCHAR greater
ENCODING 62
SWIDTH 540 0
DWIDTH 9 0
BBX 9 18 0 -4
BITMAP
0000
0000
0000
0000
0000
2000
1000
0800
0400
0200
0400
0800
1000
2000
0000
0000
0000
0000
ENDCHAR
STARTCHAR question
ENCODING 63
SWIDTH 540 0
DWIDTH 9 0
BBX 9 18 0 -4
BITMAP
0000
0000
0000
0000
1C00
2200
4100
0100
0200
0400
0800
0800
0000
0800
0000
0000
0000
0000
ENDCHAR
STARTCHAR at
ENCODING 64
SWIDTH 540 0
DWIDTH 9 0
BBX 9 18 0 -4
BITMAP
0000
0000
0000
0000
1C00
2200
4D00
5500
5500
5500
5500
4E00
2000
1E00
0000
0000
0000
0000
ENDCHAR
STARTCHAR A
ENCODING 65
SWIDTH 540 0
DWIDTH 9 0
BBX 9 18 0 -4
BITMAP
0000
0000
0000
0000
0800
1400
1400
1400
2200
3E00
2200
4100
4100
4100
0000
0000
0000
0000
ENDCHAR
STARTCHAR B
ENCODING 66
SWIDTH 540 0
DWIDTH 9 0
BBX 9 18 0 -4
BITMAP
0000
0000
0000
0000
7C00
4200
4100
4200
7C00
4200
4100
4100
4200
7C00
0000
0000
0000
0000
ENDCHAR
STARTCHAR C
ENCODING 67
SWIDTH 540 0
DWIDTH 9 0
BBX 9 18 0 -4
BITMAP
0000
0000
0000
0000
1E00
2100
4000
4000
4000
4000
4000
4000
2100
1E00
0000
0000
0000
0000
ENDCHAR
STARTCHAR D
ENCODING 68
SWIDTH 540 0
DWIDTH 9 0
BBX 9 18 0 -4
BITMAP
0000
0000
0000
0000
7C00
4200
4100
4100
4100
4100
4100
4100
4200
7C00
0000
0000
0000
0000
ENDCHAR
STARTCHAR E
ENCODING 69
SWIDTH 540 0
DWIDTH 9 0
BBX 9 18 0 -4
BITMAP
0000
0000
0000
0000
7F00
4000
4000
4000
7C00
4000
4000
4000
4000
7F00
0000
0000
0000
0000
ENDCHAR
STARTCHAR F
ENCODING 70
SWIDTH 540 0
DWIDTH 9 0
BBX 9 18 0 -4
BITMAP
0000
0000
0000
0000
7F00
4000
4000
4000
7C00
4000
4000
4000
4000
4000
0000
0000
0000
0000
ENDCHAR
STARTCHAR G
ENCODING 71
SWIDTH 540 0
DWIDTH 9 0
BBX 9 18 0 -4
BITMAP
0000
0000
0000
0000
1C00
2200
4100
4000
4000
4700
4100
4100
2200
1C00
0000
0000
0000
0000
ENDCHAR
STARTCHAR H
ENCODING 72
SWIDTH 540 0
DWIDTH 9 0
BBX 9 18 0 -4
BITMAP
0000
0000
0000
0000
4100
4100
4100
4100
7F00
4100
4100
4100
4100
4100
0000
0000
0000
0000
ENDCHAR
STARTCHAR I
ENCODING 73
SWIDTH 540 0
DWIDTH 9 0
BBX 9 18 0 -4
BITMAP
0000
0000
0000
0000
3E00
0800
0800
0800
0800
0800
0800
0800
0800
3E00
0000
0000
0000
0000
ENDCHAR
STARTCHAR J
ENCODING 74
SWIDTH 540 0
DWIDTH 9 0
BBX 9 18 0 -4
BITMAP
0000
0000
0000
0000
1F00
0400
0400
0400
0400
0400
0400
4400
4400
3800
0000
0000
0000
0000
ENDCHAR
STARTCHAR K
ENCODING 75
SWIDTH 540 0
DWIDTH 9 0
BBX 9 18 0 -4
BITMAP
0000
0000
0000
0000
4100
4200
4400
4800
5000
6800
4400
4200
4100
4100
0000
0000
0000
0000
ENDCHAR
STARTCHAR L
ENCODING 76
SWIDTH 540 0
DWIDTH 9 0
BBX 9 18 0 -4
BITMAP
0000
0000
0000
0000
4000
4000
4000
4000
4000
4000
4000
4000
4000
7F00
0000
0000
0000
0000
ENDCHAR
STARTCHAR M
ENCODING 77
SWIDTH 540 0
DWIDTH 9 0
BBX 9 18 0 -4
BITMAP
0000
0000
0000
0000
4100
4100
6300
5500
4900
4100
4100
4100
4100
4100
0000
0000
0000
0000
ENDCHAR
STARTCHAR N
ENCODING 78
SWIDTH 540 0
DWIDTH 9 0
BBX 9 18 0 -4
BITMAP
0000
0000
0000
0000
4100
4100
6100
5100
4900
4500
4300
4100
4100
4100
0000
0000
0000
0000
ENDCHAR
STARTCHAR O
ENCODING 79
SWIDTH 540 0
DWIDTH 9 0
BBX 9 18 0 -4
BITMAP
0000
0000
0000
0000
3E00
4100
4100
4100
4100
4100
4100
4100
4100
3E00
0000
0000
0000
0000
ENDCHAR
STARTCHAR P
ENCODING 80
SWIDTH 540 0
DWIDTH 9 0
BBX 9 18 0 -4
BITMAP
0000
0000
0000
0000
7C00
4200
4100
4100
4200
7C00
4000
4000
4000
4000
0000
0000
0000
0000
ENDCHAR
STARTCHAR Q
ENCODING 81
SWIDTH 540 0
DWIDTH 9 0
BBX 9 18 0 -4
BITMAP
0000
0000
0000
0000
1C00
2200
4100
4100
4100
4100
4100
4500
2200
1D00
0080
0000
0000
0000
ENDCHAR
STARTCHAR R
ENCODING 82
SWIDTH 540 0
DWIDTH 9 0
BBX 9 18 0 -4
BITMAP
0000
0000
0000
0000
7C00
4200
4100
4100
4200
7C00
4800
4400
4200
4100
0000
0000
0000
0000
ENDCHAR
STARTCHAR S
ENCODING 83
SWIDTH 540 0
DWIDTH 9 0
BBX 9 18 0 -4
BITMAP
0000
0000
0000
0000
3E00
4100
4000
4000
3E00
0100
0100
0100
4100
3E00
0000
0000
0000
0000
ENDCHAR
STARTCHAR T
ENCODING 84
SWIDTH 540 0
DWIDTH 9 0
BBX 9 18 0 -4
BITMAP
0000
0000
0000
0000
7F00
0800
0800
0800
0800
0800
0800
0800
0800
0800
0000
0000
0000
0000
ENDCHAR
STARTCHAR U
ENCODING 85
SWIDTH 540 0
DWIDTH 9 0
BBX 9 18 0 -4
BITMAP
0000
0000
0000
0000
4100
4100
4100
4100
4100
4100
4100
4100
2200
1C00
0000
0000
0000
0000
ENDCHAR
STARTCHAR V
ENCODING 86
SWIDTH 540 0
DWIDTH 9 0
BBX 9 18 0 -4
BITMAP
0000
0000
0000
0000
4100
4100
4100
2200
2200
2200
1400
1400
1400
0800
0000
0000
0000
0000
ENDCHAR
STARTCHAR W
ENCODING 87
SWIDTH 540 0
DWIDTH 9 0
BBX 9 18 0 -4
BITMAP
0000
0000
0000
0000
4100
4100
4100
4100
4900
4900
4900
4900
5500
2200
0000
0000
0000
0000
ENDCHAR
STARTCHAR X
ENCODING 88
SWIDTH 540 0
DWIDTH 9 0
BBX 9 18 0 -4
BITMAP
0000
0000
0000
0000
4100
4100
2200
1400
0800
0800
1400
2200
4100
4100
0000
0000
0000
0000
ENDCHAR
STARTCHAR Y
ENCODING 89
SWIDTH 540 0
DWIDTH 9 0
BBX 9 18 0 -4
BITMAP
0000
0000
0000
0000
4100
4100
2200
1400
0800
0800
0800
0800
0800
0800
0000
0000
0000
0000
ENDCHAR
STARTCHAR Z
ENCODING 90
SWIDTH 540 0
DWIDTH 9 0
BBX 9 18 0 -4
BITMAP
0000
0000
0000
0000
7F00
0100
0200
0400
0800
1000
2000
4000
4000
7F00
0000
0000
0000
0000
ENDCHAR
STARTCHAR bracketleft
ENCODING 91
SWIDTH 540 0
DWIDTH 9 0
BBX 9 18 0 -4
BITMAP
0000
0000
0000
1E00
1000
1000
1000
1000
1000
1000
1000
1000
1000
1000
1E00
0000
0000
0000
ENDCHAR
STARTCHAR backslash
ENCODING 92
SWIDTH 540 0
DWIDTH 9 0
BBX 9 18 0 -4
BITMAP
0000
0000
0000
0000
4000
2000
2000
1000
0800
0800
0400
0200
0200
0100
0000
0000
0000
0000
ENDCHAR
STARTCHAR bracketright
ENCODING 93
SWIDTH 540 0
DWIDTH 9 0
BBX 9 18 0 -4
BITMAP
0000
0000
0000
3C00
0400
0400
0400
0400
0400
0400
0400
0400
0400
0400
3C00
0000
0000
0000
ENDCHAR
STARTCHAR asciicircum
ENCODING 94
SWIDTH 540 0
DWIDTH 9 0
BBX 9 18 0 -4
BITMAP
0000
0000
0000
0000
0800
1400
2200
4100
0000
0000
0000
0000
0000
0000
0000
0000
0000
0000
ENDCHAR
STARTCHAR underscore
ENCODING 95
SWIDTH 540 0
DWIDTH 9 0
BBX 9 18 0 -4
BITMAP
0000
0000
0000
0000
0000
0000
0000
0000
0000
0000
0000
0000
0000
0000
FF00
0000
0000
0000
ENDCHAR
STARTCHAR grave
ENCODING 96
SWIDTH 540 0
DWIDTH 9 0
BBX 9 18 0 -4
BITMAP
0000
1000
0800
0400
0000
0000
0000
0000
0000
0000
0000
0000
0000
0000
0000
0000
0000
0000
ENDCHAR
STARTCHAR a
ENCODING 97
SWIDTH 540 0
DWIDTH 9 0
BBX 9 18 0 -4
BITMAP
0000
0000
0000
0000
0000
0000
0000
3E00
0100
0100
3F00
4100
4300
3D00
0000
0000
0000
0000
ENDCHAR
STARTCHAR b
ENCODING 98
SWIDTH 540 0
DWIDTH 9 0
BBX 9 18 0 -4
BITMAP
0000
0000
0000
0000
4000
4000
4000
5E00
6100
4100
4100
4100
6100
5E00
0000
0000
0000
0000
ENDCHAR
STARTCHAR c
ENCODING 99
SWIDTH 540 0
DWIDTH 9 0
BBX 9 18 0 -4
BITMAP
0000
0000
0000
0000
0000
0000
0000
3E00
4100
4000
4000
4000
4100
3E00
0000
0000
0000
0000
ENDCHAR
STARTCHAR d
ENCODING 100
SWIDTH 540 0
DWIDTH 9 0
BBX 9 18 0 -4
BITMAP
0000
0000
0000
0000
0100
0100
0100
3D00
4300
4100
4100
4100
4300
3D00
0000
0000
0000
0000
ENDCHAR
STARTCHAR e
ENCODING 101
SWIDTH 540 0
DWIDTH 9 0
BBX 9 18 0 -4
BITMAP
0000
0000
0000
0000
0000
0000
0000
3E00
4100
4100
7F00
4000
4100
3E00
0000
0000
0000
0000
ENDCHAR
STARTCHAR f
ENCODING 102
SWIDTH 540 0
DWIDTH 9 0
BBX 9 18 0 -4
BITMAP
0000
0000
0000
0000
0E00
1100
1100
1000
1000
7C00
1000
1000
1000
1000
0000
0000
0000
0000
ENDCHAR
STARTCHAR g
ENCODING 103
SWIDTH 540 0
DWIDTH 9 0
BBX 9 18 0 -4
BITMAP
0000
0000
0000
0000
0000
0000
0000
3D00
4200
4200
4200
3C00
4000
3E00
4100
4100
3E00
0000
ENDCHAR
STARTCHAR h
ENCODING 104
SWIDTH 540 0
DWIDTH 9 0
BBX 9 18 0 -4
BITMAP
0000
0000
0000
0000
4000
4000
4000
5E00
6100
4100
4100
4100
4100
4100
0000
0000
0000
0000
ENDCHAR
STARTCHAR i
ENCODING 105
SWIDTH 540 0
DWIDTH 9 0
BBX 9 18 0 -4
BITMAP
0000
0000
0000
0000
1800
0000
0000
3800
0800
0800
0800
0800
0800
3E00
0000
0000
0000
0000
ENDCHAR
STARTCHAR j
ENCODING 106
SWIDTH 540 0
DWIDTH 9 0
BBX 9 18 0 -4
BITMAP
0000
0000
0000
0000
0600
0000
0000
0E00
0200
0200
0200
0200
0200
0200
2200
2200
1C00
0000
ENDCHAR
STARTCHAR k
ENCODING 107
SWIDTH 540 0
DWIDTH 9 0
BBX 9 18 0 -4
BITMAP
0000
0000
0000
0000
4000
4000
4000
4200
4400
4800
5800
6400
4200
4100
0000
0000
0000
0000
ENDCHAR
STARTCHAR l
ENCODING 108
SWIDTH 540 0
DWIDTH 9 0
BBX 9 18 0 -4
BITMAP
0000
0000
0000
0000
3800
0800
0800
0800
0800
0800
0800
0800
0800
3E00
0000
0000
0000
0000
ENDCHAR
STARTCHAR m
ENCODING 109
SWIDTH 540 0
DWIDTH 9 0
BBX 9 18 0 -4
BITMAP
0000
0000
0000
0000
0000
0000
0000
7600
4900
4900
4900
4900
4900
4100
0000
0000
0000
0000
ENDCHAR
STARTCHAR n
ENCODING 110
SWIDTH 540 0
DWIDTH 9 0
BBX 9 18 0 -4
BITMAP
0000
0000
0000
0000
0000
0000
0000
5E00
6100
4100
4100
4100
4100
4100
0000
0000
0000
0000
ENDCHAR
STARTCHAR o
ENCODING 111
SWIDTH 540 0
DWIDTH 9 0
BBX 9 18 0 -4
BITMAP
0000
0000
0000
0000
0000
0000
0000
3E00
4100
4100
4100
4100
4100
3E00
0000
0000
0000
0000
ENDCHAR
STARTCHAR p
ENCODING 112
SWIDTH 540 0
DWIDTH 9 0
BBX 9 18 0 -4
BITMAP
0000
0000
0000
0000
0000
0000
0000
5C00
6200
4100
4100
4100
6200
5C00
4000
4000
4000
0000
ENDCHAR
STARTCHAR q
ENCODING 113
SWIDTH 540 0
DWIDTH 9 0
BBX 9 18 0 -4
BITMAP
0000
0000
0000
0000
0000
0000
0000
1D00
2300
4100
4100
4100
2300
1D00
0100
0100
0100
0000
ENDCHAR
STARTCHAR r
ENCODING 114
SWIDTH 540 0
DWIDTH 9 0
BBX 9 18 0 -4
BITMAP
0000
0000
0000
0000
0000
0000
0000
4E00
3100
2100
2000
2000
2000
2000
0000
0000
0000
0000
ENDCHAR
STARTCHAR s
ENCODING 115
SWIDTH 540 0
DWIDTH 9 0
BBX 9 18 0 -4
BITMAP
0000
0000
0000
0000
0000
0000
0000
3E00
4100
4000
3E00
0100
4100
3E00
0000
0000
0000
0000
ENDCHAR
STARTCHAR t
ENCODING 116
SWIDTH 540 0
DWIDTH 9 0
BBX 9 18 0 -4
BITMAP
0000
0000
0000
0000
0000
1000
1000
7E00
1000
1000
1000
1000
1100
0E00
0000
0000
0000
0000
ENDCHAR
STARTCHAR u
ENCODING 117
SWIDTH 540 0
DWIDTH 9 0
BBX 9 18 0 -4
BITMAP
0000
0000
0000
0000
0000
0000
0000
4100
4100
4100
4100
4100
4300
3D00
0000
0000
0000
0000
ENDCHAR
STARTCHAR v
ENCODING 118
SWIDTH 540 0
DWIDTH 9 0
BBX 9 18 0 -4
BITMAP
0000
0000
0000
0000
0000
0000
0000
4100
4100
2200
2200
1400
1400
0800
0000
0000
0000
0000
ENDCHAR
STARTCHAR w
ENCODING 119
SWIDTH 540 0
DWIDTH 9 0
BBX 9 18 0 -4
BITMAP
0000
0000
0000
0000
0000
0000
0000
4100
4100
4900
4900
4900
5500
2200
0000
0000
0000
0000
ENDCHAR
STARTCHAR x
ENCODING 120
SWIDTH 540 0
DWIDTH 9 0
BBX 9 18 0 -4
BITMAP
0000
0000
0000
0000
0000
0000
0000
4100
2200
1400
0800
1400
2200
4100
0000
0000
0000
0000
ENDCHAR
STARTCHAR y
ENCODING 121
SWIDTH 540 0
DWIDTH 9 0
BBX 9 18 0 -4
BITMAP
0000
0000
0000
0000
0000
0000
0000
2100
2100
1200
1200
1200
0C00
0C00
0800
4800
3000
0000
ENDCHAR
STARTCHAR z
ENCODING 122
SWIDTH 540 0
DWIDTH 9 0
BBX 9 18 0 -4
BITMAP
0000
0000
0000
0000
0000
0000
0000
7F00
0200
0400
0800
1000
2000
7F00
0000
0000
0000
0000
ENDCHAR
STARTCHAR braceleft
ENCODING 123
SWIDTH 540 0
DWIDTH 9 0
BBX 9 18 0 -4
BITMAP
0000
0000
0000
0700
0800
0800
0800
0800
3000
0800
0800
0800
0800
0700
0000
0000
0000
0000
ENDCHAR
STARTCHAR bar
ENCODING 124
SWIDTH 540 0
DWIDTH 9 0
BBX 9 18 0 -4
BITMAP
0000
0000
0000
0800
0800
0800
0800
0800
0800
0800
0800
0800
0800
0800
0800
0000
0000
0000
ENDCHAR
STARTCHAR braceright
ENCODING 125
SWIDTH 540 0
DWIDTH 9 0
BBX 9 18 0 -4
BITMAP
0000
0000
0000
7000
0800
0800
0800
0800
0600
0800
0800
0800
0800
7000
0000
0000
0000
0000
ENDCHAR
STARTCHAR asciitilde
ENCODING 126
SWIDTH 540 0
DWIDTH 9 0
BBX 9 18 0 -4
BITMAP
0000
0000
0000
0000
3100
4900
4600
0000
0000
0000
0000
0000
0000
0000
0000
0000
0000
0000
ENDCHAR
STARTCHAR space
ENCODING 160
SWIDTH 540 0
DWIDTH 9 0
BBX 9 18 0 -4
BITMAP
0000
0000
0000
0000
0000
0000
0000
0000
0000
0000
0000
0000
0000
0000
0000
0000
0000
0000
ENDCHAR
STARTCHAR uni0E01
ENCODING 161
SWIDTH 540 0
DWIDTH 9 0
BBX 9 18 0 -4
BITMAP
0000
0000
0000
0000
0000
0000
0000
3E00
4100
6100
2100
2100
2100
2100
0000
0000
0000
0000
ENDCHAR
STARTCHAR uni0E02
ENCODING 162
SWIDTH 540 0
DWIDTH 9 0
BBX 9 18 0 -4
BITMAP
0000
0000
0000
0000
0000
0000
0000
3100
6900
5900
2900
0900
0900
0600
0000
0000
0000
0000
ENDCHAR
STARTCHAR uni0E03
ENCODING 163
SWIDTH 540 0
DWIDTH 9 0
BBX 9 18 0 -4
BITMAP
0000
0000
0000
0000
0000
0000
0000
5100
6900
4900
2900
0900
0900
0600
0000
0000
0000
0000
ENDCHAR
STARTCHAR uni0E04
ENCODING 164
SWIDTH 540 0
DWIDTH 9 0
BBX 9 18 0 -4
BITMAP
0000
0000
0000
0000
0000
0000
0000
3E00
4100
4900
5500
2900
4100
4100
0000
0000
0000
0000
ENDCHAR
STARTCHAR uni0E05
ENCODING 165
SWIDTH 540 0
DWIDTH 9 0
BBX 9 18 0 -4
BITMAP
0000
0000
0000
0000
0000
0000
0000
3600
4900
4900
5500
2900
4100
4100
0000
0000
0000
0000
ENDCHAR
STARTCHAR uni0E06
ENCODING 166
SWIDTH 540 0
DWIDTH 9 0
BBX 9 18 0 -4
BITMAP
0000
0000
0000
0000
0000
0000
0000
5100
7100
5100
1100
3900
5500
2200
0000
0000
0000
0000
ENDCHAR
STARTCHAR uni0E07
ENCODING 167
SWIDTH 540 0
DWIDTH 9 0
BBX 9 18 0 -4
BITMAP
0000
0000
0000
0000
0000
0000
0000
0200
0500
0300
2100
1100
0900
0600
0000
0000
0000
0000
ENDCHAR
STARTCHAR uni0E08
ENCODING 168
SWIDTH 540 0
DWIDTH 9 0
BBX 9 18 0 -4
BITMAP
0000
0000
0000
0000
0000
0000
0000
3E00
4100
0900
1500
0D00
0500
0200
0000
0000
0000
0000
ENDCHAR
STARTCHAR uni0E09
ENCODING 169
SWIDTH 540 0
DWIDTH 9 0
BBX 9 18 0 -4
BITMAP
0000
0000
0000
0000
0000
0000
0000
3C00
4200
2200
5200
3300
1680
0900
0000
0000
0000
0000
ENDCHAR
STARTCHAR uni0E0A
ENCODING 170
SWIDTH 540 0
DWIDTH 9 0
BBX 9 18 0 -4
BITMAP
0000
0000
0000
0000
0000
0000
0100
3100
6A00
5900
2900
0900
0900
0600
0000
0000
0000
0000
ENDCHAR
STARTCHAR uni0E0B
ENCODING 171
SWIDTH 540 0
DWIDTH 9 0
BBX 9 18 0 -4
BITMAP
0000
0000
0000
0000
0000
0000
0100
5100
6A00
4900
2900
0900
0900
0600
0000
0000
0000
0000
ENDCHAR
STARTCHAR uni0E0C
ENCODING 172
SWIDTH 540 0
DWIDTH 9 0
BBX 9 18 0 -4
BITMAP
0000
0000
0000
0000
0000
0000
0000
3900
4500
2500
4500
6D00
5700
2D00
0000
0000
0000
0000
ENDCHAR
STARTCHAR uni0E0D
ENCODING 173
SWIDTH 540 0
DWIDTH 9 0
BBX 9 18 0 -4
BITMAP
0000
0000
0000
0000
0000
0000
0000
3100
4900
2900
4900
6900
5900
2600
0900
0E00
0000
0000
ENDCHAR
STARTCHAR uni0E0E
ENCODING 174
SWIDTH 540 0
DWIDTH 9 0
BBX 9 18 0 -4
BITMAP
0000
0000
0000
0000
0000
0000
0000
3E00
4100
6100
2100
6100
A100
4900
3D00
4B00
3000
0000
ENDCHAR
STARTCHAR uni0E0F
ENCODING 175
SWIDTH 540 0
DWIDTH 9 0
BBX 9 18 0 -4
BITMAP
0000
0000
0000
0000
0000
0000
0000
3E00
4100
6100
2100
6100
A100
5100
3500
5B00
2000
0000
ENDCHAR
STARTCHAR uni0E10
ENCODING 176
SWIDTH 540 0
DWIDTH 9 0
BBX 9 18 0 -4
BITMAP
0000
0000
0000
0000
0000
0000
0000
3D00
4200
7E00
0900
1500
0D00
0200
3300
5500
2B00
0000
ENDCHAR
STARTCHAR uni0E11
ENCODING 177
SWIDTH 540 0
DWIDTH 9 0
BBX 9 18 0 -4
BITMAP
0000
0000
0000
0000
0000
0000
0000
A600
E900
A900
3100
3100
2100
2100
0000
0000
0000
0000
ENDCHAR
STARTCHAR uni0E12
ENCODING 178
SWIDTH 540 0
DWIDTH 9 0
BBX 9 18 0 -4
BITMAP
0000
0000
0000
0000
0000
0000
0000
2900
5500
4500
7500
5500
6F00
4D00
0000
0000
0000
0000
ENDCHAR
STARTCHAR uni0E13
ENCODING 179
SWIDTH 540 0
DWIDTH 9 0
BBX 9 18 0 -4
BITMAP
0000
0000
0000
0000
0000
0000
0000
3200
4A00
2A00
4A00
6B00
5E80
2900
0000
0000
0000
0000
ENDCHAR
STARTCHAR uni0E14
ENCODING 180
SWIDTH 540 0
DWIDTH 9 0
BBX 9 18 0 -4
BITMAP
0000
0000
0000
0000
0000
0000
0000
3E00
4100
4900
5500
4900
5100
2100
0000
0000
0000
0000
ENDCHAR
STARTCHAR uni0E15
ENCODING 181
SWIDTH 540 0
DWIDTH 9 0
BBX 9 18 0 -4
BITMAP
0000
0000
0000
0000
0000
0000
0000
3600
4900
4900
5500
4900
5100
2100
0000
0000
0000
0000
ENDCHAR
STARTCHAR uni0E16
ENCODING 182
SWIDTH 540 0
DWIDTH 9 0
BBX 9 18 0 -4
BITMAP
0000
0000
0000
0000
0000
0000
0000
3E00
4100
6100
2100
3100
2900
1100
0000
0000
0000
0000
ENDCHAR
STARTCHAR uni0E17
ENCODING 183
SWIDTH 540 0
DWIDTH 9 0
BBX 9 18 0 -4
BITMAP
0000
0000
0000
0000
0000
0000
0000
4600
A900
6900
3100
3100
2100
2100
0000
0000
0000
0000
ENDCHAR
STARTCHAR uni0E18
ENCODING 184
SWIDTH 540 0
DWIDTH 9 0
BBX 9 18 0 -4
BITMAP
0000
0000
0000
0000
0000
0000
0000
3D00
4200
7E00
2100
2100
2100
1E00
0000
0000
0000
0000
ENDCHAR
STARTCHAR uni0E19
ENCODING 185
SWIDTH 540 0
DWIDTH 9 0
BBX 9 18 0 -4
BITMAP
0000
0000
0000
0000
0000
0000
0000
4200
A200
6200
2200
2700
2A80
3100
0000
0000
0000
0000
ENDCHAR
STARTCHAR uni0E1A
ENCODING 186
SWIDTH 540 0
DWIDTH 9 0
BBX 9 18 0 -4
BITMAP
0000
0000
0000
0000
0000
0000
0000
4100
A100
6100
2100
2100
2100
1E00
0000
0000
0000
0000
ENDCHAR
STARTCHAR uni0E1B
ENCODING 187
SWIDTH 540 0
DWIDTH 9 0
BBX 9 18 0 -4
BITMAP
0000
0000
0000
0000
0000
0100
0100
4100
A100
6100
2100
2100
2100
1E00
0000
0000
0000
0000
ENDCHAR
STARTCHAR uni0E1C
ENCODING 188
SWIDTH 540 0
DWIDTH 9 0
BBX 9 18 0 -4
BITMAP
0000
0000
0000
0000
0000
0000
0000
2100
5100
6100
4100
4900
4900
3600
0000
0000
0000
0000
ENDCHAR
STARTCHAR uni0E1D
ENCODING 189
SWIDTH 540 0
DWIDTH 9 0
BBX 9 18 0 -4
BITMAP
0000
0000
0000
0000
0000
0100
0100
2100
5100
6100
4100
4900
4900
3600
0000
0000
0000
0000
ENDCHAR
STARTCHAR uni0E1E
ENCODING 190
SWIDTH 540 0
DWIDTH 9 0
BBX 9 18 0 -4
BITMAP
0000
0000
0000
0000
0000
0000
0000
4100
A100
6D00
2D00
3300
3300
2100
0000
0000
0000
0000
ENDCHAR
STARTCHAR uni0E1F
ENCODING 191
SWIDTH 540 0
DWIDTH 9 0
BBX 9 18 0 -4
BITMAP
0000
0000
0000
0000
0000
0100
0100
4100
A100
6D00
2D00
3300
3300
2100
0000
0000
0000
0000
ENDCHAR
STARTCHAR uni0E20
ENCODING 192
SWIDTH 540 0
DWIDTH 9 0
BBX 9 18 0 -4
BITMAP
0000
0000
0000
0000
0000
0000
0000
3E00
4100
6100
2100
6100
A100
4100
0000
0000
0000
0000
ENDCHAR
STARTCHAR uni0E21
ENCODING 193
SWIDTH 540 0
DWIDTH 9 0
BBX 9 18 0 -4
BITMAP
0000
0000
0000
0000
0000
0000
0000
2100
5100
3100
1100
3900
5500
2200
0000
0000
0000
0000
ENDCHAR
STARTCHAR uni0E22
ENCODING 194
SWIDTH 540 0
DWIDTH 9 0
BBX 9 18 0 -4
BITMAP
0000
0000
0000
0000
0000
0000
0000
2100
5100
6100
3100
4100
4100
3E00
0000
0000
0000
0000
ENDCHAR
STARTCHAR uni0E23
ENCODING 195
SWIDTH 540 0
DWIDTH 9 0
BBX 9 18 0 -4
BITMAP
0000
0000
0000
0000
0000
0000
0000
3D00
4200
7C00
0200
0600
0A00
0400
0000
0000
0000
0000
ENDCHAR
STARTCHAR uni0E24
ENCODING 196
SWIDTH 540 0
DWIDTH 9 0
BBX 9 18 0 -4
BITMAP
0000
0000
0000
0000
0000
0000
0000
3E00
4100
6100
2100
3100
2900
1100
0100
0100
0000
0000
ENDCHAR
STARTCHAR uni0E25
ENCODING 197
SWIDTH 540 0
DWIDTH 9 0
BBX 9 18 0 -4
BITMAP
0000
0000
0000
0000
0000
0000
0000
3E00
4100
3900
4500
6300
5100
2100
0000
0000
0000
0000
ENDCHAR
STARTCHAR uni0E26
ENCODING 198
SWIDTH 540 0
DWIDTH 9 0
BBX 9 18 0 -4
BITMAP
0000
0000
0000
0000
0000
0000
0000
3E00
4100
6100
2100
6100
A100
4100
0100
0100
0000
0000
ENDCHAR
STARTCHAR uni0E27
ENCODING 199
SWIDTH 540 0
DWIDTH 9 0
BBX 9 18 0 -4
BITMAP
0000
0000
0000
0000
0000
0000
0000
3E00
4100
0100
0100
0300
0500
0200
0000
0000
0000
0000
ENDCHAR
STARTCHAR uni0E28
ENCODING 200
SWIDTH 540 0
DWIDTH 9 0
BBX 9 18 0 -4
BITMAP
0000
0000
0000
0000
0000
0000
0100
3E00
4100
4900
5500
2900
4100
4100
0000
0000
0000
0000
ENDCHAR
STARTCHAR uni0E29
ENCODING 201
SWIDTH 540 0
DWIDTH 9 0
BBX 9 18 0 -4
BITMAP
0000
0000
0000
0000
0000
0000
0000
4100
A500
6B80
2700
2100
2100
1E00
0000
0000
0000
0000
ENDCHAR
STARTCHAR uni0E2A
ENCODING 202
SWIDTH 540 0
DWIDTH 9 0
BBX 9 18 0 -4
BITMAP
0000
0000
0000
0000
0000
0000
0100
3E00
4100
3900
4500
6300
5100
2100
0000
0000
0000
0000
ENDCHAR
STARTCHAR uni0E2B
ENCODING 203
SWIDTH 540 0
DWIDTH 9 0
BBX 9 18 0 -4
BITMAP
0000
0000
0000
0000
0000
0000
0000
4200
A500
6200
2500
2900
3100
2100
0000
0000
0000
0000
ENDCHAR
STARTCHAR uni0E2C
ENCODING 204
SWIDTH 540 0
DWIDTH 9 0
BBX 9 18 0 -4
BITMAP
0000
0000
0000
0000
0000
0000
0100
4600
A100
6D00
2D00
3300
3300
2100
0000
0000
0000
0000
ENDCHAR
STARTCHAR uni0E2D
ENCODING 205
SWIDTH 540 0
DWIDTH 9 0
BBX 9 18 0 -4
BITMAP
0000
0000
0000
0000
0000
0000
0000
3E00
4100
2100
5100
6100
4100
3E00
0000
0000
0000
0000
ENDCHAR
STARTCHAR uni0E2E
ENCODING 206
SWIDTH 540 0
DWIDTH 9 0
BBX 9 18 0 -4
BITMAP
0000
0000
0000
0000
0000
0000
0100
3F00
4300
3D00
2100
5100
6100
3E00
0000
0000
0000
0000
ENDCHAR
STARTCHAR uni0E2F
ENCODING 207
SWIDTH 540 0
DWIDTH 9 0
BBX 9 18 0 -4
BITMAP
0000
0000
0000
0000
0000
0000
0000
2300
5500
3900
0100
0100
0100
0100
0000
0000
0000
0000
ENDCHAR
STARTCHAR uni0E30
ENCODING 208
SWIDTH 540 0
DWIDTH 9 0
BBX 9 18 0 -4
BITMAP
0000
0000
0000
0000
0000
0000
0000
2100
5200
3C00
0000
2100
5200
3C00
0000
0000
0000
0000
ENDCHAR
STARTCHAR uni0E31
ENCODING 209
SWIDTH 540 0
DWIDTH 9 0
BBX 9 18 0 -4
BITMAP
0000
0000
0000
1080
2900
1E00
0000
0000
0000
0000
0000
0000
0000
0000
0000
0000
0000
0000
ENDCHAR
STARTCHAR uni0E32
ENCODING 210
SWIDTH 540 0
DWIDTH 9 0
BBX 9 18 0 -4
BITMAP
0000
0000
0000
0000
0000
0000
0000
3E00
4100
0100
0100
0100
0100
0100
0000
0000
0000
0000
ENDCHAR
STARTCHAR uni0E33
ENCODING 211
SWIDTH 540 0
DWIDTH 9 0
BBX 9 18 0 -4
BITMAP
0000
0000
0000
0000
0000
4000
A000
4E00
1100
0100
0100
0100
0100
0100
0000
0000
0000
0000
ENDCHAR
STARTCHAR uni0E34
ENCODING 212
SWIDTH 540 0
DWIDTH 9 0
BBX 9 18 0 -4
BITMAP
0000
0000
0000
3C00
4200
7F00
0000
0000
0000
0000
0000
0000
0000
0000
0000
0000
0000
0000
ENDCHAR
STARTCHAR uni0E35
ENCODING 213
SWIDTH 540 0
DWIDTH 9 0
BBX 9 18 0 -4
BITMAP
0000
0000
0000
3D00
4300
7F00
0000
0000
0000
0000
0000
0000
0000
0000
0000
0000
0000
0000
ENDCHAR
STARTCHAR uni0E36
ENCODING 214
SWIDTH 540 0
DWIDTH 9 0
BBX 9 18 0 -4
BITMAP
0000
0000
0000
3200
4D00
7E00
0000
0000
0000
0000
0000
0000
0000
0000
0000
0000
0000
0000
ENDCHAR
STARTCHAR uni0E37
ENCODING 215
SWIDTH 540 0
DWIDTH 9 0
BBX 9 18 0 -4
BITMAP
0000
0000
0000
3500
4D00
7F00
0000
0000
0000
0000
0000
0000
0000
0000
0000
0000
0000
0000
ENDCHAR
STARTCHAR uni0E38
ENCODING 216
SWIDTH 540 0
DWIDTH 9 0
BBX 9 18 0 -4
BITMAP
0000
0000
0000
0000
0000
0000
0000
0000
0000
0000
0000
0000
0000
0000
0000
0300
0300
0100
ENDCHAR
STARTCHAR uni0E39
ENCODING 217
SWIDTH 540 0
DWIDTH 9 0
BBX 9 18 0 -4
BITMAP
0000
0000
0000
0000
0000
0000
0000
0000
0000
0000
0000
0000
0000
0000
0000
0D00
0D00
0700
ENDCHAR
STARTCHAR uni0E3A
ENCODING 218
SWIDTH 540 0
DWIDTH 9 0
BBX 9 18 0 -4
BITMAP
0000
0000
0000
0000
0000
0000
0000
0000
0000
0000
0000
0000
0000
0000
0000
0300
0300
0000
ENDCHAR
STARTCHAR uni0E3F
ENCODING 223
SWIDTH 540 0
DWIDTH 9 0
BBX 9 18 0 -4
BITMAP
0000
0000
0000
0000
0800
7E00
4900
4900
7E00
4900
4900
4900
7E00
0800
0000
0000
0000
0000
ENDCHAR
STARTCHAR uni0E40
ENCODING 224
SWIDTH 540 0
DWIDTH 9 0
BBX 9 18 0 -4
BITMAP
0000
0000
0000
0000
0000
0000
0000
1000
1000
1000
1000
1800
1400
0800
0000
0000
0000
0000
ENDCHAR
STARTCHAR uni0E41
ENCODING 225
SWIDTH 540 0
DWIDTH 9 0
BBX 9 18 0 -4
BITMAP
0000
0000
0000
0000
0000
0000
0000
4400
4400
4400
4400
6600
5500
2200
0000
0000
0000
0000
ENDCHAR
STARTCHAR uni0E42
ENCODING 226
SWIDTH 540 0
DWIDTH 9 0
BBX 9 18 0 -4
BITMAP
0000
0000
0000
0000
0000
3D00
4200
7C00
0400
0400
0400
0600
0500
0200
0000
0000
0000
0000
ENDCHAR
STARTCHAR uni0E43
ENCODING 227
SWIDTH 540 0
DWIDTH 9 0
BBX 9 18 0 -4
BITMAP
0000
0000
0000
0000
3800
6400
5400
2400
0400
0400
0400
0600
0500
0200
0000
0000
0000
0000
ENDCHAR
STARTCHAR uni0E44
ENCODING 228
SWIDTH 540 0
DWIDTH 9 0
BBX 9 18 0 -4
BITMAP
0000
0000
0000
0000
0000
8C00
5400
2400
0400
0400
0400
0600
0500
0200
0000
0000
0000
0000
ENDCHAR
STARTCHAR uni0E45
ENCODING 229
SWIDTH 540 0
DWIDTH 9 0
BBX 9 18 0 -4
BITMAP
0000
0000
0000
0000
0000
0000
0000
3E00
4100
0100
0100
0100
0100
0100
0100
0100
0000
0000
ENDCHAR
STARTCHAR uni0E46
ENCODING 230
SWIDTH 540 0
DWIDTH 9 0
BBX 9 18 0 -4
BITMAP
0000
0000
0000
0000
0000
0000
0000
3600
4900
6100
5100
2100
0100
0100
0100
0100
0200
0000
ENDCHAR
STARTCHAR uni0E47
ENCODING 231
SWIDTH 540 0
DWIDTH 9 0
BBX 9 18 0 -4
BITMAP
0000
0000
0100
3E00
4900
3600
0000
0000
0000
0000
0000
0000
0000
0000
0000
0000
0000
0000
ENDCHAR
STARTCHAR uni0E48
ENCODING 232
SWIDTH 540 0
DWIDTH 9 0
BBX 9 18 0 -4
BITMAP
0100
0100
0000
0000
0000
0000
0000
0000
0000
0000
0000
0000
0000
0000
0000
0000
0000
0000
ENDCHAR
STARTCHAR uni0E49
ENCODING 233
SWIDTH 540 0
DWIDTH 9 0
BBX 9 18 0 -4
BITMAP
3100
1E00
0000
0000
0000
0000
0000
0000
0000
0000
0000
0000
0000
0000
0000
0000
0000
0000
ENDCHAR
STARTCHAR uni0E4A
ENCODING 234
SWIDTH 540 0
DWIDTH 9 0
BBX 9 18 0 -4
BITMAP
6D00
5600
0000
0000
0000
0000
0000
0000
0000
0000
0000
0000
0000
0000
0000
0000
0000
0000
ENDCHAR
STARTCHAR uni0E4B
ENCODING 235
SWIDTH 540 0
DWIDTH 9 0
BBX 9 18 0 -4
BITMAP
0200
0700
0200
0000
0000
0000
0000
0000
0000
0000
0000
0000
0000
0000
0000
0000
0000
0000
ENDCHAR
STARTCHAR uni0E4C
ENCODING 236
SWIDTH 540 0
DWIDTH 9 0
BBX 9 18 0 -4
BITMAP
3900
3600
0000
0000
0000
0000
0000
0000
0000
0000
0000
0000
0000
0000
0000
0000
0000
0000
ENDCHAR
STARTCHAR uni0E4D
ENCODING 237
SWIDTH 540 0
DWIDTH 9 0
BBX 9 18 0 -4
BITMAP
0000
0000
0000
0800
1400
0800
0000
0000
0000
0000
0000
0000
0000
0000
0000
0000
0000
0000
ENDCHAR
STARTCHAR uni0E4E
ENCODING 238
SWIDTH 540 0
DWIDTH 9 0
BBX 9 18 0 -4
BITMAP
0000
0300
0400
0E00
1000
0C00
0000
0000
0000
0000
0000
0000
0000
0000
0000
0000
0000
0000
ENDCHAR
STARTCHAR uni0E4F
ENCODING 239
SWIDTH 540 0
DWIDTH 9 0
BBX 9 18 0 -4
BITMAP
0000
0000
0000
0000
0000
0000
0000
1C00
2200
4900
5500
4900
2200
1C00
0000
0000
0000
0000
ENDCHAR
STARTCHAR uni0E50
ENCODING 240
SWIDTH 540 0
DWIDTH 9 0
BBX 9 18 0 -4
BITMAP
0000
0000
0000
0000
0000
0000
0000
1C00
2200
4100
4100
4100
2200
1C00
0000
0000
0000
0000
ENDCHAR
STARTCHAR uni0E51
ENCODING 241
SWIDTH 540 0
DWIDTH 9 0
BBX 9 18 0 -4
BITMAP
0000
0000
0000
0000
0000
0000
0000
1C00
2200
5100
6900
3100
0200
1C00
0000
0000
0000
0000
ENDCHAR
STARTCHAR uni0E52
ENCODING 242
SWIDTH 540 0
DWIDTH 9 0
BBX 9 18 0 -4
BITMAP
0000
0000
0000
0000
0000
0000
8000
4A00
5500
5900
5500
4900
4100
3E00
0000
0000
0000
0000
ENDCHAR
STARTCHAR uni0E53
ENCODING 243
SWIDTH 540 0
DWIDTH 9 0
BBX 9 18 0 -4
BITMAP
0000
0000
0000
0000
0000
0000
0000
3600
4900
4900
4900
6100
5100
2100
0000
0000
0000
0000
ENDCHAR
STARTCHAR uni0E54
ENCODING 244
SWIDTH 540 0
DWIDTH 9 0
BBX 9 18 0 -4
BITMAP
0000
0000
0000
0000
0000
0000
0080
1F00
2000
4400
4A00
4C00
2600
1F00
0000
0000
0000
0000
ENDCHAR
STARTCHAR uni0E55
ENCODING 245
SWIDTH 540 0
DWIDTH 9 0
BBX 9 18 0 -4
BITMAP
0000
0000
0000
0000
0000
0400
0A80
1F00
2000
4400
4A00
4C00
2600
1F00
0000
0000
0000
0000
ENDCHAR
STARTCHAR uni0E56
ENCODING 246
SWIDTH 540 0
DWIDTH 9 0
BBX 9 18 0 -4
BITMAP
0000
0000
0000
0000
0000
0000
8000
5C00
2200
0100
0100
1100
2A00
1C00
0000
0000
0000
0000
ENDCHAR
STARTCHAR uni0E57
ENCODING 247
SWIDTH 540 0
DWIDTH 9 0
BBX 9 18 0 -4
BITMAP
0000
0000
0000
0000
0000
0080
0100
6900
9500
9500
9500
C500
A500
4600
0000
0000
0000
0000
ENDCHAR
STARTCHAR uni0E58
ENCODING 248
SWIDTH 540 0
DWIDTH 9 0
BBX 9 18 0 -4
BITMAP
0000
0000
0000
0000
0000
0000
0080
1F00
2000
4200
4500
4300
3900
1600
0000
0000
0000
0000
ENDCHAR
STARTCHAR uni0E59
ENCODING 249
SWIDTH 540 0
DWIDTH 9 0
BBX 9 18 0 -4
BITMAP
0000
0000
0000
0000
0000
0000
0080
0280
3500
4C00
4400
5400
2A00
1200
0000
0000
0000
0000
ENDCHAR
STARTCHAR uni0E5A
ENCODING 250
SWIDTH 540 0
DWIDTH 9 0
BBX 9 18 0 -4
BITMAP
0000
0000
0000
0000
0000
0000
0000
6A00
7500
0500
0500
0500
0500
0A00
0000
0000
0000
0000
ENDCHAR
STARTCHAR uni0E5B
ENCODING 251
SWIDTH 540 0
DWIDTH 9 0
BBX 9 18 0 -4
BITMAP
0000
0000
0000
0000
0000
0000
0000
0000
2000
5000
5580
5600
4800
3000
0000
0000
0000
0000
ENDCHAR
ENDFONT
