/* XPM */
static char * mrxvt_root_xpm[] = {
"50 50 435 2",
"  	c None",
". 	c #1B1C1B",
"+ 	c #FFFFFF",
"@ 	c #DBDBDB",
"# 	c #A5A5A5",
"$ 	c #505450",
"% 	c #F0F0F0",
"& 	c #EFF1EF",
"* 	c #EFEFEF",
"= 	c #EEEFEE",
"- 	c #EEEEEE",
"; 	c #F0EFF0",
"> 	c #EFF0EF",
", 	c #EFF4EF",
"' 	c #EFEEEF",
") 	c #F0F3F0",
"! 	c #F0F6F0",
"~ 	c #EEF0EE",
"{ 	c #EAECEA",
"] 	c #EFF3EF",
"^ 	c #EDEEED",
"/ 	c #EDEDED",
"( 	c #EEF1EE",
"_ 	c #EEEDEE",
": 	c #EDEFED",
"< 	c #EEF2EE",
"[ 	c #EFF2EF",
"} 	c #E8EBE8",
"| 	c #DEDBDE",
"1 	c #F4F3F4",
"2 	c #F3F3F3",
"3 	c #F3F5F3",
"4 	c #F3F4F3",
"5 	c #F2F3F2",
"6 	c #F2F4F2",
"7 	c #F5F4F5",
"8 	c #F5F7F5",
"9 	c #F4F5F4",
"0 	c #F5F5F5",
"a 	c #F3F8F3",
"b 	c #F2F2F2",
"c 	c #F4F9F4",
"d 	c #E8EEE8",
"e 	c #E8ECE8",
"f 	c #E3EAE3",
"g 	c #EDF0ED",
"h 	c #F1F1F1",
"i 	c #DBD4DB",
"j 	c #DBD5DB",
"k 	c #DAD5DA",
"l 	c #D5D5D5",
"m 	c #DCD4DC",
"n 	c #CDD4CD",
"o 	c #D3D5D3",
"p 	c #D4D4D4",
"q 	c #CDD5CD",
"r 	c #CBD5CB",
"s 	c #D8D5D8",
"t 	c #DCD5DC",
"u 	c #DBDDDB",
"v 	c #DBDCDB",
"w 	c #DCDDDC",
"x 	c #E8EDE8",
"y 	c #E7EBE7",
"z 	c #FAFBFA",
"A 	c #434743",
"B 	c #000000",
"C 	c #010001",
"D 	c #010101",
"E 	c #000100",
"F 	c #1E271E",
"G 	c #F9F9F9",
"H 	c #FBFAFB",
"I 	c #3C443C",
"J 	c #1A1717",
"K 	c #1A1818",
"L 	c #1B191A",
"M 	c #1C1A1A",
"N 	c #1D1B1B",
"O 	c #1E1C1C",
"P 	c #1F1D1D",
"Q 	c #211E1E",
"R 	c #221F1F",
"S 	c #232020",
"T 	c #232121",
"U 	c #252222",
"V 	c #262323",
"W 	c #272424",
"X 	c #282425",
"Y 	c #282625",
"Z 	c #292727",
"` 	c #2B2828",
" .	c #2C2929",
"..	c #2D2A2A",
"+.	c #2E2A2B",
"@.	c #2F2C2C",
"#.	c #302C2C",
"$.	c #312E2D",
"%.	c #332E2E",
"&.	c #333030",
"*.	c #343030",
"=.	c #363231",
"-.	c #373232",
";.	c #373434",
">.	c #393434",
",.	c #3A3535",
"'.	c #3A3636",
").	c #3B3737",
"!.	c #3C3838",
"~.	c #3E3939",
"{.	c #3F3A3A",
"].	c #403B3B",
"^.	c #252925",
"/.	c #E6EAE6",
"(.	c #3C433C",
"_.	c #181617",
":.	c #191817",
"<.	c #1A1919",
"[.	c #1B1919",
"}.	c #1D1A1A",
"|.	c #1E1C1B",
"1.	c #1F1C1C",
"2.	c #201D1D",
"3.	c #211F1F",
"4.	c #242222",
"5.	c #262424",
"6.	c #272525",
"7.	c #292626",
"8.	c #2A2727",
"9.	c #2E2B2A",
"0.	c #2F2B2C",
"a.	c #302D2C",
"b.	c #312D2E",
"c.	c #332F2F",
"d.	c #353232",
"e.	c #363332",
"f.	c #383433",
"g.	c #393435",
"h.	c #3A3635",
"i.	c #3B3736",
"j.	c #3C3738",
"k.	c #3D3939",
"l.	c #3E3A39",
"m.	c #3F3B3B",
"n.	c #242824",
"o.	c #EFF6EF",
"p.	c #E1E8E1",
"q.	c #171516",
"r.	c #191616",
"s.	c #191818",
"t.	c #FFE125",
"u.	c #1C1B1B",
"v.	c #1E1D1C",
"w.	c #211F1E",
"x.	c #221F20",
"y.	c #232021",
"z.	c #242122",
"A.	c #252223",
"B.	c #262324",
"C.	c #282424",
"D.	c #282526",
"E.	c #2A2827",
"F.	c #2C2828",
"G.	c #2D2A29",
"H.	c #2E2A2A",
"I.	c #2F2B2B",
"J.	c #312D2D",
"K.	c #322E2E",
"L.	c #353131",
"M.	c #363232",
"N.	c #373333",
"O.	c #383434",
"P.	c #393535",
"Q.	c #3B3636",
"R.	c #3C3837",
"S.	c #3E3A3A",
"T.	c #EDF5ED",
"U.	c #DEE6DE",
"V.	c #F8F8F8",
"W.	c #171515",
"X.	c #181616",
"Y.	c #242121",
"Z.	c #252122",
"`.	c #252322",
" +	c #262423",
".+	c #292525",
"++	c #2A2728",
"@+	c #2D292A",
"#+	c #2F2C2B",
"$+	c #302D2D",
"%+	c #322F2E",
"&+	c #3D3838",
"*+	c #3D3839",
"=+	c #252825",
"-+	c #ECF5EC",
";+	c #161414",
">+	c #1D1A1B",
",+	c #1F1E1D",
"'+	c #201E1E",
")+	c #222020",
"!+	c #272423",
"~+	c #282524",
"{+	c #2E2B2B",
"]+	c #322D2E",
"^+	c #332F2E",
"/+	c #33302F",
"(+	c #343131",
"_+	c #353231",
":+	c #373334",
"<+	c #ECF4EC",
"[+	c #DEE5DE",
"}+	c #161313",
"|+	c #1B1A19",
"1+	c #1D1B1C",
"2+	c #1F1D1E",
"3+	c #211E1F",
"4+	c #232122",
"5+	c #282525",
"6+	c #34302F",
"7+	c #363233",
"8+	c #383334",
"9+	c #3C3737",
"0+	c #151313",
"a+	c #242221",
"b+	c #292627",
"c+	c #312E2E",
"d+	c #322F2F",
"e+	c #3A3536",
"f+	c #141213",
"g+	c #141313",
"h+	c #161515",
"i+	c #171616",
"j+	c #181717",
"k+	c #1C1A19",
"l+	c #2C2829",
"m+	c #343031",
"n+	c #363131",
"o+	c #383435",
"p+	c #EDF3ED",
"q+	c #F9F8F9",
"r+	c #131211",
"s+	c #141312",
"t+	c #1A1718",
"u+	c #252323",
"v+	c #2A2627",
"w+	c #2D2929",
"x+	c #2F2A2B",
"y+	c #353130",
"z+	c #373233",
"A+	c #383333",
"B+	c #ECF1EC",
"C+	c #DEE4DE",
"D+	c #121111",
"E+	c #161314",
"F+	c #161415",
"G+	c #191716",
"H+	c #1B1A1A",
"I+	c #1C1B1A",
"J+	c #232120",
"K+	c #342F30",
"L+	c #343130",
"M+	c #393534",
"N+	c #111010",
"O+	c #131212",
"P+	c #151414",
"Q+	c #191717",
"R+	c #1A1819",
"S+	c #1F1D1C",
"T+	c #201E1D",
"U+	c #22201F",
"V+	c #2E2B2C",
"W+	c #242924",
"X+	c #DFE2DF",
"Y+	c #11100F",
"Z+	c #121011",
"`+	c #131111",
" @	c #151314",
".@	c #161514",
"+@	c #201D1E",
"@@	c #262322",
"#@	c #2B2728",
"$@	c #2C292A",
"%@	c #363333",
"&@	c #DFE1DF",
"*@	c #100E0F",
"=@	c #10100F",
"-@	c #131112",
";@	c #292526",
">@	c #2B2727",
",@	c #2C2928",
"'@	c #302C2D",
")@	c #322D2D",
"!@	c #353030",
"~@	c #ECEDEC",
"{@	c #DEDFDE",
"]@	c #0F0E0D",
"^@	c #100F0F",
"/@	c #151213",
"(@	c #1E1C1D",
"_@	c #201E1F",
":@	c #302C2B",
"<@	c #322E2D",
"[@	c #DFDEDF",
"}@	c #ECEFEC",
"|@	c #0E0D0D",
"1@	c #0F0E0E",
"2@	c #1C1919",
"3@	c #1F1C1D",
"4@	c #292625",
"5@	c #292726",
"6@	c #262A26",
"7@	c #EBEBEB",
"8@	c #DEDEDE",
"9@	c #E8EFE8",
"0@	c #3D443D",
"a@	c #0D0C0C",
"b@	c #0E0E0E",
"c@	c #0F0E0F",
"d@	c #101010",
"e@	c #111011",
"f@	c #171615",
"g@	c #221E1F",
"h@	c #2C2A2A",
"i@	c #262926",
"j@	c #0D0B0C",
"k@	c #110F10",
"l@	c #151413",
"m@	c #191718",
"n@	c #1A1918",
"o@	c #1E1B1B",
"p@	c #DDDDDD",
"q@	c #0C0B0B",
"r@	c #161413",
"s@	c #21201F",
"t@	c #EBEAEB",
"u@	c #DDDADD",
"v@	c #0B0A0B",
"w@	c #0D0D0C",
"x@	c #0E0D0E",
"y@	c #100F0E",
"z@	c #110F0F",
"A@	c #262223",
"B@	c #272324",
"C@	c #2B2928",
"D@	c #0A090A",
"E@	c #0B0B0A",
"F@	c #0F0D0D",
"G@	c #100E0E",
"H@	c #121010",
"I@	c #141413",
"J@	c #181716",
"K@	c #1C1A1B",
"L@	c #2A2828",
"M@	c #EBE7EB",
"N@	c #DDD8DD",
"O@	c #090909",
"P@	c #0B0A0A",
"Q@	c #0D0B0B",
"R@	c #0D0D0D",
"S@	c #1A1817",
"T@	c #211F20",
"U@	c #2C2827",
"V@	c #DAD7DA",
"W@	c #090908",
"X@	c #0A0909",
"Y@	c #171415",
"Z@	c #1D1B1A",
"`@	c #1E1B1C",
" #	c #EAE7EA",
".#	c #D7D6D7",
"+#	c #E8EAE8",
"@#	c #080707",
"##	c #0A0809",
"$#	c #0A0A0A",
"%#	c #0C0B0C",
"&#	c #0D0C0D",
"*#	c #252221",
"=#	c #272323",
"-#	c #272524",
";#	c #2A2626",
">#	c #D7D7D7",
",#	c #E8E9E8",
"'#	c #070607",
")#	c #090708",
"!#	c #0B0A09",
"~#	c #0C0B0A",
"{#	c #100F10",
"]#	c #262B26",
"^#	c #E6E7E6",
"/#	c #D4D6D4",
"(#	c #070606",
"_#	c #070707",
":#	c #090808",
"<#	c #0C0C0C",
"[#	c #0F0D0E",
"}#	c #141212",
"|#	c #1B1818",
"1#	c #262D26",
"2#	c #E0E6E0",
"3#	c #D2D7D2",
"4#	c #050506",
"5#	c #060706",
"6#	c #0A0A09",
"7#	c #1B1918",
"8#	c #2B2829",
"9#	c #DDE4DD",
"0#	c #CED6CE",
"a#	c #E8E6E8",
"b#	c #050504",
"c#	c #060505",
"d#	c #0D0C0B",
"e#	c #1B1819",
"f#	c #201C1C",
"g#	c #231F20",
"h#	c #2A2726",
"i#	c #2B2827",
"j#	c #E6E5E6",
"k#	c #394039",
"l#	c #040404",
"m#	c #050505",
"n#	c #060606",
"o#	c #080807",
"p#	c #0C0A0B",
"q#	c #121110",
"r#	c #242021",
"s#	c #212721",
"t#	c #DBE3DB",
"u#	c #837E83",
"v#	c #4D524D",
"w#	c #505350",
"x#	c #505250",
"y#	c #4F504F",
"z#	c #4F534F",
"A#	c #696D69",
"B#	c #D6DCD6",
"                                                                                                    ",
"                                                                                                    ",
"                                                                                                    ",
"        . . . . . . . . . .   . . . . . . . .   . . . . . . . .                                     ",
"      . + + + + + + + + @ .   . # # # # # # .   . # # # # # # .                                     ",
"      . + + + + + + + + + @ . $ # # # # # # # . $ # # # # # # # .                                   ",
"      . + + + + + + + + + @ . $ # # # # # # # . $ # # # # # # # .                                   ",
"    . + + + + + + + + + + + @ . $ # # # # # # # . $ # # # # # # # . $                               ",
"    . @ @ @ @ @ @ @ @ @ @ @ @ @ . . . . . . . . . . . . . . . . . . . . . . . . . . . . . . .       ",
"  . @ % & * * * = = - - - = * ; > ; , & = > - - > = > * ' ) ' = = - - = = = * * ! ' = ~ { * ' .     ",
"  . ] @ = - ^ - ^ = / / ^ ^ - ^ - ' ( ~ _ : / / = / : - ' < - = : / / ^ ^ ^ - ^ [ = - = } * | & .   ",
"  . 1 ^ @ 2 3 4 3 ) 5 5 5 4 6 4 7 3 8 9 1 0 1 2 3 5 4 4 2 a 2 6 2 b b 5 5 2 2 2 c 2 2 4 d | e f .   ",
"  . g - h @ i i j k j j j l j m n i o p q n r s i t u v u u v w v u u u u v v u u v u j | x y f .   ",
"  . g - z A B B B B C C C C C D E D D D D D D D D D D D D D D D D D D D D D D D D D D B F G y f .   ",
"  . g - H I J K L M N O P Q R S T U V W X Y Z `  ...+.@.#.$.%.&.*.=.-.;.>.,.'.).!.~.{.].^.c /.f .   ",
"  . g - H (._.:.<.[.}.|.1.2.Q 3.S T 4.V 5.6.7.8.`  ...9.0.a.b.c.*.*.d.e.f.g.h.i.j.k.l.m.n.o.p.f .   ",
"  . g - G (.q.r.s.<.t.u.O v.t.w.x.y.z.A.B.C.D.7.E.F.G.H.I.#.J.K.c.*.L.M.N.O.P.Q.).R.~.S.^.T.U.f .   ",
"  . g - V.(.W.X.t.t.t.t.t.t.t.t.3.R Y.Z.`. +C..+7.++F.@+H.#+$+J.%+c.*.L.M.N.>.P.'.).&+*+=+-+U.f .   ",
"  . g - V.(.;+W.X.t.K [.>+t.O ,+'+3.)+T Z.V !+~+7.Z ` F.G.{+I.$+]+^+/+(+_+-.:+O.h.Q.j.*+^.<+[+f .   ",
"  . g - V.(.}+W.W.t.J K |+t.1+1.2+3+R S 4+U V W 5+7.8.`  .@+I.@.$+K.^+6+L.M.7+8+g.,.).9+n.-+[+f .   ",
"  . g - V.(.0+t.t.t.t.t.t.t.t.O P 2.3.)+S a+U B.W Y b+8.`  ...I.@.$+c+d+*.L.=.N.O.P.e+).=+-+[+f .   ",
"  . g - V.(.f+g+t.h+i+j+t.[.k+N O P t.t.t.t.t.t.B.X 7.Z ++l+G.+.I.#.J.K.c.m+n+M.N.o+,.'.n.p+[+f .   ",
"  . g - q+(.r+s+0+h+q.r.t+K |+M N 1.P '+3.)+Y.U u+W 5+7.v+` F.w+x+@.a.K.%+6+y+L.z+A+O.,.^.B+C+f .   ",
"  . g - > I D+r+f+E+F+W.G+:.<.H+I+|.1.,+3+x.J+Y.`.V W 5+7.8.`  .H.{+@.$+$.%+K+L+M.e.O.M+^.B+C+f .   ",
"  . g - % I N+D+O+g+P+W.i+Q+K R+k+}.O S+T+3+U+S Y.`.V C.5+7.8.F. .H.V+#.$+c+c.*.L.M.N.O.W+g X+f .   ",
"  . g - % I Y+Z+`+f+ @.@W.i+Q+K [.M N O P +@w.U+Y.4.@@W ~+.+v+#@F.$@{+I.#.$.%+c.L+_+%@N.W+/ &@f .   ",
"  . g - % I *@=@Z+-@s+P+;+q.j+Q+K L M N 1.2.Q R S Y.4.V W 6.;@8.>@,@w+9.0.'@)@c./+!@L.z+W+~@{@f .   ",
"  . g - % I ]@^@N+Z+O+/@P+h+q._.K <.[.N |.(@T+_@R J+Y.A.V W 5+7.8.,@w+..{+:@$+<@%+&.L+M.W+~@[@f .   ",
"  . g - }@I |@1@^@N+`+O+g+;+W.X.Q+s.[.2@N O 3@T+w.S S Z.V  +~+4@5@E.,@w+H.I.#.$.d+c.*.L.6@7@8@f .   ",
"  . g - 9@0@a@b@c@d@e@r+O+ @;+f@X.Q+K [.M N O P '+g@S Y.4.@@!+C.7.8.>@` h@{+@.a.J.K./+(+i@7@8@f .   ",
"  . g - 9@0@j@|@1@^@k@Z+`+g+l@;+i+X.m@n@L M o@(@2.3+R S Y.U u+W 5+7.8.` l+H.I.#+$+K.c./+i@7@p@f .   ",
"  . g - d 0@q@a@|@1@*@k@D+O+g+r@h+i+G+K R+k+}.O S+2+3+s@S a+U V W 5+5@8.`  .H.I.#.J.K.d+i@t@u@f .   ",
"  . g - x 0@v@j@w@x@y@z@N+`+O+0+P+h+X.Q+K [.H+N o@P '+3.R T 4.A@B@6..+b+8.C@$@..{+#.J.K.i@7@u@f .   ",
"  . g - } 0@D@E@a@w@F@G@N+H@r+O+I@h+h+J@Q+K [.K@N O P '+g@)+T z.u+W ~+.+8.L@l+$@9.@.#.J.i@M@N@f .   ",
"  . g - x 0@O@P@q@Q@R@1@*@k@D+r+f+ @.@f@_.S@<.[.>+N 1.P '+T@)+Y.A.V W 5+7.>@U@ .H.x+@.$+i@M@V@f .   ",
"  . g - } 0@W@X@P@q@a@|@1@^@N+Z+-@g+P+Y@i+r.:.[.M Z@`@v.T+w.x.J+4.`.V W ;@b+#@` w+H.I.#.i@ #.#f .   ",
"  . g - +#0@@###$#P@%#&#1@^@^@H@-@O+0+P+h+X.j+s.[.M Z@O S+T+w.)+S *#A.=#-#7.;#8.,@ .9.@.i@ #>#f .   ",
"  . g - ,#0@'#)#O@!#~#j@|@1@y@{#N+D+s+l@h+W.X.Q+K [.M |.O P Q R x.T 4.A@5.6.7.Z ` l+w+{+]#^#/#f .   ",
"  . g - ,#0@(#_#:#X@P@~#<#|@[#^@k@D+`+}#l@F+f@J@m@|#L }.1+1.2.Q R S T U V W 5+7.8.F. ...1#2#3#f .   ",
"  . g - ,#0@4#5#@#:#6#P@q@a@|@1@^@N+`+O+0+ @W.i+_.m@7#k+>+`@1.2.3+U+S Y.A. +-#D.7.8.8#w+1#9#0#f .   ",
"  . g - a#0@b#c#(#@#O@X@E@d#R@|@1@^@N+D+O+I@P+h+X.j+K e#k+Z@O f#'+R g#J+4.A@5.5+7.h#i# .1#C+0#f .   ",
"  . g - j#k#l#m#n#_#o#O@6#p#q@|@]@^@z@q#-@O+0+;+W.X.m@K 2@}.N v.2.'+R S r#U V W 5+7.h#` s#t#0#f .   ",
"  . g - [@u#v#$ $ $ $ $ $ $ $ $ $ $ w#x#$ y#y#w#$ $ $ $ $ $ $ $ $ $ $ $ $ $ $ $ $ $ $ z#A#B#0#f .   ",
"  . g - @ @ i i j k j j j l j m n i o p q n r s i t u v u u v w v u u u u v v u u v u j | @ y f .   ",
"  . 1 @ - 2 3 4 3 ) 5 5 5 4 6 4 7 3 8 9 1 0 1 2 3 5 4 4 2 a 2 6 2 b b 5 5 2 2 2 c 2 2 4 d - @ f .   ",
"  . ] @ = - ^ - ^ = / / ^ ^ - ^ - ' ( ~ _ : / / = / : - ' < - = : / / ^ ^ ^ - ^ [ = - = } * @ & .   ",
"  . @ % & * * * = = - - - = * ; > ; , & = > - - > = > * ' ) ' = = - - = = = * * ! ' = ~ { * ' @ .   ",
"  . . . . . . . . . . . . . . . . . . . . . . . . . . . . . . . . . . . . . . . . . . . . . . . .   ",
"                                                                                                    ",
"                                                                                                    "};
