/* XPM */
static char * mrxvt_xpm[] = {
"50 50 445 2",
"  	c None",
". 	c #1B1C1B",
"+ 	c #000000",
"@ 	c #FFFFFF",
"# 	c #DBDBDB",
"$ 	c #A5A5A5",
"% 	c #505450",
"& 	c #F0F0F0",
"* 	c #EFF1EF",
"= 	c #EFEFEF",
"- 	c #EEEFEE",
"; 	c #EEEEEE",
"> 	c #F0EFF0",
", 	c #EFF0EF",
"' 	c #EFF4EF",
") 	c #EFEEEF",
"! 	c #F0F3F0",
"~ 	c #F0F6F0",
"{ 	c #EEF0EE",
"] 	c #EAECEA",
"^ 	c #EFF3EF",
"/ 	c #EDEEED",
"( 	c #EDEDED",
"_ 	c #EEF1EE",
": 	c #EEEDEE",
"< 	c #EDEFED",
"[ 	c #EEF2EE",
"} 	c #EFF2EF",
"| 	c #E8EBE8",
"1 	c #DEDBDE",
"2 	c #F4F3F4",
"3 	c #F3F3F3",
"4 	c #F3F5F3",
"5 	c #F3F4F3",
"6 	c #F2F3F2",
"7 	c #F2F4F2",
"8 	c #F5F4F5",
"9 	c #F5F7F5",
"0 	c #F4F5F4",
"a 	c #F5F5F5",
"b 	c #F3F8F3",
"c 	c #F2F2F2",
"d 	c #F4F9F4",
"e 	c #E8EEE8",
"f 	c #E8ECE8",
"g 	c #E3EAE3",
"h 	c #EDF0ED",
"i 	c #F1F1F1",
"j 	c #DBD4DB",
"k 	c #DBD5DB",
"l 	c #DAD5DA",
"m 	c #D5D5D5",
"n 	c #DCD4DC",
"o 	c #CDD4CD",
"p 	c #D3D5D3",
"q 	c #D4D4D4",
"r 	c #CDD5CD",
"s 	c #CBD5CB",
"t 	c #D8D5D8",
"u 	c #DCD5DC",
"v 	c #DBDDDB",
"w 	c #DBDCDB",
"x 	c #DCDDDC",
"y 	c #E8EDE8",
"z 	c #E7EBE7",
"A 	c #FAFBFA",
"B 	c #434743",
"C 	c #010001",
"D 	c #010101",
"E 	c #000100",
"F 	c #1E271E",
"G 	c #F9F9F9",
"H 	c #FBFAFB",
"I 	c #3C443C",
"J 	c #161514",
"K 	c #181515",
"L 	c #181616",
"M 	c #1A1718",
"N 	c #1B1919",
"O 	c #1C1A1A",
"P 	c #1D1B1B",
"Q 	c #1E1C1C",
"R 	c #1F1C1D",
"S 	c #211E1D",
"T 	c #211F1F",
"U 	c #222020",
"V 	c #242121",
"W 	c #252222",
"X 	c #262323",
"Y 	c #272424",
"Z 	c #282525",
"` 	c #292726",
" .	c #2B2727",
"..	c #2C2828",
"+.	c #2D2929",
"@.	c #2E2B2B",
"#.	c #2F2B2C",
"$.	c #302C2C",
"%.	c #312E2D",
"&.	c #322F2F",
"*.	c #332F30",
"=.	c #353031",
"-.	c #353232",
";.	c #373332",
">.	c #383334",
",.	c #393434",
"'.	c #3A3636",
").	c #3C3737",
"!.	c #3C3838",
"~.	c #3E3939",
"{.	c #3F393A",
"].	c #403B3B",
"^.	c #E6EAE6",
"/.	c #3C433C",
"(.	c #161414",
"_.	c #171515",
":.	c #191716",
"<.	c #191818",
"[.	c #FFE125",
"}.	c #1D1B1A",
"|.	c #1F1C1C",
"1.	c #201D1D",
"2.	c #201E1E",
"3.	c #242221",
"4.	c #262324",
"5.	c #282424",
"6.	c #2A2727",
"7.	c #2B2828",
"8.	c #2C2928",
"9.	c #2D2A29",
"0.	c #2F2A2A",
"a.	c #2F2C2B",
"b.	c #322E2E",
"c.	c #332F2E",
"d.	c #343030",
"e.	c #353131",
"f.	c #363232",
"g.	c #373333",
"h.	c #3A3535",
"i.	c #3B3636",
"j.	c #3C3738",
"k.	c #3D3939",
"l.	c #3F3B3B",
"m.	c #EFF6EF",
"n.	c #E1E8E1",
"o.	c #141313",
"p.	c #171516",
"q.	c #655A1B",
"r.	c #E4CA23",
"s.	c #1E1B1B",
"t.	c #201D1E",
"u.	c #211E1E",
"v.	c #232120",
"w.	c #262223",
"x.	c #292625",
"y.	c #2C2929",
"z.	c #2D2A2A",
"A.	c #2F2B2B",
"B.	c #2F2C2C",
"C.	c #312D2D",
"D.	c #363131",
"E.	c #373232",
"F.	c #383434",
"G.	c #393535",
"H.	c #3D3938",
"I.	c #3E393A",
"J.	c #403A3B",
"K.	c #EDF5ED",
"L.	c #DEE6DE",
"M.	c #F8F8F8",
"N.	c #131312",
"O.	c #151314",
"P.	c #EED223",
"Q.	c #4A4319",
"R.	c #1B1819",
"S.	c #1E1B1C",
"T.	c #1F1D1C",
"U.	c #211E1F",
"V.	c #22201F",
"W.	c #242021",
"X.	c #252221",
"Y.	c #272324",
"Z.	c #2D292A",
"`.	c #2E2A2A",
" +	c #302C2D",
".+	c #332E2E",
"++	c #343130",
"@+	c #353231",
"#+	c #383433",
"$+	c #3B3737",
"%+	c #3D3838",
"&+	c #3E3938",
"*+	c #3F3A3A",
"=+	c #ECF5EC",
"-+	c #121212",
";+	c #141212",
">+	c #EACF23",
",+	c #4F4619",
"'+	c #1A1817",
")+	c #1A1819",
"!+	c #1D1A1B",
"~+	c #232020",
"{+	c #252323",
"]+	c #292626",
"^+	c #2A2827",
"/+	c #302B2C",
"(+	c #332F2F",
"_+	c #343131",
":+	c #ECF4EC",
"<+	c #DEE5DE",
"[+	c #121011",
"}+	c #131112",
"|+	c #141312",
"1+	c #605519",
"2+	c #E0C622",
"3+	c #C7AF21",
"4+	c #4E461B",
"5+	c #1D1B1C",
"6+	c #221F20",
"7+	c #232121",
"8+	c #252223",
"9+	c #272323",
"0+	c #292526",
"a+	c #2A2726",
"b+	c #2E2A2B",
"c+	c #302D2D",
"d+	c #111010",
"e+	c #131111",
"f+	c #151313",
"g+	c #6B5F1B",
"h+	c #EACE23",
"i+	c #1A1818",
"j+	c #1B191A",
"k+	c #1D1A1A",
"l+	c #1F1E1E",
"m+	c #343031",
"n+	c #363333",
"o+	c #383333",
"p+	c #393534",
"q+	c #100F0F",
"r+	c #131211",
"s+	c #4B4219",
"t+	c #191717",
"u+	c #1B1818",
"v+	c #1B1A1A",
"w+	c #363132",
"x+	c #3C3736",
"y+	c #EDF3ED",
"z+	c #F9F8F9",
"A+	c #11100F",
"B+	c #F9DC24",
"C+	c #F2D524",
"D+	c #E4C923",
"E+	c #65591B",
"F+	c #181617",
"G+	c #1F1D1D",
"H+	c #221F1F",
"I+	c #262423",
"J+	c #282524",
"K+	c #2A2626",
"L+	c #2E2B2A",
"M+	c #353130",
"N+	c #ECF1EC",
"O+	c #DEE4DE",
"P+	c #0F0E0E",
"Q+	c #121110",
"R+	c #151412",
"S+	c #151414",
"T+	c #1E1C1D",
"U+	c #232021",
"V+	c #252322",
"W+	c #272423",
"X+	c #2F2B2A",
"Y+	c #312E2E",
"Z+	c #0E0D0C",
"`+	c #0F0E0D",
" @	c #110F0F",
".@	c #121010",
"+@	c #161515",
"@@	c #191617",
"#@	c #1C1B1B",
"$@	c #221E1F",
"%@	c #231F1F",
"&@	c #332E2F",
"*@	c #373233",
"=@	c #DFE2DF",
"-@	c #0D0C0C",
";@	c #0E0D0E",
">@	c #0F0E0F",
",@	c #161415",
"'@	c #191616",
")@	c #1C1919",
"!@	c #272425",
"~@	c #2B2827",
"{@	c #302D2C",
"]@	c #322E2F",
"^@	c #33302F",
"/@	c #DFE1DF",
"(@	c #0C0B0B",
"_@	c #0E0C0D",
":@	c #100E0F",
"<@	c #100F10",
"[@	c #121111",
"}@	c #141211",
"|@	c #171616",
"1@	c #181717",
"2@	c #211F20",
"3@	c #2B2728",
"4@	c #312C2D",
"5@	c #ECEDEC",
"6@	c #DEDFDE",
"7@	c #0B0B0A",
"8@	c #0D0B0C",
"9@	c #0E0D0D",
"0@	c #12100F",
"a@	c #131011",
"b@	c #282425",
"c@	c #DFDEDF",
"d@	c #ECEFEC",
"e@	c #0B090A",
"f@	c #100E0E",
"g@	c #191718",
"h@	c #1C1B1A",
"i@	c #201E1D",
"j@	c #211F1E",
"k@	c #292425",
"l@	c #2C292A",
"m@	c #322D2D",
"n@	c #353132",
"o@	c #EBEBEB",
"p@	c #DEDEDE",
"q@	c #E8EFE8",
"r@	c #3D443D",
"s@	c #0A0909",
"t@	c #0B0A0A",
"u@	c #0E0C0C",
"v@	c #100F0E",
"w@	c #101010",
"x@	c #111110",
"y@	c #141213",
"z@	c #181716",
"A@	c #1C1A19",
"B@	c #1E1A1A",
"C@	c #1E1C1B",
"D@	c #272525",
"E@	c #292525",
"F@	c #090808",
"G@	c #0A090A",
"H@	c #0B0B0B",
"I@	c #0F0D0D",
"J@	c #141112",
"K@	c #242222",
"L@	c #282625",
"M@	c #2A2627",
"N@	c #302B2B",
"O@	c #312D2E",
"P@	c #DDDDDD",
"Q@	c #090807",
"R@	c #090809",
"S@	c #0A0A0A",
"T@	c #0C0C0C",
"U@	c #0D0C0D",
"V@	c #0F0D0E",
"W@	c #151413",
"X@	c #1B1A19",
"Y@	c #342F2F",
"Z@	c #EBEAEB",
"`@	c #DDDADD",
" #	c #070707",
".#	c #111011",
"+#	c #131212",
"@#	c #1B1918",
"##	c #1C191A",
"$#	c #231F20",
"%#	c #262322",
"&#	c #312D2C",
"*#	c #070606",
"=#	c #080707",
"-#	c #0B0A0B",
";#	c #0D0B0B",
">#	c #10100F",
",#	c #1A1717",
"'#	c #322E2D",
")#	c #EBE7EB",
"!#	c #DDD8DD",
"~#	c #060605",
"{#	c #080808",
"]#	c #0E0E0E",
"^#	c #110F10",
"/#	c #161314",
"(#	c #DAD7DA",
"_#	c #050404",
":#	c #060606",
"<#	c #070607",
"[#	c #080807",
"}#	c #0C0B0C",
"|#	c #242120",
"1#	c #EAE7EA",
"2#	c #D7D6D7",
"3#	c #E8EAE8",
"4#	c #040403",
"5#	c #050505",
"6#	c #090909",
"7#	c #D7D7D7",
"8#	c #E8E9E8",
"9#	c #030303",
"0#	c #070807",
"a#	c #0C0A0B",
"b#	c #0C0C0B",
"c#	c #242122",
"d#	c #272524",
"e#	c #282526",
"f#	c #E6E7E6",
"g#	c #D4D6D4",
"h#	c #020202",
"i#	c #030403",
"j#	c #050405",
"k#	c #0A0A09",
"l#	c #E0E6E0",
"m#	c #D2D7D2",
"n#	c #020303",
"o#	c #040303",
"p#	c #0B0A09",
"q#	c #121112",
"r#	c #DDE4DD",
"s#	c #CED6CE",
"t#	c #E8E6E8",
"u#	c #040404",
"v#	c #211D1E",
"w#	c #282626",
"x#	c #E6E5E6",
"y#	c #394039",
"z#	c #050605",
"A#	c #131010",
"B#	c #151213",
"C#	c #181615",
"D#	c #DBE3DB",
"E#	c #837E83",
"F#	c #4D524D",
"G#	c #505350",
"H#	c #505250",
"I#	c #4F504F",
"J#	c #4F534F",
"K#	c #696D69",
"L#	c #D6DCD6",
"                                                                                                    ",
"                                                                                                    ",
"                                                                                                    ",
"        . . . . . . . . . +   + + + + + + + +   + + + + + + + +                                     ",
"      . @ @ @ @ @ @ @ @ # +   + $ $ $ $ $ $ +   . $ $ $ $ $ $ +                                     ",
"      . @ @ @ @ @ @ @ @ @ # . % $ $ $ $ $ $ $ . % $ $ $ $ $ $ $ +                                   ",
"      . @ @ @ @ @ @ @ @ @ # . % $ $ $ $ $ $ $ . % $ $ $ $ $ $ $ +                                   ",
"    . @ @ @ @ @ @ @ @ @ @ @ # . % $ $ $ $ $ $ $ . % $ $ $ $ $ $ $ + %                               ",
"    . # # # # # # # # # # # # # . . . . . . . . . . . . . . . . . . . . . . . . . . . . . . .       ",
"  . # & * = = = - - ; ; ; - = > , > ' * - , ; ; , - , = ) ! ) - - ; ; - - - = = ~ ) - { ] = ) .     ",
"  . ^ # - ; / ; / - ( ( / / ; / ; ) _ { : < ( ( - ( < ; ) [ ; - < ( ( / / / ; / } - ; - | = 1 * .   ",
"  . 2 / # 3 4 5 4 ! 6 6 6 5 7 5 8 4 9 0 2 a 2 3 4 6 5 5 3 b 3 7 3 c c 6 6 3 3 3 d 3 3 5 e 1 f g .   ",
"  . h ; i # j j k l k k k m k n o j p q r o s t j u v w v v w x w v v v v w w v v w v k 1 y z g .   ",
"  . h ; A B + + + + C C C C C D E D D D D D D D D D D D D D D D D D D D D D D D D D D + F G z g .   ",
"  . h ; H I J K L M N O P Q R S T U V W X Y Z `  ...+.@.#.$.%.&.*.=.-.;.>.,.'.).!.~.{.].].d ^.g .   ",
"  . h ; H /.(._.L :.<.[.}.P |.1.2.T U 3.W 4.5.Z 6.7.8.9.0.a.$.b.c.d.e.f.g.,.h.i.j.k.~.l.].m.n.g .   ",
"  . h ; G /.o.(.p.q.r.[.[.[.s.|.t.u.U v.V w.Y Z x.6.7.y.z.A.B.C.b.*.d.D.E.>.F.G.i.).H.I.J.K.L.g .   ",
"  . h ; M./.N.O.(.P.Q.[.R.O P S.T.1.U.V.W.X.X Y.Z x.6...Z.`.a. +%..+*.++@+E.#+,.'.$+%+&+*+=+L.g .   ",
"  . h ; M./.-+;+O.>+,+[.'+)+O !+Q 1.2.T ~+V {+X Y Z ]+^+8.+.`./+$.%.(+*._+f.;.F.G.i.).%+~.:+<+g .   ",
"  . h ; M./.[+}+|+1+2+[.3+4+N O 5+R t.2.6+7+V 8+9+Z 0+a+7.y.Z.b+B.c+b.(+d.e.f.g.,.h.i.).%+=+<+g .   ",
"  . h ; M./.d+e+;+f+(.[.g+h+i+j+k+Q T.l+u.~+~+W X Y Z x.6.7.y.z.@.$.C.b.(+m+e.n+o+p+h.i.!.=+<+g .   ",
"  . h ; M./.q+[+r+|+O.[.s+P.t+u+v+P [.[.[.[.[.[.W X Y Z ]+6.7.Z.`.A.c+C.b.(+++w+g.>.p+i.x+y+<+g .   ",
"  . h ; z+/.q+A+[+B+C+[.D+E+F+i+N O s.S.G+2.H+~+3.W I+J+Z K+6.y.z.L+#. +%.(+d.M+f.g.F.h.'.N+O+g .   ",
"  . h ; , I P+q+d+Q+R+[.S+_.L t+i+N O P T+1.u.V.U+W V+W+Z ]+6. .y.z.X+$.c+Y+(+d.D.f.g.F.G.N+O+g .   ",
"  . h ; & I Z+`+ @.@e+e+o.+@_.@@t+i+v+#@s.G+1.$@%@U+W {+Y Z ]+6.7.+.z.A.$.C.&@(+d.-.*@>.G.h =@g .   ",
"  . h ; & I -@;@>@ @[+}+;+O.,@K '@<.u+)@}.s.|.2.T U V W X !@Z ]+~@7.+.@.a.{@C.]@^@m+e.;.F.( /@g .   ",
"  . h ; & I (@_@`+:@<@[@}@f+S++@|@1@i+N k+P |.1.u.2@~+V W X 5.x.]+3@y.9.L+$.4@b.(+d.e.f.g.5@6@g .   ",
"  . h ; & I 7@8@9@`+q+0@a@r+f+(._.L t+i+N O s.R t.U.V.U+X.{+Y.b@]+6.7.y.z.@.B.C.b.(+d.@+g.5@c@g .   ",
"  . h ; d@I e@(@-@9@f@q+d+e+;+f+(._.'@g@u+j+h@Q G+i@j@U 7+W V+W+k@]+6.7.l@z.A. +m@b.(+_+n@o@p@g .   ",
"  . h ; q@r@s@t@(@u@9@v@w@x@e+y@f+,@_.z@t+R.A@B@C@G+2.H+~+V W 9+D@E@]+~@..y.b+a.c+%.(+d.e.o@p@g .   ",
"  . h ; q@r@F@G@H@-@-@I@v@d+Q+J@o.O._.L t+i+N k+P |.t.u.V.~+K@{+X Z L@M@3@y.z.b+N@C.O@&@d.o@P@g .   ",
"  . h ; e r@Q@R@S@(@T@U@V@ @d+e+;+W@(.|@L t+u+X@}.P T.1.j@V.v.W w.W+Z ]+6.7.y.z.@.{@C.b.Y@Z@`@g .   ",
"  . h ; y r@ #F@s@S@(@-@9@f@q+.#+#;+W@(._.F+M @###k+C@R t.T $#V W %#Y Z ]+ ...y.`.a.&#m@(+o@`@g .   ",
"  . h ; | r@*#=#F@s@-#;#9@`+>@>#.#+#f+f++@K z@,#N ##P Q G+U.H+U V W X 5.Z M@~@..+.b+A.&#'#)#!#g .   ",
"  . h ; y r@~#*#{#F@s@7@8@u@]#q+^#Q+;+f+/#+@L t+i+N k+S.|.2.j@6+~+V %#I+J+Z a+~@y.+.A.a.{@)#(#g .   ",
"  . h ; | r@_#:#<#[#s@G@H@}#9@P+ @d+e+;+o.(.p.'@,#i+##!+s.T.1.j@H+|#X.X Y 5.]+6.7.+.`.A.$.1#2#g .   ",
"  . h ; 3#r@4#5#:#=#{#6#7@(@-@9@P+ @.@}+o.f++@K z@t+@#A@P Q 1.i@U.H+|#W X Y Z M@6...+.`.A.1#7#g .   ",
"  . h ; 8#r@9#_#5#<#0#F@S@a#b#_@`+v@d+[+r+o.W@J p.1@i+R.O P Q G+2.H+U c#W I+d#e#K+7.y.Z.0.f#g#g .   ",
"  . h ; 8#r@h#i#j#:#<#{#6#k#-#T@9@P+:@0@Q+J@f+S++@|@t+i+N k+C@|.G+T H+~+V {+W+J+Z 6.7.y.`.l#m#g .   ",
"  . h ; 8#r@h#n#o#5#:#<#Q@s@p#a#-@9@P+ @d+q#y@f+(._.z@,#)+X@}.S.G+u.U.H+U+c#w.Y Z ]+M@7.+.r#s#g .   ",
"  . h ; t#r@D h#9#u#5#:# #{#s@-#(@-@9@f@ @[+e+y@W@,@_.F+<.N X@}.Q G+v#$@U V W X !@w#K+6...O+s#g .   ",
"  . h ; x#y#+ D h#9#_#z#*#=#R@k#a#b#-@`+q+A+A#+#B#W@+@C#t+i+N O P Q G+u.V.~+V V+4.d#x.]+7.D#s#g .   ",
"  . h ; c@E#F#% % % % % % % % % % % G#H#% I#I#G#% % % % % % % % % % % % % % % % % % % J#K#L#s#g .   ",
"  . h ; # # j j k l k k k m k n o j p q r o s t j u v w v v w x w v v v v w w v v w v k 1 # z g .   ",
"  . 2 # ; 3 4 5 4 ! 6 6 6 5 7 5 8 4 9 0 2 a 2 3 4 6 5 5 3 b 3 7 3 c c 6 6 3 3 3 d 3 3 5 e ; # g .   ",
"  . ^ # - ; / ; / - ( ( / / ; / ; ) _ { : < ( ( - ( < ; ) [ ; - < ( ( / / / ; / } - ; - | = # * .   ",
"  . # & * = = = - - ; ; ; - = > , > ' * - , ; ; , - , = ) ! ) - - ; ; - - - = = ~ ) - { ] = ) # .   ",
"  . . . . . . . . . . . . . . . . . . . . . . . . . . . . . . . . . . . . . . . . . . . . . . . .   ",
"                                                                                                    ",
"                                                                                                    "};
