/* XPM */
static char * mrxvt_csh_xpm[] = {
"50 50 423 2",
"  	c None",
". 	c #1B1C1B",
"+ 	c #FFFFFF",
"@ 	c #DBDBDB",
"# 	c #A5A5A5",
"$ 	c #505450",
"% 	c #F0F0F0",
"& 	c #EFF1EF",
"* 	c #EFEFEF",
"= 	c #EEEFEE",
"- 	c #EEEEEE",
"; 	c #F0EFF0",
"> 	c #EFF0EF",
", 	c #EFF4EF",
"' 	c #EFEEEF",
") 	c #F0F3F0",
"! 	c #F0F6F0",
"~ 	c #EEF0EE",
"{ 	c #EAECEA",
"] 	c #EFF3EF",
"^ 	c #EDEEED",
"/ 	c #EDEDED",
"( 	c #EEF1EE",
"_ 	c #EEEDEE",
": 	c #EDEFED",
"< 	c #EEF2EE",
"[ 	c #EFF2EF",
"} 	c #E8EBE8",
"| 	c #DEDBDE",
"1 	c #F4F3F4",
"2 	c #F3F3F3",
"3 	c #F3F5F3",
"4 	c #F3F4F3",
"5 	c #F2F3F2",
"6 	c #F2F4F2",
"7 	c #F5F4F5",
"8 	c #F5F7F5",
"9 	c #F4F5F4",
"0 	c #F5F5F5",
"a 	c #F3F8F3",
"b 	c #F2F2F2",
"c 	c #F4F9F4",
"d 	c #E8EEE8",
"e 	c #E8ECE8",
"f 	c #E3EAE3",
"g 	c #EDF0ED",
"h 	c #F1F1F1",
"i 	c #DBD4DB",
"j 	c #DBD5DB",
"k 	c #DAD5DA",
"l 	c #D5D5D5",
"m 	c #DCD4DC",
"n 	c #CDD4CD",
"o 	c #D3D5D3",
"p 	c #D4D4D4",
"q 	c #CDD5CD",
"r 	c #CBD5CB",
"s 	c #D8D5D8",
"t 	c #DCD5DC",
"u 	c #DBDDDB",
"v 	c #DBDCDB",
"w 	c #DCDDDC",
"x 	c #E8EDE8",
"y 	c #E7EBE7",
"z 	c #FAFBFA",
"A 	c #434743",
"B 	c #000000",
"C 	c #010001",
"D 	c #010101",
"E 	c #000100",
"F 	c #1E271E",
"G 	c #F9F9F9",
"H 	c #FBFAFB",
"I 	c #3C443C",
"J 	c #161413",
"K 	c #171515",
"L 	c #181616",
"M 	c #191617",
"N 	c #1A1818",
"O 	c #1B1919",
"P 	c #1C1A1A",
"Q 	c #1D1C1B",
"R 	c #1F1C1C",
"S 	c #201D1D",
"T 	c #211E1E",
"U 	c #211F1F",
"V 	c #232020",
"W 	c #242121",
"X 	c #252222",
"Y 	c #272323",
"Z 	c #282425",
"` 	c #292625",
" .	c #292626",
"..	c #2B2827",
"+.	c #2C2928",
"@.	c #2D2929",
"#.	c #2E2A2B",
"$.	c #2F2C2B",
"%.	c #302D2D",
"&.	c #312E2E",
"*.	c #332F2F",
"=.	c #34302F",
"-.	c #353130",
";.	c #363232",
">.	c #373332",
",.	c #383433",
"'.	c #3A3534",
").	c #3B3636",
"!.	c #3C3737",
"~.	c #3C3838",
"{.	c #3E3939",
"].	c #3F3A3A",
"^.	c #403B3B",
"/.	c #E6EAE6",
"(.	c #3C433C",
"_.	c #151313",
":.	c #161414",
"<.	c #171615",
"[.	c #FFE125",
"}.	c #191717",
"|.	c #1B1818",
"1.	c #1C1919",
"2.	c #1D1A1A",
"3.	c #1F1C1D",
"4.	c #201E1D",
"5.	c #211F1E",
"6.	c #22201F",
"7.	c #242020",
"8.	c #242122",
"9.	c #262223",
"0.	c #262424",
"a.	c #282524",
"b.	c #2A2627",
"c.	c #2B2728",
"d.	c #2C2828",
"e.	c #2E2A2A",
"f.	c #2F2B2B",
"g.	c #2F2C2C",
"h.	c #312C2D",
"i.	c #322E2E",
"j.	c #332E2F",
"k.	c #343030",
"l.	c #353131",
"m.	c #373333",
"n.	c #383434",
"o.	c #393535",
"p.	c #3D3838",
"q.	c #3E3A39",
"r.	c #EFF6EF",
"s.	c #E1E8E1",
"t.	c #141313",
"u.	c #151314",
"v.	c #161514",
"w.	c #181515",
"x.	c #1C191A",
"y.	c #1D1B1B",
"z.	c #1E1B1B",
"A.	c #201E1E",
"B.	c #221E1F",
"C.	c #242021",
"D.	c #272423",
"E.	c #282525",
"F.	c #2A2727",
"G.	c #2B2828",
"H.	c #2D2A2A",
"I.	c #302C2C",
"J.	c #312D2D",
"K.	c #322F2E",
"L.	c #343130",
"M.	c #393534",
"N.	c #3A3635",
"O.	c #3B3737",
"P.	c #3E3838",
"Q.	c #EDF5ED",
"R.	c #DEE6DE",
"S.	c #F8F8F8",
"T.	c #131212",
"U.	c #141212",
"V.	c #151413",
"W.	c #161515",
"X.	c #171516",
"Y.	c #191716",
"Z.	c #1F1C1B",
"`.	c #1F1D1D",
" +	c #262323",
".+	c #272424",
"++	c #292526",
"@+	c #2A2626",
"#+	c #2A2828",
"$+	c #2D292A",
"%+	c #322E2D",
"&+	c #353031",
"*+	c #353132",
"=+	c #383333",
"-+	c #3C3738",
";+	c #3E3938",
">+	c #ECF5EC",
",+	c #121011",
"'+	c #211E1F",
")+	c #221F1F",
"!+	c #262222",
"~+	c #262324",
"{+	c #282526",
"]+	c #2D2829",
"^+	c #2D2A29",
"/+	c #2E2B2B",
"(+	c #302D2C",
"_+	c #333030",
":+	c #3A3535",
"<+	c #3A3636",
"[+	c #3C3837",
"}+	c #ECF4EC",
"|+	c #DEE5DE",
"1+	c #121010",
"2+	c #131111",
"3+	c #1E1C1B",
"4+	c #1E1C1C",
"5+	c #252122",
"6+	c #252322",
"7+	c #2A2726",
"8+	c #363131",
"9+	c #373232",
"0+	c #3B3637",
"a+	c #110F0F",
"b+	c #121110",
"c+	c #131211",
"d+	c #1A1717",
"e+	c #1C1A19",
"f+	c #1D1A1B",
"g+	c #1F1D1C",
"h+	c #201D1E",
"i+	c #231F20",
"j+	c #242222",
"k+	c #2B2727",
"l+	c #2C2929",
"m+	c #2F2B2C",
"n+	c #312D2E",
"o+	c #363231",
"p+	c #393434",
"q+	c #3A3536",
"r+	c #3B3736",
"s+	c #100F0F",
"t+	c #11100F",
"u+	c #161314",
"v+	c #332F2E",
"w+	c #373233",
"x+	c #3A3435",
"y+	c #3B3536",
"z+	c #EDF3ED",
"A+	c #F9F8F9",
"B+	c #100D0E",
"C+	c #121111",
"D+	c #181617",
"E+	c #191817",
"F+	c #1B1819",
"G+	c #1F1D1E",
"H+	c #232121",
"I+	c #252221",
"J+	c #252323",
"K+	c #272324",
"L+	c #393536",
"M+	c #ECF1EC",
"N+	c #DEE4DE",
"O+	c #0E0D0D",
"P+	c #100F0E",
"Q+	c #111011",
"R+	c #141312",
"S+	c #161415",
"T+	c #171616",
"U+	c #181717",
"V+	c #1B1918",
"W+	c #1B191A",
"X+	c #1D1B1A",
"Y+	c #211D1E",
"Z+	c #221F1E",
"`+	c #2F2C2D",
" @	c #33302F",
".@	c #0D0C0C",
"+@	c #0E0E0E",
"@@	c #100E0F",
"#@	c #111010",
"$@	c #131112",
"%@	c #171415",
"&@	c #1A1817",
"*@	c #222020",
"=@	c #292726",
"-@	c #2A2728",
";@	c #2E2B2A",
">@	c #383334",
",@	c #DFE2DF",
"'@	c #0C0B0C",
")@	c #0F0E0E",
"!@	c #191718",
"~@	c #242221",
"{@	c #282424",
"]@	c #292727",
"^@	c #322E2F",
"/@	c #DFE1DF",
"(@	c #0C0B0B",
"_@	c #1A1819",
":@	c #221F20",
"<@	c #232120",
"[@	c #2C2829",
"}@	c #363132",
"|@	c #ECEDEC",
"1@	c #DEDFDE",
"2@	c #0B0B0A",
"3@	c #0E0D0E",
"4@	c #171514",
"5@	c #181716",
"6@	c #312E2D",
"7@	c #353030",
"8@	c #DFDEDF",
"9@	c #ECEFEC",
"0@	c #0A0A0A",
"a@	c #0C0A0A",
"b@	c #0E0C0C",
"c@	c #0F0E0D",
"d@	c #141213",
"e@	c #EBEBEB",
"f@	c #DEDEDE",
"g@	c #E8EFE8",
"h@	c #3D443D",
"i@	c #0A0809",
"j@	c #0B0A0A",
"k@	c #100E0E",
"l@	c #151414",
"m@	c #1E1B1C",
"n@	c #1E1D1D",
"o@	c #232021",
"p@	c #090808",
"q@	c #0A0909",
"r@	c #0F0F0E",
"s@	c #191616",
"t@	c #342F2F",
"u@	c #DDDDDD",
"v@	c #080707",
"w@	c #090909",
"x@	c #0A0A09",
"y@	c #0D0C0D",
"z@	c #110F10",
"A@	c #181516",
"B@	c #252223",
"C@	c #292525",
"D@	c #2B2829",
"E@	c #EBEAEB",
"F@	c #DDDADD",
"G@	c #070607",
"H@	c #080708",
"I@	c #0A090A",
"J@	c #0D0B0C",
"K@	c #262322",
"L@	c #070606",
"M@	c #0F0D0D",
"N@	c #0F0E0F",
"O@	c #1A1918",
"P@	c #1B1A19",
"Q@	c #EBE7EB",
"R@	c #DDD8DD",
"S@	c #060505",
"T@	c #070707",
"U@	c #0C0C0B",
"V@	c #0D0D0C",
"W@	c #0E0E0D",
"X@	c #302C2D",
"Y@	c #DAD7DA",
"Z@	c #040405",
"`@	c #060605",
" #	c #090908",
".#	c #0B0A0B",
"+#	c #0D0B0B",
"@#	c #1E1D1C",
"##	c #EAE7EA",
"$#	c #D7D6D7",
"%#	c #E8EAE8",
"&#	c #040404",
"*#	c #050505",
"=#	c #060606",
"-#	c #080607",
";#	c #0B090A",
">#	c #1C1B1B",
",#	c #262423",
"'#	c #2F2B2A",
")#	c #D7D7D7",
"!#	c #E8E9E8",
"~#	c #030302",
"{#	c #050404",
"]#	c #10100F",
"^#	c #191818",
"/#	c #242120",
"(#	c #E6E7E6",
"_#	c #D4D6D4",
":#	c #020202",
"<#	c #040304",
"[#	c #040504",
"}#	c #050605",
"|#	c #0E0D0C",
"1#	c #1A1718",
"2#	c #E0E6E0",
"3#	c #D2D7D2",
"4#	c #030303",
"5#	c #030304",
"6#	c #0B0B0B",
"7#	c #0C0C0C",
"8#	c #DDE4DD",
"9#	c #CED6CE",
"0#	c #E8E6E8",
"a#	c #010100",
"b#	c #030202",
"c#	c #1D1C1C",
"d#	c #E6E5E6",
"e#	c #394039",
"f#	c #070706",
"g#	c #100F10",
"h#	c #DBE3DB",
"i#	c #837E83",
"j#	c #4D524D",
"k#	c #505350",
"l#	c #505250",
"m#	c #4F504F",
"n#	c #4F534F",
"o#	c #696D69",
"p#	c #D6DCD6",
"                                                                                                    ",
"                                                                                                    ",
"                                                                                                    ",
"        . . . . . . . . . .   . . . . . . . .   . . . . . . . .                                     ",
"      . + + + + + + + + @ .   . # # # # # # .   . # # # # # # .                                     ",
"      . + + + + + + + + + @ . $ # # # # # # # . $ # # # # # # # .                                   ",
"      . + + + + + + + + + @ . $ # # # # # # # . $ # # # # # # # .                                   ",
"    . + + + + + + + + + + + @ . $ # # # # # # # . $ # # # # # # # . $                               ",
"    . @ @ @ @ @ @ @ @ @ @ @ @ @ . . . . . . . . . . . . . . . . . . . . . . . . . . . . . . .       ",
"  . @ % & * * * = = - - - = * ; > ; , & = > - - > = > * ' ) ' = = - - = = = * * ! ' = ~ { * ' .     ",
"  . ] @ = - ^ - ^ = / / ^ ^ - ^ - ' ( ~ _ : / / = / : - ' < - = : / / ^ ^ ^ - ^ [ = - = } * | & .   ",
"  . 1 ^ @ 2 3 4 3 ) 5 5 5 4 6 4 7 3 8 9 1 0 1 2 3 5 4 4 2 a 2 6 2 b b 5 5 2 2 2 c 2 2 4 d | e f .   ",
"  . g - h @ i i j k j j j l j m n i o p q n r s i t u v u u v w v u u u u v v u u v u j | x y f .   ",
"  . g - z A B B B B C C C C C D E D D D D D D D D D D D D D D D D D D D D D D D D D D B F G y f .   ",
"  . g - H I J K L M N O P Q R S T U V W X Y Z `  ...+.@.#.$.%.&.*.=.-.;.>.,.'.).!.~.{.].^.c /.f .   ",
"  . g - H (._.:.<.[.}.|.1.2.Q 3.4.5.6.7.8.9.0.a. .b.c.d.e.f.g.h.i.j.k.l.;.m.n.o.).!.p.q.].r.s.f .   ",
"  . g - G (.t.u.v.w.[.[.N x.y.z.3.A.B.V C.X 9.D.E. .F.G.@.H.f.I.J.K.*.L.l.>.m.M.N.O.!.P.{.Q.R.f .   ",
"  . g - S.(.T.U.V.W.X.Y.[.[.x.z.Z.`.T U V W X  +.+++@+#++.$+e.$.I.%+*.=.&+*+>.=+M.).!.-+;+>+R.f .   ",
"  . g - S.(.,+T.t.:.K L }.[.[.[.Q 3.A.'+)+V W !+~+E.{+F.G.]+^+/+I.(+%+*._+-.;.m.n.:+<+[+p.}+|+f .   ",
"  . g - S.(.1+2+U._.v.K [.[.|.O 2.3+4+4.T )+W 5+6+.+E.++7+d.@.e.f.I.J.i.*.k.8+9+m.M.:+0+-+>+|+f .   ",
"  . g - S.(.a+b+c+t.[.[.<.}.d+O e+f+4+g+h+U i+W j+ +.+E. .k+d.l+e.m+I.n+i.*.&+o+9+n.p+q+r+>+|+f .   ",
"  . g - S.(.s+t+,+[.t.u+v.L }.N 1.[.[.[.[.[.[.[.[.X 0..+` @+k+d.@./+g.J.i.v+k.&+;.w+n.x+y+z+|+f .   ",
"  . g - A+(.B+s+1+C+U._.:.K D+E+F+O y.z.3.G+T )+H+I+J+K+E. .F.G.l+$+/+I.J.i.*.k.l.;.=+p+L+M+N+f .   ",
"  . g - > I O+P+a+Q+c+R+u.S+T+U+E+V+W+X+4+g+Y+Z+6.H+I+ +.+E. .F.d.@.e.f.`+J.i. @-.o+m.=+n.M+N+f .   ",
"  . g - % I .@+@@@#@b+$@R+:.%@L U+&@O P f+R S T )+*@W X  +.+{+=@-@d.^+;@f.%.J.*. @L.;.w+>@g ,@f .   ",
"  . g - % I '@O+)@s+t+C+T.t.:.K L !@V+O P y.3.S T *@H+~@X ~+{@ .]@..d.$+/+g.(+n+^@_+l.;.m./ /@f .   ",
"  . g - % I (@.@O+)@s+1+C+U.V.:.K L !@_@W+f+z.3.4.Z+:@<@X  +.+E. .F.G.[@e./+g.J.K.*.k.}@m.|@1@f .   ",
"  . g - % I 2@(@.@3@s+#@#@$@U.u.4@X.5@N O e+X+R S T 5.V W X  +.+E. .F.G.^+;@f.I.6@j. @7@}@|@8@f .   ",
"  . g - 9@I 0@a@.@b@c@s+#@2+T.d@:.K L U+N O P z.R `.T U <@W X ~+{@++=@..+.$+#.$.%.i.*.=.-.e@f@f .   ",
"  . g - g@h@i@j@(@.@O+k@s+#@C+d@u.l@<.L }.F+W+2.m@n@S '+:@o@X !+ +E. .F...l+H.#.I.J.i.*.L.e@f@f .   ",
"  . g - g@h@p@q@j@'@.@O+r@t+b+c+d@V.4@w.s@&@V+W+y.3+`.Y+U V C.8. +D.E. .k+d.l+H./+I.n+i.t@e@u@f .   ",
"  . g - d h@v@w@x@j@.@y@3@@@z@b+T.R+l@W.A@U+&@O P y.4+`.T U V W B@D.Z C@F.k+D@$+e.m+%.J.j.E@F@f .   ",
"  . g - x h@G@H@p@I@2@J@O+)@s+1+2+c+_.:.W.L }._@O P y.R 4.T 6.o@X K@K+a.C@@+G.[@$+/+I.J.%+e@F@f .   ",
"  . g - } h@L@v@p@q@j@(@.@M@N@s+1+T.T._.:.A@5@E+O@P@y.z.3.S U )+H+X  +.+E. .F.G.l+e.f.I.J.Q@R@f .   ",
"  . g - x h@S@L@T@p@q@a@U@V@W@@@t+1+T.R+:.%@T+}.N O@P y.3+g+A.)+*@W j+ +{@C@@+..d.@.e.f.X@Q@Y@f .   ",
"  . g - } h@Z@`@G@v@ #0@.#+#O++@P+z@b+T.d@:.K L U+N O P y.@#S T 6.o@8.J+ +.+{+b.G.d.@.#.$.##$#f .   ",
"  . g - %#h@&#*#=#-#p@ #;#(@.@O+k@s+#@2+U.u.:.<.L !@|.1.>#m@g+4.U *@<@W  +,#E. .b.G.[@H.'###)#f .   ",
"  . g - !#h@~#{#*#=#T@p@q@j@(@.@W@)@]#1+2+R+u.:.<.L ^#O@P 2.4+S h+'+*@/#X J+.+E. .F.G.$+H.(#_#f .   ",
"  . g - !#h@:#<#[#}#L@H@i@q@2@U@|#c@P+t+b+$@t.l@W.L }.1#O 2.y.R S A.)+V W 6+0.{@E.F.F.D@$+2#3#f .   ",
"  . g - !#h@D 4#5#*#`@T@p@q@j@6#7#|#)@@@t+2+T._.:.K L }.O@O P 3+4+S A.:@o@8.X Y Z  .]@G.d.8#9#f .   ",
"  . g - 0#h@a#:#b#&#S@=#-#p@q@j@(@.@O+k@a+#@C+T.u.v.X.5@&@V+W+f+c#g+A.5.:@7.5+ +D.Z  .k+G.N+9#f .   ",
"  . g - d#e#B D :#4#&#S@f#v@w@q@a@+#b@W@k@g#1+$@R+u.:.T+5@N O P f+4+S A.)+V W j+,#.+C@b.k+h#9#f .   ",
"  . g - 8@i#j#$ $ $ $ $ $ $ $ $ $ $ k#l#$ m#m#k#$ $ $ $ $ $ $ $ $ $ $ $ $ $ $ $ $ $ $ n#o#p#9#f .   ",
"  . g - @ @ i i j k j j j l j m n i o p q n r s i t u v u u v w v u u u u v v u u v u j | @ y f .   ",
"  . 1 @ - 2 3 4 3 ) 5 5 5 4 6 4 7 3 8 9 1 0 1 2 3 5 4 4 2 a 2 6 2 b b 5 5 2 2 2 c 2 2 4 d - @ f .   ",
"  . ] @ = - ^ - ^ = / / ^ ^ - ^ - ' ( ~ _ : / / = / : - ' < - = : / / ^ ^ ^ - ^ [ = - = } * @ & .   ",
"  . @ % & * * * = = - - - = * ; > ; , & = > - - > = > * ' ) ' = = - - = = = * * ! ' = ~ { * ' @ .   ",
"  . . . . . . . . . . . . . . . . . . . . . . . . . . . . . . . . . . . . . . . . . . . . . . . .   ",
"                                                                                                    ",
"                                                                                                    "};
