STARTFONT 2.1
COMMENT AUTOMATICALLY GENERATED FILE. DO NOT EDIT!
COMMENT Generated with 'ucs2any ncenI12.bdf /usr/local/share/fonts/X11/util/map-ISO8859-2 ISO8859-2'
COMMENT from an ISO10646-1 encoded source BDF font.
COMMENT ucs2any by Ben Collver <collver1@attbi.com>, 2003, based on
COMMENT ucs2any.pl by Markus Kuhn <http://www.cl.cam.ac.uk/~mgk25/>, 2000.
FONT -Adobe-New Century Schoolbook-Medium-I-Normal--17-120-100-100-P-92-ISO8859-2
SIZE 12 100 100
FONTBOUNDINGBOX 21 20 -4 -3
COMMENT ISO10646-1 extension by Markus Kuhn <mkuhn@acm.org>, 2001-03-20
COMMENT
COMMENT +
COMMENT  Copyright 1984-1989, 1994 Adobe Systems Incorporated.
COMMENT  Copyright 1988, 1994 Digital Equipment Corporation.
COMMENT
COMMENT  Adobe is a trademark of Adobe Systems Incorporated which may be
COMMENT  registered in certain jurisdictions.
COMMENT  Permission to use these trademarks is hereby granted only in
COMMENT  association with the images described in this file.
COMMENT
COMMENT  Permission to use, copy, modify, distribute and sell this software
COMMENT  and its documentation for any purpose and without fee is hereby
COMMENT  granted, provided that the above copyright notices appear in all
COMMENT  copies and that both those copyright notices and this permission
COMMENT  notice appear in supporting documentation, and that the names of
COMMENT  Adobe Systems and Digital Equipment Corporation not be used in
COMMENT  advertising or publicity pertaining to distribution of the software
COMMENT  without specific, written prior permission.  Adobe Systems and
COMMENT  Digital Equipment Corporation make no representations about the
COMMENT  suitability of this software for any purpose.  It is provided "as
COMMENT  is" without express or implied warranty.
COMMENT -
STARTPROPERTIES 26
FOUNDRY "Adobe"
FAMILY_NAME "New Century Schoolbook"
WEIGHT_NAME "Medium"
SLANT "I"
SETWIDTH_NAME "Normal"
ADD_STYLE_NAME ""
PIXEL_SIZE 17
POINT_SIZE 120
RESOLUTION_X 100
RESOLUTION_Y 100
SPACING "P"
AVERAGE_WIDTH 92
CHARSET_REGISTRY "ISO8859"
CHARSET_ENCODING "2"
CAP_HEIGHT 12
X_HEIGHT 8
FONT_ASCENT 14
FONT_DESCENT 3
FACE_NAME "New Century Schoolbook Italic"
COPYRIGHT "Copyright (c) 1984, 1987 Adobe Systems Incorporated. All Rights Reserved. Copyright (c) 1988, 1991 Digital Equipment Corporation. All Rights Reserved."
NOTICE "New Century Schoolbook is a trademark of Linotype-Hell AG and/or its subsidiaries."
_DEC_DEVICE_FONTNAMES "PS=NewCenturySchlbk-Italic"
DEFAULT_CHAR 0
RELATIVE_SETWIDTH 50
RELATIVE_WEIGHT 50
FULL_NAME "New Century Schoolbook Italic"
ENDPROPERTIES
CHARS 192
STARTCHAR defaultchar
ENCODING 0
SWIDTH 833 0
DWIDTH 14 0
BBX 15 11 -1 0
BITMAP
AAAA
0000
8002
0000
8002
0000
8002
0000
8002
0000
AAAA
ENDCHAR
STARTCHAR space
ENCODING 32
SWIDTH 278 0
DWIDTH 4 0
BBX 1 1 1 0
BITMAP
00
ENDCHAR
STARTCHAR exclam
ENCODING 33
SWIDTH 333 0
DWIDTH 6 0
BBX 5 12 0 0
BITMAP
18
18
10
30
30
20
20
40
40
00
C0
C0
ENDCHAR
STARTCHAR quotedbl
ENCODING 34
SWIDTH 400 0
DWIDTH 7 0
BBX 5 4 1 8
BITMAP
48
48
90
90
ENDCHAR
STARTCHAR numbersign
ENCODING 35
SWIDTH 606 0
DWIDTH 9 0
BBX 8 12 0 0
BITMAP
12
12
12
12
FF
24
24
FF
48
48
48
48
ENDCHAR
STARTCHAR dollar
ENCODING 36
SWIDTH 556 0
DWIDTH 9 0
BBX 9 15 0 -1
BITMAP
0200
0200
1F00
2480
4580
6980
3800
1C00
0E00
CB00
D100
9200
7C00
2000
2000
ENDCHAR
STARTCHAR percent
ENCODING 37
SWIDTH 833 0
DWIDTH 14 0
BBX 12 12 1 0
BITMAP
3880
6780
4500
C500
8A00
8AE0
7590
0510
0B10
0A20
1220
11C0
ENDCHAR
STARTCHAR ampersand
ENCODING 38
SWIDTH 852 0
DWIDTH 14 0
BBX 13 12 0 0
BITMAP
0380
0440
0C40
0C80
0F00
1C78
6630
C620
C640
C388
6390
3CE0
ENDCHAR
STARTCHAR quotesingle
ENCODING 39
SWIDTH 278 0
DWIDTH 5 0
BBX 2 4 2 8
BITMAP
40
40
80
80
ENDCHAR
STARTCHAR parenleft
ENCODING 40
SWIDTH 333 0
DWIDTH 6 0
BBX 5 14 1 -2
BITMAP
08
10
20
20
40
40
80
80
80
80
80
80
40
40
ENDCHAR
STARTCHAR parenright
ENCODING 41
SWIDTH 333 0
DWIDTH 5 0
BBX 5 14 -1 -2
BITMAP
10
10
08
08
08
08
08
08
10
10
20
20
40
80
ENDCHAR
STARTCHAR asterisk
ENCODING 42
SWIDTH 500 0
DWIDTH 8 0
BBX 7 7 0 5
BITMAP
10
54
D6
38
D6
54
10
ENDCHAR
STARTCHAR plus
ENCODING 43
SWIDTH 606 0
DWIDTH 10 0
BBX 9 9 0 0
BITMAP
0800
0800
0800
0800
FF80
0800
0800
0800
0800
ENDCHAR
STARTCHAR comma
ENCODING 44
SWIDTH 278 0
DWIDTH 4 0
BBX 3 5 -1 -3
BITMAP
60
60
20
40
80
ENDCHAR
STARTCHAR hyphen
ENCODING 45
SWIDTH 333 0
DWIDTH 5 0
BBX 3 1 1 3
BITMAP
E0
ENDCHAR
STARTCHAR period
ENCODING 46
SWIDTH 278 0
DWIDTH 4 0
BBX 2 2 0 0
BITMAP
C0
C0
ENDCHAR
STARTCHAR slash
ENCODING 47
SWIDTH 606 0
DWIDTH 10 0
BBX 6 14 2 -2
BITMAP
04
04
08
08
08
10
10
20
20
40
40
40
80
80
ENDCHAR
STARTCHAR zero
ENCODING 48
SWIDTH 556 0
DWIDTH 9 0
BBX 9 12 0 0
BITMAP
0E00
1100
2100
6180
6180
C180
C180
C300
C300
4200
4400
3800
ENDCHAR
STARTCHAR one
ENCODING 49
SWIDTH 556 0
DWIDTH 9 0
BBX 7 12 0 0
BITMAP
02
3E
0C
0C
0C
18
18
18
30
30
30
FC
ENDCHAR
STARTCHAR two
ENCODING 50
SWIDTH 556 0
DWIDTH 9 0
BBX 9 12 -1 0
BITMAP
0E00
1300
2180
3180
3180
0300
0600
0800
1000
2100
7E00
FE00
ENDCHAR
STARTCHAR three
ENCODING 51
SWIDTH 556 0
DWIDTH 9 0
BBX 9 12 0 0
BITMAP
1E00
2300
3180
3100
0300
1C00
0600
0300
C300
C300
8600
7C00
ENDCHAR
STARTCHAR four
ENCODING 52
SWIDTH 556 0
DWIDTH 9 0
BBX 8 12 0 0
BITMAP
01
03
07
0B
12
26
46
84
FF
0C
0C
7F
ENDCHAR
STARTCHAR five
ENCODING 53
SWIDTH 556 0
DWIDTH 9 0
BBX 10 12 0 0
BITMAP
1FC0
1F80
1000
2000
2000
3E00
4700
0300
4300
E200
C600
7800
ENDCHAR
STARTCHAR six
ENCODING 54
SWIDTH 556 0
DWIDTH 9 0
BBX 9 12 0 0
BITMAP
0F00
3180
2180
6000
4C00
D600
E300
C300
C300
C600
4600
3800
ENDCHAR
STARTCHAR seven
ENCODING 55
SWIDTH 556 0
DWIDTH 9 0
BBX 8 12 1 0
BITMAP
7F
7F
82
84
04
08
10
10
30
60
60
60
ENDCHAR
STARTCHAR eight
ENCODING 56
SWIDTH 556 0
DWIDTH 9 0
BBX 9 12 0 0
BITMAP
0F00
1180
2080
2080
3100
1E00
2E00
4300
C100
C100
6200
3C00
ENDCHAR
STARTCHAR nine
ENCODING 57
SWIDTH 556 0
DWIDTH 9 0
BBX 9 12 0 0
BITMAP
0E00
3100
3180
6180
6180
6380
3580
1900
0300
C200
C600
7800
ENDCHAR
STARTCHAR colon
ENCODING 58
SWIDTH 278 0
DWIDTH 5 0
BBX 4 8 0 0
BITMAP
30
30
00
00
00
00
C0
C0
ENDCHAR
STARTCHAR semicolon
ENCODING 59
SWIDTH 278 0
DWIDTH 5 0
BBX 5 11 -1 -3
BITMAP
18
18
00
00
00
00
60
60
20
40
80
ENDCHAR
STARTCHAR less
ENCODING 60
SWIDTH 606 0
DWIDTH 10 0
BBX 9 9 0 0
BITMAP
0180
0600
1800
6000
8000
6000
1800
0600
0180
ENDCHAR
STARTCHAR equal
ENCODING 61
SWIDTH 606 0
DWIDTH 10 0
BBX 8 4 1 2
BITMAP
FF
00
00
FF
ENDCHAR
STARTCHAR greater
ENCODING 62
SWIDTH 606 0
DWIDTH 10 0
BBX 9 9 0 0
BITMAP
C000
3000
0C00
0300
0080
0300
0C00
3000
C000
ENDCHAR
STARTCHAR question
ENCODING 63
SWIDTH 444 0
DWIDTH 7 0
BBX 5 12 1 0
BITMAP
70
88
88
98
30
60
C0
90
60
00
C0
C0
ENDCHAR
STARTCHAR at
ENCODING 64
SWIDTH 747 0
DWIDTH 12 0
BBX 12 12 0 0
BITMAP
0700
18C0
2020
46E0
4D90
9890
99A0
9120
9B40
4C90
6060
1F80
ENDCHAR
STARTCHAR A
ENCODING 65
SWIDTH 704 0
DWIDTH 12 0
BBX 13 12 -2 0
BITMAP
0080
0180
0180
02C0
04C0
04C0
08C0
0FC0
1060
2060
2060
F9F8
ENDCHAR
STARTCHAR B
ENCODING 66
SWIDTH 722 0
DWIDTH 12 0
BBX 11 12 -1 0
BITMAP
3FC0
0C60
0C20
1860
1840
1F80
18C0
1860
3060
3060
30C0
FF80
ENDCHAR
STARTCHAR C
ENCODING 67
SWIDTH 722 0
DWIDTH 12 0
BBX 11 12 0 0
BITMAP
07A0
18E0
3040
6040
6040
C000
C000
C000
C040
C080
6180
3E00
ENDCHAR
STARTCHAR D
ENCODING 68
SWIDTH 778 0
DWIDTH 13 0
BBX 13 12 -1 0
BITMAP
3FC0
0C30
0C10
0C18
1818
1818
1818
1830
3030
3060
30C0
FF00
ENDCHAR
STARTCHAR E
ENCODING 69
SWIDTH 722 0
DWIDTH 12 0
BBX 13 12 -1 0
BITMAP
3FF8
0C18
0C10
0C90
1980
1F80
1900
1900
3010
3030
3060
FFE0
ENDCHAR
STARTCHAR F
ENCODING 70
SWIDTH 667 0
DWIDTH 11 0
BBX 13 12 -1 0
BITMAP
3FF8
0C18
0C10
0C90
1980
1F80
1900
1900
3000
3000
3000
FC00
ENDCHAR
STARTCHAR G
ENCODING 71
SWIDTH 778 0
DWIDTH 13 0
BBX 12 12 0 0
BITMAP
07D0
1870
3020
6020
6020
C000
C3F0
C0C0
C0C0
C180
6180
3E80
ENDCHAR
STARTCHAR H
ENCODING 72
SWIDTH 833 0
DWIDTH 14 0
BBX 15 12 -1 0
BITMAP
3F7E
0C18
0C18
0C18
1830
1FF0
1830
1830
3060
3060
3060
FDF8
ENDCHAR
STARTCHAR I
ENCODING 73
SWIDTH 407 0
DWIDTH 7 0
BBX 8 12 -1 0
BITMAP
3F
0C
0C
0C
18
18
18
18
30
30
30
FC
ENDCHAR
STARTCHAR J
ENCODING 74
SWIDTH 611 0
DWIDTH 10 0
BBX 11 12 -1 0
BITMAP
07E0
0180
0180
0180
0300
0300
0300
6300
E600
C600
8400
7800
ENDCHAR
STARTCHAR K
ENCODING 75
SWIDTH 741 0
DWIDTH 12 0
BBX 15 12 -1 0
BITMAP
3FBE
0C18
0C20
0C40
1880
1B80
1D80
1980
30C0
30C0
3060
FDF8
ENDCHAR
STARTCHAR L
ENCODING 76
SWIDTH 667 0
DWIDTH 11 0
BBX 11 12 -1 0
BITMAP
3F00
0C00
0C00
0C00
1800
1800
1800
1820
3060
3040
31C0
FFC0
ENDCHAR
STARTCHAR M
ENCODING 77
SWIDTH 944 0
DWIDTH 16 0
BBX 17 12 -1 0
BITMAP
3E0780
0E0E00
0E1600
0E1600
162C00
164C00
134C00
138C00
231800
231800
221800
FA7E00
ENDCHAR
STARTCHAR N
ENCODING 78
SWIDTH 815 0
DWIDTH 13 0
BBX 15 12 -1 0
BITMAP
3C3E
0E08
0E08
0B08
0B10
1190
1190
10D0
20E0
2060
2060
F820
ENDCHAR
STARTCHAR O
ENCODING 79
SWIDTH 778 0
DWIDTH 13 0
BBX 12 12 0 0
BITMAP
07C0
1860
3030
6030
6030
C030
C030
C060
C060
C0C0
6180
3E00
ENDCHAR
STARTCHAR P
ENCODING 80
SWIDTH 667 0
DWIDTH 11 0
BBX 12 12 -1 0
BITMAP
3FE0
0C70
0C30
0C30
1860
18E0
1F80
1800
3000
3000
3000
FC00
ENDCHAR
STARTCHAR Q
ENCODING 81
SWIDTH 778 0
DWIDTH 13 0
BBX 12 15 0 -3
BITMAP
07C0
1860
3030
6030
6030
C030
C030
CE60
D360
E3C0
6380
3F00
0320
03C0
0180
ENDCHAR
STARTCHAR R
ENCODING 82
SWIDTH 741 0
DWIDTH 13 0
BBX 13 12 -1 0
BITMAP
3FF0
0C38
0C18
0C18
1870
1FC0
18C0
1860
3060
30C8
30C8
FC70
ENDCHAR
STARTCHAR S
ENCODING 83
SWIDTH 667 0
DWIDTH 11 0
BBX 11 12 -1 0
BITMAP
0F20
18E0
3040
3040
3840
1F00
0780
41C0
40C0
40C0
E180
9E00
ENDCHAR
STARTCHAR T
ENCODING 84
SWIDTH 685 0
DWIDTH 11 0
BBX 12 12 0 0
BITMAP
7FF0
6670
C620
8620
8C20
0C00
0C00
0C00
1800
1800
1800
7E00
ENDCHAR
STARTCHAR U
ENCODING 85
SWIDTH 815 0
DWIDTH 13 0
BBX 13 12 1 0
BITMAP
FCF8
3020
3020
3020
6040
6040
6040
C080
C080
C080
4100
3E00
ENDCHAR
STARTCHAR V
ENCODING 86
SWIDTH 704 0
DWIDTH 11 0
BBX 13 12 -1 0
BITMAP
FCF8
3020
3020
3040
1840
1880
1900
1900
0E00
0C00
0C00
0800
ENDCHAR
STARTCHAR W
ENCODING 87
SWIDTH 926 0
DWIDTH 15 0
BBX 17 12 0 0
BITMAP
FBEF80
318600
318400
318400
318800
1AC800
1AD000
1CD000
1CE000
18E000
084000
084000
ENDCHAR
STARTCHAR X
ENCODING 88
SWIDTH 704 0
DWIDTH 12 0
BBX 14 12 -1 0
BITMAP
3F7C
0C30
0C20
0640
0680
0300
0300
0580
0980
10C0
30C0
FBF0
ENDCHAR
STARTCHAR Y
ENCODING 89
SWIDTH 685 0
DWIDTH 11 0
BBX 13 12 0 0
BITMAP
F8F8
3060
3040
1880
1900
1A00
0C00
0C00
0C00
1800
1800
7E00
ENDCHAR
STARTCHAR Z
ENCODING 90
SWIDTH 667 0
DWIDTH 11 0
BBX 11 12 0 0
BITMAP
3FE0
30C0
6180
4300
0300
0600
0C00
1800
1840
30C0
6180
FF80
ENDCHAR
STARTCHAR bracketleft
ENCODING 91
SWIDTH 333 0
DWIDTH 6 0
BBX 7 14 -1 -2
BITMAP
0E
08
08
10
10
10
20
20
20
20
40
40
40
F0
ENDCHAR
STARTCHAR backslash
ENCODING 92
SWIDTH 606 0
DWIDTH 10 0
BBX 8 12 1 0
BITMAP
80
40
40
20
10
10
08
08
04
02
02
01
ENDCHAR
STARTCHAR bracketright
ENCODING 93
SWIDTH 333 0
DWIDTH 6 0
BBX 7 14 -1 -2
BITMAP
1E
04
04
04
08
08
08
08
10
10
10
20
20
E0
ENDCHAR
STARTCHAR asciicircum
ENCODING 94
SWIDTH 606 0
DWIDTH 10 0
BBX 8 7 1 5
BITMAP
18
18
24
24
42
42
81
ENDCHAR
STARTCHAR underscore
ENCODING 95
SWIDTH 500 0
DWIDTH 8 0
BBX 8 1 -1 -3
BITMAP
FF
ENDCHAR
STARTCHAR grave
ENCODING 96
SWIDTH 333 0
DWIDTH 5 0
BBX 3 3 1 9
BITMAP
80
40
20
ENDCHAR
STARTCHAR a
ENCODING 97
SWIDTH 574 0
DWIDTH 10 0
BBX 9 8 0 0
BITMAP
1B00
2600
6600
C600
CC00
CC80
CD00
7600
ENDCHAR
STARTCHAR b
ENCODING 98
SWIDTH 556 0
DWIDTH 9 0
BBX 7 12 0 0
BITMAP
70
30
30
60
7C
6E
C6
C6
C6
84
D8
70
ENDCHAR
STARTCHAR c
ENCODING 99
SWIDTH 444 0
DWIDTH 8 0
BBX 7 8 0 0
BITMAP
3C
66
CE
C0
C0
84
C8
70
ENDCHAR
STARTCHAR d
ENCODING 100
SWIDTH 611 0
DWIDTH 10 0
BBX 9 12 0 0
BITMAP
0380
0180
0100
0300
3B00
6600
C600
C600
C600
8C80
CD00
7600
ENDCHAR
STARTCHAR e
ENCODING 101
SWIDTH 444 0
DWIDTH 7 0
BBX 6 8 0 0
BITMAP
38
6C
CC
D8
F0
80
C8
70
ENDCHAR
STARTCHAR f
ENCODING 102
SWIDTH 333 0
DWIDTH 5 0
BBX 9 15 -2 -3
BITMAP
0380
0480
0D80
0C00
3E00
1800
1800
1000
3000
3000
2000
6000
6000
4000
C000
ENDCHAR
STARTCHAR g
ENCODING 103
SWIDTH 537 0
DWIDTH 9 0
BBX 10 12 -2 -3
BITMAP
00C0
0F40
1980
3180
3180
1300
3E00
6000
3E00
C300
C300
7E00
ENDCHAR
STARTCHAR h
ENCODING 104
SWIDTH 611 0
DWIDTH 10 0
BBX 9 12 0 0
BITMAP
7000
3000
3000
6000
6C00
7600
6600
C600
CC00
CC80
8900
8600
ENDCHAR
STARTCHAR i
ENCODING 105
SWIDTH 333 0
DWIDTH 6 0
BBX 5 12 0 0
BITMAP
30
30
00
00
E0
60
60
C0
C0
C8
D0
60
ENDCHAR
STARTCHAR j
ENCODING 106
SWIDTH 315 0
DWIDTH 5 0
BBX 8 15 -4 -3
BITMAP
03
03
00
00
0E
06
06
06
04
0C
0C
0C
D8
98
60
ENDCHAR
STARTCHAR k
ENCODING 107
SWIDTH 556 0
DWIDTH 9 0
BBX 8 12 0 0
BITMAP
70
30
30
20
6C
76
66
6C
58
D9
CA
8C
ENDCHAR
STARTCHAR l
ENCODING 108
SWIDTH 333 0
DWIDTH 6 0
BBX 5 12 0 0
BITMAP
70
30
30
60
60
60
40
C0
C0
C8
D0
60
ENDCHAR
STARTCHAR m
ENCODING 109
SWIDTH 889 0
DWIDTH 15 0
BBX 12 8 1 0
BITMAP
EDC0
3660
6660
6660
CCC0
CCC0
8890
9860
ENDCHAR
STARTCHAR n
ENCODING 110
SWIDTH 611 0
DWIDTH 10 0
BBX 8 8 0 0
BITMAP
EC
76
66
66
CC
CC
89
86
ENDCHAR
STARTCHAR o
ENCODING 111
SWIDTH 500 0
DWIDTH 8 0
BBX 7 8 -1 0
BITMAP
3C
66
C6
C2
86
C6
CC
78
ENDCHAR
STARTCHAR p
ENCODING 112
SWIDTH 574 0
DWIDTH 9 0
BBX 11 11 -4 -3
BITMAP
1DC0
0E60
0C60
0C60
18E0
18C0
1980
3700
3000
6000
F000
ENDCHAR
STARTCHAR q
ENCODING 113
SWIDTH 556 0
DWIDTH 9 0
BBX 9 11 -1 -3
BITMAP
1C80
6700
6300
C300
C600
C600
CC00
7C00
0800
1800
3C00
ENDCHAR
STARTCHAR r
ENCODING 114
SWIDTH 444 0
DWIDTH 7 0
BBX 7 8 -1 0
BITMAP
DC
66
6E
60
60
C0
C0
C0
ENDCHAR
STARTCHAR s
ENCODING 115
SWIDTH 444 0
DWIDTH 7 0
BBX 6 8 -1 0
BITMAP
38
6C
44
70
38
88
D8
70
ENDCHAR
STARTCHAR t
ENCODING 116
SWIDTH 352 0
DWIDTH 6 0
BBX 6 11 -1 0
BITMAP
0C
18
18
7C
30
30
60
60
C8
D0
60
ENDCHAR
STARTCHAR u
ENCODING 117
SWIDTH 611 0
DWIDTH 10 0
BBX 9 8 0 0
BITMAP
E300
6300
6600
C600
CC00
CC80
9900
6E00
ENDCHAR
STARTCHAR v
ENCODING 118
SWIDTH 519 0
DWIDTH 8 0
BBX 7 8 -1 0
BITMAP
F6
62
66
66
44
4C
68
30
ENDCHAR
STARTCHAR w
ENCODING 119
SWIDTH 778 0
DWIDTH 13 0
BBX 12 8 -1 0
BITMAP
F330
3310
6330
6630
6630
4620
6B40
3180
ENDCHAR
STARTCHAR x
ENCODING 120
SWIDTH 500 0
DWIDTH 8 0
BBX 9 8 -1 0
BITMAP
3380
7680
5C00
0800
1C00
3400
E700
C600
ENDCHAR
STARTCHAR y
ENCODING 121
SWIDTH 500 0
DWIDTH 8 0
BBX 10 11 -3 -3
BITMAP
10C0
38C0
5980
0D80
0D00
0700
0600
0600
CC00
C800
7000
ENDCHAR
STARTCHAR z
ENCODING 122
SWIDTH 463 0
DWIDTH 8 0
BBX 8 8 -1 0
BITMAP
39
6E
0C
18
30
62
F6
9C
ENDCHAR
STARTCHAR braceleft
ENCODING 123
SWIDTH 333 0
DWIDTH 6 0
BBX 6 14 0 -2
BITMAP
0C
10
10
10
20
20
C0
20
20
40
40
40
40
60
ENDCHAR
STARTCHAR bar
ENCODING 124
SWIDTH 606 0
DWIDTH 10 0
BBX 1 12 4 0
BITMAP
80
80
80
80
80
80
80
80
80
80
80
80
ENDCHAR
STARTCHAR braceright
ENCODING 125
SWIDTH 333 0
DWIDTH 6 0
BBX 6 14 -1 -2
BITMAP
18
08
08
08
10
10
0C
10
10
10
20
20
20
C0
ENDCHAR
STARTCHAR asciitilde
ENCODING 126
SWIDTH 606 0
DWIDTH 10 0
BBX 8 2 0 3
BITMAP
71
8E
ENDCHAR
STARTCHAR space
ENCODING 160
SWIDTH 278 0
DWIDTH 4 0
BBX 1 1 1 0
BITMAP
00
ENDCHAR
STARTCHAR Aogonek
ENCODING 161
SWIDTH 704 0
DWIDTH 12 0
BBX 13 15 -2 -3
BITMAP
0080
0180
0180
02C0
04C0
04C0
08C0
0FC0
1060
2060
2060
F9F8
0200
0400
0700
ENDCHAR
STARTCHAR breve
ENCODING 162
SWIDTH 333 0
DWIDTH 6 0
BBX 5 3 1 9
BITMAP
88
88
70
ENDCHAR
STARTCHAR Lslash
ENCODING 163
SWIDTH 667 0
DWIDTH 11 0
BBX 11 12 -1 0
BITMAP
1F00
0C00
0C00
0C80
0F00
1800
7800
9820
3060
3040
31C0
FFC0
ENDCHAR
STARTCHAR currency
ENCODING 164
SWIDTH 606 0
DWIDTH 9 0
BBX 8 8 0 2
BITMAP
BD
66
C3
81
81
C3
66
BD
ENDCHAR
STARTCHAR Lcaron
ENCODING 165
SWIDTH 838 0
DWIDTH 13 0
BBX 14 12 -1 0
BITMAP
3F0C
0C0C
0C04
0C08
1810
1800
1800
1820
3060
3040
31C0
FFC0
ENDCHAR
STARTCHAR Sacute
ENCODING 166
SWIDTH 667 0
DWIDTH 11 0
BBX 11 16 -1 0
BITMAP
0180
0300
0400
0000
0F20
18E0
3040
3040
3840
1F00
0780
41C0
40C0
40C0
E180
9E00
ENDCHAR
STARTCHAR section
ENCODING 167
SWIDTH 500 0
DWIDTH 8 0
BBX 8 15 -1 -3
BITMAP
0E
11
13
10
18
2C
46
42
62
34
18
08
C8
88
70
ENDCHAR
STARTCHAR dieresis
ENCODING 168
SWIDTH 333 0
DWIDTH 6 0
BBX 5 2 1 9
BITMAP
D8
D8
ENDCHAR
STARTCHAR Scaron
ENCODING 169
SWIDTH 667 0
DWIDTH 11 0
BBX 11 13 -1 0
BITMAP
0880
0500
0200
0000
0F20
18C0
3040
3C00
1F80
43C0
40C0
E180
9E00
ENDCHAR
STARTCHAR Scedilla
ENCODING 170
SWIDTH 667 0
DWIDTH 11 0
BBX 11 15 -1 -3
BITMAP
0F20
18E0
3040
3040
3840
1F00
0780
41C0
40C0
40C0
E180
9E00
0C00
0200
0C00
ENDCHAR
STARTCHAR Tcaron
ENCODING 171
SWIDTH 685 0
DWIDTH 11 0
BBX 12 16 0 0
BITMAP
0880
0500
0200
0000
7FF0
6670
C620
8620
8C20
0C00
0C00
0C00
1800
1800
1800
7E00
ENDCHAR
STARTCHAR Zacute
ENCODING 172
SWIDTH 667 0
DWIDTH 11 0
BBX 11 16 0 0
BITMAP
0180
0300
0400
0000
3FE0
30C0
6180
4300
0300
0600
0C00
1800
1840
30C0
6180
FF80
ENDCHAR
STARTCHAR hyphen
ENCODING 173
SWIDTH 333 0
DWIDTH 5 0
BBX 3 1 1 3
BITMAP
E0
ENDCHAR
STARTCHAR Zcaron
ENCODING 174
SWIDTH 667 0
DWIDTH 11 0
BBX 10 13 0 0
BITMAP
0880
0500
0200
0000
3FC0
3180
6300
4600
0C00
1840
30C0
6180
FF80
ENDCHAR
STARTCHAR Zdotaccent
ENCODING 175
SWIDTH 667 0
DWIDTH 11 0
BBX 11 15 0 0
BITMAP
0600
0600
0000
3FE0
30C0
6180
4300
0300
0600
0C00
1800
1840
30C0
6180
FF80
ENDCHAR
STARTCHAR degree
ENCODING 176
SWIDTH 400 0
DWIDTH 7 0
BBX 5 5 1 7
BITMAP
70
88
88
88
70
ENDCHAR
STARTCHAR aogonek
ENCODING 177
SWIDTH 574 0
DWIDTH 10 0
BBX 9 11 0 -3
BITMAP
1B00
2600
6600
C600
CC00
CC80
CD00
7600
0800
1000
1C00
ENDCHAR
STARTCHAR ogonek
ENCODING 178
SWIDTH 333 0
DWIDTH 5 0
BBX 3 3 1 -3
BITMAP
40
80
E0
ENDCHAR
STARTCHAR lslash
ENCODING 179
SWIDTH 333 0
DWIDTH 6 0
BBX 6 12 0 0
BITMAP
38
08
18
10
3C
E0
20
60
40
C8
90
60
ENDCHAR
STARTCHAR acute
ENCODING 180
SWIDTH 333 0
DWIDTH 5 0
BBX 4 3 1 9
BITMAP
30
60
80
ENDCHAR
STARTCHAR lcaron
ENCODING 181
SWIDTH 520 0
DWIDTH 9 0
BBX 9 12 0 0
BITMAP
7180
3180
3080
6100
6200
6000
4000
C000
C000
C800
D000
6000
ENDCHAR
STARTCHAR sacute
ENCODING 182
SWIDTH 444 0
DWIDTH 7 0
BBX 6 12 -1 0
BITMAP
0C
18
20
00
38
6C
44
70
38
88
D8
70
ENDCHAR
STARTCHAR caron
ENCODING 183
SWIDTH 333 0
DWIDTH 5 0
BBX 5 3 1 9
BITMAP
88
50
20
ENDCHAR
STARTCHAR cedilla
ENCODING 184
SWIDTH 333 0
DWIDTH 5 0
BBX 3 4 0 -3
BITMAP
40
C0
20
C0
ENDCHAR
STARTCHAR scaron
ENCODING 185
SWIDTH 444 0
DWIDTH 7 0
BBX 6 12 0 0
BITMAP
44
28
10
00
38
44
4C
60
18
C8
88
70
ENDCHAR
STARTCHAR scedilla
ENCODING 186
SWIDTH 444 0
DWIDTH 7 0
BBX 6 11 -1 -3
BITMAP
38
6C
44
70
38
88
D8
70
60
10
60
ENDCHAR
STARTCHAR tcaron
ENCODING 187
SWIDTH 538 0
DWIDTH 9 0
BBX 10 12 -1 0
BITMAP
00C0
0CC0
1840
1880
7D00
3000
3000
6000
6000
C800
D000
6000
ENDCHAR
STARTCHAR zacute
ENCODING 188
SWIDTH 463 0
DWIDTH 8 0
BBX 8 12 -1 0
BITMAP
06
0C
10
00
39
6E
0C
18
30
62
F6
9C
ENDCHAR
STARTCHAR hungarumlaut
ENCODING 189
SWIDTH 333 0
DWIDTH 5 0
BBX 6 3 1 9
BITMAP
24
48
90
ENDCHAR
STARTCHAR zcaron
ENCODING 190
SWIDTH 463 0
DWIDTH 8 0
BBX 8 12 -1 0
BITMAP
22
14
08
00
39
4E
04
08
30
42
F2
9C
ENDCHAR
STARTCHAR zdotaccent
ENCODING 191
SWIDTH 463 0
DWIDTH 8 0
BBX 8 11 -1 0
BITMAP
18
18
00
39
6E
0C
18
30
62
F6
9C
ENDCHAR
STARTCHAR Racute
ENCODING 192
SWIDTH 741 0
DWIDTH 13 0
BBX 13 16 -1 0
BITMAP
00C0
0180
0200
0000
3FF0
0C38
0C18
0C18
1870
1FC0
18C0
1860
3060
30C8
30C8
FC70
ENDCHAR
STARTCHAR Aacute
ENCODING 193
SWIDTH 704 0
DWIDTH 12 0
BBX 13 16 -1 0
BITMAP
0030
0060
0080
0000
0080
0180
0180
02C0
04C0
04C0
08C0
0FC0
1060
2060
2060
F9F8
ENDCHAR
STARTCHAR Acircumflex
ENCODING 194
SWIDTH 704 0
DWIDTH 12 0
BBX 13 16 -1 0
BITMAP
0080
01C0
0220
0000
0080
0180
0180
02C0
04C0
04C0
08C0
0FC0
1060
2060
2060
F9F8
ENDCHAR
STARTCHAR Abreve
ENCODING 195
SWIDTH 704 0
DWIDTH 12 0
BBX 13 16 -2 0
BITMAP
0440
0440
0380
0000
0080
0180
0180
02C0
04C0
04C0
08C0
0FC0
1060
2060
2060
F9F8
ENDCHAR
STARTCHAR Adieresis
ENCODING 196
SWIDTH 704 0
DWIDTH 12 0
BBX 13 15 -1 0
BITMAP
0220
0220
0000
0080
0180
0180
02C0
04C0
04C0
08C0
0FC0
1060
2060
2060
F9F8
ENDCHAR
STARTCHAR Lacute
ENCODING 197
SWIDTH 667 0
DWIDTH 11 0
BBX 11 16 -1 0
BITMAP
0300
0600
0800
0000
3F00
0C00
0C00
0C00
1800
1800
1800
1820
3060
3040
31C0
FFC0
ENDCHAR
STARTCHAR Cacute
ENCODING 198
SWIDTH 722 0
DWIDTH 12 0
BBX 11 16 0 0
BITMAP
0180
0300
0400
0000
07A0
18E0
3040
6040
6040
C000
C000
C000
C040
C080
6180
3E00
ENDCHAR
STARTCHAR Ccedilla
ENCODING 199
SWIDTH 722 0
DWIDTH 12 0
BBX 11 15 0 -3
BITMAP
07A0
18E0
3040
6040
6040
C000
C000
C000
C040
C080
6180
3E00
1800
0400
1800
ENDCHAR
STARTCHAR Ccaron
ENCODING 200
SWIDTH 722 0
DWIDTH 12 0
BBX 11 16 0 0
BITMAP
0880
0500
0200
0000
07A0
18E0
3040
6040
6040
C000
C000
C000
C040
C080
6180
3E00
ENDCHAR
STARTCHAR Eacute
ENCODING 201
SWIDTH 722 0
DWIDTH 12 0
BBX 13 16 -1 0
BITMAP
0060
00C0
0100
0000
3FF8
0C18
0C10
0C90
1980
1F80
1900
1900
3010
3030
3060
FFE0
ENDCHAR
STARTCHAR Eogonek
ENCODING 202
SWIDTH 722 0
DWIDTH 12 0
BBX 13 15 -1 -3
BITMAP
3FF8
0C18
0C10
0C90
1980
1F80
1900
1900
3010
3030
3060
FFE0
0200
0400
0700
ENDCHAR
STARTCHAR Edieresis
ENCODING 203
SWIDTH 722 0
DWIDTH 12 0
BBX 13 15 -1 0
BITMAP
0220
0220
0000
3FF8
0C18
0C10
0C90
1980
1F80
1900
1900
3010
3030
3060
FFE0
ENDCHAR
STARTCHAR Ecaron
ENCODING 204
SWIDTH 722 0
DWIDTH 12 0
BBX 13 16 -1 0
BITMAP
0440
0280
0100
0000
3FF8
0C18
0C10
0C90
1980
1F80
1900
1900
3010
3030
3060
FFE0
ENDCHAR
STARTCHAR Iacute
ENCODING 205
SWIDTH 407 0
DWIDTH 7 0
BBX 9 16 -1 0
BITMAP
0180
0300
0400
0000
3F00
0C00
0C00
0C00
1800
1800
1800
1800
3000
3000
3000
FC00
ENDCHAR
STARTCHAR Icircumflex
ENCODING 206
SWIDTH 407 0
DWIDTH 7 0
BBX 8 16 -1 0
BITMAP
04
0E
11
00
3F
0C
0C
0C
18
18
18
18
30
30
30
FC
ENDCHAR
STARTCHAR Dcaron
ENCODING 207
SWIDTH 778 0
DWIDTH 13 0
BBX 13 16 -1 0
BITMAP
0880
0500
0200
0000
3FC0
0C30
0C10
0C18
1818
1818
1818
1830
3030
3060
30C0
FF00
ENDCHAR
STARTCHAR Dcroat
ENCODING 208
SWIDTH 778 0
DWIDTH 13 0
BBX 13 12 -1 0
BITMAP
3FC0
0C30
0C10
1818
1818
7E18
1818
1830
3030
3060
30C0
FF00
ENDCHAR
STARTCHAR Nacute
ENCODING 209
SWIDTH 815 0
DWIDTH 13 0
BBX 15 16 -1 0
BITMAP
0060
00C0
0100
0000
3C3E
0E08
0E08
0B08
0B10
1190
1190
10D0
20E0
2060
2060
F820
ENDCHAR
STARTCHAR Ncaron
ENCODING 210
SWIDTH 815 0
DWIDTH 13 0
BBX 15 16 -1 0
BITMAP
0440
0280
0100
0000
3C3E
0E08
0E08
0B08
0B10
1190
1190
10D0
20E0
2060
2060
F820
ENDCHAR
STARTCHAR Oacute
ENCODING 211
SWIDTH 778 0
DWIDTH 13 0
BBX 12 16 0 0
BITMAP
0060
00C0
0100
0000
07C0
1860
3030
6030
6030
C030
C030
C060
C060
C0C0
6180
3E00
ENDCHAR
STARTCHAR Ocircumflex
ENCODING 212
SWIDTH 778 0
DWIDTH 13 0
BBX 12 16 0 0
BITMAP
0100
0380
0440
0000
07C0
1860
3030
6030
6030
C030
C030
C060
C060
C0C0
6180
3E00
ENDCHAR
STARTCHAR Ohungarumlaut
ENCODING 213
SWIDTH 778 0
DWIDTH 13 0
BBX 12 16 0 0
BITMAP
0240
0480
0900
0000
07C0
1860
3030
6030
6030
C030
C030
C060
C060
C0C0
6180
3E00
ENDCHAR
STARTCHAR Odieresis
ENCODING 214
SWIDTH 778 0
DWIDTH 13 0
BBX 12 15 0 0
BITMAP
0440
0440
0000
07C0
1860
3030
6030
6030
C030
C030
C060
C060
C0C0
6180
3E00
ENDCHAR
STARTCHAR multiply
ENCODING 215
SWIDTH 606 0
DWIDTH 10 0
BBX 8 8 1 0
BITMAP
81
42
24
18
18
24
42
81
ENDCHAR
STARTCHAR Rcaron
ENCODING 216
SWIDTH 741 0
DWIDTH 13 0
BBX 13 16 -1 0
BITMAP
0440
0280
0100
0000
3FF0
0C38
0C18
0C18
1870
1FC0
18C0
1860
3060
30C8
30C8
FC70
ENDCHAR
STARTCHAR Uring
ENCODING 217
SWIDTH 815 0
DWIDTH 13 0
BBX 13 17 1 0
BITMAP
0600
0900
0900
0600
0000
FCF8
3020
3020
3020
6040
6040
6040
C080
C080
C080
4100
3E00
ENDCHAR
STARTCHAR Uacute
ENCODING 218
SWIDTH 815 0
DWIDTH 13 0
BBX 13 16 1 0
BITMAP
0060
00C0
0100
0000
FCF8
3020
3020
3020
6040
6040
6040
C080
C080
C080
4100
3E00
ENDCHAR
STARTCHAR Uhungarumlaut
ENCODING 219
SWIDTH 815 0
DWIDTH 13 0
BBX 13 16 1 0
BITMAP
0240
0480
0900
0000
FCF8
3020
3020
3020
6040
6040
6040
C080
C080
C080
4100
3E00
ENDCHAR
STARTCHAR Udieresis
ENCODING 220
SWIDTH 815 0
DWIDTH 13 0
BBX 13 15 1 0
BITMAP
0440
0440
0000
FCF8
3020
3020
3020
6040
6040
6040
C080
C080
C080
4100
3E00
ENDCHAR
STARTCHAR Yacute
ENCODING 221
SWIDTH 685 0
DWIDTH 11 0
BBX 13 16 0 0
BITMAP
00C0
0180
0200
0000
F8F8
3060
3040
1880
1900
1A00
0C00
0C00
0C00
1800
1800
7E00
ENDCHAR
STARTCHAR Tcommaaccent
ENCODING 222
SWIDTH 685 0
DWIDTH 11 0
BBX 12 15 0 -3
BITMAP
7FF0
6670
C620
8620
8C20
0C00
0C00
0C00
1800
1800
1800
7E00
1800
0400
1800
ENDCHAR
STARTCHAR germandbls
ENCODING 223
SWIDTH 556 0
DWIDTH 9 0
BBX 10 15 -2 -3
BITMAP
0780
0CC0
18C0
18C0
1980
3300
3180
3180
3180
6D80
6B00
6600
6000
4000
8000
ENDCHAR
STARTCHAR racute
ENCODING 224
SWIDTH 444 0
DWIDTH 7 0
BBX 7 12 -1 0
BITMAP
06
0C
10
00
DC
66
6E
60
60
C0
C0
C0
ENDCHAR
STARTCHAR aacute
ENCODING 225
SWIDTH 574 0
DWIDTH 10 0
BBX 8 12 0 0
BITMAP
03
06
08
00
3B
66
C6
C6
CC
CD
CD
76
ENDCHAR
STARTCHAR acircumflex
ENCODING 226
SWIDTH 574 0
DWIDTH 10 0
BBX 8 12 0 0
BITMAP
08
1C
22
00
3B
66
C6
C6
CC
CD
CD
76
ENDCHAR
STARTCHAR abreve
ENCODING 227
SWIDTH 574 0
DWIDTH 10 0
BBX 9 12 0 0
BITMAP
2200
2200
1C00
0000
1B00
2600
6600
C600
CC00
CC80
CD00
7600
ENDCHAR
STARTCHAR adieresis
ENCODING 228
SWIDTH 574 0
DWIDTH 10 0
BBX 8 11 0 0
BITMAP
12
12
00
3B
66
C6
C6
CC
CD
CD
76
ENDCHAR
STARTCHAR lacute
ENCODING 229
SWIDTH 333 0
DWIDTH 6 0
BBX 6 16 0 0
BITMAP
0C
18
20
00
70
30
30
60
60
60
40
C0
C0
C8
D0
60
ENDCHAR
STARTCHAR cacute
ENCODING 230
SWIDTH 444 0
DWIDTH 8 0
BBX 7 12 0 0
BITMAP
06
0C
10
00
3C
66
CE
C0
C0
84
C8
70
ENDCHAR
STARTCHAR ccedilla
ENCODING 231
SWIDTH 444 0
DWIDTH 8 0
BBX 7 11 0 -3
BITMAP
3C
66
CE
C0
C0
84
C8
70
20
10
60
ENDCHAR
STARTCHAR ccaron
ENCODING 232
SWIDTH 444 0
DWIDTH 8 0
BBX 7 12 0 0
BITMAP
44
28
10
00
3C
66
CE
C0
C0
84
C8
70
ENDCHAR
STARTCHAR eacute
ENCODING 233
SWIDTH 444 0
DWIDTH 7 0
BBX 7 12 0 0
BITMAP
06
0C
10
00
38
6C
CC
D8
F0
80
C8
70
ENDCHAR
STARTCHAR eogonek
ENCODING 234
SWIDTH 444 0
DWIDTH 7 0
BBX 6 11 0 -3
BITMAP
38
6C
CC
D8
F0
80
C8
70
20
40
70
ENDCHAR
STARTCHAR edieresis
ENCODING 235
SWIDTH 444 0
DWIDTH 7 0
BBX 6 11 0 0
BITMAP
24
24
00
38
6C
CC
D8
F0
80
C8
70
ENDCHAR
STARTCHAR ecaron
ENCODING 236
SWIDTH 444 0
DWIDTH 7 0
BBX 6 12 0 0
BITMAP
44
28
10
00
38
6C
CC
D8
F0
80
C8
70
ENDCHAR
STARTCHAR iacute
ENCODING 237
SWIDTH 333 0
DWIDTH 6 0
BBX 5 12 0 0
BITMAP
18
30
40
00
E0
60
60
60
C0
C8
D0
60
ENDCHAR
STARTCHAR icircumflex
ENCODING 238
SWIDTH 333 0
DWIDTH 6 0
BBX 5 12 0 0
BITMAP
20
70
88
00
E0
60
60
60
C0
C8
D0
60
ENDCHAR
STARTCHAR dcaron
ENCODING 239
SWIDTH 784 0
DWIDTH 13 0
BBX 13 12 0 0
BITMAP
0398
0198
0108
0310
3B20
6600
C600
C600
C600
8C80
CD00
7600
ENDCHAR
STARTCHAR dcroat
ENCODING 240
SWIDTH 611 0
DWIDTH 10 0
BBX 10 12 0 0
BITMAP
0380
0180
3FC0
0300
3B00
6600
C600
C600
C600
8C80
CD00
7600
ENDCHAR
STARTCHAR nacute
ENCODING 241
SWIDTH 611 0
DWIDTH 10 0
BBX 8 12 0 0
BITMAP
06
0C
10
00
EC
76
66
66
CC
CC
89
86
ENDCHAR
STARTCHAR ncaron
ENCODING 242
SWIDTH 611 0
DWIDTH 10 0
BBX 8 12 0 0
BITMAP
44
28
10
00
EC
76
66
66
CC
CC
89
86
ENDCHAR
STARTCHAR oacute
ENCODING 243
SWIDTH 500 0
DWIDTH 8 0
BBX 8 12 -1 0
BITMAP
03
06
08
00
3C
66
C6
C2
86
C6
CC
78
ENDCHAR
STARTCHAR ocircumflex
ENCODING 244
SWIDTH 500 0
DWIDTH 8 0
BBX 7 12 -1 0
BITMAP
08
1C
22
00
3C
66
C6
C2
86
C6
CC
78
ENDCHAR
STARTCHAR ohungarumlaut
ENCODING 245
SWIDTH 500 0
DWIDTH 8 0
BBX 7 12 -1 0
BITMAP
12
24
48
00
3C
66
C6
C2
86
C6
CC
78
ENDCHAR
STARTCHAR odieresis
ENCODING 246
SWIDTH 500 0
DWIDTH 8 0
BBX 7 11 -1 0
BITMAP
12
12
00
3C
66
C6
C2
86
C6
CC
78
ENDCHAR
STARTCHAR divide
ENCODING 247
SWIDTH 606 0
DWIDTH 10 0
BBX 8 7 1 1
BITMAP
18
18
00
FF
00
18
18
ENDCHAR
STARTCHAR rcaron
ENCODING 248
SWIDTH 444 0
DWIDTH 7 0
BBX 7 12 -1 0
BITMAP
44
28
10
00
DC
66
6E
60
60
C0
C0
C0
ENDCHAR
STARTCHAR uring
ENCODING 249
SWIDTH 611 0
DWIDTH 10 0
BBX 9 13 0 0
BITMAP
1800
2400
2400
1800
0000
E300
6300
6600
C600
CC00
CC80
9900
6E00
ENDCHAR
STARTCHAR uacute
ENCODING 250
SWIDTH 611 0
DWIDTH 10 0
BBX 9 12 0 0
BITMAP
0300
0600
0800
0000
E600
6600
6600
CC00
CC00
CC80
9900
6E00
ENDCHAR
STARTCHAR uhungarumlaut
ENCODING 251
SWIDTH 611 0
DWIDTH 10 0
BBX 9 12 0 0
BITMAP
0900
1200
2400
0000
E300
6300
6600
C600
CC00
CC80
9900
6E00
ENDCHAR
STARTCHAR udieresis
ENCODING 252
SWIDTH 611 0
DWIDTH 10 0
BBX 9 11 0 0
BITMAP
2200
2200
0000
E600
6600
6600
CC00
CC00
CC80
D900
6E00
ENDCHAR
STARTCHAR yacute
ENCODING 253
SWIDTH 500 0
DWIDTH 8 0
BBX 10 15 -3 -3
BITMAP
0180
0300
0400
0000
10C0
38C0
5980
0D80
0F00
0600
0600
0400
CC00
8800
7000
ENDCHAR
STARTCHAR tcommaaccent
ENCODING 254
SWIDTH 352 0
DWIDTH 6 0
BBX 6 14 -1 -3
BITMAP
0C
18
18
7C
30
30
60
60
C8
D0
60
60
10
60
ENDCHAR
STARTCHAR dotaccent
ENCODING 255
SWIDTH 333 0
DWIDTH 5 0
BBX 2 2 2 9
BITMAP
C0
C0
ENDCHAR
ENDFONT
