STARTFONT 2.1
COMMENT AUTOMATICALLY GENERATED FILE. DO NOT EDIT!
COMMENT Generated with 'ucs2any ncenB12.bdf /usr/local/share/fonts/X11/util/map-ISO8859-2 ISO8859-2'
COMMENT from an ISO10646-1 encoded source BDF font.
COMMENT ucs2any by Ben Collver <collver1@attbi.com>, 2003, based on
COMMENT ucs2any.pl by Markus Kuhn <http://www.cl.cam.ac.uk/~mgk25/>, 2000.
FONT -Adobe-New Century Schoolbook-Bold-R-Normal--17-120-100-100-P-99-ISO8859-2
SIZE 12 100 100
FONTBOUNDINGBOX 18 20 -2 -3
COMMENT ISO10646-1 extension by Markus Kuhn <mkuhn@acm.org>, 2001-03-20
COMMENT
COMMENT +
COMMENT  Copyright 1984-1989, 1994 Adobe Systems Incorporated.
COMMENT  Copyright 1988, 1994 Digital Equipment Corporation.
COMMENT
COMMENT  Adobe is a trademark of Adobe Systems Incorporated which may be
COMMENT  registered in certain jurisdictions.
COMMENT  Permission to use these trademarks is hereby granted only in
COMMENT  association with the images described in this file.
COMMENT
COMMENT  Permission to use, copy, modify, distribute and sell this software
COMMENT  and its documentation for any purpose and without fee is hereby
COMMENT  granted, provided that the above copyright notices appear in all
COMMENT  copies and that both those copyright notices and this permission
COMMENT  notice appear in supporting documentation, and that the names of
COMMENT  Adobe Systems and Digital Equipment Corporation not be used in
COMMENT  advertising or publicity pertaining to distribution of the software
COMMENT  without specific, written prior permission.  Adobe Systems and
COMMENT  Digital Equipment Corporation make no representations about the
COMMENT  suitability of this software for any purpose.  It is provided "as
COMMENT  is" without express or implied warranty.
COMMENT -
STARTPROPERTIES 26
FOUNDRY "Adobe"
FAMILY_NAME "New Century Schoolbook"
WEIGHT_NAME "Bold"
SLANT "R"
SETWIDTH_NAME "Normal"
ADD_STYLE_NAME ""
PIXEL_SIZE 17
POINT_SIZE 120
RESOLUTION_X 100
RESOLUTION_Y 100
SPACING "P"
AVERAGE_WIDTH 99
CHARSET_REGISTRY "ISO8859"
CHARSET_ENCODING "2"
CAP_HEIGHT 12
X_HEIGHT 8
FONT_ASCENT 14
FONT_DESCENT 3
FACE_NAME "New Century Schoolbook Bold"
COPYRIGHT "Copyright (c) 1984, 1987 Adobe Systems Incorporated. All Rights Reserved. Copyright (c) 1988, 1991 Digital Equipment Corporation. All Rights Reserved."
NOTICE "New Century Schoolbook is a trademark of Linotype-Hell AG and/or its subsidiaries."
_DEC_DEVICE_FONTNAMES "PS=NewCenturySchlbk-Bold"
DEFAULT_CHAR 0
RELATIVE_SETWIDTH 50
RELATIVE_WEIGHT 70
FULL_NAME "New Century Schoolbook Bold"
ENDPROPERTIES
CHARS 192
STARTCHAR defaultchar
ENCODING 0
SWIDTH 870 0
DWIDTH 15 0
BBX 13 11 0 0
BITMAP
AAA8
0000
8008
0000
8008
0000
8008
0000
8008
0000
AAA8
ENDCHAR
STARTCHAR space
ENCODING 32
SWIDTH 287 0
DWIDTH 4 0
BBX 1 1 1 0
BITMAP
00
ENDCHAR
STARTCHAR exclam
ENCODING 33
SWIDTH 296 0
DWIDTH 5 0
BBX 3 12 1 0
BITMAP
40
E0
E0
E0
E0
40
40
00
40
E0
E0
40
ENDCHAR
STARTCHAR quotedbl
ENCODING 34
SWIDTH 333 0
DWIDTH 6 0
BBX 5 5 0 7
BITMAP
D8
D8
D8
90
90
ENDCHAR
STARTCHAR numbersign
ENCODING 35
SWIDTH 574 0
DWIDTH 10 0
BBX 10 12 0 0
BITMAP
1980
1980
1980
7FC0
7FC0
3300
3300
FF80
FF80
6600
6600
6600
ENDCHAR
STARTCHAR dollar
ENCODING 36
SWIDTH 574 0
DWIDTH 10 0
BBX 9 15 0 -1
BITMAP
0800
0800
3E00
6900
CB80
C900
FC00
7F00
1F80
4980
E980
C980
6B00
3E00
0800
ENDCHAR
STARTCHAR percent
ENCODING 37
SWIDTH 833 0
DWIDTH 14 0
BBX 12 12 1 0
BITMAP
3880
7780
6500
C500
CA00
CAE0
75D0
0590
0B10
0B20
1320
11C0
ENDCHAR
STARTCHAR ampersand
ENCODING 38
SWIDTH 852 0
DWIDTH 14 0
BBX 12 12 1 0
BITMAP
0F00
1980
1980
1900
1E00
3CF0
6E60
E740
C780
E390
F3F0
7CE0
ENDCHAR
STARTCHAR quotesingle
ENCODING 39
SWIDTH 241 0
DWIDTH 4 0
BBX 2 5 1 7
BITMAP
C0
C0
C0
80
80
ENDCHAR
STARTCHAR parenleft
ENCODING 40
SWIDTH 389 0
DWIDTH 6 0
BBX 4 14 1 -2
BITMAP
10
20
60
60
C0
C0
C0
C0
C0
C0
60
60
20
10
ENDCHAR
STARTCHAR parenright
ENCODING 41
SWIDTH 389 0
DWIDTH 6 0
BBX 4 14 0 -2
BITMAP
80
40
60
60
30
30
30
30
30
30
60
60
40
80
ENDCHAR
STARTCHAR asterisk
ENCODING 42
SWIDTH 500 0
DWIDTH 8 0
BBX 7 7 0 5
BITMAP
10
54
D6
38
D6
54
10
ENDCHAR
STARTCHAR plus
ENCODING 43
SWIDTH 606 0
DWIDTH 10 0
BBX 8 8 1 0
BITMAP
18
18
18
FF
FF
18
18
18
ENDCHAR
STARTCHAR comma
ENCODING 44
SWIDTH 278 0
DWIDTH 5 0
BBX 4 6 0 -3
BITMAP
60
F0
70
20
60
80
ENDCHAR
STARTCHAR hyphen
ENCODING 45
SWIDTH 333 0
DWIDTH 5 0
BBX 4 2 0 3
BITMAP
F0
F0
ENDCHAR
STARTCHAR period
ENCODING 46
SWIDTH 278 0
DWIDTH 5 0
BBX 4 3 0 0
BITMAP
60
F0
60
ENDCHAR
STARTCHAR slash
ENCODING 47
SWIDTH 278 0
DWIDTH 5 0
BBX 5 12 0 0
BITMAP
08
08
10
10
10
20
20
40
40
40
80
80
ENDCHAR
STARTCHAR zero
ENCODING 48
SWIDTH 574 0
DWIDTH 10 0
BBX 9 12 0 0
BITMAP
1C00
3600
6300
6300
E380
E380
E380
E380
6300
6300
3600
1C00
ENDCHAR
STARTCHAR one
ENCODING 49
SWIDTH 574 0
DWIDTH 10 0
BBX 7 12 1 0
BITMAP
18
F8
38
38
38
38
38
38
38
38
38
FE
ENDCHAR
STARTCHAR two
ENCODING 50
SWIDTH 574 0
DWIDTH 10 0
BBX 8 12 1 0
BITMAP
3C
46
E7
E7
47
0E
0C
18
31
61
FF
FF
ENDCHAR
STARTCHAR three
ENCODING 51
SWIDTH 574 0
DWIDTH 10 0
BBX 9 12 0 0
BITMAP
3E00
6700
7300
2300
0600
1F00
0700
0380
6380
F380
6700
3E00
ENDCHAR
STARTCHAR four
ENCODING 52
SWIDTH 574 0
DWIDTH 10 0
BBX 9 12 0 0
BITMAP
0200
0600
0E00
1E00
2E00
2E00
4E00
8E00
FF80
0E00
0E00
3F80
ENDCHAR
STARTCHAR five
ENCODING 53
SWIDTH 574 0
DWIDTH 10 0
BBX 8 12 1 0
BITMAP
7F
7E
40
40
7C
4E
07
47
E7
E7
CE
7C
ENDCHAR
STARTCHAR six
ENCODING 54
SWIDTH 574 0
DWIDTH 10 0
BBX 9 12 0 0
BITMAP
1F00
3380
6780
6300
E000
EE00
F700
E380
E380
6380
7700
1E00
ENDCHAR
STARTCHAR seven
ENCODING 55
SWIDTH 574 0
DWIDTH 10 0
BBX 8 12 1 0
BITMAP
FF
FE
86
86
84
0C
0C
18
18
38
38
10
ENDCHAR
STARTCHAR eight
ENCODING 56
SWIDTH 574 0
DWIDTH 10 0
BBX 8 12 1 0
BITMAP
3C
66
E7
E7
66
3C
66
E7
E7
E7
66
3C
ENDCHAR
STARTCHAR nine
ENCODING 57
SWIDTH 574 0
DWIDTH 10 0
BBX 9 12 0 0
BITMAP
3C00
7700
E300
E380
E380
7780
3B80
0380
6300
F300
E600
7C00
ENDCHAR
STARTCHAR colon
ENCODING 58
SWIDTH 278 0
DWIDTH 5 0
BBX 4 8 0 0
BITMAP
60
F0
60
00
00
60
F0
60
ENDCHAR
STARTCHAR semicolon
ENCODING 59
SWIDTH 278 0
DWIDTH 5 0
BBX 4 11 0 -3
BITMAP
60
F0
60
00
00
60
F0
70
20
60
80
ENDCHAR
STARTCHAR less
ENCODING 60
SWIDTH 606 0
DWIDTH 10 0
BBX 8 8 1 1
BITMAP
03
0F
3C
F0
F0
3C
0F
03
ENDCHAR
STARTCHAR equal
ENCODING 61
SWIDTH 606 0
DWIDTH 10 0
BBX 8 6 1 1
BITMAP
FF
FF
00
00
FF
FF
ENDCHAR
STARTCHAR greater
ENCODING 62
SWIDTH 606 0
DWIDTH 10 0
BBX 8 8 1 1
BITMAP
C0
F0
3C
0F
0F
3C
F0
C0
ENDCHAR
STARTCHAR question
ENCODING 63
SWIDTH 500 0
DWIDTH 8 0
BBX 8 12 0 0
BITMAP
3C
66
F7
67
0E
0C
10
00
10
38
38
10
ENDCHAR
STARTCHAR at
ENCODING 64
SWIDTH 747 0
DWIDTH 12 0
BBX 12 13 0 -1
BITMAP
0F80
38E0
6020
46B0
CD90
9990
9990
99B0
DBA0
4C40
6030
38E0
0F80
ENDCHAR
STARTCHAR A
ENCODING 65
SWIDTH 759 0
DWIDTH 13 0
BBX 13 12 0 0
BITMAP
0600
0700
0700
0F00
0B80
1B80
11C0
3FC0
31C0
20E0
60E0
F1F8
ENDCHAR
STARTCHAR B
ENCODING 66
SWIDTH 778 0
DWIDTH 13 0
BBX 12 12 0 0
BITMAP
FFC0
38E0
3870
3870
38E0
3FC0
38E0
3870
3870
3870
38E0
FFC0
ENDCHAR
STARTCHAR C
ENCODING 67
SWIDTH 778 0
DWIDTH 13 0
BBX 11 12 1 0
BITMAP
0FA0
38E0
7060
7020
E020
E000
E000
E020
7020
7040
38C0
0F00
ENDCHAR
STARTCHAR D
ENCODING 68
SWIDTH 833 0
DWIDTH 14 0
BBX 13 12 0 0
BITMAP
FF80
38E0
3870
3870
3838
3838
3838
3838
3870
3870
38E0
FF80
ENDCHAR
STARTCHAR E
ENCODING 69
SWIDTH 759 0
DWIDTH 12 0
BBX 11 12 0 0
BITMAP
FFE0
3860
3860
3920
3B00
3F00
3B00
3920
3820
3860
3860
FFE0
ENDCHAR
STARTCHAR F
ENCODING 70
SWIDTH 722 0
DWIDTH 12 0
BBX 11 12 0 0
BITMAP
FFE0
3860
3860
3920
3B00
3F00
3B00
3900
3800
3800
3800
FE00
ENDCHAR
STARTCHAR G
ENCODING 71
SWIDTH 833 0
DWIDTH 14 0
BBX 13 12 1 0
BITMAP
0FA0
38E0
7060
7020
E020
E000
E3F8
E0E0
70E0
70E0
39E0
0F20
ENDCHAR
STARTCHAR H
ENCODING 72
SWIDTH 870 0
DWIDTH 15 0
BBX 14 12 0 0
BITMAP
FEFC
3870
3870
3870
3870
3FF0
3870
3870
3870
3870
3870
FEFC
ENDCHAR
STARTCHAR I
ENCODING 73
SWIDTH 444 0
DWIDTH 7 0
BBX 7 12 0 0
BITMAP
FE
38
38
38
38
38
38
38
38
38
38
FE
ENDCHAR
STARTCHAR J
ENCODING 74
SWIDTH 648 0
DWIDTH 11 0
BBX 10 12 0 0
BITMAP
1FC0
0700
0700
0700
0700
0700
6700
F700
E700
8700
CE00
7C00
ENDCHAR
STARTCHAR K
ENCODING 75
SWIDTH 815 0
DWIDTH 13 0
BBX 14 12 0 0
BITMAP
FEF8
3860
38C0
3980
3B00
3F80
3F80
3BC0
39E0
38F0
3878
FEFC
ENDCHAR
STARTCHAR L
ENCODING 76
SWIDTH 722 0
DWIDTH 12 0
BBX 11 12 0 0
BITMAP
FE00
3800
3800
3800
3800
3800
3800
3820
3820
3860
3860
FFE0
ENDCHAR
STARTCHAR M
ENCODING 77
SWIDTH 981 0
DWIDTH 16 0
BBX 16 12 0 0
BITMAP
FC3F
3C3C
2E3C
2E5C
2E5C
275C
279C
279C
239C
231C
211C
F93F
ENDCHAR
STARTCHAR N
ENCODING 78
SWIDTH 833 0
DWIDTH 14 0
BBX 14 12 0 0
BITMAP
F07C
3810
3C10
3E10
2F10
2790
23D0
21F0
20F0
2070
2030
F810
ENDCHAR
STARTCHAR O
ENCODING 79
SWIDTH 833 0
DWIDTH 14 0
BBX 12 12 1 0
BITMAP
0F00
39C0
70E0
70E0
E070
E070
E070
E070
70E0
70E0
39C0
0F00
ENDCHAR
STARTCHAR P
ENCODING 80
SWIDTH 759 0
DWIDTH 13 0
BBX 12 12 0 0
BITMAP
FFC0
38E0
3870
3870
3870
38E0
3FC0
3800
3800
3800
3800
FE00
ENDCHAR
STARTCHAR Q
ENCODING 81
SWIDTH 833 0
DWIDTH 14 0
BBX 12 15 1 -3
BITMAP
0F00
39C0
70E0
70E0
E070
E070
E070
E670
6960
79E0
39C0
0F80
01D0
01F0
00E0
ENDCHAR
STARTCHAR R
ENCODING 82
SWIDTH 815 0
DWIDTH 14 0
BBX 13 12 0 0
BITMAP
FFC0
38E0
3870
3870
38E0
3FC0
3980
39C0
38E0
38E8
38F8
FC70
ENDCHAR
STARTCHAR S
ENCODING 83
SWIDTH 667 0
DWIDTH 11 0
BBX 9 12 1 0
BITMAP
3E80
4380
C180
C080
F880
7E00
3F00
8F80
8180
C180
E100
BE00
ENDCHAR
STARTCHAR T
ENCODING 84
SWIDTH 722 0
DWIDTH 12 0
BBX 11 12 0 0
BITMAP
FFE0
CE60
8E20
8E20
0E00
0E00
0E00
0E00
0E00
0E00
0E00
3F80
ENDCHAR
STARTCHAR U
ENCODING 85
SWIDTH 833 0
DWIDTH 14 0
BBX 14 12 0 0
BITMAP
FE7C
3810
3810
3810
3810
3810
3810
3810
3810
1C20
1E60
0780
ENDCHAR
STARTCHAR V
ENCODING 86
SWIDTH 759 0
DWIDTH 13 0
BBX 13 12 -1 0
BITMAP
FE78
3830
3C20
1C20
1C40
0E40
0E80
0F80
0780
0700
0300
0300
ENDCHAR
STARTCHAR W
ENCODING 87
SWIDTH 981 0
DWIDTH 16 0
BBX 15 12 0 0
BITMAP
FBDE
718C
3188
39C8
39D8
3BD0
1AD0
1EF0
1CE0
0C60
0C60
0C60
ENDCHAR
STARTCHAR X
ENCODING 88
SWIDTH 722 0
DWIDTH 12 0
BBX 12 12 0 0
BITMAP
F9F0
7060
3840
1C80
1F00
0F00
0F00
0F80
13C0
21C0
60E0
F9F0
ENDCHAR
STARTCHAR Y
ENCODING 89
SWIDTH 722 0
DWIDTH 12 0
BBX 13 12 -1 0
BITMAP
FEF8
3860
1C40
1C80
0E80
0F00
0700
0700
0700
0700
0700
1FC0
ENDCHAR
STARTCHAR Z
ENCODING 90
SWIDTH 667 0
DWIDTH 11 0
BBX 9 12 1 0
BITMAP
FF80
C380
8700
8700
0E00
1C00
1C00
3880
7080
7180
E380
FF80
ENDCHAR
STARTCHAR bracketleft
ENCODING 91
SWIDTH 389 0
DWIDTH 6 0
BBX 4 14 1 -2
BITMAP
F0
C0
C0
C0
C0
C0
C0
C0
C0
C0
C0
C0
C0
F0
ENDCHAR
STARTCHAR backslash
ENCODING 92
SWIDTH 606 0
DWIDTH 10 0
BBX 7 12 1 0
BITMAP
C0
C0
60
60
30
30
18
18
0C
0C
06
06
ENDCHAR
STARTCHAR bracketright
ENCODING 93
SWIDTH 389 0
DWIDTH 7 0
BBX 4 14 1 -2
BITMAP
F0
30
30
30
30
30
30
30
30
30
30
30
30
F0
ENDCHAR
STARTCHAR asciicircum
ENCODING 94
SWIDTH 606 0
DWIDTH 10 0
BBX 8 7 1 5
BITMAP
18
18
3C
66
66
C3
C3
ENDCHAR
STARTCHAR underscore
ENCODING 95
SWIDTH 500 0
DWIDTH 8 0
BBX 8 2 0 -2
BITMAP
FF
FF
ENDCHAR
STARTCHAR grave
ENCODING 96
SWIDTH 333 0
DWIDTH 6 0
BBX 4 3 0 9
BITMAP
C0
E0
30
ENDCHAR
STARTCHAR a
ENCODING 97
SWIDTH 611 0
DWIDTH 10 0
BBX 9 8 0 0
BITMAP
7E00
E700
C700
1F00
6700
E700
EF00
7780
ENDCHAR
STARTCHAR b
ENCODING 98
SWIDTH 648 0
DWIDTH 11 0
BBX 11 12 -1 0
BITMAP
F800
3800
3800
3800
3B80
3DC0
38E0
38E0
38E0
38E0
3DC0
2B80
ENDCHAR
STARTCHAR c
ENCODING 99
SWIDTH 556 0
DWIDTH 9 0
BBX 8 8 0 0
BITMAP
3E
73
E7
E0
E0
E3
76
3C
ENDCHAR
STARTCHAR d
ENCODING 100
SWIDTH 667 0
DWIDTH 11 0
BBX 11 12 0 0
BITMAP
0780
0380
0380
0380
3B80
7780
E380
E380
E380
E380
7780
3AE0
ENDCHAR
STARTCHAR e
ENCODING 101
SWIDTH 574 0
DWIDTH 10 0
BBX 9 8 0 0
BITMAP
3E00
7700
E380
FF80
E000
E180
7300
3E00
ENDCHAR
STARTCHAR f
ENCODING 102
SWIDTH 389 0
DWIDTH 7 0
BBX 9 12 -1 0
BITMAP
0F00
1B80
3B00
3800
FE00
3800
3800
3800
3800
3800
3800
FE00
ENDCHAR
STARTCHAR g
ENCODING 103
SWIDTH 611 0
DWIDTH 10 0
BBX 9 12 0 -3
BITMAP
0180
3F80
7700
E380
E380
F700
7C00
6000
7F00
FF80
C380
FF00
ENDCHAR
STARTCHAR h
ENCODING 104
SWIDTH 685 0
DWIDTH 11 0
BBX 11 12 -1 0
BITMAP
F000
7000
7000
7000
7780
79C0
79C0
71C0
71C0
71C0
71C0
FBE0
ENDCHAR
STARTCHAR i
ENCODING 105
SWIDTH 370 0
DWIDTH 6 0
BBX 5 12 0 0
BITMAP
60
F0
60
00
F0
70
70
70
70
70
70
F8
ENDCHAR
STARTCHAR j
ENCODING 106
SWIDTH 352 0
DWIDTH 6 0
BBX 6 15 -2 -3
BITMAP
18
3C
18
00
7C
1C
1C
1C
1C
1C
1C
1C
DC
D8
70
ENDCHAR
STARTCHAR k
ENCODING 107
SWIDTH 667 0
DWIDTH 11 0
BBX 11 12 0 0
BITMAP
F000
7000
7000
7000
77C0
7380
7700
7E00
7F00
7380
71C0
FBE0
ENDCHAR
STARTCHAR l
ENCODING 108
SWIDTH 352 0
DWIDTH 6 0
BBX 5 12 0 0
BITMAP
F0
70
70
70
70
70
70
70
70
70
70
F8
ENDCHAR
STARTCHAR m
ENCODING 109
SWIDTH 963 0
DWIDTH 16 0
BBX 15 8 0 0
BITMAP
F738
7BDC
739C
739C
739C
739C
739C
FBBE
ENDCHAR
STARTCHAR n
ENCODING 110
SWIDTH 685 0
DWIDTH 11 0
BBX 11 8 -1 0
BITMAP
F780
79C0
71C0
71C0
71C0
71C0
71C0
FBE0
ENDCHAR
STARTCHAR o
ENCODING 111
SWIDTH 611 0
DWIDTH 11 0
BBX 10 8 0 0
BITMAP
1E00
7380
E1C0
E1C0
E1C0
E1C0
7380
1E00
ENDCHAR
STARTCHAR p
ENCODING 112
SWIDTH 667 0
DWIDTH 11 0
BBX 10 11 -1 -3
BITMAP
F700
7B80
71C0
71C0
71C0
71C0
7B80
7700
7000
7000
F800
ENDCHAR
STARTCHAR q
ENCODING 113
SWIDTH 648 0
DWIDTH 10 0
BBX 10 11 -1 -3
BITMAP
3E80
7380
E380
E380
E380
E380
7380
3F80
0380
0380
07C0
ENDCHAR
STARTCHAR r
ENCODING 114
SWIDTH 519 0
DWIDTH 9 0
BBX 9 8 0 0
BITMAP
F700
7B80
7300
7000
7000
7000
7000
F800
ENDCHAR
STARTCHAR s
ENCODING 115
SWIDTH 500 0
DWIDTH 8 0
BBX 7 8 0 0
BITMAP
7A
C6
E2
FC
7E
8E
C6
BC
ENDCHAR
STARTCHAR t
ENCODING 116
SWIDTH 426 0
DWIDTH 7 0
BBX 6 11 0 0
BITMAP
10
10
30
FC
70
70
70
70
74
7C
38
ENDCHAR
STARTCHAR u
ENCODING 117
SWIDTH 685 0
DWIDTH 11 0
BBX 11 8 -1 0
BITMAP
F3C0
71C0
71C0
71C0
71C0
71C0
7BC0
3EE0
ENDCHAR
STARTCHAR v
ENCODING 118
SWIDTH 611 0
DWIDTH 10 0
BBX 10 8 0 0
BITMAP
FBC0
7180
7300
3B00
3A00
1E00
1C00
0C00
ENDCHAR
STARTCHAR w
ENCODING 119
SWIDTH 889 0
DWIDTH 15 0
BBX 15 8 0 0
BITMAP
FBDE
718C
39C8
3BD8
1EF0
1EF0
0C60
0C60
ENDCHAR
STARTCHAR x
ENCODING 120
SWIDTH 611 0
DWIDTH 10 0
BBX 9 8 0 0
BITMAP
FB80
7100
3E00
1C00
1C00
3E00
4700
EF80
ENDCHAR
STARTCHAR y
ENCODING 121
SWIDTH 611 0
DWIDTH 10 0
BBX 10 11 -1 -3
BITMAP
FBC0
7180
3980
3900
1F00
0E00
0E00
0600
3400
7400
3800
ENDCHAR
STARTCHAR z
ENCODING 122
SWIDTH 537 0
DWIDTH 9 0
BBX 7 8 0 0
BITMAP
FE
CC
9C
38
30
72
E6
FE
ENDCHAR
STARTCHAR braceleft
ENCODING 123
SWIDTH 389 0
DWIDTH 6 0
BBX 4 14 1 -2
BITMAP
30
60
60
60
60
60
C0
60
60
60
60
60
60
30
ENDCHAR
STARTCHAR bar
ENCODING 124
SWIDTH 606 0
DWIDTH 10 0
BBX 2 12 4 0
BITMAP
C0
C0
C0
C0
C0
C0
C0
C0
C0
C0
C0
C0
ENDCHAR
STARTCHAR braceright
ENCODING 125
SWIDTH 389 0
DWIDTH 6 0
BBX 4 14 0 -2
BITMAP
C0
60
60
60
60
60
30
60
60
60
60
60
60
C0
ENDCHAR
STARTCHAR asciitilde
ENCODING 126
SWIDTH 606 0
DWIDTH 10 0
BBX 8 3 1 3
BITMAP
72
FF
4E
ENDCHAR
STARTCHAR space
ENCODING 160
SWIDTH 287 0
DWIDTH 4 0
BBX 1 1 1 0
BITMAP
00
ENDCHAR
STARTCHAR Aogonek
ENCODING 161
SWIDTH 759 0
DWIDTH 13 0
BBX 13 15 0 -3
BITMAP
0600
0700
0700
0F00
0B80
1B80
11C0
3FC0
31C0
20E0
60E0
F1F8
0200
0400
0700
ENDCHAR
STARTCHAR breve
ENCODING 162
SWIDTH 333 0
DWIDTH 6 0
BBX 5 3 0 9
BITMAP
88
88
70
ENDCHAR
STARTCHAR Lslash
ENCODING 163
SWIDTH 722 0
DWIDTH 12 0
BBX 11 12 0 0
BITMAP
FE00
3800
3800
3A00
3C00
3800
3800
7820
B820
3860
38E0
FFE0
ENDCHAR
STARTCHAR currency
ENCODING 164
SWIDTH 606 0
DWIDTH 10 0
BBX 8 8 1 2
BITMAP
5A
FF
66
C3
C3
66
FF
5A
ENDCHAR
STARTCHAR Lcaron
ENCODING 165
SWIDTH 927 0
DWIDTH 15 0
BBX 15 12 0 0
BITMAP
FE0C
381E
380E
3804
380C
3810
3800
3820
3820
3860
3860
FFE0
ENDCHAR
STARTCHAR Sacute
ENCODING 166
SWIDTH 667 0
DWIDTH 11 0
BBX 9 16 1 0
BITMAP
0600
0E00
1800
0000
3E80
4380
C180
C080
F880
7E00
3F00
8F80
8180
C180
E100
BE00
ENDCHAR
STARTCHAR section
ENCODING 167
SWIDTH 500 0
DWIDTH 9 0
BBX 6 15 1 -3
BITMAP
38
4C
4C
60
30
78
8C
84
C4
78
30
18
C8
C8
70
ENDCHAR
STARTCHAR dieresis
ENCODING 168
SWIDTH 333 0
DWIDTH 6 0
BBX 5 2 0 9
BITMAP
D8
D8
ENDCHAR
STARTCHAR Scaron
ENCODING 169
SWIDTH 667 0
DWIDTH 11 0
BBX 9 13 1 0
BITMAP
3600
1C00
0800
0000
3E80
4380
C180
F880
3E00
8F80
C180
E100
BE00
ENDCHAR
STARTCHAR Scedilla
ENCODING 170
SWIDTH 667 0
DWIDTH 11 0
BBX 9 15 1 -3
BITMAP
3E80
4380
C180
C080
F880
7E00
3F00
8F80
8180
C180
E100
BE00
1800
0C00
3800
ENDCHAR
STARTCHAR Tcaron
ENCODING 171
SWIDTH 722 0
DWIDTH 12 0
BBX 11 16 0 0
BITMAP
1B00
0E00
0400
0000
FFE0
CE60
8E20
8E20
0E00
0E00
0E00
0E00
0E00
0E00
0E00
3F80
ENDCHAR
STARTCHAR Zacute
ENCODING 172
SWIDTH 667 0
DWIDTH 11 0
BBX 9 16 1 0
BITMAP
0600
0E00
1800
0000
FF80
C380
8700
8700
0E00
1C00
1C00
3880
7080
7180
E380
FF80
ENDCHAR
STARTCHAR hyphen
ENCODING 173
SWIDTH 333 0
DWIDTH 5 0
BBX 4 2 0 3
BITMAP
F0
F0
ENDCHAR
STARTCHAR Zcaron
ENCODING 174
SWIDTH 667 0
DWIDTH 11 0
BBX 9 13 1 0
BITMAP
3600
1C00
0800
0000
FF80
C380
8700
8E00
1C00
3880
7080
E180
FF80
ENDCHAR
STARTCHAR Zdotaccent
ENCODING 175
SWIDTH 667 0
DWIDTH 11 0
BBX 9 15 1 0
BITMAP
0C00
0C00
0000
FF80
C380
8700
8700
0E00
1C00
1C00
3880
7080
7180
E380
FF80
ENDCHAR
STARTCHAR degree
ENCODING 176
SWIDTH 400 0
DWIDTH 7 0
BBX 5 5 1 7
BITMAP
70
D8
88
D8
70
ENDCHAR
STARTCHAR aogonek
ENCODING 177
SWIDTH 611 0
DWIDTH 10 0
BBX 9 11 0 -3
BITMAP
7E00
E700
C700
1F00
6700
E700
EF00
7780
0800
1000
1C00
ENDCHAR
STARTCHAR ogonek
ENCODING 178
SWIDTH 333 0
DWIDTH 6 0
BBX 3 3 1 -3
BITMAP
40
80
E0
ENDCHAR
STARTCHAR lslash
ENCODING 179
SWIDTH 352 0
DWIDTH 6 0
BBX 6 12 0 0
BITMAP
F0
30
30
34
38
30
70
B0
30
30
30
FC
ENDCHAR
STARTCHAR acute
ENCODING 180
SWIDTH 333 0
DWIDTH 6 0
BBX 4 3 1 9
BITMAP
30
70
C0
ENDCHAR
STARTCHAR lcaron
ENCODING 181
SWIDTH 575 0
DWIDTH 10 0
BBX 10 12 0 0
BITMAP
F180
73C0
71C0
7080
7180
7200
7000
7000
7000
7000
7000
F800
ENDCHAR
STARTCHAR sacute
ENCODING 182
SWIDTH 500 0
DWIDTH 8 0
BBX 7 12 0 0
BITMAP
0C
1C
30
00
7A
C6
E2
FC
7E
8E
C6
BC
ENDCHAR
STARTCHAR caron
ENCODING 183
SWIDTH 333 0
DWIDTH 6 0
BBX 5 3 0 9
BITMAP
D8
70
20
ENDCHAR
STARTCHAR cedilla
ENCODING 184
SWIDTH 333 0
DWIDTH 6 0
BBX 4 4 0 -3
BITMAP
40
60
30
E0
ENDCHAR
STARTCHAR scaron
ENCODING 185
SWIDTH 500 0
DWIDTH 8 0
BBX 7 12 0 0
BITMAP
6C
38
10
00
7A
C6
E2
F8
3E
8E
C6
BC
ENDCHAR
STARTCHAR scedilla
ENCODING 186
SWIDTH 500 0
DWIDTH 8 0
BBX 7 11 0 -3
BITMAP
7A
C6
E2
FC
7E
8E
C6
BC
18
0C
38
ENDCHAR
STARTCHAR tcaron
ENCODING 187
SWIDTH 646 0
DWIDTH 11 0
BBX 11 12 0 0
BITMAP
00C0
11E0
10E0
3040
FCC0
7100
7000
7000
7000
7400
7C00
3800
ENDCHAR
STARTCHAR zacute
ENCODING 188
SWIDTH 537 0
DWIDTH 9 0
BBX 7 12 0 0
BITMAP
0C
1C
30
00
FE
CC
9C
38
30
72
E6
FE
ENDCHAR
STARTCHAR hungarumlaut
ENCODING 189
SWIDTH 333 0
DWIDTH 6 0
BBX 6 3 0 9
BITMAP
6C
6C
D8
ENDCHAR
STARTCHAR zcaron
ENCODING 190
SWIDTH 537 0
DWIDTH 9 0
BBX 7 12 1 0
BITMAP
6C
38
10
00
FE
8C
9C
38
30
72
E2
FE
ENDCHAR
STARTCHAR zdotaccent
ENCODING 191
SWIDTH 537 0
DWIDTH 9 0
BBX 7 11 0 0
BITMAP
30
30
00
FE
CC
9C
38
30
72
E6
FE
ENDCHAR
STARTCHAR Racute
ENCODING 192
SWIDTH 815 0
DWIDTH 14 0
BBX 13 16 0 0
BITMAP
0180
0380
0600
0000
FFC0
38E0
3870
3870
38E0
3FC0
3980
39C0
38E0
38E8
38F8
FC70
ENDCHAR
STARTCHAR Aacute
ENCODING 193
SWIDTH 759 0
DWIDTH 13 0
BBX 13 16 0 0
BITMAP
0180
0380
0600
0000
0600
0700
0700
0F00
0B80
1B80
11C0
3FC0
31C0
20E0
60E0
F1F8
ENDCHAR
STARTCHAR Acircumflex
ENCODING 194
SWIDTH 759 0
DWIDTH 13 0
BBX 13 16 0 0
BITMAP
0200
0700
0D80
0000
0600
0700
0700
0F00
0B80
1B80
11C0
3FC0
31C0
20E0
60E0
F1F8
ENDCHAR
STARTCHAR Abreve
ENCODING 195
SWIDTH 759 0
DWIDTH 13 0
BBX 13 16 0 0
BITMAP
0880
0880
0700
0000
0600
0700
0700
0F00
0B80
1B80
11C0
3FC0
31C0
20E0
60E0
F1F8
ENDCHAR
STARTCHAR Adieresis
ENCODING 196
SWIDTH 759 0
DWIDTH 13 0
BBX 13 15 0 0
BITMAP
1980
1980
0000
0600
0700
0700
0F00
0B80
1B80
11C0
3FC0
31C0
20E0
60E0
F1F8
ENDCHAR
STARTCHAR Lacute
ENCODING 197
SWIDTH 722 0
DWIDTH 12 0
BBX 11 16 0 0
BITMAP
0600
0E00
1800
0000
FE00
3800
3800
3800
3800
3800
3800
3820
3820
3860
3860
FFE0
ENDCHAR
STARTCHAR Cacute
ENCODING 198
SWIDTH 778 0
DWIDTH 13 0
BBX 11 16 1 0
BITMAP
0180
0380
0600
0000
0FA0
38E0
7060
7020
E020
E000
E000
E020
7020
7040
38C0
0F00
ENDCHAR
STARTCHAR Ccedilla
ENCODING 199
SWIDTH 778 0
DWIDTH 13 0
BBX 11 15 1 -3
BITMAP
0FA0
38E0
7060
7020
E020
E000
E000
E020
7020
7040
38C0
0F00
0C00
0600
1C00
ENDCHAR
STARTCHAR Ccaron
ENCODING 200
SWIDTH 778 0
DWIDTH 13 0
BBX 11 16 1 0
BITMAP
1B00
0E00
0400
0000
0FA0
38E0
7060
7020
E020
E000
E000
E020
7020
7040
38C0
0F00
ENDCHAR
STARTCHAR Eacute
ENCODING 201
SWIDTH 759 0
DWIDTH 12 0
BBX 11 16 0 0
BITMAP
0180
0380
0600
0000
FFE0
3860
3860
3920
3B00
3F00
3B00
3920
3820
3860
3860
FFE0
ENDCHAR
STARTCHAR Eogonek
ENCODING 202
SWIDTH 759 0
DWIDTH 12 0
BBX 11 15 0 -3
BITMAP
FFE0
3860
3860
3920
3B00
3F00
3B00
3920
3820
3860
3860
FFE0
0400
0800
0E00
ENDCHAR
STARTCHAR Edieresis
ENCODING 203
SWIDTH 759 0
DWIDTH 12 0
BBX 11 15 0 0
BITMAP
1980
1980
0000
FFE0
3860
3860
3920
3B00
3F00
3B00
3920
3820
3860
3860
FFE0
ENDCHAR
STARTCHAR Ecaron
ENCODING 204
SWIDTH 759 0
DWIDTH 12 0
BBX 11 16 0 0
BITMAP
1B00
0E00
0400
0000
FFE0
3860
3860
3920
3B00
3F00
3B00
3920
3820
3860
3860
FFE0
ENDCHAR
STARTCHAR Iacute
ENCODING 205
SWIDTH 444 0
DWIDTH 7 0
BBX 7 16 0 0
BITMAP
0C
1C
30
00
FE
38
38
38
38
38
38
38
38
38
38
FE
ENDCHAR
STARTCHAR Icircumflex
ENCODING 206
SWIDTH 444 0
DWIDTH 7 0
BBX 7 16 0 0
BITMAP
10
38
6C
00
FE
38
38
38
38
38
38
38
38
38
38
FE
ENDCHAR
STARTCHAR Dcaron
ENCODING 207
SWIDTH 833 0
DWIDTH 14 0
BBX 13 16 0 0
BITMAP
0D80
0700
0200
0000
FF80
38E0
3870
3870
3838
3838
3838
3838
3870
3870
38E0
FF80
ENDCHAR
STARTCHAR Dcroat
ENCODING 208
SWIDTH 833 0
DWIDTH 14 0
BBX 13 12 0 0
BITMAP
FF80
38E0
3870
3870
3838
7E38
3838
3838
3870
3870
38E0
FF80
ENDCHAR
STARTCHAR Nacute
ENCODING 209
SWIDTH 833 0
DWIDTH 14 0
BBX 14 16 0 0
BITMAP
0180
0380
0600
0000
F07C
3810
3C10
3E10
2F10
2790
23D0
21F0
20F0
2070
2030
F810
ENDCHAR
STARTCHAR Ncaron
ENCODING 210
SWIDTH 833 0
DWIDTH 14 0
BBX 14 16 0 0
BITMAP
0D80
0700
0200
0000
F07C
3810
3C10
3E10
2F10
2790
23D0
21F0
20F0
2070
2030
F810
ENDCHAR
STARTCHAR Oacute
ENCODING 211
SWIDTH 833 0
DWIDTH 14 0
BBX 12 16 1 0
BITMAP
0180
0380
0600
0000
0F00
39C0
70E0
70E0
E070
E070
E070
E070
70E0
70E0
39C0
0F00
ENDCHAR
STARTCHAR Ocircumflex
ENCODING 212
SWIDTH 833 0
DWIDTH 14 0
BBX 12 16 1 0
BITMAP
0600
0F00
1980
0000
0F00
39C0
70E0
70E0
E070
E070
E070
E070
70E0
70E0
39C0
0F00
ENDCHAR
STARTCHAR Ohungarumlaut
ENCODING 213
SWIDTH 833 0
DWIDTH 14 0
BBX 12 16 1 0
BITMAP
0D80
0D80
1B00
0000
0F00
39C0
70E0
70E0
E070
E070
E070
E070
70E0
70E0
39C0
0F00
ENDCHAR
STARTCHAR Odieresis
ENCODING 214
SWIDTH 833 0
DWIDTH 14 0
BBX 12 15 1 0
BITMAP
1980
1980
0000
0F00
39C0
70E0
70E0
E070
E070
E070
E070
70E0
70E0
39C0
0F00
ENDCHAR
STARTCHAR multiply
ENCODING 215
SWIDTH 606 0
DWIDTH 10 0
BBX 8 8 1 0
BITMAP
42
E7
7E
38
1C
7E
E7
42
ENDCHAR
STARTCHAR Rcaron
ENCODING 216
SWIDTH 815 0
DWIDTH 14 0
BBX 13 16 0 0
BITMAP
0D80
0700
0200
0000
FFC0
38E0
3870
3870
38E0
3FC0
3980
39C0
38E0
38E8
38F8
FC70
ENDCHAR
STARTCHAR Uring
ENCODING 217
SWIDTH 833 0
DWIDTH 14 0
BBX 14 17 0 0
BITMAP
0600
0900
0900
0600
0000
FE7C
3810
3810
3810
3810
3810
3810
3810
3810
1C20
1E60
0780
ENDCHAR
STARTCHAR Uacute
ENCODING 218
SWIDTH 833 0
DWIDTH 14 0
BBX 14 16 0 0
BITMAP
0060
00E0
0180
0000
FE7C
3810
3810
3810
3810
3810
3810
3810
3810
1C20
1E60
0780
ENDCHAR
STARTCHAR Uhungarumlaut
ENCODING 219
SWIDTH 833 0
DWIDTH 14 0
BBX 14 16 0 0
BITMAP
06C0
06C0
0D80
0000
FE7C
3810
3810
3810
3810
3810
3810
3810
3810
1C20
1E60
0780
ENDCHAR
STARTCHAR Udieresis
ENCODING 220
SWIDTH 833 0
DWIDTH 14 0
BBX 14 15 0 0
BITMAP
0660
0660
0000
FE7C
3810
3810
3810
3810
3810
3810
3810
3810
1C20
1E60
0780
ENDCHAR
STARTCHAR Yacute
ENCODING 221
SWIDTH 722 0
DWIDTH 12 0
BBX 13 16 -1 0
BITMAP
00C0
01C0
0300
0000
FEF8
3860
1C40
1C80
0E80
0F00
0700
0700
0700
0700
0700
1FC0
ENDCHAR
STARTCHAR Tcommaaccent
ENCODING 222
SWIDTH 722 0
DWIDTH 12 0
BBX 11 15 0 -3
BITMAP
FFE0
CE60
8E20
8E20
0E00
0E00
0E00
0E00
0E00
0E00
0E00
3F80
0600
0300
0E00
ENDCHAR
STARTCHAR germandbls
ENCODING 223
SWIDTH 611 0
DWIDTH 10 0
BBX 10 12 0 0
BITMAP
1F00
3380
7380
7380
7300
7700
7180
71C0
71C0
71C0
7B80
F700
ENDCHAR
STARTCHAR racute
ENCODING 224
SWIDTH 519 0
DWIDTH 9 0
BBX 9 12 0 0
BITMAP
0600
0E00
1800
0000
F700
7B80
7300
7000
7000
7000
7000
F800
ENDCHAR
STARTCHAR aacute
ENCODING 225
SWIDTH 611 0
DWIDTH 10 0
BBX 9 12 0 0
BITMAP
0600
0E00
1800
0000
7E00
E700
C700
1F00
6700
E700
EF00
7780
ENDCHAR
STARTCHAR acircumflex
ENCODING 226
SWIDTH 611 0
DWIDTH 10 0
BBX 9 12 0 0
BITMAP
1000
3800
6C00
0000
7E00
E700
C700
1F00
6700
E700
EF00
7780
ENDCHAR
STARTCHAR abreve
ENCODING 227
SWIDTH 611 0
DWIDTH 10 0
BBX 9 12 0 0
BITMAP
2200
2200
1C00
0000
7E00
E700
C700
1F00
6700
E700
EF00
7780
ENDCHAR
STARTCHAR adieresis
ENCODING 228
SWIDTH 611 0
DWIDTH 10 0
BBX 9 11 0 0
BITMAP
6C00
6C00
0000
7E00
E700
C700
1F00
6700
E700
EF00
7780
ENDCHAR
STARTCHAR lacute
ENCODING 229
SWIDTH 352 0
DWIDTH 6 0
BBX 5 16 0 0
BITMAP
18
38
60
00
F0
70
70
70
70
70
70
70
70
70
70
F8
ENDCHAR
STARTCHAR cacute
ENCODING 230
SWIDTH 556 0
DWIDTH 9 0
BBX 8 12 0 0
BITMAP
06
0E
18
00
3E
73
E7
E0
E0
E3
76
3C
ENDCHAR
STARTCHAR ccedilla
ENCODING 231
SWIDTH 556 0
DWIDTH 9 0
BBX 8 11 0 -3
BITMAP
3E
73
E7
E3
E0
E3
76
3C
18
0C
38
ENDCHAR
STARTCHAR ccaron
ENCODING 232
SWIDTH 556 0
DWIDTH 9 0
BBX 8 12 0 0
BITMAP
36
1C
08
00
3E
73
E7
E0
E0
E3
76
3C
ENDCHAR
STARTCHAR eacute
ENCODING 233
SWIDTH 574 0
DWIDTH 10 0
BBX 9 12 0 0
BITMAP
0600
0E00
1800
0000
3E00
7700
E380
FF80
E000
E180
7300
3E00
ENDCHAR
STARTCHAR eogonek
ENCODING 234
SWIDTH 574 0
DWIDTH 10 0
BBX 9 11 0 -3
BITMAP
3E00
7700
E380
FF80
E000
E180
7300
3E00
0800
1000
1C00
ENDCHAR
STARTCHAR edieresis
ENCODING 235
SWIDTH 574 0
DWIDTH 10 0
BBX 9 11 0 0
BITMAP
3600
3600
0000
3E00
7700
E380
FF80
E000
E180
7300
3E00
ENDCHAR
STARTCHAR ecaron
ENCODING 236
SWIDTH 574 0
DWIDTH 10 0
BBX 9 12 0 0
BITMAP
3600
1C00
0800
0000
3E00
7700
E380
FF80
E000
E180
7300
3E00
ENDCHAR
STARTCHAR iacute
ENCODING 237
SWIDTH 370 0
DWIDTH 6 0
BBX 5 12 0 0
BITMAP
18
38
60
00
F0
70
70
70
70
70
70
F8
ENDCHAR
STARTCHAR icircumflex
ENCODING 238
SWIDTH 370 0
DWIDTH 6 0
BBX 5 12 0 0
BITMAP
20
70
D8
00
F0
70
70
70
70
70
70
F8
ENDCHAR
STARTCHAR dcaron
ENCODING 239
SWIDTH 875 0
DWIDTH 14 0
BBX 14 12 0 0
BITMAP
0798
03BC
039C
0388
3B98
77A0
E380
E380
E380
E380
7780
3AE0
ENDCHAR
STARTCHAR dcroat
ENCODING 240
SWIDTH 667 0
DWIDTH 11 0
BBX 12 12 0 0
BITMAP
0780
0380
07F0
07F0
3B80
7780
E380
E380
E380
E380
7780
3AE0
ENDCHAR
STARTCHAR nacute
ENCODING 241
SWIDTH 685 0
DWIDTH 11 0
BBX 11 12 -1 0
BITMAP
0300
0700
0C00
0000
F780
79C0
71C0
71C0
71C0
71C0
71C0
FBE0
ENDCHAR
STARTCHAR ncaron
ENCODING 242
SWIDTH 685 0
DWIDTH 11 0
BBX 11 12 -1 0
BITMAP
1B00
0E00
0400
0000
F780
79C0
71C0
71C0
71C0
71C0
71C0
FBE0
ENDCHAR
STARTCHAR oacute
ENCODING 243
SWIDTH 611 0
DWIDTH 11 0
BBX 10 12 0 0
BITMAP
0300
0700
0C00
0000
3F00
7380
E1C0
E1C0
E1C0
E1C0
7380
3F00
ENDCHAR
STARTCHAR ocircumflex
ENCODING 244
SWIDTH 611 0
DWIDTH 11 0
BBX 10 12 0 0
BITMAP
0C00
1E00
3300
0000
3F00
7380
E1C0
E1C0
E1C0
E1C0
7380
3F00
ENDCHAR
STARTCHAR ohungarumlaut
ENCODING 245
SWIDTH 611 0
DWIDTH 11 0
BBX 10 12 0 0
BITMAP
1B00
1B00
3600
0000
1E00
7380
E1C0
E1C0
E1C0
E1C0
7380
1E00
ENDCHAR
STARTCHAR odieresis
ENCODING 246
SWIDTH 611 0
DWIDTH 11 0
BBX 10 11 0 0
BITMAP
3600
3600
0000
3F00
7380
E1C0
E1C0
E1C0
E1C0
7380
3F00
ENDCHAR
STARTCHAR divide
ENCODING 247
SWIDTH 606 0
DWIDTH 10 0
BBX 8 8 1 0
BITMAP
18
18
00
FF
FF
00
18
18
ENDCHAR
STARTCHAR rcaron
ENCODING 248
SWIDTH 519 0
DWIDTH 9 0
BBX 9 12 0 0
BITMAP
3600
1C00
0800
0000
F700
7B80
7300
7000
7000
7000
7000
F800
ENDCHAR
STARTCHAR uring
ENCODING 249
SWIDTH 685 0
DWIDTH 11 0
BBX 11 13 -1 0
BITMAP
0C00
1200
1200
0C00
0000
F3C0
71C0
71C0
71C0
71C0
71C0
7BC0
3EE0
ENDCHAR
STARTCHAR uacute
ENCODING 250
SWIDTH 685 0
DWIDTH 11 0
BBX 11 12 -1 0
BITMAP
0300
0700
0C00
0000
F3C0
71C0
71C0
71C0
71C0
71C0
7BC0
3EE0
ENDCHAR
STARTCHAR uhungarumlaut
ENCODING 251
SWIDTH 685 0
DWIDTH 11 0
BBX 11 12 -1 0
BITMAP
0D80
0D80
1B00
0000
F3C0
71C0
71C0
71C0
71C0
71C0
7BC0
3EE0
ENDCHAR
STARTCHAR udieresis
ENCODING 252
SWIDTH 685 0
DWIDTH 11 0
BBX 11 11 -1 0
BITMAP
1B00
1B00
0000
F3C0
71C0
71C0
71C0
71C0
71C0
7BC0
3EE0
ENDCHAR
STARTCHAR yacute
ENCODING 253
SWIDTH 611 0
DWIDTH 10 0
BBX 11 15 -1 -3
BITMAP
0300
0700
0C00
0000
FBE0
70C0
3880
1980
1D00
0F00
0E00
0600
3400
7400
3800
ENDCHAR
STARTCHAR tcommaaccent
ENCODING 254
SWIDTH 426 0
DWIDTH 7 0
BBX 6 14 0 -3
BITMAP
10
10
30
FC
70
70
70
70
74
7C
38
30
18
70
ENDCHAR
STARTCHAR dotaccent
ENCODING 255
SWIDTH 333 0
DWIDTH 6 0
BBX 2 2 2 9
BITMAP
C0
C0
ENDCHAR
ENDFONT
