STARTFONT 2.1
COMMENT AUTOMATICALLY GENERATED FILE. DO NOT EDIT!
COMMENT Generated with 'ucs2any ncenB08.bdf /usr/local/share/fonts/X11/util/map-ISO8859-13 ISO8859-13'
COMMENT from an ISO10646-1 encoded source BDF font.
COMMENT ucs2any by Ben Collver <collver1@attbi.com>, 2003, based on
COMMENT ucs2any.pl by Markus Kuhn <http://www.cl.cam.ac.uk/~mgk25/>, 2000.
FONT -Adobe-New Century Schoolbook-Bold-R-Normal--11-80-100-100-P-66-ISO8859-13
SIZE 8 100 100
FONTBOUNDINGBOX 12 16 -1 -5
COMMENT ISO10646-1 extension by Markus Kuhn <mkuhn@acm.org>, 2001-03-20
COMMENT
COMMENT +
COMMENT  Copyright 1984-1989, 1994 Adobe Systems Incorporated.
COMMENT  Copyright 1988, 1994 Digital Equipment Corporation.
COMMENT
COMMENT  Adobe is a trademark of Adobe Systems Incorporated which may be
COMMENT  registered in certain jurisdictions.
COMMENT  Permission to use these trademarks is hereby granted only in
COMMENT  association with the images described in this file.
COMMENT
COMMENT  Permission to use, copy, modify, distribute and sell this software
COMMENT  and its documentation for any purpose and without fee is hereby
COMMENT  granted, provided that the above copyright notices appear in all
COMMENT  copies and that both those copyright notices and this permission
COMMENT  notice appear in supporting documentation, and that the names of
COMMENT  Adobe Systems and Digital Equipment Corporation not be used in
COMMENT  advertising or publicity pertaining to distribution of the software
COMMENT  without specific, written prior permission.  Adobe Systems and
COMMENT  Digital Equipment Corporation make no representations about the
COMMENT  suitability of this software for any purpose.  It is provided "as
COMMENT  is" without express or implied warranty.
COMMENT -
STARTPROPERTIES 26
FOUNDRY "Adobe"
FAMILY_NAME "New Century Schoolbook"
WEIGHT_NAME "Bold"
SLANT "R"
SETWIDTH_NAME "Normal"
ADD_STYLE_NAME ""
PIXEL_SIZE 11
POINT_SIZE 80
RESOLUTION_X 100
RESOLUTION_Y 100
SPACING "P"
AVERAGE_WIDTH 66
CHARSET_REGISTRY "ISO8859"
CHARSET_ENCODING "13"
CAP_HEIGHT 8
X_HEIGHT 5
FONT_ASCENT 10
FONT_DESCENT 2
FACE_NAME "New Century Schoolbook Bold"
COPYRIGHT "Copyright (c) 1984, 1987 Adobe Systems Incorporated. All Rights Reserved. Copyright (c) 1988, 1991 Digital Equipment Corporation. All Rights Reserved."
NOTICE "New Century Schoolbook is a trademark of Linotype-Hell AG and/or its subsidiaries."
_DEC_DEVICE_FONTNAMES "PS=NewCenturySchlbk-Bold"
DEFAULT_CHAR 0
RELATIVE_SETWIDTH 50
RELATIVE_WEIGHT 70
FULL_NAME "New Century Schoolbook Bold"
ENDPROPERTIES
CHARS 192
STARTCHAR defaultchar
ENCODING 0
SWIDTH 870 0
DWIDTH 10 0
BBX 9 7 0 0
BITMAP
AA80
0000
8080
0000
8080
0000
AA80
ENDCHAR
STARTCHAR space
ENCODING 32
SWIDTH 287 0
DWIDTH 3 0
BBX 1 1 0 0
BITMAP
00
ENDCHAR
STARTCHAR exclam
ENCODING 33
SWIDTH 296 0
DWIDTH 3 0
BBX 2 8 0 0
BITMAP
C0
C0
C0
80
80
00
C0
C0
ENDCHAR
STARTCHAR quotedbl
ENCODING 34
SWIDTH 333 0
DWIDTH 6 0
BBX 3 3 1 5
BITMAP
A0
A0
A0
ENDCHAR
STARTCHAR numbersign
ENCODING 35
SWIDTH 574 0
DWIDTH 8 0
BBX 7 8 0 0
BITMAP
14
14
7E
28
28
FC
50
50
ENDCHAR
STARTCHAR dollar
ENCODING 36
SWIDTH 574 0
DWIDTH 6 0
BBX 5 10 0 -1
BITMAP
20
78
A8
A0
F0
78
28
A8
F0
20
ENDCHAR
STARTCHAR percent
ENCODING 37
SWIDTH 833 0
DWIDTH 11 0
BBX 10 8 0 0
BITMAP
6600
DA00
D400
D580
6B40
0B40
1340
1180
ENDCHAR
STARTCHAR ampersand
ENCODING 38
SWIDTH 852 0
DWIDTH 9 0
BBX 8 8 0 0
BITMAP
30
68
68
30
58
CC
CF
76
ENDCHAR
STARTCHAR quotesingle
ENCODING 39
SWIDTH 241 0
DWIDTH 4 0
BBX 1 3 1 5
BITMAP
80
80
80
ENDCHAR
STARTCHAR parenleft
ENCODING 40
SWIDTH 389 0
DWIDTH 5 0
BBX 4 10 0 -2
BITMAP
10
20
60
C0
C0
C0
C0
60
20
10
ENDCHAR
STARTCHAR parenright
ENCODING 41
SWIDTH 389 0
DWIDTH 5 0
BBX 4 10 0 -2
BITMAP
80
40
60
30
30
30
30
60
40
80
ENDCHAR
STARTCHAR asterisk
ENCODING 42
SWIDTH 500 0
DWIDTH 6 0
BBX 5 5 0 3
BITMAP
20
A8
70
A8
20
ENDCHAR
STARTCHAR plus
ENCODING 43
SWIDTH 606 0
DWIDTH 6 0
BBX 5 5 0 1
BITMAP
20
20
F8
20
20
ENDCHAR
STARTCHAR comma
ENCODING 44
SWIDTH 278 0
DWIDTH 3 0
BBX 2 4 0 -2
BITMAP
C0
C0
40
80
ENDCHAR
STARTCHAR hyphen
ENCODING 45
SWIDTH 333 0
DWIDTH 4 0
BBX 3 1 0 3
BITMAP
E0
ENDCHAR
STARTCHAR period
ENCODING 46
SWIDTH 278 0
DWIDTH 3 0
BBX 2 2 0 0
BITMAP
C0
C0
ENDCHAR
STARTCHAR slash
ENCODING 47
SWIDTH 278 0
DWIDTH 5 0
BBX 4 8 0 0
BITMAP
10
10
20
20
40
40
80
80
ENDCHAR
STARTCHAR zero
ENCODING 48
SWIDTH 574 0
DWIDTH 6 0
BBX 5 8 0 0
BITMAP
70
D8
D8
D8
D8
D8
D8
70
ENDCHAR
STARTCHAR one
ENCODING 49
SWIDTH 574 0
DWIDTH 6 0
BBX 4 8 1 0
BITMAP
60
E0
60
60
60
60
60
F0
ENDCHAR
STARTCHAR two
ENCODING 50
SWIDTH 574 0
DWIDTH 6 0
BBX 5 8 0 0
BITMAP
70
D8
D8
18
30
40
F8
F8
ENDCHAR
STARTCHAR three
ENCODING 51
SWIDTH 574 0
DWIDTH 6 0
BBX 5 8 0 0
BITMAP
70
D8
D8
30
18
D8
D8
70
ENDCHAR
STARTCHAR four
ENCODING 52
SWIDTH 574 0
DWIDTH 6 0
BBX 5 8 0 0
BITMAP
38
38
58
58
98
F8
18
38
ENDCHAR
STARTCHAR five
ENCODING 53
SWIDTH 574 0
DWIDTH 6 0
BBX 5 8 0 0
BITMAP
F8
F0
80
F0
18
D8
D8
70
ENDCHAR
STARTCHAR six
ENCODING 54
SWIDTH 574 0
DWIDTH 6 0
BBX 5 8 0 0
BITMAP
70
D8
C0
F0
D8
D8
D8
70
ENDCHAR
STARTCHAR seven
ENCODING 55
SWIDTH 574 0
DWIDTH 6 0
BBX 4 8 0 0
BITMAP
F0
F0
10
20
20
60
60
60
ENDCHAR
STARTCHAR eight
ENCODING 56
SWIDTH 574 0
DWIDTH 6 0
BBX 5 8 0 0
BITMAP
70
D8
D8
70
D8
D8
D8
70
ENDCHAR
STARTCHAR nine
ENCODING 57
SWIDTH 574 0
DWIDTH 6 0
BBX 5 8 0 0
BITMAP
70
D8
D8
D8
78
18
D8
70
ENDCHAR
STARTCHAR colon
ENCODING 58
SWIDTH 278 0
DWIDTH 3 0
BBX 2 5 0 0
BITMAP
C0
C0
00
C0
C0
ENDCHAR
STARTCHAR semicolon
ENCODING 59
SWIDTH 278 0
DWIDTH 3 0
BBX 2 7 0 -2
BITMAP
C0
C0
00
C0
C0
40
80
ENDCHAR
STARTCHAR less
ENCODING 60
SWIDTH 606 0
DWIDTH 7 0
BBX 6 5 0 1
BITMAP
0C
30
C0
30
0C
ENDCHAR
STARTCHAR equal
ENCODING 61
SWIDTH 606 0
DWIDTH 6 0
BBX 5 3 0 2
BITMAP
F8
00
F8
ENDCHAR
STARTCHAR greater
ENCODING 62
SWIDTH 606 0
DWIDTH 7 0
BBX 6 5 0 1
BITMAP
C0
30
0C
30
C0
ENDCHAR
STARTCHAR question
ENCODING 63
SWIDTH 500 0
DWIDTH 6 0
BBX 5 8 0 0
BITMAP
70
D8
18
30
40
00
60
60
ENDCHAR
STARTCHAR at
ENCODING 64
SWIDTH 747 0
DWIDTH 10 0
BBX 9 10 0 -1
BITMAP
1C00
6300
4100
9E80
B680
B680
9B00
4000
6000
1E00
ENDCHAR
STARTCHAR A
ENCODING 65
SWIDTH 759 0
DWIDTH 8 0
BBX 9 8 -1 0
BITMAP
0800
1C00
1C00
2600
2600
7F00
4300
E780
ENDCHAR
STARTCHAR B
ENCODING 66
SWIDTH 778 0
DWIDTH 8 0
BBX 7 8 0 0
BITMAP
FC
66
66
7C
66
66
66
FC
ENDCHAR
STARTCHAR C
ENCODING 67
SWIDTH 778 0
DWIDTH 8 0
BBX 7 8 0 0
BITMAP
3A
46
C2
C0
C0
C2
42
3C
ENDCHAR
STARTCHAR D
ENCODING 68
SWIDTH 833 0
DWIDTH 9 0
BBX 8 8 0 0
BITMAP
FC
62
63
63
63
63
62
FC
ENDCHAR
STARTCHAR E
ENCODING 69
SWIDTH 759 0
DWIDTH 7 0
BBX 6 8 0 0
BITMAP
FC
64
68
78
68
64
64
FC
ENDCHAR
STARTCHAR F
ENCODING 70
SWIDTH 722 0
DWIDTH 7 0
BBX 6 8 0 0
BITMAP
FC
64
64
68
78
68
60
F0
ENDCHAR
STARTCHAR G
ENCODING 71
SWIDTH 833 0
DWIDTH 8 0
BBX 7 8 0 0
BITMAP
3A
46
C2
C0
CE
C6
46
3A
ENDCHAR
STARTCHAR H
ENCODING 72
SWIDTH 870 0
DWIDTH 10 0
BBX 9 8 0 0
BITMAP
F780
6300
6300
7F00
6300
6300
6300
F780
ENDCHAR
STARTCHAR I
ENCODING 73
SWIDTH 444 0
DWIDTH 5 0
BBX 4 8 0 0
BITMAP
F0
60
60
60
60
60
60
F0
ENDCHAR
STARTCHAR J
ENCODING 74
SWIDTH 648 0
DWIDTH 7 0
BBX 6 8 0 0
BITMAP
3C
18
18
18
D8
D8
98
70
ENDCHAR
STARTCHAR K
ENCODING 75
SWIDTH 815 0
DWIDTH 9 0
BBX 9 8 0 0
BITMAP
F300
6200
6400
6800
7C00
6600
6300
F380
ENDCHAR
STARTCHAR L
ENCODING 76
SWIDTH 722 0
DWIDTH 7 0
BBX 6 8 0 0
BITMAP
F0
60
60
60
60
64
64
FC
ENDCHAR
STARTCHAR M
ENCODING 77
SWIDTH 981 0
DWIDTH 12 0
BBX 11 8 0 0
BITMAP
F1E0
71C0
5AC0
5AC0
5AC0
4CC0
4CC0
EDE0
ENDCHAR
STARTCHAR N
ENCODING 78
SWIDTH 833 0
DWIDTH 9 0
BBX 8 8 0 0
BITMAP
C7
62
72
7A
5E
4E
46
E2
ENDCHAR
STARTCHAR O
ENCODING 79
SWIDTH 833 0
DWIDTH 8 0
BBX 7 8 0 0
BITMAP
38
44
C6
C6
C6
C6
44
38
ENDCHAR
STARTCHAR P
ENCODING 80
SWIDTH 759 0
DWIDTH 8 0
BBX 7 8 0 0
BITMAP
FC
66
66
66
7C
60
60
F0
ENDCHAR
STARTCHAR Q
ENCODING 81
SWIDTH 833 0
DWIDTH 8 0
BBX 8 9 0 -1
BITMAP
38
44
C6
C6
C6
F6
6C
3D
06
ENDCHAR
STARTCHAR R
ENCODING 82
SWIDTH 815 0
DWIDTH 9 0
BBX 8 8 0 0
BITMAP
FC
66
66
64
7C
66
66
F7
ENDCHAR
STARTCHAR S
ENCODING 83
SWIDTH 667 0
DWIDTH 7 0
BBX 6 8 0 0
BITMAP
74
CC
C4
F0
3C
8C
CC
B8
ENDCHAR
STARTCHAR T
ENCODING 84
SWIDTH 722 0
DWIDTH 7 0
BBX 6 8 0 0
BITMAP
FC
B4
B4
30
30
30
30
78
ENDCHAR
STARTCHAR U
ENCODING 85
SWIDTH 833 0
DWIDTH 9 0
BBX 8 8 0 0
BITMAP
F7
62
62
62
62
62
62
3C
ENDCHAR
STARTCHAR V
ENCODING 86
SWIDTH 759 0
DWIDTH 9 0
BBX 8 8 0 0
BITMAP
F7
62
62
34
34
34
18
18
ENDCHAR
STARTCHAR W
ENCODING 87
SWIDTH 981 0
DWIDTH 12 0
BBX 11 8 0 0
BITMAP
F6E0
6640
6640
6B40
6B40
3B80
3180
3180
ENDCHAR
STARTCHAR X
ENCODING 88
SWIDTH 722 0
DWIDTH 9 0
BBX 8 8 0 0
BITMAP
F7
62
74
38
1C
2E
46
EF
ENDCHAR
STARTCHAR Y
ENCODING 89
SWIDTH 722 0
DWIDTH 9 0
BBX 8 8 0 0
BITMAP
F7
62
34
34
18
18
18
3C
ENDCHAR
STARTCHAR Z
ENCODING 90
SWIDTH 667 0
DWIDTH 7 0
BBX 6 8 0 0
BITMAP
FC
8C
1C
38
70
E0
C4
FC
ENDCHAR
STARTCHAR bracketleft
ENCODING 91
SWIDTH 389 0
DWIDTH 4 0
BBX 3 10 0 -2
BITMAP
E0
C0
C0
C0
C0
C0
C0
C0
C0
E0
ENDCHAR
STARTCHAR backslash
ENCODING 92
SWIDTH 606 0
DWIDTH 5 0
BBX 4 8 0 0
BITMAP
80
80
40
40
20
20
10
10
ENDCHAR
STARTCHAR bracketright
ENCODING 93
SWIDTH 389 0
DWIDTH 4 0
BBX 3 10 0 -2
BITMAP
E0
60
60
60
60
60
60
60
60
E0
ENDCHAR
STARTCHAR asciicircum
ENCODING 94
SWIDTH 606 0
DWIDTH 6 0
BBX 5 6 0 2
BITMAP
20
20
70
50
88
88
ENDCHAR
STARTCHAR underscore
ENCODING 95
SWIDTH 500 0
DWIDTH 6 0
BBX 6 1 0 -2
BITMAP
FC
ENDCHAR
STARTCHAR grave
ENCODING 96
SWIDTH 333 0
DWIDTH 4 0
BBX 3 2 0 6
BITMAP
C0
60
ENDCHAR
STARTCHAR a
ENCODING 97
SWIDTH 611 0
DWIDTH 5 0
BBX 4 5 0 0
BITMAP
E0
30
70
B0
F0
ENDCHAR
STARTCHAR b
ENCODING 98
SWIDTH 648 0
DWIDTH 7 0
BBX 6 8 0 0
BITMAP
C0
C0
C0
D8
EC
CC
CC
B8
ENDCHAR
STARTCHAR c
ENCODING 99
SWIDTH 556 0
DWIDTH 6 0
BBX 5 5 0 0
BITMAP
70
C8
C0
C8
70
ENDCHAR
STARTCHAR d
ENCODING 100
SWIDTH 667 0
DWIDTH 7 0
BBX 6 8 0 0
BITMAP
1C
0C
0C
7C
CC
CC
DC
6C
ENDCHAR
STARTCHAR e
ENCODING 101
SWIDTH 574 0
DWIDTH 6 0
BBX 5 5 0 0
BITMAP
70
D8
F8
C0
78
ENDCHAR
STARTCHAR f
ENCODING 102
SWIDTH 389 0
DWIDTH 5 0
BBX 5 8 0 0
BITMAP
38
68
60
F0
60
60
60
F0
ENDCHAR
STARTCHAR g
ENCODING 103
SWIDTH 611 0
DWIDTH 6 0
BBX 6 8 0 -2
BITMAP
08
70
D8
D8
70
7C
8C
F8
ENDCHAR
STARTCHAR h
ENCODING 104
SWIDTH 685 0
DWIDTH 7 0
BBX 6 8 0 0
BITMAP
C0
C0
C0
D8
EC
CC
CC
CC
ENDCHAR
STARTCHAR i
ENCODING 105
SWIDTH 370 0
DWIDTH 5 0
BBX 4 8 0 0
BITMAP
60
60
00
E0
60
60
60
F0
ENDCHAR
STARTCHAR j
ENCODING 106
SWIDTH 352 0
DWIDTH 5 0
BBX 3 10 0 -2
BITMAP
60
60
00
E0
60
60
60
60
60
C0
ENDCHAR
STARTCHAR k
ENCODING 107
SWIDTH 667 0
DWIDTH 6 0
BBX 6 8 0 0
BITMAP
C0
C0
C0
D8
F0
F0
D8
DC
ENDCHAR
STARTCHAR l
ENCODING 108
SWIDTH 352 0
DWIDTH 5 0
BBX 4 8 0 0
BITMAP
E0
60
60
60
60
60
60
F0
ENDCHAR
STARTCHAR m
ENCODING 109
SWIDTH 963 0
DWIDTH 11 0
BBX 10 5 0 0
BITMAP
D980
EEC0
CCC0
CCC0
CCC0
ENDCHAR
STARTCHAR n
ENCODING 110
SWIDTH 685 0
DWIDTH 7 0
BBX 6 5 0 0
BITMAP
D8
EC
CC
CC
CC
ENDCHAR
STARTCHAR o
ENCODING 111
SWIDTH 611 0
DWIDTH 7 0
BBX 6 5 0 0
BITMAP
78
CC
CC
CC
78
ENDCHAR
STARTCHAR p
ENCODING 112
SWIDTH 667 0
DWIDTH 7 0
BBX 6 7 0 -2
BITMAP
D8
EC
CC
CC
F8
C0
E0
ENDCHAR
STARTCHAR q
ENCODING 113
SWIDTH 648 0
DWIDTH 7 0
BBX 7 7 0 -2
BITMAP
7C
CC
CC
DC
6C
0C
1E
ENDCHAR
STARTCHAR r
ENCODING 114
SWIDTH 519 0
DWIDTH 5 0
BBX 4 5 0 0
BITMAP
D0
F0
C0
C0
C0
ENDCHAR
STARTCHAR s
ENCODING 115
SWIDTH 500 0
DWIDTH 5 0
BBX 4 5 0 0
BITMAP
70
C0
F0
30
E0
ENDCHAR
STARTCHAR t
ENCODING 116
SWIDTH 426 0
DWIDTH 4 0
BBX 3 7 0 0
BITMAP
40
C0
E0
C0
C0
C0
60
ENDCHAR
STARTCHAR u
ENCODING 117
SWIDTH 685 0
DWIDTH 7 0
BBX 6 5 0 0
BITMAP
CC
CC
CC
DC
6C
ENDCHAR
STARTCHAR v
ENCODING 118
SWIDTH 611 0
DWIDTH 7 0
BBX 6 5 0 0
BITMAP
EC
68
68
30
30
ENDCHAR
STARTCHAR w
ENCODING 119
SWIDTH 889 0
DWIDTH 10 0
BBX 9 5 0 0
BITMAP
ED80
6D00
6D00
3600
3600
ENDCHAR
STARTCHAR x
ENCODING 120
SWIDTH 611 0
DWIDTH 7 0
BBX 6 5 0 0
BITMAP
EC
68
30
58
DC
ENDCHAR
STARTCHAR y
ENCODING 121
SWIDTH 611 0
DWIDTH 7 0
BBX 6 7 0 -2
BITMAP
EC
68
68
30
30
E0
C0
ENDCHAR
STARTCHAR z
ENCODING 122
SWIDTH 537 0
DWIDTH 6 0
BBX 5 5 0 0
BITMAP
F8
B0
60
C8
F8
ENDCHAR
STARTCHAR braceleft
ENCODING 123
SWIDTH 389 0
DWIDTH 5 0
BBX 4 10 0 -2
BITMAP
30
60
60
60
C0
60
60
60
60
30
ENDCHAR
STARTCHAR bar
ENCODING 124
SWIDTH 606 0
DWIDTH 6 0
BBX 1 8 2 0
BITMAP
80
80
80
80
80
80
80
80
ENDCHAR
STARTCHAR braceright
ENCODING 125
SWIDTH 389 0
DWIDTH 5 0
BBX 4 10 0 -2
BITMAP
C0
60
60
60
30
60
60
60
60
C0
ENDCHAR
STARTCHAR asciitilde
ENCODING 126
SWIDTH 606 0
DWIDTH 7 0
BBX 6 2 0 3
BITMAP
74
B8
ENDCHAR
STARTCHAR space
ENCODING 160
SWIDTH 287 0
DWIDTH 3 0
BBX 1 1 0 0
BITMAP
00
ENDCHAR
STARTCHAR quotedblright
ENCODING 161
SWIDTH 481 0
DWIDTH 6 0
BBX 5 4 0 4
BITMAP
D8
D8
48
90
ENDCHAR
STARTCHAR cent
ENCODING 162
SWIDTH 574 0
DWIDTH 6 0
BBX 5 7 0 -1
BITMAP
08
78
D0
D0
E8
70
40
ENDCHAR
STARTCHAR sterling
ENCODING 163
SWIDTH 574 0
DWIDTH 8 0
BBX 7 8 0 0
BITMAP
3C
64
60
FC
30
62
BE
DC
ENDCHAR
STARTCHAR currency
ENCODING 164
SWIDTH 606 0
DWIDTH 8 0
BBX 7 5 0 1
BITMAP
BA
6C
6C
6C
BA
ENDCHAR
STARTCHAR quotedblbase
ENCODING 165
SWIDTH 481 0
DWIDTH 6 0
BBX 5 4 0 -2
BITMAP
D8
D8
48
90
ENDCHAR
STARTCHAR brokenbar
ENCODING 166
SWIDTH 606 0
DWIDTH 6 0
BBX 1 8 2 0
BITMAP
80
80
80
00
80
80
80
80
ENDCHAR
STARTCHAR section
ENCODING 167
SWIDTH 500 0
DWIDTH 5 0
BBX 4 10 0 -2
BITMAP
70
90
C0
60
B0
D0
60
30
90
E0
ENDCHAR
STARTCHAR Oslash
ENCODING 168
SWIDTH 833 0
DWIDTH 8 0
BBX 7 8 0 0
BITMAP
3A
44
CE
D6
D6
E6
44
B8
ENDCHAR
STARTCHAR copyright
ENCODING 169
SWIDTH 747 0
DWIDTH 9 0
BBX 8 8 0 0
BITMAP
3C
42
9D
A5
A1
9D
42
3C
ENDCHAR
STARTCHAR Rcommaaccent
ENCODING 170
SWIDTH 815 0
DWIDTH 9 0
BBX 8 13 0 -5
BITMAP
FC
66
66
64
7C
66
66
F7
00
18
18
08
10
ENDCHAR
STARTCHAR guillemotleft
ENCODING 171
SWIDTH 500 0
DWIDTH 7 0
BBX 6 5 0 0
BITMAP
24
6C
D8
6C
24
ENDCHAR
STARTCHAR logicalnot
ENCODING 172
SWIDTH 606 0
DWIDTH 6 0
BBX 5 3 0 2
BITMAP
F8
08
08
ENDCHAR
STARTCHAR hyphen
ENCODING 173
SWIDTH 333 0
DWIDTH 4 0
BBX 3 1 0 3
BITMAP
E0
ENDCHAR
STARTCHAR registered
ENCODING 174
SWIDTH 747 0
DWIDTH 9 0
BBX 8 8 0 0
BITMAP
3C
42
BD
A5
B9
AD
42
3C
ENDCHAR
STARTCHAR AE
ENCODING 175
SWIDTH 981 0
DWIDTH 11 0
BBX 10 8 0 0
BITMAP
3FC0
1640
1680
2780
3E80
4640
4640
EFC0
ENDCHAR
STARTCHAR degree
ENCODING 176
SWIDTH 400 0
DWIDTH 4 0
BBX 3 4 0 4
BITMAP
40
A0
A0
40
ENDCHAR
STARTCHAR plusminus
ENCODING 177
SWIDTH 606 0
DWIDTH 6 0
BBX 5 5 0 1
BITMAP
20
F8
20
00
F8
ENDCHAR
STARTCHAR twosuperior
ENCODING 178
SWIDTH 344 0
DWIDTH 3 0
BBX 3 4 0 4
BITMAP
60
A0
40
E0
ENDCHAR
STARTCHAR threesuperior
ENCODING 179
SWIDTH 344 0
DWIDTH 3 0
BBX 3 4 0 4
BITMAP
E0
40
20
C0
ENDCHAR
STARTCHAR quotedblleft
ENCODING 180
SWIDTH 481 0
DWIDTH 6 0
BBX 5 4 0 4
BITMAP
48
90
D8
D8
ENDCHAR
STARTCHAR mu
ENCODING 181
SWIDTH 685 0
DWIDTH 7 0
BBX 6 7 0 -2
BITMAP
CC
CC
CC
DC
EC
C0
C0
ENDCHAR
STARTCHAR paragraph
ENCODING 182
SWIDTH 747 0
DWIDTH 8 0
BBX 7 8 0 0
BITMAP
7E
F4
F4
74
14
14
14
3E
ENDCHAR
STARTCHAR periodcentered
ENCODING 183
SWIDTH 278 0
DWIDTH 3 0
BBX 2 2 0 3
BITMAP
C0
C0
ENDCHAR
STARTCHAR oslash
ENCODING 184
SWIDTH 611 0
DWIDTH 7 0
BBX 6 7 0 -1
BITMAP
04
78
DC
EC
CC
78
80
ENDCHAR
STARTCHAR onesuperior
ENCODING 185
SWIDTH 344 0
DWIDTH 3 0
BBX 3 4 0 4
BITMAP
40
C0
40
E0
ENDCHAR
STARTCHAR rcommaaccent
ENCODING 186
SWIDTH 519 0
DWIDTH 5 0
BBX 4 10 0 -5
BITMAP
D0
F0
C0
C0
C0
00
C0
C0
40
80
ENDCHAR
STARTCHAR guillemotright
ENCODING 187
SWIDTH 500 0
DWIDTH 7 0
BBX 6 5 0 0
BITMAP
90
D8
6C
D8
90
ENDCHAR
STARTCHAR onequarter
ENCODING 188
SWIDTH 861 0
DWIDTH 9 0
BBX 8 8 0 0
BITMAP
44
C4
48
E8
12
16
2F
22
ENDCHAR
STARTCHAR onehalf
ENCODING 189
SWIDTH 861 0
DWIDTH 9 0
BBX 8 8 0 0
BITMAP
44
C4
48
E8
13
15
22
27
ENDCHAR
STARTCHAR threequarters
ENCODING 190
SWIDTH 861 0
DWIDTH 9 0
BBX 8 8 0 0
BITMAP
E4
44
28
C8
12
16
2F
22
ENDCHAR
STARTCHAR ae
ENCODING 191
SWIDTH 870 0
DWIDTH 9 0
BBX 8 5 0 0
BITMAP
EE
9B
7F
D8
EF
ENDCHAR
STARTCHAR Aogonek
ENCODING 192
SWIDTH 759 0
DWIDTH 8 0
BBX 9 10 -1 -2
BITMAP
0800
1C00
1C00
2600
2600
7F00
4300
EF80
1000
1800
ENDCHAR
STARTCHAR Iogonek
ENCODING 193
SWIDTH 444 0
DWIDTH 5 0
BBX 4 10 0 -2
BITMAP
F0
60
60
60
60
60
60
F0
40
60
ENDCHAR
STARTCHAR Amacron
ENCODING 194
SWIDTH 759 0
DWIDTH 8 0
BBX 9 10 -1 0
BITMAP
1E00
0000
0800
1C00
1C00
2600
2600
7F00
4300
E780
ENDCHAR
STARTCHAR Cacute
ENCODING 195
SWIDTH 778 0
DWIDTH 8 0
BBX 7 11 0 0
BITMAP
0C
18
00
3A
46
C2
C0
C0
C2
42
3C
ENDCHAR
STARTCHAR Adieresis
ENCODING 196
SWIDTH 759 0
DWIDTH 8 0
BBX 9 11 -1 0
BITMAP
1400
1400
0000
0800
1C00
1C00
2600
2600
7F00
4300
E780
ENDCHAR
STARTCHAR Aring
ENCODING 197
SWIDTH 759 0
DWIDTH 8 0
BBX 9 11 -1 0
BITMAP
1800
2400
1800
0800
1C00
1C00
2600
2600
7F00
4300
E780
ENDCHAR
STARTCHAR Eogonek
ENCODING 198
SWIDTH 759 0
DWIDTH 7 0
BBX 6 10 0 -2
BITMAP
FC
64
68
78
68
64
64
FC
20
30
ENDCHAR
STARTCHAR Emacron
ENCODING 199
SWIDTH 759 0
DWIDTH 7 0
BBX 6 10 0 0
BITMAP
78
00
FC
64
68
78
68
64
64
FC
ENDCHAR
STARTCHAR Ccaron
ENCODING 200
SWIDTH 778 0
DWIDTH 8 0
BBX 7 11 0 0
BITMAP
6C
38
00
3A
46
C2
C0
C0
C2
42
3C
ENDCHAR
STARTCHAR Eacute
ENCODING 201
SWIDTH 759 0
DWIDTH 7 0
BBX 6 11 0 0
BITMAP
18
30
00
FC
64
68
78
68
64
64
FC
ENDCHAR
STARTCHAR Zacute
ENCODING 202
SWIDTH 667 0
DWIDTH 7 0
BBX 6 11 0 0
BITMAP
18
30
00
FC
8C
1C
38
70
E0
C4
FC
ENDCHAR
STARTCHAR Edotaccent
ENCODING 203
SWIDTH 759 0
DWIDTH 7 0
BBX 6 11 0 0
BITMAP
10
10
00
FC
64
68
78
68
64
64
FC
ENDCHAR
STARTCHAR Gcommaaccent
ENCODING 204
SWIDTH 833 0
DWIDTH 8 0
BBX 7 13 0 -5
BITMAP
3A
46
C2
C0
CE
C6
46
3A
00
18
18
08
10
ENDCHAR
STARTCHAR Kcommaaccent
ENCODING 205
SWIDTH 815 0
DWIDTH 9 0
BBX 9 13 0 -5
BITMAP
F300
6200
6400
6800
7C00
6600
6300
F380
0000
1800
1800
0800
1000
ENDCHAR
STARTCHAR Imacron
ENCODING 206
SWIDTH 444 0
DWIDTH 5 0
BBX 4 10 0 0
BITMAP
F0
00
F0
60
60
60
60
60
60
F0
ENDCHAR
STARTCHAR Lcommaaccent
ENCODING 207
SWIDTH 722 0
DWIDTH 7 0
BBX 6 13 0 -5
BITMAP
F0
60
60
60
60
64
64
FC
00
30
30
10
20
ENDCHAR
STARTCHAR Scaron
ENCODING 208
SWIDTH 667 0
DWIDTH 7 0
BBX 6 11 0 0
BITMAP
6C
38
00
74
CC
C4
F0
3C
8C
CC
B8
ENDCHAR
STARTCHAR Nacute
ENCODING 209
SWIDTH 833 0
DWIDTH 9 0
BBX 8 11 0 0
BITMAP
0C
18
00
C7
62
72
7A
5E
4E
46
E2
ENDCHAR
STARTCHAR Ncommaaccent
ENCODING 210
SWIDTH 833 0
DWIDTH 9 0
BBX 8 13 0 -5
BITMAP
C7
62
72
7A
5E
4E
46
E2
00
18
18
08
10
ENDCHAR
STARTCHAR Oacute
ENCODING 211
SWIDTH 833 0
DWIDTH 8 0
BBX 7 11 0 0
BITMAP
18
30
00
38
44
C6
C6
C6
C6
44
38
ENDCHAR
STARTCHAR Omacron
ENCODING 212
SWIDTH 833 0
DWIDTH 8 0
BBX 7 10 0 0
BITMAP
3C
00
38
44
C6
C6
C6
C6
44
38
ENDCHAR
STARTCHAR Otilde
ENCODING 213
SWIDTH 833 0
DWIDTH 8 0
BBX 7 11 0 0
BITMAP
34
58
00
38
44
C6
C6
C6
C6
44
38
ENDCHAR
STARTCHAR Odieresis
ENCODING 214
SWIDTH 833 0
DWIDTH 8 0
BBX 7 11 0 0
BITMAP
28
28
00
38
44
C6
C6
C6
C6
44
38
ENDCHAR
STARTCHAR multiply
ENCODING 215
SWIDTH 606 0
DWIDTH 6 0
BBX 5 5 0 1
BITMAP
D8
70
20
70
D8
ENDCHAR
STARTCHAR Uogonek
ENCODING 216
SWIDTH 833 0
DWIDTH 9 0
BBX 8 10 0 -2
BITMAP
F7
62
62
62
62
62
62
3C
20
30
ENDCHAR
STARTCHAR Lslash
ENCODING 217
SWIDTH 722 0
DWIDTH 7 0
BBX 6 8 0 0
BITMAP
F0
60
60
70
E0
64
64
FC
ENDCHAR
STARTCHAR Sacute
ENCODING 218
SWIDTH 667 0
DWIDTH 7 0
BBX 6 11 0 0
BITMAP
18
30
00
74
CC
C4
F0
3C
8C
CC
B8
ENDCHAR
STARTCHAR Umacron
ENCODING 219
SWIDTH 833 0
DWIDTH 9 0
BBX 8 10 0 0
BITMAP
3C
00
F7
62
62
62
62
62
62
3C
ENDCHAR
STARTCHAR Udieresis
ENCODING 220
SWIDTH 833 0
DWIDTH 9 0
BBX 8 11 0 0
BITMAP
14
14
00
F7
62
62
62
62
62
62
3C
ENDCHAR
STARTCHAR Zdotaccent
ENCODING 221
SWIDTH 667 0
DWIDTH 7 0
BBX 6 11 0 0
BITMAP
10
10
00
FC
8C
1C
38
70
E0
C4
FC
ENDCHAR
STARTCHAR Zcaron
ENCODING 222
SWIDTH 667 0
DWIDTH 7 0
BBX 6 11 0 0
BITMAP
6C
38
00
FC
8C
1C
38
70
E0
C4
FC
ENDCHAR
STARTCHAR germandbls
ENCODING 223
SWIDTH 611 0
DWIDTH 8 0
BBX 7 8 0 0
BITMAP
3C
66
66
6C
66
66
66
EC
ENDCHAR
STARTCHAR aogonek
ENCODING 224
SWIDTH 611 0
DWIDTH 5 0
BBX 4 7 0 -2
BITMAP
E0
30
70
B0
F0
40
60
ENDCHAR
STARTCHAR iogonek
ENCODING 225
SWIDTH 370 0
DWIDTH 5 0
BBX 4 10 0 -2
BITMAP
60
60
00
E0
60
60
60
F0
40
60
ENDCHAR
STARTCHAR amacron
ENCODING 226
SWIDTH 611 0
DWIDTH 5 0
BBX 4 7 0 0
BITMAP
F0
00
E0
30
70
B0
F0
ENDCHAR
STARTCHAR cacute
ENCODING 227
SWIDTH 556 0
DWIDTH 6 0
BBX 5 8 0 0
BITMAP
30
60
00
70
C8
C0
C8
70
ENDCHAR
STARTCHAR adieresis
ENCODING 228
SWIDTH 611 0
DWIDTH 5 0
BBX 4 8 0 0
BITMAP
A0
A0
00
E0
30
70
B0
F0
ENDCHAR
STARTCHAR aring
ENCODING 229
SWIDTH 611 0
DWIDTH 5 0
BBX 4 8 0 0
BITMAP
60
90
60
E0
30
70
B0
F0
ENDCHAR
STARTCHAR eogonek
ENCODING 230
SWIDTH 574 0
DWIDTH 6 0
BBX 5 7 0 -2
BITMAP
70
D8
F8
C0
78
40
60
ENDCHAR
STARTCHAR emacron
ENCODING 231
SWIDTH 574 0
DWIDTH 6 0
BBX 5 7 0 0
BITMAP
78
00
70
D8
F8
C0
78
ENDCHAR
STARTCHAR ccaron
ENCODING 232
SWIDTH 556 0
DWIDTH 6 0
BBX 5 8 0 0
BITMAP
D8
70
00
70
C8
C0
C8
70
ENDCHAR
STARTCHAR eacute
ENCODING 233
SWIDTH 574 0
DWIDTH 6 0
BBX 5 8 0 0
BITMAP
30
60
00
70
D8
F8
C0
78
ENDCHAR
STARTCHAR zacute
ENCODING 234
SWIDTH 537 0
DWIDTH 6 0
BBX 5 8 0 0
BITMAP
30
60
00
F8
B0
60
C8
F8
ENDCHAR
STARTCHAR edotaccent
ENCODING 235
SWIDTH 574 0
DWIDTH 6 0
BBX 5 8 0 0
BITMAP
20
20
00
70
D8
F8
C0
78
ENDCHAR
STARTCHAR gcommaaccent
ENCODING 236
SWIDTH 611 0
DWIDTH 6 0
BBX 6 13 0 -2
BITMAP
10
20
30
30
00
08
70
D8
D8
70
7C
8C
F8
ENDCHAR
STARTCHAR kcommaaccent
ENCODING 237
SWIDTH 667 0
DWIDTH 6 0
BBX 6 13 0 -5
BITMAP
C0
C0
C0
D8
F0
F0
D8
DC
00
30
30
10
20
ENDCHAR
STARTCHAR imacron
ENCODING 238
SWIDTH 370 0
DWIDTH 5 0
BBX 4 7 0 0
BITMAP
F0
00
E0
60
60
60
F0
ENDCHAR
STARTCHAR lcommaaccent
ENCODING 239
SWIDTH 352 0
DWIDTH 5 0
BBX 4 13 0 -5
BITMAP
E0
60
60
60
60
60
60
F0
00
60
60
20
40
ENDCHAR
STARTCHAR scaron
ENCODING 240
SWIDTH 500 0
DWIDTH 5 0
BBX 5 8 0 0
BITMAP
D8
70
00
70
C0
F0
30
E0
ENDCHAR
STARTCHAR nacute
ENCODING 241
SWIDTH 685 0
DWIDTH 7 0
BBX 6 8 0 0
BITMAP
18
30
00
D8
EC
CC
CC
CC
ENDCHAR
STARTCHAR ncommaaccent
ENCODING 242
SWIDTH 685 0
DWIDTH 7 0
BBX 6 10 0 -5
BITMAP
D8
EC
CC
CC
CC
00
30
30
10
20
ENDCHAR
STARTCHAR oacute
ENCODING 243
SWIDTH 611 0
DWIDTH 7 0
BBX 6 8 0 0
BITMAP
18
30
00
78
CC
CC
CC
78
ENDCHAR
STARTCHAR omacron
ENCODING 244
SWIDTH 611 0
DWIDTH 7 0
BBX 6 7 0 0
BITMAP
78
00
78
CC
CC
CC
78
ENDCHAR
STARTCHAR otilde
ENCODING 245
SWIDTH 611 0
DWIDTH 7 0
BBX 6 8 0 0
BITMAP
34
58
00
78
CC
CC
CC
78
ENDCHAR
STARTCHAR odieresis
ENCODING 246
SWIDTH 611 0
DWIDTH 7 0
BBX 6 8 0 0
BITMAP
50
50
00
78
CC
CC
CC
78
ENDCHAR
STARTCHAR divide
ENCODING 247
SWIDTH 606 0
DWIDTH 6 0
BBX 5 5 0 1
BITMAP
20
00
F8
00
20
ENDCHAR
STARTCHAR uogonek
ENCODING 248
SWIDTH 685 0
DWIDTH 7 0
BBX 6 7 0 -2
BITMAP
CC
CC
CC
DC
7C
20
30
ENDCHAR
STARTCHAR lslash
ENCODING 249
SWIDTH 352 0
DWIDTH 5 0
BBX 4 8 0 0
BITMAP
E0
60
70
60
E0
60
60
F0
ENDCHAR
STARTCHAR sacute
ENCODING 250
SWIDTH 500 0
DWIDTH 5 0
BBX 4 8 0 0
BITMAP
30
60
00
70
C0
F0
30
E0
ENDCHAR
STARTCHAR umacron
ENCODING 251
SWIDTH 685 0
DWIDTH 7 0
BBX 6 7 0 0
BITMAP
78
00
CC
CC
CC
DC
6C
ENDCHAR
STARTCHAR udieresis
ENCODING 252
SWIDTH 685 0
DWIDTH 7 0
BBX 6 8 0 0
BITMAP
50
50
00
CC
CC
CC
DC
6C
ENDCHAR
STARTCHAR zdotaccent
ENCODING 253
SWIDTH 537 0
DWIDTH 6 0
BBX 5 8 0 0
BITMAP
20
20
00
F8
B0
60
C8
F8
ENDCHAR
STARTCHAR zcaron
ENCODING 254
SWIDTH 537 0
DWIDTH 6 0
BBX 5 8 0 0
BITMAP
D8
70
00
F8
B0
60
C8
F8
ENDCHAR
STARTCHAR quoteright
ENCODING 255
SWIDTH 241 0
DWIDTH 3 0
BBX 2 4 0 4
BITMAP
C0
C0
40
80
ENDCHAR
ENDFONT
