STARTFONT 2.1
COMMENT AUTOMATICALLY GENERATED FILE. DO NOT EDIT!
COMMENT Generated with 'ucs2any ncenB10.bdf /usr/local/share/fonts/X11/util/map-ISO8859-10 ISO8859-10'
COMMENT from an ISO10646-1 encoded source BDF font.
COMMENT ucs2any by Ben Collver <collver1@attbi.com>, 2003, based on
COMMENT ucs2any.pl by Markus Kuhn <http://www.cl.cam.ac.uk/~mgk25/>, 2000.
FONT -Adobe-New Century Schoolbook-Bold-R-Normal--14-100-100-100-P-87-ISO8859-10
SIZE 10 100 100
FONTBOUNDINGBOX 16 21 -2 -6
COMMENT ISO10646-1 extension by Markus Kuhn <mkuhn@acm.org>, 2001-03-20
COMMENT
COMMENT +
COMMENT  Copyright 1984-1989, 1994 Adobe Systems Incorporated.
COMMENT  Copyright 1988, 1994 Digital Equipment Corporation.
COMMENT
COMMENT  Adobe is a trademark of Adobe Systems Incorporated which may be
COMMENT  registered in certain jurisdictions.
COMMENT  Permission to use these trademarks is hereby granted only in
COMMENT  association with the images described in this file.
COMMENT
COMMENT  Permission to use, copy, modify, distribute and sell this software
COMMENT  and its documentation for any purpose and without fee is hereby
COMMENT  granted, provided that the above copyright notices appear in all
COMMENT  copies and that both those copyright notices and this permission
COMMENT  notice appear in supporting documentation, and that the names of
COMMENT  Adobe Systems and Digital Equipment Corporation not be used in
COMMENT  advertising or publicity pertaining to distribution of the software
COMMENT  without specific, written prior permission.  Adobe Systems and
COMMENT  Digital Equipment Corporation make no representations about the
COMMENT  suitability of this software for any purpose.  It is provided "as
COMMENT  is" without express or implied warranty.
COMMENT -
STARTPROPERTIES 26
FOUNDRY "Adobe"
FAMILY_NAME "New Century Schoolbook"
WEIGHT_NAME "Bold"
SLANT "R"
SETWIDTH_NAME "Normal"
ADD_STYLE_NAME ""
PIXEL_SIZE 14
POINT_SIZE 100
RESOLUTION_X 100
RESOLUTION_Y 100
SPACING "P"
AVERAGE_WIDTH 87
CHARSET_REGISTRY "ISO8859"
CHARSET_ENCODING "10"
CAP_HEIGHT 11
X_HEIGHT 7
FONT_ASCENT 13
FONT_DESCENT 3
FACE_NAME "New Century Schoolbook Bold"
COPYRIGHT "Copyright (c) 1984, 1987 Adobe Systems Incorporated. All Rights Reserved. Copyright (c) 1988, 1991 Digital Equipment Corporation. All Rights Reserved."
NOTICE "New Century Schoolbook is a trademark of Linotype-Hell AG and/or its subsidiaries."
_DEC_DEVICE_FONTNAMES "PS=NewCenturySchlbk-Bold"
DEFAULT_CHAR 0
RELATIVE_SETWIDTH 50
RELATIVE_WEIGHT 70
FULL_NAME "New Century Schoolbook Bold"
ENDPROPERTIES
CHARS 192
STARTCHAR defaultchar
ENCODING 0
SWIDTH 870 0
DWIDTH 12 0
BBX 11 11 0 0
BITMAP
AAA0
0000
8020
0000
8020
0000
8020
0000
8020
0000
AAA0
ENDCHAR
STARTCHAR space
ENCODING 32
SWIDTH 287 0
DWIDTH 4 0
BBX 1 1 0 0
BITMAP
00
ENDCHAR
STARTCHAR exclam
ENCODING 33
SWIDTH 296 0
DWIDTH 4 0
BBX 2 11 1 0
BITMAP
C0
C0
C0
C0
C0
80
80
00
C0
C0
C0
ENDCHAR
STARTCHAR quotedbl
ENCODING 34
SWIDTH 333 0
DWIDTH 5 0
BBX 3 4 1 7
BITMAP
A0
A0
A0
A0
ENDCHAR
STARTCHAR numbersign
ENCODING 35
SWIDTH 574 0
DWIDTH 8 0
BBX 7 10 0 0
BITMAP
14
14
14
7E
28
28
FC
50
50
50
ENDCHAR
STARTCHAR dollar
ENCODING 36
SWIDTH 574 0
DWIDTH 8 0
BBX 7 13 0 -1
BITMAP
10
7C
D6
96
D0
F0
7C
1E
16
D2
D6
7C
10
ENDCHAR
STARTCHAR percent
ENCODING 37
SWIDTH 833 0
DWIDTH 13 0
BBX 12 11 0 0
BITMAP
3080
6F00
C900
CA00
D200
6460
04D0
0990
0990
11A0
10C0
ENDCHAR
STARTCHAR ampersand
ENCODING 38
SWIDTH 852 0
DWIDTH 13 0
BBX 12 11 0 0
BITMAP
1E00
3300
3300
3200
1C00
3CE0
4E40
C780
C390
E3E0
7CC0
ENDCHAR
STARTCHAR quotesingle
ENCODING 39
SWIDTH 241 0
DWIDTH 3 0
BBX 1 4 1 7
BITMAP
80
80
80
80
ENDCHAR
STARTCHAR parenleft
ENCODING 40
SWIDTH 389 0
DWIDTH 5 0
BBX 4 13 0 -2
BITMAP
10
20
60
40
C0
C0
C0
C0
C0
40
60
20
10
ENDCHAR
STARTCHAR parenright
ENCODING 41
SWIDTH 389 0
DWIDTH 5 0
BBX 4 13 0 -2
BITMAP
80
40
60
20
30
30
30
30
30
20
60
40
80
ENDCHAR
STARTCHAR asterisk
ENCODING 42
SWIDTH 500 0
DWIDTH 6 0
BBX 5 5 0 6
BITMAP
20
A8
70
A8
20
ENDCHAR
STARTCHAR plus
ENCODING 43
SWIDTH 606 0
DWIDTH 8 0
BBX 7 7 0 1
BITMAP
10
10
10
FE
10
10
10
ENDCHAR
STARTCHAR comma
ENCODING 44
SWIDTH 278 0
DWIDTH 4 0
BBX 2 5 1 -2
BITMAP
C0
C0
C0
40
80
ENDCHAR
STARTCHAR hyphen
ENCODING 45
SWIDTH 333 0
DWIDTH 5 0
BBX 4 2 0 3
BITMAP
F0
F0
ENDCHAR
STARTCHAR period
ENCODING 46
SWIDTH 278 0
DWIDTH 4 0
BBX 2 3 1 0
BITMAP
C0
C0
C0
ENDCHAR
STARTCHAR slash
ENCODING 47
SWIDTH 278 0
DWIDTH 5 0
BBX 4 11 0 0
BITMAP
10
10
10
20
20
20
40
40
40
80
80
ENDCHAR
STARTCHAR zero
ENCODING 48
SWIDTH 574 0
DWIDTH 8 0
BBX 7 11 0 0
BITMAP
38
6C
C6
C6
C6
C6
C6
C6
C6
6C
38
ENDCHAR
STARTCHAR one
ENCODING 49
SWIDTH 574 0
DWIDTH 8 0
BBX 5 11 1 0
BITMAP
30
F0
30
30
30
30
30
30
30
30
78
ENDCHAR
STARTCHAR two
ENCODING 50
SWIDTH 574 0
DWIDTH 8 0
BBX 7 11 0 0
BITMAP
78
CE
C6
06
06
0C
18
30
62
FE
FE
ENDCHAR
STARTCHAR three
ENCODING 51
SWIDTH 574 0
DWIDTH 8 0
BBX 7 11 0 0
BITMAP
78
CE
C6
06
0C
3C
06
06
C6
CE
78
ENDCHAR
STARTCHAR four
ENCODING 52
SWIDTH 574 0
DWIDTH 8 0
BBX 7 11 0 0
BITMAP
0C
1C
1C
2C
2C
4C
4C
FE
0C
0C
1E
ENDCHAR
STARTCHAR five
ENCODING 53
SWIDTH 574 0
DWIDTH 8 0
BBX 7 11 0 0
BITMAP
7E
7C
40
40
5C
6E
06
06
C6
CE
78
ENDCHAR
STARTCHAR six
ENCODING 54
SWIDTH 574 0
DWIDTH 8 0
BBX 7 11 0 0
BITMAP
3C
66
C6
C0
DC
EE
C6
C6
C6
E6
78
ENDCHAR
STARTCHAR seven
ENCODING 55
SWIDTH 574 0
DWIDTH 8 0
BBX 7 11 0 0
BITMAP
FE
FE
84
8C
0C
18
18
18
30
30
30
ENDCHAR
STARTCHAR eight
ENCODING 56
SWIDTH 574 0
DWIDTH 8 0
BBX 7 11 0 0
BITMAP
78
E6
C6
C6
F4
3C
5E
C6
C6
CE
3C
ENDCHAR
STARTCHAR nine
ENCODING 57
SWIDTH 574 0
DWIDTH 8 0
BBX 7 11 0 0
BITMAP
3C
CE
C6
C6
C6
EE
76
06
C6
CC
78
ENDCHAR
STARTCHAR colon
ENCODING 58
SWIDTH 278 0
DWIDTH 4 0
BBX 2 7 1 0
BITMAP
C0
C0
C0
00
C0
C0
C0
ENDCHAR
STARTCHAR semicolon
ENCODING 59
SWIDTH 278 0
DWIDTH 4 0
BBX 2 9 1 -2
BITMAP
C0
C0
C0
00
C0
C0
C0
40
80
ENDCHAR
STARTCHAR less
ENCODING 60
SWIDTH 606 0
DWIDTH 8 0
BBX 7 7 0 1
BITMAP
02
0E
38
E0
38
0E
02
ENDCHAR
STARTCHAR equal
ENCODING 61
SWIDTH 606 0
DWIDTH 8 0
BBX 7 3 0 3
BITMAP
FE
00
FE
ENDCHAR
STARTCHAR greater
ENCODING 62
SWIDTH 606 0
DWIDTH 8 0
BBX 7 7 0 1
BITMAP
80
E0
38
0E
38
E0
80
ENDCHAR
STARTCHAR question
ENCODING 63
SWIDTH 500 0
DWIDTH 7 0
BBX 6 11 0 0
BITMAP
78
CC
CC
0C
18
30
20
00
30
30
30
ENDCHAR
STARTCHAR at
ENCODING 64
SWIDTH 747 0
DWIDTH 14 0
BBX 13 11 0 0
BITMAP
0FC0
3870
6398
6CD8
CCD8
D998
D9B0
DBB0
CDC0
6010
3FE0
ENDCHAR
STARTCHAR A
ENCODING 65
SWIDTH 759 0
DWIDTH 11 0
BBX 10 11 0 0
BITMAP
0C00
0C00
1600
1600
1200
2300
2300
3F00
4180
4180
E3C0
ENDCHAR
STARTCHAR B
ENCODING 66
SWIDTH 778 0
DWIDTH 10 0
BBX 9 11 0 0
BITMAP
FE00
6300
6300
6300
6600
7F00
6180
6180
6180
6380
FE00
ENDCHAR
STARTCHAR C
ENCODING 67
SWIDTH 778 0
DWIDTH 11 0
BBX 10 11 0 0
BITMAP
1F40
70C0
6040
C040
C000
C000
C000
C000
6040
70C0
1F00
ENDCHAR
STARTCHAR D
ENCODING 68
SWIDTH 833 0
DWIDTH 12 0
BBX 11 11 0 0
BITMAP
FF00
61C0
60C0
6060
6060
6060
6060
6060
60C0
61C0
FF00
ENDCHAR
STARTCHAR E
ENCODING 69
SWIDTH 759 0
DWIDTH 10 0
BBX 9 11 0 0
BITMAP
FF80
6180
6080
6480
6400
7C00
6400
6480
6080
6180
FF80
ENDCHAR
STARTCHAR F
ENCODING 70
SWIDTH 722 0
DWIDTH 10 0
BBX 9 11 0 0
BITMAP
FF80
6180
6080
6480
6400
7C00
6400
6400
6000
6000
F000
ENDCHAR
STARTCHAR G
ENCODING 71
SWIDTH 833 0
DWIDTH 12 0
BBX 11 11 0 0
BITMAP
1F40
70C0
6040
C040
C000
C000
C3E0
C0C0
60C0
71C0
1E40
ENDCHAR
STARTCHAR H
ENCODING 72
SWIDTH 870 0
DWIDTH 12 0
BBX 11 11 0 0
BITMAP
F1E0
60C0
60C0
60C0
60C0
7FC0
60C0
60C0
60C0
60C0
F1E0
ENDCHAR
STARTCHAR I
ENCODING 73
SWIDTH 444 0
DWIDTH 7 0
BBX 4 11 1 0
BITMAP
F0
60
60
60
60
60
60
60
60
60
F0
ENDCHAR
STARTCHAR J
ENCODING 74
SWIDTH 648 0
DWIDTH 9 0
BBX 7 11 0 0
BITMAP
1E
0C
0C
0C
0C
0C
0C
CC
CC
9C
70
ENDCHAR
STARTCHAR K
ENCODING 75
SWIDTH 815 0
DWIDTH 12 0
BBX 11 11 0 0
BITMAP
F3C0
6100
6200
6400
6800
7C00
6E00
6700
6380
61C0
F3E0
ENDCHAR
STARTCHAR L
ENCODING 76
SWIDTH 722 0
DWIDTH 10 0
BBX 9 11 0 0
BITMAP
F000
6000
6000
6000
6000
6000
6000
6080
6080
6180
FF80
ENDCHAR
STARTCHAR M
ENCODING 77
SWIDTH 981 0
DWIDTH 14 0
BBX 13 11 0 0
BITMAP
F078
7070
7070
58B0
58B0
58B0
4D30
4D30
4D30
4630
E678
ENDCHAR
STARTCHAR N
ENCODING 78
SWIDTH 833 0
DWIDTH 12 0
BBX 11 11 0 0
BITMAP
E0E0
7040
7840
5C40
4C40
4640
4740
43C0
41C0
40C0
E040
ENDCHAR
STARTCHAR O
ENCODING 79
SWIDTH 833 0
DWIDTH 12 0
BBX 11 11 0 0
BITMAP
1F00
71C0
60C0
C060
C060
C060
C060
C060
60C0
71C0
1F00
ENDCHAR
STARTCHAR P
ENCODING 80
SWIDTH 759 0
DWIDTH 10 0
BBX 9 11 0 0
BITMAP
FF00
6380
6180
6180
6380
7E00
6000
6000
6000
6000
F000
ENDCHAR
STARTCHAR Q
ENCODING 81
SWIDTH 833 0
DWIDTH 12 0
BBX 11 14 0 -3
BITMAP
1F00
71C0
60C0
C060
C060
C060
C060
DC60
66C0
73C0
1F00
0320
03A0
01C0
ENDCHAR
STARTCHAR R
ENCODING 82
SWIDTH 815 0
DWIDTH 12 0
BBX 11 11 0 0
BITMAP
FF00
6380
6180
6180
6300
7E00
6300
6300
6180
61A0
F1C0
ENDCHAR
STARTCHAR S
ENCODING 83
SWIDTH 667 0
DWIDTH 10 0
BBX 9 11 0 0
BITMAP
3D00
E300
C100
C100
F000
7E00
0F80
8180
8180
C380
BE00
ENDCHAR
STARTCHAR T
ENCODING 84
SWIDTH 722 0
DWIDTH 11 0
BBX 10 11 0 0
BITMAP
FFC0
CCC0
8C40
8C40
0C00
0C00
0C00
0C00
0C00
0C00
1E00
ENDCHAR
STARTCHAR U
ENCODING 85
SWIDTH 833 0
DWIDTH 12 0
BBX 11 11 0 0
BITMAP
F0E0
6040
6040
6040
6040
6040
6040
6040
6040
3080
1F00
ENDCHAR
STARTCHAR V
ENCODING 86
SWIDTH 759 0
DWIDTH 11 0
BBX 10 11 0 0
BITMAP
F1C0
6080
6080
3100
3100
3100
1A00
1A00
1A00
0C00
0C00
ENDCHAR
STARTCHAR W
ENCODING 87
SWIDTH 981 0
DWIDTH 14 0
BBX 13 11 0 0
BITMAP
F7B8
6310
6310
6310
35A0
35A0
35A0
35A0
18C0
18C0
18C0
ENDCHAR
STARTCHAR X
ENCODING 88
SWIDTH 722 0
DWIDTH 12 0
BBX 11 11 0 0
BITMAP
F9E0
70C0
3080
1900
0D00
0E00
1600
1300
2180
61C0
F3E0
ENDCHAR
STARTCHAR Y
ENCODING 89
SWIDTH 722 0
DWIDTH 11 0
BBX 10 11 0 0
BITMAP
F1C0
6080
3100
3100
1A00
1A00
0C00
0C00
0C00
0C00
1E00
ENDCHAR
STARTCHAR Z
ENCODING 90
SWIDTH 667 0
DWIDTH 9 0
BBX 8 11 0 0
BITMAP
FF
C3
87
8E
0C
18
30
71
E1
C3
FF
ENDCHAR
STARTCHAR bracketleft
ENCODING 91
SWIDTH 389 0
DWIDTH 5 0
BBX 4 13 0 -2
BITMAP
F0
C0
C0
C0
C0
C0
C0
C0
C0
C0
C0
C0
F0
ENDCHAR
STARTCHAR backslash
ENCODING 92
SWIDTH 606 0
DWIDTH 7 0
BBX 6 11 0 0
BITMAP
80
80
40
40
20
20
10
10
08
08
04
ENDCHAR
STARTCHAR bracketright
ENCODING 93
SWIDTH 389 0
DWIDTH 5 0
BBX 4 13 0 -2
BITMAP
F0
30
30
30
30
30
30
30
30
30
30
30
F0
ENDCHAR
STARTCHAR asciicircum
ENCODING 94
SWIDTH 606 0
DWIDTH 8 0
BBX 7 7 0 4
BITMAP
10
10
38
28
6C
44
C6
ENDCHAR
STARTCHAR underscore
ENCODING 95
SWIDTH 500 0
DWIDTH 7 0
BBX 7 1 0 -2
BITMAP
FE
ENDCHAR
STARTCHAR grave
ENCODING 96
SWIDTH 333 0
DWIDTH 6 0
BBX 4 3 1 8
BITMAP
C0
60
10
ENDCHAR
STARTCHAR a
ENCODING 97
SWIDTH 611 0
DWIDTH 9 0
BBX 8 7 0 0
BITMAP
3C
66
06
3E
C6
CE
77
ENDCHAR
STARTCHAR b
ENCODING 98
SWIDTH 648 0
DWIDTH 10 0
BBX 9 11 0 0
BITMAP
E000
6000
6000
6000
6E00
7300
6180
6180
6180
6300
5E00
ENDCHAR
STARTCHAR c
ENCODING 99
SWIDTH 556 0
DWIDTH 8 0
BBX 7 7 0 0
BITMAP
3C
66
C6
C0
C2
66
3C
ENDCHAR
STARTCHAR d
ENCODING 100
SWIDTH 667 0
DWIDTH 10 0
BBX 9 11 0 0
BITMAP
0700
0300
0300
0300
3B00
6700
C300
C300
C300
6700
3B80
ENDCHAR
STARTCHAR e
ENCODING 101
SWIDTH 574 0
DWIDTH 9 0
BBX 8 7 0 0
BITMAP
3C
66
C3
FF
C0
63
3E
ENDCHAR
STARTCHAR f
ENCODING 102
SWIDTH 389 0
DWIDTH 6 0
BBX 6 11 0 0
BITMAP
38
6C
6C
60
F8
60
60
60
60
60
F0
ENDCHAR
STARTCHAR g
ENCODING 103
SWIDTH 611 0
DWIDTH 8 0
BBX 7 11 0 -3
BITMAP
06
7C
C6
C6
7C
80
FC
7E
82
86
7C
ENDCHAR
STARTCHAR h
ENCODING 104
SWIDTH 685 0
DWIDTH 10 0
BBX 9 11 0 0
BITMAP
E000
6000
6000
6000
6E00
7300
6300
6300
6300
6300
F780
ENDCHAR
STARTCHAR i
ENCODING 105
SWIDTH 370 0
DWIDTH 5 0
BBX 4 10 0 0
BITMAP
60
60
00
E0
60
60
60
60
60
F0
ENDCHAR
STARTCHAR j
ENCODING 106
SWIDTH 352 0
DWIDTH 5 0
BBX 5 13 -2 -3
BITMAP
18
18
00
38
18
18
18
18
18
18
18
D8
70
ENDCHAR
STARTCHAR k
ENCODING 107
SWIDTH 667 0
DWIDTH 9 0
BBX 8 11 0 0
BITMAP
E0
60
60
60
67
66
6C
78
6C
66
E7
ENDCHAR
STARTCHAR l
ENCODING 108
SWIDTH 352 0
DWIDTH 5 0
BBX 4 11 0 0
BITMAP
E0
60
60
60
60
60
60
60
60
60
F0
ENDCHAR
STARTCHAR m
ENCODING 109
SWIDTH 963 0
DWIDTH 15 0
BBX 14 7 0 0
BITMAP
EE70
7398
6318
6318
6318
6318
F7BC
ENDCHAR
STARTCHAR n
ENCODING 110
SWIDTH 685 0
DWIDTH 10 0
BBX 9 7 0 0
BITMAP
EE00
7300
6300
6300
6300
6300
F780
ENDCHAR
STARTCHAR o
ENCODING 111
SWIDTH 611 0
DWIDTH 9 0
BBX 8 7 0 0
BITMAP
3C
66
C3
C3
C3
66
3C
ENDCHAR
STARTCHAR p
ENCODING 112
SWIDTH 667 0
DWIDTH 10 0
BBX 9 10 0 -3
BITMAP
EE00
7300
6180
6180
6180
7300
6E00
6000
6000
F000
ENDCHAR
STARTCHAR q
ENCODING 113
SWIDTH 648 0
DWIDTH 9 0
BBX 9 10 0 -3
BITMAP
3D00
6700
C300
C300
C300
6700
3B00
0300
0300
0780
ENDCHAR
STARTCHAR r
ENCODING 114
SWIDTH 519 0
DWIDTH 7 0
BBX 7 7 0 0
BITMAP
EE
76
60
60
60
60
F0
ENDCHAR
STARTCHAR s
ENCODING 115
SWIDTH 500 0
DWIDTH 7 0
BBX 6 7 0 0
BITMAP
7C
C4
E0
78
1C
8C
F8
ENDCHAR
STARTCHAR t
ENCODING 116
SWIDTH 426 0
DWIDTH 6 0
BBX 6 10 0 0
BITMAP
20
20
60
F8
60
60
60
64
64
38
ENDCHAR
STARTCHAR u
ENCODING 117
SWIDTH 685 0
DWIDTH 10 0
BBX 9 7 0 0
BITMAP
E700
6300
6300
6300
6300
6700
3B80
ENDCHAR
STARTCHAR v
ENCODING 118
SWIDTH 611 0
DWIDTH 7 0
BBX 8 7 -1 0
BITMAP
F7
62
62
34
34
18
18
ENDCHAR
STARTCHAR w
ENCODING 119
SWIDTH 889 0
DWIDTH 12 0
BBX 13 7 -1 0
BITMAP
F7B8
6310
6310
35A0
35A0
18C0
18C0
ENDCHAR
STARTCHAR x
ENCODING 120
SWIDTH 611 0
DWIDTH 9 0
BBX 8 7 0 0
BITMAP
E7
66
3C
18
3C
46
E7
ENDCHAR
STARTCHAR y
ENCODING 121
SWIDTH 611 0
DWIDTH 7 0
BBX 8 10 -1 -3
BITMAP
F7
62
62
34
34
18
18
10
D0
E0
ENDCHAR
STARTCHAR z
ENCODING 122
SWIDTH 537 0
DWIDTH 7 0
BBX 6 7 0 0
BITMAP
FC
8C
18
30
60
C4
FC
ENDCHAR
STARTCHAR braceleft
ENCODING 123
SWIDTH 389 0
DWIDTH 6 0
BBX 5 13 0 -2
BITMAP
18
20
60
60
60
40
80
40
60
60
60
20
18
ENDCHAR
STARTCHAR bar
ENCODING 124
SWIDTH 606 0
DWIDTH 8 0
BBX 1 11 3 0
BITMAP
80
80
80
80
80
80
80
80
80
80
80
ENDCHAR
STARTCHAR braceright
ENCODING 125
SWIDTH 389 0
DWIDTH 6 0
BBX 5 13 0 -2
BITMAP
C0
20
30
30
30
10
08
10
30
30
30
20
C0
ENDCHAR
STARTCHAR asciitilde
ENCODING 126
SWIDTH 606 0
DWIDTH 8 0
BBX 7 2 0 4
BITMAP
76
DC
ENDCHAR
STARTCHAR space
ENCODING 160
SWIDTH 287 0
DWIDTH 4 0
BBX 1 1 0 0
BITMAP
00
ENDCHAR
STARTCHAR Aogonek
ENCODING 161
SWIDTH 759 0
DWIDTH 11 0
BBX 10 14 0 -3
BITMAP
0C00
0C00
1600
1600
1200
2300
2300
3F00
4180
4180
E3C0
0400
0800
0E00
ENDCHAR
STARTCHAR Emacron
ENCODING 162
SWIDTH 759 0
DWIDTH 10 0
BBX 9 13 0 0
BITMAP
3E00
0000
FF80
6180
6080
6480
6400
7C00
6400
6480
6080
6180
FF80
ENDCHAR
STARTCHAR Gcommaaccent
ENCODING 163
SWIDTH 833 0
DWIDTH 12 0
BBX 11 17 0 -6
BITMAP
1F40
70C0
6040
C040
C000
C000
C3E0
C0C0
60C0
71C0
1E40
0000
0600
0600
0600
0200
0400
ENDCHAR
STARTCHAR Imacron
ENCODING 164
SWIDTH 444 0
DWIDTH 7 0
BBX 5 13 1 0
BITMAP
F8
00
F0
60
60
60
60
60
60
60
60
60
F0
ENDCHAR
STARTCHAR Itilde
ENCODING 165
SWIDTH 444 0
DWIDTH 7 0
BBX 5 14 1 0
BITMAP
68
B0
00
F0
60
60
60
60
60
60
60
60
60
F0
ENDCHAR
STARTCHAR Kcommaaccent
ENCODING 166
SWIDTH 815 0
DWIDTH 12 0
BBX 11 17 0 -6
BITMAP
F3C0
6100
6200
6400
6800
7C00
6E00
6700
6380
61C0
F3E0
0000
0600
0600
0600
0200
0400
ENDCHAR
STARTCHAR section
ENCODING 167
SWIDTH 500 0
DWIDTH 7 0
BBX 6 13 0 -2
BITMAP
38
6C
4C
60
78
9C
CC
E4
78
1C
CC
C8
70
ENDCHAR
STARTCHAR Lcommaaccent
ENCODING 168
SWIDTH 722 0
DWIDTH 10 0
BBX 9 17 0 -6
BITMAP
F000
6000
6000
6000
6000
6000
6000
6080
6080
6180
FF80
0000
0C00
0C00
0C00
0400
0800
ENDCHAR
STARTCHAR Dcroat
ENCODING 169
SWIDTH 833 0
DWIDTH 12 0
BBX 11 11 0 0
BITMAP
FF00
61C0
60C0
6060
6060
F860
6060
6060
60C0
61C0
FF00
ENDCHAR
STARTCHAR Scaron
ENCODING 170
SWIDTH 667 0
DWIDTH 10 0
BBX 7 11 1 0
BITMAP
6C
38
10
00
7A
C6
E2
78
8E
C6
BC
ENDCHAR
STARTCHAR Tbar
ENCODING 171
SWIDTH 722 0
DWIDTH 11 0
BBX 10 11 0 0
BITMAP
FFC0
CCC0
8C40
8C40
0C00
1E00
0C00
0C00
0C00
0C00
1E00
ENDCHAR
STARTCHAR Zcaron
ENCODING 172
SWIDTH 667 0
DWIDTH 9 0
BBX 8 11 0 0
BITMAP
6C
38
10
00
FF
86
0C
18
31
63
FF
ENDCHAR
STARTCHAR hyphen
ENCODING 173
SWIDTH 333 0
DWIDTH 5 0
BBX 4 2 0 3
BITMAP
F0
F0
ENDCHAR
STARTCHAR Umacron
ENCODING 174
SWIDTH 833 0
DWIDTH 12 0
BBX 11 13 0 0
BITMAP
1F00
0000
F0E0
6040
6040
6040
6040
6040
6040
6040
6040
3080
1F00
ENDCHAR
STARTCHAR Eng
ENCODING 175
SWIDTH 833 0
DWIDTH 12 0
BBX 11 14 0 -3
BITMAP
E0E0
7040
7840
5C40
4C40
4640
4740
43C0
41C0
40C0
E0C0
00C0
06C0
0380
ENDCHAR
STARTCHAR degree
ENCODING 176
SWIDTH 400 0
DWIDTH 6 0
BBX 4 4 1 7
BITMAP
60
90
90
60
ENDCHAR
STARTCHAR aogonek
ENCODING 177
SWIDTH 611 0
DWIDTH 9 0
BBX 8 10 0 -3
BITMAP
3C
66
06
3E
C6
CE
77
08
10
1C
ENDCHAR
STARTCHAR emacron
ENCODING 178
SWIDTH 574 0
DWIDTH 9 0
BBX 8 9 0 0
BITMAP
3E
00
3C
66
C3
FF
C0
63
3E
ENDCHAR
STARTCHAR gcommaaccent
ENCODING 179
SWIDTH 611 0
DWIDTH 8 0
BBX 7 17 0 -3
BITMAP
08
10
18
18
18
00
06
7C
C6
C6
7C
80
FC
7E
82
86
7C
ENDCHAR
STARTCHAR imacron
ENCODING 180
SWIDTH 370 0
DWIDTH 5 0
BBX 5 9 -1 0
BITMAP
F8
00
70
30
30
30
30
30
78
ENDCHAR
STARTCHAR itilde
ENCODING 181
SWIDTH 370 0
DWIDTH 5 0
BBX 5 10 0 0
BITMAP
68
B0
00
E0
60
60
60
60
60
F0
ENDCHAR
STARTCHAR kcommaaccent
ENCODING 182
SWIDTH 667 0
DWIDTH 9 0
BBX 8 17 0 -6
BITMAP
E0
60
60
60
67
66
6C
78
6C
66
E7
00
18
18
18
08
10
ENDCHAR
STARTCHAR periodcentered
ENCODING 183
SWIDTH 278 0
DWIDTH 5 0
BBX 2 2 1 4
BITMAP
C0
C0
ENDCHAR
STARTCHAR lcommaaccent
ENCODING 184
SWIDTH 352 0
DWIDTH 5 0
BBX 4 17 0 -6
BITMAP
E0
60
60
60
60
60
60
60
60
60
F0
00
60
60
60
20
40
ENDCHAR
STARTCHAR dcroat
ENCODING 185
SWIDTH 667 0
DWIDTH 10 0
BBX 9 11 0 0
BITMAP
0700
0300
0F00
0300
3B00
6700
C300
C300
C300
6700
3B80
ENDCHAR
STARTCHAR scaron
ENCODING 186
SWIDTH 500 0
DWIDTH 7 0
BBX 6 11 0 0
BITMAP
D8
70
20
00
7C
C4
E0
78
1C
8C
F8
ENDCHAR
STARTCHAR tbar
ENCODING 187
SWIDTH 426 0
DWIDTH 6 0
BBX 6 10 0 0
BITMAP
20
20
60
F8
60
60
78
64
64
38
ENDCHAR
STARTCHAR zcaron
ENCODING 188
SWIDTH 537 0
DWIDTH 7 0
BBX 6 11 0 0
BITMAP
D8
70
20
00
FC
8C
18
30
60
C4
FC
ENDCHAR
STARTCHAR afii00208
ENCODING 189
SWIDTH 1000 0
DWIDTH 14 0
BBX 14 1 0 4
BITMAP
FFFC
ENDCHAR
STARTCHAR umacron
ENCODING 190
SWIDTH 685 0
DWIDTH 10 0
BBX 9 9 0 0
BITMAP
3E00
0000
E700
6300
6300
6300
6300
6700
3B80
ENDCHAR
STARTCHAR eng
ENCODING 191
SWIDTH 685 0
DWIDTH 10 0
BBX 8 10 0 -3
BITMAP
EE
73
63
63
63
63
F3
03
1B
0E
ENDCHAR
STARTCHAR Amacron
ENCODING 192
SWIDTH 759 0
DWIDTH 11 0
BBX 10 13 0 0
BITMAP
1F00
0000
0C00
0C00
1600
1600
1200
2300
2300
3F00
4180
4180
E3C0
ENDCHAR
STARTCHAR Aacute
ENCODING 193
SWIDTH 759 0
DWIDTH 11 0
BBX 10 15 0 0
BITMAP
0300
0600
0800
0000
0C00
0C00
1600
1600
1200
2300
2300
3F00
4180
4180
E3C0
ENDCHAR
STARTCHAR Acircumflex
ENCODING 194
SWIDTH 759 0
DWIDTH 11 0
BBX 10 15 0 0
BITMAP
0400
0E00
1100
0000
0C00
0C00
1600
1600
1200
2300
2300
3F00
4180
4180
E3C0
ENDCHAR
STARTCHAR Atilde
ENCODING 195
SWIDTH 759 0
DWIDTH 11 0
BBX 10 14 0 0
BITMAP
1D00
2E00
0000
0C00
0C00
1600
1600
1200
2300
2300
3F00
4180
4180
E3C0
ENDCHAR
STARTCHAR Adieresis
ENCODING 196
SWIDTH 759 0
DWIDTH 11 0
BBX 10 14 0 0
BITMAP
3300
3300
0000
0C00
0C00
1600
1600
1200
2300
2300
3F00
4180
4180
E3C0
ENDCHAR
STARTCHAR Aring
ENCODING 197
SWIDTH 759 0
DWIDTH 11 0
BBX 10 15 0 0
BITMAP
0C00
1200
0C00
0000
0C00
0C00
1600
1600
1200
2300
2300
3F00
4180
4180
E3C0
ENDCHAR
STARTCHAR AE
ENCODING 198
SWIDTH 981 0
DWIDTH 15 0
BBX 15 11 -1 0
BITMAP
0FFE
0586
0582
0992
0990
11F0
1F90
2192
2182
4186
E3FE
ENDCHAR
STARTCHAR Iogonek
ENCODING 199
SWIDTH 444 0
DWIDTH 7 0
BBX 4 14 1 -3
BITMAP
F0
60
60
60
60
60
60
60
60
60
F0
20
40
70
ENDCHAR
STARTCHAR Ccaron
ENCODING 200
SWIDTH 778 0
DWIDTH 11 0
BBX 10 15 0 0
BITMAP
1B00
0E00
0400
0000
1F40
70C0
6040
C040
C000
C000
C000
C000
6040
70C0
1F00
ENDCHAR
STARTCHAR Eacute
ENCODING 201
SWIDTH 759 0
DWIDTH 10 0
BBX 9 15 0 0
BITMAP
0300
0600
0800
0000
FF80
6180
6080
6480
6400
7C00
6400
6480
6080
6180
FF80
ENDCHAR
STARTCHAR Eogonek
ENCODING 202
SWIDTH 759 0
DWIDTH 10 0
BBX 9 14 0 -3
BITMAP
FF80
6180
6080
6480
6400
7C00
6400
6480
6080
6180
FF80
0800
1000
1C00
ENDCHAR
STARTCHAR Edieresis
ENCODING 203
SWIDTH 759 0
DWIDTH 10 0
BBX 9 14 0 0
BITMAP
3300
3300
0000
FF80
6180
6080
6480
6400
7C00
6400
6480
6080
6180
FF80
ENDCHAR
STARTCHAR Edotaccent
ENCODING 204
SWIDTH 759 0
DWIDTH 10 0
BBX 9 14 0 0
BITMAP
0C00
0C00
0000
FF80
6180
6080
6480
6400
7C00
6400
6480
6080
6180
FF80
ENDCHAR
STARTCHAR Iacute
ENCODING 205
SWIDTH 444 0
DWIDTH 7 0
BBX 5 15 1 0
BITMAP
18
30
40
00
F0
60
60
60
60
60
60
60
60
60
F0
ENDCHAR
STARTCHAR Icircumflex
ENCODING 206
SWIDTH 444 0
DWIDTH 7 0
BBX 5 15 1 0
BITMAP
20
70
88
00
F0
60
60
60
60
60
60
60
60
60
F0
ENDCHAR
STARTCHAR Idieresis
ENCODING 207
SWIDTH 444 0
DWIDTH 7 0
BBX 6 14 0 0
BITMAP
CC
CC
00
78
30
30
30
30
30
30
30
30
30
78
ENDCHAR
STARTCHAR Eth
ENCODING 208
SWIDTH 833 0
DWIDTH 12 0
BBX 11 11 0 0
BITMAP
FF00
61C0
60C0
6060
6060
F860
6060
6060
60C0
61C0
FF00
ENDCHAR
STARTCHAR Ncommaaccent
ENCODING 209
SWIDTH 833 0
DWIDTH 12 0
BBX 11 17 0 -6
BITMAP
E0E0
7040
7840
5C40
4C40
4640
4740
43C0
41C0
40C0
E040
0000
0600
0600
0600
0200
0400
ENDCHAR
STARTCHAR Omacron
ENCODING 210
SWIDTH 833 0
DWIDTH 12 0
BBX 11 13 0 0
BITMAP
1F00
0000
1F00
71C0
60C0
C060
C060
C060
C060
C060
60C0
71C0
1F00
ENDCHAR
STARTCHAR Oacute
ENCODING 211
SWIDTH 833 0
DWIDTH 12 0
BBX 11 15 0 0
BITMAP
00C0
0180
0200
0000
1F00
71C0
60C0
C060
C060
C060
C060
C060
60C0
71C0
1F00
ENDCHAR
STARTCHAR Ocircumflex
ENCODING 212
SWIDTH 833 0
DWIDTH 12 0
BBX 11 15 0 0
BITMAP
0400
0E00
1100
0000
1F00
71C0
60C0
C060
C060
C060
C060
C060
60C0
71C0
1F00
ENDCHAR
STARTCHAR Otilde
ENCODING 213
SWIDTH 833 0
DWIDTH 12 0
BBX 11 14 0 0
BITMAP
0E80
1700
0000
1F00
71C0
60C0
C060
C060
C060
C060
C060
60C0
71C0
1F00
ENDCHAR
STARTCHAR Odieresis
ENCODING 214
SWIDTH 833 0
DWIDTH 12 0
BBX 11 14 0 0
BITMAP
1980
1980
0000
1F00
71C0
60C0
C060
C060
C060
C060
C060
60C0
71C0
1F00
ENDCHAR
STARTCHAR Utilde
ENCODING 215
SWIDTH 833 0
DWIDTH 12 0
BBX 11 14 0 0
BITMAP
0D00
1600
0000
F0E0
6040
6040
6040
6040
6040
6040
6040
6040
3080
1F00
ENDCHAR
STARTCHAR Oslash
ENCODING 216
SWIDTH 833 0
DWIDTH 12 0
BBX 11 11 0 0
BITMAP
1F20
71C0
60C0
C160
C260
C460
C860
D060
60C0
71C0
9F00
ENDCHAR
STARTCHAR Uogonek
ENCODING 217
SWIDTH 833 0
DWIDTH 12 0
BBX 11 14 0 -3
BITMAP
F0E0
6040
6040
6040
6040
6040
6040
6040
6040
3080
1F00
0400
0800
0E00
ENDCHAR
STARTCHAR Uacute
ENCODING 218
SWIDTH 833 0
DWIDTH 12 0
BBX 11 15 0 0
BITMAP
0180
0300
0400
0000
F0E0
6040
6040
6040
6040
6040
6040
6040
6040
3080
1F00
ENDCHAR
STARTCHAR Ucircumflex
ENCODING 219
SWIDTH 833 0
DWIDTH 12 0
BBX 11 15 0 0
BITMAP
0400
0E00
1100
0000
F0E0
6040
6040
6040
6040
6040
6040
6040
6040
3080
1F00
ENDCHAR
STARTCHAR Udieresis
ENCODING 220
SWIDTH 833 0
DWIDTH 12 0
BBX 11 14 0 0
BITMAP
1980
1980
0000
F0E0
6040
6040
6040
6040
6040
6040
6040
6040
3080
1F00
ENDCHAR
STARTCHAR Yacute
ENCODING 221
SWIDTH 722 0
DWIDTH 11 0
BBX 10 15 0 0
BITMAP
0180
0300
0400
0000
F1C0
6080
3100
3100
1A00
1A00
0C00
0C00
0C00
0C00
1E00
ENDCHAR
STARTCHAR Thorn
ENCODING 222
SWIDTH 759 0
DWIDTH 10 0
BBX 9 11 0 0
BITMAP
F000
6000
7F00
6380
6180
6180
6380
7E00
6000
6000
F000
ENDCHAR
STARTCHAR germandbls
ENCODING 223
SWIDTH 611 0
DWIDTH 9 0
BBX 8 11 0 0
BITMAP
1E
23
63
62
6C
62
63
63
63
63
EE
ENDCHAR
STARTCHAR amacron
ENCODING 224
SWIDTH 611 0
DWIDTH 9 0
BBX 8 9 0 0
BITMAP
3E
00
3C
66
06
3E
C6
CE
77
ENDCHAR
STARTCHAR aacute
ENCODING 225
SWIDTH 611 0
DWIDTH 9 0
BBX 8 11 0 0
BITMAP
0C
18
20
00
3C
66
06
3E
C6
CE
77
ENDCHAR
STARTCHAR acircumflex
ENCODING 226
SWIDTH 611 0
DWIDTH 9 0
BBX 8 11 0 0
BITMAP
10
38
6C
00
3C
66
06
3E
C6
CE
77
ENDCHAR
STARTCHAR atilde
ENCODING 227
SWIDTH 611 0
DWIDTH 9 0
BBX 8 10 0 0
BITMAP
34
58
00
3C
66
06
3E
C6
CE
77
ENDCHAR
STARTCHAR adieresis
ENCODING 228
SWIDTH 611 0
DWIDTH 9 0
BBX 8 10 0 0
BITMAP
6C
6C
00
3C
66
06
3E
C6
CE
77
ENDCHAR
STARTCHAR aring
ENCODING 229
SWIDTH 611 0
DWIDTH 9 0
BBX 8 11 0 0
BITMAP
18
24
18
00
3C
66
06
3E
C6
CE
77
ENDCHAR
STARTCHAR ae
ENCODING 230
SWIDTH 870 0
DWIDTH 14 0
BBX 13 7 0 0
BITMAP
39E0
6730
0618
3FF8
C600
C718
79F0
ENDCHAR
STARTCHAR iogonek
ENCODING 231
SWIDTH 370 0
DWIDTH 5 0
BBX 4 13 0 -3
BITMAP
60
60
00
E0
60
60
60
60
60
F0
20
40
70
ENDCHAR
STARTCHAR ccaron
ENCODING 232
SWIDTH 556 0
DWIDTH 8 0
BBX 7 11 0 0
BITMAP
6C
38
10
00
3C
66
C6
C0
C2
66
3C
ENDCHAR
STARTCHAR eacute
ENCODING 233
SWIDTH 574 0
DWIDTH 9 0
BBX 8 11 0 0
BITMAP
0C
18
20
00
3C
66
C3
FF
C0
63
3E
ENDCHAR
STARTCHAR eogonek
ENCODING 234
SWIDTH 574 0
DWIDTH 9 0
BBX 8 10 0 -3
BITMAP
3C
66
C3
FF
C0
63
3E
08
10
1C
ENDCHAR
STARTCHAR edieresis
ENCODING 235
SWIDTH 574 0
DWIDTH 9 0
BBX 8 10 0 0
BITMAP
6C
6C
00
3C
66
C3
FF
C0
63
3E
ENDCHAR
STARTCHAR edotaccent
ENCODING 236
SWIDTH 574 0
DWIDTH 9 0
BBX 8 10 0 0
BITMAP
18
18
00
3C
66
C3
FF
C0
63
3E
ENDCHAR
STARTCHAR iacute
ENCODING 237
SWIDTH 370 0
DWIDTH 5 0
BBX 4 11 0 0
BITMAP
30
60
80
00
E0
60
60
60
60
60
F0
ENDCHAR
STARTCHAR icircumflex
ENCODING 238
SWIDTH 370 0
DWIDTH 5 0
BBX 5 11 0 0
BITMAP
20
70
D8
00
E0
60
60
60
60
60
F0
ENDCHAR
STARTCHAR idieresis
ENCODING 239
SWIDTH 370 0
DWIDTH 5 0
BBX 5 10 0 0
BITMAP
D8
D8
00
E0
60
60
60
60
60
F0
ENDCHAR
STARTCHAR eth
ENCODING 240
SWIDTH 611 0
DWIDTH 9 0
BBX 8 11 0 0
BITMAP
C6
38
78
8C
3E
66
C3
C3
C3
66
3C
ENDCHAR
STARTCHAR ncommaaccent
ENCODING 241
SWIDTH 685 0
DWIDTH 10 0
BBX 9 13 0 -6
BITMAP
EE00
7300
6300
6300
6300
6300
F780
0000
0C00
0C00
0C00
0400
0800
ENDCHAR
STARTCHAR omacron
ENCODING 242
SWIDTH 611 0
DWIDTH 9 0
BBX 8 9 0 0
BITMAP
3E
00
3C
66
C3
C3
C3
66
3C
ENDCHAR
STARTCHAR oacute
ENCODING 243
SWIDTH 611 0
DWIDTH 9 0
BBX 8 11 0 0
BITMAP
0C
18
20
00
3C
66
C3
C3
C3
66
3C
ENDCHAR
STARTCHAR ocircumflex
ENCODING 244
SWIDTH 611 0
DWIDTH 9 0
BBX 8 11 0 0
BITMAP
10
38
6C
00
3C
66
C3
C3
C3
66
3C
ENDCHAR
STARTCHAR otilde
ENCODING 245
SWIDTH 611 0
DWIDTH 9 0
BBX 8 10 0 0
BITMAP
34
58
00
3C
66
C3
C3
C3
66
3C
ENDCHAR
STARTCHAR odieresis
ENCODING 246
SWIDTH 611 0
DWIDTH 9 0
BBX 8 10 0 0
BITMAP
6C
6C
00
3C
66
C3
C3
C3
66
3C
ENDCHAR
STARTCHAR utilde
ENCODING 247
SWIDTH 685 0
DWIDTH 10 0
BBX 9 10 0 0
BITMAP
1A00
2C00
0000
E700
6300
6300
6300
6300
6700
3B80
ENDCHAR
STARTCHAR oslash
ENCODING 248
SWIDTH 611 0
DWIDTH 9 0
BBX 8 9 0 -1
BITMAP
02
3C
6E
CB
D3
D3
66
3C
40
ENDCHAR
STARTCHAR uogonek
ENCODING 249
SWIDTH 685 0
DWIDTH 10 0
BBX 9 10 0 -3
BITMAP
E700
6300
6300
6300
6300
6700
3B80
0800
1000
1C00
ENDCHAR
STARTCHAR uacute
ENCODING 250
SWIDTH 685 0
DWIDTH 10 0
BBX 9 11 0 0
BITMAP
0C00
1800
2000
0000
F780
6300
6300
6300
6300
6700
3B80
ENDCHAR
STARTCHAR ucircumflex
ENCODING 251
SWIDTH 685 0
DWIDTH 10 0
BBX 9 11 0 0
BITMAP
0800
1C00
3600
0000
F780
6300
6300
6300
6300
6700
3B80
ENDCHAR
STARTCHAR udieresis
ENCODING 252
SWIDTH 685 0
DWIDTH 10 0
BBX 9 10 0 0
BITMAP
3600
3600
0000
F780
6300
6300
6300
6300
6700
3B80
ENDCHAR
STARTCHAR yacute
ENCODING 253
SWIDTH 611 0
DWIDTH 7 0
BBX 8 14 -1 -3
BITMAP
06
0C
10
00
F7
62
62
34
34
18
18
10
D0
E0
ENDCHAR
STARTCHAR thorn
ENCODING 254
SWIDTH 667 0
DWIDTH 10 0
BBX 9 14 0 -3
BITMAP
E000
6000
6000
6000
6E00
7300
6180
6180
6180
7300
6E00
6000
6000
F000
ENDCHAR
STARTCHAR kgreenlandic
ENCODING 255
SWIDTH 667 0
DWIDTH 9 0
BBX 8 7 0 0
BITMAP
67
66
6C
78
6C
66
E7
ENDCHAR
ENDFONT
