STARTFONT 2.1
COMMENT AUTOMATICALLY GENERATED FILE. DO NOT EDIT!
COMMENT Generated with 'ucs2any ncenB14.bdf /usr/local/share/fonts/X11/util/map-ISO8859-2 ISO8859-2'
COMMENT from an ISO10646-1 encoded source BDF font.
COMMENT ucs2any by Ben Collver <collver1@attbi.com>, 2003, based on
COMMENT ucs2any.pl by Markus Kuhn <http://www.cl.cam.ac.uk/~mgk25/>, 2000.
FONT -Adobe-New Century Schoolbook-Bold-R-Normal--20-140-100-100-P-113-ISO8859-2
SIZE 14 100 100
FONTBOUNDINGBOX 22 23 -3 -4
COMMENT ISO10646-1 extension by Markus Kuhn <mkuhn@acm.org>, 2001-03-20
COMMENT
COMMENT +
COMMENT  Copyright 1984-1989, 1994 Adobe Systems Incorporated.
COMMENT  Copyright 1988, 1994 Digital Equipment Corporation.
COMMENT
COMMENT  Adobe is a trademark of Adobe Systems Incorporated which may be
COMMENT  registered in certain jurisdictions.
COMMENT  Permission to use these trademarks is hereby granted only in
COMMENT  association with the images described in this file.
COMMENT
COMMENT  Permission to use, copy, modify, distribute and sell this software
COMMENT  and its documentation for any purpose and without fee is hereby
COMMENT  granted, provided that the above copyright notices appear in all
COMMENT  copies and that both those copyright notices and this permission
COMMENT  notice appear in supporting documentation, and that the names of
COMMENT  Adobe Systems and Digital Equipment Corporation not be used in
COMMENT  advertising or publicity pertaining to distribution of the software
COMMENT  without specific, written prior permission.  Adobe Systems and
COMMENT  Digital Equipment Corporation make no representations about the
COMMENT  suitability of this software for any purpose.  It is provided "as
COMMENT  is" without express or implied warranty.
COMMENT -
STARTPROPERTIES 26
FOUNDRY "Adobe"
FAMILY_NAME "New Century Schoolbook"
WEIGHT_NAME "Bold"
SLANT "R"
SETWIDTH_NAME "Normal"
ADD_STYLE_NAME ""
PIXEL_SIZE 20
POINT_SIZE 140
RESOLUTION_X 100
RESOLUTION_Y 100
SPACING "P"
AVERAGE_WIDTH 113
CHARSET_REGISTRY "ISO8859"
CHARSET_ENCODING "2"
CAP_HEIGHT 14
X_HEIGHT 9
FONT_ASCENT 17
FONT_DESCENT 4
FACE_NAME "New Century Schoolbook Bold"
COPYRIGHT "Copyright (c) 1984, 1987 Adobe Systems Incorporated. All Rights Reserved. Copyright (c) 1988, 1991 Digital Equipment Corporation. All Rights Reserved."
NOTICE "New Century Schoolbook is a trademark of Linotype-Hell AG and/or its subsidiaries."
_DEC_DEVICE_FONTNAMES "PS=NewCenturySchlbk-Bold"
DEFAULT_CHAR 0
RELATIVE_SETWIDTH 50
RELATIVE_WEIGHT 70
FULL_NAME "New Century Schoolbook Bold"
ENDPROPERTIES
CHARS 192
STARTCHAR defaultchar
ENCODING 0
SWIDTH 870 0
DWIDTH 16 0
BBX 13 13 0 0
BITMAP
AAA8
0000
8008
0000
8008
0000
8008
0000
8008
0000
8008
0000
AAA8
ENDCHAR
STARTCHAR space
ENCODING 32
SWIDTH 287 0
DWIDTH 5 0
BBX 1 1 0 0
BITMAP
00
ENDCHAR
STARTCHAR exclam
ENCODING 33
SWIDTH 296 0
DWIDTH 6 0
BBX 4 14 1 0
BITMAP
60
F0
F0
F0
F0
F0
60
60
60
00
60
F0
F0
60
ENDCHAR
STARTCHAR quotedbl
ENCODING 34
SWIDTH 333 0
DWIDTH 8 0
BBX 5 5 1 9
BITMAP
D8
D8
D8
D8
D8
ENDCHAR
STARTCHAR numbersign
ENCODING 35
SWIDTH 574 0
DWIDTH 12 0
BBX 11 12 0 1
BITMAP
0D80
0D80
0D80
7FE0
7FE0
1B00
1B00
FFC0
FFC0
3600
3600
3600
ENDCHAR
STARTCHAR dollar
ENCODING 36
SWIDTH 574 0
DWIDTH 11 0
BBX 9 18 1 -2
BITMAP
0800
0800
3E00
6B80
CB80
C980
E800
FC00
FF00
7F80
1F80
0B80
C980
E980
EB00
3E00
0800
0800
ENDCHAR
STARTCHAR percent
ENCODING 37
SWIDTH 833 0
DWIDTH 15 0
BBX 14 15 0 -1
BITMAP
38C0
6740
C4C0
C480
C580
C900
7300
0238
0664
04C4
0CC4
08C4
18C8
1070
1000
ENDCHAR
STARTCHAR ampersand
ENCODING 38
SWIDTH 852 0
DWIDTH 17 0
BBX 16 14 1 0
BITMAP
0780
0CC0
18C0
18C0
1D80
1F00
0E3E
3F18
7790
E3E0
E1E0
E0F1
F1FE
7F1C
ENDCHAR
STARTCHAR quotesingle
ENCODING 39
SWIDTH 241 0
DWIDTH 5 0
BBX 2 5 1 9
BITMAP
C0
C0
C0
C0
C0
ENDCHAR
STARTCHAR parenleft
ENCODING 40
SWIDTH 389 0
DWIDTH 6 0
BBX 5 16 0 -2
BITMAP
18
30
70
60
E0
C0
C0
C0
C0
C0
C0
E0
60
70
30
18
ENDCHAR
STARTCHAR parenright
ENCODING 41
SWIDTH 389 0
DWIDTH 6 0
BBX 5 16 0 -2
BITMAP
C0
60
70
30
38
18
18
18
18
18
18
38
30
70
60
C0
ENDCHAR
STARTCHAR asterisk
ENCODING 42
SWIDTH 500 0
DWIDTH 8 0
BBX 7 7 0 7
BITMAP
38
92
D6
38
D6
92
38
ENDCHAR
STARTCHAR plus
ENCODING 43
SWIDTH 606 0
DWIDTH 11 0
BBX 10 10 0 0
BITMAP
0C00
0C00
0C00
0C00
FFC0
FFC0
0C00
0C00
0C00
0C00
ENDCHAR
STARTCHAR comma
ENCODING 44
SWIDTH 278 0
DWIDTH 5 0
BBX 4 7 0 -3
BITMAP
60
F0
F0
70
20
40
80
ENDCHAR
STARTCHAR hyphen
ENCODING 45
SWIDTH 333 0
DWIDTH 6 0
BBX 5 3 0 3
BITMAP
F8
F8
F8
ENDCHAR
STARTCHAR period
ENCODING 46
SWIDTH 278 0
DWIDTH 5 0
BBX 4 4 0 0
BITMAP
60
F0
F0
60
ENDCHAR
STARTCHAR slash
ENCODING 47
SWIDTH 278 0
DWIDTH 7 0
BBX 6 14 0 0
BITMAP
0C
0C
08
18
18
10
30
30
20
60
60
40
C0
C0
ENDCHAR
STARTCHAR zero
ENCODING 48
SWIDTH 574 0
DWIDTH 11 0
BBX 9 14 1 0
BITMAP
1C00
7700
6300
E380
E380
E380
E380
E380
E380
E380
E380
6300
7700
1C00
ENDCHAR
STARTCHAR one
ENCODING 49
SWIDTH 574 0
DWIDTH 11 0
BBX 7 14 2 0
BITMAP
18
38
F8
38
38
38
38
38
38
38
38
38
38
FE
ENDCHAR
STARTCHAR two
ENCODING 50
SWIDTH 574 0
DWIDTH 11 0
BBX 9 14 1 0
BITMAP
1E00
6700
E380
E380
6380
0380
0700
0700
0E00
1800
3000
6080
FF80
FF80
ENDCHAR
STARTCHAR three
ENCODING 51
SWIDTH 574 0
DWIDTH 11 0
BBX 9 14 1 0
BITMAP
1E00
6700
E380
E380
6380
0300
1C00
0300
0380
6380
E380
E380
6700
3E00
ENDCHAR
STARTCHAR four
ENCODING 52
SWIDTH 574 0
DWIDTH 11 0
BBX 9 14 1 0
BITMAP
0100
0300
0700
0F00
0F00
1700
2700
4700
4700
8700
FF80
0700
0700
0F80
ENDCHAR
STARTCHAR five
ENCODING 53
SWIDTH 574 0
DWIDTH 11 0
BBX 9 14 1 0
BITMAP
7F80
7F00
4000
4000
4000
7E00
4700
0380
0380
6380
E380
E380
6700
3E00
ENDCHAR
STARTCHAR six
ENCODING 54
SWIDTH 574 0
DWIDTH 11 0
BBX 9 14 1 0
BITMAP
1F00
7380
6380
E300
E000
EE00
F700
E380
E380
E380
E380
6380
7300
1C00
ENDCHAR
STARTCHAR seven
ENCODING 55
SWIDTH 574 0
DWIDTH 11 0
BBX 9 14 1 0
BITMAP
FF80
FF80
8180
8300
0600
0600
0C00
0C00
1C00
1C00
3800
3800
3800
3800
ENDCHAR
STARTCHAR eight
ENCODING 56
SWIDTH 574 0
DWIDTH 11 0
BBX 9 14 1 0
BITMAP
1C00
6300
C180
C180
E180
FB00
7E00
3F00
4F80
C380
C180
C180
E300
3C00
ENDCHAR
STARTCHAR nine
ENCODING 57
SWIDTH 574 0
DWIDTH 11 0
BBX 9 14 1 0
BITMAP
1C00
6700
E300
E380
E380
E380
E380
7780
3B80
0380
6380
E300
E700
7C00
ENDCHAR
STARTCHAR colon
ENCODING 58
SWIDTH 278 0
DWIDTH 6 0
BBX 4 9 1 0
BITMAP
60
F0
F0
60
00
60
F0
F0
60
ENDCHAR
STARTCHAR semicolon
ENCODING 59
SWIDTH 278 0
DWIDTH 6 0
BBX 4 12 1 -3
BITMAP
60
F0
F0
60
00
60
F0
F0
70
20
40
80
ENDCHAR
STARTCHAR less
ENCODING 60
SWIDTH 606 0
DWIDTH 11 0
BBX 10 10 0 0
BITMAP
00C0
03C0
0F00
3C00
F000
F000
3C00
0F00
03C0
00C0
ENDCHAR
STARTCHAR equal
ENCODING 61
SWIDTH 606 0
DWIDTH 11 0
BBX 9 6 1 2
BITMAP
FF80
FF80
0000
0000
FF80
FF80
ENDCHAR
STARTCHAR greater
ENCODING 62
SWIDTH 606 0
DWIDTH 11 0
BBX 10 10 0 0
BITMAP
C000
F000
3C00
0F00
03C0
03C0
0F00
3C00
F000
C000
ENDCHAR
STARTCHAR question
ENCODING 63
SWIDTH 500 0
DWIDTH 10 0
BBX 9 14 0 0
BITMAP
1F00
6780
E380
E380
6380
0300
0600
0C00
1800
0000
1800
3C00
3C00
1800
ENDCHAR
STARTCHAR at
ENCODING 64
SWIDTH 747 0
DWIDTH 16 0
BBX 15 14 0 0
BITMAP
07F0
1C0C
3004
63E6
6666
CC66
CC66
D8CC
D8CC
D9D8
CEF0
6008
7030
1FE0
ENDCHAR
STARTCHAR A
ENCODING 65
SWIDTH 759 0
DWIDTH 14 0
BBX 14 14 -1 0
BITMAP
0100
0180
0380
03C0
05C0
04C0
08E0
08E0
1070
1FF0
2070
2038
6038
F07C
ENDCHAR
STARTCHAR B
ENCODING 66
SWIDTH 778 0
DWIDTH 14 0
BBX 12 14 0 0
BITMAP
FFC0
71E0
70E0
70E0
70E0
71C0
7F80
70E0
7070
7070
7070
7070
70E0
FF80
ENDCHAR
STARTCHAR C
ENCODING 67
SWIDTH 778 0
DWIDTH 14 0
BBX 12 14 0 0
BITMAP
0F90
3CF0
7030
7030
E010
E010
E000
E000
E000
E010
7010
7020
3C60
0F80
ENDCHAR
STARTCHAR D
ENCODING 68
SWIDTH 833 0
DWIDTH 16 0
BBX 14 14 0 0
BITMAP
FFC0
70F0
7038
7038
701C
701C
701C
701C
701C
701C
7038
7038
70F0
FFC0
ENDCHAR
STARTCHAR E
ENCODING 69
SWIDTH 759 0
DWIDTH 13 0
BBX 11 14 0 0
BITMAP
FFE0
70E0
7060
7120
7120
7300
7F00
7300
7100
7120
7020
7060
70E0
FFE0
ENDCHAR
STARTCHAR F
ENCODING 70
SWIDTH 722 0
DWIDTH 13 0
BBX 11 14 0 0
BITMAP
FFE0
70E0
7060
7120
7120
7300
7F00
7300
7100
7100
7000
7000
7000
FC00
ENDCHAR
STARTCHAR G
ENCODING 71
SWIDTH 833 0
DWIDTH 15 0
BBX 13 14 0 0
BITMAP
0F90
3CF0
7030
7030
E010
E010
E000
E000
E0F8
E070
7070
7070
3CF0
0F90
ENDCHAR
STARTCHAR H
ENCODING 72
SWIDTH 870 0
DWIDTH 16 0
BBX 14 14 0 0
BITMAP
F87C
7038
7038
7038
7038
7038
7FF8
7038
7038
7038
7038
7038
7038
F87C
ENDCHAR
STARTCHAR I
ENCODING 73
SWIDTH 444 0
DWIDTH 9 0
BBX 5 14 1 0
BITMAP
F8
70
70
70
70
70
70
70
70
70
70
70
70
F8
ENDCHAR
STARTCHAR J
ENCODING 74
SWIDTH 648 0
DWIDTH 12 0
BBX 10 14 -1 0
BITMAP
07C0
0380
0380
0380
0380
0380
0380
0380
6380
F380
F380
C380
6700
3C00
ENDCHAR
STARTCHAR K
ENCODING 75
SWIDTH 815 0
DWIDTH 16 0
BBX 14 14 0 0
BITMAP
F8F8
7060
70C0
7180
7300
7600
7E00
7F00
7780
73C0
71E0
70F0
7078
F8FC
ENDCHAR
STARTCHAR L
ENCODING 76
SWIDTH 722 0
DWIDTH 12 0
BBX 10 14 0 0
BITMAP
F800
7000
7000
7000
7000
7000
7000
7000
7000
7040
7040
70C0
71C0
FFC0
ENDCHAR
STARTCHAR M
ENCODING 77
SWIDTH 981 0
DWIDTH 19 0
BBX 17 14 0 0
BITMAP
FC0F80
3C0F00
3E0F00
2E1700
271700
271700
272700
23A700
23A700
23C700
21C700
21C700
708700
F88F80
ENDCHAR
STARTCHAR N
ENCODING 78
SWIDTH 833 0
DWIDTH 16 0
BBX 14 14 0 0
BITMAP
F07C
7838
3C10
3C10
3E10
2F10
2790
23D0
21F0
20F0
20F0
2070
7030
F810
ENDCHAR
STARTCHAR O
ENCODING 79
SWIDTH 833 0
DWIDTH 16 0
BBX 14 14 0 0
BITMAP
0FC0
3CF0
7038
7038
E01C
E01C
E01C
E01C
E01C
E01C
7038
7038
3CF0
0FC0
ENDCHAR
STARTCHAR P
ENCODING 80
SWIDTH 759 0
DWIDTH 14 0
BBX 12 14 0 0
BITMAP
FF80
71E0
70F0
70F0
70F0
70F0
71E0
7F80
7000
7000
7000
7000
7000
F800
ENDCHAR
STARTCHAR Q
ENCODING 81
SWIDTH 833 0
DWIDTH 16 0
BBX 14 18 0 -4
BITMAP
0FC0
3CF0
7038
7038
E01C
E01C
E01C
E01C
E01C
EF1C
7398
71B8
3DF0
0FC0
00C0
00E8
00F8
0070
ENDCHAR
STARTCHAR R
ENCODING 82
SWIDTH 815 0
DWIDTH 16 0
BBX 13 14 0 0
BITMAP
FFE0
70F0
7070
7070
7070
70E0
7F80
71C0
71C0
71E0
70E0
70E0
70E8
F870
ENDCHAR
STARTCHAR S
ENCODING 83
SWIDTH 667 0
DWIDTH 12 0
BBX 10 14 0 0
BITMAP
1E80
7380
E180
E080
F000
FC00
7F00
1F80
07C0
83C0
81C0
C1C0
F380
9F00
ENDCHAR
STARTCHAR T
ENCODING 84
SWIDTH 722 0
DWIDTH 13 0
BBX 11 14 0 0
BITMAP
FFE0
CE60
8E20
8E20
8E20
0E00
0E00
0E00
0E00
0E00
0E00
0E00
0E00
1F00
ENDCHAR
STARTCHAR U
ENCODING 85
SWIDTH 833 0
DWIDTH 16 0
BBX 14 14 0 0
BITMAP
F87C
7038
7010
7010
7010
7010
7010
7010
7010
7010
7010
7010
3860
0FC0
ENDCHAR
STARTCHAR V
ENCODING 86
SWIDTH 759 0
DWIDTH 14 0
BBX 15 14 -1 0
BITMAP
FC3E
781C
3808
3C10
1C10
1C10
0E20
0E20
0740
0740
0380
0380
0100
0100
ENDCHAR
STARTCHAR W
ENCODING 87
SWIDTH 981 0
DWIDTH 19 0
BBX 20 14 -1 0
BITMAP
FDF9F0
78F0E0
387040
3C7880
1C7880
1C7880
1EBD00
0E9D00
0E9D00
0F1E00
070E00
070E00
020400
020400
ENDCHAR
STARTCHAR X
ENCODING 88
SWIDTH 722 0
DWIDTH 17 0
BBX 15 14 0 0
BITMAP
7E7C
3C38
1E30
0E60
0FC0
0780
03C0
07C0
07E0
0CF0
1870
3878
703C
F87E
ENDCHAR
STARTCHAR Y
ENCODING 89
SWIDTH 722 0
DWIDTH 15 0
BBX 13 14 0 0
BITMAP
FC78
7830
3820
3C60
1C40
1E80
0F80
0700
0700
0700
0700
0700
0700
1FC0
ENDCHAR
STARTCHAR Z
ENCODING 90
SWIDTH 667 0
DWIDTH 13 0
BBX 12 14 0 0
BITMAP
FFF0
E070
C0E0
81E0
83C0
0780
0700
0F00
1E00
3C10
7810
7030
E070
FFF0
ENDCHAR
STARTCHAR bracketleft
ENCODING 91
SWIDTH 389 0
DWIDTH 6 0
BBX 4 16 1 -2
BITMAP
F0
C0
C0
C0
C0
C0
C0
C0
C0
C0
C0
C0
C0
C0
C0
F0
ENDCHAR
STARTCHAR backslash
ENCODING 92
SWIDTH 606 0
DWIDTH 9 0
BBX 8 14 0 0
BITMAP
C0
C0
60
60
30
30
18
18
0C
0C
06
06
03
03
ENDCHAR
STARTCHAR bracketright
ENCODING 93
SWIDTH 389 0
DWIDTH 6 0
BBX 4 16 0 -2
BITMAP
F0
30
30
30
30
30
30
30
30
30
30
30
30
30
30
F0
ENDCHAR
STARTCHAR asciicircum
ENCODING 94
SWIDTH 606 0
DWIDTH 9 0
BBX 8 8 0 6
BITMAP
18
18
3C
3C
66
66
C3
C3
ENDCHAR
STARTCHAR underscore
ENCODING 95
SWIDTH 500 0
DWIDTH 9 0
BBX 9 2 0 -3
BITMAP
FF80
FF80
ENDCHAR
STARTCHAR grave
ENCODING 96
SWIDTH 333 0
DWIDTH 7 0
BBX 5 4 1 10
BITMAP
C0
E0
70
18
ENDCHAR
STARTCHAR a
ENCODING 97
SWIDTH 611 0
DWIDTH 11 0
BBX 10 9 0 0
BITMAP
7F00
E380
C380
0780
3B80
E380
E380
E780
79C0
ENDCHAR
STARTCHAR b
ENCODING 98
SWIDTH 648 0
DWIDTH 12 0
BBX 12 14 -1 0
BITMAP
F000
7000
7000
7000
7000
7780
78E0
7070
7070
7070
7070
7070
78E0
6F80
ENDCHAR
STARTCHAR c
ENCODING 99
SWIDTH 556 0
DWIDTH 10 0
BBX 9 9 0 0
BITMAP
1F00
7380
E180
E000
E000
E000
E080
7180
1E00
ENDCHAR
STARTCHAR d
ENCODING 100
SWIDTH 667 0
DWIDTH 13 0
BBX 12 14 0 0
BITMAP
01E0
00E0
00E0
00E0
00E0
1EE0
71E0
E0E0
E0E0
E0E0
E0E0
E0E0
71E0
1EF0
ENDCHAR
STARTCHAR e
ENCODING 101
SWIDTH 574 0
DWIDTH 11 0
BBX 10 9 0 0
BITMAP
1E00
7380
E1C0
E1C0
FFC0
E000
E040
70C0
1F00
ENDCHAR
STARTCHAR f
ENCODING 102
SWIDTH 389 0
DWIDTH 7 0
BBX 8 14 0 0
BITMAP
1E
37
77
70
70
FC
70
70
70
70
70
70
70
F8
ENDCHAR
STARTCHAR g
ENCODING 103
SWIDTH 611 0
DWIDTH 11 0
BBX 11 15 0 -4
BITMAP
0060
00E0
3F00
7380
6180
6180
7380
3F00
6000
7F80
3FC0
C1C0
C0C0
E180
7F00
ENDCHAR
STARTCHAR h
ENCODING 104
SWIDTH 685 0
DWIDTH 13 0
BBX 12 14 0 0
BITMAP
F000
7000
7000
7000
7000
77C0
79E0
70E0
70E0
70E0
70E0
70E0
70E0
F9F0
ENDCHAR
STARTCHAR i
ENCODING 105
SWIDTH 370 0
DWIDTH 6 0
BBX 5 14 0 0
BITMAP
70
70
70
00
00
F0
70
70
70
70
70
70
70
F8
ENDCHAR
STARTCHAR j
ENCODING 106
SWIDTH 352 0
DWIDTH 6 0
BBX 7 18 -3 -4
BITMAP
0E
0E
0E
00
00
1E
0E
0E
0E
0E
0E
0E
0E
0E
0E
EE
EC
78
ENDCHAR
STARTCHAR k
ENCODING 107
SWIDTH 667 0
DWIDTH 13 0
BBX 12 14 0 0
BITMAP
F000
7000
7000
7000
7000
73E0
7180
7200
7600
7F00
7780
73C0
71E0
FBF0
ENDCHAR
STARTCHAR l
ENCODING 108
SWIDTH 352 0
DWIDTH 6 0
BBX 5 14 0 0
BITMAP
F0
70
70
70
70
70
70
70
70
70
70
70
70
F8
ENDCHAR
STARTCHAR m
ENCODING 109
SWIDTH 963 0
DWIDTH 20 0
BBX 19 9 0 0
BITMAP
F7DF80
79F3C0
70E1C0
70E1C0
70E1C0
70E1C0
70E1C0
70E1C0
F9F3E0
ENDCHAR
STARTCHAR n
ENCODING 110
SWIDTH 685 0
DWIDTH 13 0
BBX 12 9 0 0
BITMAP
F7C0
79E0
70E0
70E0
70E0
70E0
70E0
70E0
F9F0
ENDCHAR
STARTCHAR o
ENCODING 111
SWIDTH 611 0
DWIDTH 12 0
BBX 11 9 0 0
BITMAP
1F00
71C0
E0E0
E0E0
E0E0
E0E0
E0E0
71C0
1F00
ENDCHAR
STARTCHAR p
ENCODING 112
SWIDTH 667 0
DWIDTH 12 0
BBX 12 13 -1 -4
BITMAP
E780
78E0
7070
7070
7070
7070
7070
78E0
7780
7000
7000
7000
F800
ENDCHAR
STARTCHAR q
ENCODING 113
SWIDTH 648 0
DWIDTH 12 0
BBX 12 13 0 -4
BITMAP
1E60
71E0
E0E0
E0E0
E0E0
E0E0
E0E0
71E0
1EE0
00E0
00E0
00E0
01F0
ENDCHAR
STARTCHAR r
ENCODING 114
SWIDTH 519 0
DWIDTH 9 0
BBX 8 9 0 0
BITMAP
F6
7B
73
70
70
70
70
70
F8
ENDCHAR
STARTCHAR s
ENCODING 115
SWIDTH 500 0
DWIDTH 10 0
BBX 9 9 0 0
BITMAP
3D00
6300
E100
FC00
7F00
0F80
8380
C300
BE00
ENDCHAR
STARTCHAR t
ENCODING 116
SWIDTH 426 0
DWIDTH 8 0
BBX 7 13 0 0
BITMAP
10
10
30
70
FC
70
70
70
70
70
72
72
3C
ENDCHAR
STARTCHAR u
ENCODING 117
SWIDTH 685 0
DWIDTH 13 0
BBX 12 9 0 0
BITMAP
F9E0
70E0
70E0
70E0
70E0
70E0
70E0
79E0
3EF0
ENDCHAR
STARTCHAR v
ENCODING 118
SWIDTH 611 0
DWIDTH 9 0
BBX 10 9 -1 0
BITMAP
F9C0
7080
7080
3900
3900
1E00
1E00
0C00
0C00
ENDCHAR
STARTCHAR w
ENCODING 119
SWIDTH 889 0
DWIDTH 15 0
BBX 16 9 -1 0
BITMAP
FBE7
71C2
71C2
39E4
39E4
1E78
1E78
0C30
0C30
ENDCHAR
STARTCHAR x
ENCODING 120
SWIDTH 611 0
DWIDTH 12 0
BBX 11 9 0 0
BITMAP
FDE0
78C0
3D80
1F00
0E00
1F00
3780
63C0
F7E0
ENDCHAR
STARTCHAR y
ENCODING 121
SWIDTH 611 0
DWIDTH 12 0
BBX 11 13 0 -4
BITMAP
F8E0
7040
7040
3880
3880
1D00
1D00
0E00
0E00
0400
C400
E800
7000
ENDCHAR
STARTCHAR z
ENCODING 122
SWIDTH 537 0
DWIDTH 10 0
BBX 9 9 0 0
BITMAP
FF80
C780
8F00
1E00
3C00
7880
F080
E180
FF80
ENDCHAR
STARTCHAR braceleft
ENCODING 123
SWIDTH 389 0
DWIDTH 6 0
BBX 5 16 0 -2
BITMAP
18
30
70
70
70
70
60
C0
60
70
70
70
70
70
30
18
ENDCHAR
STARTCHAR bar
ENCODING 124
SWIDTH 606 0
DWIDTH 11 0
BBX 2 14 4 0
BITMAP
C0
C0
C0
C0
C0
C0
C0
C0
C0
C0
C0
C0
C0
C0
ENDCHAR
STARTCHAR braceright
ENCODING 125
SWIDTH 389 0
DWIDTH 6 0
BBX 5 16 0 -2
BITMAP
C0
60
70
70
70
70
30
18
30
70
70
70
70
70
60
C0
ENDCHAR
STARTCHAR asciitilde
ENCODING 126
SWIDTH 606 0
DWIDTH 12 0
BBX 10 3 1 4
BITMAP
39C0
7F80
E700
ENDCHAR
STARTCHAR space
ENCODING 160
SWIDTH 287 0
DWIDTH 5 0
BBX 1 1 0 0
BITMAP
00
ENDCHAR
STARTCHAR Aogonek
ENCODING 161
SWIDTH 759 0
DWIDTH 14 0
BBX 14 18 -1 -4
BITMAP
0100
0180
0380
03C0
05C0
04C0
08E0
08E0
1070
1FF0
2070
2038
6038
F07C
0180
0300
0340
0180
ENDCHAR
STARTCHAR breve
ENCODING 162
SWIDTH 333 0
DWIDTH 8 0
BBX 6 3 1 10
BITMAP
84
CC
78
ENDCHAR
STARTCHAR Lslash
ENCODING 163
SWIDTH 722 0
DWIDTH 12 0
BBX 12 14 -1 0
BITMAP
7E00
3C00
3C00
3C00
3D00
3E00
3C00
3C00
7C00
BC10
3C10
3C30
3C70
7FF0
ENDCHAR
STARTCHAR currency
ENCODING 164
SWIDTH 606 0
DWIDTH 10 0
BBX 9 9 0 2
BITMAP
DD80
FF80
6300
C180
C180
C180
6300
FF80
DD80
ENDCHAR
STARTCHAR Lcaron
ENCODING 165
SWIDTH 927 0
DWIDTH 16 0
BBX 15 14 0 0
BITMAP
F80C
701E
701E
700E
7004
7008
7010
7000
7000
7040
7040
70C0
71C0
FFC0
ENDCHAR
STARTCHAR Sacute
ENCODING 166
SWIDTH 667 0
DWIDTH 12 0
BBX 10 19 0 0
BITMAP
0300
0700
0E00
1800
0000
1E80
7380
E180
E080
F000
FC00
7F00
1F80
07C0
83C0
81C0
C1C0
F380
9F00
ENDCHAR
STARTCHAR section
ENCODING 167
SWIDTH 500 0
DWIDTH 8 0
BBX 7 16 0 -2
BITMAP
78
CC
8C
C0
70
7C
9E
86
C2
F2
7C
1C
04
C4
CC
78
ENDCHAR
STARTCHAR dieresis
ENCODING 168
SWIDTH 333 0
DWIDTH 10 0
BBX 6 2 2 11
BITMAP
CC
CC
ENDCHAR
STARTCHAR Scaron
ENCODING 169
SWIDTH 667 0
DWIDTH 12 0
BBX 10 14 0 0
BITMAP
6180
3300
1E00
0C00
0000
3F80
7180
7880
7E00
3F00
0F80
83C0
C780
BF00
ENDCHAR
STARTCHAR Scedilla
ENCODING 170
SWIDTH 667 0
DWIDTH 12 0
BBX 10 18 0 -4
BITMAP
1E80
7380
E180
E080
F000
FC00
7F00
1F80
07C0
83C0
81C0
C1C0
F380
9F00
0800
0E00
0600
1C00
ENDCHAR
STARTCHAR Tcaron
ENCODING 171
SWIDTH 722 0
DWIDTH 13 0
BBX 11 19 0 0
BITMAP
30C0
1980
0F00
0600
0000
FFE0
CE60
8E20
8E20
8E20
0E00
0E00
0E00
0E00
0E00
0E00
0E00
0E00
1F00
ENDCHAR
STARTCHAR Zacute
ENCODING 172
SWIDTH 667 0
DWIDTH 13 0
BBX 12 19 0 0
BITMAP
0180
0380
0700
0C00
0000
FFF0
E070
C0E0
81E0
83C0
0780
0700
0F00
1E00
3C10
7810
7030
E070
FFF0
ENDCHAR
STARTCHAR hyphen
ENCODING 173
SWIDTH 333 0
DWIDTH 6 0
BBX 5 3 0 3
BITMAP
F8
F8
F8
ENDCHAR
STARTCHAR Zcaron
ENCODING 174
SWIDTH 667 0
DWIDTH 13 0
BBX 12 14 0 0
BITMAP
30C0
1980
0F00
0600
0000
FFF0
C1E0
83C0
0780
0F10
1E10
3C30
7870
FFF0
ENDCHAR
STARTCHAR Zdotaccent
ENCODING 175
SWIDTH 667 0
DWIDTH 13 0
BBX 12 17 0 0
BITMAP
0600
0600
0000
FFF0
E070
C0E0
81E0
83C0
0780
0700
0F00
1E00
3C10
7810
7030
E070
FFF0
ENDCHAR
STARTCHAR degree
ENCODING 176
SWIDTH 400 0
DWIDTH 7 0
BBX 6 6 0 8
BITMAP
78
CC
84
84
CC
78
ENDCHAR
STARTCHAR aogonek
ENCODING 177
SWIDTH 611 0
DWIDTH 11 0
BBX 10 13 0 -4
BITMAP
7F00
E380
C380
0780
3B80
E380
E380
E780
79C0
0C00
1800
1A00
0C00
ENDCHAR
STARTCHAR ogonek
ENCODING 178
SWIDTH 333 0
DWIDTH 6 0
BBX 4 4 1 -4
BITMAP
60
C0
D0
60
ENDCHAR
STARTCHAR lslash
ENCODING 179
SWIDTH 352 0
DWIDTH 6 0
BBX 6 14 0 0
BITMAP
F0
70
70
70
74
78
70
F0
70
70
70
70
70
F8
ENDCHAR
STARTCHAR acute
ENCODING 180
SWIDTH 333 0
DWIDTH 7 0
BBX 5 4 1 11
BITMAP
18
38
70
C0
ENDCHAR
STARTCHAR lcaron
ENCODING 181
SWIDTH 575 0
DWIDTH 11 0
BBX 10 14 0 0
BITMAP
F180
73C0
73C0
71C0
7080
7100
7200
7000
7000
7000
7000
7000
7000
F800
ENDCHAR
STARTCHAR sacute
ENCODING 182
SWIDTH 500 0
DWIDTH 10 0
BBX 9 14 0 0
BITMAP
0600
0E00
1C00
3000
0000
3D00
6300
E100
FC00
7F00
0F80
8380
C300
BE00
ENDCHAR
STARTCHAR caron
ENCODING 183
SWIDTH 333 0
DWIDTH 10 0
BBX 8 4 1 10
BITMAP
C3
66
3C
18
ENDCHAR
STARTCHAR cedilla
ENCODING 184
SWIDTH 333 0
DWIDTH 6 0
BBX 4 4 1 -4
BITMAP
40
70
30
E0
ENDCHAR
STARTCHAR scaron
ENCODING 185
SWIDTH 500 0
DWIDTH 10 0
BBX 9 14 0 0
BITMAP
C300
6600
3C00
1800
0000
3D00
6300
E100
FC00
7F00
0F80
8380
C300
BE00
ENDCHAR
STARTCHAR scedilla
ENCODING 186
SWIDTH 500 0
DWIDTH 10 0
BBX 9 13 0 -4
BITMAP
3D00
6300
E100
FC00
7F00
0F80
8380
C300
BE00
1000
1C00
0C00
3800
ENDCHAR
STARTCHAR tcaron
ENCODING 187
SWIDTH 646 0
DWIDTH 13 0
BBX 12 14 0 0
BITMAP
0060
10F0
10F0
3070
7020
FC40
7080
7000
7000
7000
7000
7200
7200
3C00
ENDCHAR
STARTCHAR zacute
ENCODING 188
SWIDTH 537 0
DWIDTH 10 0
BBX 9 14 0 0
BITMAP
0300
0700
0E00
1800
0000
FF80
C780
8F00
1E00
3C00
7880
F080
E180
FF80
ENDCHAR
STARTCHAR hungarumlaut
ENCODING 189
SWIDTH 333 0
DWIDTH 9 0
BBX 7 4 1 10
BITMAP
66
66
CC
88
ENDCHAR
STARTCHAR zcaron
ENCODING 190
SWIDTH 537 0
DWIDTH 10 0
BBX 8 14 0 0
BITMAP
C3
66
3C
18
00
FF
C7
8F
1E
3C
79
F1
E3
FF
ENDCHAR
STARTCHAR zdotaccent
ENCODING 191
SWIDTH 537 0
DWIDTH 10 0
BBX 9 12 0 0
BITMAP
0C00
0C00
0000
FF80
C780
8F00
1E00
3C00
7880
F080
E180
FF80
ENDCHAR
STARTCHAR Racute
ENCODING 192
SWIDTH 815 0
DWIDTH 16 0
BBX 13 19 0 0
BITMAP
0180
0380
0700
0C00
0000
FFE0
70F0
7070
7070
7070
70E0
7F80
71C0
71C0
71E0
70E0
70E0
70E8
F870
ENDCHAR
STARTCHAR Aacute
ENCODING 193
SWIDTH 759 0
DWIDTH 14 0
BBX 14 19 -1 0
BITMAP
0060
00E0
01C0
0300
0000
0100
0180
0380
03C0
05C0
04C0
08E0
08E0
1070
1FF0
2070
2038
6038
F07C
ENDCHAR
STARTCHAR Acircumflex
ENCODING 194
SWIDTH 759 0
DWIDTH 14 0
BBX 14 19 -1 0
BITMAP
0180
03C0
0660
0C30
0000
0100
0180
0380
03C0
05C0
04C0
08E0
08E0
1070
1FF0
2070
2038
6038
F07C
ENDCHAR
STARTCHAR Abreve
ENCODING 195
SWIDTH 759 0
DWIDTH 14 0
BBX 14 18 -1 0
BITMAP
0420
0660
03C0
0000
0100
0180
0380
03C0
05C0
04C0
08E0
08E0
1070
1FF0
2070
2038
6038
F07C
ENDCHAR
STARTCHAR Adieresis
ENCODING 196
SWIDTH 759 0
DWIDTH 14 0
BBX 14 17 -1 0
BITMAP
0660
0660
0000
0100
0180
0380
03C0
05C0
04C0
08E0
08E0
1070
1FF0
2070
2038
6038
F07C
ENDCHAR
STARTCHAR Lacute
ENCODING 197
SWIDTH 722 0
DWIDTH 12 0
BBX 10 19 0 0
BITMAP
0C00
1C00
3800
6000
0000
F800
7000
7000
7000
7000
7000
7000
7000
7000
7040
7040
70C0
71C0
FFC0
ENDCHAR
STARTCHAR Cacute
ENCODING 198
SWIDTH 778 0
DWIDTH 14 0
BBX 12 19 0 0
BITMAP
0180
0380
0700
0C00
0000
0F90
3CF0
7030
7030
E010
E010
E000
E000
E000
E010
7010
7020
3C60
0F80
ENDCHAR
STARTCHAR Ccedilla
ENCODING 199
SWIDTH 778 0
DWIDTH 14 0
BBX 12 18 0 -4
BITMAP
0F90
3C70
7030
7030
E010
E010
E000
E000
E000
E010
F010
7020
3C60
0F80
0200
0380
0180
0700
ENDCHAR
STARTCHAR Ccaron
ENCODING 200
SWIDTH 778 0
DWIDTH 14 0
BBX 12 19 0 0
BITMAP
30C0
1980
0F00
0600
0000
0F90
3CF0
7030
7030
E010
E010
E000
E000
E000
E010
7010
7020
3C60
0F80
ENDCHAR
STARTCHAR Eacute
ENCODING 201
SWIDTH 759 0
DWIDTH 13 0
BBX 11 19 0 0
BITMAP
0180
0380
0700
0C00
0000
FFE0
70E0
7060
7120
7120
7300
7F00
7300
7100
7120
7020
7060
70E0
FFE0
ENDCHAR
STARTCHAR Eogonek
ENCODING 202
SWIDTH 759 0
DWIDTH 13 0
BBX 11 18 0 -4
BITMAP
FFE0
70E0
7060
7120
7120
7300
7F00
7300
7100
7120
7020
7060
70E0
FFE0
0600
0C00
0D00
0600
ENDCHAR
STARTCHAR Edieresis
ENCODING 203
SWIDTH 759 0
DWIDTH 13 0
BBX 11 17 0 0
BITMAP
1980
1980
0000
FFE0
70E0
7060
7120
7120
7300
7F00
7300
7100
7120
7020
7060
70E0
FFE0
ENDCHAR
STARTCHAR Ecaron
ENCODING 204
SWIDTH 759 0
DWIDTH 13 0
BBX 11 19 0 0
BITMAP
30C0
1980
0F00
0600
0000
FFE0
70E0
7060
7120
7120
7300
7F00
7300
7100
7120
7020
7060
70E0
FFE0
ENDCHAR
STARTCHAR Iacute
ENCODING 205
SWIDTH 444 0
DWIDTH 9 0
BBX 6 19 1 0
BITMAP
0C
1C
38
60
00
F8
70
70
70
70
70
70
70
70
70
70
70
70
F8
ENDCHAR
STARTCHAR Icircumflex
ENCODING 206
SWIDTH 444 0
DWIDTH 9 0
BBX 8 19 0 0
BITMAP
18
3C
66
C3
00
7C
38
38
38
38
38
38
38
38
38
38
38
38
7C
ENDCHAR
STARTCHAR Dcaron
ENCODING 207
SWIDTH 833 0
DWIDTH 16 0
BBX 14 19 0 0
BITMAP
1860
0CC0
0780
0300
0000
FFC0
70F0
7038
7038
701C
701C
701C
701C
701C
701C
7038
7038
70F0
FFC0
ENDCHAR
STARTCHAR Dcroat
ENCODING 208
SWIDTH 833 0
DWIDTH 16 0
BBX 14 14 0 0
BITMAP
FFC0
70F0
7038
7038
701C
701C
FC1C
701C
701C
701C
7038
7038
70F0
FFC0
ENDCHAR
STARTCHAR Nacute
ENCODING 209
SWIDTH 833 0
DWIDTH 16 0
BBX 14 19 0 0
BITMAP
00C0
01C0
0380
0600
0000
F07C
7838
3C10
3C10
3E10
2F10
2790
23D0
21F0
20F0
20F0
2070
7030
F810
ENDCHAR
STARTCHAR Ncaron
ENCODING 210
SWIDTH 833 0
DWIDTH 16 0
BBX 14 19 0 0
BITMAP
1860
0CC0
0780
0300
0000
F07C
7838
3C10
3C10
3E10
2F10
2790
23D0
21F0
20F0
20F0
2070
7030
F810
ENDCHAR
STARTCHAR Oacute
ENCODING 211
SWIDTH 833 0
DWIDTH 16 0
BBX 14 19 0 0
BITMAP
00C0
01C0
0380
0600
0000
0FC0
3CF0
7038
7038
E01C
E01C
E01C
E01C
E01C
E01C
7038
7038
3CF0
0FC0
ENDCHAR
STARTCHAR Ocircumflex
ENCODING 212
SWIDTH 833 0
DWIDTH 16 0
BBX 14 19 0 0
BITMAP
0300
0780
0CC0
1860
0000
0FC0
3CF0
7038
7038
E01C
E01C
E01C
E01C
E01C
E01C
7038
7038
3CF0
0FC0
ENDCHAR
STARTCHAR Ohungarumlaut
ENCODING 213
SWIDTH 833 0
DWIDTH 16 0
BBX 14 19 0 0
BITMAP
0660
0660
0CC0
0880
0000
0FC0
3CF0
7038
7038
E01C
E01C
E01C
E01C
E01C
E01C
7038
7038
3CF0
0FC0
ENDCHAR
STARTCHAR Odieresis
ENCODING 214
SWIDTH 833 0
DWIDTH 16 0
BBX 14 17 0 0
BITMAP
0CC0
0CC0
0000
0FC0
3CF0
7038
7038
E01C
E01C
E01C
E01C
E01C
E01C
7038
7038
3CF0
0FC0
ENDCHAR
STARTCHAR multiply
ENCODING 215
SWIDTH 606 0
DWIDTH 11 0
BBX 10 10 0 0
BITMAP
4080
E1C0
7380
3F00
1E00
1E00
3F00
7380
E1C0
4080
ENDCHAR
STARTCHAR Rcaron
ENCODING 216
SWIDTH 815 0
DWIDTH 16 0
BBX 13 19 0 0
BITMAP
30C0
1980
0F00
0600
0000
FFE0
70F0
7070
7070
7070
70E0
7F80
71C0
71C0
71E0
70E0
70E0
70E8
F870
ENDCHAR
STARTCHAR Uring
ENCODING 217
SWIDTH 833 0
DWIDTH 16 0
BBX 14 19 0 0
BITMAP
0300
0480
0480
0300
0000
F87C
7038
7010
7010
7010
7010
7010
7010
7010
7010
7010
7010
3860
0FC0
ENDCHAR
STARTCHAR Uacute
ENCODING 218
SWIDTH 833 0
DWIDTH 16 0
BBX 14 19 0 0
BITMAP
0060
00E0
01C0
0300
0000
F87C
7038
7010
7010
7010
7010
7010
7010
7010
7010
7010
7010
3860
1FC0
ENDCHAR
STARTCHAR Uhungarumlaut
ENCODING 219
SWIDTH 833 0
DWIDTH 16 0
BBX 14 19 0 0
BITMAP
0CC0
0CC0
1980
1100
0000
F87C
7038
7010
7010
7010
7010
7010
7010
7010
7010
7010
7010
3860
0FC0
ENDCHAR
STARTCHAR Udieresis
ENCODING 220
SWIDTH 833 0
DWIDTH 16 0
BBX 14 17 0 0
BITMAP
0CC0
0CC0
0000
F87C
7038
7010
7010
7010
7010
7010
7010
7010
7010
7010
7010
3860
1FC0
ENDCHAR
STARTCHAR Yacute
ENCODING 221
SWIDTH 722 0
DWIDTH 15 0
BBX 13 19 0 0
BITMAP
0060
00E0
01C0
0300
0000
FC78
7830
3820
3C60
1C40
1E80
0F80
0700
0700
0700
0700
0700
0700
1FC0
ENDCHAR
STARTCHAR Tcommaaccent
ENCODING 222
SWIDTH 722 0
DWIDTH 13 0
BBX 11 18 0 -4
BITMAP
FFE0
CE60
8E20
8E20
8E20
0E00
0E00
0E00
0E00
0E00
0E00
0E00
0E00
1F00
0800
0E00
0600
1C00
ENDCHAR
STARTCHAR germandbls
ENCODING 223
SWIDTH 611 0
DWIDTH 12 0
BBX 11 14 0 0
BITMAP
1E00
3380
71C0
71C0
71C0
7180
7700
71C0
70E0
70E0
70E0
70E0
71C0
F700
ENDCHAR
STARTCHAR racute
ENCODING 224
SWIDTH 519 0
DWIDTH 9 0
BBX 8 14 0 0
BITMAP
06
0E
1C
30
00
F6
7B
73
70
70
70
70
70
F8
ENDCHAR
STARTCHAR aacute
ENCODING 225
SWIDTH 611 0
DWIDTH 11 0
BBX 10 14 0 0
BITMAP
0300
0700
0E00
1800
0000
7F00
E380
C380
0780
3B80
E380
E380
E780
79C0
ENDCHAR
STARTCHAR acircumflex
ENCODING 226
SWIDTH 611 0
DWIDTH 11 0
BBX 10 14 0 0
BITMAP
0C00
1E00
3300
6180
0000
7F00
E380
C380
0780
3B80
E380
E380
E780
79C0
ENDCHAR
STARTCHAR abreve
ENCODING 227
SWIDTH 611 0
DWIDTH 11 0
BBX 10 13 0 0
BITMAP
2100
3300
1E00
0000
7F00
E380
C380
0780
3B80
E380
E380
E780
79C0
ENDCHAR
STARTCHAR adieresis
ENCODING 228
SWIDTH 611 0
DWIDTH 11 0
BBX 10 12 0 0
BITMAP
3300
3300
0000
7F00
E380
C380
0780
3B80
E380
E380
E780
79C0
ENDCHAR
STARTCHAR lacute
ENCODING 229
SWIDTH 352 0
DWIDTH 6 0
BBX 5 19 0 0
BITMAP
18
38
70
C0
00
F0
70
70
70
70
70
70
70
70
70
70
70
70
F8
ENDCHAR
STARTCHAR cacute
ENCODING 230
SWIDTH 556 0
DWIDTH 10 0
BBX 9 14 0 0
BITMAP
0300
0700
0E00
1800
0000
1F00
7380
E180
E000
E000
E000
E080
7180
1E00
ENDCHAR
STARTCHAR ccedilla
ENCODING 231
SWIDTH 556 0
DWIDTH 10 0
BBX 9 13 0 -4
BITMAP
1F00
7380
E180
E000
E000
E000
E080
7180
1E00
0800
0E00
0600
1C00
ENDCHAR
STARTCHAR ccaron
ENCODING 232
SWIDTH 556 0
DWIDTH 10 0
BBX 9 14 0 0
BITMAP
6180
3300
1E00
0C00
0000
1F00
7380
E180
E000
E000
E000
E080
7180
1E00
ENDCHAR
STARTCHAR eacute
ENCODING 233
SWIDTH 574 0
DWIDTH 11 0
BBX 10 14 0 0
BITMAP
0300
0700
0E00
1800
0000
1E00
7380
E1C0
E1C0
FFC0
E000
E040
70C0
1F00
ENDCHAR
STARTCHAR eogonek
ENCODING 234
SWIDTH 574 0
DWIDTH 11 0
BBX 10 13 0 -4
BITMAP
1E00
7380
E1C0
E1C0
FFC0
E000
E040
70C0
1F00
0C00
1800
1A00
0C00
ENDCHAR
STARTCHAR edieresis
ENCODING 235
SWIDTH 574 0
DWIDTH 11 0
BBX 10 12 0 0
BITMAP
3300
3300
0000
1E00
7380
E1C0
E1C0
FFC0
E000
E040
70C0
1F00
ENDCHAR
STARTCHAR ecaron
ENCODING 236
SWIDTH 574 0
DWIDTH 11 0
BBX 10 14 0 0
BITMAP
6180
3300
1E00
0C00
0000
1E00
7380
E1C0
E1C0
FFC0
E000
E040
70C0
1F00
ENDCHAR
STARTCHAR iacute
ENCODING 237
SWIDTH 370 0
DWIDTH 6 0
BBX 6 14 0 0
BITMAP
0C
1C
38
60
00
F0
70
70
70
70
70
70
70
F8
ENDCHAR
STARTCHAR icircumflex
ENCODING 238
SWIDTH 370 0
DWIDTH 6 0
BBX 8 14 -1 0
BITMAP
18
3C
66
C3
00
78
38
38
38
38
38
38
38
7C
ENDCHAR
STARTCHAR dcaron
ENCODING 239
SWIDTH 875 0
DWIDTH 17 0
BBX 16 14 0 0
BITMAP
01E6
00EF
00EF
00E7
00E2
1EE4
71E8
E0E0
E0E0
E0E0
E0E0
E0E0
71E0
1EF0
ENDCHAR
STARTCHAR dcroat
ENCODING 240
SWIDTH 667 0
DWIDTH 13 0
BBX 12 14 0 0
BITMAP
01E0
00E0
00E0
01F0
01F0
1EE0
71E0
E0E0
E0E0
E0E0
E0E0
E0E0
71E0
1EF0
ENDCHAR
STARTCHAR nacute
ENCODING 241
SWIDTH 685 0
DWIDTH 13 0
BBX 12 14 0 0
BITMAP
0180
0380
0700
0C00
0000
F7C0
79E0
70E0
70E0
70E0
70E0
70E0
70E0
F9F0
ENDCHAR
STARTCHAR ncaron
ENCODING 242
SWIDTH 685 0
DWIDTH 13 0
BBX 12 14 0 0
BITMAP
30C0
1980
0F00
0600
0000
F7C0
79E0
70E0
70E0
70E0
70E0
70E0
70E0
F9F0
ENDCHAR
STARTCHAR oacute
ENCODING 243
SWIDTH 611 0
DWIDTH 12 0
BBX 11 14 0 0
BITMAP
0180
0380
0700
0C00
0000
1F00
71C0
E0E0
E0E0
E0E0
E0E0
E0E0
71C0
1F00
ENDCHAR
STARTCHAR ocircumflex
ENCODING 244
SWIDTH 611 0
DWIDTH 12 0
BBX 11 14 0 0
BITMAP
0600
0F00
1980
30C0
0000
1F00
71C0
E0E0
E0E0
E0E0
E0E0
E0E0
71C0
1F00
ENDCHAR
STARTCHAR ohungarumlaut
ENCODING 245
SWIDTH 611 0
DWIDTH 12 0
BBX 11 14 0 0
BITMAP
1980
1980
3300
2200
0000
1F00
71C0
E0E0
E0E0
E0E0
E0E0
E0E0
71C0
1F00
ENDCHAR
STARTCHAR odieresis
ENCODING 246
SWIDTH 611 0
DWIDTH 12 0
BBX 11 12 0 0
BITMAP
3300
3300
0000
1F00
71C0
E0E0
E0E0
E0E0
E0E0
E0E0
71C0
1F00
ENDCHAR
STARTCHAR divide
ENCODING 247
SWIDTH 606 0
DWIDTH 11 0
BBX 10 10 0 0
BITMAP
0C00
0C00
0000
0000
FFC0
FFC0
0000
0000
0C00
0C00
ENDCHAR
STARTCHAR rcaron
ENCODING 248
SWIDTH 519 0
DWIDTH 9 0
BBX 8 14 0 0
BITMAP
C3
66
3C
18
00
F6
7B
73
70
70
70
70
70
F8
ENDCHAR
STARTCHAR uring
ENCODING 249
SWIDTH 685 0
DWIDTH 13 0
BBX 12 14 0 0
BITMAP
0600
0900
0900
0600
0000
F9E0
70E0
70E0
70E0
70E0
70E0
70E0
79E0
3EF0
ENDCHAR
STARTCHAR uacute
ENCODING 250
SWIDTH 685 0
DWIDTH 13 0
BBX 12 14 0 0
BITMAP
0300
0700
0E00
1800
0000
F9F0
70E0
70E0
70E0
70E0
70E0
70E0
79E0
3EF0
ENDCHAR
STARTCHAR uhungarumlaut
ENCODING 251
SWIDTH 685 0
DWIDTH 13 0
BBX 12 14 0 0
BITMAP
0CC0
0CC0
1980
1100
0000
F9E0
70E0
70E0
70E0
70E0
70E0
70E0
79E0
3EF0
ENDCHAR
STARTCHAR udieresis
ENCODING 252
SWIDTH 685 0
DWIDTH 13 0
BBX 12 12 0 0
BITMAP
1980
1980
0000
F9F0
70E0
70E0
70E0
70E0
70E0
70E0
79E0
3EF0
ENDCHAR
STARTCHAR yacute
ENCODING 253
SWIDTH 611 0
DWIDTH 12 0
BBX 11 18 0 -4
BITMAP
0180
0380
0700
0C00
0000
F8E0
7040
7040
3880
3880
1D00
1D00
0E00
0E00
0400
C400
E800
7000
ENDCHAR
STARTCHAR tcommaaccent
ENCODING 254
SWIDTH 426 0
DWIDTH 8 0
BBX 7 17 0 -4
BITMAP
10
10
30
70
FC
70
70
70
70
70
72
72
3C
20
38
18
70
ENDCHAR
STARTCHAR dotaccent
ENCODING 255
SWIDTH 333 0
DWIDTH 6 0
BBX 2 2 2 10
BITMAP
C0
C0
ENDCHAR
ENDFONT
