STARTFONT 2.1
COMMENT AUTOMATICALLY GENERATED FILE. DO NOT EDIT!
COMMENT Generated with 'ucs2any ncenB18.bdf /usr/local/share/fonts/X11/util/map-ISO8859-2 ISO8859-2'
COMMENT from an ISO10646-1 encoded source BDF font.
COMMENT ucs2any by Ben Collver <collver1@attbi.com>, 2003, based on
COMMENT ucs2any.pl by Markus Kuhn <http://www.cl.cam.ac.uk/~mgk25/>, 2000.
FONT -Adobe-New Century Schoolbook-Bold-R-Normal--25-180-100-100-P-149-ISO8859-2
SIZE 18 100 100
FONTBOUNDINGBOX 29 29 -3 -5
COMMENT ISO10646-1 extension by Markus Kuhn <mkuhn@acm.org>, 2001-03-20
COMMENT
COMMENT +
COMMENT  Copyright 1984-1989, 1994 Adobe Systems Incorporated.
COMMENT  Copyright 1988, 1994 Digital Equipment Corporation.
COMMENT
COMMENT  Adobe is a trademark of Adobe Systems Incorporated which may be
COMMENT  registered in certain jurisdictions.
COMMENT  Permission to use these trademarks is hereby granted only in
COMMENT  association with the images described in this file.
COMMENT
COMMENT  Permission to use, copy, modify, distribute and sell this software
COMMENT  and its documentation for any purpose and without fee is hereby
COMMENT  granted, provided that the above copyright notices appear in all
COMMENT  copies and that both those copyright notices and this permission
COMMENT  notice appear in supporting documentation, and that the names of
COMMENT  Adobe Systems and Digital Equipment Corporation not be used in
COMMENT  advertising or publicity pertaining to distribution of the software
COMMENT  without specific, written prior permission.  Adobe Systems and
COMMENT  Digital Equipment Corporation make no representations about the
COMMENT  suitability of this software for any purpose.  It is provided "as
COMMENT  is" without express or implied warranty.
COMMENT -
STARTPROPERTIES 26
FOUNDRY "Adobe"
FAMILY_NAME "New Century Schoolbook"
WEIGHT_NAME "Bold"
SLANT "R"
SETWIDTH_NAME "Normal"
ADD_STYLE_NAME ""
PIXEL_SIZE 25
POINT_SIZE 180
RESOLUTION_X 100
RESOLUTION_Y 100
SPACING "P"
AVERAGE_WIDTH 149
CHARSET_REGISTRY "ISO8859"
CHARSET_ENCODING "2"
CAP_HEIGHT 18
X_HEIGHT 12
FONT_ASCENT 21
FONT_DESCENT 5
FACE_NAME "New Century Schoolbook Bold"
COPYRIGHT "Copyright (c) 1984, 1987 Adobe Systems Incorporated. All Rights Reserved. Copyright (c) 1988, 1991 Digital Equipment Corporation. All Rights Reserved."
NOTICE "New Century Schoolbook is a trademark of Linotype-Hell AG and/or its subsidiaries."
_DEC_DEVICE_FONTNAMES "PS=NewCenturySchlbk-Bold"
DEFAULT_CHAR 0
RELATIVE_SETWIDTH 50
RELATIVE_WEIGHT 70
FULL_NAME "New Century Schoolbook Bold"
ENDPROPERTIES
CHARS 192
STARTCHAR defaultchar
ENCODING 0
SWIDTH 870 0
DWIDTH 21 0
BBX 19 17 1 0
BITMAP
AAAAA0
000000
800020
000000
800020
000000
800020
000000
800020
000000
800020
000000
800020
000000
800020
000000
AAAAA0
ENDCHAR
STARTCHAR space
ENCODING 32
SWIDTH 287 0
DWIDTH 7 0
BBX 1 1 0 0
BITMAP
00
ENDCHAR
STARTCHAR exclam
ENCODING 33
SWIDTH 296 0
DWIDTH 7 0
BBX 5 18 1 0
BITMAP
70
F8
F8
F8
70
70
70
70
70
70
20
20
00
00
70
F8
F8
70
ENDCHAR
STARTCHAR quotedbl
ENCODING 34
SWIDTH 333 0
DWIDTH 8 0
BBX 6 6 1 12
BITMAP
CC
CC
CC
CC
CC
88
ENDCHAR
STARTCHAR numbersign
ENCODING 35
SWIDTH 574 0
DWIDTH 14 0
BBX 12 18 1 0
BITMAP
0CC0
0CC0
0CC0
0CC0
0CC0
7FF0
7FF0
1980
1980
1980
1980
FFE0
FFE0
3300
3300
3300
3300
3300
ENDCHAR
STARTCHAR dollar
ENCODING 36
SWIDTH 574 0
DWIDTH 14 0
BBX 12 23 1 -3
BITMAP
0400
0400
1FC0
7460
64F0
E4F0
E4F0
F460
FC00
FF00
7FC0
1FE0
07F0
05F0
64F0
F470
F470
F460
64E0
3F80
0400
0400
0400
ENDCHAR
STARTCHAR percent
ENCODING 37
SWIDTH 833 0
DWIDTH 21 0
BBX 19 18 1 0
BITMAP
1E0E00
7B3600
71CC00
F10C00
E11800
E21800
E23000
643000
386000
0063C0
00CF60
00CE20
019E20
019C20
031C40
031C40
060C80
060700
ENDCHAR
STARTCHAR ampersand
ENCODING 38
SWIDTH 852 0
DWIDTH 22 0
BBX 20 18 1 0
BITMAP
01F000
073800
0E1800
0E1800
0E1800
0F3000
0FE000
07C000
0FC000
39E3F0
71F1C0
F0F180
F07900
F07F00
F03E10
781F10
7C3FE0
1FC7C0
ENDCHAR
STARTCHAR quotesingle
ENCODING 39
SWIDTH 241 0
DWIDTH 6 0
BBX 2 6 2 12
BITMAP
C0
C0
C0
C0
C0
C0
ENDCHAR
STARTCHAR parenleft
ENCODING 40
SWIDTH 389 0
DWIDTH 8 0
BBX 6 21 1 -3
BITMAP
04
0C
18
30
30
60
60
E0
E0
E0
E0
E0
E0
E0
60
60
30
30
18
0C
04
ENDCHAR
STARTCHAR parenright
ENCODING 41
SWIDTH 389 0
DWIDTH 8 0
BBX 6 21 1 -3
BITMAP
80
C0
60
30
30
18
18
1C
1C
1C
1C
1C
1C
1C
18
18
30
30
60
C0
80
ENDCHAR
STARTCHAR asterisk
ENCODING 42
SWIDTH 500 0
DWIDTH 11 0
BBX 9 10 1 8
BITMAP
1C00
1C00
C980
EB80
3E00
3E00
EB80
C980
1C00
1C00
ENDCHAR
STARTCHAR plus
ENCODING 43
SWIDTH 606 0
DWIDTH 14 0
BBX 12 12 1 1
BITMAP
0600
0600
0600
0600
0600
FFF0
FFF0
0600
0600
0600
0600
0600
ENDCHAR
STARTCHAR comma
ENCODING 44
SWIDTH 278 0
DWIDTH 7 0
BBX 5 8 1 -4
BITMAP
70
F8
F8
78
30
20
40
80
ENDCHAR
STARTCHAR hyphen
ENCODING 45
SWIDTH 333 0
DWIDTH 8 0
BBX 6 3 1 5
BITMAP
FC
FC
FC
ENDCHAR
STARTCHAR period
ENCODING 46
SWIDTH 278 0
DWIDTH 7 0
BBX 5 4 1 0
BITMAP
70
F8
F8
70
ENDCHAR
STARTCHAR slash
ENCODING 47
SWIDTH 278 0
DWIDTH 9 0
BBX 7 18 1 0
BITMAP
06
06
06
0C
0C
0C
18
18
18
30
30
30
60
60
60
C0
C0
C0
ENDCHAR
STARTCHAR zero
ENCODING 48
SWIDTH 574 0
DWIDTH 14 0
BBX 12 18 1 0
BITMAP
0F00
39C0
70E0
70E0
F0F0
F0F0
F0F0
F0F0
F0F0
F0F0
F0F0
F0F0
F0F0
F0F0
70E0
70E0
39C0
0F00
ENDCHAR
STARTCHAR one
ENCODING 49
SWIDTH 574 0
DWIDTH 14 0
BBX 10 18 2 0
BITMAP
1E00
FE00
1E00
1E00
1E00
1E00
1E00
1E00
1E00
1E00
1E00
1E00
1E00
1E00
1E00
1E00
3F00
FFC0
ENDCHAR
STARTCHAR two
ENCODING 50
SWIDTH 574 0
DWIDTH 14 0
BBX 11 18 1 0
BITMAP
1F00
63C0
E1E0
F1E0
F1E0
F1E0
61E0
01C0
03C0
0380
0700
0E00
1820
3020
7060
FFE0
FFE0
FFE0
ENDCHAR
STARTCHAR three
ENCODING 51
SWIDTH 574 0
DWIDTH 14 0
BBX 12 18 1 0
BITMAP
0F80
31E0
70E0
78F0
78F0
78F0
30E0
01C0
0F00
01C0
00E0
60F0
F0F0
F0F0
F0F0
E0E0
61E0
1F80
ENDCHAR
STARTCHAR four
ENCODING 52
SWIDTH 574 0
DWIDTH 14 0
BBX 12 18 1 0
BITMAP
00C0
01C0
03C0
07C0
07C0
0FC0
1BC0
13C0
33C0
63C0
63C0
C3C0
FFF0
FFF0
03C0
03C0
03C0
0FF0
ENDCHAR
STARTCHAR five
ENCODING 53
SWIDTH 574 0
DWIDTH 14 0
BBX 12 18 1 0
BITMAP
7FF0
7FE0
7FC0
4000
4000
4000
5F00
71C0
60E0
00F0
00F0
00F0
60F0
F0F0
F0F0
F0E0
61C0
3F00
ENDCHAR
STARTCHAR six
ENCODING 54
SWIDTH 574 0
DWIDTH 14 0
BBX 12 18 1 0
BITMAP
0F80
38C0
71E0
71E0
F1E0
F0C0
F000
F780
F9E0
F0E0
F0F0
F0F0
F0F0
F0F0
F0F0
70E0
79E0
1F80
ENDCHAR
STARTCHAR seven
ENCODING 55
SWIDTH 574 0
DWIDTH 14 0
BBX 12 18 1 0
BITMAP
FFF0
FFF0
FFE0
C060
80C0
81C0
0380
0380
0700
0700
0F00
0F00
1E00
1E00
1E00
1E00
1E00
0C00
ENDCHAR
STARTCHAR eight
ENCODING 56
SWIDTH 574 0
DWIDTH 14 0
BBX 12 18 1 0
BITMAP
0F00
39C0
70E0
70E0
70E0
78E0
7CC0
3F80
1F80
3FC0
77E0
E1F0
E0F0
E070
E070
E060
70C0
1F80
ENDCHAR
STARTCHAR nine
ENCODING 57
SWIDTH 574 0
DWIDTH 14 0
BBX 12 18 1 0
BITMAP
1F80
79E0
70E0
F0F0
F0F0
F0F0
F0F0
F0F0
70F0
79F0
1EF0
00F0
30F0
78F0
78E0
78E0
31C0
1F00
ENDCHAR
STARTCHAR colon
ENCODING 58
SWIDTH 278 0
DWIDTH 7 0
BBX 5 12 1 0
BITMAP
70
F8
F8
70
00
00
00
00
70
F8
F8
70
ENDCHAR
STARTCHAR semicolon
ENCODING 59
SWIDTH 278 0
DWIDTH 7 0
BBX 5 16 1 -4
BITMAP
70
F8
F8
70
00
00
00
00
70
F8
F8
78
30
20
40
80
ENDCHAR
STARTCHAR less
ENCODING 60
SWIDTH 606 0
DWIDTH 14 0
BBX 12 12 1 1
BITMAP
0030
00F0
03C0
0F00
3C00
F000
F000
3C00
0F00
03C0
00F0
0030
ENDCHAR
STARTCHAR equal
ENCODING 61
SWIDTH 606 0
DWIDTH 14 0
BBX 12 6 1 4
BITMAP
FFF0
FFF0
0000
0000
FFF0
FFF0
ENDCHAR
STARTCHAR greater
ENCODING 62
SWIDTH 606 0
DWIDTH 14 0
BBX 12 12 1 1
BITMAP
C000
F000
3C00
0F00
03C0
00F0
00F0
03C0
0F00
3C00
F000
C000
ENDCHAR
STARTCHAR question
ENCODING 63
SWIDTH 500 0
DWIDTH 13 0
BBX 11 18 1 0
BITMAP
3F00
63C0
F1E0
F1E0
61E0
01E0
01C0
0380
0700
0C00
1800
1800
0000
0000
1C00
3E00
3E00
1C00
ENDCHAR
STARTCHAR at
ENCODING 64
SWIDTH 747 0
DWIDTH 20 0
BBX 19 18 1 0
BITMAP
01FC00
0F0600
0C0180
3000C0
30DCC0
63BC60
671C60
C71C60
CE1C60
CE3860
CE3840
CE38C0
CE7980
67BF00
600000
380100
1C0700
07FC00
ENDCHAR
STARTCHAR A
ENCODING 65
SWIDTH 759 0
DWIDTH 19 0
BBX 19 18 0 0
BITMAP
006000
006000
00F000
00F000
017800
017800
033C00
023C00
023C00
061E00
041E00
07FE00
0C0F00
080F00
080F00
180780
380780
FE1FE0
ENDCHAR
STARTCHAR B
ENCODING 66
SWIDTH 778 0
DWIDTH 19 0
BBX 17 18 1 0
BITMAP
FFF800
3C3E00
3C1F00
3C1F00
3C1F00
3C1F00
3C1E00
3C3C00
3FF800
3C1E00
3C0F00
3C0F80
3C0F80
3C0F80
3C0F80
3C0F80
3C1F00
FFFC00
ENDCHAR
STARTCHAR C
ENCODING 67
SWIDTH 778 0
DWIDTH 19 0
BBX 17 18 1 0
BITMAP
03F980
0F0F80
3C0380
3C0180
780180
780080
F80080
F80000
F80000
F80000
F80000
F80000
780080
780080
3C0100
3C0100
0F0600
03F800
ENDCHAR
STARTCHAR D
ENCODING 68
SWIDTH 833 0
DWIDTH 20 0
BBX 18 18 1 0
BITMAP
FFF000
3C3C00
3C0F00
3C0F00
3C0780
3C0780
3C07C0
3C07C0
3C07C0
3C07C0
3C07C0
3C07C0
3C0780
3C0780
3C0F00
3C0F00
3C3C00
FFF000
ENDCHAR
STARTCHAR E
ENCODING 69
SWIDTH 759 0
DWIDTH 18 0
BBX 15 18 1 0
BITMAP
FFFE
3C1E
3C06
3C02
3C02
3C22
3C20
3C60
3FE0
3C60
3C20
3C20
3C02
3C02
3C02
3C06
3C1E
FFFE
ENDCHAR
STARTCHAR F
ENCODING 70
SWIDTH 722 0
DWIDTH 17 0
BBX 15 18 1 0
BITMAP
FFFE
3C1E
3C06
3C02
3C02
3C22
3C20
3C60
3FE0
3C60
3C20
3C20
3C00
3C00
3C00
3C00
3C00
FF00
ENDCHAR
STARTCHAR G
ENCODING 71
SWIDTH 833 0
DWIDTH 20 0
BBX 18 18 1 0
BITMAP
03F980
0F0F80
3C0380
3C0180
780180
780080
F80080
F80000
F80000
F80000
F80FC0
F80780
780780
780780
3C0780
3C0780
0F0D80
03F880
ENDCHAR
STARTCHAR H
ENCODING 72
SWIDTH 870 0
DWIDTH 21 0
BBX 19 18 1 0
BITMAP
FF1FE0
3C0780
3C0780
3C0780
3C0780
3C0780
3C0780
3C0780
3FFF80
3C0780
3C0780
3C0780
3C0780
3C0780
3C0780
3C0780
3C0780
FF1FE0
ENDCHAR
STARTCHAR I
ENCODING 73
SWIDTH 444 0
DWIDTH 10 0
BBX 8 18 1 0
BITMAP
FF
3C
3C
3C
3C
3C
3C
3C
3C
3C
3C
3C
3C
3C
3C
3C
3C
FF
ENDCHAR
STARTCHAR J
ENCODING 74
SWIDTH 648 0
DWIDTH 16 0
BBX 14 18 0 0
BITMAP
03FC
00F0
00F0
00F0
00F0
00F0
00F0
00F0
00F0
00F0
00F0
60F0
F0F0
F0F0
E0F0
C0E0
61E0
3F80
ENDCHAR
STARTCHAR K
ENCODING 75
SWIDTH 815 0
DWIDTH 21 0
BBX 20 18 1 0
BITMAP
FF0FC0
3C0300
3C0600
3C0C00
3C1800
3C3000
3C6000
3CE000
3DF000
3FF800
3EF800
3C7C00
3C3E00
3C1F00
3C1F00
3C0F80
3C07C0
FF0FF0
ENDCHAR
STARTCHAR L
ENCODING 76
SWIDTH 722 0
DWIDTH 17 0
BBX 15 18 1 0
BITMAP
FF00
3C00
3C00
3C00
3C00
3C00
3C00
3C00
3C00
3C00
3C00
3C00
3C02
3C02
3C02
3C06
3C1E
FFFE
ENDCHAR
STARTCHAR M
ENCODING 77
SWIDTH 981 0
DWIDTH 24 0
BBX 22 18 1 0
BITMAP
FC01FC
3C01F0
3E03F0
3E02F0
2E02F0
2F06F0
2704F0
2784F0
278CF0
2388F0
23C8F0
23D8F0
21D0F0
21F0F0
20E0F0
20E0F0
7060F0
F843FC
ENDCHAR
STARTCHAR N
ENCODING 78
SWIDTH 833 0
DWIDTH 22 0
BBX 20 18 1 0
BITMAP
FC07F0
3E01C0
1F0080
1F8080
1FC080
17E080
13F080
11F080
10F880
107C80
107E80
103F80
101F80
100F80
100780
100380
380180
FE0080
ENDCHAR
STARTCHAR O
ENCODING 79
SWIDTH 833 0
DWIDTH 21 0
BBX 19 18 1 0
BITMAP
03F800
0F1E00
3C0780
3C0780
7803C0
7803C0
F803E0
F803E0
F803E0
F803E0
F803E0
F803E0
7803C0
7803C0
3C0780
3C0780
0F1E00
03F800
ENDCHAR
STARTCHAR P
ENCODING 80
SWIDTH 759 0
DWIDTH 18 0
BBX 17 18 1 0
BITMAP
FFFC00
3C1F00
3C0F00
3C0F80
3C0F80
3C0F80
3C0F80
3C0F00
3C1F00
3FF800
3C0000
3C0000
3C0000
3C0000
3C0000
3C0000
3C0000
FF8000
ENDCHAR
STARTCHAR Q
ENCODING 81
SWIDTH 833 0
DWIDTH 21 0
BBX 19 23 1 -5
BITMAP
03F800
0F1E00
3C0780
3C0780
7803C0
7803C0
F803E0
F803E0
F803E0
F803E0
F803E0
FBE3E0
7E73C0
7C33C0
3C3380
3C1B80
0F1E00
03FE00
000E00
000F20
0007C0
0007C0
000380
ENDCHAR
STARTCHAR R
ENCODING 82
SWIDTH 815 0
DWIDTH 21 0
BBX 19 18 1 0
BITMAP
FFF800
3C3E00
3C1F00
3C1F00
3C1F00
3C1F00
3C1E00
3C3C00
3FE000
3C7800
3C3C00
3C3C00
3C3E00
3C1E00
3C1F20
3C0F20
3C0FC0
FF8780
ENDCHAR
STARTCHAR S
ENCODING 83
SWIDTH 667 0
DWIDTH 16 0
BBX 14 18 1 0
BITMAP
0FC8
3878
6018
E018
E008
F008
FE00
FFC0
7FF0
3FF8
0FFC
01FC
803C
801C
C01C
C018
F070
9FC0
ENDCHAR
STARTCHAR T
ENCODING 84
SWIDTH 722 0
DWIDTH 18 0
BBX 16 18 1 0
BITMAP
FFFF
E3C7
C3C3
83C1
83C1
83C1
03C0
03C0
03C0
03C0
03C0
03C0
03C0
03C0
03C0
03C0
03C0
0FF0
ENDCHAR
STARTCHAR U
ENCODING 85
SWIDTH 833 0
DWIDTH 21 0
BBX 19 18 1 0
BITMAP
FF0FE0
3C0380
3C0100
3C0100
3C0100
3C0100
3C0100
3C0100
3C0100
3C0100
3C0100
3C0100
3C0100
3C0100
3C0200
1E0200
1F8C00
07F800
ENDCHAR
STARTCHAR V
ENCODING 86
SWIDTH 759 0
DWIDTH 19 0
BBX 19 18 0 0
BITMAP
FF0FE0
3C0380
3C0300
1E0200
1E0200
1E0600
0F0400
0F0400
0F0C00
078800
078800
079800
03D000
03D000
01E000
01E000
00C000
00C000
ENDCHAR
STARTCHAR W
ENCODING 87
SWIDTH 981 0
DWIDTH 26 0
BBX 26 18 0 0
BITMAP
FF7F9FC0
3C1E0700
3C1E0600
1E0F0400
1E0F0400
1E0F0C00
0F1F8800
0F178800
0F179800
07B3D000
07A3D000
07A3F000
03E1E000
03C1E000
03C1E000
01C0C000
0180C000
0180C000
ENDCHAR
STARTCHAR X
ENCODING 88
SWIDTH 722 0
DWIDTH 20 0
BBX 20 18 0 0
BITMAP
FF87E0
3E0180
1F0300
1F8600
0F8C00
07D800
03F000
03E000
01F000
00F800
01F800
037C00
063E00
041F00
0C1F00
180F80
3007C0
FC1FF0
ENDCHAR
STARTCHAR Y
ENCODING 89
SWIDTH 722 0
DWIDTH 18 0
BBX 18 18 0 0
BITMAP
FF0FC0
3C0300
1E0200
1E0600
0F0400
0F0C00
078800
079800
03D000
03F000
01E000
01E000
01E000
01E000
01E000
01E000
01E000
07F800
ENDCHAR
STARTCHAR Z
ENCODING 90
SWIDTH 667 0
DWIDTH 17 0
BBX 15 18 1 0
BITMAP
7FFE
703E
607C
4078
40F8
00F0
01E0
03E0
03C0
0780
0F80
0F00
1E00
3E02
3C02
7806
F80E
FFFE
ENDCHAR
STARTCHAR bracketleft
ENCODING 91
SWIDTH 389 0
DWIDTH 8 0
BBX 6 21 1 -3
BITMAP
FC
E0
E0
E0
E0
E0
E0
E0
E0
E0
E0
E0
E0
E0
E0
E0
E0
E0
E0
E0
FC
ENDCHAR
STARTCHAR backslash
ENCODING 92
SWIDTH 606 0
DWIDTH 12 0
BBX 10 18 1 0
BITMAP
C000
E000
E000
7000
7000
3800
3800
1C00
1C00
0E00
0E00
0700
0700
0380
0380
01C0
01C0
00C0
ENDCHAR
STARTCHAR bracketright
ENCODING 93
SWIDTH 389 0
DWIDTH 8 0
BBX 6 21 1 -3
BITMAP
FC
1C
1C
1C
1C
1C
1C
1C
1C
1C
1C
1C
1C
1C
1C
1C
1C
1C
1C
1C
FC
ENDCHAR
STARTCHAR asciicircum
ENCODING 94
SWIDTH 606 0
DWIDTH 15 0
BBX 10 10 2 8
BITMAP
0C00
0C00
1E00
1E00
3300
3300
6180
6180
C0C0
C0C0
ENDCHAR
STARTCHAR underscore
ENCODING 95
SWIDTH 500 0
DWIDTH 12 0
BBX 12 2 0 -4
BITMAP
FFF0
FFF0
ENDCHAR
STARTCHAR grave
ENCODING 96
SWIDTH 333 0
DWIDTH 7 0
BBX 5 5 1 13
BITMAP
E0
E0
70
30
18
ENDCHAR
STARTCHAR a
ENCODING 97
SWIDTH 611 0
DWIDTH 15 0
BBX 14 12 0 0
BITMAP
7F80
F1E0
F0F0
60F0
01F0
0EF0
78F0
F0F0
F0F0
F0F0
F9FC
7E38
ENDCHAR
STARTCHAR b
ENCODING 98
SWIDTH 648 0
DWIDTH 16 0
BBX 16 18 -1 0
BITMAP
FC00
3C00
3C00
3C00
3C00
3C00
3DF0
3F1C
3E1E
3C0E
3C0F
3C0F
3C0F
3C0F
3C0E
3C1E
3E1C
27F0
ENDCHAR
STARTCHAR c
ENCODING 99
SWIDTH 556 0
DWIDTH 14 0
BBX 13 12 0 0
BITMAP
0FF0
3878
7878
7030
F000
F000
F000
F000
7808
7808
3C30
1FE0
ENDCHAR
STARTCHAR d
ENCODING 100
SWIDTH 667 0
DWIDTH 17 0
BBX 16 18 0 0
BITMAP
00FC
003C
003C
003C
003C
003C
0FBC
38FC
787C
703C
F03C
F03C
F03C
F03C
703C
787C
38FC
0FBF
ENDCHAR
STARTCHAR e
ENCODING 101
SWIDTH 574 0
DWIDTH 15 0
BBX 14 12 0 0
BITMAP
0FC0
3870
7878
7038
F03C
FFFC
F000
F000
7808
7808
3C30
0FE0
ENDCHAR
STARTCHAR f
ENCODING 102
SWIDTH 389 0
DWIDTH 10 0
BBX 12 18 0 0
BITMAP
07E0
1CF0
1CF0
3C60
3C00
3C00
FF80
3C00
3C00
3C00
3C00
3C00
3C00
3C00
3C00
3C00
3C00
FF00
ENDCHAR
STARTCHAR g
ENCODING 103
SWIDTH 611 0
DWIDTH 15 0
BBX 13 18 1 -5
BITMAP
0038
1FF8
79E0
F0F0
F0F0
F0F0
F0F0
79E0
3F80
6000
E000
FFC0
7FF0
7FF8
6038
C018
E030
7FE0
ENDCHAR
STARTCHAR h
ENCODING 104
SWIDTH 685 0
DWIDTH 18 0
BBX 17 18 0 0
BITMAP
FC0000
3C0000
3C0000
3C0000
3C0000
3C0000
3CF800
3DFC00
3E3E00
3C1E00
3C1E00
3C1E00
3C1E00
3C1E00
3C1E00
3C1E00
3C1E00
FE3F80
ENDCHAR
STARTCHAR i
ENCODING 105
SWIDTH 370 0
DWIDTH 9 0
BBX 8 18 0 0
BITMAP
18
3C
3C
18
00
00
FC
3C
3C
3C
3C
3C
3C
3C
3C
3C
3C
FF
ENDCHAR
STARTCHAR j
ENCODING 106
SWIDTH 352 0
DWIDTH 7 0
BBX 8 23 -3 -5
BITMAP
06
0F
0F
06
00
00
3F
0F
0F
0F
0F
0F
0F
0F
0F
0F
0F
0F
0F
0F
CE
CE
78
ENDCHAR
STARTCHAR k
ENCODING 107
SWIDTH 667 0
DWIDTH 17 0
BBX 17 18 0 0
BITMAP
FC0000
3C0000
3C0000
3C0000
3C0000
3C0000
3CFE00
3C3800
3C3000
3C6000
3CC000
3FC000
3FE000
3CF000
3C7800
3C3C00
3C1E00
FF7F80
ENDCHAR
STARTCHAR l
ENCODING 108
SWIDTH 352 0
DWIDTH 9 0
BBX 8 18 0 0
BITMAP
FC
3C
3C
3C
3C
3C
3C
3C
3C
3C
3C
3C
3C
3C
3C
3C
3C
FF
ENDCHAR
STARTCHAR m
ENCODING 109
SWIDTH 963 0
DWIDTH 25 0
BBX 24 12 0 0
BITMAP
FCF0F0
3DF9F8
3E7E7C
3C3C3C
3C3C3C
3C3C3C
3C3C3C
3C3C3C
3C3C3C
3C3C3C
3C3C3C
FE7E7F
ENDCHAR
STARTCHAR n
ENCODING 110
SWIDTH 685 0
DWIDTH 18 0
BBX 17 12 0 0
BITMAP
FCF800
3DFC00
3E3E00
3C1E00
3C1E00
3C1E00
3C1E00
3C1E00
3C1E00
3C1E00
3C1E00
FE3F80
ENDCHAR
STARTCHAR o
ENCODING 111
SWIDTH 611 0
DWIDTH 15 0
BBX 14 12 0 0
BITMAP
0FC0
3870
7878
7038
F03C
F03C
F03C
F03C
7038
7878
3870
0FC0
ENDCHAR
STARTCHAR p
ENCODING 112
SWIDTH 667 0
DWIDTH 16 0
BBX 16 17 -1 -5
BITMAP
FDF0
3F1C
3C1E
3C0E
3C0F
3C0F
3C0F
3C0F
3C0E
3E1E
3F1C
3DF0
3C00
3C00
3C00
3C00
FF00
ENDCHAR
STARTCHAR q
ENCODING 113
SWIDTH 648 0
DWIDTH 16 0
BBX 16 17 0 -5
BITMAP
0F84
3CEC
783C
703C
F03C
F03C
F03C
F03C
703C
787C
38FC
0FBC
003C
003C
003C
003C
00FF
ENDCHAR
STARTCHAR r
ENCODING 114
SWIDTH 519 0
DWIDTH 12 0
BBX 12 12 0 0
BITMAP
FCE0
3DF0
3EF0
3C60
3C00
3C00
3C00
3C00
3C00
3C00
3C00
FF00
ENDCHAR
STARTCHAR s
ENCODING 115
SWIDTH 500 0
DWIDTH 11 0
BBX 10 12 0 0
BITMAP
3E80
6380
C180
E080
FC00
FF80
7FC0
0FC0
81C0
C0C0
E180
BF00
ENDCHAR
STARTCHAR t
ENCODING 116
SWIDTH 426 0
DWIDTH 10 0
BBX 10 17 0 0
BITMAP
0400
0C00
0C00
1C00
3C00
FF80
3C00
3C00
3C00
3C00
3C00
3C00
3C00
3C40
3C40
1F80
0F00
ENDCHAR
STARTCHAR u
ENCODING 117
SWIDTH 685 0
DWIDTH 18 0
BBX 17 12 0 0
BITMAP
FE7E00
3C1E00
3C1E00
3C1E00
3C1E00
3C1E00
3C1E00
3C1E00
3C1E00
3E3E00
1FDE00
0F9F80
ENDCHAR
STARTCHAR v
ENCODING 118
SWIDTH 611 0
DWIDTH 15 0
BBX 16 12 -1 0
BITMAP
FF1F
3C04
1E0C
1E08
0F18
0F10
07B0
07A0
03E0
03C0
01C0
0180
ENDCHAR
STARTCHAR w
ENCODING 119
SWIDTH 889 0
DWIDTH 22 0
BBX 23 12 -1 0
BITMAP
FF3F3E
3C1E08
3C1E08
1E3F18
1E2F10
1E2F10
0F67B0
0F47A0
07C3E0
0783C0
0381C0
030180
ENDCHAR
STARTCHAR x
ENCODING 120
SWIDTH 611 0
DWIDTH 16 0
BBX 17 12 -1 0
BITMAP
FF1F00
3E0C00
1F1800
0FB000
07E000
03C000
01E000
03F000
06F800
0C7C00
183E00
7C7F80
ENDCHAR
STARTCHAR y
ENCODING 121
SWIDTH 611 0
DWIDTH 15 0
BBX 16 17 -1 -5
BITMAP
FE3F
3C0C
1E08
1E18
0F10
0F30
07A0
07E0
03C0
03C0
01C0
0180
0180
6100
F300
FE00
7800
ENDCHAR
STARTCHAR z
ENCODING 122
SWIDTH 537 0
DWIDTH 12 0
BBX 11 12 0 0
BITMAP
FFE0
E1E0
C3E0
87C0
8F80
0F00
1E00
3E20
7C20
F860
F0E0
FFE0
ENDCHAR
STARTCHAR braceleft
ENCODING 123
SWIDTH 389 0
DWIDTH 8 0
BBX 6 21 1 -3
BITMAP
1C
30
70
70
70
70
70
70
70
60
C0
60
70
70
70
70
70
70
70
30
1C
ENDCHAR
STARTCHAR bar
ENCODING 124
SWIDTH 606 0
DWIDTH 15 0
BBX 3 18 6 0
BITMAP
E0
E0
E0
E0
E0
E0
E0
E0
E0
E0
E0
E0
E0
E0
E0
E0
E0
E0
ENDCHAR
STARTCHAR braceright
ENCODING 125
SWIDTH 389 0
DWIDTH 8 0
BBX 6 21 1 -3
BITMAP
E0
30
38
38
38
38
38
38
38
18
0C
18
38
38
38
38
38
38
38
30
E0
ENDCHAR
STARTCHAR asciitilde
ENCODING 126
SWIDTH 606 0
DWIDTH 15 0
BBX 12 5 1 4
BITMAP
3820
7E70
FFF0
E7E0
41C0
ENDCHAR
STARTCHAR space
ENCODING 160
SWIDTH 287 0
DWIDTH 7 0
BBX 1 1 0 0
BITMAP
00
ENDCHAR
STARTCHAR Aogonek
ENCODING 161
SWIDTH 759 0
DWIDTH 19 0
BBX 19 23 0 -5
BITMAP
006000
006000
00F000
00F000
017800
017800
033C00
023C00
023C00
061E00
041E00
07FE00
0C0F00
080F00
080F00
180780
380780
FE1FE0
006000
00C000
00C800
00F800
007000
ENDCHAR
STARTCHAR breve
ENCODING 162
SWIDTH 333 0
DWIDTH 11 0
BBX 9 4 1 13
BITMAP
8080
E380
7F00
1C00
ENDCHAR
STARTCHAR Lslash
ENCODING 163
SWIDTH 722 0
DWIDTH 17 0
BBX 15 18 1 0
BITMAP
FF00
3C00
3C00
3C00
3C00
3D00
3F00
3E00
3C00
7C00
FC00
BC00
3C02
3C02
3C02
3C06
3C1E
FFFE
ENDCHAR
STARTCHAR currency
ENCODING 164
SWIDTH 606 0
DWIDTH 14 0
BBX 12 12 1 2
BITMAP
CF30
FFF0
7FE0
70E0
E070
E070
E070
E070
70E0
7FE0
FFF0
CF30
ENDCHAR
STARTCHAR Lcaron
ENCODING 165
SWIDTH 927 0
DWIDTH 23 0
BBX 21 18 1 0
BITMAP
FF0070
3C00F8
3C00F8
3C0078
3C0030
3C0020
3C0040
3C0080
3C0000
3C0000
3C0000
3C0000
3C0200
3C0200
3C0200
3C0600
3C1E00
FFFE00
ENDCHAR
STARTCHAR Sacute
ENCODING 166
SWIDTH 667 0
DWIDTH 16 0
BBX 14 24 1 0
BITMAP
00C0
01C0
0380
0300
0600
0000
0FC8
3878
6018
E018
E008
F008
FE00
FFC0
7FF0
3FF8
0FFC
01FC
803C
801C
C01C
C018
F070
9FC0
ENDCHAR
STARTCHAR section
ENCODING 167
SWIDTH 500 0
DWIDTH 13 0
BBX 11 20 1 -2
BITMAP
1F00
2380
6380
6300
7800
3E00
3F80
47C0
C1E0
E0E0
F060
7C60
3F40
0F80
0380
0180
3080
7080
7100
3E00
ENDCHAR
STARTCHAR dieresis
ENCODING 168
SWIDTH 333 0
DWIDTH 12 0
BBX 10 4 1 14
BITMAP
6180
F3C0
F3C0
6180
ENDCHAR
STARTCHAR Scaron
ENCODING 169
SWIDTH 667 0
DWIDTH 16 0
BBX 14 18 1 0
BITMAP
3060
38E0
1DC0
0F80
0700
0000
0FC8
3878
6018
F008
7C00
7F80
0FF0
01F8
803C
C018
F070
9FC0
ENDCHAR
STARTCHAR Scedilla
ENCODING 170
SWIDTH 667 0
DWIDTH 16 0
BBX 14 23 1 -5
BITMAP
0FC8
3878
6018
E018
E008
F008
FE00
FFC0
7FF0
3FF8
0FFC
01FC
803C
801C
C01C
C018
F070
9FC0
0200
0700
0380
0180
0F00
ENDCHAR
STARTCHAR Tcaron
ENCODING 171
SWIDTH 722 0
DWIDTH 18 0
BBX 16 24 1 0
BITMAP
0C18
0E38
0770
03E0
01C0
0000
FFFF
E3C7
C3C3
83C1
83C1
83C1
03C0
03C0
03C0
03C0
03C0
03C0
03C0
03C0
03C0
03C0
03C0
0FF0
ENDCHAR
STARTCHAR Zacute
ENCODING 172
SWIDTH 667 0
DWIDTH 17 0
BBX 15 24 1 0
BITMAP
0060
00E0
01C0
0180
0300
0000
7FFE
703E
607C
4078
40F8
00F0
01E0
03E0
03C0
0780
0F80
0F00
1E00
3E02
3C02
7806
F80E
FFFE
ENDCHAR
STARTCHAR hyphen
ENCODING 173
SWIDTH 333 0
DWIDTH 8 0
BBX 6 3 1 5
BITMAP
FC
FC
FC
ENDCHAR
STARTCHAR Zcaron
ENCODING 174
SWIDTH 667 0
DWIDTH 17 0
BBX 15 18 1 0
BITMAP
1830
0C60
06C0
0380
0100
0000
7FFE
707C
60F8
41F0
03E0
07C0
0F80
1F02
3E02
7C06
F80E
FFFE
ENDCHAR
STARTCHAR Zdotaccent
ENCODING 175
SWIDTH 667 0
DWIDTH 17 0
BBX 15 23 1 0
BITMAP
0180
03C0
03C0
0180
0000
7FFE
703E
607C
4078
40F8
00F0
01E0
03E0
03C0
0780
0F80
0F00
1E00
3E02
3C02
7806
F80E
FFFE
ENDCHAR
STARTCHAR degree
ENCODING 176
SWIDTH 400 0
DWIDTH 9 0
BBX 8 7 0 11
BITMAP
3C
66
C3
C3
C3
66
3C
ENDCHAR
STARTCHAR aogonek
ENCODING 177
SWIDTH 611 0
DWIDTH 15 0
BBX 14 17 0 -5
BITMAP
7F80
F1E0
F0F0
60F0
01F0
0EF0
78F0
F0F0
F0F0
F0F0
F9FC
7E38
0300
0600
0640
07C0
0380
ENDCHAR
STARTCHAR ogonek
ENCODING 178
SWIDTH 333 0
DWIDTH 7 0
BBX 5 5 1 -5
BITMAP
60
C0
C8
F8
70
ENDCHAR
STARTCHAR lslash
ENCODING 179
SWIDTH 352 0
DWIDTH 9 0
BBX 8 18 0 0
BITMAP
FC
3C
3C
3C
3C
3D
3E
3C
3C
7C
BC
3C
3C
3C
3C
3C
3C
FF
ENDCHAR
STARTCHAR acute
ENCODING 180
SWIDTH 333 0
DWIDTH 7 0
BBX 5 5 1 14
BITMAP
18
38
70
60
C0
ENDCHAR
STARTCHAR lcaron
ENCODING 181
SWIDTH 575 0
DWIDTH 16 0
BBX 15 18 0 0
BITMAP
FC1C
3C3E
3C3E
3C1E
3C0C
3C08
3C10
3C20
3C00
3C00
3C00
3C00
3C00
3C00
3C00
3C00
3C00
FF00
ENDCHAR
STARTCHAR sacute
ENCODING 182
SWIDTH 500 0
DWIDTH 11 0
BBX 10 18 0 0
BITMAP
0300
0700
0E00
0C00
1800
0000
3E80
6380
C180
E080
FC00
FF80
7FC0
0FC0
81C0
C0C0
E180
BF00
ENDCHAR
STARTCHAR caron
ENCODING 183
SWIDTH 333 0
DWIDTH 11 0
BBX 9 5 1 13
BITMAP
C180
E380
7700
3E00
1C00
ENDCHAR
STARTCHAR cedilla
ENCODING 184
SWIDTH 333 0
DWIDTH 7 0
BBX 5 6 1 -5
BITMAP
10
20
70
38
18
F0
ENDCHAR
STARTCHAR scaron
ENCODING 185
SWIDTH 500 0
DWIDTH 12 0
BBX 11 18 0 0
BITMAP
60C0
71C0
3B80
1F00
0E00
0000
3F40
E1C0
C0C0
E040
FC00
FF80
7FE0
0FE0
81E0
C060
E0E0
BF80
ENDCHAR
STARTCHAR scedilla
ENCODING 186
SWIDTH 500 0
DWIDTH 11 0
BBX 10 17 0 -5
BITMAP
3E80
6380
C180
E080
FC00
FF80
7FC0
0FC0
81C0
C0C0
E180
BF00
0800
1C00
0E00
0600
3C00
ENDCHAR
STARTCHAR tcaron
ENCODING 187
SWIDTH 646 0
DWIDTH 17 0
BBX 16 18 0 0
BITMAP
000E
041F
0C1F
0C0F
1C06
3C04
FF88
3C10
3C00
3C00
3C00
3C00
3C00
3C00
3C40
3C40
1F80
0F00
ENDCHAR
STARTCHAR zacute
ENCODING 188
SWIDTH 537 0
DWIDTH 12 0
BBX 11 18 0 0
BITMAP
0180
0380
0700
0600
0C00
0000
FFE0
E1E0
C3E0
87C0
8F80
0F00
1E00
3E20
7C20
F860
F0E0
FFE0
ENDCHAR
STARTCHAR hungarumlaut
ENCODING 189
SWIDTH 333 0
DWIDTH 12 0
BBX 9 5 2 13
BITMAP
7380
7380
E700
C600
8400
ENDCHAR
STARTCHAR zcaron
ENCODING 190
SWIDTH 537 0
DWIDTH 12 0
BBX 11 18 0 0
BITMAP
60C0
71C0
3B80
1F00
0E00
0000
FFE0
E1E0
C3E0
87C0
8F80
0F00
1E00
3E20
7C20
F860
F0E0
FFE0
ENDCHAR
STARTCHAR zdotaccent
ENCODING 191
SWIDTH 537 0
DWIDTH 12 0
BBX 11 17 0 0
BITMAP
0600
0F00
0F00
0600
0000
FFE0
E1E0
C3E0
87C0
8F80
0F00
1E00
3E20
7C20
F860
F0E0
FFE0
ENDCHAR
STARTCHAR Racute
ENCODING 192
SWIDTH 815 0
DWIDTH 21 0
BBX 19 24 1 0
BITMAP
003000
007000
00E000
00C000
018000
000000
FFF800
3C3E00
3C1F00
3C1F00
3C1F00
3C1F00
3C1E00
3C3C00
3FE000
3C7800
3C3C00
3C3C00
3C3E00
3C1E00
3C1F20
3C0F20
3C0FC0
FF8780
ENDCHAR
STARTCHAR Aacute
ENCODING 193
SWIDTH 759 0
DWIDTH 19 0
BBX 19 24 0 0
BITMAP
000600
000E00
001C00
003000
006000
000000
006000
006000
00F000
00F000
017800
017800
033C00
023C00
023C00
061E00
041E00
07FE00
0C0F00
080F00
080F00
180780
380780
FE1FE0
ENDCHAR
STARTCHAR Acircumflex
ENCODING 194
SWIDTH 759 0
DWIDTH 19 0
BBX 19 23 0 0
BITMAP
006000
00F000
019800
030C00
000000
006000
006000
00F000
00F000
017800
017800
033C00
023C00
023C00
061E00
041E00
07FE00
0C0F00
080F00
080F00
180780
380780
FE1FE0
ENDCHAR
STARTCHAR Abreve
ENCODING 195
SWIDTH 759 0
DWIDTH 19 0
BBX 19 23 0 0
BITMAP
040400
071C00
03F800
00E000
000000
006000
006000
00F000
00F000
017800
017800
033C00
023C00
023C00
061E00
041E00
07FE00
0C0F00
080F00
080F00
180780
380780
FE1FE0
ENDCHAR
STARTCHAR Adieresis
ENCODING 196
SWIDTH 759 0
DWIDTH 19 0
BBX 19 23 0 0
BITMAP
039C00
039C00
039C00
000000
000000
006000
006000
00F000
00F000
017800
017800
033C00
023C00
023C00
061E00
041E00
07FE00
0C0F00
080F00
080F00
180780
380780
FE1FE0
ENDCHAR
STARTCHAR Lacute
ENCODING 197
SWIDTH 722 0
DWIDTH 17 0
BBX 15 24 1 0
BITMAP
0300
0700
0E00
0C00
1800
0000
FF00
3C00
3C00
3C00
3C00
3C00
3C00
3C00
3C00
3C00
3C00
3C00
3C02
3C02
3C02
3C06
3C1E
FFFE
ENDCHAR
STARTCHAR Cacute
ENCODING 198
SWIDTH 778 0
DWIDTH 19 0
BBX 17 24 1 0
BITMAP
003000
007000
00E000
00C000
018000
000000
03F980
0F0F80
3C0380
3C0180
780180
780080
F80080
F80000
F80000
F80000
F80000
F80000
780080
780080
3C0100
3C0100
0F0600
03F800
ENDCHAR
STARTCHAR Ccedilla
ENCODING 199
SWIDTH 778 0
DWIDTH 19 0
BBX 17 23 1 -5
BITMAP
03F980
0F0F80
3C0380
3C0180
780180
780080
F80080
F80000
F80000
F80000
F80000
F80000
780080
780080
3C0100
3C0100
0F0600
03F800
008000
01C000
00E000
006000
03C000
ENDCHAR
STARTCHAR Ccaron
ENCODING 200
SWIDTH 778 0
DWIDTH 19 0
BBX 17 24 1 0
BITMAP
060C00
071C00
03B800
01F000
00E000
000000
03F980
0F0F80
3C0380
3C0180
780180
780080
F80080
F80000
F80000
F80000
F80000
F80000
780080
780080
3C0100
3C0100
0F0600
03F800
ENDCHAR
STARTCHAR Eacute
ENCODING 201
SWIDTH 759 0
DWIDTH 18 0
BBX 15 24 1 0
BITMAP
0018
0038
0070
00C0
0180
0000
FFFE
3C1E
3C06
3C02
3C02
3C22
3C20
3C60
3FE0
3C60
3C20
3C20
3C02
3C02
3C02
3C06
3C1E
FFFE
ENDCHAR
STARTCHAR Eogonek
ENCODING 202
SWIDTH 759 0
DWIDTH 18 0
BBX 15 23 1 -5
BITMAP
FFFE
3C1E
3C06
3C02
3C02
3C22
3C20
3C60
3FE0
3C60
3C20
3C20
3C02
3C02
3C02
3C06
3C1E
FFFE
0180
0300
0320
03E0
01C0
ENDCHAR
STARTCHAR Edieresis
ENCODING 203
SWIDTH 759 0
DWIDTH 18 0
BBX 15 23 1 0
BITMAP
0E70
0E70
0E70
0000
0000
FFFE
3C1E
3C06
3C02
3C02
3C22
3C20
3C60
3FE0
3C60
3C20
3C20
3C02
3C02
3C02
3C06
3C1E
FFFE
ENDCHAR
STARTCHAR Ecaron
ENCODING 204
SWIDTH 759 0
DWIDTH 18 0
BBX 15 24 1 0
BITMAP
1830
1C70
0EE0
07C0
0380
0000
FFFE
3C1E
3C06
3C02
3C02
3C22
3C20
3C60
3FE0
3C60
3C20
3C20
3C02
3C02
3C02
3C06
3C1E
FFFE
ENDCHAR
STARTCHAR Iacute
ENCODING 205
SWIDTH 444 0
DWIDTH 10 0
BBX 8 24 1 0
BITMAP
03
07
0E
18
30
00
FF
3C
3C
3C
3C
3C
3C
3C
3C
3C
3C
3C
3C
3C
3C
3C
3C
FF
ENDCHAR
STARTCHAR Icircumflex
ENCODING 206
SWIDTH 444 0
DWIDTH 10 0
BBX 8 23 1 0
BITMAP
18
3C
66
C3
00
FF
3C
3C
3C
3C
3C
3C
3C
3C
3C
3C
3C
3C
3C
3C
3C
3C
FF
ENDCHAR
STARTCHAR Dcaron
ENCODING 207
SWIDTH 833 0
DWIDTH 20 0
BBX 18 24 1 0
BITMAP
0C1800
0E3800
077000
03E000
01C000
000000
FFF000
3C3C00
3C0F00
3C0F00
3C0780
3C0780
3C07C0
3C07C0
3C07C0
3C07C0
3C07C0
3C07C0
3C0780
3C0780
3C0F00
3C0F00
3C3C00
FFF000
ENDCHAR
STARTCHAR Dcroat
ENCODING 208
SWIDTH 833 0
DWIDTH 20 0
BBX 18 18 1 0
BITMAP
FFF000
3C3C00
3C0F00
3C0F00
3C0780
3C0780
3C07C0
3C07C0
FF87C0
3C07C0
3C07C0
3C07C0
3C0780
3C0780
3C0F00
3C0F00
3C3C00
FFF000
ENDCHAR
STARTCHAR Nacute
ENCODING 209
SWIDTH 833 0
DWIDTH 22 0
BBX 20 24 1 0
BITMAP
003000
007000
00E000
00C000
018000
000000
FC07F0
3E01C0
1F0080
1F8080
1FC080
17E080
13F080
11F080
10F880
107C80
107E80
103F80
101F80
100F80
100780
100380
380180
FE0080
ENDCHAR
STARTCHAR Ncaron
ENCODING 210
SWIDTH 833 0
DWIDTH 22 0
BBX 20 24 1 0
BITMAP
060C00
071C00
03B800
01F000
00E000
000000
FC07F0
3E01C0
1F0080
1F8080
1FC080
17E080
13F080
11F080
10F880
107C80
107E80
103F80
101F80
100F80
100780
100380
380180
FE0080
ENDCHAR
STARTCHAR Oacute
ENCODING 211
SWIDTH 833 0
DWIDTH 21 0
BBX 19 23 1 0
BITMAP
001800
003800
006000
00C000
000000
03F800
0F1E00
3C0780
3C0780
7803C0
7803C0
F803E0
F803E0
F803E0
F803E0
F803E0
F803E0
7803C0
7803C0
3C0780
3C0780
0F1E00
03F800
ENDCHAR
STARTCHAR Ocircumflex
ENCODING 212
SWIDTH 833 0
DWIDTH 21 0
BBX 19 23 1 0
BITMAP
006000
00F000
019800
030C00
000000
03F800
0F1E00
3C0780
3C0780
7803C0
7803C0
F803E0
F803E0
F803E0
F803E0
F803E0
F803E0
7803C0
7803C0
3C0780
3C0780
0F1E00
03F800
ENDCHAR
STARTCHAR Ohungarumlaut
ENCODING 213
SWIDTH 833 0
DWIDTH 21 0
BBX 19 24 1 0
BITMAP
01CE00
01CE00
039C00
031800
021000
000000
03F800
0F1E00
3C0780
3C0780
7803C0
7803C0
F803E0
F803E0
F803E0
F803E0
F803E0
F803E0
7803C0
7803C0
3C0780
3C0780
0F1E00
03F800
ENDCHAR
STARTCHAR Odieresis
ENCODING 214
SWIDTH 833 0
DWIDTH 21 0
BBX 19 23 1 0
BITMAP
071C00
071C00
071C00
000000
000000
03F800
0F1E00
3C0780
3C0780
7803C0
7803C0
F803E0
F803E0
F803E0
F803E0
F803E0
F803E0
7803C0
7803C0
3C0780
3C0780
0F1E00
03F800
ENDCHAR
STARTCHAR multiply
ENCODING 215
SWIDTH 606 0
DWIDTH 14 0
BBX 12 12 1 1
BITMAP
C030
E070
70E0
39C0
1F80
0F00
0F00
1F80
39C0
70E0
E070
C030
ENDCHAR
STARTCHAR Rcaron
ENCODING 216
SWIDTH 815 0
DWIDTH 21 0
BBX 19 24 1 0
BITMAP
0C1800
0E3800
077000
03E000
01C000
000000
FFF800
3C3E00
3C1F00
3C1F00
3C1F00
3C1F00
3C1E00
3C3C00
3FE000
3C7800
3C3C00
3C3C00
3C3E00
3C1E00
3C1F20
3C0F20
3C0FC0
FF8780
ENDCHAR
STARTCHAR Uring
ENCODING 217
SWIDTH 833 0
DWIDTH 21 0
BBX 19 24 1 0
BITMAP
01C000
036000
022000
036000
01C000
000000
FF0FE0
3C0380
3C0100
3C0100
3C0100
3C0100
3C0100
3C0100
3C0100
3C0100
3C0100
3C0100
3C0100
3C0100
3C0200
1E0200
1F8C00
07F800
ENDCHAR
STARTCHAR Uacute
ENCODING 218
SWIDTH 833 0
DWIDTH 21 0
BBX 19 24 1 0
BITMAP
000600
000E00
001C00
003000
006000
000000
FF0FE0
3C0380
3C0100
3C0100
3C0100
3C0100
3C0100
3C0100
3C0100
3C0100
3C0100
3C0100
3C0100
3C0100
3C0100
1E0200
1F8E00
07F800
ENDCHAR
STARTCHAR Uhungarumlaut
ENCODING 219
SWIDTH 833 0
DWIDTH 21 0
BBX 19 24 1 0
BITMAP
039C00
039C00
073800
063000
042000
000000
FF0FE0
3C0380
3C0100
3C0100
3C0100
3C0100
3C0100
3C0100
3C0100
3C0100
3C0100
3C0100
3C0100
3C0100
3C0200
1E0200
1F8C00
07F800
ENDCHAR
STARTCHAR Udieresis
ENCODING 220
SWIDTH 833 0
DWIDTH 21 0
BBX 19 23 1 0
BITMAP
071C00
071C00
071C00
000000
000000
FF0FE0
3C0380
3C0100
3C0100
3C0100
3C0100
3C0100
3C0100
3C0100
3C0100
3C0100
3C0100
3C0100
3C0100
3C0100
1E0200
1F8E00
07F800
ENDCHAR
STARTCHAR Yacute
ENCODING 221
SWIDTH 722 0
DWIDTH 18 0
BBX 18 24 0 0
BITMAP
000600
000E00
001C00
003000
006000
000000
FF0FC0
3C0300
1E0600
1E0600
0F0C00
0F0C00
079800
079800
03F000
03F000
01E000
01E000
01E000
01E000
01E000
01E000
01E000
07F800
ENDCHAR
STARTCHAR Tcommaaccent
ENCODING 222
SWIDTH 722 0
DWIDTH 18 0
BBX 16 23 1 -5
BITMAP
FFFF
E3C7
C3C3
83C1
83C1
83C1
03C0
03C0
03C0
03C0
03C0
03C0
03C0
03C0
03C0
03C0
03C0
0FF0
0100
0380
01C0
00C0
0780
ENDCHAR
STARTCHAR germandbls
ENCODING 223
SWIDTH 611 0
DWIDTH 15 0
BBX 15 18 -1 0
BITMAP
07E0
1E78
1C3C
3C3C
3C3C
3C38
3C70
3DE0
3C3C
3C1E
3C1E
3C1E
3C1E
3C1E
3C1E
3C1C
3D3C
FDF0
ENDCHAR
STARTCHAR racute
ENCODING 224
SWIDTH 519 0
DWIDTH 12 0
BBX 12 18 0 0
BITMAP
0180
0380
0700
0600
0C00
0000
FCE0
3DF0
3EF0
3C60
3C00
3C00
3C00
3C00
3C00
3C00
3C00
FF00
ENDCHAR
STARTCHAR aacute
ENCODING 225
SWIDTH 611 0
DWIDTH 15 0
BBX 14 18 0 0
BITMAP
0180
0380
0700
0600
0C00
0000
7F80
F1E0
F0F0
60F0
01F0
0EF0
78F0
F0F0
F0F0
F0F0
F9FC
7E38
ENDCHAR
STARTCHAR acircumflex
ENCODING 226
SWIDTH 611 0
DWIDTH 15 0
BBX 14 18 0 0
BITMAP
0200
0700
0F80
18C0
3060
0000
7F80
F1E0
F0F0
60F0
01F0
0EF0
78F0
F0F0
F0F0
F0F0
F9FC
7E38
ENDCHAR
STARTCHAR abreve
ENCODING 227
SWIDTH 611 0
DWIDTH 15 0
BBX 14 17 0 0
BITMAP
2020
38E0
1FC0
0700
0000
7F80
F1E0
F0F0
60F0
01F0
0EF0
78F0
F0F0
F0F0
F0F0
F9FC
7E38
ENDCHAR
STARTCHAR adieresis
ENCODING 228
SWIDTH 611 0
DWIDTH 15 0
BBX 14 17 0 0
BITMAP
38E0
38E0
38E0
0000
0000
7F80
F1E0
F0F0
60F0
01F0
0EF0
78F0
F0F0
F0F0
F0F0
F9FC
7E38
ENDCHAR
STARTCHAR lacute
ENCODING 229
SWIDTH 352 0
DWIDTH 9 0
BBX 8 24 0 0
BITMAP
06
0E
1C
18
30
00
FC
3C
3C
3C
3C
3C
3C
3C
3C
3C
3C
3C
3C
3C
3C
3C
3C
FF
ENDCHAR
STARTCHAR cacute
ENCODING 230
SWIDTH 556 0
DWIDTH 14 0
BBX 13 18 0 0
BITMAP
00C0
01C0
0380
0300
0600
0000
0FF0
3878
7878
7030
F000
F000
F000
F000
7808
7808
3C30
1FE0
ENDCHAR
STARTCHAR ccedilla
ENCODING 231
SWIDTH 556 0
DWIDTH 14 0
BBX 13 17 0 -5
BITMAP
0FF0
3878
7878
7030
F000
F000
F000
F000
7808
7808
3C30
1FE0
0200
0700
0380
0180
0F00
ENDCHAR
STARTCHAR ccaron
ENCODING 232
SWIDTH 556 0
DWIDTH 14 0
BBX 13 18 0 0
BITMAP
1830
1C70
0EE0
07C0
0380
0000
0FF0
3878
7878
7030
F000
F000
F000
F000
7808
7808
3C30
1FE0
ENDCHAR
STARTCHAR eacute
ENCODING 233
SWIDTH 574 0
DWIDTH 15 0
BBX 14 18 0 0
BITMAP
0060
00E0
01C0
0380
0600
0000
0FC0
3870
7878
7038
F03C
FFFC
F000
F000
7808
7808
3C30
0FE0
ENDCHAR
STARTCHAR eogonek
ENCODING 234
SWIDTH 574 0
DWIDTH 15 0
BBX 14 17 0 -5
BITMAP
0FC0
3870
7878
7038
F03C
FFFC
F000
F000
7808
7808
3C30
0FE0
0300
0600
0640
07C0
0380
ENDCHAR
STARTCHAR edieresis
ENCODING 235
SWIDTH 574 0
DWIDTH 15 0
BBX 14 17 0 0
BITMAP
1C70
1C70
1C70
0000
0000
0FC0
3870
7878
7038
F03C
FFFC
F000
F000
7808
7808
3C30
0FE0
ENDCHAR
STARTCHAR ecaron
ENCODING 236
SWIDTH 574 0
DWIDTH 15 0
BBX 14 18 0 0
BITMAP
1830
1C70
0EE0
07C0
0380
0000
0FC0
3870
7878
7038
F03C
FFFC
F000
F000
7808
7808
3C30
0FE0
ENDCHAR
STARTCHAR iacute
ENCODING 237
SWIDTH 370 0
DWIDTH 9 0
BBX 8 18 0 0
BITMAP
0C
1C
38
30
60
00
FC
3C
3C
3C
3C
3C
3C
3C
3C
3C
3C
FF
ENDCHAR
STARTCHAR icircumflex
ENCODING 238
SWIDTH 370 0
DWIDTH 9 0
BBX 9 18 0 0
BITMAP
0800
1C00
3E00
6300
C180
0000
FC00
3C00
3C00
3C00
3C00
3C00
3C00
3C00
3C00
3C00
3C00
FF00
ENDCHAR
STARTCHAR dcaron
ENCODING 239
SWIDTH 875 0
DWIDTH 23 0
BBX 22 18 0 0
BITMAP
00FC38
003C7C
003C7C
003C3C
003C18
003C10
0FBC20
38FC40
787C00
703C00
F03C00
F03C00
F03C00
F03C00
703C00
787C00
38FC00
0FBF00
ENDCHAR
STARTCHAR dcroat
ENCODING 240
SWIDTH 667 0
DWIDTH 17 0
BBX 16 18 0 0
BITMAP
00FC
003C
003C
003C
00FF
00FF
0FBC
38FC
787C
703C
F03C
F03C
F03C
F03C
703C
787C
38FC
0FBF
ENDCHAR
STARTCHAR nacute
ENCODING 241
SWIDTH 685 0
DWIDTH 18 0
BBX 17 18 0 0
BITMAP
006000
00E000
01C000
018000
030000
000000
FCF800
3DFC00
3E3E00
3C1E00
3C1E00
3C1E00
3C1E00
3C1E00
3C1E00
3C1E00
3C1E00
FE3F80
ENDCHAR
STARTCHAR ncaron
ENCODING 242
SWIDTH 685 0
DWIDTH 18 0
BBX 17 18 0 0
BITMAP
0C1800
0E3800
077000
03E000
01C000
000000
FCF800
3DFC00
3E3E00
3C1E00
3C1E00
3C1E00
3C1E00
3C1E00
3C1E00
3C1E00
3C1E00
FE3F80
ENDCHAR
STARTCHAR oacute
ENCODING 243
SWIDTH 611 0
DWIDTH 15 0
BBX 14 18 0 0
BITMAP
0060
00E0
01C0
0300
0600
0000
0FC0
3870
7878
7038
F03C
F03C
F03C
F03C
7038
7878
3870
0FC0
ENDCHAR
STARTCHAR ocircumflex
ENCODING 244
SWIDTH 611 0
DWIDTH 15 0
BBX 14 18 0 0
BITMAP
0200
0700
0F80
18C0
3060
0000
0FC0
3870
7878
7038
F03C
F03C
F03C
F03C
7038
7878
3870
0FC0
ENDCHAR
STARTCHAR ohungarumlaut
ENCODING 245
SWIDTH 611 0
DWIDTH 15 0
BBX 14 18 0 0
BITMAP
0E70
0E70
1CE0
18C0
1080
0000
0FC0
3870
7878
7038
F03C
F03C
F03C
F03C
7038
7878
3870
0FC0
ENDCHAR
STARTCHAR odieresis
ENCODING 246
SWIDTH 611 0
DWIDTH 15 0
BBX 14 17 0 0
BITMAP
38E0
38E0
38E0
0000
0000
0FC0
3870
7878
7038
F03C
F03C
F03C
F03C
7038
7878
3870
0FC0
ENDCHAR
STARTCHAR divide
ENCODING 247
SWIDTH 606 0
DWIDTH 14 0
BBX 12 12 1 1
BITMAP
0600
0600
0600
0000
0000
FFF0
FFF0
0000
0000
0600
0600
0600
ENDCHAR
STARTCHAR rcaron
ENCODING 248
SWIDTH 519 0
DWIDTH 12 0
BBX 12 18 0 0
BITMAP
3060
38E0
1DC0
0F80
0700
0000
FCE0
3DF0
3EF0
3C60
3C00
3C00
3C00
3C00
3C00
3C00
3C00
FF00
ENDCHAR
STARTCHAR uring
ENCODING 249
SWIDTH 685 0
DWIDTH 18 0
BBX 17 18 0 0
BITMAP
01C000
036000
022000
036000
01C000
000000
FE7E00
3C1E00
3C1E00
3C1E00
3C1E00
3C1E00
3C1E00
3C1E00
3C1E00
3E3E00
1FDE00
0F9F80
ENDCHAR
STARTCHAR uacute
ENCODING 250
SWIDTH 685 0
DWIDTH 18 0
BBX 17 18 0 0
BITMAP
006000
00E000
01C000
018000
030000
000000
FE3F80
3C1E00
3C1E00
3C1E00
3C1E00
3C1E00
3C1E00
3C1E00
3C1E00
3E3E00
1FDE00
0F9F80
ENDCHAR
STARTCHAR uhungarumlaut
ENCODING 251
SWIDTH 685 0
DWIDTH 18 0
BBX 17 18 0 0
BITMAP
039C00
039C00
073800
063000
042000
000000
FE7E00
3C1E00
3C1E00
3C1E00
3C1E00
3C1E00
3C1E00
3C1E00
3C1E00
3E3E00
1FDE00
0F9F80
ENDCHAR
STARTCHAR udieresis
ENCODING 252
SWIDTH 685 0
DWIDTH 18 0
BBX 17 17 0 0
BITMAP
0E3800
0E3800
0E3800
000000
000000
FE3F80
3C1E00
3C1E00
3C1E00
3C1E00
3C1E00
3C1E00
3C1E00
3C1E00
3E3E00
1FDE00
0F9F80
ENDCHAR
STARTCHAR yacute
ENCODING 253
SWIDTH 611 0
DWIDTH 15 0
BBX 16 23 -1 -5
BITMAP
0030
0070
00E0
00C0
0180
0000
FE3F
3C0C
1E08
1E18
0F10
0F30
07A0
07E0
03C0
03C0
01C0
0180
0180
6100
F300
FE00
7800
ENDCHAR
STARTCHAR tcommaaccent
ENCODING 254
SWIDTH 426 0
DWIDTH 10 0
BBX 10 22 0 -5
BITMAP
0400
0C00
0C00
1C00
3C00
FF80
3C00
3C00
3C00
3C00
3C00
3C00
3C00
3C40
3C40
1F80
0F00
0800
1C00
0E00
0600
3C00
ENDCHAR
STARTCHAR dotaccent
ENCODING 255
SWIDTH 333 0
DWIDTH 8 0
BBX 4 4 2 13
BITMAP
60
F0
F0
60
ENDCHAR
ENDFONT
