STARTFONT 2.1
COMMENT AUTOMATICALLY GENERATED FILE. DO NOT EDIT!
COMMENT Generated with 'ucs2any ncenBI18.bdf /usr/local/share/fonts/X11/util/map-ISO8859-2 ISO8859-2'
COMMENT from an ISO10646-1 encoded source BDF font.
COMMENT ucs2any by Ben Collver <collver1@attbi.com>, 2003, based on
COMMENT ucs2any.pl by Markus Kuhn <http://www.cl.cam.ac.uk/~mgk25/>, 2000.
FONT -Adobe-New Century Schoolbook-Bold-I-Normal--25-180-100-100-P-148-ISO8859-2
SIZE 18 100 100
FONTBOUNDINGBOX 30 29 -5 -5
COMMENT ISO10646-1 extension by Markus Kuhn <mkuhn@acm.org>, 2001-03-20
COMMENT
COMMENT +
COMMENT  Copyright 1984-1989, 1994 Adobe Systems Incorporated.
COMMENT  Copyright 1988, 1994 Digital Equipment Corporation.
COMMENT
COMMENT  Adobe is a trademark of Adobe Systems Incorporated which may be
COMMENT  registered in certain jurisdictions.
COMMENT  Permission to use these trademarks is hereby granted only in
COMMENT  association with the images described in this file.
COMMENT
COMMENT  Permission to use, copy, modify, distribute and sell this software
COMMENT  and its documentation for any purpose and without fee is hereby
COMMENT  granted, provided that the above copyright notices appear in all
COMMENT  copies and that both those copyright notices and this permission
COMMENT  notice appear in supporting documentation, and that the names of
COMMENT  Adobe Systems and Digital Equipment Corporation not be used in
COMMENT  advertising or publicity pertaining to distribution of the software
COMMENT  without specific, written prior permission.  Adobe Systems and
COMMENT  Digital Equipment Corporation make no representations about the
COMMENT  suitability of this software for any purpose.  It is provided "as
COMMENT  is" without express or implied warranty.
COMMENT -
STARTPROPERTIES 26
FOUNDRY "Adobe"
FAMILY_NAME "New Century Schoolbook"
WEIGHT_NAME "Bold"
SLANT "I"
SETWIDTH_NAME "Normal"
ADD_STYLE_NAME ""
PIXEL_SIZE 25
POINT_SIZE 180
RESOLUTION_X 100
RESOLUTION_Y 100
SPACING "P"
AVERAGE_WIDTH 148
CHARSET_REGISTRY "ISO8859"
CHARSET_ENCODING "2"
CAP_HEIGHT 18
X_HEIGHT 12
FONT_ASCENT 21
FONT_DESCENT 5
FACE_NAME "New Century Schoolbook Bold Italic"
COPYRIGHT "Copyright (c) 1984, 1987 Adobe Systems Incorporated. All Rights Reserved. Copyright (c) 1988, 1991 Digital Equipment Corporation. All Rights Reserved."
NOTICE "New Century Schoolbook is a trademark of Linotype-Hell AG and/or its subsidiaries."
_DEC_DEVICE_FONTNAMES "PS=NewCenturySchlbk-BoldItalic"
DEFAULT_CHAR 0
RELATIVE_SETWIDTH 50
RELATIVE_WEIGHT 70
FULL_NAME "New Century Schoolbook Bold Italic"
ENDPROPERTIES
CHARS 192
STARTCHAR defaultchar
ENCODING 0
SWIDTH 870 0
DWIDTH 23 0
BBX 21 17 0 0
BITMAP
AAAAA8
000000
800008
000000
800008
000000
800008
000000
800008
000000
800008
000000
800008
000000
800008
000000
AAAAA8
ENDCHAR
STARTCHAR space
ENCODING 32
SWIDTH 287 0
DWIDTH 7 0
BBX 1 1 0 0
BITMAP
00
ENDCHAR
STARTCHAR exclam
ENCODING 33
SWIDTH 333 0
DWIDTH 8 0
BBX 7 18 0 0
BITMAP
1C
3E
3E
3E
3C
3C
38
38
38
30
30
30
30
00
70
F8
F8
70
ENDCHAR
STARTCHAR quotedbl
ENCODING 34
SWIDTH 400 0
DWIDTH 9 0
BBX 7 6 1 12
BITMAP
EE
EE
EE
CC
CC
88
ENDCHAR
STARTCHAR numbersign
ENCODING 35
SWIDTH 606 0
DWIDTH 14 0
BBX 13 18 0 0
BITMAP
0C60
0C60
0C60
0C60
0C60
7FF8
7FF8
18C0
18C0
18C0
18C0
FFF0
FFF0
3180
3180
3180
3180
3180
ENDCHAR
STARTCHAR dollar
ENCODING 36
SWIDTH 574 0
DWIDTH 14 0
BBX 13 21 0 -2
BITMAP
0080
07E0
1D30
3938
3178
7278
7A30
7E00
7F00
3FC0
1FE0
07F0
03F0
62F0
F270
F460
E4E0
65C0
3F00
0800
0800
ENDCHAR
STARTCHAR percent
ENCODING 37
SWIDTH 889 0
DWIDTH 21 0
BBX 20 19 0 -1
BITMAP
0F0400
3C9C00
38EC00
708800
709800
E11000
E13000
E22000
E461E0
784790
00C710
008E10
018E10
011C20
031C20
021C40
061C80
040F00
040000
ENDCHAR
STARTCHAR ampersand
ENCODING 38
SWIDTH 889 0
DWIDTH 21 0
BBX 21 18 0 0
BITMAP
00FC00
03CE00
038600
078600
078C00
07DC00
03F000
07C000
1FE000
39E1F8
71F0E0
70F0C0
F0F980
F07900
F07E00
F83E10
7C7F20
1F8FC0
ENDCHAR
STARTCHAR quotesingle
ENCODING 39
SWIDTH 287 0
DWIDTH 5 0
BBX 2 6 1 12
BITMAP
C0
C0
C0
C0
C0
C0
ENDCHAR
STARTCHAR parenleft
ENCODING 40
SWIDTH 407 0
DWIDTH 9 0
BBX 8 21 0 -3
BITMAP
01
06
0C
18
38
30
70
60
E0
E0
E0
E0
E0
E0
E0
E0
60
70
30
18
04
ENDCHAR
STARTCHAR parenright
ENCODING 41
SWIDTH 407 0
DWIDTH 9 0
BBX 8 21 0 -3
BITMAP
20
18
0C
0E
06
07
07
07
07
07
07
07
07
06
0E
0C
1C
18
30
60
80
ENDCHAR
STARTCHAR asterisk
ENCODING 42
SWIDTH 500 0
DWIDTH 12 0
BBX 11 10 0 8
BITMAP
0700
6700
7660
74E0
0FE0
FE00
E5C0
CDC0
1CC0
1C00
ENDCHAR
STARTCHAR plus
ENCODING 43
SWIDTH 606 0
DWIDTH 15 0
BBX 12 12 1 1
BITMAP
0600
0600
0600
0600
0600
FFF0
FFF0
0600
0600
0600
0600
0600
ENDCHAR
STARTCHAR comma
ENCODING 44
SWIDTH 287 0
DWIDTH 7 0
BBX 5 8 0 -4
BITMAP
70
F8
F8
78
10
20
40
80
ENDCHAR
STARTCHAR hyphen
ENCODING 45
SWIDTH 333 0
DWIDTH 7 0
BBX 6 2 0 6
BITMAP
FC
FC
ENDCHAR
STARTCHAR period
ENCODING 46
SWIDTH 287 0
DWIDTH 7 0
BBX 5 4 0 0
BITMAP
70
F8
F8
70
ENDCHAR
STARTCHAR slash
ENCODING 47
SWIDTH 278 0
DWIDTH 8 0
BBX 7 18 0 0
BITMAP
06
06
06
0C
0C
0C
18
18
18
30
30
30
60
60
60
C0
C0
C0
ENDCHAR
STARTCHAR zero
ENCODING 48
SWIDTH 574 0
DWIDTH 14 0
BBX 13 18 0 0
BITMAP
07C0
1EE0
3C70
3C70
7878
7878
7878
F078
F078
F078
F078
F0F0
F0F0
F0F0
71E0
71E0
7BC0
1F00
ENDCHAR
STARTCHAR one
ENCODING 49
SWIDTH 574 0
DWIDTH 14 0
BBX 10 18 1 0
BITMAP
0180
0780
3F80
0780
0780
0780
0F00
0F00
0F00
0F00
0F00
0F00
1E00
1E00
1E00
1E00
1E00
FFC0
ENDCHAR
STARTCHAR two
ENCODING 50
SWIDTH 574 0
DWIDTH 14 0
BBX 13 18 0 0
BITMAP
03C0
0FF0
18F0
3078
3878
3C78
3C78
1870
00F0
01E0
0380
0700
0C10
1810
3030
7FE0
FFE0
FFE0
ENDCHAR
STARTCHAR three
ENCODING 51
SWIDTH 574 0
DWIDTH 14 0
BBX 13 18 0 0
BITMAP
07C0
1CF0
3C78
3C78
1878
0078
00F0
01E0
0780
01E0
00E0
00F0
60F0
F0F0
F1E0
E1E0
63C0
3F00
ENDCHAR
STARTCHAR four
ENCODING 52
SWIDTH 574 0
DWIDTH 14 0
BBX 13 18 0 0
BITMAP
0018
0038
0078
00F0
01F0
03F0
06F0
0CE0
19E0
31E0
61E0
C1E0
83C0
FFF8
03C0
03C0
07C0
1FF0
ENDCHAR
STARTCHAR five
ENCODING 53
SWIDTH 574 0
DWIDTH 14 0
BBX 13 18 0 0
BITMAP
1FF8
1FF0
1FE0
1800
1800
3000
3780
3FE0
21F0
00F0
00F0
00F0
60F0
F0F0
F1E0
E1E0
63C0
3F00
ENDCHAR
STARTCHAR six
ENCODING 54
SWIDTH 574 0
DWIDTH 14 0
BBX 13 18 0 0
BITMAP
07E0
1E30
3C78
3C78
7830
7800
7800
F380
F7E0
F8F0
F0F0
F0F0
F0F0
F0F0
70E0
71E0
79C0
1F00
ENDCHAR
STARTCHAR seven
ENCODING 55
SWIDTH 574 0
DWIDTH 14 0
BBX 13 18 0 0
BITMAP
7FF8
7FF8
7FF0
C060
8060
80C0
00C0
0180
0380
0300
0700
0E00
0E00
1E00
1E00
3E00
3E00
1C00
ENDCHAR
STARTCHAR eight
ENCODING 56
SWIDTH 574 0
DWIDTH 14 0
BBX 13 18 0 0
BITMAP
07E0
1C70
1838
3838
3838
3C30
3E70
1FC0
1FC0
1FE0
73E0
61F0
E0F0
E0F0
E0F0
E0E0
F1E0
3F80
ENDCHAR
STARTCHAR nine
ENCODING 57
SWIDTH 574 0
DWIDTH 14 0
BBX 13 18 0 0
BITMAP
07C0
1CF0
3C70
3878
7878
7878
7878
7878
78F8
3F78
0E78
00F0
00F0
60F0
F1E0
F1E0
63C0
3F00
ENDCHAR
STARTCHAR colon
ENCODING 58
SWIDTH 287 0
DWIDTH 9 0
BBX 7 12 0 0
BITMAP
1C
3E
3E
1C
00
00
00
00
70
F8
F8
70
ENDCHAR
STARTCHAR semicolon
ENCODING 59
SWIDTH 287 0
DWIDTH 9 0
BBX 7 16 0 -4
BITMAP
1C
3E
3E
1C
00
00
00
00
70
F8
F8
78
10
20
40
80
ENDCHAR
STARTCHAR less
ENCODING 60
SWIDTH 606 0
DWIDTH 16 0
BBX 13 15 1 0
BITMAP
0008
0038
00F8
03E0
0F80
3E00
F800
E000
F800
3E00
0F80
03E0
00F8
0038
0008
ENDCHAR
STARTCHAR equal
ENCODING 61
SWIDTH 606 0
DWIDTH 15 0
BBX 12 6 1 4
BITMAP
FFF0
FFF0
0000
0000
FFF0
FFF0
ENDCHAR
STARTCHAR greater
ENCODING 62
SWIDTH 606 0
DWIDTH 16 0
BBX 13 15 1 0
BITMAP
8000
E000
F800
3E00
0F80
03E0
00F8
0038
00F8
03E0
0F80
3E00
F800
E000
8000
ENDCHAR
STARTCHAR question
ENCODING 63
SWIDTH 481 0
DWIDTH 12 0
BBX 10 18 1 0
BITMAP
3E00
4780
83C0
83C0
07C0
0F80
3F00
7E00
F800
F000
E000
C400
7800
0000
7000
F800
F800
7000
ENDCHAR
STARTCHAR at
ENCODING 64
SWIDTH 747 0
DWIDTH 21 0
BBX 18 18 1 0
BITMAP
03FE00
0E0300
180180
300180
61DCC0
673CC0
C71CC0
CE1CC0
CE1CC0
CE38C0
CE3980
CE3980
CE7B00
C79E00
C00000
600600
381C00
0FF000
ENDCHAR
STARTCHAR A
ENCODING 65
SWIDTH 741 0
DWIDTH 20 0
BBX 20 18 -1 0
BITMAP
000800
001800
001C00
003C00
007C00
007E00
00DE00
019E00
011F00
031F00
060F00
040F80
0FFF80
180F80
1807C0
3007C0
7007C0
FC1FF0
ENDCHAR
STARTCHAR B
ENCODING 66
SWIDTH 759 0
DWIDTH 19 0
BBX 18 18 0 0
BITMAP
3FFE00
0F8F80
0F87C0
0F87C0
0F87C0
0F87C0
1F0780
1F0F00
1FFC00
1F0F00
1F0780
1F07C0
3E07C0
3E07C0
3E07C0
3E0F80
3E1F00
FFFC00
ENDCHAR
STARTCHAR C
ENCODING 67
SWIDTH 759 0
DWIDTH 18 0
BBX 17 18 0 0
BITMAP
01FC80
0F8780
1E0380
3E0100
3C0100
7C0100
780000
F80000
F80000
F80000
F80000
F80000
F80000
780100
7C0300
3C0600
1E1C00
07F000
ENDCHAR
STARTCHAR D
ENCODING 68
SWIDTH 833 0
DWIDTH 21 0
BBX 20 18 0 0
BITMAP
3FFE00
0F8780
0F83C0
0F83E0
0F81E0
0F81F0
1F01F0
1F01F0
1F01F0
1F01F0
1F01F0
1F01E0
3E03E0
3E03C0
3E07C0
3E0780
3E1F00
FFF800
ENDCHAR
STARTCHAR E
ENCODING 69
SWIDTH 741 0
DWIDTH 18 0
BBX 17 18 0 0
BITMAP
3FFF80
0F8380
0F8180
0F8100
0F8100
0F8400
1F0400
1F0C00
1FFC00
1F1800
1F0800
1F0800
3E0900
3E0100
3E0300
3E0600
3E0E00
FFFE00
ENDCHAR
STARTCHAR F
ENCODING 70
SWIDTH 704 0
DWIDTH 17 0
BBX 17 18 0 0
BITMAP
3FFF80
0F8380
0F8180
0F8100
0F8100
0F8400
1F0400
1F0C00
1FFC00
1F1800
1F0800
1F0800
3E0800
3E0000
3E0000
3E0000
3E0000
FF8000
ENDCHAR
STARTCHAR G
ENCODING 71
SWIDTH 815 0
DWIDTH 19 0
BBX 18 18 0 0
BITMAP
01FE40
0F83C0
1E01C0
3E0080
3C0080
7C0080
780000
F80000
F80000
F80000
F81FC0
F80780
F80780
780780
7C0F00
3C0F00
1E1F00
07F100
ENDCHAR
STARTCHAR H
ENCODING 72
SWIDTH 870 0
DWIDTH 23 0
BBX 22 18 0 0
BITMAP
3FE7FC
0F81F0
0F81F0
0F81F0
0F81F0
0F81F0
1F03E0
1F03E0
1FFFE0
1F03E0
1F03E0
1F03E0
3E07C0
3E07C0
3E07C0
3E07C0
3E07C0
FF9FF0
ENDCHAR
STARTCHAR I
ENCODING 73
SWIDTH 444 0
DWIDTH 12 0
BBX 11 18 0 0
BITMAP
3FE0
0F80
0F80
0F80
0F80
0F80
1F00
1F00
1F00
1F00
1F00
1F00
3E00
3E00
3E00
3E00
3E00
FF80
ENDCHAR
STARTCHAR J
ENCODING 74
SWIDTH 667 0
DWIDTH 17 0
BBX 17 18 -1 0
BITMAP
00FF80
003E00
003E00
003E00
003E00
003E00
007C00
007C00
007C00
007C00
007C00
387C00
7CF800
FCF800
D8F800
C0F800
71F000
1FC000
ENDCHAR
STARTCHAR K
ENCODING 75
SWIDTH 778 0
DWIDTH 20 0
BBX 20 18 0 0
BITMAP
3FE3F0
0F81C0
0F8180
0F8300
0F8600
0F8C00
1F1800
1F3000
1F7800
1FF800
1F7C00
1F3E00
3E3E00
3E1F00
3E1F80
3E0F80
3E0FC0
FF9FE0
ENDCHAR
STARTCHAR L
ENCODING 76
SWIDTH 704 0
DWIDTH 18 0
BBX 17 18 0 0
BITMAP
3FE000
0F8000
0F8000
0F8000
0F8000
0F8000
1F0000
1F0000
1F0000
1F0000
1F0000
1F0000
3E0080
3E0080
3E0180
3E0300
3E0F00
FFFF00
ENDCHAR
STARTCHAR M
ENCODING 77
SWIDTH 944 0
DWIDTH 26 0
BBX 25 18 0 0
BITMAP
3FC03F80
0FC07E00
0FC07E00
0FC0FE00
0FC0BE00
0BE1BE00
0BE17C00
1BE37C00
1BE27C00
1BE67C00
11E47C00
11EC7C00
11F8F800
31F8F800
31F0F800
30F0F800
30E0F800
FCE3FE00
ENDCHAR
STARTCHAR N
ENCODING 78
SWIDTH 852 0
DWIDTH 22 0
BBX 21 18 0 0
BITMAP
3E01F8
0F0060
0F8060
0FC060
0FE040
0FE040
0BF040
19F8C0
18FCC0
18FC80
187E80
103F80
101F80
301F00
300F00
300700
300300
FC0300
ENDCHAR
STARTCHAR O
ENCODING 79
SWIDTH 833 0
DWIDTH 20 0
BBX 19 18 0 0
BITMAP
01FC00
0F8F00
1E0780
3E07C0
3C03C0
7C03E0
7803E0
F803E0
F803E0
F803E0
F803E0
F803C0
F807C0
780780
7C0F80
3C0F00
1E3E00
07F000
ENDCHAR
STARTCHAR P
ENCODING 80
SWIDTH 741 0
DWIDTH 19 0
BBX 19 18 0 0
BITMAP
3FFF00
0F87C0
0F83E0
0F83E0
0F83E0
0F83E0
1F03E0
1F07C0
1F0F80
1FFE00
1F0000
1F0000
3E0000
3E0000
3E0000
3E0000
3E0000
FF8000
ENDCHAR
STARTCHAR Q
ENCODING 81
SWIDTH 833 0
DWIDTH 20 0
BBX 19 23 0 -5
BITMAP
01FC00
0F8F00
1E0780
3E07C0
3C03C0
7C03E0
7803E0
F803E0
F803E0
F803E0
F803E0
F9C3C0
FBE7C0
7CE780
7C6780
3C6F00
1E7E00
07F800
003C00
003C00
001E40
001F80
000F00
ENDCHAR
STARTCHAR R
ENCODING 82
SWIDTH 796 0
DWIDTH 20 0
BBX 19 18 0 0
BITMAP
3FFF00
0F87C0
0F83E0
0F83E0
0F83E0
0F83E0
1F03C0
1F0780
1FFC00
1F3C00
1F1E00
1F1E00
3E1F00
3E1F00
3E1F20
3E0FA0
3E0FC0
FF8780
ENDCHAR
STARTCHAR S
ENCODING 83
SWIDTH 685 0
DWIDTH 16 0
BBX 15 18 0 0
BITMAP
03F2
0E1E
180E
3804
3804
3C04
3F00
3FE0
1FF8
1FF8
07FC
00FC
403C
401C
401C
E018
F070
9FC0
ENDCHAR
STARTCHAR T
ENCODING 84
SWIDTH 722 0
DWIDTH 18 0
BBX 17 18 0 0
BITMAP
7FFF80
73E780
E3E380
C3E300
83E100
83E100
07C000
07C000
07C000
07C000
07C000
07C000
0F8000
0F8000
0F8000
0F8000
0F8000
3FE000
ENDCHAR
STARTCHAR U
ENCODING 85
SWIDTH 833 0
DWIDTH 20 0
BBX 19 18 1 0
BITMAP
FF87E0
3E0180
3E0180
3E0180
3E0180
7C0100
7C0100
7C0300
7C0300
7C0300
7C0200
F80200
F80600
F80600
F80600
F80C00
7C3C00
1FF000
ENDCHAR
STARTCHAR V
ENCODING 86
SWIDTH 741 0
DWIDTH 19 0
BBX 20 18 0 0
BITMAP
FF83F0
3E00C0
3E0080
3E0180
1F0100
1F0300
1F0200
0F8600
0F8400
0F8C00
07C800
07D800
07D000
03F000
03E000
03E000
01C000
01C000
ENDCHAR
STARTCHAR W
ENCODING 87
SWIDTH 944 0
DWIDTH 25 0
BBX 25 18 0 0
BITMAP
FF8F1F80
3E0F0600
3E0F0400
3E1F0C00
3E1F0800
3E1F0800
1F3F9800
1F2F9000
1F2F9000
1F6FB000
1F4FA000
1F4FA000
0F87C000
0F87C000
0F078000
07038000
06030000
06030000
ENDCHAR
STARTCHAR X
ENCODING 88
SWIDTH 741 0
DWIDTH 21 0
BBX 22 18 -1 0
BITMAP
1FF1FC
07C070
03E060
03E0C0
01F180
01F300
00FE00
00FC00
007C00
007C00
00FE00
01BE00
031F00
061F00
0C0F80
180F80
3807C0
FC1FF0
ENDCHAR
STARTCHAR Y
ENCODING 89
SWIDTH 704 0
DWIDTH 18 0
BBX 19 18 0 0
BITMAP
FF8FE0
3E0380
3E0300
3E0600
1F0400
1F0C00
1F1800
0F9000
0FB000
0FE000
07C000
07C000
078000
0F8000
0F8000
0F8000
0F8000
3FE000
ENDCHAR
STARTCHAR Z
ENCODING 90
SWIDTH 704 0
DWIDTH 18 0
BBX 17 18 0 0
BITMAP
1FFF80
1C0F80
181F80
303F00
207E00
207C00
00F800
01F000
03F000
07E000
0FC000
0F8000
1F0100
3F0100
7E0300
FC0600
FC0E00
FFFE00
ENDCHAR
STARTCHAR bracketleft
ENCODING 91
SWIDTH 407 0
DWIDTH 9 0
BBX 9 21 0 -3
BITMAP
1F80
1C00
1C00
1C00
1C00
3800
3800
3800
3800
3800
7000
7000
7000
7000
7000
E000
E000
E000
E000
E000
FC00
ENDCHAR
STARTCHAR backslash
ENCODING 92
SWIDTH 606 0
DWIDTH 11 0
BBX 10 18 0 0
BITMAP
C000
C000
6000
6000
3000
3000
1800
1800
0C00
0C00
0600
0600
0300
0300
0180
0180
00C0
00C0
ENDCHAR
STARTCHAR bracketright
ENCODING 93
SWIDTH 407 0
DWIDTH 10 0
BBX 9 21 -1 -3
BITMAP
1F80
0380
0380
0380
0380
0700
0700
0700
0700
0700
0E00
0E00
0E00
0E00
0E00
1C00
1C00
1C00
1C00
1C00
FC00
ENDCHAR
STARTCHAR asciicircum
ENCODING 94
SWIDTH 606 0
DWIDTH 15 0
BBX 13 11 1 7
BITMAP
0700
0700
0F80
0D80
1DC0
18C0
38E0
3060
7070
6030
E038
ENDCHAR
STARTCHAR underscore
ENCODING 95
SWIDTH 500 0
DWIDTH 15 0
BBX 15 2 0 -4
BITMAP
FFFE
FFFE
ENDCHAR
STARTCHAR grave
ENCODING 96
SWIDTH 333 0
DWIDTH 7 0
BBX 6 5 0 13
BITMAP
C0
E0
F0
38
0C
ENDCHAR
STARTCHAR a
ENCODING 97
SWIDTH 667 0
DWIDTH 16 0
BBX 15 12 0 0
BITMAP
0FBC
3C7C
783C
783C
F078
F078
F078
F078
F0F0
70F2
79F4
1E78
ENDCHAR
STARTCHAR b
ENCODING 98
SWIDTH 611 0
DWIDTH 15 0
BBX 13 18 0 0
BITMAP
7E00
1E00
1E00
1E00
3C00
3C00
3DC0
3EF0
7870
7878
7078
7078
F078
F078
F0F0
70F0
79E0
1F80
ENDCHAR
STARTCHAR c
ENCODING 99
SWIDTH 537 0
DWIDTH 14 0
BBX 12 12 1 0
BITMAP
0FE0
3CF0
78F0
7860
F000
F000
F000
F000
F000
7020
78C0
1F00
ENDCHAR
STARTCHAR d
ENCODING 100
SWIDTH 667 0
DWIDTH 16 0
BBX 15 18 0 0
BITMAP
007E
001E
001E
001E
003C
003C
0FBC
3CFC
787C
7878
F078
F078
F078
F078
F0F0
70F2
79F4
1E78
ENDCHAR
STARTCHAR e
ENCODING 101
SWIDTH 519 0
DWIDTH 14 0
BBX 12 12 0 0
BITMAP
0FC0
3CF0
7870
7870
F0F0
F1E0
FF00
F000
F000
7020
78C0
1F00
ENDCHAR
STARTCHAR f
ENCODING 102
SWIDTH 389 0
DWIDTH 10 0
BBX 14 23 -1 -5
BITMAP
01F8
07BC
07BC
0F18
0F00
0F00
3FE0
1E00
1E00
1E00
1E00
3C00
3C00
3C00
3C00
7800
7800
7800
7800
F000
F000
F000
C000
ENDCHAR
STARTCHAR g
ENCODING 103
SWIDTH 611 0
DWIDTH 15 0
BBX 15 20 -2 -5
BITMAP
0006
000E
0018
03F8
0F3C
0E1E
1E1E
1E1E
1E1E
0F3C
07F0
1C00
3800
3FE0
1FF8
307C
E03C
E03C
F078
3FE0
ENDCHAR
STARTCHAR h
ENCODING 104
SWIDTH 685 0
DWIDTH 16 0
BBX 15 18 0 0
BITMAP
7E00
1E00
1E00
1E00
3C00
3C00
3C78
3CFC
3D3C
7E3C
7C78
7878
7878
7878
F0F0
F0F2
F0F4
F078
ENDCHAR
STARTCHAR i
ENCODING 105
SWIDTH 389 0
DWIDTH 8 0
BBX 7 17 0 0
BITMAP
0E
0E
0E
00
00
FC
3C
3C
3C
78
78
78
78
F0
F2
F4
78
ENDCHAR
STARTCHAR j
ENCODING 106
SWIDTH 370 0
DWIDTH 9 0
BBX 13 22 -5 -5
BITMAP
0038
0038
0038
0000
0000
03F0
00F0
00F0
00F0
01E0
01E0
01E0
01E0
03C0
03C0
03C0
03C0
6780
F780
F780
EF00
7C00
ENDCHAR
STARTCHAR k
ENCODING 107
SWIDTH 648 0
DWIDTH 16 0
BBX 15 18 0 0
BITMAP
7E00
1E00
1E00
1E00
1E00
3C00
3CF8
3D3C
3E3C
3C3C
7878
7B80
79E0
78E0
F0F0
F0F2
F0F4
F078
ENDCHAR
STARTCHAR l
ENCODING 108
SWIDTH 389 0
DWIDTH 8 0
BBX 7 18 0 0
BITMAP
7E
1E
1E
1E
3C
3C
3C
3C
3C
78
78
78
78
78
F0
F2
F4
78
ENDCHAR
STARTCHAR m
ENCODING 109
SWIDTH 944 0
DWIDTH 24 0
BBX 23 12 0 0
BITMAP
FC7878
3CFCFC
3D3D3C
3E3E3C
7C7C78
787878
787878
787878
F0F0F0
F0F0F2
F0F0F4
F0F078
ENDCHAR
STARTCHAR n
ENCODING 110
SWIDTH 685 0
DWIDTH 16 0
BBX 15 12 0 0
BITMAP
FC38
3CFC
3D3C
3E3C
7C78
7878
7878
7878
F0F0
F0F2
F0F4
F078
ENDCHAR
STARTCHAR o
ENCODING 111
SWIDTH 574 0
DWIDTH 15 0
BBX 13 12 0 0
BITMAP
0FC0
3CF0
7870
7878
F078
F078
F078
F078
F0F0
70F0
79E0
1F80
ENDCHAR
STARTCHAR p
ENCODING 112
SWIDTH 648 0
DWIDTH 16 0
BBX 17 17 -3 -5
BITMAP
1FBC00
07CF00
078700
078780
078780
0F0780
0F0780
0F0780
0F0F00
1F0F00
1F9E00
1EF800
1E0000
3C0000
3C0000
3C0000
FF0000
ENDCHAR
STARTCHAR q
ENCODING 113
SWIDTH 630 0
DWIDTH 16 0
BBX 14 17 0 -5
BITMAP
0F8C
3CDC
787C
787C
F078
F078
F078
F078
F0F0
70F0
79F0
1EF0
00F0
01E0
01E0
01E0
07F8
ENDCHAR
STARTCHAR r
ENCODING 114
SWIDTH 519 0
DWIDTH 13 0
BBX 12 12 0 0
BITMAP
FCE0
3DF0
3EF0
3C60
7800
7800
7800
7800
F000
F000
F000
F000
ENDCHAR
STARTCHAR s
ENCODING 115
SWIDTH 481 0
DWIDTH 13 0
BBX 11 12 0 0
BITMAP
0FC0
39E0
71E0
78C0
7E00
3F00
0F80
03C0
61C0
F1C0
F380
7E00
ENDCHAR
STARTCHAR t
ENCODING 116
SWIDTH 407 0
DWIDTH 10 0
BBX 9 16 0 0
BITMAP
1E00
1E00
1E00
1E00
FF80
3C00
3C00
3C00
7800
7800
7800
7800
F000
F100
F200
7C00
ENDCHAR
STARTCHAR u
ENCODING 117
SWIDTH 685 0
DWIDTH 16 0
BBX 15 12 0 0
BITMAP
FC3C
3C3C
3C3C
3C3C
7878
7878
7878
78F8
F1F0
F2F2
FCF4
7878
ENDCHAR
STARTCHAR v
ENCODING 118
SWIDTH 556 0
DWIDTH 13 0
BBX 12 12 0 0
BITMAP
FC60
3C70
3C30
7810
7810
7810
F020
F020
F040
F040
7980
3E00
ENDCHAR
STARTCHAR w
ENCODING 119
SWIDTH 833 0
DWIDTH 20 0
BBX 19 12 0 0
BITMAP
FC3CC0
3C3CE0
3C3C60
787820
787820
787820
F0F020
F0F040
F0F040
F0F080
797900
3E3E00
ENDCHAR
STARTCHAR x
ENCODING 120
SWIDTH 574 0
DWIDTH 15 0
BBX 15 12 -1 0
BITMAP
1E0E
3E1E
4F3C
0F60
07C0
0780
0380
07C0
0FC0
79E4
F1F8
E0F0
ENDCHAR
STARTCHAR y
ENCODING 121
SWIDTH 519 0
DWIDTH 13 0
BBX 15 17 -3 -5
BITMAP
0E0C
1F0E
2F06
0784
078C
0788
03D8
03D0
03F0
01E0
01E0
01C0
0180
6300
F600
FC00
7000
ENDCHAR
STARTCHAR z
ENCODING 122
SWIDTH 519 0
DWIDTH 14 0
BBX 13 12 0 0
BITMAP
1E18
3FF8
7FF0
41E0
00C0
0180
0600
1C00
3E10
7FF0
FFE0
C7C0
ENDCHAR
STARTCHAR braceleft
ENCODING 123
SWIDTH 407 0
DWIDTH 8 0
BBX 7 21 0 -3
BITMAP
0E
18
18
18
18
38
38
30
20
C0
60
60
60
60
60
E0
E0
C0
C0
C0
70
ENDCHAR
STARTCHAR bar
ENCODING 124
SWIDTH 606 0
DWIDTH 15 0
BBX 2 18 6 0
BITMAP
C0
C0
C0
C0
C0
C0
C0
C0
C0
C0
C0
C0
C0
C0
C0
C0
C0
C0
ENDCHAR
STARTCHAR braceright
ENCODING 125
SWIDTH 407 0
DWIDTH 8 0
BBX 7 21 -1 -3
BITMAP
1C
06
06
06
0E
0C
0C
0C
0C
06
08
18
18
18
38
30
30
30
30
30
E0
ENDCHAR
STARTCHAR asciitilde
ENCODING 126
SWIDTH 606 0
DWIDTH 14 0
BBX 13 4 0 6
BITMAP
3C18
7F18
C7F0
C1E0
ENDCHAR
STARTCHAR space
ENCODING 160
SWIDTH 287 0
DWIDTH 7 0
BBX 1 1 0 0
BITMAP
00
ENDCHAR
STARTCHAR Aogonek
ENCODING 161
SWIDTH 741 0
DWIDTH 20 0
BBX 20 23 -1 -5
BITMAP
000800
001800
001C00
003C00
007C00
007E00
00DE00
019E00
011F00
031F00
060F00
040F80
0FFF80
180F80
1807C0
3007C0
7007C0
FC1FF0
001000
002000
006000
006400
003800
ENDCHAR
STARTCHAR breve
ENCODING 162
SWIDTH 333 0
DWIDTH 9 0
BBX 8 4 0 13
BITMAP
81
C3
7E
3C
ENDCHAR
STARTCHAR Lslash
ENCODING 163
SWIDTH 704 0
DWIDTH 18 0
BBX 18 18 -1 0
BITMAP
1FF000
07C000
07C000
07C000
07C000
07C000
0F8000
0F9800
0FE000
0F8000
3F8000
CF8000
1F0040
1F0040
1F0080
1F0180
1F0780
7FFF80
ENDCHAR
STARTCHAR currency
ENCODING 164
SWIDTH 574 0
DWIDTH 15 0
BBX 12 12 1 3
BITMAP
CF30
FFF0
70E0
6060
C030
C030
C030
C030
6060
70E0
FFF0
CF30
ENDCHAR
STARTCHAR Lcaron
ENCODING 165
SWIDTH 928 0
DWIDTH 23 0
BBX 22 18 0 0
BITMAP
3FE038
0F807C
0F807C
0F803C
0F8008
0F8010
1F0020
1F0040
1F0000
1F0000
1F0000
1F0000
3E0080
3E0080
3E0180
3E0300
3E0F00
FFFF00
ENDCHAR
STARTCHAR Sacute
ENCODING 166
SWIDTH 685 0
DWIDTH 16 0
BBX 15 24 0 0
BITMAP
0030
0070
00F0
01C0
0300
0000
03F2
0E1E
180E
3804
3804
3C04
3F00
3FE0
1FF8
1FF8
07FC
00FC
403C
401C
401C
E018
F070
9FC0
ENDCHAR
STARTCHAR section
ENCODING 167
SWIDTH 500 0
DWIDTH 15 0
BBX 13 22 0 -4
BITMAP
01E0
0630
0C78
1C78
1C30
1E00
1F00
0FC0
1FF0
23F8
60F8
7078
7838
7E30
3FA0
1FC0
07E0
61E0
F0E0
F0C0
6180
3E00
ENDCHAR
STARTCHAR dieresis
ENCODING 168
SWIDTH 333 0
DWIDTH 11 0
BBX 10 4 1 13
BITMAP
6180
F3C0
F3C0
6180
ENDCHAR
STARTCHAR Scaron
ENCODING 169
SWIDTH 685 0
DWIDTH 16 0
BBX 15 18 0 0
BITMAP
018C
0198
00F0
00E0
00C0
03F8
0F8A
1E06
1F84
3FE0
3FF0
1FF8
47FC
43FC
40FC
E078
F070
9FC0
ENDCHAR
STARTCHAR Scedilla
ENCODING 170
SWIDTH 685 0
DWIDTH 16 0
BBX 15 23 0 -5
BITMAP
03F2
0E1E
180E
3804
3804
3C04
3F00
3FE0
1FF8
1FF8
07FC
00FC
403C
401C
401C
E018
F070
9FC0
0100
0380
0180
0180
0700
ENDCHAR
STARTCHAR Tcaron
ENCODING 171
SWIDTH 722 0
DWIDTH 18 0
BBX 17 24 0 0
BITMAP
031800
033000
01E000
01C000
018000
000000
7FFF80
73E780
E3E380
C3E300
83E100
83E100
07C000
07C000
07C000
07C000
07C000
07C000
0F8000
0F8000
0F8000
0F8000
0F8000
3FE000
ENDCHAR
STARTCHAR Zacute
ENCODING 172
SWIDTH 704 0
DWIDTH 18 0
BBX 17 24 0 0
BITMAP
000C00
001C00
003C00
007000
00C000
000000
1FFF80
1C0F80
181F80
303F00
207E00
207C00
00F800
01F000
03F000
07E000
0FC000
0F8000
1F0100
3F0100
7E0300
FC0600
FC0E00
FFFE00
ENDCHAR
STARTCHAR hyphen
ENCODING 173
SWIDTH 333 0
DWIDTH 7 0
BBX 6 2 0 6
BITMAP
FC
FC
ENDCHAR
STARTCHAR Zcaron
ENCODING 174
SWIDTH 704 0
DWIDTH 18 0
BBX 17 18 0 0
BITMAP
018C00
019800
00F000
00E000
00C000
3FFF80
303F00
607E00
60FC00
41F800
03F000
07E000
0FC100
1F8100
3F0300
7E0600
FC0E00
FFFE00
ENDCHAR
STARTCHAR Zdotaccent
ENCODING 175
SWIDTH 704 0
DWIDTH 18 0
BBX 17 23 0 0
BITMAP
006000
00F000
00F000
006000
000000
1FFF80
1C0F80
181F80
303F00
207E00
207C00
00F800
01F000
03F000
07E000
0FC000
0F8000
1F0100
3F0100
7E0300
FC0600
FC0E00
FFFE00
ENDCHAR
STARTCHAR degree
ENCODING 176
SWIDTH 400 0
DWIDTH 9 0
BBX 8 7 0 11
BITMAP
3C
66
C3
C3
C3
66
3C
ENDCHAR
STARTCHAR aogonek
ENCODING 177
SWIDTH 667 0
DWIDTH 16 0
BBX 15 17 0 -5
BITMAP
0FBC
3C7C
783C
783C
F078
F078
F078
F078
F0F0
70F2
79F4
1E78
0100
0200
0600
0640
0380
ENDCHAR
STARTCHAR ogonek
ENCODING 178
SWIDTH 333 0
DWIDTH 8 0
BBX 5 5 1 -5
BITMAP
20
40
C0
C8
70
ENDCHAR
STARTCHAR lslash
ENCODING 179
SWIDTH 389 0
DWIDTH 8 0
BBX 9 18 -1 0
BITMAP
3F00
0F00
0F00
0F00
1E00
1E00
1E80
1F00
1E00
3C00
7C00
BC00
3C00
3C00
7800
7800
7A00
3C00
ENDCHAR
STARTCHAR acute
ENCODING 180
SWIDTH 333 0
DWIDTH 7 0
BBX 6 5 1 13
BITMAP
0C
1C
3C
70
C0
ENDCHAR
STARTCHAR lcaron
ENCODING 181
SWIDTH 629 0
DWIDTH 14 0
BBX 13 18 0 0
BITMAP
7E70
1EF8
1EF8
1E78
3C10
3C20
3C40
3C80
3C00
7800
7800
7800
7800
7800
F000
F200
F400
7800
ENDCHAR
STARTCHAR sacute
ENCODING 182
SWIDTH 481 0
DWIDTH 13 0
BBX 11 18 0 0
BITMAP
00C0
01C0
03C0
0700
0C00
0000
0FC0
39E0
71E0
78C0
7E00
3F00
0F80
03C0
61C0
F1C0
F380
7E00
ENDCHAR
STARTCHAR caron
ENCODING 183
SWIDTH 333 0
DWIDTH 8 0
BBX 7 5 0 13
BITMAP
C6
CC
78
70
60
ENDCHAR
STARTCHAR cedilla
ENCODING 184
SWIDTH 333 0
DWIDTH 7 0
BBX 4 5 0 -5
BITMAP
20
70
30
30
E0
ENDCHAR
STARTCHAR scaron
ENCODING 185
SWIDTH 481 0
DWIDTH 13 0
BBX 11 18 0 0
BITMAP
0C60
0CC0
0780
0700
0600
0000
0FC0
39E0
71E0
78C0
7E00
3F00
0F80
03C0
61C0
F1C0
F380
7E00
ENDCHAR
STARTCHAR scedilla
ENCODING 186
SWIDTH 481 0
DWIDTH 13 0
BBX 11 17 0 -5
BITMAP
0FC0
39E0
71E0
78C0
7E00
3F00
0F80
03C0
61C0
F1C0
F380
7E00
0400
0E00
0600
0600
1C00
ENDCHAR
STARTCHAR tcaron
ENCODING 187
SWIDTH 646 0
DWIDTH 16 0
BBX 15 18 0 0
BITMAP
001C
003E
1E3E
1E1E
1E04
1E08
FF90
3C20
3C00
3C00
7800
7800
7800
7800
F000
F100
F200
7C00
ENDCHAR
STARTCHAR zacute
ENCODING 188
SWIDTH 519 0
DWIDTH 14 0
BBX 13 18 0 0
BITMAP
0060
00E0
01E0
0380
0600
0000
1E18
3FF8
7FF0
41E0
00C0
0180
0600
1C00
3E10
7FF0
FFE0
C7C0
ENDCHAR
STARTCHAR hungarumlaut
ENCODING 189
SWIDTH 333 0
DWIDTH 13 0
BBX 12 5 0 13
BITMAP
0C30
1C70
3CF0
71C0
C300
ENDCHAR
STARTCHAR zcaron
ENCODING 190
SWIDTH 519 0
DWIDTH 14 0
BBX 13 18 0 0
BITMAP
0630
0660
03C0
0380
0300
0000
1E18
3FF8
7FF0
41E0
00C0
0180
0600
1C00
3E10
7FF0
FFE0
C7C0
ENDCHAR
STARTCHAR zdotaccent
ENCODING 191
SWIDTH 519 0
DWIDTH 14 0
BBX 13 17 0 0
BITMAP
0300
0780
0780
0300
0000
1E18
3FF8
7FF0
41E0
00C0
0180
0600
1C00
3E10
7FF0
FFE0
C7C0
ENDCHAR
STARTCHAR Racute
ENCODING 192
SWIDTH 796 0
DWIDTH 20 0
BBX 19 24 0 0
BITMAP
000C00
001C00
003C00
007000
00C000
000000
3FFF00
0F87C0
0F83E0
0F83E0
0F83E0
0F83E0
1F03C0
1F0780
1FFC00
1F3C00
1F1E00
1F1E00
3E1F00
3E1F00
3E1F20
3E0FA0
3E0FC0
FF8780
ENDCHAR
STARTCHAR Aacute
ENCODING 193
SWIDTH 741 0
DWIDTH 20 0
BBX 20 24 -1 0
BITMAP
000180
000380
000780
000E00
001800
000000
000800
001800
001C00
003C00
007C00
007E00
00DE00
019E00
011F00
031F00
060F00
040F80
0FFF80
180F80
1807C0
3007C0
7007C0
FC1FF0
ENDCHAR
STARTCHAR Acircumflex
ENCODING 194
SWIDTH 741 0
DWIDTH 20 0
BBX 20 23 -1 0
BITMAP
000600
000E00
001E00
003300
006300
000000
001800
001C00
003C00
007C00
007E00
00DE00
019E00
011F00
031F00
060F00
040F80
0FFF80
180F80
1807C0
3007C0
7007C0
FC1FF0
ENDCHAR
STARTCHAR Abreve
ENCODING 195
SWIDTH 741 0
DWIDTH 20 0
BBX 20 23 -1 0
BITMAP
010200
018600
00FC00
007800
000000
000800
001800
001C00
003C00
007C00
007E00
00DE00
019E00
011F00
031F00
060F00
040F80
0FFF80
180F80
1807C0
3007C0
7007C0
FC1FF0
ENDCHAR
STARTCHAR Adieresis
ENCODING 196
SWIDTH 741 0
DWIDTH 20 0
BBX 20 22 -1 0
BITMAP
006180
00F3C0
00F3C0
006180
000000
001800
001C00
003C00
007C00
007E00
00DE00
019E00
011F00
031F00
060F00
040F80
0FFF80
180F80
1807C0
3007C0
7007C0
FC1FF0
ENDCHAR
STARTCHAR Lacute
ENCODING 197
SWIDTH 704 0
DWIDTH 18 0
BBX 17 24 0 0
BITMAP
006000
00E000
01E000
038000
060000
000000
3FE000
0F8000
0F8000
0F8000
0F8000
0F8000
1F0000
1F0000
1F0000
1F0000
1F0000
1F0000
3E0080
3E0080
3E0180
3E0300
3E0F00
FFFF00
ENDCHAR
STARTCHAR Cacute
ENCODING 198
SWIDTH 759 0
DWIDTH 18 0
BBX 17 24 0 0
BITMAP
001800
003800
007800
00E000
018000
000000
01FC80
0F8780
1E0380
3E0100
3C0100
7C0100
780000
F80000
F80000
F80000
F80000
F80000
F80000
780100
7C0300
3C0600
1E1C00
07F000
ENDCHAR
STARTCHAR Ccedilla
ENCODING 199
SWIDTH 759 0
DWIDTH 18 0
BBX 17 23 0 -5
BITMAP
01FC80
0F8780
1E0380
3E0100
3C0100
7C0100
780000
F80000
F80000
F80000
F80000
F80000
F80000
780100
7C0300
3C0600
1E1C00
07F000
008000
01C000
00C000
00C000
038000
ENDCHAR
STARTCHAR Ccaron
ENCODING 200
SWIDTH 759 0
DWIDTH 18 0
BBX 17 24 0 0
BITMAP
031800
033000
01E000
01C000
018000
000000
01FC80
0F8780
1E0380
3E0100
3C0100
7C0100
780000
F80000
F80000
F80000
F80000
F80000
F80000
780100
7C0300
3C0600
1E1C00
07F000
ENDCHAR
STARTCHAR Eacute
ENCODING 201
SWIDTH 741 0
DWIDTH 18 0
BBX 17 24 0 0
BITMAP
000600
000E00
001E00
003800
006000
000000
3FFF80
0F8380
0F8180
0F8100
0F8100
0F8400
1F0400
1F0C00
1FFC00
1F1800
1F0800
1F0800
3E0880
3E0080
3E0180
3E0300
3E0F00
FFFF00
ENDCHAR
STARTCHAR Eogonek
ENCODING 202
SWIDTH 741 0
DWIDTH 18 0
BBX 17 23 0 -5
BITMAP
3FFF80
0F8380
0F8180
0F8100
0F8100
0F8400
1F0400
1F0C00
1FFC00
1F1800
1F0800
1F0800
3E0900
3E0100
3E0300
3E0600
3E0E00
FFFE00
008000
010000
030000
032000
01C000
ENDCHAR
STARTCHAR Edieresis
ENCODING 203
SWIDTH 741 0
DWIDTH 18 0
BBX 17 23 0 0
BITMAP
030C00
079E00
079E00
030C00
000000
3FFF80
0F8380
0F8180
0F8100
0F8100
0F8400
1F0400
1F0C00
1FFC00
1F1800
1F0800
1F0800
3E0880
3E0080
3E0180
3E0300
3E0F00
FFFF00
ENDCHAR
STARTCHAR Ecaron
ENCODING 204
SWIDTH 741 0
DWIDTH 18 0
BBX 17 24 0 0
BITMAP
031800
033000
01E000
01C000
018000
000000
3FFF80
0F8380
0F8180
0F8100
0F8100
0F8400
1F0400
1F0C00
1FFC00
1F1800
1F0800
1F0800
3E0900
3E0100
3E0300
3E0600
3E0E00
FFFE00
ENDCHAR
STARTCHAR Iacute
ENCODING 205
SWIDTH 444 0
DWIDTH 12 0
BBX 11 24 0 0
BITMAP
0060
00E0
01E0
0380
0600
0000
3FE0
0F80
0F80
0F80
0F80
0F80
1F00
1F00
1F00
1F00
1F00
1F00
3E00
3E00
3E00
3E00
3E00
FF80
ENDCHAR
STARTCHAR Icircumflex
ENCODING 206
SWIDTH 444 0
DWIDTH 12 0
BBX 11 24 0 0
BITMAP
0180
0380
0780
0CC0
18C0
0000
3FE0
0F80
0F80
0F80
0F80
0F80
1F00
1F00
1F00
1F00
1F00
1F00
3E00
3E00
3E00
3E00
3E00
FF80
ENDCHAR
STARTCHAR Dcaron
ENCODING 207
SWIDTH 833 0
DWIDTH 21 0
BBX 20 24 0 0
BITMAP
00C600
00CC00
007800
007000
006000
000000
3FFE00
0F8780
0F83C0
0F83E0
0F81E0
0F81F0
1F01F0
1F01F0
1F01F0
1F01F0
1F01F0
1F01E0
3E03E0
3E03C0
3E07C0
3E0780
3E1F00
FFF800
ENDCHAR
STARTCHAR Dcroat
ENCODING 208
SWIDTH 833 0
DWIDTH 21 0
BBX 20 18 0 0
BITMAP
3FFE00
0F8780
0F83C0
0F83E0
0F81E0
0F81F0
1F01F0
1F01F0
7FE1F0
1F01F0
1F01F0
1F01E0
3E03E0
3E03C0
3E07C0
3E0780
3E1F00
FFF800
ENDCHAR
STARTCHAR Nacute
ENCODING 209
SWIDTH 852 0
DWIDTH 22 0
BBX 21 24 0 0
BITMAP
000C00
001C00
003C00
007000
00C000
000000
3E01F8
0F0060
0F8060
0FC060
0FE040
0FE040
0BF040
19F8C0
18FCC0
18FC80
187E80
103F80
101F80
301F00
300F00
300700
300300
FC0300
ENDCHAR
STARTCHAR Ncaron
ENCODING 210
SWIDTH 852 0
DWIDTH 22 0
BBX 21 24 0 0
BITMAP
00C600
00CC00
007800
007000
006000
000000
3E01F8
0F0060
0F8060
0FC060
0FE040
0FE040
0BF040
19F8C0
18FCC0
18FC80
187E80
103F80
101F80
301F00
300F00
300700
300300
FC0300
ENDCHAR
STARTCHAR Oacute
ENCODING 211
SWIDTH 833 0
DWIDTH 20 0
BBX 19 24 0 0
BITMAP
000300
000700
000F00
001C00
003000
000000
01FC00
0F8F00
1E0780
3E07C0
3C03C0
7C03E0
7803E0
F803E0
F803E0
F803E0
F803E0
F803C0
F807C0
780780
7C0F80
3C0F00
1E3E00
07F000
ENDCHAR
STARTCHAR Ocircumflex
ENCODING 212
SWIDTH 833 0
DWIDTH 20 0
BBX 19 24 0 0
BITMAP
001800
003800
007800
00CC00
018C00
000000
01FC00
0F8F00
1E0780
3E07C0
3C03C0
7C03E0
7803E0
F803E0
F803E0
F803E0
F803E0
F803C0
F807C0
780780
7C0F80
3C0F00
1E3E00
07F000
ENDCHAR
STARTCHAR Ohungarumlaut
ENCODING 213
SWIDTH 833 0
DWIDTH 20 0
BBX 19 24 0 0
BITMAP
006180
00E380
01E780
038E00
061800
000000
01FC00
0F8F00
1E0780
3E07C0
3C03C0
7C03E0
7803E0
F803E0
F803E0
F803E0
F803E0
F803C0
F807C0
780780
7C0F80
3C0F00
1E3E00
07F000
ENDCHAR
STARTCHAR Odieresis
ENCODING 214
SWIDTH 833 0
DWIDTH 20 0
BBX 19 23 0 0
BITMAP
030C00
079E00
079E00
030C00
000000
01FC00
0F8F00
1E0780
3E07C0
3C03C0
7C03E0
7803E0
F803E0
F803E0
F803E0
F803E0
F803C0
F807C0
780780
7C0F80
3C0F00
1E3E00
07F000
ENDCHAR
STARTCHAR multiply
ENCODING 215
SWIDTH 606 0
DWIDTH 15 0
BBX 12 12 1 1
BITMAP
C030
E070
70E0
39C0
1F80
0F00
0F00
1F80
39C0
70E0
E070
C030
ENDCHAR
STARTCHAR Rcaron
ENCODING 216
SWIDTH 796 0
DWIDTH 20 0
BBX 19 24 0 0
BITMAP
00C600
00CC00
007800
007000
006000
000000
3FFF00
0F87C0
0F83E0
0F83E0
0F83E0
0F83E0
1F03C0
1F0780
1FFC00
1F3C00
1F1E00
1F1E00
3E1F00
3E1F00
3E1F20
3E0FA0
3E0FC0
FF8780
ENDCHAR
STARTCHAR Uring
ENCODING 217
SWIDTH 833 0
DWIDTH 20 0
BBX 19 24 1 0
BITMAP
01C000
036000
022000
036000
01C000
000000
FF87E0
3E0180
3E0180
3E0180
3E0180
7C0100
7C0100
7C0300
7C0300
7C0300
7C0200
F80200
F80600
F80600
F80600
F80C00
7C3C00
1FF000
ENDCHAR
STARTCHAR Uacute
ENCODING 218
SWIDTH 833 0
DWIDTH 20 0
BBX 19 24 1 0
BITMAP
000300
000700
000F00
001C00
003000
000000
FF87E0
3E0180
3E0180
3E0180
3E0180
7C0100
7C0100
7C0300
7C0300
7C0300
7C0200
F80200
F80600
F80600
F80600
F80C00
7C3C00
1FF000
ENDCHAR
STARTCHAR Uhungarumlaut
ENCODING 219
SWIDTH 833 0
DWIDTH 20 0
BBX 19 24 1 0
BITMAP
018600
038E00
079E00
0E3800
186000
000000
FF87E0
3E0180
3E0180
3E0180
3E0180
7C0100
7C0100
7C0300
7C0300
7C0300
7C0200
F80200
F80600
F80600
F80600
F80C00
7C3C00
1FF000
ENDCHAR
STARTCHAR Udieresis
ENCODING 220
SWIDTH 833 0
DWIDTH 20 0
BBX 19 23 1 0
BITMAP
030C00
079E00
079E00
030C00
000000
FF87E0
3E0180
3E0180
3E0180
3E0180
7C0100
7C0100
7C0300
7C0300
7C0300
7C0200
F80200
F80600
F80600
F80600
F80C00
7C3C00
1FF000
ENDCHAR
STARTCHAR Yacute
ENCODING 221
SWIDTH 704 0
DWIDTH 18 0
BBX 19 24 0 0
BITMAP
000600
000E00
001E00
003800
006000
000000
FF8FE0
3E0380
3E0300
3E0600
1F0400
1F0C00
1F1800
0F9000
0FB000
0FE000
07C000
07C000
078000
0F8000
0F8000
0F8000
0F8000
3FE000
ENDCHAR
STARTCHAR Tcommaaccent
ENCODING 222
SWIDTH 722 0
DWIDTH 18 0
BBX 17 23 0 -5
BITMAP
7FFF80
73E780
E3E380
C3E300
83E100
83E100
07C000
07C000
07C000
07C000
07C000
07C000
0F8000
0F8000
0F8000
0F8000
0F8000
3FE000
010000
038000
018000
018000
070000
ENDCHAR
STARTCHAR germandbls
ENCODING 223
SWIDTH 574 0
DWIDTH 15 0
BBX 15 23 -1 -5
BITMAP
01F0
079C
0F1E
0F1E
1E1E
1E3C
1E38
1EE0
1E38
3C3C
3C3C
3C3C
3C3C
3C3C
7878
7878
78F0
7BC0
7800
F000
F000
F000
C000
ENDCHAR
STARTCHAR racute
ENCODING 224
SWIDTH 519 0
DWIDTH 13 0
BBX 12 18 0 0
BITMAP
00C0
01C0
03C0
0700
0C00
0000
FCE0
3DF0
3EF0
3C60
7800
7800
7800
7800
F000
F000
F000
F000
ENDCHAR
STARTCHAR aacute
ENCODING 225
SWIDTH 667 0
DWIDTH 16 0
BBX 15 18 0 0
BITMAP
0060
00E0
01E0
0380
0600
0000
0FBC
3CFC
787C
787C
F078
F078
F078
F078
F0F0
70F2
79F4
1E78
ENDCHAR
STARTCHAR acircumflex
ENCODING 226
SWIDTH 667 0
DWIDTH 16 0
BBX 15 18 0 0
BITMAP
0060
00E0
01E0
0330
0630
0000
0FBC
3CFC
787C
787C
F078
F078
F078
F078
F0F0
70F2
79F4
1E78
ENDCHAR
STARTCHAR abreve
ENCODING 227
SWIDTH 667 0
DWIDTH 16 0
BBX 15 17 0 0
BITMAP
0810
0C30
07E0
03C0
0000
0FBC
3C7C
783C
783C
F078
F078
F078
F078
F0F0
70F2
79F4
1E78
ENDCHAR
STARTCHAR adieresis
ENCODING 228
SWIDTH 667 0
DWIDTH 16 0
BBX 15 17 0 0
BITMAP
0C30
1E78
1E78
0C30
0000
0FBC
3CFC
787C
787C
F078
F078
F078
F078
F0F0
70F2
79F4
1E78
ENDCHAR
STARTCHAR lacute
ENCODING 229
SWIDTH 389 0
DWIDTH 8 0
BBX 8 24 0 0
BITMAP
03
07
0F
1C
30
00
7E
1E
1E
1E
3C
3C
3C
3C
3C
78
78
78
78
78
F0
F2
F4
78
ENDCHAR
STARTCHAR cacute
ENCODING 230
SWIDTH 537 0
DWIDTH 14 0
BBX 12 18 1 0
BITMAP
00C0
01C0
03C0
0700
0C00
0000
0FE0
3CF0
78F0
7860
F000
F000
F000
F000
F000
7020
78C0
1F00
ENDCHAR
STARTCHAR ccedilla
ENCODING 231
SWIDTH 537 0
DWIDTH 14 0
BBX 12 17 0 -5
BITMAP
0FE0
3CF0
78F0
7860
F000
F000
F000
F000
F000
7020
78C0
1F00
0400
0E00
0600
0600
1C00
ENDCHAR
STARTCHAR ccaron
ENCODING 232
SWIDTH 537 0
DWIDTH 14 0
BBX 12 18 1 0
BITMAP
0C60
0CC0
0780
0700
0600
0000
0FE0
3CF0
78F0
7860
F000
F000
F000
F000
F000
7020
78C0
1F00
ENDCHAR
STARTCHAR eacute
ENCODING 233
SWIDTH 519 0
DWIDTH 14 0
BBX 12 18 0 0
BITMAP
00C0
01C0
03C0
0700
0C00
0000
0FC0
3CF0
7870
7870
F0F0
F1E0
FF00
F000
F000
7020
78C0
1F00
ENDCHAR
STARTCHAR eogonek
ENCODING 234
SWIDTH 519 0
DWIDTH 14 0
BBX 12 17 0 -5
BITMAP
0FC0
3CF0
7870
7870
F0F0
F1E0
FF00
F000
F000
7020
78C0
1F00
0400
0800
1800
1900
0E00
ENDCHAR
STARTCHAR edieresis
ENCODING 235
SWIDTH 519 0
DWIDTH 14 0
BBX 12 17 0 0
BITMAP
1860
3CF0
3CF0
1860
0000
0FC0
3CF0
7870
7870
F0F0
F1E0
FF00
F000
F000
7020
78C0
1F00
ENDCHAR
STARTCHAR ecaron
ENCODING 236
SWIDTH 519 0
DWIDTH 14 0
BBX 12 18 0 0
BITMAP
0C60
0CC0
0780
0700
0600
0000
0FC0
3CF0
7870
7870
F0F0
F1E0
FF00
F000
F000
7020
78C0
1F00
ENDCHAR
STARTCHAR iacute
ENCODING 237
SWIDTH 389 0
DWIDTH 8 0
BBX 7 18 0 0
BITMAP
0C
1C
3C
70
C0
00
FC
3C
3C
3C
78
78
78
78
F0
F2
F4
78
ENDCHAR
STARTCHAR icircumflex
ENCODING 238
SWIDTH 389 0
DWIDTH 8 0
BBX 7 18 0 0
BITMAP
0C
1C
3C
66
C6
00
FC
3C
3C
3C
78
78
78
78
F0
F2
F4
78
ENDCHAR
STARTCHAR dcaron
ENCODING 239
SWIDTH 893 0
DWIDTH 21 0
BBX 20 18 0 0
BITMAP
007EE0
001FF0
001FF0
001EF0
003C20
003C40
0FBC80
3CFD00
787C00
787800
F07800
F07800
F07800
F07800
F0F000
70F200
79F400
1E7800
ENDCHAR
STARTCHAR dcroat
ENCODING 240
SWIDTH 667 0
DWIDTH 16 0
BBX 17 18 0 0
BITMAP
007E00
001E00
001E00
001E00
03FF80
03FF80
0FBC00
3CFC00
787C00
787800
F07800
F07800
F07800
F07800
F0F000
70F200
79F400
1E7800
ENDCHAR
STARTCHAR nacute
ENCODING 241
SWIDTH 685 0
DWIDTH 16 0
BBX 15 18 0 0
BITMAP
0060
00E0
01E0
0380
0600
0000
FC38
3CFC
3D3C
3E3C
7C78
7878
7878
7878
F0F0
F0F2
F0F4
F078
ENDCHAR
STARTCHAR ncaron
ENCODING 242
SWIDTH 685 0
DWIDTH 16 0
BBX 15 18 0 0
BITMAP
0630
0660
03C0
0380
0300
0000
FC38
3CFC
3D3C
3E3C
7C78
7878
7878
7878
F0F0
F0F2
F0F4
F078
ENDCHAR
STARTCHAR oacute
ENCODING 243
SWIDTH 574 0
DWIDTH 15 0
BBX 13 18 0 0
BITMAP
0030
0070
00F0
01C0
0300
0000
0FC0
3CF0
7870
7878
F078
F078
F078
F078
F0F0
70F0
79E0
1F80
ENDCHAR
STARTCHAR ocircumflex
ENCODING 244
SWIDTH 574 0
DWIDTH 15 0
BBX 13 18 0 0
BITMAP
00C0
01C0
03C0
0660
0C60
0000
0FC0
3CF0
7870
7878
F078
F078
F078
F078
F0F0
70F0
79E0
1F80
ENDCHAR
STARTCHAR ohungarumlaut
ENCODING 245
SWIDTH 574 0
DWIDTH 15 0
BBX 13 18 0 0
BITMAP
0618
0E38
1E78
38E0
6180
0000
0FC0
3CF0
7870
7878
F078
F078
F078
F078
F0F0
70F0
79E0
1F80
ENDCHAR
STARTCHAR odieresis
ENCODING 246
SWIDTH 574 0
DWIDTH 15 0
BBX 13 17 0 0
BITMAP
1860
3CF0
3CF0
1860
0000
0FC0
3CF0
7870
7878
F078
F078
F078
F078
F0F0
70F0
79E0
1F80
ENDCHAR
STARTCHAR divide
ENCODING 247
SWIDTH 606 0
DWIDTH 15 0
BBX 12 12 1 1
BITMAP
0600
0600
0600
0000
0000
FFF0
FFF0
0000
0000
0600
0600
0600
ENDCHAR
STARTCHAR rcaron
ENCODING 248
SWIDTH 519 0
DWIDTH 13 0
BBX 12 18 0 0
BITMAP
0C60
0CC0
0780
0700
0600
0000
FCE0
3DF0
3EF0
3C60
7800
7800
7800
7800
F000
F000
F000
F000
ENDCHAR
STARTCHAR uring
ENCODING 249
SWIDTH 685 0
DWIDTH 16 0
BBX 15 18 0 0
BITMAP
0380
06C0
0440
06C0
0380
0000
FC3C
3C3C
3C3C
3C3C
7878
7878
7878
78F8
F1F0
F2F2
FCF4
7878
ENDCHAR
STARTCHAR uacute
ENCODING 250
SWIDTH 685 0
DWIDTH 16 0
BBX 15 18 0 0
BITMAP
0030
0070
00F0
01C0
0300
0000
FC3C
3C3C
3C3C
3C3C
7878
7878
7878
78F8
F1F0
F2F2
FCF4
7878
ENDCHAR
STARTCHAR uhungarumlaut
ENCODING 251
SWIDTH 685 0
DWIDTH 16 0
BBX 15 18 0 0
BITMAP
030C
071C
0F3C
1C70
30C0
0000
FC3C
3C3C
3C3C
3C3C
7878
7878
7878
78F8
F1F0
F2F2
FCF4
7878
ENDCHAR
STARTCHAR udieresis
ENCODING 252
SWIDTH 685 0
DWIDTH 16 0
BBX 15 17 0 0
BITMAP
0C30
1E78
1E78
0C30
0000
FC3C
3C3C
3C3C
3C3C
7878
7878
7878
78F8
F1F0
F2F2
FCF4
7878
ENDCHAR
STARTCHAR yacute
ENCODING 253
SWIDTH 519 0
DWIDTH 13 0
BBX 15 23 -3 -5
BITMAP
000C
001C
003C
0070
00C0
0000
0E0E
1F0E
2F06
0784
078C
0788
03D8
03D0
03F0
01E0
01E0
01C0
0180
6300
F600
FC00
7000
ENDCHAR
STARTCHAR tcommaaccent
ENCODING 254
SWIDTH 407 0
DWIDTH 10 0
BBX 9 21 0 -5
BITMAP
1E00
1E00
1E00
1E00
FF80
3C00
3C00
3C00
7800
7800
7800
7800
F000
F100
F200
7C00
1000
3800
1800
1800
7000
ENDCHAR
STARTCHAR dotaccent
ENCODING 255
SWIDTH 333 0
DWIDTH 7 0
BBX 4 4 1 13
BITMAP
60
F0
F0
60
ENDCHAR
ENDFONT
