/* XPM */
static char * archive_xpm[] = {
"16 16 10 1",
" 	c None",
"!	c black",
"#	c #008080",
"$	c #FF0000",
"%	c #00FFFF",
"&	c #C0C0C0",
"'	c #808080",
"(	c white",
")	c #FFFF00",
"*	c #808000",
"      !!!!!!#   ",
" $$$ !###%%&'#  ",
"$&&&#!!!!!!!#&# ",
"$$$$$$$$$$$ !&! ",
"$  ((&&&))! !&! ",
"$ (((&&)))! !&! ",
"$(((&&&)))! !&! ",
"$((&&&))))! !&! ",
"$(&&&))))*! !&! ",
"$&&&))))**! !(! ",
"$!!!!!!!!!!!#&# ",
"     !###%%&'#  ",
"      !!!!!!#   ",
"          !#    ",
"       !#!#!#!# ",
"       #!#!#!#! "};


