/* XPM */ 
static char * blank_xpm[] = {
"16 16 11 1",
" 	c None",
"!	c black",
"#	c #666666",
"$	c #292929",
"%	c #040404",
"&	c white",
"'	c #F1F1F1",
"(	c #DDDDDD",
")	c #C0C0C0",
"*	c #D7D7D7",
"+	c #969696",
"                ",
"  #$$$$$$$%%%%  ",
"  %&''''''''($  ",
"  %'&&&&&&&&)$  ",
"  %'&&&&&&&&)$  ",
"  %'&&&&&&&&)$  ",
"  %'&&&&&&&&)$  ",
"  %'&&&&&&&&)$  ",
"  %'&&&&&&&&)$  ",
"  %'&&&&&&&&)$  ",
"  %'&&&&&&&&)$  ",
"  %'&&&&&&&&)$  ",
"  %'&&&&&&&&)$  ",
"  %*))))))))+$  ",
"  %$$$$$$$$$$%  ",
"                "};

