/* XPM */
static char * copy_xpm[] = {
"16 16 4 1",
" 	c None",
"!	c black",
"#	c white",
"$	c #000080",
"                ",
" !!!!!!         ",
" !####!!        ",
" !####! !       ",
" !#!!#!$$$$$$   ",
" !#####$####$$  ",
" !#!!!!$####$ $ ",
" !#####$#!!#$$$$",
" !#!!!!$#######$",
" !#####$#!!!!!#$",
" !!!!!!$#######$",
"       $#!!!!!#$",
"       $#######$",
"       $$$$$$$$$",
"                ",
"                "};

