/* XPM */ 
static char * drive_xpm[] = {
"16 16 7 1",
" 	c None",
"!	c black",
"#	c #808080",
"$	c #C0C0C0",
"%	c white",
"&	c #00FF00",
"'	c #008000",
"                ",
"                ",
"                ",
"                ",
"  ############# ",
" #$$$$$$$$$$$$#!",
"#%%%%%%%%%%%%##!",
"#$$$$$$$$$&'$##!",
"#$$$$$$$$$$$$##!",
"#$##########$##!",
"#$%%%%%%%%%%$##!",
"##############! ",
" !!!!!!!!!!!!!  ",
"                ",
"                ",
"                "};

