/* XPM */
static char * drv_network_drive_xpm[] = {
"16 16 13 1",
" 	c none",
".	c #848484",
"+	c #737373",
"@	c #D6D6D6",
"#	c #C6C6C6",
"$	c #B5B5B5",
"%	c #000000",
"&	c #FFFFFF",
"*	c #CECECE",
"=	c #00FF00",
"-	c #008400",
";	c #848400",
">	c #FFFF00",
"                ",
"                ",
"  ............. ",
" +@@###$$$$$$$+%",
".&&&&&&&&&&&&.+%",
".@@@******=-#.+%",
".@@******####.+%",
".@++++++++++#.+%",
".@&&&&&&&&&&#.% ",
" %%%%%%%%%%%%%  ",
"       %%       ",
"       #%       ",
"######;;;%######",
"%%%%%%>&;%%%%%%%",
"      %%%%      ",
"                "};
