/* XPM */
static char * drv_cdrom_xpm[] = {
"16 16 29 1",
" 	c none",
".	c #737373",
"+	c #9CCE9C",
"@	c #CECE63",
"#	c #C6C6C6",
"$	c #319C9C",
"%	c #63CE9C",
"&	c #B5B5B5",
"*	c #313131",
"=	c #CECE9C",
"-	c #DEDEDE",
";	c #848484",
">	c #319CCE",
",	c #639CCE",
"'	c #63CECE",
")	c #D6D6D6",
"!	c #949494",
"~	c #A5A5A5",
"{	c #639C9C",
"]	c #000000",
"^	c #CECECE",
"/	c #F7F7F7",
"(	c #E7E7E7",
"_	c #EFEFEF",
":	c #FFFFFF",
"<	c #CEFFFF",
"[	c #009CCE",
"}	c #00FF00",
"|	c #008400",
"                ",
"        ...     ",
"      ..+@#..   ",
"     .$%+@&##*  ",
"    .%%$%=#&-&* ",
"    ;>,%';&)#&* ",
"   .!~{';];~&^^*",
"   .&&^;]/];^^^*",
"   .(/(&;];&_/^*",
" ;;;;~&~~;$-(:* ",
";:::.~~&)=%><&* ",
";:###.~&^=+[[]  ",
";:****;;^=+**]  ",
";:}|::##***#.]  ",
".;;;;;;;;;;;;]  ",
" ]]]]]]]]]]]]   "};
