/* XPM */
static char * drv_removable_xpm[] = {
"16 16 10 1",
" 	c none",
".	c #848484",
"+	c #B5B5B5",
"@	c #636363",
"#	c #000000",
"$	c #FFFFFF",
"%	c #E7E7D6",
"&	c #C6C6C6",
"*	c #FF0000",
"=	c #840000",
"                ",
"                ",
"                ",
"  ............. ",
" .++++++++++++@#",
".$$$$$$$$$$$$.@#",
".$+%&+&+&+&+&.@#",
".$*=@######@&.@#",
".$%+$######$&.@#",
".$+%+$$$$$$&&.@#",
".$%+&&&++++++.@#",
".$............# ",
" #############  ",
"                ",
"                ",
"                "};
