/* XPM */
static char * drv_floppy_xpm[] = {
"16 16 11 1",
" 	c none",
".	c #848484",
"+	c #737373",
"@	c #9CFFFF",
"#	c #000000",
"$	c #FFFFFF",
"%	c #CEFFFF",
"&	c #CECECE",
"*	c #C6C6C6",
"=	c #B5B5B5",
"-	c #FF0000",
"                ",
"         ...... ",
"        +@@@@@@#",
"        +$$$$$##",
"        +$$$%%%#",
"        +%%%%%%#",
"        +&*&=*=#",
"  ......+*....*#",
" .******+&+#+$=#",
".$$$$$$$$###### ",
".*********-*.+# ",
".***....****.+# ",
".*..####...*.+# ",
".***$$$$****.+# ",
".............#  ",
" ############   "};
