/* XPM */
static char * drv_remote_connection_xpm[] = {
"16 16 21 1",
" 	c none",
".	c #9C9C00",
"+	c #000000",
"@	c #FFFFFF",
"#	c #FFFFCE",
"$	c #FFFF9C",
"%	c #CECE63",
"&	c #319C00",
"*	c #FFCE9C",
"=	c #31CE31",
"-	c #316300",
";	c #3163FF",
">	c #CEFFFF",
",	c #31CEFF",
"'	c #31FFFF",
")	c #006300",
"!	c #008400",
"~	c #0000FF",
"{	c #EFEFEF",
"]	c #848400",
"^	c #63639C",
"  .....+        ",
" .@##$$.+       ",
".%%%%%%%....... ",
".@@@@@@@@@@@@$.+",
".@$$$$&&&*$$$*.+",
".@$$$&=&-;*$*$.+",
".@$$;>--,,;*$*.+",
".@$$;'',,)+$*$.+",
".@$$;&!,)&+*$*.+",
".@$$*))~~+*$**.+",
".@$*$*+++*$***.+",
"...............+",
" +++++++++++++++",
"       ++       ",
" { {{{]$%+{{{ { ",
" ^ ^^^++++^^^ ^ "};
