/* XPM */
static char * drv_network_xpm[] = {
"16 16 37 1",
" 	c none",
".	c #319C00",
"+	c #FFFFFF",
"@	c #31CE31",
"#	c #316300",
"$	c #848484",
"%	c #CECECE",
"&	c #C6C6C6",
"*	c #5A5A5A",
"=	c #CEFFCE",
"-	c #000031",
";	c #63639C",
">	c #313163",
",	c #3163FF",
"'	c #31CEFF",
")	c #009CFF",
"!	c #9CFFFF",
"~	c #00FFFF",
"{	c #CEFFFF",
"]	c #63CEFF",
"^	c #9C6363",
"/	c #181818",
"(	c #FFFFCE",
"_	c #CECEFF",
":	c #E7E7D6",
"<	c #949494",
"[	c #424242",
"}	c #3163CE",
"|	c #9CCEFF",
"1	c #6363CE",
"2	c #9CCECE",
"3	c #393939",
"4	c #CECE63",
"5	c #737373",
"6	c #D6D6D6",
"7	c #EFD6C6",
"8	c #313131",
"    ...         ",
"  ..+@.##$%%%%&*",
" .+=@.##-%;;;;>$",
" ,#@##')-%>!!~>$",
",{)#,'',-%>!~]>$",
",^;;;;;;-*/////*",
"-%++(+(+_/&::::<",
"-%+[[[[[+/$&$&$<",
"-%()!!~}(/>>>>>>",
"-%()!~|}+/  ]   ",
"-$+1))))(/  -2  ",
" 3_+(+(+_/   -] ",
"-4////////2]2]2]",
"-56(7(76(7>-----",
"-8<<<<<<<<>     ",
" ->>>>>>>>>     "};
