/* XPM */ 
static char * ftp_xpm[] = {
"16 15 9 1",
" 	c None",
"!	c black",
"#	c #808080",
"$	c #C0C0C0",
"%	c #000080",
"&	c #008080",
"'	c #0000FF",
"(	c white",
")	c #008000",
"   #$$$$$$$$$#! ",
"  #$$$$$$$$$$#! ",
" #$$#$#$##$$$#! ",
" #$!%%%%%%%#$#! ",
" #$%&%%%%''#$#! ",
" #$%'##((#'#$#! ",
" #$%''%###'#$#! ",
" #$%%%%%%%%#$#! ",
" #$$$$$$$$$$$##!",
" !!#!#!#!#!###$!",
"#$$$$$$$$$$$$$##",
"$$$$$$$$$#$#$##!",
"$$)$$$$########!",
"$$$$$$$$$$$$$$#!",
"#!#!#!#!#!#!#!! "};
