/* XPM */
static char *lock_xpm[] = {
/* columns rows colors chars-per-pixel */
"16 16 6 1",
"  c black",
". c #808000",
"X c yellow",
"o c #C0C0C0",
"O c gray100",
"+ c None",
/* pixels */
"++++++....++++++",
"+++++.o  . +++++",
"++++.o ++.. ++++",
"++++. ++++. ++++",
"++++. ++++. ++++",
"++++. ..... .+++",
"+++.......... ++",
"++.OOOOOOOOO. ++",
"++.OXXXXXXXX. ++",
"++.O.......o. ++",
"++.OXXXXXXXX. ++",
"++.O.......o. ++",
"++.OXXXXXXXX. ++",
"++........... ++",
"++           +++",
"++++++++++++++++"
};
