/* XPM */
static char * move_xpm[] = {
"16 16 5 1",
" 	c None",
"!	c black",
"#	c #000080",
"$	c #FF0000",
"%	c white",
"                ",
"                ",
"                ",
"      ######    ",
"   $  #%%%%##   ",
"$$$$$ #%%%%#%#  ",
"$$$$$$#%!!%#### ",
"$$$$$ #%%%%%%%# ",
"   $  #%!!!!!%# ",
"      #%%%%%%%# ",
"      #%!!!!!%# ",
"      #%%%%%%%# ",
"      ######### ",
"                ",
"                ",
"                "};

