/* XPM */
static char * new_dir_xpm[] = {
"16 16 5 1",
" 	c None",
"!	c black",
"#	c #808080",
"$	c #FFFF00",
"%	c #C0C0C0",
"                ",
"  #####         ",
" #$%$%$#        ",
"#$%$#$%$######  ",
"##$ #  #$    #! ",
"# #$#$#$$%$%$#! ",
"# $#$$###$%$%#! ",
"####$$$%$%$%$#! ",
"# %$#$%#!$%$%#! ",
"##$%#$$%$%$%$#! ",
"# %$%$%$%$%$%#! ",
"# $%$%$%$%$%$#! ",
"##############! ",
" !!!!!!!!!!!!!! ",
"                ",
"                "};

