/* XPM */
static char * recycle_xpm[] = {
"16 16 6 1",
" 	c None",
"!	c black",
"#	c #808080",
"$	c white",
"%	c #C0C0C0",
"&	c #008000",
"   ####$###     ",
" ##%%%$#$$###   ",
" #$$##%%#$$%### ",
" #%%$$#%%#%%#%$#",
" #%%%%%$$%%%%$##",
" #%%%%&&%$$$$###",
"  #%%&%%#&%%####",
"  #%&&&%&&%%###!",
"  #%%&%%%%%%###!",
"   #%&%&%&%####!",
"   #%%&&&#%###! ",
"   #%%%&%%%###! ",
"    ##%%%%%##!  ",
"      ##%%###!  ",
"        ###!!   ",
"                "};

