/* XPM */ 
static char * refresh_xpm[] = {
"16 16 7 1",
" 	c None",
"!	c black",
"#	c #808080",
"$	c white",
"%	c #D4D0C8",
"&	c #008000",
"'	c #008080",
"                ",
"  ###########   ",
"  #$$$$$$$$%#   ",
"  #$$$$$$$$$#   ",
"  #$$$$$$$$$### ",
"  #$$$#&&%&$%%# ",
"  #$$#&&&&&$$$# ",
"  #$$&%$%&&$$$# ",
"  #$$$$$&&&$$$# ",
"  #$$$$$$%%$%%# ",
"  #$$&&&&$%%%%# ",
"  #$$&&&%$&%%%# ",
"  #$$&&&&&'%%%# ",
"  #$$&%#'#%%%%# ",
"  #$$$%$%%%%%%# ",
"  ############# "};

