/* XPM */
static char * shred_xpm[] = {
"32 32 13 1",
" 	c none",
".	c #999900",
"+	c #FFFFFF",
"@	c #FFFF99",
"#	c #FFFBF0",
"$	c #CCCC66",
"%	c #040404",
"&	c #FFCC99",
"*	c #000000",
"=	c #868686",
"-	c #D4D0C8",
";	c #0000FF",
">	c #FF0000",
"    ........                    ",
"   .+@@@@@@@.                   ",
"  .+@@@@@@@@@.                  ",
" .#@@@@@@@@@@@.                 ",
".$$$$$$$$$$$$$$............     ",
".++++++++++++++++++++++++++%    ",
".+@@@@@@@@@@@@@@@@&@@&@@@&@$*   ",
".+@@@@@@==================&$%   ",
".+@@@@@@=++++++++++++++++=%$%   ",
".+@@@@@@=++++++++++++++++==%%   ",
".+@@@@@@=++++++++++++++++=-=%   ",
".+@@@@@@=++++++++++++++++=+-=%  ",
".+@@@@@@=++++++++++++++++=++-=% ",
".+@@@@@@=+++;;;;;;;;+++++=%%%%%%",
".+@@@@@@=+++++++++++++++++++++-%",
".+@@@@@@=+++;;;;;;;;;;;;;;;;++-%",
".+@@@@&@=+++++++++++++++++++++-%",
".+@@@@@@=+++;;;;;;;;;;;;;;;;++-%",
".+@@ @@>>>>+++++++++++++++++++-%",
" +@@&>>>>>>>>;;;;;;;;;;;;;;;++-%",
". @ >>>>++>>>>++=+++++=+=+ +=+==",
" + &>>>>++>>>>==  ====+ +===+=+*",
". @>>>>>++>>>>>+=+=+ +=+ +=+++= ",
"   >>>>>++>>>>>=+ +=+=+ +=+=+ +=",
"   >>>>>++>>>>>+=+=+=+=+=+=+=  =",
"   >>>>>>>>>>>>=+=+= =+=+ += =+ ",
"    >>>>++>>>> +=+= + =  += + ==",
"    >>>>++>>>> =+= = =+  =   =  ",
"     >>>>>>>>   =     = = +   +=",
"       >>>> + =  =  =     = = = ",
"                                ",
"        =   =   =  =  =   =   = "};
