/* XPM */
static char * trash_xpm[] = {
"32 32 55 1",
" 	c none",
".	c #D4D0C8",
"+	c #9C6300",
"@	c #63639C",
"#	c #C6C6C6",
"$	c #633100",
"%	c #000031",
"&	c #ADAD94",
"*	c #525252",
"=	c #FFFFFF",
"-	c #313131",
";	c #CE9C9C",
">	c #EFD6C6",
",	c #9C6363",
"'	c #639C9C",
")	c #CEFFFF",
"!	c #313163",
"~	c #737373",
"{	c #9C9CCE",
"]	c #313100",
"^	c #CECEFF",
"/	c #CEEFFF",
"(	c #D6D6D6",
"_	c #310031",
":	c #636331",
"<	c #A5A5A5",
"[	c #949494",
"}	c #FFFFF7",
"|	c #CECECE",
"1	c #9CCECE",
"2	c #639CCE",
"3	c #848484",
"4	c #B5B5B5",
"5	c #EFEFEF",
"6	c #E7E7D6",
"7	c #9C9C9C",
"8	c #FFFFCE",
"9	c #A5CEF7",
"0	c #6363FF",
"a	c #633163",
"b	c #636363",
"c	c #31009C",
"d	c #319CFF",
"e	c #3163FF",
"f	c #3131FF",
"g	c #3131CE",
"h	c #DEDEDE",
"i	c #F7F7F7",
"j	c #0031CE",
"k	c #31CEFF",
"l	c #9CFFFF",
"m	c #639CFF",
"n	c #9CCEFF",
"o	c #63CEFF",
"p	c #00FFFF",
"          ..+.@@+#$%&*@@@@      ",
"        @.@+=*-;>>,*'=)!+~@@    ",
"       @{]${^)*+;$'=)/(/_:<[!   ",
"      @{}^{]$^|%$/=//1$21%:3#!  ",
"     @3}^@*{3$%*/(/12$=%22$3>!  ",
"    @!4^@:=*%^>5$212$=>>%@[67!  ",
"   ~8%{@:=/(*;^>5@%:>>$@76>7@!  ",
"   @8!@:=///4*;^>54$@@46><7{3!  ",
"   @8,!<9(9(94%$@$@<|6><7{{{0!  ",
"   @<8;,!!a@b@b<466>##<<44{<3!  ",
"   @{<(588888888>>4<<4##^44{0!  ",
"   @[#4#####444444||^||^4c{<3!  ",
"   @{4^|(555555666;defg#^c;{0!  ",
"   @[#|hii}}}i}i|d00eefj4c{<3!  ",
"   @{4^66}}}}}i|d00eeefgjj;{0!  ",
"   @[#|hii}}}i}kd;;>>^efgj{<3!  ",
"   @{4^66}}}}}|k;66>^>^fjj;{0!  ",
"   @[#|hii}}}i|k65/6>^efgj{<3!  ",
"   @{4^66}}}}}|}i66>^0egjj;{0!  ",
"   @[#|hii}}}lmk65/6>^|^44{<3!  ",
"   @{4^66}}}}nlkm66>^>^#^j4{0!  ",
"   @[#|hii}}}olpkd06>^|^4j{<3!  ",
"   @{4^66}}}}olpkmd00>^#;j4{0!  ",
"   @[#|hii}}}olkkm06>^|^g,{<3!  ",
"   @{4^66}}}}oldkmm0^>^ff;4{0!  ",
"   @[#|hii}}}ol>dkmm000e;4{7!   ",
"   @{4^66}}}}ok}>dddd0e;^4{~    ",
"   @[#|hii}}}k>i6>;,,,|^<[      ",
"   @{4^66}}}}>i}i66>^|4[        ",
"    3#|hii}}}i}i65/|<[          ",
"     {466}}}}}i}644[            ",
"       [7444444[[               "};
