/* XPM */
static char * links_xpm[] = {
"48 48 92 2",
"  	c None",
". 	c #000000",
"+ 	c #400000",
"@ 	c #7F0000",
"# 	c #004000",
"$ 	c #007F00",
"% 	c #800000",
"& 	c #FF0000",
"* 	c #008000",
"= 	c #00FF00",
"- 	c #F20000",
"; 	c #750000",
"> 	c #3B0000",
", 	c #E70000",
"' 	c #EB0000",
") 	c #250000",
"! 	c #200000",
"~ 	c #140000",
"{ 	c #030000",
"] 	c #010000",
"^ 	c #0F0000",
"/ 	c #1E0000",
"( 	c #120000",
"_ 	c #EE0000",
": 	c #760000",
"< 	c #DC0000",
"[ 	c #FE0000",
"} 	c #F30000",
"| 	c #A40000",
"1 	c #AF0000",
"2 	c #580000",
"3 	c #000040",
"4 	c #00007F",
"5 	c #000058",
"6 	c #404040",
"7 	c #7F7F7F",
"8 	c #0000FF",
"9 	c #0000AF",
"0 	c #FFFFFF",
"a 	c #000080",
"b 	c #808080",
"c 	c #D8D8D8",
"d 	c #4D4D4D",
"e 	c #CCCCCC",
"f 	c #9C9C9C",
"g 	c #C8C8C8",
"h 	c #606060",
"i 	c #DEDEDE",
"j 	c #FDFDFD",
"k 	c #1B1B1B",
"l 	c #010101",
"m 	c #F3F3F3",
"n 	c #C6C6C6",
"o 	c #0C0C0C",
"p 	c #666666",
"q 	c #202020",
"r 	c #EAEAEA",
"s 	c #0B0B0B",
"t 	c #353535",
"u 	c #707070",
"v 	c #4B4B4B",
"w 	c #C5C5C5",
"x 	c #040404",
"y 	c #151515",
"z 	c #767676",
"A 	c #0000E6",
"B 	c #00009A",
"C 	c #6C6C6C",
"D 	c #050505",
"E 	c #8B8B8B",
"F 	c #0000FC",
"G 	c #0000E2",
"H 	c #0000DD",
"I 	c #0000D1",
"J 	c #000041",
"K 	c #000010",
"L 	c #0000BD",
"M 	c #0000DA",
"N 	c #000071",
"O 	c #6E6E6E",
"P 	c #D5D5D5",
"Q 	c #C0C0C0",
"R 	c #A1A1A1",
"S 	c #737373",
"T 	c #020202",
"U 	c #0000E7",
"V 	c #B7B7B7",
"W 	c #0000F8",
"X 	c #0000B7",
"Y 	c #00005C",
"Z 	c #5C5C5C",
"` 	c #F4F4F4",
". . . . . . . . . . . . . . . . . . . . . . . . . . . . . . . . . . . . . . . . . . . . . . . . ",
". + @ @ @ @ @ @ @ @ @ @ @ @ @ @ @ @ @ @ @ @ + . . # $ $ $ $ $ $ $ $ $ $ $ $ $ $ $ $ $ $ $ $ # . ",
". % & & & & & & & & & & & & & & & & & & & & % . . * = = = = = = = = = = = = = = = = = = = = * . ",
". % & & & & & & & & & & & & & & & & & & & & % . . * = = = = = = = = = = = = = = = = = = = = * . ",
". @ & & & & & & & & & & & & & & & & & & & & @ . . $ = = = = = = = = = = = = = = = = = = = = $ . ",
". % & & & - ; ; ; ; ; ; ; ; ; ; ; ; ; ; ; ; > . . * = = = = = = = = = = = = = = = = = = = = * . ",
". % & & & , . . . . . . . . . . . . . . . . . . . * = = = = = = = = = = = = = = = = = = = = * . ",
". @ & & & ' ) ) ! ~ { . . . . . . . . ] ^ / ( . . $ = = = = = = = = = = = = = = = = = = = = $ . ",
". @ & & & & & & & & _ : . . . . . . > < [ & @ . . $ = = = = = = = = = = = = = = = = = = = = $ . ",
". % & & & & & & & & & } . . . . . . | & & & % . . * = = = = = = = = = = = = = = = = = = = = * . ",
". @ & & & & & & & & & & . . . . . . 1 & & & @ . . $ = = = = = = = = = = = = = = = = = = = = $ . ",
". % & & & & & & & & & & . . . . . . 1 & & & % . . * = = = = = = = = = = = = = = = = = = = = * . ",
". % & & & & & & & & & & . . . . . . 1 & & & % . . * = = = = = = = = = = = = = = = = = = = = * . ",
". @ & & & & & & & & & & . . . . . . 1 & & & @ . . $ = = = = = = = = = = = = = = = = = = = = $ . ",
". @ & & & & & & & & & & . . . . . . 1 & & & @ . . $ = = = = = = = = = = = = = = = = = = = = $ . ",
". % & & & & & & & & & & . . . . . . 1 & & & % . . * = = = = = = = = = = = = = = = = = = = = * . ",
". @ & & & & & & & & & & . . . . . . 1 & & & @ . . $ = = = = = = = = = = = = = = = = = = = = $ . ",
". % & & & & & & & & & & . . . . . . 1 & & & % . . * = = = = = = = = = = = = = = = = = = = = * . ",
". % & & & & & & & & & & . . . . . . 1 & & & % . . * = = = = = = = = = = = = = = = = = = = = * . ",
". @ & & & & & & & & & & . . . . . . 1 & & & @ . . $ = = = = = = = = = = = = = = = = = = = = $ . ",
". @ & & & & & & & & & & . . . . . . 1 & & & @ . . $ = = = = = = = = = = = = = = = = = = = = $ . ",
". % & & & & & & & & & & . . . . . . 1 & & & % . . * = = = = = = = = = = = = = = = = = = = = * . ",
". + % % % % % % % % % % . . . . . . 2 % % % + . . # * * * * * * * * * * * * * * * * * * * * # . ",
". . . . . . . . . . . . . . . . . . . . . . . . . . . . . . . . . . . . . . . . . . . . . . . . ",
". . . . . . . . . . . . . . . . . . . . . . . . . . . . . . . . . . . . . . . . . . . . . . . . ",
". 3 4 4 4 4 4 4 4 4 4 4 . . . . . . 5 4 4 4 3 . . 6 7 7 7 7 7 7 7 7 7 7 7 7 7 7 7 7 7 7 7 7 6 . ",
". 4 8 8 8 8 8 8 8 8 8 8 . . . . . . 9 8 8 8 4 . . 7 0 0 0 0 0 0 0 0 0 0 0 0 0 0 0 0 0 0 0 0 7 . ",
". a 8 8 8 8 8 8 8 8 8 8 . . . . . . 9 8 8 8 a . . b 0 0 0 0 0 0 0 0 0 0 0 0 0 0 0 0 0 0 0 0 b . ",
". 4 8 8 8 8 8 8 8 8 8 8 . . . . . . 9 8 8 8 4 . . 7 0 0 0 0 0 0 0 0 0 0 0 c d d e 0 0 0 0 0 7 . ",
". a 8 8 8 8 8 8 8 8 8 8 . . . . . . 9 8 8 8 a . . b 0 0 0 0 0 0 0 0 0 0 0 f . . g 0 0 0 0 0 b . ",
". a 8 8 8 8 8 8 8 8 8 8 . . . . . . 9 8 8 8 a . . b 0 0 0 0 0 0 0 0 0 0 0 h . . i 0 0 0 0 0 b . ",
". 4 8 8 8 8 8 8 8 8 8 8 . . . . . . 9 8 8 8 4 . . 7 0 0 0 0 0 0 0 0 0 0 j k . l m 0 0 0 0 0 7 . ",
". 4 8 8 8 8 8 8 8 8 8 8 . . . . . . 9 8 8 8 4 . . 7 0 0 0 0 0 0 0 0 0 0 n . . o j 0 0 0 0 0 7 . ",
". a 8 8 8 8 8 8 8 8 8 8 . . . . . . 9 8 8 8 a . . b 0 0 0 0 0 0 0 0 0 0 p . . q 0 0 0 0 0 0 b . ",
". 4 8 8 8 8 8 8 8 8 8 8 . . . . . . 9 8 8 8 4 . . 7 0 0 0 0 0 0 0 0 0 r s . . t 0 0 0 0 0 0 7 . ",
". a 8 8 8 8 8 8 8 8 8 8 . . . . . . 9 8 8 8 a . . b 0 0 0 0 0 0 0 0 0 u . . . v 0 0 0 0 0 0 b . ",
". a 8 8 8 8 8 8 8 8 8 8 . . . . . . 9 8 8 8 a . . b 0 0 0 0 0 0 0 0 w x . . . h 0 0 0 0 0 0 b . ",
". 4 8 8 8 8 8 8 8 8 8 8 . . . . . . 9 8 8 8 4 . . 7 0 0 0 0 0 0 0 n y . . . . z 0 0 0 0 0 0 7 . ",
". 4 8 8 8 8 8 8 8 8 8 A . . . . . . B 8 8 8 4 . . 7 0 0 0 0 0 i C D . . . . . E 0 0 0 0 0 0 7 . ",
". a 8 8 8 F G G H I 9 J . . . . . . K 4 L M N . . O P Q R S t T . . . . . . . R 0 0 0 0 0 0 b . ",
". 4 8 8 8 U . . . . . . . . . . . . . . . . . . . . . . . . . . . . . . . . . V 0 0 0 0 0 0 7 . ",
". a 8 8 8 U . . . . . . . . . . . . . . . . . . . . . . . . . . . . . . . . . e 0 0 0 0 0 0 b . ",
". a 8 8 8 W X X X X X X X X X X X X X X X X Y . . Z V V V V V V V V V V V V V ` 0 0 0 0 0 0 b . ",
". 4 8 8 8 8 8 8 8 8 8 8 8 8 8 8 8 8 8 8 8 8 4 . . 7 0 0 0 0 0 0 0 0 0 0 0 0 0 0 0 0 0 0 0 0 7 . ",
". 4 8 8 8 8 8 8 8 8 8 8 8 8 8 8 8 8 8 8 8 8 4 . . 7 0 0 0 0 0 0 0 0 0 0 0 0 0 0 0 0 0 0 0 0 7 . ",
". a 8 8 8 8 8 8 8 8 8 8 8 8 8 8 8 8 8 8 8 8 a . . b 0 0 0 0 0 0 0 0 0 0 0 0 0 0 0 0 0 0 0 0 b . ",
". 3 a a a a a a a a a a a a a a a a a a a a 3 . . 6 b b b b b b b b b b b b b b b b b b b b 6 . ",
". . . . . . . . . . . . . . . . . . . . . . . . . . . . . . . . . . . . . . . . . . . . . . . . "};
