<?xml version="1.0" encoding="UTF-8" standalone="no"?>
<!-- Created with Inkscape (http://www.inkscape.org/) -->
<svg
   xmlns:dc="http://purl.org/dc/elements/1.1/"
   xmlns:cc="http://web.resource.org/cc/"
   xmlns:rdf="http://www.w3.org/1999/02/22-rdf-syntax-ns#"
   xmlns:svg="http://www.w3.org/2000/svg"
   xmlns="http://www.w3.org/2000/svg"
   xmlns:xlink="http://www.w3.org/1999/xlink"
   xmlns:sodipodi="http://sodipodi.sourceforge.net/DTD/sodipodi-0.dtd"
   xmlns:inkscape="http://www.inkscape.org/namespaces/inkscape"
   id="svg1"
   sodipodi:version="0.32"
   inkscape:version="0.44.1"
   width="480.00000pt"
   height="480.00000pt"
   sodipodi:docbase="/devel/work/gqview/src/icons/svg"
   sodipodi:docname="gqview_icon.svg">
  <metadata
     id="metadata2137">
    <rdf:RDF>
      <cc:Work
         rdf:about="">
        <dc:format>image/svg+xml</dc:format>
        <dc:type
           rdf:resource="http://purl.org/dc/dcmitype/StillImage" />
      </cc:Work>
    </rdf:RDF>
  </metadata>
  <defs
     id="defs3">
    <linearGradient
       id="linearGradient864">
      <stop
         style="stop-color:#2a2a2a;stop-opacity:1.0000000;"
         offset="0.0000000"
         id="stop865" />
      <stop
         style="stop-color:#000000;stop-opacity:0.33333334;"
         offset="0.67852712"
         id="stop866" />
      <stop
         style="stop-color:#000000;stop-opacity:0.33333334;"
         offset="1.0000000"
         id="stop867" />
    </linearGradient>
    <linearGradient
       id="linearGradient1094">
      <stop
         style="stop-color:#2a2a2a;stop-opacity:1.0000000;"
         offset="0.0000000"
         id="stop1095" />
      <stop
         style="stop-color:#cdcdcd;stop-opacity:1.0000000;"
         offset="0.67852712"
         id="stop1097" />
      <stop
         style="stop-color:#000000;stop-opacity:1.0000000;"
         offset="1.0000000"
         id="stop1096" />
    </linearGradient>
    <linearGradient
       id="linearGradient997">
      <stop
         style="stop-color:#0000ff;stop-opacity:1.0000000;"
         offset="0.0000000"
         id="stop998" />
      <stop
         style="stop-color:#ff0000;stop-opacity:1.0000000;"
         offset="1.0000000"
         id="stop999" />
    </linearGradient>
    <linearGradient
       id="linearGradient993">
      <stop
         style="stop-color:#00ff00;stop-opacity:1.0000000;"
         offset="0.0000000"
         id="stop994" />
      <stop
         style="stop-color:#0000ff;stop-opacity:1.0000000;"
         offset="1.0000000"
         id="stop995" />
    </linearGradient>
    <linearGradient
       id="linearGradient988">
      <stop
         style="stop-color:#ff0000;stop-opacity:1.0000000;"
         offset="0.0000000"
         id="stop989" />
      <stop
         style="stop-color:#00ff00;stop-opacity:1.0000000;"
         offset="1.0000000"
         id="stop990" />
    </linearGradient>
    <linearGradient
       xlink:href="#linearGradient988"
       id="linearGradient991"
       x1="-1.4582519e-17"
       y1="0.50000000"
       x2="1.0000000"
       y2="0.50000000" />
    <linearGradient
       xlink:href="#linearGradient993"
       id="linearGradient992"
       x1="7.6842829e-18"
       y1="0.50000000"
       x2="1.0000000"
       y2="0.50000000" />
    <linearGradient
       xlink:href="#linearGradient997"
       id="linearGradient996"
       x1="-4.1091262e-17"
       y1="0.50000000"
       x2="1.0000000"
       y2="0.50000000" />
    <linearGradient
       xlink:href="#linearGradient1094"
       id="linearGradient1093"
       x1="0.78640777"
       y1="0.16406250"
       x2="0.44174758"
       y2="0.81250000" />
    <radialGradient
       xlink:href="#linearGradient864"
       id="radialGradient862"
       cx="0.50000000"
       cy="0.50000000"
       r="0.50000000"
       fx="0.50000000"
       fy="0.50000000" />
  </defs>
  <sodipodi:namedview
     id="base"
     pagecolor="#ffffff"
     bordercolor="#666666"
     borderopacity="1.0"
     inkscape:pageopacity="0.0"
     inkscape:pageshadow="2"
     inkscape:zoom="1"
     inkscape:cx="353.69216"
     inkscape:cy="239.49013"
     inkscape:window-width="961"
     inkscape:window-height="789"
     inkscape:window-x="12"
     inkscape:window-y="98"
     inkscape:current-layer="svg1" />
  <path
     style="fill:#222222;fill-rule:evenodd;stroke:#000000;stroke-width:0.86784887pt;"
     d="M 166.16131,127.52253 C 139.98819,224.23372 171.64937,409.43952 10.639579,463.83655 L 425.41760,526.50044 C 545.38532,484.46586 548.18293,290.77288 570.81434,180.06142 L 166.16131,127.52253 z "
     id="path1000"
     sodipodi:nodetypes="ccccc" />
  <path
     style="fill:#ffffff;fill-rule:evenodd;stroke:#000000;stroke-width:0.83179436pt;"
     d="M 172.72134,136.49807 C 147.45931,255.09871 169.30029,404.09970 33.118996,459.93043 L 424.22552,517.52490 C 536.24935,474.00657 538.94042,293.52835 560.70992,187.79810 L 172.72134,136.49807 z "
     id="path1001"
     sodipodi:nodetypes="ccccc" />
  <path
     style="fill:#222222;fill-rule:evenodd;stroke:#000000;stroke-width:0.73289633pt;"
     d="M 196.13385,174.68428 C 173.53069,275.52490 189.70341,411.86718 85.934100,447.09289 L 405.57007,492.83869 C 499.47486,451.97747 507.76561,310.98590 528.14482,220.43008 L 196.13385,174.68428 z "
     id="path980"
     sodipodi:nodetypes="ccccc" />
  <path
     style="fill:url(#linearGradient992);fill-rule:evenodd;stroke:#000000;stroke-width:0.68719983pt;"
     d="M 198.41735,178.77347 C 178.98079,266.33262 188.18182,410.85995 98.288450,445.69149 L 405.53657,489.20273 C 496.18534,453.56781 505.27838,307.79803 523.66547,222.45200 L 198.41735,178.77347 z "
     id="path982"
     sodipodi:nodetypes="ccccc" />
  <path
     style="fill:url(#linearGradient996);fill-opacity:0.75000000;fill-rule:evenodd;stroke:#000000;stroke-width:0.68719983pt;"
     d="M 505.93207,317.05354 C 441.14145,380.63479 367.35082,438.59105 250.81020,467.29729 L 405.52582,489.20667 C 467.25690,464.93957 491.15266,389.60659 505.93207,317.05354 z "
     id="path987"
     sodipodi:nodetypes="cccc" />
  <path
     style="fill:url(#linearGradient991);fill-opacity:0.75000000;fill-rule:evenodd;stroke:#000000;stroke-width:0.68719983pt;"
     d="M 198.41332,178.76292 C 186.01954,234.59530 185.17050,313.51181 162.94770,372.45979 C 287.05394,348.96604 385.28520,247.84730 437.39145,210.85354 L 198.41332,178.76292 z "
     id="path986"
     sodipodi:nodetypes="cccc" />
  <path
     style="fill:#222222;fill-rule:evenodd;stroke:#000000;stroke-width:1.1440549pt;"
     d="M 212.30707,66.347292 C 199.62791,66.384420 186.37127,68.481070 172.87582,72.872292 C 155.13595,78.644590 138.65746,87.862274 123.96645,99.534792 C 114.74461,165.66860 112.88791,248.11341 93.338320,323.63479 C 120.70540,348.02752 160.38155,356.69589 202.51957,342.98479 C 274.49529,319.56494 326.25920,240.03174 318.08520,165.48792 C 312.52678,114.79716 280.63427,79.461533 238.18207,69.356667 L 219.11332,66.712917 C 216.84932,66.584107 214.61087,66.340546 212.30707,66.347292 z "
     id="path1087" />
  <path
     style="fill:#ffffff;fill-rule:evenodd;stroke:#000000;stroke-width:1.0965256pt;"
     d="M 176.36332,71.944167 C 175.19904,72.290206 174.04397,72.492194 172.87582,72.872292 C 159.97631,77.069605 147.77102,83.142154 136.39770,90.591042 C 123.60381,169.09201 121.31759,254.99778 102.00082,330.52542 C 128.76288,349.51511 164.63869,355.31068 202.51957,342.98479 C 274.49529,319.56494 326.25920,240.03174 318.08520,165.48792 C 314.24663,130.48162 297.76448,102.91055 274.01332,85.781667 L 176.36332,71.944167 z "
     id="path1085" />
  <path
     style="fill:#222222;fill-rule:evenodd;stroke:#000000;stroke-width:0.96615171pt;"
     d="M 170.34457,118.99729 C 155.41114,190.48753 153.64072,274.92554 137.04457,346.44417 C 157.06518,351.24551 179.42145,350.50058 202.51957,342.98479 C 274.49529,319.56494 326.25920,240.03174 318.08520,165.48792 C 317.09824,156.48722 315.24260,148.01568 312.68520,140.03479 L 170.34457,118.99729 z "
     id="path1083" />
  <path
     style="fill:url(#linearGradient991);fill-opacity:0.75000000;fill-rule:evenodd;stroke:#000000;stroke-width:0.90591164pt;"
     d="M 173.24145,124.56604 C 160.07711,188.20193 157.10650,273.74718 140.05395,347.11917 C 159.29576,351.14436 180.57410,350.12553 202.51957,342.98479 C 274.49529,319.56494 326.25920,240.03174 318.08520,165.48792 C 317.29068,158.24215 315.80232,151.43611 313.97895,144.84417 L 173.24145,124.56604 z "
     id="path1081" />
  <path
     style="fill-rule:evenodd;stroke:#000000;stroke-width:0.90000000pt;"
     d="M 214.36020,54.591042 C 200.62883,54.631256 186.28184,56.922899 171.66645,61.678542 C 93.717670,87.041971 37.629706,173.15479 46.482073,253.88479 C 55.334440,334.61479 125.78018,379.54197 203.72895,354.17854 C 281.67772,328.81511 337.76569,242.70229 328.91332,161.97229 C 321.72077,96.379167 273.86282,54.416784 214.36020,54.591042 z M 212.30707,66.347292 C 267.25013,66.186406 311.44383,104.92106 318.08520,165.48792 C 326.25920,240.03174 274.49529,319.56494 202.51957,342.98479 C 130.54385,366.40465 65.484190,324.91299 57.310198,250.36917 C 49.136204,175.82535 100.90010,96.292146 172.87582,72.872292 C 186.37127,68.481070 199.62791,66.384420 212.30707,66.347292 z "
     id="path1089" />
  <path
     style="fill-rule:evenodd;stroke:#000000;stroke-width:0.92415619pt;"
     d="M 220.36861,55.726332 C 206.15008,55.767280 191.29412,58.100804 176.16020,62.943357 C 95.446030,88.770307 37.368214,176.45686 46.534638,258.66221 C 55.701062,340.86757 128.64602,386.61580 209.36019,360.78885 C 290.07437,334.96190 348.15218,247.27535 338.98575,165.06999 C 331.53804,98.278143 281.98221,55.548889 220.36861,55.726332 z M 218.24264,67.697429 C 275.13493,67.533604 320.89649,106.97614 327.77348,168.64987 C 336.23747,244.55600 282.63712,325.54268 208.10791,349.39053 C 133.57869,373.23839 66.210900,330.98847 57.746915,255.08234 C 49.282930,179.17622 102.88326,98.189532 177.41248,74.341675 C 191.38671,69.870202 205.11366,67.735235 218.24264,67.697429 z "
     id="path1091" />
  <path
     style="fill-rule:evenodd;stroke:#000000;stroke-width:1.0395000pt;"
     d="M 326.74770,225.61917 C 319.88017,257.19127 304.58285,285.15832 283.49145,306.64729 L 457.07895,365.54104 L 457.38832,364.95042 C 458.37279,365.78938 459.54461,366.38479 461.01645,366.38479 C 470.46342,366.38480 486.42779,347.99872 496.65082,325.35042 C 505.16060,306.49769 506.88946,290.77387 501.82582,285.97542 L 502.30395,285.18792 L 326.74770,225.61917 z "
     id="path1155" />
  <path
     style="fill:url(#linearGradient1093);fill-opacity:0.75000000;fill-rule:evenodd;stroke:#000000;stroke-width:0.84136868pt;"
     d="M 327.42270,232.59417 L 326.80395,233.83167 C 326.64043,233.81784 326.52510,233.71917 326.35395,233.71917 C 318.17475,233.71917 304.35193,249.63213 295.50082,269.24104 C 286.64972,288.84995 286.11226,304.76291 294.29145,304.76292 C 294.59522,304.76292 294.95702,304.58120 295.27582,304.53792 L 456.26332,359.15667 L 495.41332,289.60354 L 327.42270,232.59417 z "
     id="path1111" />
  <path
     sodipodi:type="arc"
     style="fill:#474747;fill-opacity:1.0000000;fill-rule:evenodd;stroke:#000000;stroke-width:1.0000000pt;"
     id="path1098"
     sodipodi:cx="488.12500"
     sodipodi:cy="342.50000"
     sodipodi:rx="19.375000"
     sodipodi:ry="46.250000"
     d="M 507.50000 342.50000 A 19.375000 46.250000 0 1 0 468.75000,342.50000 A 19.375000 46.250000 0 1 0 507.50000 342.50000 z"
     transform="matrix(0.764769,0.000000,-0.346694,0.768074,221.1382,61.30098)" />
</svg>
