<?xml version="1.0" encoding="UTF-8" standalone="no"?>
<!-- Created with Inkscape (http://www.inkscape.org/) -->
<svg
   xmlns:dc="http://purl.org/dc/elements/1.1/"
   xmlns:cc="http://web.resource.org/cc/"
   xmlns:rdf="http://www.w3.org/1999/02/22-rdf-syntax-ns#"
   xmlns:svg="http://www.w3.org/2000/svg"
   xmlns="http://www.w3.org/2000/svg"
   xmlns:xlink="http://www.w3.org/1999/xlink"
   xmlns:sodipodi="http://sodipodi.sourceforge.net/DTD/sodipodi-0.dtd"
   xmlns:inkscape="http://www.inkscape.org/namespaces/inkscape"
   id="svg1"
   sodipodi:version="0.32"
   inkscape:version="0.44.1"
   width="480.00000pt"
   height="480.00000pt"
   sodipodi:docbase="/devel/work/gqview/src/icons/svg"
   sodipodi:docname="icon_config.svg"
   inkscape:export-filename="/devel/work/gqview/src/icons/icon_view.png"
   inkscape:export-xdpi="7.1999998"
   inkscape:export-ydpi="7.1999998">
  <metadata
     id="metadata1913">
    <rdf:RDF>
      <cc:Work
         rdf:about="">
        <dc:format>image/svg+xml</dc:format>
        <dc:type
           rdf:resource="http://purl.org/dc/dcmitype/StillImage" />
      </cc:Work>
    </rdf:RDF>
  </metadata>
  <defs
     id="defs3">
    <linearGradient
       id="linearGradient3750">
      <stop
         style="stop-color:#c1c1c1;stop-opacity:1;"
         offset="0"
         id="stop3752" />
      <stop
         id="stop3758"
         offset="0.48388889"
         style="stop-color:#e5e5e5;stop-opacity:1;" />
      <stop
         style="stop-color:#d9d9d9;stop-opacity:1;"
         offset="0.67000002"
         id="stop3760" />
      <stop
         style="stop-color:#e9e9e9;stop-opacity:1;"
         offset="1"
         id="stop3754" />
    </linearGradient>
    <linearGradient
       id="linearGradient2812">
      <stop
         style="stop-color:white;stop-opacity:0.28235295;"
         offset="0"
         id="stop2814" />
      <stop
         style="stop-color:black;stop-opacity:0.39607844;"
         offset="1"
         id="stop2816" />
    </linearGradient>
    <linearGradient
       id="linearGradient2796">
      <stop
         style="stop-color:#e2e2e2;stop-opacity:1;"
         offset="0"
         id="stop2798" />
      <stop
         style="stop-color:#c4c4c4;stop-opacity:1;"
         offset="1"
         id="stop2800" />
    </linearGradient>
    <linearGradient
       id="linearGradient864">
      <stop
         style="stop-color:#2a2a2a;stop-opacity:1.0000000;"
         offset="0.0000000"
         id="stop865" />
      <stop
         style="stop-color:#000000;stop-opacity:0.33333334;"
         offset="0.67852712"
         id="stop866" />
      <stop
         style="stop-color:#000000;stop-opacity:0.33333334;"
         offset="1.0000000"
         id="stop867" />
    </linearGradient>
    <linearGradient
       id="linearGradient1094">
      <stop
         style="stop-color:#2a2a2a;stop-opacity:1.0000000;"
         offset="0.0000000"
         id="stop1095" />
      <stop
         style="stop-color:#cdcdcd;stop-opacity:1.0000000;"
         offset="0.67852712"
         id="stop1097" />
      <stop
         style="stop-color:#000000;stop-opacity:1.0000000;"
         offset="1.0000000"
         id="stop1096" />
    </linearGradient>
    <linearGradient
       id="linearGradient997">
      <stop
         style="stop-color:#0000ff;stop-opacity:1.0000000;"
         offset="0.0000000"
         id="stop998" />
      <stop
         style="stop-color:#ff0000;stop-opacity:1.0000000;"
         offset="1.0000000"
         id="stop999" />
    </linearGradient>
    <linearGradient
       id="linearGradient993">
      <stop
         style="stop-color:#00ff00;stop-opacity:1.0000000;"
         offset="0.0000000"
         id="stop994" />
      <stop
         style="stop-color:#0000ff;stop-opacity:1.0000000;"
         offset="1.0000000"
         id="stop995" />
    </linearGradient>
    <linearGradient
       id="linearGradient988">
      <stop
         style="stop-color:#ff0000;stop-opacity:1.0000000;"
         offset="0.0000000"
         id="stop989" />
      <stop
         style="stop-color:#00ff00;stop-opacity:1.0000000;"
         offset="1.0000000"
         id="stop990" />
    </linearGradient>
    <linearGradient
       xlink:href="#linearGradient988"
       id="linearGradient991"
       x1="-1.4582519e-17"
       y1="0.50000000"
       x2="1.0000000"
       y2="0.50000000" />
    <linearGradient
       xlink:href="#linearGradient993"
       id="linearGradient992"
       x1="7.6842829e-18"
       y1="0.50000000"
       x2="1.0000000"
       y2="0.50000000" />
    <linearGradient
       xlink:href="#linearGradient997"
       id="linearGradient996"
       x1="-4.1091262e-17"
       y1="0.50000000"
       x2="1.0000000"
       y2="0.50000000" />
    <linearGradient
       xlink:href="#linearGradient1094"
       id="linearGradient1093"
       x1="0.78640777"
       y1="0.16406250"
       x2="0.44174758"
       y2="0.81250000" />
    <radialGradient
       xlink:href="#linearGradient864"
       id="radialGradient862"
       cx="0.50000000"
       cy="0.50000000"
       r="0.50000000"
       fx="0.50000000"
       fy="0.50000000" />
    <linearGradient
       inkscape:collect="always"
       xlink:href="#linearGradient988"
       id="linearGradient1915"
       x1="156.30314"
       y1="211.51643"
       x2="358.01659"
       y2="211.51643"
       gradientTransform="matrix(0.892418,0,0,1.120551,282,-101)"
       gradientUnits="userSpaceOnUse" />
    <linearGradient
       inkscape:collect="always"
       xlink:href="#linearGradient2812"
       id="linearGradient2818"
       x1="101.11626"
       y1="84.165619"
       x2="275.06451"
       y2="524.69312"
       gradientUnits="userSpaceOnUse" />
    <linearGradient
       inkscape:collect="always"
       xlink:href="#linearGradient3750"
       id="linearGradient3756"
       x1="205.29149"
       y1="315.03937"
       x2="393.25339"
       y2="315.03937"
       gradientUnits="userSpaceOnUse" />
    <linearGradient
       inkscape:collect="always"
       xlink:href="#linearGradient3750"
       id="linearGradient3764"
       gradientUnits="userSpaceOnUse"
       x1="205.29149"
       y1="315.03937"
       x2="393.25339"
       y2="315.03937"
       gradientTransform="matrix(1,0,0,-1,0,413.704)" />
    <linearGradient
       inkscape:collect="always"
       xlink:href="#linearGradient3750"
       id="linearGradient3767"
       gradientUnits="userSpaceOnUse"
       x1="205.29149"
       y1="315.03937"
       x2="393.25339"
       y2="315.03937"
       gradientTransform="matrix(-1,0,0,1,496.0254,89.09549)" />
  </defs>
  <sodipodi:namedview
     id="base"
     pagecolor="#ffffff"
     bordercolor="#666666"
     borderopacity="1.0"
     inkscape:pageopacity="0.0"
     inkscape:pageshadow="2"
     inkscape:zoom="1"
     inkscape:cx="546.92194"
     inkscape:cy="367.1609"
     inkscape:window-width="1268"
     inkscape:window-height="941"
     inkscape:window-x="6"
     inkscape:window-y="77"
     inkscape:current-layer="svg1" />
  <path
     style="fill:#222222;fill-rule:evenodd;stroke:#000000;stroke-width:0.86784887pt;"
     d="M 166.16131,127.52253 C 139.98819,224.23372 171.64937,409.43952 10.639579,463.83655 L 425.41760,526.50044 C 545.38532,484.46586 548.18293,290.77288 570.81434,180.06142 L 166.16131,127.52253 z "
     id="path1000"
     sodipodi:nodetypes="ccccc" />
  <path
     style="fill:#ffffff;fill-rule:evenodd;stroke:#000000;stroke-width:0.83179436pt;"
     d="M 172.72134,136.49807 C 147.45931,255.09871 169.30029,404.09970 33.118996,459.93043 L 424.22552,517.52490 C 536.24935,474.00657 538.94042,293.52835 560.70992,187.79810 L 172.72134,136.49807 z "
     id="path1001"
     sodipodi:nodetypes="ccccc" />
  <path
     style="fill:#222222;fill-rule:evenodd;stroke:#000000;stroke-width:0.73289633pt;"
     d="M 196.13385,174.68428 C 173.53069,275.52490 189.70341,411.86718 85.934100,447.09289 L 405.57007,492.83869 C 499.47486,451.97747 507.76561,310.98590 528.14482,220.43008 L 196.13385,174.68428 z "
     id="path980"
     sodipodi:nodetypes="ccccc" />
  <path
     style="fill:url(#linearGradient992);fill-rule:evenodd;stroke:#000000;stroke-width:0.68719983pt;"
     d="M 198.41735,178.77347 C 178.98079,266.33262 188.18182,410.85995 98.288450,445.69149 L 405.53657,489.20273 C 496.18534,453.56781 505.27838,307.79803 523.66547,222.45200 L 198.41735,178.77347 z "
     id="path982"
     sodipodi:nodetypes="ccccc" />
  <path
     style="fill:url(#linearGradient991);fill-opacity:0.75000000;fill-rule:evenodd;stroke:#000000;stroke-width:0.68719983pt;"
     d="M 198.41332,178.76292 C 186.01954,234.59530 185.17050,313.51181 162.94770,372.45979 C 287.05394,348.96604 385.28520,247.84730 437.39145,210.85354 L 198.41332,178.76292 z "
     id="path986"
     sodipodi:nodetypes="cccc" />
  <path
     style="fill:url(#linearGradient996);fill-opacity:0.75000000;fill-rule:evenodd;stroke:#000000;stroke-width:0.68719983pt;"
     d="M 505.93207,317.05354 C 441.14145,380.63479 367.35082,438.59105 250.81020,467.29729 L 405.52582,489.20667 C 467.25690,464.93957 491.15266,389.60659 505.93207,317.05354 z "
     id="path987"
     sodipodi:nodetypes="cccc" />
  <path
     style="fill:black;fill-opacity:0.39215686;fill-rule:evenodd;stroke:none;stroke-width:0.86784887pt"
     d="M 166.17428,127.52416 C 160.02485,150.24663 157.06255,177.87582 154.04928,207.52417 C 163.97863,214.86454 176.51658,220.29023 191.95553,222.74292 C 191.95553,222.74292 202.33193,223.75078 206.64303,326.36792 C 202.33114,428.95361 191.95552,429.93042 191.95553,429.93041 C 159.55136,437.66731 140.18849,458.7042 131.48678,482.08666 L 186.70553,490.43041 L 198.67428,474.83666 L 253.92428,474.83666 L 275.92428,503.89916 L 327.92428,511.77416 C 327.96615,478.02675 308.11299,439.87351 260.54928,430.27416 C 260.54928,430.27416 250.15602,429.60547 248.14303,326.33667 C 250.15636,223.07475 260.54927,222.39917 260.54928,222.39917 C 303.11742,212.63947 323.62852,179.68067 327.08053,148.43041 L 280.73678,142.39916 L 253.92428,177.86792 L 198.67428,177.86792 L 167.23678,136.83666 L 167.17428,127.64916 L 166.17428,127.52416 z "
     id="path3825" />
  <path
     style="fill:url(#linearGradient3767);fill-opacity:1;stroke:black;stroke-width:7;stroke-linecap:round;stroke-linejoin:round;stroke-miterlimit:4;stroke-opacity:1;stroke-dasharray:none"
     d="M 257.65035,54.126702 C 313.45631,53.655292 319.11602,171.92675 231.5566,192.00171 C 231.5566,192.00171 221.16368,192.6773 219.15035,295.93921 C 221.16335,399.20802 231.5566,399.87671 231.5566,399.87671 C 321.11602,417.95167 312.45631,537.25438 257.65035,537.78296 L 257.5566,487.56421 L 224.9316,444.43921 L 169.6816,444.43921 L 138.2441,485.43921 L 137.8691,537.78296 C 83.013587,536.87789 75.938467,420.31113 162.96285,399.53296 C 162.96285,399.53296 173.33846,398.55616 177.65035,295.97046 C 173.33926,193.35333 162.96285,192.34546 162.96285,192.34546 C 69.938467,177.56728 82.013587,55.031772 137.8691,54.126702 L 138.2441,106.43921 L 169.6816,147.47046 L 224.9316,147.47046 L 257.5566,104.31421 L 257.65035,54.126702 z "
     id="rect2860"
     sodipodi:nodetypes="ccccccccccccccccccc" />
</svg>
