STARTFONT 2.1
COMMENT AUTOMATICALLY GENERATED FILE. DO NOT EDIT!
COMMENT Generated with 'ucs2any UTBI__10.bdf /usr/local/lib/X11/fonts/util/map-ISO8859-2 ISO8859-2'
COMMENT from an ISO10646-1 encoded source BDF font.
COMMENT ucs2any by Ben Collver <collver1@attbi.com>, 2003, based on
COMMENT ucs2any.pl by Markus Kuhn <http://www.cl.cam.ac.uk/~mgk25/>, 2000.
FONT -Adobe-Utopia-Bold-I-Normal--14-100-100-100-P-78-ISO8859-2
SIZE 10 100 100
FONTBOUNDINGBOX 17 19 -2 -4
COMMENT $Xorg: $
COMMENT ISO10646-1 extension by Markus Kuhn <mkuhn@acm.org>, 2001-03-20
STARTPROPERTIES 28
FOUNDRY "Adobe"
FAMILY_NAME "Utopia"
WEIGHT_NAME "Bold"
SLANT "I"
SETWIDTH_NAME "Normal"
ADD_STYLE_NAME ""
PIXEL_SIZE 14
POINT_SIZE 100
RESOLUTION_X 100
RESOLUTION_Y 100
SPACING "P"
AVERAGE_WIDTH 78
CHARSET_REGISTRY "ISO8859"
CHARSET_ENCODING "2"
CAP_HEIGHT 10
X_HEIGHT 7
RELATIVE_SETWIDTH 50
RELATIVE_WEIGHT 70
WEIGHT 208
FACE_NAME "Utopia Bold Italic"
COPYRIGHT "Copyright (c) 1989, 1991 Adobe Systems Incorporated.  All Rights Reserved."
NOTICE "Utopia is a registered trademark of Adobe Systems Incorporated."
DESTINATION 0
FONT_ASCENT 13
FONT_DESCENT 4
DEFAULT_CHAR 0
_ADOBE_PSFONT "Utopia-BoldItalic"
_DEC_DEVICE_FONTNAMES "PS=Utopia-BoldItalic"
ENDPROPERTIES
CHARS 192
STARTCHAR defaultchar
ENCODING 0
SWIDTH 800 0
DWIDTH 11 0
BBX 11 9 1 0
BITMAP
AAA0
0000
8020
0000
8020
0000
8020
0000
AAA0
ENDCHAR
STARTCHAR space
ENCODING 32
SWIDTH 210 0
DWIDTH 3 0
BBX 0 0 0 0
BITMAP
ENDCHAR
STARTCHAR exclam
ENCODING 33
SWIDTH 285 0
DWIDTH 4 0
BBX 4 10 1 0
BITMAP
30
30
20
20
60
40
00
40
C0
C0
ENDCHAR
STARTCHAR quotedbl
ENCODING 34
SWIDTH 455 0
DWIDTH 6 0
BBX 5 4 2 6
BITMAP
D8
D8
90
90
ENDCHAR
STARTCHAR numbersign
ENCODING 35
SWIDTH 560 0
DWIDTH 8 0
BBX 8 10 1 0
BITMAP
0A
12
12
7F
24
24
FE
48
48
D0
ENDCHAR
STARTCHAR dollar
ENCODING 36
SWIDTH 560 0
DWIDTH 8 0
BBX 8 11 1 -1
BITMAP
04
1C
2B
68
7C
3E
16
D6
D4
38
20
ENDCHAR
STARTCHAR percent
ENCODING 37
SWIDTH 896 0
DWIDTH 12 0
BBX 11 11 2 -1
BITMAP
0080
3F80
5900
D200
D400
69C0
0B60
1260
2640
4380
4000
ENDCHAR
STARTCHAR ampersand
ENCODING 38
SWIDTH 752 0
DWIDTH 10 0
BBX 10 9 1 0
BITMAP
0C00
1200
34C0
3580
7D00
DD00
CE00
E700
7980
ENDCHAR
STARTCHAR quotesingle
ENCODING 39
SWIDTH 246 0
DWIDTH 3 0
BBX 2 5 2 5
BITMAP
C0
C0
80
80
80
ENDCHAR
STARTCHAR parenleft
ENCODING 40
SWIDTH 350 0
DWIDTH 5 0
BBX 4 12 2 -2
BITMAP
10
30
60
40
40
C0
80
80
80
80
80
40
ENDCHAR
STARTCHAR parenright
ENCODING 41
SWIDTH 350 0
DWIDTH 5 0
BBX 4 12 1 -2
BITMAP
20
20
10
10
10
10
10
20
20
60
40
80
ENDCHAR
STARTCHAR asterisk
ENCODING 42
SWIDTH 500 0
DWIDTH 7 0
BBX 6 5 2 5
BITMAP
10
5C
30
E8
20
ENDCHAR
STARTCHAR plus
ENCODING 43
SWIDTH 600 0
DWIDTH 8 0
BBX 7 7 1 0
BITMAP
10
10
10
FE
10
10
10
ENDCHAR
STARTCHAR comma
ENCODING 44
SWIDTH 280 0
DWIDTH 4 0
BBX 3 5 0 -2
BITMAP
60
60
60
40
80
ENDCHAR
STARTCHAR hyphen
ENCODING 45
SWIDTH 392 0
DWIDTH 5 0
BBX 4 1 1 3
BITMAP
F0
ENDCHAR
STARTCHAR period
ENCODING 46
SWIDTH 280 0
DWIDTH 4 0
BBX 2 2 1 0
BITMAP
C0
C0
ENDCHAR
STARTCHAR slash
ENCODING 47
SWIDTH 260 0
DWIDTH 4 0
BBX 5 10 0 0
BITMAP
08
10
10
30
20
20
60
40
40
80
ENDCHAR
STARTCHAR zero
ENCODING 48
SWIDTH 560 0
DWIDTH 8 0
BBX 8 9 1 0
BITMAP
1E
33
63
63
C7
C6
C6
CC
78
ENDCHAR
STARTCHAR one
ENCODING 49
SWIDTH 560 0
DWIDTH 8 0
BBX 6 9 1 0
BITMAP
0C
3C
18
18
18
38
30
30
F8
ENDCHAR
STARTCHAR two
ENCODING 50
SWIDTH 560 0
DWIDTH 8 0
BBX 8 9 0 0
BITMAP
1E
33
33
07
0E
18
21
7E
FE
ENDCHAR
STARTCHAR three
ENCODING 51
SWIDTH 560 0
DWIDTH 8 0
BBX 7 9 1 0
BITMAP
3C
66
06
38
06
06
C6
CC
38
ENDCHAR
STARTCHAR four
ENCODING 52
SWIDTH 560 0
DWIDTH 8 0
BBX 7 9 1 0
BITMAP
06
0E
1C
24
2C
4C
FE
18
3C
ENDCHAR
STARTCHAR five
ENCODING 53
SWIDTH 560 0
DWIDTH 8 0
BBX 8 9 1 0
BITMAP
3F
3E
20
3C
46
06
C6
CC
78
ENDCHAR
STARTCHAR six
ENCODING 54
SWIDTH 560 0
DWIDTH 8 0
BBX 8 9 1 0
BITMAP
1E
33
63
78
E6
C6
C6
4C
38
ENDCHAR
STARTCHAR seven
ENCODING 55
SWIDTH 560 0
DWIDTH 8 0
BBX 7 9 2 0
BITMAP
7E
FE
04
08
10
20
60
E0
40
ENDCHAR
STARTCHAR eight
ENCODING 56
SWIDTH 560 0
DWIDTH 8 0
BBX 8 9 1 0
BITMAP
1E
73
63
66
3C
66
C6
CC
78
ENDCHAR
STARTCHAR nine
ENCODING 57
SWIDTH 560 0
DWIDTH 8 0
BBX 7 9 1 0
BITMAP
1C
26
66
66
3E
04
4C
C8
30
ENDCHAR
STARTCHAR colon
ENCODING 58
SWIDTH 280 0
DWIDTH 4 0
BBX 3 7 1 0
BITMAP
60
60
40
00
40
C0
C0
ENDCHAR
STARTCHAR semicolon
ENCODING 59
SWIDTH 280 0
DWIDTH 4 0
BBX 4 9 0 -2
BITMAP
30
30
00
00
60
60
60
40
80
ENDCHAR
STARTCHAR less
ENCODING 60
SWIDTH 600 0
DWIDTH 8 0
BBX 7 7 1 0
BITMAP
02
0E
38
E0
E0
38
06
ENDCHAR
STARTCHAR equal
ENCODING 61
SWIDTH 600 0
DWIDTH 8 0
BBX 7 4 1 1
BITMAP
FE
00
00
FE
ENDCHAR
STARTCHAR greater
ENCODING 62
SWIDTH 600 0
DWIDTH 8 0
BBX 7 7 1 0
BITMAP
80
E0
38
0E
0E
38
C0
ENDCHAR
STARTCHAR question
ENCODING 63
SWIDTH 454 0
DWIDTH 6 0
BBX 6 10 2 0
BITMAP
78
CC
8C
38
60
C0
F0
00
E0
C0
ENDCHAR
STARTCHAR at
ENCODING 64
SWIDTH 828 0
DWIDTH 11 0
BBX 11 10 1 0
BITMAP
0F80
3840
6320
6DA0
CD20
D920
DB40
5D80
2000
1F80
ENDCHAR
STARTCHAR A
ENCODING 65
SWIDTH 634 0
DWIDTH 9 0
BBX 10 10 0 0
BITMAP
0300
0300
0700
0700
0B00
1300
1F80
2180
2180
F3C0
ENDCHAR
STARTCHAR B
ENCODING 66
SWIDTH 680 0
DWIDTH 9 0
BBX 10 10 0 0
BITMAP
3F80
18C0
18C0
19C0
1F00
3900
3180
3180
3300
FE00
ENDCHAR
STARTCHAR C
ENCODING 67
SWIDTH 672 0
DWIDTH 9 0
BBX 8 10 2 0
BITMAP
1E
31
61
40
C0
C0
C0
C2
66
3C
ENDCHAR
STARTCHAR D
ENCODING 68
SWIDTH 774 0
DWIDTH 11 0
BBX 10 10 1 0
BITMAP
3F00
1980
18C0
18C0
30C0
30C0
3180
3180
7300
FE00
ENDCHAR
STARTCHAR E
ENCODING 69
SWIDTH 622 0
DWIDTH 9 0
BBX 9 10 1 0
BITMAP
7F80
3880
3080
3200
3E00
3200
6000
6100
6300
FE00
ENDCHAR
STARTCHAR F
ENCODING 70
SWIDTH 585 0
DWIDTH 8 0
BBX 9 10 1 0
BITMAP
3F80
1880
1880
1800
3100
3E00
3200
3000
6000
F800
ENDCHAR
STARTCHAR G
ENCODING 71
SWIDTH 726 0
DWIDTH 10 0
BBX 9 10 2 0
BITMAP
1F00
3180
6080
C000
C000
C780
C300
C700
6600
3C00
ENDCHAR
STARTCHAR H
ENCODING 72
SWIDTH 800 0
DWIDTH 11 0
BBX 12 10 1 0
BITMAP
3CF0
1860
18C0
38C0
3FC0
30C0
31C0
3180
6180
F3C0
ENDCHAR
STARTCHAR I
ENCODING 73
SWIDTH 386 0
DWIDTH 5 0
BBX 6 10 1 0
BITMAP
3C
18
18
30
30
30
30
60
60
F0
ENDCHAR
STARTCHAR J
ENCODING 74
SWIDTH 388 0
DWIDTH 5 0
BBX 7 12 0 -2
BITMAP
1E
0C
18
18
18
18
18
30
30
30
60
C0
ENDCHAR
STARTCHAR K
ENCODING 75
SWIDTH 688 0
DWIDTH 10 0
BBX 11 10 1 0
BITMAP
7DE0
3980
3300
3400
3C00
3C00
7600
7600
6300
F180
ENDCHAR
STARTCHAR L
ENCODING 76
SWIDTH 586 0
DWIDTH 8 0
BBX 8 10 1 0
BITMAP
3C
18
18
38
30
30
70
71
73
FE
ENDCHAR
STARTCHAR M
ENCODING 77
SWIDTH 921 0
DWIDTH 13 0
BBX 14 10 0 0
BITMAP
3C1C
1C38
1C38
1458
1690
26B0
2730
2730
2660
F4F0
ENDCHAR
STARTCHAR N
ENCODING 78
SWIDTH 741 0
DWIDTH 10 0
BBX 12 10 0 0
BITMAP
3CF0
1C20
1C40
2E40
2640
2740
2380
2380
4180
F180
ENDCHAR
STARTCHAR O
ENCODING 79
SWIDTH 761 0
DWIDTH 11 0
BBX 9 10 2 0
BITMAP
1E00
3100
6180
6180
C180
C180
C300
C300
4600
3C00
ENDCHAR
STARTCHAR P
ENCODING 80
SWIDTH 660 0
DWIDTH 9 0
BBX 9 10 1 0
BITMAP
3E00
1980
3980
3180
3300
3E00
7000
6000
6000
F000
ENDCHAR
STARTCHAR Q
ENCODING 81
SWIDTH 761 0
DWIDTH 11 0
BBX 9 13 2 -3
BITMAP
1E00
3100
6180
6180
C180
C180
C300
C300
6600
3C00
1C00
0E00
0700
ENDCHAR
STARTCHAR R
ENCODING 82
SWIDTH 681 0
DWIDTH 9 0
BBX 9 10 1 0
BITMAP
3F00
1980
1980
1980
3300
3E00
3300
3300
7300
F180
ENDCHAR
STARTCHAR S
ENCODING 83
SWIDTH 551 0
DWIDTH 8 0
BBX 7 10 1 0
BITMAP
1C
22
62
70
7C
1E
86
86
C4
78
ENDCHAR
STARTCHAR T
ENCODING 84
SWIDTH 616 0
DWIDTH 9 0
BBX 9 10 2 0
BITMAP
FF80
9900
9900
1800
3800
3000
3000
3000
7000
F800
ENDCHAR
STARTCHAR U
ENCODING 85
SWIDTH 776 0
DWIDTH 11 0
BBX 10 10 2 0
BITMAP
FBC0
6180
6180
6300
6300
C300
C300
C600
C600
7800
ENDCHAR
STARTCHAR V
ENCODING 86
SWIDTH 630 0
DWIDTH 9 0
BBX 10 10 2 0
BITMAP
F3C0
6180
6100
6200
6200
3400
3400
3800
3000
3000
ENDCHAR
STARTCHAR W
ENCODING 87
SWIDTH 920 0
DWIDTH 13 0
BBX 13 10 2 0
BITMAP
F038
6310
6310
6720
6B20
6B40
6B40
7380
7380
6300
ENDCHAR
STARTCHAR X
ENCODING 88
SWIDTH 630 0
DWIDTH 9 0
BBX 11 10 0 0
BITMAP
3DE0
1880
0D00
0E00
0E00
0E00
0E00
1300
2300
F7C0
ENDCHAR
STARTCHAR Y
ENCODING 89
SWIDTH 622 0
DWIDTH 9 0
BBX 9 10 2 0
BITMAP
F380
6300
6200
7400
3800
3800
3000
3000
7000
F800
ENDCHAR
STARTCHAR Z
ENCODING 90
SWIDTH 618 0
DWIDTH 9 0
BBX 10 10 0 0
BITMAP
1FC0
11C0
2380
0700
0E00
0C00
1800
3080
6100
FF00
ENDCHAR
STARTCHAR bracketleft
ENCODING 91
SWIDTH 350 0
DWIDTH 5 0
BBX 5 12 1 -2
BITMAP
38
30
20
20
20
60
40
40
40
40
C0
E0
ENDCHAR
STARTCHAR backslash
ENCODING 92
SWIDTH 460 0
DWIDTH 6 0
BBX 4 10 2 0
BITMAP
80
C0
40
40
40
20
20
20
30
10
ENDCHAR
STARTCHAR bracketright
ENCODING 93
SWIDTH 350 0
DWIDTH 5 0
BBX 5 12 0 -2
BITMAP
38
18
10
10
10
10
30
20
20
20
60
E0
ENDCHAR
STARTCHAR asciicircum
ENCODING 94
SWIDTH 600 0
DWIDTH 8 0
BBX 7 7 1 2
BITMAP
10
38
28
6C
44
44
C6
ENDCHAR
STARTCHAR underscore
ENCODING 95
SWIDTH 500 0
DWIDTH 7 0
BBX 7 1 0 -2
BITMAP
FE
ENDCHAR
STARTCHAR grave
ENCODING 96
SWIDTH 400 0
DWIDTH 6 0
BBX 4 3 2 7
BITMAP
C0
60
10
ENDCHAR
STARTCHAR a
ENCODING 97
SWIDTH 596 0
DWIDTH 8 0
BBX 8 7 1 0
BITMAP
1F
36
66
66
CC
DD
EE
ENDCHAR
STARTCHAR b
ENCODING 98
SWIDTH 586 0
DWIDTH 8 0
BBX 8 10 1 0
BITMAP
18
30
30
37
3B
33
62
66
64
B8
ENDCHAR
STARTCHAR c
ENCODING 99
SWIDTH 456 0
DWIDTH 6 0
BBX 7 7 1 0
BITMAP
1C
66
60
C0
C4
CC
70
ENDCHAR
STARTCHAR d
ENCODING 100
SWIDTH 609 0
DWIDTH 8 0
BBX 8 10 1 0
BITMAP
01
07
06
1E
26
66
CC
CC
DD
EE
ENDCHAR
STARTCHAR e
ENCODING 101
SWIDTH 476 0
DWIDTH 7 0
BBX 6 7 1 0
BITMAP
18
6C
4C
F8
C0
C8
70
ENDCHAR
STARTCHAR f
ENCODING 102
SWIDTH 348 0
DWIDTH 5 0
BBX 9 13 -1 -3
BITMAP
0300
0580
0C00
1F00
0C00
1800
1800
1800
1800
1000
3000
B000
E000
ENDCHAR
STARTCHAR g
ENCODING 103
SWIDTH 522 0
DWIDTH 7 0
BBX 9 10 0 -3
BITMAP
1D80
3300
3300
3300
7C00
6000
3E00
C600
C600
7800
ENDCHAR
STARTCHAR h
ENCODING 104
SWIDTH 629 0
DWIDTH 9 0
BBX 7 10 2 0
BITMAP
30
F0
60
6E
56
66
EC
C8
DA
DC
ENDCHAR
STARTCHAR i
ENCODING 105
SWIDTH 339 0
DWIDTH 5 0
BBX 4 10 1 0
BITMAP
30
30
00
20
E0
60
60
C0
D0
E0
ENDCHAR
STARTCHAR j
ENCODING 106
SWIDTH 333 0
DWIDTH 5 0
BBX 7 13 -1 -3
BITMAP
06
06
00
0C
18
18
18
18
18
30
30
B0
E0
ENDCHAR
STARTCHAR k
ENCODING 107
SWIDTH 570 0
DWIDTH 8 0
BBX 8 10 1 0
BITMAP
10
70
30
27
69
68
68
68
CF
CC
ENDCHAR
STARTCHAR l
ENCODING 108
SWIDTH 327 0
DWIDTH 5 0
BBX 4 10 1 0
BITMAP
10
70
30
60
60
60
40
C0
D0
E0
ENDCHAR
STARTCHAR m
ENCODING 109
SWIDTH 914 0
DWIDTH 13 0
BBX 11 7 2 0
BITMAP
2EE0
F760
7740
6640
CC80
CDA0
CDC0
ENDCHAR
STARTCHAR n
ENCODING 110
SWIDTH 635 0
DWIDTH 9 0
BBX 9 7 1 0
BITMAP
3700
6B00
3300
7200
6600
6680
C700
ENDCHAR
STARTCHAR o
ENCODING 111
SWIDTH 562 0
DWIDTH 8 0
BBX 7 7 1 0
BITMAP
3C
66
66
C6
CC
CC
78
ENDCHAR
STARTCHAR p
ENCODING 112
SWIDTH 606 0
DWIDTH 8 0
BBX 8 10 1 -3
BITMAP
27
6B
73
63
66
64
58
C0
C0
80
ENDCHAR
STARTCHAR q
ENCODING 113
SWIDTH 584 0
DWIDTH 8 0
BBX 8 10 1 -3
BITMAP
1D
36
66
C6
CE
D4
EC
0C
0C
10
ENDCHAR
STARTCHAR r
ENCODING 114
SWIDTH 440 0
DWIDTH 6 0
BBX 6 7 1 0
BITMAP
2C
FC
60
60
40
40
C0
ENDCHAR
STARTCHAR s
ENCODING 115
SWIDTH 417 0
DWIDTH 6 0
BBX 6 7 1 0
BITMAP
38
6C
60
30
18
D8
70
ENDCHAR
STARTCHAR t
ENCODING 116
SWIDTH 359 0
DWIDTH 5 0
BBX 5 9 1 0
BITMAP
10
60
F8
60
60
40
C0
D0
E0
ENDCHAR
STARTCHAR u
ENCODING 117
SWIDTH 634 0
DWIDTH 9 0
BBX 9 7 1 0
BITMAP
3100
E300
6300
6700
CE00
D680
E700
ENDCHAR
STARTCHAR v
ENCODING 118
SWIDTH 518 0
DWIDTH 7 0
BBX 6 7 2 0
BITMAP
6C
EC
4C
48
C8
D0
E0
ENDCHAR
STARTCHAR w
ENCODING 119
SWIDTH 795 0
DWIDTH 11 0
BBX 10 7 2 0
BITMAP
26C0
E6C0
64C0
4C80
DC80
DD00
EE00
ENDCHAR
STARTCHAR x
ENCODING 120
SWIDTH 516 0
DWIDTH 7 0
BBX 8 7 0 0
BITMAP
7B
1F
18
18
19
AE
CC
ENDCHAR
STARTCHAR y
ENCODING 121
SWIDTH 489 0
DWIDTH 7 0
BBX 8 10 0 -3
BITMAP
71
33
1A
1A
1A
1C
18
18
D0
E0
ENDCHAR
STARTCHAR z
ENCODING 122
SWIDTH 466 0
DWIDTH 6 0
BBX 8 7 0 0
BITMAP
3F
4E
1C
30
62
FC
8C
ENDCHAR
STARTCHAR braceleft
ENCODING 123
SWIDTH 340 0
DWIDTH 5 0
BBX 5 12 2 -2
BITMAP
18
20
20
60
60
80
40
40
40
80
80
C0
ENDCHAR
STARTCHAR bar
ENCODING 124
SWIDTH 265 0
DWIDTH 4 0
BBX 1 10 2 0
BITMAP
80
80
80
80
80
80
80
80
80
80
ENDCHAR
STARTCHAR braceright
ENCODING 125
SWIDTH 340 0
DWIDTH 5 0
BBX 5 12 0 -2
BITMAP
30
10
18
10
10
08
10
30
20
20
20
C0
ENDCHAR
STARTCHAR asciitilde
ENCODING 126
SWIDTH 600 0
DWIDTH 8 0
BBX 7 3 1 2
BITMAP
22
7C
88
ENDCHAR
STARTCHAR space
ENCODING 160
SWIDTH 210 0
DWIDTH 3 0
BBX 0 0 0 0
BITMAP
ENDCHAR
STARTCHAR Aogonek
ENCODING 161
SWIDTH 634 0
DWIDTH 9 0
BBX 10 14 0 -4
BITMAP
0300
0300
0700
0700
0B00
1300
1F80
2180
2180
F3C0
0400
0800
0800
0E00
ENDCHAR
STARTCHAR breve
ENCODING 162
SWIDTH 400 0
DWIDTH 6 0
BBX 5 2 2 8
BITMAP
88
F0
ENDCHAR
STARTCHAR Lslash
ENCODING 163
SWIDTH 592 0
DWIDTH 8 0
BBX 8 10 1 0
BITMAP
3C
18
18
3C
38
30
F0
21
62
FE
ENDCHAR
STARTCHAR currency
ENCODING 164
SWIDTH 560 0
DWIDTH 8 0
BBX 6 7 2 1
BITMAP
FC
CC
84
84
84
CC
FC
ENDCHAR
STARTCHAR Lcaron
ENCODING 165
SWIDTH 803 0
DWIDTH 11 0
BBX 12 10 1 0
BITMAP
3C30
1830
1820
3840
3000
3000
7000
7100
7300
FE00
ENDCHAR
STARTCHAR Sacute
ENCODING 166
SWIDTH 551 0
DWIDTH 8 0
BBX 7 14 1 0
BITMAP
06
0C
10
00
1C
22
62
70
7C
1E
86
86
C4
78
ENDCHAR
STARTCHAR section
ENCODING 167
SWIDTH 568 0
DWIDTH 8 0
BBX 7 12 1 -2
BITMAP
0E
12
10
78
4C
46
62
32
1C
48
C8
70
ENDCHAR
STARTCHAR dieresis
ENCODING 168
SWIDTH 400 0
DWIDTH 6 0
BBX 6 2 2 8
BITMAP
CC
CC
ENDCHAR
STARTCHAR Scaron
ENCODING 169
SWIDTH 551 0
DWIDTH 8 0
BBX 8 13 1 0
BITMAP
20
13
0C
1C
22
62
70
7C
1E
86
86
C4
78
ENDCHAR
STARTCHAR Scedilla
ENCODING 170
SWIDTH 551 0
DWIDTH 8 0
BBX 7 14 1 -4
BITMAP
1C
22
62
70
7C
1E
86
86
C4
78
20
30
10
20
ENDCHAR
STARTCHAR Tcaron
ENCODING 171
SWIDTH 616 0
DWIDTH 9 0
BBX 9 14 2 0
BITMAP
2200
1C00
1800
0000
FF80
9900
9900
1800
3800
3000
3000
3000
7000
F800
ENDCHAR
STARTCHAR Zacute
ENCODING 172
SWIDTH 618 0
DWIDTH 9 0
BBX 10 14 0 0
BITMAP
0180
0300
0400
0000
1FC0
11C0
2380
0700
0E00
0C00
1800
3080
6100
FF00
ENDCHAR
STARTCHAR hyphen
ENCODING 173
SWIDTH 392 0
DWIDTH 5 0
BBX 4 1 1 3
BITMAP
F0
ENDCHAR
STARTCHAR Zcaron
ENCODING 174
SWIDTH 618 0
DWIDTH 9 0
BBX 10 12 0 0
BITMAP
0880
0700
1FC0
11C0
2380
0700
0E00
0C00
1800
3080
6100
FF00
ENDCHAR
STARTCHAR Zdotaccent
ENCODING 175
SWIDTH 618 0
DWIDTH 9 0
BBX 10 13 0 0
BITMAP
0600
0600
0000
1FC0
11C0
2380
0700
0E00
0C00
1800
3080
6100
FF00
ENDCHAR
STARTCHAR degree
ENCODING 176
SWIDTH 375 0
DWIDTH 5 0
BBX 4 4 2 5
BITMAP
60
90
90
60
ENDCHAR
STARTCHAR aogonek
ENCODING 177
SWIDTH 596 0
DWIDTH 8 0
BBX 8 11 1 -4
BITMAP
1F
36
66
66
CC
DD
EE
08
10
10
1C
ENDCHAR
STARTCHAR ogonek
ENCODING 178
SWIDTH 350 0
DWIDTH 5 0
BBX 3 4 1 -4
BITMAP
40
80
80
E0
ENDCHAR
STARTCHAR lslash
ENCODING 179
SWIDTH 339 0
DWIDTH 5 0
BBX 6 10 0 0
BITMAP
08
38
18
30
3C
30
F0
60
68
70
ENDCHAR
STARTCHAR acute
ENCODING 180
SWIDTH 400 0
DWIDTH 6 0
BBX 4 3 3 7
BITMAP
30
60
80
ENDCHAR
STARTCHAR lcaron
ENCODING 181
SWIDTH 557 0
DWIDTH 8 0
BBX 9 10 1 0
BITMAP
1180
7180
3100
6200
6000
6000
4000
C000
D000
E000
ENDCHAR
STARTCHAR sacute
ENCODING 182
SWIDTH 417 0
DWIDTH 6 0
BBX 6 11 1 0
BITMAP
0C
18
20
00
38
6C
60
30
18
D8
70
ENDCHAR
STARTCHAR caron
ENCODING 183
SWIDTH 400 0
DWIDTH 6 0
BBX 5 3 2 7
BITMAP
88
70
60
ENDCHAR
STARTCHAR cedilla
ENCODING 184
SWIDTH 400 0
DWIDTH 6 0
BBX 2 5 2 -4
BITMAP
40
80
C0
40
80
ENDCHAR
STARTCHAR scaron
ENCODING 185
SWIDTH 417 0
DWIDTH 6 0
BBX 7 11 1 0
BITMAP
02
24
18
00
38
6C
60
30
18
D8
70
ENDCHAR
STARTCHAR scedilla
ENCODING 186
SWIDTH 417 0
DWIDTH 6 0
BBX 6 11 1 -4
BITMAP
38
6C
60
30
18
D8
70
20
30
10
20
ENDCHAR
STARTCHAR tcaron
ENCODING 187
SWIDTH 587 0
DWIDTH 8 0
BBX 9 10 1 0
BITMAP
0180
1180
6100
FA00
6000
6000
4000
C000
D000
E000
ENDCHAR
STARTCHAR zacute
ENCODING 188
SWIDTH 466 0
DWIDTH 6 0
BBX 8 11 0 0
BITMAP
03
06
08
00
3F
4E
1C
30
62
FC
8C
ENDCHAR
STARTCHAR hungarumlaut
ENCODING 189
SWIDTH 400 0
DWIDTH 6 0
BBX 4 3 3 7
BITMAP
50
90
A0
ENDCHAR
STARTCHAR zcaron
ENCODING 190
SWIDTH 466 0
DWIDTH 6 0
BBX 8 11 0 0
BITMAP
01
12
0C
00
3F
46
0C
10
22
7E
CC
ENDCHAR
STARTCHAR zdotaccent
ENCODING 191
SWIDTH 466 0
DWIDTH 6 0
BBX 8 10 0 0
BITMAP
0C
0C
00
3F
4E
1C
30
62
FC
8C
ENDCHAR
STARTCHAR Racute
ENCODING 192
SWIDTH 681 0
DWIDTH 9 0
BBX 9 14 1 0
BITMAP
0300
0600
0800
0000
3F00
1980
1980
1980
3300
3E00
3300
3300
7300
F180
ENDCHAR
STARTCHAR Aacute
ENCODING 193
SWIDTH 634 0
DWIDTH 9 0
BBX 10 13 0 0
BITMAP
00C0
0380
0000
0300
0300
0700
0700
0B00
1300
1F80
2180
2180
F3C0
ENDCHAR
STARTCHAR Acircumflex
ENCODING 194
SWIDTH 634 0
DWIDTH 9 0
BBX 10 12 0 0
BITMAP
0780
0040
0300
0300
0700
0700
0B00
1300
1F80
2180
2180
F3C0
ENDCHAR
STARTCHAR Abreve
ENCODING 195
SWIDTH 634 0
DWIDTH 9 0
BBX 10 13 0 0
BITMAP
0880
0F00
0000
0300
0300
0700
0700
0B00
1300
1F80
2180
2180
F3C0
ENDCHAR
STARTCHAR Adieresis
ENCODING 196
SWIDTH 634 0
DWIDTH 9 0
BBX 9 12 0 0
BITMAP
0D80
0D80
0000
0600
0600
0A00
0B00
1300
3F00
2300
4300
E780
ENDCHAR
STARTCHAR Lacute
ENCODING 197
SWIDTH 586 0
DWIDTH 8 0
BBX 8 14 1 0
BITMAP
06
0C
10
00
3C
18
18
38
30
30
70
71
73
FE
ENDCHAR
STARTCHAR Cacute
ENCODING 198
SWIDTH 672 0
DWIDTH 9 0
BBX 8 14 2 0
BITMAP
06
0C
10
00
1E
31
61
40
C0
C0
C0
C2
66
3C
ENDCHAR
STARTCHAR Ccedilla
ENCODING 199
SWIDTH 672 0
DWIDTH 9 0
BBX 8 14 2 -4
BITMAP
0E
31
61
60
C0
C0
C0
C2
66
1C
10
18
08
30
ENDCHAR
STARTCHAR Ccaron
ENCODING 200
SWIDTH 672 0
DWIDTH 9 0
BBX 8 14 2 0
BITMAP
22
1C
18
00
1E
31
61
40
C0
C0
C0
C2
66
3C
ENDCHAR
STARTCHAR Eacute
ENCODING 201
SWIDTH 622 0
DWIDTH 9 0
BBX 9 13 1 0
BITMAP
0100
0F00
0000
7F80
3880
3080
3200
3E00
3200
6000
6100
6300
FE00
ENDCHAR
STARTCHAR Eogonek
ENCODING 202
SWIDTH 622 0
DWIDTH 9 0
BBX 9 14 1 -4
BITMAP
7F80
3880
3080
3200
3E00
3200
6000
6100
6300
FE00
0800
1000
1000
1C00
ENDCHAR
STARTCHAR Edieresis
ENCODING 203
SWIDTH 622 0
DWIDTH 9 0
BBX 8 12 1 0
BITMAP
1B
1B
3F
19
30
32
3E
32
30
62
62
FE
ENDCHAR
STARTCHAR Ecaron
ENCODING 204
SWIDTH 622 0
DWIDTH 9 0
BBX 9 14 1 0
BITMAP
1100
0E00
0C00
0000
7F80
3880
3080
3200
3E00
3200
6000
6100
6300
FE00
ENDCHAR
STARTCHAR Iacute
ENCODING 205
SWIDTH 386 0
DWIDTH 5 0
BBX 7 13 0 0
BITMAP
06
1E
00
3C
18
18
18
30
30
30
30
70
F8
ENDCHAR
STARTCHAR Icircumflex
ENCODING 206
SWIDTH 386 0
DWIDTH 5 0
BBX 7 12 1 0
BITMAP
3E
00
3C
18
18
18
30
30
30
30
60
F0
ENDCHAR
STARTCHAR Dcaron
ENCODING 207
SWIDTH 774 0
DWIDTH 11 0
BBX 10 14 1 0
BITMAP
1100
0E00
0C00
0000
3F00
1980
18C0
18C0
30C0
30C0
3180
3180
7300
FE00
ENDCHAR
STARTCHAR Dcroat
ENCODING 208
SWIDTH 780 0
DWIDTH 11 0
BBX 10 10 1 0
BITMAP
3F00
1880
18C0
10C0
7CC0
30C0
3180
3180
7300
FE00
ENDCHAR
STARTCHAR Nacute
ENCODING 209
SWIDTH 741 0
DWIDTH 10 0
BBX 12 14 0 0
BITMAP
0180
0300
0400
0000
3CF0
1C20
1C40
2E40
2640
2740
2380
2380
4180
F180
ENDCHAR
STARTCHAR Ncaron
ENCODING 210
SWIDTH 741 0
DWIDTH 10 0
BBX 12 14 0 0
BITMAP
0880
0700
0600
0000
3CF0
1C20
1C40
2E40
2640
2740
2380
2380
4180
F180
ENDCHAR
STARTCHAR Oacute
ENCODING 211
SWIDTH 761 0
DWIDTH 11 0
BBX 9 13 2 0
BITMAP
0100
0F00
0000
1E00
3100
6180
6180
C180
C180
C300
C300
4600
3C00
ENDCHAR
STARTCHAR Ocircumflex
ENCODING 212
SWIDTH 761 0
DWIDTH 11 0
BBX 9 12 2 0
BITMAP
0700
1800
1E00
3100
6180
6180
C180
C180
C300
C300
4600
3C00
ENDCHAR
STARTCHAR Ohungarumlaut
ENCODING 213
SWIDTH 761 0
DWIDTH 11 0
BBX 9 14 2 0
BITMAP
0A00
1200
1400
0000
1E00
3100
6180
6180
C180
C180
C300
C300
4600
3C00
ENDCHAR
STARTCHAR Odieresis
ENCODING 214
SWIDTH 761 0
DWIDTH 11 0
BBX 9 12 2 0
BITMAP
1B00
1900
1E00
3100
6180
6180
C180
C180
C300
C300
4600
3C00
ENDCHAR
STARTCHAR multiply
ENCODING 215
SWIDTH 600 0
DWIDTH 8 0
BBX 6 6 2 0
BITMAP
84
48
30
30
48
84
ENDCHAR
STARTCHAR Rcaron
ENCODING 216
SWIDTH 681 0
DWIDTH 9 0
BBX 9 14 1 0
BITMAP
1100
0E00
0C00
0000
3F00
1980
1980
1980
3300
3E00
3300
3300
7300
F180
ENDCHAR
STARTCHAR Uring
ENCODING 217
SWIDTH 776 0
DWIDTH 11 0
BBX 10 15 2 0
BITMAP
0800
1400
1400
0800
0000
FBC0
6180
6180
6300
6300
C300
C300
C600
C600
7800
ENDCHAR
STARTCHAR Uacute
ENCODING 218
SWIDTH 776 0
DWIDTH 11 0
BBX 10 13 2 0
BITMAP
0180
0780
0000
FBC0
6180
6180
6300
6300
C300
C300
C600
C600
7800
ENDCHAR
STARTCHAR Uhungarumlaut
ENCODING 219
SWIDTH 776 0
DWIDTH 11 0
BBX 10 14 2 0
BITMAP
0A00
1200
1400
0000
FBC0
6180
6180
6300
6300
C300
C300
C600
C600
7800
ENDCHAR
STARTCHAR Udieresis
ENCODING 220
SWIDTH 776 0
DWIDTH 11 0
BBX 10 12 2 0
BITMAP
1B00
1B00
FBC0
7180
6100
6300
6300
C300
C300
C600
C600
3800
ENDCHAR
STARTCHAR Yacute
ENCODING 221
SWIDTH 622 0
DWIDTH 9 0
BBX 9 13 2 0
BITMAP
0100
0F00
0000
F380
6300
6200
7400
3800
3800
3000
3000
7000
F800
ENDCHAR
STARTCHAR Tcommaaccent
ENCODING 222
SWIDTH 616 0
DWIDTH 9 0
BBX 9 14 2 -4
BITMAP
FF80
9900
9900
1800
3800
3000
3000
3000
7000
F800
2000
3000
1000
2000
ENDCHAR
STARTCHAR germandbls
ENCODING 223
SWIDTH 628 0
DWIDTH 9 0
BBX 12 13 -2 -3
BITMAP
01E0
0730
0630
1EE0
0C80
0D80
0DE0
0C60
1940
19C0
1800
D000
6000
ENDCHAR
STARTCHAR racute
ENCODING 224
SWIDTH 440 0
DWIDTH 6 0
BBX 6 11 1 0
BITMAP
0C
18
20
00
2C
FC
60
60
40
40
C0
ENDCHAR
STARTCHAR aacute
ENCODING 225
SWIDTH 596 0
DWIDTH 8 0
BBX 8 10 1 0
BITMAP
03
0C
00
1F
36
66
66
CC
DD
EE
ENDCHAR
STARTCHAR acircumflex
ENCODING 226
SWIDTH 596 0
DWIDTH 8 0
BBX 8 11 1 0
BITMAP
04
0C
32
00
1F
36
66
66
CC
DD
EE
ENDCHAR
STARTCHAR abreve
ENCODING 227
SWIDTH 596 0
DWIDTH 8 0
BBX 8 10 1 0
BITMAP
11
1E
00
1F
36
66
66
CC
DD
EE
ENDCHAR
STARTCHAR adieresis
ENCODING 228
SWIDTH 596 0
DWIDTH 8 0
BBX 8 10 1 0
BITMAP
33
33
00
1F
36
66
66
CC
DD
EE
ENDCHAR
STARTCHAR lacute
ENCODING 229
SWIDTH 327 0
DWIDTH 5 0
BBX 6 14 1 0
BITMAP
0C
18
20
00
10
70
30
60
60
60
40
C0
D0
E0
ENDCHAR
STARTCHAR cacute
ENCODING 230
SWIDTH 456 0
DWIDTH 6 0
BBX 7 11 1 0
BITMAP
06
0C
10
00
1C
66
60
C0
C4
CC
70
ENDCHAR
STARTCHAR ccedilla
ENCODING 231
SWIDTH 456 0
DWIDTH 6 0
BBX 7 11 1 -4
BITMAP
1C
66
60
C0
C8
C8
70
40
60
20
40
ENDCHAR
STARTCHAR ccaron
ENCODING 232
SWIDTH 456 0
DWIDTH 6 0
BBX 7 11 1 0
BITMAP
22
1C
18
00
1C
66
60
C0
C4
CC
70
ENDCHAR
STARTCHAR eacute
ENCODING 233
SWIDTH 476 0
DWIDTH 7 0
BBX 6 10 1 0
BITMAP
04
18
00
18
6C
4C
F8
C0
C8
70
ENDCHAR
STARTCHAR eogonek
ENCODING 234
SWIDTH 476 0
DWIDTH 7 0
BBX 6 11 1 -4
BITMAP
18
6C
4C
F8
C0
C8
70
20
40
40
70
ENDCHAR
STARTCHAR edieresis
ENCODING 235
SWIDTH 476 0
DWIDTH 7 0
BBX 7 10 1 0
BITMAP
36
36
00
18
6C
4C
F8
C0
C8
70
ENDCHAR
STARTCHAR ecaron
ENCODING 236
SWIDTH 476 0
DWIDTH 7 0
BBX 6 11 1 0
BITMAP
44
38
30
00
18
6C
4C
F8
C0
C8
70
ENDCHAR
STARTCHAR iacute
ENCODING 237
SWIDTH 339 0
DWIDTH 5 0
BBX 5 10 1 0
BITMAP
18
70
00
20
E0
60
60
C0
D0
E0
ENDCHAR
STARTCHAR icircumflex
ENCODING 238
SWIDTH 339 0
DWIDTH 5 0
BBX 5 11 1 0
BITMAP
20
70
90
88
20
E0
60
60
C0
D0
E0
ENDCHAR
STARTCHAR dcaron
ENCODING 239
SWIDTH 825 0
DWIDTH 11 0
BBX 12 10 1 0
BITMAP
0130
0730
0620
1E40
2600
6600
CC00
CC00
DD00
EE00
ENDCHAR
STARTCHAR dcroat
ENCODING 240
SWIDTH 609 0
DWIDTH 8 0
BBX 8 10 1 0
BITMAP
01
3F
06
1E
26
66
CC
CC
DD
EE
ENDCHAR
STARTCHAR nacute
ENCODING 241
SWIDTH 635 0
DWIDTH 9 0
BBX 9 11 1 0
BITMAP
0300
0600
0800
0000
3700
6B00
3300
7200
6600
6680
C700
ENDCHAR
STARTCHAR ncaron
ENCODING 242
SWIDTH 635 0
DWIDTH 9 0
BBX 9 11 1 0
BITMAP
1100
0E00
0C00
0000
3700
6B00
3300
7200
6600
6680
C700
ENDCHAR
STARTCHAR oacute
ENCODING 243
SWIDTH 562 0
DWIDTH 8 0
BBX 7 10 1 0
BITMAP
06
1C
00
3C
66
66
C6
CC
CC
78
ENDCHAR
STARTCHAR ocircumflex
ENCODING 244
SWIDTH 562 0
DWIDTH 8 0
BBX 7 11 1 0
BITMAP
08
1C
64
00
3C
66
66
C6
CC
CC
78
ENDCHAR
STARTCHAR ohungarumlaut
ENCODING 245
SWIDTH 562 0
DWIDTH 8 0
BBX 7 11 1 0
BITMAP
14
24
28
00
3C
66
66
C6
CC
CC
78
ENDCHAR
STARTCHAR odieresis
ENCODING 246
SWIDTH 562 0
DWIDTH 8 0
BBX 8 10 1 0
BITMAP
33
33
00
3C
66
66
C6
CC
CC
78
ENDCHAR
STARTCHAR divide
ENCODING 247
SWIDTH 600 0
DWIDTH 8 0
BBX 6 7 2 0
BITMAP
30
30
00
FC
00
30
30
ENDCHAR
STARTCHAR rcaron
ENCODING 248
SWIDTH 440 0
DWIDTH 6 0
BBX 6 11 1 0
BITMAP
44
38
30
00
2C
FC
60
60
40
40
C0
ENDCHAR
STARTCHAR uring
ENCODING 249
SWIDTH 634 0
DWIDTH 9 0
BBX 9 12 1 0
BITMAP
0800
1400
1400
0800
0000
3100
E300
6300
6700
CE00
D680
E700
ENDCHAR
STARTCHAR uacute
ENCODING 250
SWIDTH 634 0
DWIDTH 9 0
BBX 9 10 1 0
BITMAP
0180
0300
0400
3100
E300
6300
6700
CE00
D680
E700
ENDCHAR
STARTCHAR uhungarumlaut
ENCODING 251
SWIDTH 634 0
DWIDTH 9 0
BBX 9 11 1 0
BITMAP
0A00
1200
1400
0000
3100
E300
6300
6700
CE00
D680
E700
ENDCHAR
STARTCHAR udieresis
ENCODING 252
SWIDTH 634 0
DWIDTH 9 0
BBX 9 10 1 0
BITMAP
1B00
1B00
0000
3100
E300
6300
6700
CE00
D680
E700
ENDCHAR
STARTCHAR yacute
ENCODING 253
SWIDTH 489 0
DWIDTH 7 0
BBX 8 13 0 -3
BITMAP
03
0E
00
71
33
1A
1A
1A
1C
18
18
D0
E0
ENDCHAR
STARTCHAR tcommaaccent
ENCODING 254
SWIDTH 359 0
DWIDTH 5 0
BBX 5 13 1 -4
BITMAP
10
60
F8
60
60
40
C0
D0
E0
40
60
20
40
ENDCHAR
STARTCHAR dotaccent
ENCODING 255
SWIDTH 402 0
DWIDTH 6 0
BBX 2 2 4 8
BITMAP
C0
C0
ENDCHAR
ENDFONT
