STARTFONT 2.1
COMMENT AUTOMATICALLY GENERATED FILE. DO NOT EDIT!
COMMENT Generated with 'ucs2any UTI___14.bdf /usr/local/lib/X11/fonts/util/map-ISO8859-14 ISO8859-14'
COMMENT from an ISO10646-1 encoded source BDF font.
COMMENT ucs2any by Ben Collver <collver1@attbi.com>, 2003, based on
COMMENT ucs2any.pl by Markus Kuhn <http://www.cl.cam.ac.uk/~mgk25/>, 2000.
FONT -Adobe-Utopia-Regular-I-Normal--19-140-100-100-P-104-ISO8859-14
SIZE 14 100 100
FONTBOUNDINGBOX 23 24 -2 -5
COMMENT $Xorg: $
COMMENT ISO10646-1 extension by Markus Kuhn <mkuhn@acm.org>, 2001-03-20
STARTPROPERTIES 28
FOUNDRY "Adobe"
FAMILY_NAME "Utopia"
WEIGHT_NAME "Regular"
SLANT "I"
SETWIDTH_NAME "Normal"
ADD_STYLE_NAME ""
PIXEL_SIZE 19
POINT_SIZE 140
RESOLUTION_X 100
RESOLUTION_Y 100
SPACING "P"
AVERAGE_WIDTH 104
CHARSET_REGISTRY "ISO8859"
CHARSET_ENCODING "14"
CAP_HEIGHT 13
X_HEIGHT 10
RELATIVE_SETWIDTH 50
RELATIVE_WEIGHT 50
WEIGHT 130
FACE_NAME "Utopia Italic"
COPYRIGHT "Copyright (c) 1989, 1991 Adobe Systems Incorporated.  All Rights Reserved."
NOTICE "Utopia is a registered trademark of Adobe Systems Incorporated."
DESTINATION 0
FONT_ASCENT 18
FONT_DESCENT 5
DEFAULT_CHAR 0
_ADOBE_PSFONT "Utopia-Italic"
_DEC_DEVICE_FONTNAMES "PS=Utopia-Italic"
ENDPROPERTIES
CHARS 192
STARTCHAR defaultchar
ENCODING 0
SWIDTH 775 0
DWIDTH 15 0
BBX 17 13 1 0
BITMAP
AAAA80
000000
800080
000000
800080
000000
800080
000000
800080
000000
800080
000000
AAAA80
ENDCHAR
STARTCHAR space
ENCODING 32
SWIDTH 225 0
DWIDTH 4 0
BBX 0 0 0 0
BITMAP
ENDCHAR
STARTCHAR exclam
ENCODING 33
SWIDTH 240 0
DWIDTH 5 0
BBX 5 14 1 0
BITMAP
18
18
30
30
30
20
20
20
20
40
00
00
C0
C0
ENDCHAR
STARTCHAR quotedbl
ENCODING 34
SWIDTH 402 0
DWIDTH 8 0
BBX 6 5 4 9
BITMAP
4C
CC
C8
88
90
ENDCHAR
STARTCHAR numbersign
ENCODING 35
SWIDTH 530 0
DWIDTH 10 0
BBX 10 14 2 -1
BITMAP
0480
0880
0880
0900
7FC0
1100
1200
3200
FF80
2400
6400
4400
4800
8000
ENDCHAR
STARTCHAR dollar
ENCODING 36
SWIDTH 530 0
DWIDTH 10 0
BBX 11 16 1 -2
BITMAP
0100
0F80
1A60
3260
3200
3400
1C00
0E00
0700
0980
0980
C980
6B00
1C00
1000
1000
ENDCHAR
STARTCHAR percent
ENCODING 37
SWIDTH 826 0
DWIDTH 16 0
BBX 14 14 2 -1
BITMAP
3C08
67F0
4620
C620
C440
4C80
7978
02C8
048C
098C
1188
1098
20F0
4000
ENDCHAR
STARTCHAR ampersand
ENCODING 38
SWIDTH 725 0
DWIDTH 14 0
BBX 13 13 2 0
BITMAP
0E00
1180
3180
3100
3610
1838
3C30
4E20
C740
C380
C1C0
42E0
3C30
ENDCHAR
STARTCHAR quotesingle
ENCODING 39
SWIDTH 216 0
DWIDTH 4 0
BBX 2 5 4 9
BITMAP
C0
C0
80
80
80
ENDCHAR
STARTCHAR parenleft
ENCODING 40
SWIDTH 350 0
DWIDTH 7 0
BBX 6 16 3 -2
BITMAP
04
18
30
20
60
40
40
C0
80
80
80
80
80
80
40
60
ENDCHAR
STARTCHAR parenright
ENCODING 41
SWIDTH 350 0
DWIDTH 7 0
BBX 6 17 0 -3
BITMAP
10
08
08
04
04
04
04
04
04
0C
08
08
18
10
30
60
80
ENDCHAR
STARTCHAR asterisk
ENCODING 42
SWIDTH 412 0
DWIDTH 8 0
BBX 7 7 3 7
BITMAP
18
52
7E
10
FC
94
30
ENDCHAR
STARTCHAR plus
ENCODING 43
SWIDTH 570 0
DWIDTH 11 0
BBX 9 10 2 0
BITMAP
0800
0800
0800
0800
0800
FF80
0800
0800
0800
0800
ENDCHAR
STARTCHAR comma
ENCODING 44
SWIDTH 265 0
DWIDTH 5 0
BBX 3 5 1 -2
BITMAP
60
60
60
40
80
ENDCHAR
STARTCHAR hyphen
ENCODING 45
SWIDTH 392 0
DWIDTH 8 0
BBX 5 1 2 4
BITMAP
F8
ENDCHAR
STARTCHAR period
ENCODING 46
SWIDTH 265 0
DWIDTH 5 0
BBX 2 2 2 0
BITMAP
C0
C0
ENDCHAR
STARTCHAR slash
ENCODING 47
SWIDTH 270 0
DWIDTH 5 0
BBX 7 14 0 0
BITMAP
06
04
04
0C
08
18
10
10
30
20
60
40
40
C0
ENDCHAR
STARTCHAR zero
ENCODING 48
SWIDTH 530 0
DWIDTH 10 0
BBX 9 13 2 0
BITMAP
0E00
1100
3180
6180
6180
6180
C180
C300
C300
C300
C600
4400
3800
ENDCHAR
STARTCHAR one
ENCODING 49
SWIDTH 530 0
DWIDTH 10 0
BBX 7 13 2 0
BITMAP
06
1E
04
0C
0C
0C
08
08
18
18
18
10
FC
ENDCHAR
STARTCHAR two
ENCODING 50
SWIDTH 530 0
DWIDTH 10 0
BBX 10 13 1 0
BITMAP
0F00
1880
30C0
30C0
00C0
0180
0300
0400
1800
2000
4080
FF00
FF00
ENDCHAR
STARTCHAR three
ENCODING 51
SWIDTH 530 0
DWIDTH 10 0
BBX 10 13 1 0
BITMAP
0F00
18C0
10C0
00C0
0380
1C00
0300
0180
0180
4180
C100
4300
3C00
ENDCHAR
STARTCHAR four
ENCODING 52
SWIDTH 530 0
DWIDTH 10 0
BBX 9 13 1 0
BITMAP
0080
0180
0380
0580
0900
1300
2300
4300
FF80
0200
0600
0600
1F00
ENDCHAR
STARTCHAR five
ENCODING 53
SWIDTH 530 0
DWIDTH 10 0
BBX 10 13 1 0
BITMAP
1FC0
1F80
1000
1000
1000
2E00
3300
0180
0180
0180
C100
6300
3C00
ENDCHAR
STARTCHAR six
ENCODING 54
SWIDTH 530 0
DWIDTH 10 0
BBX 10 13 2 0
BITMAP
0700
1880
30C0
2000
6000
7E00
6300
C180
C180
C180
C300
6300
3C00
ENDCHAR
STARTCHAR seven
ENCODING 55
SWIDTH 530 0
DWIDTH 10 0
BBX 9 13 3 0
BITMAP
7F80
FF80
8100
0300
0600
0C00
0800
1000
2000
6000
6000
C000
4000
ENDCHAR
STARTCHAR eight
ENCODING 56
SWIDTH 530 0
DWIDTH 10 0
BBX 9 13 2 0
BITMAP
1E00
3100
6180
6180
2300
3C00
6600
4300
C300
C300
C200
6600
3C00
ENDCHAR
STARTCHAR nine
ENCODING 57
SWIDTH 530 0
DWIDTH 10 0
BBX 10 13 1 0
BITMAP
0F00
3180
2080
60C0
60C0
60C0
31C0
1E80
0180
0180
C300
E600
3C00
ENDCHAR
STARTCHAR colon
ENCODING 58
SWIDTH 265 0
DWIDTH 5 0
BBX 4 10 2 0
BITMAP
30
30
20
00
00
00
00
40
C0
C0
ENDCHAR
STARTCHAR semicolon
ENCODING 59
SWIDTH 265 0
DWIDTH 5 0
BBX 5 12 1 -2
BITMAP
18
38
00
00
00
00
40
60
60
40
80
80
ENDCHAR
STARTCHAR less
ENCODING 60
SWIDTH 570 0
DWIDTH 11 0
BBX 9 10 2 0
BITMAP
0080
0380
0F00
3800
E000
8000
7000
1C00
0700
0080
ENDCHAR
STARTCHAR equal
ENCODING 61
SWIDTH 570 0
DWIDTH 11 0
BBX 9 5 2 2
BITMAP
FF80
0000
0000
0000
FF80
ENDCHAR
STARTCHAR greater
ENCODING 62
SWIDTH 570 0
DWIDTH 11 0
BBX 9 10 2 0
BITMAP
8000
E000
7800
0E00
0380
0080
0700
1C00
7000
8000
ENDCHAR
STARTCHAR question
ENCODING 63
SWIDTH 425 0
DWIDTH 8 0
BBX 7 14 3 0
BITMAP
38
66
C6
06
0C
18
20
C0
C0
70
00
00
E0
C0
ENDCHAR
STARTCHAR at
ENCODING 64
SWIDTH 794 0
DWIDTH 15 0
BBX 14 14 2 0
BITMAP
03E0
0C10
3808
30E4
6324
4624
C644
C444
CCC8
CD48
4670
6000
3820
07C0
ENDCHAR
STARTCHAR A
ENCODING 65
SWIDTH 624 0
DWIDTH 12 0
BBX 13 14 0 0
BITMAP
00C0
00C0
0140
0140
0260
0260
0460
0460
0FE0
0860
1020
1020
2030
F0F8
ENDCHAR
STARTCHAR B
ENCODING 66
SWIDTH 632 0
DWIDTH 12 0
BBX 12 14 1 0
BITMAP
1FC0
0C60
0C30
0C30
0830
08E0
1F00
18C0
1860
1060
3060
3060
30C0
FF00
ENDCHAR
STARTCHAR C
ENCODING 67
SWIDTH 661 0
DWIDTH 13 0
BBX 13 14 2 0
BITMAP
07E0
1C38
3010
6010
6000
6000
C000
C000
C000
C000
C020
6040
30C0
0F00
ENDCHAR
STARTCHAR D
ENCODING 68
SWIDTH 763 0
DWIDTH 15 0
BBX 15 14 1 0
BITMAP
1FE0
0618
040C
0C06
0C06
0C06
0806
1806
180C
180C
181C
3018
3060
FF80
ENDCHAR
STARTCHAR E
ENCODING 69
SWIDTH 596 0
DWIDTH 12 0
BBX 13 14 1 0
BITMAP
3FF8
0C10
0C10
0C10
1800
1820
1860
1FC0
1840
3800
3000
3020
3060
FFC0
ENDCHAR
STARTCHAR F
ENCODING 70
SWIDTH 571 0
DWIDTH 11 0
BBX 13 14 1 0
BITMAP
3FF8
0C10
0C10
0C10
1800
1820
1860
1FC0
1840
3800
3000
3000
3000
FC00
ENDCHAR
STARTCHAR G
ENCODING 71
SWIDTH 709 0
DWIDTH 14 0
BBX 13 14 2 0
BITMAP
03E0
0C38
3010
7010
6000
6000
C000
C000
C0F8
C030
C020
6060
3060
0F80
ENDCHAR
STARTCHAR H
ENCODING 72
SWIDTH 775 0
DWIDTH 15 0
BBX 17 14 1 0
BITMAP
1F1F80
060600
0C0600
0C0400
0C0C00
0C0C00
180C00
1FFC00
180800
181800
181800
301800
303000
FC7C00
ENDCHAR
STARTCHAR I
ENCODING 73
SWIDTH 345 0
DWIDTH 7 0
BBX 8 14 1 0
BITMAP
1F
0C
0C
0C
08
18
18
18
18
10
30
30
30
F8
ENDCHAR
STARTCHAR J
ENCODING 74
SWIDTH 352 0
DWIDTH 7 0
BBX 10 17 -1 -3
BITMAP
07C0
0300
0300
0300
0200
0600
0600
0600
0400
0C00
0C00
0C00
0C00
1800
1800
3000
E000
ENDCHAR
STARTCHAR K
ENCODING 75
SWIDTH 650 0
DWIDTH 13 0
BBX 15 14 1 0
BITMAP
1F3E
0C18
0C20
0C40
0980
0A00
1E00
1E00
1B00
1380
3180
30C0
3060
F830
ENDCHAR
STARTCHAR L
ENCODING 76
SWIDTH 565 0
DWIDTH 11 0
BBX 11 14 1 0
BITMAP
1F00
0C00
0C00
0C00
0C00
0800
1800
1800
1800
1000
3020
3020
3040
FFC0
ENDCHAR
STARTCHAR M
ENCODING 77
SWIDTH 920 0
DWIDTH 18 0
BBX 19 14 1 0
BITMAP
3C01E0
0E0180
0E0380
0E0580
160580
130900
130B00
131300
132300
232300
21C600
218600
618600
F11F00
ENDCHAR
STARTCHAR N
ENCODING 78
SWIDTH 763 0
DWIDTH 15 0
BBX 16 14 1 0
BITMAP
3C0F
0E06
0E04
0B04
1304
1184
1188
10C8
20C8
20E8
2070
2070
6030
F030
ENDCHAR
STARTCHAR O
ENCODING 79
SWIDTH 753 0
DWIDTH 15 0
BBX 13 14 2 0
BITMAP
07C0
1820
3030
7018
6018
6018
C018
C018
C030
C030
C030
6060
30C0
1F00
ENDCHAR
STARTCHAR P
ENCODING 80
SWIDTH 614 0
DWIDTH 12 0
BBX 12 14 1 0
BITMAP
3FC0
0C60
0C30
0C30
1830
1830
1860
18C0
3F80
3800
3000
3000
3000
FC00
ENDCHAR
STARTCHAR Q
ENCODING 81
SWIDTH 753 0
DWIDTH 15 0
BBX 13 18 2 -4
BITMAP
07C0
1820
3030
7018
6018
6018
C018
C018
C030
C030
C030
6060
30C0
1F00
0600
0300
0180
00E0
ENDCHAR
STARTCHAR R
ENCODING 82
SWIDTH 640 0
DWIDTH 12 0
BBX 12 14 1 0
BITMAP
1FC0
0C60
0C30
0C30
0830
0860
18C0
1F80
18C0
18C0
30C0
30C0
30C0
F870
ENDCHAR
STARTCHAR S
ENCODING 83
SWIDTH 533 0
DWIDTH 10 0
BBX 9 14 2 0
BITMAP
1E00
3180
6100
6100
6000
3000
1C00
0E00
0700
8300
8300
8200
C600
3800
ENDCHAR
STARTCHAR T
ENCODING 84
SWIDTH 606 0
DWIDTH 12 0
BBX 12 14 3 0
BITMAP
FFF0
8420
8C20
0C00
0C00
0C00
1800
1800
1800
1800
1000
3000
3000
FC00
ENDCHAR
STARTCHAR U
ENCODING 85
SWIDTH 794 0
DWIDTH 15 0
BBX 15 14 3 0
BITMAP
FC7E
3018
3010
6030
6030
6030
6020
4060
C060
C060
C0C0
C0C0
6180
3E00
ENDCHAR
STARTCHAR V
ENCODING 86
SWIDTH 637 0
DWIDTH 12 0
BBX 13 14 3 0
BITMAP
F878
6020
2060
2040
3080
3080
3100
3100
3200
3200
1400
1400
1800
1000
ENDCHAR
STARTCHAR W
ENCODING 87
SWIDTH 946 0
DWIDTH 18 0
BBX 19 14 2 0
BITMAP
FC01E0
702080
306080
30E100
30E100
316200
316200
326400
326400
342400
342800
382800
303000
303000
ENDCHAR
STARTCHAR X
ENCODING 88
SWIDTH 632 0
DWIDTH 12 0
BBX 15 14 0 0
BITMAP
1F3E
0E18
0610
0620
0340
0380
0180
0380
0280
04C0
08C0
1060
3060
F8F8
ENDCHAR
STARTCHAR Y
ENCODING 89
SWIDTH 591 0
DWIDTH 11 0
BBX 13 14 2 0
BITMAP
F878
3020
3060
3040
1880
1900
1A00
0E00
0C00
0C00
1800
1800
1800
7E00
ENDCHAR
STARTCHAR Z
ENCODING 90
SWIDTH 622 0
DWIDTH 12 0
BBX 14 14 0 0
BITMAP
0FFC
081C
0838
1070
00E0
01C0
0380
0700
0600
0C00
1810
3010
6020
FFE0
ENDCHAR
STARTCHAR bracketleft
ENCODING 91
SWIDTH 330 0
DWIDTH 6 0
BBX 7 17 2 -3
BITMAP
0E
18
18
10
10
10
30
20
20
20
20
60
40
40
40
C0
E0
ENDCHAR
STARTCHAR backslash
ENCODING 92
SWIDTH 390 0
DWIDTH 8 0
BBX 5 14 3 0
BITMAP
80
C0
40
40
40
60
20
20
30
10
10
10
18
08
ENDCHAR
STARTCHAR bracketright
ENCODING 93
SWIDTH 330 0
DWIDTH 6 0
BBX 7 17 0 -3
BITMAP
0E
06
04
04
04
0C
08
08
08
08
18
10
10
10
30
30
E0
ENDCHAR
STARTCHAR asciicircum
ENCODING 94
SWIDTH 570 0
DWIDTH 11 0
BBX 9 9 2 4
BITMAP
0800
1C00
1400
3600
2200
2200
6300
4100
C180
ENDCHAR
STARTCHAR underscore
ENCODING 95
SWIDTH 500 0
DWIDTH 10 0
BBX 10 1 0 -2
BITMAP
FFC0
ENDCHAR
STARTCHAR grave
ENCODING 96
SWIDTH 400 0
DWIDTH 8 0
BBX 4 4 4 10
BITMAP
80
C0
20
10
ENDCHAR
STARTCHAR a
ENCODING 97
SWIDTH 561 0
DWIDTH 11 0
BBX 10 10 1 0
BITMAP
07C0
18C0
3080
6180
6180
C380
C300
C740
CB40
7380
ENDCHAR
STARTCHAR b
ENCODING 98
SWIDTH 559 0
DWIDTH 11 0
BBX 10 14 2 0
BITMAP
1800
7800
1000
1000
3380
34C0
28C0
30C0
60C0
6180
6180
4300
E600
BC00
ENDCHAR
STARTCHAR c
ENCODING 99
SWIDTH 441 0
DWIDTH 9 0
BBX 8 10 2 0
BITMAP
0E
33
63
60
C0
C0
C0
C2
C4
78
ENDCHAR
STARTCHAR d
ENCODING 100
SWIDTH 587 0
DWIDTH 11 0
BBX 12 14 1 0
BITMAP
0030
00F0
0020
0060
07E0
1C60
3040
60C0
60C0
C1C0
C280
C3A0
CDA0
71C0
ENDCHAR
STARTCHAR e
ENCODING 101
SWIDTH 453 0
DWIDTH 9 0
BBX 8 10 2 0
BITMAP
0E
13
23
62
CC
F0
C0
C2
C4
78
ENDCHAR
STARTCHAR f
ENCODING 102
SWIDTH 315 0
DWIDTH 6 0
BBX 12 19 -1 -5
BITMAP
00E0
0130
0300
0300
0FC0
0600
0600
0600
0400
0C00
0C00
0C00
0C00
0800
0800
1800
1000
D000
6000
ENDCHAR
STARTCHAR g
ENCODING 103
SWIDTH 499 0
DWIDTH 10 0
BBX 12 15 0 -5
BITMAP
0F30
18E0
30C0
30C0
30C0
1180
0F00
1000
3C00
1F80
61C0
C0C0
C0C0
6180
3E00
ENDCHAR
STARTCHAR h
ENCODING 104
SWIDTH 607 0
DWIDTH 12 0
BBX 10 14 2 0
BITMAP
0800
3800
1800
1000
3380
34C0
38C0
2880
3180
6180
6100
6340
4340
C380
ENDCHAR
STARTCHAR i
ENCODING 105
SWIDTH 317 0
DWIDTH 6 0
BBX 5 14 2 0
BITMAP
18
18
00
00
30
F0
30
20
60
60
40
C8
D0
E0
ENDCHAR
STARTCHAR j
ENCODING 106
SWIDTH 309 0
DWIDTH 6 0
BBX 8 19 -1 -5
BITMAP
03
03
02
00
02
0E
06
06
06
04
04
0C
0C
0C
08
18
18
D0
60
ENDCHAR
STARTCHAR k
ENCODING 107
SWIDTH 545 0
DWIDTH 11 0
BBX 10 14 2 0
BITMAP
0800
3800
1800
1000
30C0
3380
3400
2800
6800
7800
6C00
4C80
C680
C700
ENDCHAR
STARTCHAR l
ENCODING 108
SWIDTH 306 0
DWIDTH 6 0
BBX 5 14 2 0
BITMAP
18
78
18
10
30
30
20
20
60
60
40
C8
D0
E0
ENDCHAR
STARTCHAR m
ENCODING 109
SWIDTH 912 0
DWIDTH 18 0
BBX 16 10 2 0
BITMAP
1B8C
74D6
38E6
38C6
30C4
2184
618C
618D
410D
C30E
ENDCHAR
STARTCHAR n
ENCODING 110
SWIDTH 618 0
DWIDTH 12 0
BBX 10 10 2 0
BITMAP
1380
74C0
38C0
2880
3180
6180
6100
6340
4340
C380
ENDCHAR
STARTCHAR o
ENCODING 111
SWIDTH 537 0
DWIDTH 10 0
BBX 9 10 2 0
BITMAP
0E00
3100
6180
6180
E180
C380
C300
C300
4600
3800
ENDCHAR
STARTCHAR p
ENCODING 112
SWIDTH 590 0
DWIDTH 11 0
BBX 11 15 1 -5
BITMAP
19C0
7A60
1460
1860
3060
30C0
30C0
2180
6300
7E00
6000
4000
4000
C000
C000
ENDCHAR
STARTCHAR q
ENCODING 113
SWIDTH 559 0
DWIDTH 11 0
BBX 10 15 1 -5
BITMAP
0740
18C0
30C0
6080
6180
C180
C380
C500
CB00
7300
0300
0200
0200
0600
0400
ENDCHAR
STARTCHAR r
ENCODING 114
SWIDTH 402 0
DWIDTH 8 0
BBX 7 10 2 0
BITMAP
32
EE
30
30
60
60
40
40
C0
80
ENDCHAR
STARTCHAR s
ENCODING 115
SWIDTH 389 0
DWIDTH 8 0
BBX 8 10 1 0
BITMAP
1E
23
21
30
18
1C
06
C6
44
38
ENDCHAR
STARTCHAR t
ENCODING 116
SWIDTH 341 0
DWIDTH 7 0
BBX 6 13 2 0
BITMAP
08
10
30
FC
30
20
60
60
60
40
C8
D0
E0
ENDCHAR
STARTCHAR u
ENCODING 117
SWIDTH 618 0
DWIDTH 12 0
BBX 11 10 2 0
BITMAP
3040
F0C0
2080
6180
6180
6380
4300
C720
CB40
F380
ENDCHAR
STARTCHAR v
ENCODING 118
SWIDTH 510 0
DWIDTH 10 0
BBX 9 10 2 0
BITMAP
3080
E180
6180
6100
6100
4200
4200
C400
D800
6000
ENDCHAR
STARTCHAR w
ENCODING 119
SWIDTH 785 0
DWIDTH 15 0
BBX 15 10 2 0
BITMAP
30C4
E186
2186
6184
6184
4308
4708
C710
DB20
61C0
ENDCHAR
STARTCHAR x
ENCODING 120
SWIDTH 516 0
DWIDTH 10 0
BBX 10 10 1 0
BITMAP
18C0
79C0
0A00
0A00
0C00
0C00
1400
1640
E680
C300
ENDCHAR
STARTCHAR y
ENCODING 121
SWIDTH 468 0
DWIDTH 9 0
BBX 11 15 0 -5
BITMAP
1820
7860
1860
0840
08C0
0C80
0D00
0D00
0E00
0E00
0C00
0800
0800
D000
E000
ENDCHAR
STARTCHAR z
ENCODING 122
SWIDTH 468 0
DWIDTH 9 0
BBX 9 10 1 0
BITMAP
3F80
4300
4600
0400
0C00
1800
3080
6100
FF00
9E00
ENDCHAR
STARTCHAR braceleft
ENCODING 123
SWIDTH 340 0
DWIDTH 7 0
BBX 5 17 3 -3
BITMAP
18
10
20
20
20
20
20
40
C0
40
40
40
C0
80
80
80
40
ENDCHAR
STARTCHAR bar
ENCODING 124
SWIDTH 270 0
DWIDTH 5 0
BBX 1 14 3 0
BITMAP
80
80
80
80
80
80
80
80
80
80
80
80
80
80
ENDCHAR
STARTCHAR braceright
ENCODING 125
SWIDTH 340 0
DWIDTH 7 0
BBX 5 17 1 -3
BITMAP
10
08
08
08
18
10
10
10
08
10
20
20
20
20
20
40
C0
ENDCHAR
STARTCHAR asciitilde
ENCODING 126
SWIDTH 570 0
DWIDTH 11 0
BBX 8 3 3 3
BITMAP
21
7E
84
ENDCHAR
STARTCHAR space
ENCODING 160
SWIDTH 225 0
DWIDTH 4 0
BBX 0 0 0 0
BITMAP
ENDCHAR
STARTCHAR uni1E02
ENCODING 161
SWIDTH 632 0
DWIDTH 12 0
BBX 12 17 1 0
BITMAP
0300
0300
0000
1FC0
0C60
0C30
0C30
0830
08E0
1F00
18C0
1860
1060
3060
3060
30C0
FF00
ENDCHAR
STARTCHAR uni1E03
ENCODING 162
SWIDTH 559 0
DWIDTH 11 0
BBX 10 17 2 0
BITMAP
1800
1800
0000
1800
7800
1000
1000
3380
34C0
28C0
30C0
60C0
6180
6180
4300
E600
BC00
ENDCHAR
STARTCHAR sterling
ENCODING 163
SWIDTH 530 0
DWIDTH 10 0
BBX 11 13 1 0
BITMAP
0780
0CE0
1840
1800
1800
0800
7F80
0C00
0C00
0800
0800
1040
FF80
ENDCHAR
STARTCHAR Cdotaccent
ENCODING 164
SWIDTH 661 0
DWIDTH 13 0
BBX 13 17 2 0
BITMAP
0300
0300
0000
07E0
1C38
3010
6010
6000
6000
C000
C000
C000
C000
C020
6040
30C0
0F00
ENDCHAR
STARTCHAR cdotaccent
ENCODING 165
SWIDTH 441 0
DWIDTH 9 0
BBX 8 13 2 0
BITMAP
0C
0C
00
0E
33
63
60
C0
C0
C0
C2
C4
78
ENDCHAR
STARTCHAR uni1E0A
ENCODING 166
SWIDTH 763 0
DWIDTH 15 0
BBX 15 17 1 0
BITMAP
0180
0180
0000
1FE0
0618
040C
0C06
0C06
0C06
0806
1806
180C
180C
181C
3018
3060
FF80
ENDCHAR
STARTCHAR section
ENCODING 167
SWIDTH 530 0
DWIDTH 10 0
BBX 10 16 1 -2
BITMAP
0780
04C0
0840
1800
2C00
4700
4380
60C0
3040
3840
0C40
0680
0300
C200
4400
3800
ENDCHAR
STARTCHAR Wgrave
ENCODING 168
SWIDTH 946 0
DWIDTH 18 0
BBX 19 19 2 0
BITMAP
020000
030000
008000
004000
000000
FC01E0
702080
306080
30E100
30E100
316200
316200
326400
326400
342400
342800
382800
303000
303000
ENDCHAR
STARTCHAR copyright
ENCODING 169
SWIDTH 836 0
DWIDTH 16 0
BBX 13 14 3 0
BITMAP
0F80
1040
2030
4790
4C48
9848
9808
9808
9848
8C48
4790
2030
1060
0F80
ENDCHAR
STARTCHAR Wacute
ENCODING 170
SWIDTH 946 0
DWIDTH 18 0
BBX 19 19 2 0
BITMAP
002000
006000
008000
010000
000000
FC01E0
702080
306080
30E100
30E100
316200
316200
326400
326400
342400
342800
382800
303000
303000
ENDCHAR
STARTCHAR uni1E0B
ENCODING 171
SWIDTH 587 0
DWIDTH 11 0
BBX 12 17 1 0
BITMAP
00C0
00C0
0000
0030
00F0
0020
0060
07E0
1C60
3040
60C0
60C0
C1C0
C280
C3A0
CDA0
71C0
ENDCHAR
STARTCHAR Ygrave
ENCODING 172
SWIDTH 591 0
DWIDTH 11 0
BBX 13 19 2 0
BITMAP
0800
0C00
0200
0100
0000
F878
3020
3060
3040
1880
1900
1A00
0E00
0C00
0C00
1800
1800
1800
7E00
ENDCHAR
STARTCHAR hyphen
ENCODING 173
SWIDTH 392 0
DWIDTH 8 0
BBX 5 1 2 4
BITMAP
F8
ENDCHAR
STARTCHAR registered
ENCODING 174
SWIDTH 836 0
DWIDTH 16 0
BBX 13 14 3 0
BITMAP
0F80
1040
2020
5F10
4890
8888
8988
8E08
8988
8888
5CD0
6020
3040
0F80
ENDCHAR
STARTCHAR Ydieresis
ENCODING 175
SWIDTH 591 0
DWIDTH 11 0
BBX 12 16 3 0
BITMAP
1980
1980
F0F0
6040
60C0
6080
3100
3200
3400
1C00
1800
1800
3000
3000
3000
FC00
ENDCHAR
STARTCHAR uni1E1E
ENCODING 176
SWIDTH 571 0
DWIDTH 11 0
BBX 13 17 1 0
BITMAP
0300
0300
0000
3FF8
0C10
0C10
0C10
1800
1820
1860
1FC0
1840
3800
3000
3000
3000
FC00
ENDCHAR
STARTCHAR uni1E1F
ENCODING 177
SWIDTH 315 0
DWIDTH 6 0
BBX 12 22 -1 -5
BITMAP
0300
0300
0000
00E0
0130
0300
0300
0FC0
0600
0600
0600
0400
0C00
0C00
0C00
0C00
0800
0800
1800
1000
D000
6000
ENDCHAR
STARTCHAR Gdotaccent
ENCODING 178
SWIDTH 709 0
DWIDTH 14 0
BBX 13 17 2 0
BITMAP
0300
0300
0000
03E0
0C38
3010
7010
6000
6000
C000
C000
C0F8
C030
C020
6060
3060
0F80
ENDCHAR
STARTCHAR gdotaccent
ENCODING 179
SWIDTH 499 0
DWIDTH 10 0
BBX 12 18 0 -5
BITMAP
0300
0300
0000
0F30
18E0
30C0
30C0
30C0
1180
0F00
1000
3C00
1F80
61C0
C0C0
C0C0
6180
3E00
ENDCHAR
STARTCHAR uni1E40
ENCODING 180
SWIDTH 920 0
DWIDTH 18 0
BBX 19 17 1 0
BITMAP
006000
006000
000000
3C01E0
0E0180
0E0380
0E0580
160580
130900
130B00
131300
132300
232300
21C600
218600
618600
F11F00
ENDCHAR
STARTCHAR uni1E41
ENCODING 181
SWIDTH 912 0
DWIDTH 18 0
BBX 16 13 2 0
BITMAP
0180
0180
0000
1B8C
74D6
38E6
38C6
30C4
2184
618C
618D
410D
C30E
ENDCHAR
STARTCHAR paragraph
ENCODING 182
SWIDTH 560 0
DWIDTH 11 0
BBX 10 16 3 -2
BITMAP
19C0
3900
7B00
FB00
F200
F200
F200
7600
3600
0400
0400
0400
0C00
0C00
0800
3800
ENDCHAR
STARTCHAR uni1E56
ENCODING 183
SWIDTH 614 0
DWIDTH 12 0
BBX 12 17 1 0
BITMAP
0300
0300
0000
3FC0
0C60
0C30
0C30
1830
1830
1860
18C0
3F80
3800
3000
3000
3000
FC00
ENDCHAR
STARTCHAR wgrave
ENCODING 184
SWIDTH 785 0
DWIDTH 15 0
BBX 15 15 2 0
BITMAP
0400
0600
0100
0080
0000
30C4
E186
2186
6184
6184
4308
4708
C710
DB20
61C0
ENDCHAR
STARTCHAR uni1E57
ENCODING 185
SWIDTH 590 0
DWIDTH 11 0
BBX 11 18 1 -5
BITMAP
0600
0600
0000
19C0
7A60
1460
1860
3060
30C0
30C0
2180
6300
7E00
6000
4000
4000
C000
C000
ENDCHAR
STARTCHAR wacute
ENCODING 186
SWIDTH 785 0
DWIDTH 15 0
BBX 15 15 2 0
BITMAP
0040
00C0
0100
0200
0000
30C4
E186
2186
6184
6184
4308
4708
C710
DB20
61C0
ENDCHAR
STARTCHAR uni1E60
ENCODING 187
SWIDTH 533 0
DWIDTH 10 0
BBX 9 17 2 0
BITMAP
0C00
0C00
0000
1E00
3180
6100
6100
6000
3000
1C00
0E00
0700
8300
8300
8200
C600
3800
ENDCHAR
STARTCHAR ygrave
ENCODING 188
SWIDTH 468 0
DWIDTH 9 0
BBX 11 20 0 -5
BITMAP
1000
1800
0400
0200
0000
1820
7860
1860
0840
08C0
0C80
0D00
0D00
0E00
0E00
0C00
0800
0800
D000
E000
ENDCHAR
STARTCHAR Wdieresis
ENCODING 189
SWIDTH 946 0
DWIDTH 18 0
BBX 19 17 2 0
BITMAP
033000
033000
000000
FC01E0
702080
306080
30E100
30E100
316200
316200
326400
326400
342400
342800
382800
303000
303000
ENDCHAR
STARTCHAR wdieresis
ENCODING 190
SWIDTH 785 0
DWIDTH 15 0
BBX 15 13 2 0
BITMAP
0660
0660
0000
30C4
E186
2186
6184
6184
4308
4708
C710
DB20
61C0
ENDCHAR
STARTCHAR uni1E61
ENCODING 191
SWIDTH 389 0
DWIDTH 8 0
BBX 8 13 1 0
BITMAP
0C
0C
00
1E
23
21
30
18
1C
06
C6
44
38
ENDCHAR
STARTCHAR Agrave
ENCODING 192
SWIDTH 624 0
DWIDTH 12 0
BBX 13 18 0 0
BITMAP
0100
0380
03E0
0060
0040
00C0
0140
0160
0260
0260
0460
0460
0FE0
0860
1020
3020
2030
F0F8
ENDCHAR
STARTCHAR Aacute
ENCODING 193
SWIDTH 624 0
DWIDTH 12 0
BBX 13 17 0 0
BITMAP
0010
0070
00C0
0040
00C0
0140
0160
0260
0260
0460
0460
0FE0
0860
1020
3020
2030
F0F8
ENDCHAR
STARTCHAR Acircumflex
ENCODING 194
SWIDTH 624 0
DWIDTH 12 0
BBX 13 17 0 0
BITMAP
0040
00E0
0130
0250
00C0
0140
0160
0260
0260
0460
0460
0FE0
0860
1020
3020
2030
F0F8
ENDCHAR
STARTCHAR Atilde
ENCODING 195
SWIDTH 624 0
DWIDTH 12 0
BBX 13 16 0 0
BITMAP
0188
0270
00C0
00C0
0140
0140
0260
0260
0460
0460
0FE0
0860
1020
1020
2030
F0F8
ENDCHAR
STARTCHAR Adieresis
ENCODING 196
SWIDTH 624 0
DWIDTH 12 0
BBX 12 16 0 0
BITMAP
0330
0330
00C0
01C0
01C0
02C0
02C0
04C0
04C0
0840
0FE0
1060
1060
2060
2060
F0F0
ENDCHAR
STARTCHAR Aring
ENCODING 197
SWIDTH 624 0
DWIDTH 12 0
BBX 12 17 0 0
BITMAP
00C0
0120
0120
00C0
00C0
01C0
02C0
02C0
02C0
04C0
0440
0FC0
0860
1060
2060
2060
F0F0
ENDCHAR
STARTCHAR AE
ENCODING 198
SWIDTH 880 0
DWIDTH 17 0
BBX 20 14 -1 0
BITMAP
007FF0
003820
005820
005820
009000
011040
0130C0
03FF80
043080
0C3000
186000
106040
2060C0
F9FF80
ENDCHAR
STARTCHAR Ccedilla
ENCODING 199
SWIDTH 661 0
DWIDTH 13 0
BBX 13 19 2 -5
BITMAP
07E0
1C38
3010
6010
6000
6000
C000
C000
C000
C000
C020
6040
30C0
0F00
0800
0C00
0400
0600
1C00
ENDCHAR
STARTCHAR Egrave
ENCODING 200
SWIDTH 596 0
DWIDTH 12 0
BBX 13 18 1 0
BITMAP
0400
0700
07C0
00C0
3FF8
0C10
0C10
0C10
1800
1820
1860
1FC0
1840
3800
3000
3020
3060
FFC0
ENDCHAR
STARTCHAR Eacute
ENCODING 201
SWIDTH 596 0
DWIDTH 12 0
BBX 13 17 1 0
BITMAP
0020
00E0
0180
3FF8
0C10
0C10
0C10
1800
1820
1860
1FC0
1840
3800
3000
3020
3060
FFC0
ENDCHAR
STARTCHAR Ecircumflex
ENCODING 202
SWIDTH 596 0
DWIDTH 12 0
BBX 13 17 1 0
BITMAP
0080
01C0
0660
3BD8
0C30
0C10
0C10
1800
1820
1860
1FC0
1840
3800
3000
3020
3060
FFC0
ENDCHAR
STARTCHAR Edieresis
ENCODING 203
SWIDTH 596 0
DWIDTH 12 0
BBX 13 16 1 0
BITMAP
0660
0660
3FF8
0C10
0C10
0C10
1800
1820
1860
1FC0
1840
3800
3000
3020
3060
FFC0
ENDCHAR
STARTCHAR Igrave
ENCODING 204
SWIDTH 345 0
DWIDTH 7 0
BBX 8 18 1 0
BITMAP
10
1C
1E
02
1F
0C
0C
0C
08
18
18
18
18
10
30
30
30
F8
ENDCHAR
STARTCHAR Iacute
ENCODING 205
SWIDTH 345 0
DWIDTH 7 0
BBX 8 17 1 0
BITMAP
01
07
0C
1F
06
0C
0C
0C
0C
18
18
18
18
10
30
30
FC
ENDCHAR
STARTCHAR Icircumflex
ENCODING 206
SWIDTH 345 0
DWIDTH 7 0
BBX 9 17 1 0
BITMAP
0200
0700
1980
3F80
0E00
0C00
0C00
0C00
0C00
1800
1800
1800
1800
1000
3000
3000
FC00
ENDCHAR
STARTCHAR Idieresis
ENCODING 207
SWIDTH 345 0
DWIDTH 7 0
BBX 9 16 1 0
BITMAP
1980
1980
1F00
0400
0C00
0C00
0C00
0800
0800
1800
1800
1800
1000
3000
3000
FC00
ENDCHAR
STARTCHAR Wcircumflex
ENCODING 208
SWIDTH 946 0
DWIDTH 18 0
BBX 19 18 2 0
BITMAP
004000
01E000
021000
000000
FC01E0
702080
306080
30E100
30E100
316200
316200
326400
326400
342400
342800
382800
303000
303000
ENDCHAR
STARTCHAR Ntilde
ENCODING 209
SWIDTH 763 0
DWIDTH 15 0
BBX 16 16 1 0
BITMAP
01C8
0230
3C0F
0E06
0E04
0B04
1304
1184
1188
10C8
20C8
20E8
2070
2070
6030
F030
ENDCHAR
STARTCHAR Ograve
ENCODING 210
SWIDTH 753 0
DWIDTH 15 0
BBX 13 17 2 0
BITMAP
0700
0780
00C0
07C0
1820
3030
7018
6018
6018
C018
C018
C030
C030
C030
6060
30C0
1F00
ENDCHAR
STARTCHAR Oacute
ENCODING 211
SWIDTH 753 0
DWIDTH 15 0
BBX 13 17 2 0
BITMAP
0020
00E0
0100
07C0
1820
3030
7018
6018
6018
C018
C018
C030
C030
C030
6060
30C0
1F00
ENDCHAR
STARTCHAR Ocircumflex
ENCODING 212
SWIDTH 753 0
DWIDTH 15 0
BBX 13 17 2 0
BITMAP
0080
01C0
0260
07E0
1820
3030
7018
6018
6018
C018
C018
C030
C030
C030
6060
30C0
1F00
ENDCHAR
STARTCHAR Otilde
ENCODING 213
SWIDTH 753 0
DWIDTH 15 0
BBX 13 16 2 0
BITMAP
0310
04E0
07C0
1820
3030
7018
6018
6018
C018
C018
C030
C030
C030
6060
30C0
1F00
ENDCHAR
STARTCHAR Odieresis
ENCODING 214
SWIDTH 753 0
DWIDTH 15 0
BBX 13 16 2 0
BITMAP
0330
0330
03C0
0C30
3810
7018
6018
6018
C018
C018
C030
C030
C030
6060
30C0
1F80
ENDCHAR
STARTCHAR uni1E6A
ENCODING 215
SWIDTH 606 0
DWIDTH 12 0
BBX 12 17 3 0
BITMAP
0600
0600
0000
FFF0
8420
8C20
0C00
0C00
0C00
1800
1800
1800
1800
1000
3000
3000
FC00
ENDCHAR
STARTCHAR Oslash
ENCODING 216
SWIDTH 753 0
DWIDTH 15 0
BBX 13 16 2 -1
BITMAP
0010
07D0
1820
3030
7058
6098
6118
C218
C618
C430
C830
D030
6060
70C0
5F00
8000
ENDCHAR
STARTCHAR Ugrave
ENCODING 217
SWIDTH 794 0
DWIDTH 15 0
BBX 15 18 3 0
BITMAP
0800
0E00
0F80
0100
FC7E
3018
3010
6030
6030
6030
6020
4060
C060
C060
C0C0
C0C0
6180
3E00
ENDCHAR
STARTCHAR Uacute
ENCODING 218
SWIDTH 794 0
DWIDTH 15 0
BBX 15 17 3 0
BITMAP
0020
00E0
0180
FC7E
3018
3010
6030
6030
6030
6020
4060
C060
C060
C0C0
C0C0
6180
3E00
ENDCHAR
STARTCHAR Ucircumflex
ENCODING 219
SWIDTH 794 0
DWIDTH 15 0
BBX 15 17 3 0
BITMAP
0080
03C0
0660
FC7E
3018
3010
6030
6030
6030
6020
4060
C060
C060
C0C0
C0C0
6180
3E00
ENDCHAR
STARTCHAR Udieresis
ENCODING 220
SWIDTH 794 0
DWIDTH 15 0
BBX 15 16 3 0
BITMAP
0660
0660
FC7E
3018
3010
7030
6030
6030
6030
4020
C060
C060
C040
C0C0
6180
3E00
ENDCHAR
STARTCHAR Yacute
ENCODING 221
SWIDTH 591 0
DWIDTH 11 0
BBX 13 17 2 0
BITMAP
0020
00E0
0180
F878
3020
3060
3040
1880
1900
1A00
0E00
0C00
0C00
1800
1800
1800
7E00
ENDCHAR
STARTCHAR Ycircumflex
ENCODING 222
SWIDTH 591 0
DWIDTH 11 0
BBX 13 18 2 0
BITMAP
0200
0F00
1080
0000
F878
3020
3060
3040
1880
1900
1A00
0E00
0C00
0C00
1800
1800
1800
7E00
ENDCHAR
STARTCHAR germandbls
ENCODING 223
SWIDTH 577 0
DWIDTH 11 0
BBX 15 19 -2 -5
BITMAP
0078
00C6
0186
0306
0F1C
0220
0660
0660
0630
0438
041C
0C0C
0C88
0CF0
0800
0800
1800
D000
6000
ENDCHAR
STARTCHAR agrave
ENCODING 224
SWIDTH 561 0
DWIDTH 11 0
BBX 10 14 1 0
BITMAP
0C00
0600
0100
0000
07C0
18C0
3080
6180
6180
C380
C300
C740
CB40
7380
ENDCHAR
STARTCHAR aacute
ENCODING 225
SWIDTH 561 0
DWIDTH 11 0
BBX 10 14 1 0
BITMAP
00C0
0180
0200
0000
07C0
18C0
3080
6180
6180
C380
C300
C740
CB40
7380
ENDCHAR
STARTCHAR acircumflex
ENCODING 226
SWIDTH 561 0
DWIDTH 11 0
BBX 10 14 1 0
BITMAP
0100
0380
0CC0
0000
07C0
18C0
3080
6180
6180
C380
C300
C740
CB40
7380
ENDCHAR
STARTCHAR atilde
ENCODING 227
SWIDTH 561 0
DWIDTH 11 0
BBX 10 13 1 0
BITMAP
0E40
1180
0000
07C0
18C0
3080
6180
6180
C380
C300
C740
CB40
7380
ENDCHAR
STARTCHAR adieresis
ENCODING 228
SWIDTH 561 0
DWIDTH 11 0
BBX 10 13 1 0
BITMAP
0CC0
0CC0
0000
07C0
18C0
3080
6180
6180
C380
C300
C740
CB40
7380
ENDCHAR
STARTCHAR aring
ENCODING 229
SWIDTH 561 0
DWIDTH 11 0
BBX 10 15 1 0
BITMAP
0300
0480
0480
0300
0000
07C0
18C0
3080
6180
6180
C380
C300
C740
CB40
7380
ENDCHAR
STARTCHAR ae
ENCODING 230
SWIDTH 779 0
DWIDTH 15 0
BBX 15 10 1 0
BITMAP
075C
1CE6
30C6
6084
6198
C1E0
C380
C584
C988
70F0
ENDCHAR
STARTCHAR ccedilla
ENCODING 231
SWIDTH 441 0
DWIDTH 9 0
BBX 8 15 2 -5
BITMAP
0E
33
63
60
C0
C0
C0
C2
C4
78
20
30
10
10
60
ENDCHAR
STARTCHAR egrave
ENCODING 232
SWIDTH 453 0
DWIDTH 9 0
BBX 8 14 2 0
BITMAP
30
18
04
00
0E
13
23
62
CC
F0
C0
C2
C4
78
ENDCHAR
STARTCHAR eacute
ENCODING 233
SWIDTH 453 0
DWIDTH 9 0
BBX 8 14 2 0
BITMAP
03
06
0C
00
0E
13
23
62
CC
F0
C0
C2
C4
78
ENDCHAR
STARTCHAR ecircumflex
ENCODING 234
SWIDTH 453 0
DWIDTH 9 0
BBX 8 14 2 0
BITMAP
04
0E
13
00
0E
13
23
62
CC
F0
C0
C2
C4
78
ENDCHAR
STARTCHAR edieresis
ENCODING 235
SWIDTH 453 0
DWIDTH 9 0
BBX 8 13 2 0
BITMAP
33
33
00
0E
33
23
46
CC
F0
C0
C2
CC
70
ENDCHAR
STARTCHAR igrave
ENCODING 236
SWIDTH 317 0
DWIDTH 6 0
BBX 5 14 2 0
BITMAP
C0
60
18
00
30
F0
30
20
60
60
40
C8
D0
E0
ENDCHAR
STARTCHAR iacute
ENCODING 237
SWIDTH 317 0
DWIDTH 6 0
BBX 6 14 2 0
BITMAP
0C
18
20
00
30
F0
30
20
60
60
40
C8
D0
E0
ENDCHAR
STARTCHAR icircumflex
ENCODING 238
SWIDTH 317 0
DWIDTH 6 0
BBX 6 14 2 0
BITMAP
10
38
4C
80
30
F0
30
20
60
60
40
C8
D0
E0
ENDCHAR
STARTCHAR idieresis
ENCODING 239
SWIDTH 317 0
DWIDTH 6 0
BBX 6 13 2 0
BITMAP
CC
CC
00
30
F0
20
20
60
60
40
C8
D0
E0
ENDCHAR
STARTCHAR wcircumflex
ENCODING 240
SWIDTH 785 0
DWIDTH 15 0
BBX 15 14 2 0
BITMAP
0080
03C0
0420
0000
30C4
E186
2186
6184
6184
4308
4708
C710
DB20
61C0
ENDCHAR
STARTCHAR ntilde
ENCODING 241
SWIDTH 618 0
DWIDTH 12 0
BBX 10 13 2 0
BITMAP
0C40
1380
0000
1380
74C0
38C0
2880
3180
6180
6100
6340
4340
C380
ENDCHAR
STARTCHAR ograve
ENCODING 242
SWIDTH 537 0
DWIDTH 10 0
BBX 9 14 2 0
BITMAP
1800
0C00
0600
0000
0E00
3100
6180
6180
E180
C380
C300
C300
4600
3800
ENDCHAR
STARTCHAR oacute
ENCODING 243
SWIDTH 537 0
DWIDTH 10 0
BBX 9 14 2 0
BITMAP
0180
0300
0C00
0000
0E00
3100
6180
6180
E180
C380
C300
C300
4600
3800
ENDCHAR
STARTCHAR ocircumflex
ENCODING 244
SWIDTH 537 0
DWIDTH 10 0
BBX 9 14 2 0
BITMAP
0200
0600
1980
0000
0E00
3100
6180
6180
E180
C380
C300
C300
4600
3800
ENDCHAR
STARTCHAR otilde
ENCODING 245
SWIDTH 537 0
DWIDTH 10 0
BBX 9 13 2 0
BITMAP
1C80
2300
0000
0E00
3100
6180
6180
E180
C380
C300
C300
4600
3800
ENDCHAR
STARTCHAR odieresis
ENCODING 246
SWIDTH 537 0
DWIDTH 10 0
BBX 9 13 2 0
BITMAP
1980
1980
0000
1E00
3100
6180
6180
C180
C380
C300
C300
4600
3800
ENDCHAR
STARTCHAR uni1E6B
ENCODING 247
SWIDTH 341 0
DWIDTH 7 0
BBX 6 16 2 0
BITMAP
30
30
00
08
10
30
FC
30
20
60
60
60
40
C8
D0
E0
ENDCHAR
STARTCHAR oslash
ENCODING 248
SWIDTH 537 0
DWIDTH 10 0
BBX 9 10 2 0
BITMAP
0E80
3100
6380
6580
C980
C980
D300
E300
4600
B800
ENDCHAR
STARTCHAR ugrave
ENCODING 249
SWIDTH 618 0
DWIDTH 12 0
BBX 11 14 2 0
BITMAP
1800
0C00
0600
0000
3040
F0C0
2080
6180
6180
6380
4300
C720
CB40
F380
ENDCHAR
STARTCHAR uacute
ENCODING 250
SWIDTH 618 0
DWIDTH 12 0
BBX 11 14 2 0
BITMAP
0180
0300
0600
0000
3040
F0C0
2080
6180
6180
6380
4300
C720
CB40
F380
ENDCHAR
STARTCHAR ucircumflex
ENCODING 251
SWIDTH 618 0
DWIDTH 12 0
BBX 11 14 2 0
BITMAP
0200
0700
0980
1000
3040
F0C0
2080
6180
6180
6380
4300
C720
CB40
F380
ENDCHAR
STARTCHAR udieresis
ENCODING 252
SWIDTH 618 0
DWIDTH 12 0
BBX 11 13 2 0
BITMAP
18C0
18C0
0000
3040
F0C0
20C0
6180
6180
6380
4300
C720
CB40
F380
ENDCHAR
STARTCHAR yacute
ENCODING 253
SWIDTH 468 0
DWIDTH 9 0
BBX 11 19 0 -5
BITMAP
0060
00C0
0300
0000
1820
7860
1860
0840
08C0
0C80
0D00
0D00
0E00
0E00
0C00
0800
0800
D000
E000
ENDCHAR
STARTCHAR ycircumflex
ENCODING 254
SWIDTH 468 0
DWIDTH 9 0
BBX 11 19 0 -5
BITMAP
0200
0F00
1080
0000
1820
7860
1860
0840
08C0
0C80
0D00
0D00
0E00
0E00
0C00
0800
0800
D000
E000
ENDCHAR
STARTCHAR ydieresis
ENCODING 255
SWIDTH 468 0
DWIDTH 9 0
BBX 11 18 0 -5
BITMAP
0660
0660
0000
1820
7860
1860
0840
08C0
0C80
0D00
0D00
0E00
0E00
0C00
0800
0800
D000
E000
ENDCHAR
ENDFONT
