STARTFONT 2.1
COMMENT AUTOMATICALLY GENERATED FILE. DO NOT EDIT!
COMMENT Generated with 'ucs2any UTI___12.bdf /usr/local/lib/X11/fonts/util/map-ISO8859-4 ISO8859-4'
COMMENT from an ISO10646-1 encoded source BDF font.
COMMENT ucs2any by Ben Collver <collver1@attbi.com>, 2003, based on
COMMENT ucs2any.pl by Markus Kuhn <http://www.cl.cam.ac.uk/~mgk25/>, 2000.
FONT -Adobe-Utopia-Regular-I-Normal--17-120-100-100-P-89-ISO8859-4
SIZE 12 100 100
FONTBOUNDINGBOX 19 22 -1 -6
COMMENT $Xorg: $
COMMENT ISO10646-1 extension by Markus Kuhn <mkuhn@acm.org>, 2001-03-20
STARTPROPERTIES 28
FOUNDRY "Adobe"
FAMILY_NAME "Utopia"
WEIGHT_NAME "Regular"
SLANT "I"
SETWIDTH_NAME "Normal"
ADD_STYLE_NAME ""
PIXEL_SIZE 17
POINT_SIZE 120
RESOLUTION_X 100
RESOLUTION_Y 100
SPACING "P"
AVERAGE_WIDTH 89
CHARSET_REGISTRY "ISO8859"
CHARSET_ENCODING "4"
CAP_HEIGHT 12
X_HEIGHT 8
RELATIVE_SETWIDTH 50
RELATIVE_WEIGHT 50
WEIGHT 130
FACE_NAME "Utopia Italic"
COPYRIGHT "Copyright (c) 1989, 1991 Adobe Systems Incorporated.  All Rights Reserved."
NOTICE "Utopia is a registered trademark of Adobe Systems Incorporated."
DESTINATION 0
FONT_ASCENT 15
FONT_DESCENT 4
DEFAULT_CHAR 0
_ADOBE_PSFONT "Utopia-Italic"
_DEC_DEVICE_FONTNAMES "PS=Utopia-Italic"
ENDPROPERTIES
CHARS 192
STARTCHAR defaultchar
ENCODING 0
SWIDTH 775 0
DWIDTH 13 0
BBX 13 11 1 0
BITMAP
AAA8
0000
8008
0000
8008
0000
8008
0000
8008
0000
AAA8
ENDCHAR
STARTCHAR space
ENCODING 32
SWIDTH 225 0
DWIDTH 4 0
BBX 0 0 0 0
BITMAP
ENDCHAR
STARTCHAR exclam
ENCODING 33
SWIDTH 240 0
DWIDTH 4 0
BBX 4 12 1 0
BITMAP
10
20
20
20
20
40
40
40
00
00
40
80
ENDCHAR
STARTCHAR quotedbl
ENCODING 34
SWIDTH 402 0
DWIDTH 7 0
BBX 5 5 3 7
BITMAP
48
90
90
90
90
ENDCHAR
STARTCHAR numbersign
ENCODING 35
SWIDTH 530 0
DWIDTH 9 0
BBX 9 11 1 0
BITMAP
0900
0900
1200
7F80
1200
2400
FF00
2400
4800
4800
C800
ENDCHAR
STARTCHAR dollar
ENCODING 36
SWIDTH 530 0
DWIDTH 9 0
BBX 9 14 1 -2
BITMAP
0200
0E00
1380
2480
2400
1800
0600
0900
0900
C900
5200
3C00
1000
2000
ENDCHAR
STARTCHAR percent
ENCODING 37
SWIDTH 826 0
DWIDTH 14 0
BBX 12 12 2 0
BITMAP
0030
3FC0
4440
8480
8900
8A00
72E0
0510
0910
1210
2220
61C0
ENDCHAR
STARTCHAR ampersand
ENCODING 38
SWIDTH 725 0
DWIDTH 12 0
BBX 11 11 2 0
BITMAP
0C00
3200
2200
2440
2860
3880
4880
8500
8200
4D00
30C0
ENDCHAR
STARTCHAR quotesingle
ENCODING 39
SWIDTH 216 0
DWIDTH 4 0
BBX 2 5 3 7
BITMAP
40
80
80
80
80
ENDCHAR
STARTCHAR parenleft
ENCODING 40
SWIDTH 350 0
DWIDTH 6 0
BBX 6 14 2 -2
BITMAP
0C
10
20
20
40
40
80
80
80
80
80
80
40
60
ENDCHAR
STARTCHAR parenright
ENCODING 41
SWIDTH 350 0
DWIDTH 6 0
BBX 6 14 0 -2
BITMAP
10
08
04
04
04
04
04
04
08
08
08
10
20
C0
ENDCHAR
STARTCHAR asterisk
ENCODING 42
SWIDTH 412 0
DWIDTH 7 0
BBX 6 6 2 6
BITMAP
10
54
38
70
A8
20
ENDCHAR
STARTCHAR plus
ENCODING 43
SWIDTH 570 0
DWIDTH 9 0
BBX 7 8 2 0
BITMAP
10
10
10
FE
10
10
10
10
ENDCHAR
STARTCHAR comma
ENCODING 44
SWIDTH 265 0
DWIDTH 4 0
BBX 2 5 1 -2
BITMAP
40
40
40
80
80
ENDCHAR
STARTCHAR hyphen
ENCODING 45
SWIDTH 392 0
DWIDTH 7 0
BBX 4 1 2 4
BITMAP
F0
ENDCHAR
STARTCHAR period
ENCODING 46
SWIDTH 265 0
DWIDTH 4 0
BBX 2 2 1 0
BITMAP
40
80
ENDCHAR
STARTCHAR slash
ENCODING 47
SWIDTH 270 0
DWIDTH 4 0
BBX 6 12 0 0
BITMAP
04
08
08
10
10
10
20
20
20
40
40
80
ENDCHAR
STARTCHAR zero
ENCODING 48
SWIDTH 530 0
DWIDTH 9 0
BBX 7 11 2 0
BITMAP
1C
22
42
42
42
82
84
84
84
C8
30
ENDCHAR
STARTCHAR one
ENCODING 49
SWIDTH 530 0
DWIDTH 9 0
BBX 6 11 2 0
BITMAP
04
38
08
08
08
10
10
10
10
10
FC
ENDCHAR
STARTCHAR two
ENCODING 50
SWIDTH 530 0
DWIDTH 9 0
BBX 8 11 1 0
BITMAP
0E
11
21
01
01
06
08
10
20
41
FE
ENDCHAR
STARTCHAR three
ENCODING 51
SWIDTH 530 0
DWIDTH 9 0
BBX 8 11 1 0
BITMAP
0E
11
21
02
1C
06
02
02
82
44
38
ENDCHAR
STARTCHAR four
ENCODING 52
SWIDTH 530 0
DWIDTH 9 0
BBX 7 11 2 0
BITMAP
02
04
0C
14
24
44
44
FE
08
08
3C
ENDCHAR
STARTCHAR five
ENCODING 53
SWIDTH 530 0
DWIDTH 9 0
BBX 9 11 1 0
BITMAP
1F80
2000
2000
2000
3E00
4100
0100
0100
8100
C600
3800
ENDCHAR
STARTCHAR six
ENCODING 54
SWIDTH 530 0
DWIDTH 9 0
BBX 8 11 2 0
BITMAP
1E
21
41
40
7C
82
82
82
82
44
38
ENDCHAR
STARTCHAR seven
ENCODING 55
SWIDTH 530 0
DWIDTH 9 0
BBX 8 11 3 0
BITMAP
7F
82
04
04
08
10
20
40
40
C0
40
ENDCHAR
STARTCHAR eight
ENCODING 56
SWIDTH 530 0
DWIDTH 9 0
BBX 7 11 2 0
BITMAP
1C
22
42
44
38
46
82
82
82
C4
38
ENDCHAR
STARTCHAR nine
ENCODING 57
SWIDTH 530 0
DWIDTH 9 0
BBX 7 11 2 0
BITMAP
38
44
82
82
86
7A
02
04
84
98
60
ENDCHAR
STARTCHAR colon
ENCODING 58
SWIDTH 265 0
DWIDTH 4 0
BBX 3 8 2 0
BITMAP
20
60
00
00
00
00
C0
80
ENDCHAR
STARTCHAR semicolon
ENCODING 59
SWIDTH 265 0
DWIDTH 4 0
BBX 4 10 1 -2
BITMAP
30
20
00
00
00
00
40
40
40
80
ENDCHAR
STARTCHAR less
ENCODING 60
SWIDTH 570 0
DWIDTH 9 0
BBX 8 9 1 -1
BITMAP
01
03
0C
70
80
60
18
06
01
ENDCHAR
STARTCHAR equal
ENCODING 61
SWIDTH 570 0
DWIDTH 9 0
BBX 8 4 2 2
BITMAP
FF
00
00
FF
ENDCHAR
STARTCHAR greater
ENCODING 62
SWIDTH 570 0
DWIDTH 9 0
BBX 8 9 1 -1
BITMAP
80
C0
30
0E
01
06
18
60
80
ENDCHAR
STARTCHAR question
ENCODING 63
SWIDTH 425 0
DWIDTH 7 0
BBX 6 12 2 0
BITMAP
18
24
44
04
08
30
40
40
30
00
C0
40
ENDCHAR
STARTCHAR at
ENCODING 64
SWIDTH 794 0
DWIDTH 13 0
BBX 12 12 2 0
BITMAP
0F80
1040
2020
4790
4890
8910
9110
9720
88C0
4000
3080
0F00
ENDCHAR
STARTCHAR A
ENCODING 65
SWIDTH 624 0
DWIDTH 10 0
BBX 11 12 0 0
BITMAP
0080
0180
0280
0480
0480
0880
0F80
1080
1080
20C0
2080
F1E0
ENDCHAR
STARTCHAR B
ENCODING 66
SWIDTH 632 0
DWIDTH 11 0
BBX 10 12 1 0
BITMAP
3F00
18C0
0840
1040
1080
1F00
1100
1080
2080
2080
2100
FE00
ENDCHAR
STARTCHAR C
ENCODING 67
SWIDTH 661 0
DWIDTH 11 0
BBX 11 12 2 0
BITMAP
0F00
30E0
4040
4040
4000
8000
8000
8000
8080
8100
4100
3E00
ENDCHAR
STARTCHAR D
ENCODING 68
SWIDTH 763 0
DWIDTH 13 0
BBX 12 12 1 0
BITMAP
1F80
0860
0810
0810
0810
1010
1010
1020
1020
2060
2080
FF00
ENDCHAR
STARTCHAR E
ENCODING 69
SWIDTH 596 0
DWIDTH 10 0
BBX 11 12 1 0
BITMAP
1FE0
0840
0840
0800
0800
0880
1F00
1100
2000
2080
2080
FF00
ENDCHAR
STARTCHAR F
ENCODING 70
SWIDTH 571 0
DWIDTH 10 0
BBX 11 12 1 0
BITMAP
1FE0
0840
0840
0800
0800
0880
1F00
1100
2000
2000
2000
F000
ENDCHAR
STARTCHAR G
ENCODING 71
SWIDTH 709 0
DWIDTH 12 0
BBX 11 12 2 0
BITMAP
0F80
1060
2040
4040
4000
8000
8000
83E0
8080
8080
6180
1E00
ENDCHAR
STARTCHAR H
ENCODING 72
SWIDTH 775 0
DWIDTH 13 0
BBX 14 12 1 0
BITMAP
3E7C
0810
0810
0810
1020
1020
1FE0
1020
2040
2040
2040
F9F0
ENDCHAR
STARTCHAR I
ENCODING 73
SWIDTH 345 0
DWIDTH 6 0
BBX 7 12 1 0
BITMAP
3E
08
08
08
10
10
10
10
20
20
20
F8
ENDCHAR
STARTCHAR J
ENCODING 74
SWIDTH 352 0
DWIDTH 6 0
BBX 9 14 -1 -2
BITMAP
0F80
0200
0200
0400
0400
0400
0400
0800
0800
0800
0800
1000
2000
C000
ENDCHAR
STARTCHAR K
ENCODING 75
SWIDTH 650 0
DWIDTH 11 0
BBX 12 12 1 0
BITMAP
3CF0
0840
0880
1300
1400
1800
1400
1400
2200
2200
2100
F8C0
ENDCHAR
STARTCHAR L
ENCODING 76
SWIDTH 565 0
DWIDTH 9 0
BBX 9 12 1 0
BITMAP
3E00
0800
0800
1000
1000
1000
1000
1000
2000
2080
2100
FF00
ENDCHAR
STARTCHAR M
ENCODING 77
SWIDTH 920 0
DWIDTH 15 0
BBX 17 12 0 0
BITMAP
1C0380
0C0600
0C0A00
141200
121400
122400
122400
124800
228800
210800
210800
F13C00
ENDCHAR
STARTCHAR N
ENCODING 78
SWIDTH 763 0
DWIDTH 13 0
BBX 15 12 0 0
BITMAP
1C1E
0C08
0A08
0A08
1110
1110
1090
1090
2090
2060
2040
F020
ENDCHAR
STARTCHAR O
ENCODING 79
SWIDTH 753 0
DWIDTH 13 0
BBX 11 12 2 0
BITMAP
0F80
1040
2020
4020
4020
8020
8020
8040
8040
8080
6100
1E00
ENDCHAR
STARTCHAR P
ENCODING 80
SWIDTH 614 0
DWIDTH 10 0
BBX 10 12 1 0
BITMAP
1F00
0880
0840
0840
0840
0840
1180
1E00
1000
2000
2000
F800
ENDCHAR
STARTCHAR Q
ENCODING 81
SWIDTH 753 0
DWIDTH 13 0
BBX 11 16 2 -4
BITMAP
0F80
1040
2020
4020
4020
8020
8020
8040
8040
8040
4180
3E00
0400
0600
0300
00C0
ENDCHAR
STARTCHAR R
ENCODING 82
SWIDTH 640 0
DWIDTH 11 0
BBX 10 12 1 0
BITMAP
3F00
08C0
0840
0840
1040
1180
1E00
2100
2100
2100
2100
F0C0
ENDCHAR
STARTCHAR S
ENCODING 83
SWIDTH 533 0
DWIDTH 9 0
BBX 9 12 1 0
BITMAP
0E00
1180
2100
2000
1000
0C00
0600
0100
8100
8100
4200
3C00
ENDCHAR
STARTCHAR T
ENCODING 84
SWIDTH 606 0
DWIDTH 10 0
BBX 11 12 2 0
BITMAP
7FE0
8440
8840
0800
0800
0800
1000
1000
1000
1000
1000
FC00
ENDCHAR
STARTCHAR U
ENCODING 85
SWIDTH 794 0
DWIDTH 13 0
BBX 12 12 3 0
BITMAP
F1F0
4040
4040
4080
4080
8080
8080
8100
8100
8200
4600
3800
ENDCHAR
STARTCHAR V
ENCODING 86
SWIDTH 637 0
DWIDTH 11 0
BBX 11 12 2 0
BITMAP
F1E0
4080
6080
2100
2100
2200
2200
2400
2800
3800
3000
2000
ENDCHAR
STARTCHAR W
ENCODING 87
SWIDTH 946 0
DWIDTH 16 0
BBX 16 12 2 0
BITMAP
F00F
2082
6184
6284
2288
2288
2490
2490
28A0
28A0
30C0
2080
ENDCHAR
STARTCHAR X
ENCODING 88
SWIDTH 632 0
DWIDTH 11 0
BBX 13 12 0 0
BITMAP
1E78
0420
0440
0480
0300
0200
0200
0500
0900
1080
2080
F1E0
ENDCHAR
STARTCHAR Y
ENCODING 89
SWIDTH 591 0
DWIDTH 10 0
BBX 10 12 3 0
BITMAP
E3C0
4100
4200
2200
2400
2800
1000
2000
2000
2000
2000
F800
ENDCHAR
STARTCHAR Z
ENCODING 90
SWIDTH 622 0
DWIDTH 10 0
BBX 12 12 0 0
BITMAP
0FF0
1020
1040
0080
0100
0200
0600
0800
1000
2040
4040
FF80
ENDCHAR
STARTCHAR bracketleft
ENCODING 91
SWIDTH 330 0
DWIDTH 5 0
BBX 6 14 2 -2
BITMAP
0C
10
10
10
20
20
20
20
40
40
40
40
40
E0
ENDCHAR
STARTCHAR backslash
ENCODING 92
SWIDTH 390 0
DWIDTH 6 0
BBX 5 12 2 0
BITMAP
80
40
40
40
20
20
20
20
10
10
10
08
ENDCHAR
STARTCHAR bracketright
ENCODING 93
SWIDTH 330 0
DWIDTH 5 0
BBX 6 14 0 -2
BITMAP
1C
08
08
08
08
08
10
10
10
10
20
20
20
C0
ENDCHAR
STARTCHAR asciicircum
ENCODING 94
SWIDTH 570 0
DWIDTH 9 0
BBX 8 7 2 4
BITMAP
08
18
24
24
42
42
C3
ENDCHAR
STARTCHAR underscore
ENCODING 95
SWIDTH 500 0
DWIDTH 8 0
BBX 8 1 0 -2
BITMAP
FF
ENDCHAR
STARTCHAR grave
ENCODING 96
SWIDTH 400 0
DWIDTH 7 0
BBX 4 3 3 9
BITMAP
80
40
30
ENDCHAR
STARTCHAR a
ENCODING 97
SWIDTH 561 0
DWIDTH 9 0
BBX 9 8 1 0
BITMAP
0F80
1100
2100
4100
8200
8600
9A80
6300
ENDCHAR
STARTCHAR b
ENCODING 98
SWIDTH 559 0
DWIDTH 9 0
BBX 8 12 2 0
BITMAP
18
70
10
20
26
29
31
21
42
42
44
B8
ENDCHAR
STARTCHAR c
ENCODING 99
SWIDTH 441 0
DWIDTH 7 0
BBX 6 8 2 0
BITMAP
18
24
44
80
80
84
88
70
ENDCHAR
STARTCHAR d
ENCODING 100
SWIDTH 587 0
DWIDTH 10 0
BBX 9 12 2 0
BITMAP
0180
0300
0100
0100
1E00
2200
4200
4200
8400
8C00
9500
6600
ENDCHAR
STARTCHAR e
ENCODING 101
SWIDTH 453 0
DWIDTH 8 0
BBX 6 8 2 0
BITMAP
18
24
44
98
60
84
88
70
ENDCHAR
STARTCHAR f
ENCODING 102
SWIDTH 315 0
DWIDTH 5 0
BBX 10 16 -1 -4
BITMAP
0180
0240
0400
0400
1F00
0400
0800
0800
0800
0800
0800
1000
1000
1000
A000
4000
ENDCHAR
STARTCHAR g
ENCODING 103
SWIDTH 499 0
DWIDTH 8 0
BBX 9 12 1 -4
BITMAP
1D80
2200
4200
4400
3800
4000
3000
4C00
8200
8200
4400
3800
ENDCHAR
STARTCHAR h
ENCODING 104
SWIDTH 607 0
DWIDTH 10 0
BBX 8 12 2 0
BITMAP
18
70
10
10
22
2D
31
32
64
45
45
C6
ENDCHAR
STARTCHAR i
ENCODING 105
SWIDTH 317 0
DWIDTH 5 0
BBX 4 12 2 0
BITMAP
10
20
00
00
A0
40
40
40
80
A0
A0
C0
ENDCHAR
STARTCHAR j
ENCODING 106
SWIDTH 309 0
DWIDTH 5 0
BBX 7 16 -1 -4
BITMAP
06
04
00
00
1C
04
04
08
08
08
08
10
10
10
A0
40
ENDCHAR
STARTCHAR k
ENCODING 107
SWIDTH 545 0
DWIDTH 9 0
BBX 8 12 2 0
BITMAP
10
70
10
20
27
28
28
48
50
49
4A
84
ENDCHAR
STARTCHAR l
ENCODING 108
SWIDTH 306 0
DWIDTH 5 0
BBX 4 12 2 0
BITMAP
30
60
20
20
40
40
40
40
80
A0
A0
C0
ENDCHAR
STARTCHAR m
ENCODING 109
SWIDTH 912 0
DWIDTH 15 0
BBX 13 8 2 0
BITMAP
4230
2D48
2988
3110
2220
4228
4228
C630
ENDCHAR
STARTCHAR n
ENCODING 110
SWIDTH 618 0
DWIDTH 10 0
BBX 8 8 2 0
BITMAP
42
2D
29
32
24
45
45
C6
ENDCHAR
STARTCHAR o
ENCODING 111
SWIDTH 537 0
DWIDTH 9 0
BBX 7 8 2 0
BITMAP
1C
22
42
82
82
84
8C
70
ENDCHAR
STARTCHAR p
ENCODING 112
SWIDTH 590 0
DWIDTH 10 0
BBX 9 12 1 -4
BITMAP
7300
1480
1880
1080
2100
2100
2200
5C00
4000
4000
4000
C000
ENDCHAR
STARTCHAR q
ENCODING 113
SWIDTH 559 0
DWIDTH 9 0
BBX 8 12 2 -4
BITMAP
1D
22
42
42
84
8C
B4
44
04
08
08
08
ENDCHAR
STARTCHAR r
ENCODING 114
SWIDTH 402 0
DWIDTH 7 0
BBX 6 8 2 0
BITMAP
8C
50
60
40
40
40
80
80
ENDCHAR
STARTCHAR s
ENCODING 115
SWIDTH 389 0
DWIDTH 6 0
BBX 6 8 1 0
BITMAP
38
44
40
20
10
88
88
70
ENDCHAR
STARTCHAR t
ENCODING 116
SWIDTH 341 0
DWIDTH 6 0
BBX 5 10 2 0
BITMAP
20
20
F8
40
40
40
80
A0
A0
C0
ENDCHAR
STARTCHAR u
ENCODING 117
SWIDTH 618 0
DWIDTH 10 0
BBX 8 8 2 0
BITMAP
A1
42
42
42
84
8D
95
66
ENDCHAR
STARTCHAR v
ENCODING 118
SWIDTH 510 0
DWIDTH 8 0
BBX 7 8 2 0
BITMAP
C2
42
42
42
84
88
90
60
ENDCHAR
STARTCHAR w
ENCODING 119
SWIDTH 785 0
DWIDTH 13 0
BBX 12 8 2 0
BITMAP
C310
4210
4210
4410
8420
8C40
B480
4300
ENDCHAR
STARTCHAR x
ENCODING 120
SWIDTH 516 0
DWIDTH 9 0
BBX 8 8 1 0
BITMAP
63
14
18
10
18
29
2A
C4
ENDCHAR
STARTCHAR y
ENCODING 121
SWIDTH 468 0
DWIDTH 8 0
BBX 9 12 0 -4
BITMAP
3080
0880
0880
0900
0900
0A00
0A00
0C00
0800
0800
5000
E000
ENDCHAR
STARTCHAR z
ENCODING 122
SWIDTH 468 0
DWIDTH 8 0
BBX 8 8 1 0
BITMAP
3F
42
04
08
10
21
62
9C
ENDCHAR
STARTCHAR braceleft
ENCODING 123
SWIDTH 340 0
DWIDTH 6 0
BBX 5 14 2 -2
BITMAP
08
10
20
20
20
20
C0
20
20
20
40
80
80
40
ENDCHAR
STARTCHAR bar
ENCODING 124
SWIDTH 270 0
DWIDTH 4 0
BBX 1 12 3 0
BITMAP
80
80
80
80
80
80
80
80
80
80
80
80
ENDCHAR
STARTCHAR braceright
ENCODING 125
SWIDTH 340 0
DWIDTH 6 0
BBX 6 14 0 -2
BITMAP
08
04
04
08
10
10
08
10
20
20
20
20
40
80
ENDCHAR
STARTCHAR asciitilde
ENCODING 126
SWIDTH 570 0
DWIDTH 9 0
BBX 7 2 2 3
BITMAP
72
8C
ENDCHAR
STARTCHAR space
ENCODING 160
SWIDTH 225 0
DWIDTH 4 0
BBX 0 0 0 0
BITMAP
ENDCHAR
STARTCHAR Aogonek
ENCODING 161
SWIDTH 624 0
DWIDTH 10 0
BBX 11 16 0 -4
BITMAP
0080
0180
0280
0480
0480
0880
0F80
1080
1080
20C0
2080
F1E0
0200
0400
0400
0300
ENDCHAR
STARTCHAR kgreenlandic
ENCODING 162
SWIDTH 545 0
DWIDTH 9 0
BBX 8 8 2 0
BITMAP
27
28
28
48
50
49
4A
84
ENDCHAR
STARTCHAR Rcommaaccent
ENCODING 163
SWIDTH 640 0
DWIDTH 11 0
BBX 10 18 1 -6
BITMAP
3F00
08C0
0840
0840
1040
1180
1E00
2100
2100
2100
2100
F0C0
0000
0800
0800
0800
1000
1000
ENDCHAR
STARTCHAR currency
ENCODING 164
SWIDTH 530 0
DWIDTH 9 0
BBX 7 7 2 2
BITMAP
9A
64
82
82
82
64
BA
ENDCHAR
STARTCHAR Itilde
ENCODING 165
SWIDTH 345 0
DWIDTH 6 0
BBX 7 15 1 0
BITMAP
32
4C
00
3E
08
08
08
10
10
10
10
20
20
20
F8
ENDCHAR
STARTCHAR Lcommaaccent
ENCODING 166
SWIDTH 565 0
DWIDTH 9 0
BBX 9 18 1 -6
BITMAP
3E00
0800
0800
1000
1000
1000
1000
1000
2000
2080
2100
FF00
0000
0800
0800
0800
1000
1000
ENDCHAR
STARTCHAR section
ENCODING 167
SWIDTH 530 0
DWIDTH 9 0
BBX 7 14 2 -2
BITMAP
0C
12
20
60
98
84
84
42
22
16
08
88
98
60
ENDCHAR
STARTCHAR dieresis
ENCODING 168
SWIDTH 400 0
DWIDTH 7 0
BBX 5 1 4 10
BITMAP
D8
ENDCHAR
STARTCHAR Scaron
ENCODING 169
SWIDTH 533 0
DWIDTH 9 0
BBX 9 15 1 0
BITMAP
1000
0F80
0000
0E00
1180
2100
2000
1000
0C00
0600
0100
8100
8100
4200
3C00
ENDCHAR
STARTCHAR Emacron
ENCODING 170
SWIDTH 596 0
DWIDTH 10 0
BBX 11 14 1 0
BITMAP
0F80
0000
1FE0
0840
0840
0800
0800
0880
1F00
1100
2000
2080
2080
FF00
ENDCHAR
STARTCHAR Gcommaaccent
ENCODING 171
SWIDTH 709 0
DWIDTH 12 0
BBX 11 18 2 -6
BITMAP
0F80
1060
2040
4040
4000
8000
8000
83E0
8080
8080
6180
1E00
0000
0400
0400
0400
0800
0800
ENDCHAR
STARTCHAR Tbar
ENCODING 172
SWIDTH 606 0
DWIDTH 10 0
BBX 11 12 2 0
BITMAP
7FE0
8440
8840
0800
0800
3F80
1000
1000
1000
1000
1000
FC00
ENDCHAR
STARTCHAR hyphen
ENCODING 173
SWIDTH 392 0
DWIDTH 7 0
BBX 4 1 2 4
BITMAP
F0
ENDCHAR
STARTCHAR Zcaron
ENCODING 174
SWIDTH 622 0
DWIDTH 10 0
BBX 12 14 0 0
BITMAP
03E0
0000
0FF0
1020
1040
0080
0100
0200
0600
0800
1000
2040
4040
FF80
ENDCHAR
STARTCHAR macron
ENCODING 175
SWIDTH 400 0
DWIDTH 7 0
BBX 5 1 4 10
BITMAP
F8
ENDCHAR
STARTCHAR degree
ENCODING 176
SWIDTH 400 0
DWIDTH 7 0
BBX 5 4 3 7
BITMAP
70
88
88
70
ENDCHAR
STARTCHAR aogonek
ENCODING 177
SWIDTH 561 0
DWIDTH 9 0
BBX 9 12 1 -4
BITMAP
0F80
1100
2100
4100
8200
8600
9A80
6300
0800
1000
1000
0C00
ENDCHAR
STARTCHAR ogonek
ENCODING 178
SWIDTH 350 0
DWIDTH 6 0
BBX 3 4 2 -4
BITMAP
40
80
80
60
ENDCHAR
STARTCHAR rcommaaccent
ENCODING 179
SWIDTH 402 0
DWIDTH 7 0
BBX 6 14 2 -6
BITMAP
8C
50
60
40
40
40
80
80
00
40
40
40
80
80
ENDCHAR
STARTCHAR acute
ENCODING 180
SWIDTH 400 0
DWIDTH 7 0
BBX 4 3 4 9
BITMAP
10
20
C0
ENDCHAR
STARTCHAR itilde
ENCODING 181
SWIDTH 317 0
DWIDTH 5 0
BBX 6 11 1 0
BITMAP
64
98
00
50
20
20
20
40
50
50
60
ENDCHAR
STARTCHAR lcommaaccent
ENCODING 182
SWIDTH 306 0
DWIDTH 5 0
BBX 4 18 2 -6
BITMAP
30
60
20
20
40
40
40
40
80
A0
A0
C0
00
40
40
40
80
80
ENDCHAR
STARTCHAR caron
ENCODING 183
SWIDTH 400 0
DWIDTH 7 0
BBX 5 3 4 9
BITMAP
88
50
20
ENDCHAR
STARTCHAR cedilla
ENCODING 184
SWIDTH 400 0
DWIDTH 7 0
BBX 3 4 2 -4
BITMAP
40
40
20
C0
ENDCHAR
STARTCHAR scaron
ENCODING 185
SWIDTH 389 0
DWIDTH 6 0
BBX 7 12 1 0
BITMAP
02
34
08
00
38
44
40
20
10
88
88
70
ENDCHAR
STARTCHAR emacron
ENCODING 186
SWIDTH 453 0
DWIDTH 8 0
BBX 6 10 2 0
BITMAP
7C
00
18
24
44
98
60
84
88
70
ENDCHAR
STARTCHAR gcommaaccent
ENCODING 187
SWIDTH 499 0
DWIDTH 8 0
BBX 9 17 1 -4
BITMAP
0400
0800
1800
0800
0000
1D80
2200
4200
4400
3800
4000
3000
4C00
8200
8200
4400
3800
ENDCHAR
STARTCHAR tbar
ENCODING 188
SWIDTH 341 0
DWIDTH 6 0
BBX 7 10 1 0
BITMAP
10
10
7C
20
20
FE
40
50
50
60
ENDCHAR
STARTCHAR Eng
ENCODING 189
SWIDTH 763 0
DWIDTH 13 0
BBX 15 16 0 -4
BITMAP
1C1E
0C08
0A08
0A08
1110
1110
1090
1090
2090
2070
2050
F020
0020
0020
0140
0080
ENDCHAR
STARTCHAR zcaron
ENCODING 190
SWIDTH 468 0
DWIDTH 8 0
BBX 8 12 1 0
BITMAP
01
12
0C
00
3F
42
04
08
10
21
62
9C
ENDCHAR
STARTCHAR eng
ENCODING 191
SWIDTH 618 0
DWIDTH 10 0
BBX 8 12 2 -4
BITMAP
42
2D
29
32
24
44
44
C8
08
08
50
20
ENDCHAR
STARTCHAR Amacron
ENCODING 192
SWIDTH 624 0
DWIDTH 10 0
BBX 11 14 0 0
BITMAP
0F80
0000
0080
0180
0280
0480
0480
0880
0F80
1080
1080
20C0
2080
F1E0
ENDCHAR
STARTCHAR Aacute
ENCODING 193
SWIDTH 624 0
DWIDTH 10 0
BBX 12 14 -1 0
BITMAP
0030
01C0
0000
0180
0280
0280
0480
0840
0FC0
1040
1040
2040
2040
F1F0
ENDCHAR
STARTCHAR Acircumflex
ENCODING 194
SWIDTH 624 0
DWIDTH 10 0
BBX 12 14 -1 0
BITMAP
01C0
0220
00A0
0180
0280
0280
0480
0840
0FC0
1040
1040
2040
2040
F1F0
ENDCHAR
STARTCHAR Atilde
ENCODING 195
SWIDTH 624 0
DWIDTH 10 0
BBX 11 14 0 0
BITMAP
0320
04C0
0000
0180
0280
0480
0480
0880
0F80
1080
1080
20C0
2080
F1E0
ENDCHAR
STARTCHAR Adieresis
ENCODING 196
SWIDTH 624 0
DWIDTH 10 0
BBX 11 14 -1 0
BITMAP
0120
0000
00C0
00C0
0140
0240
0240
0440
07C0
0840
1040
2020
2040
F8E0
ENDCHAR
STARTCHAR Aring
ENCODING 197
SWIDTH 624 0
DWIDTH 10 0
BBX 12 15 -1 0
BITMAP
00C0
0120
0120
00C0
00C0
0140
0240
0440
0440
07C0
0840
1020
2020
2020
F0F0
ENDCHAR
STARTCHAR AE
ENCODING 198
SWIDTH 880 0
DWIDTH 15 0
BBX 18 12 -1 0
BITMAP
00FFC0
005080
009080
00A000
012000
022100
03FE00
044200
084000
104100
204100
F1FE00
ENDCHAR
STARTCHAR Iogonek
ENCODING 199
SWIDTH 345 0
DWIDTH 6 0
BBX 7 16 1 -4
BITMAP
3E
08
08
08
10
10
10
10
20
20
20
F8
10
20
20
18
ENDCHAR
STARTCHAR Ccaron
ENCODING 200
SWIDTH 661 0
DWIDTH 11 0
BBX 11 16 2 0
BITMAP
1100
0A00
0400
0000
0F00
30E0
4040
4040
4000
8000
8000
8000
8080
8100
4100
3E00
ENDCHAR
STARTCHAR Eacute
ENCODING 201
SWIDTH 596 0
DWIDTH 10 0
BBX 11 14 1 0
BITMAP
00C0
0300
1FE0
0840
0840
0800
0800
0880
1F00
1100
2000
2080
2080
FF00
ENDCHAR
STARTCHAR Eogonek
ENCODING 202
SWIDTH 596 0
DWIDTH 10 0
BBX 11 16 1 -4
BITMAP
1FE0
0840
0840
0800
0800
0880
1F00
1100
2000
2080
2080
FF00
0400
0800
0800
0600
ENDCHAR
STARTCHAR Edieresis
ENCODING 203
SWIDTH 596 0
DWIDTH 10 0
BBX 11 14 1 0
BITMAP
0880
0000
1FE0
0840
0840
0800
0800
0880
1F00
1100
2000
2080
2080
FF00
ENDCHAR
STARTCHAR Edotaccent
ENCODING 204
SWIDTH 596 0
DWIDTH 10 0
BBX 11 14 1 0
BITMAP
0200
0000
1FE0
0840
0840
0800
0800
0880
1F00
1100
2000
2080
2080
FF00
ENDCHAR
STARTCHAR Iacute
ENCODING 205
SWIDTH 345 0
DWIDTH 6 0
BBX 7 14 1 0
BITMAP
06
18
3E
08
08
10
10
10
10
20
20
20
20
F0
ENDCHAR
STARTCHAR Icircumflex
ENCODING 206
SWIDTH 345 0
DWIDTH 6 0
BBX 7 14 1 0
BITMAP
08
16
3E
08
08
10
10
10
10
20
20
20
20
F0
ENDCHAR
STARTCHAR Imacron
ENCODING 207
SWIDTH 345 0
DWIDTH 6 0
BBX 7 14 1 0
BITMAP
3E
00
3E
08
08
08
10
10
10
10
20
20
20
F8
ENDCHAR
STARTCHAR Dcroat
ENCODING 208
SWIDTH 770 0
DWIDTH 13 0
BBX 12 12 1 0
BITMAP
1F80
0860
0820
0810
0810
1010
7E10
1010
1020
2020
20C0
FF00
ENDCHAR
STARTCHAR Ncommaaccent
ENCODING 209
SWIDTH 763 0
DWIDTH 13 0
BBX 15 18 0 -6
BITMAP
1C1E
0C08
0A08
0A08
1110
1110
1090
1090
2090
2060
2040
F020
0000
0200
0200
0200
0400
0400
ENDCHAR
STARTCHAR Omacron
ENCODING 210
SWIDTH 753 0
DWIDTH 13 0
BBX 11 14 2 0
BITMAP
0F80
0000
0F80
1040
2020
4020
4020
8020
8020
8040
8040
8080
6100
1E00
ENDCHAR
STARTCHAR Kcommaaccent
ENCODING 211
SWIDTH 650 0
DWIDTH 11 0
BBX 12 18 1 -6
BITMAP
3CF0
0840
0880
1300
1400
1800
1400
1400
2200
2200
2100
F8C0
0000
0400
0400
0400
0800
0800
ENDCHAR
STARTCHAR Ocircumflex
ENCODING 212
SWIDTH 753 0
DWIDTH 13 0
BBX 11 14 2 0
BITMAP
0100
06C0
0F80
1040
2020
4020
4020
8020
8020
8040
8040
8080
6100
1E00
ENDCHAR
STARTCHAR Otilde
ENCODING 213
SWIDTH 753 0
DWIDTH 13 0
BBX 11 14 2 0
BITMAP
0FA0
0040
0F00
10C0
2020
4020
4020
8020
8020
8040
8040
8080
6100
1E00
ENDCHAR
STARTCHAR Odieresis
ENCODING 214
SWIDTH 753 0
DWIDTH 13 0
BBX 11 14 2 0
BITMAP
0480
0000
0F00
10C0
2020
4020
4020
8020
8020
8040
8040
8080
6100
1E00
ENDCHAR
STARTCHAR multiply
ENCODING 215
SWIDTH 570 0
DWIDTH 9 0
BBX 7 8 2 0
BITMAP
82
44
28
10
10
28
44
82
ENDCHAR
STARTCHAR Oslash
ENCODING 216
SWIDTH 753 0
DWIDTH 13 0
BBX 11 12 2 0
BITMAP
0FA0
1040
20A0
4120
4220
8420
8820
9040
A040
C080
4100
BE00
ENDCHAR
STARTCHAR Uogonek
ENCODING 217
SWIDTH 794 0
DWIDTH 13 0
BBX 12 16 3 -4
BITMAP
F1F0
4040
4040
4080
4080
8080
8080
8100
8100
8200
4600
3800
0800
1000
1000
0C00
ENDCHAR
STARTCHAR Uacute
ENCODING 218
SWIDTH 794 0
DWIDTH 13 0
BBX 12 14 3 0
BITMAP
0380
0400
F1F0
4040
4040
4080
4080
8080
8080
8100
8100
8200
4600
3800
ENDCHAR
STARTCHAR Ucircumflex
ENCODING 219
SWIDTH 794 0
DWIDTH 13 0
BBX 12 14 3 0
BITMAP
0200
0D80
F9F0
4040
4040
4080
4080
8080
8080
8100
8100
8200
4600
3800
ENDCHAR
STARTCHAR Udieresis
ENCODING 220
SWIDTH 794 0
DWIDTH 13 0
BBX 12 14 3 0
BITMAP
0880
0000
F0F0
4040
4040
4040
4080
4080
8080
8080
8080
8100
4200
3C00
ENDCHAR
STARTCHAR Utilde
ENCODING 221
SWIDTH 794 0
DWIDTH 13 0
BBX 12 15 3 0
BITMAP
0C80
1300
0000
F1F0
4040
4040
4080
4080
8080
8080
8100
8100
8200
4600
3800
ENDCHAR
STARTCHAR Umacron
ENCODING 222
SWIDTH 794 0
DWIDTH 13 0
BBX 12 14 3 0
BITMAP
1F00
0000
F1F0
4040
4040
4080
4080
8080
8080
8100
8100
8200
4600
3800
ENDCHAR
STARTCHAR germandbls
ENCODING 223
SWIDTH 577 0
DWIDTH 10 0
BBX 12 16 -1 -4
BITMAP
00E0
0310
0210
0420
1860
0980
0900
0880
08C0
1020
1220
11C0
1000
2000
A000
4000
ENDCHAR
STARTCHAR amacron
ENCODING 224
SWIDTH 561 0
DWIDTH 9 0
BBX 9 10 1 0
BITMAP
1F00
0000
0F80
1100
2100
4100
8200
8600
9A80
6300
ENDCHAR
STARTCHAR aacute
ENCODING 225
SWIDTH 561 0
DWIDTH 9 0
BBX 9 12 1 0
BITMAP
0080
0100
0200
0000
0F80
1100
2100
4100
8200
8600
9A80
6300
ENDCHAR
STARTCHAR acircumflex
ENCODING 226
SWIDTH 561 0
DWIDTH 9 0
BBX 9 12 1 0
BITMAP
0200
0500
0880
0000
0F80
1100
2100
4100
8200
8600
9A80
6300
ENDCHAR
STARTCHAR atilde
ENCODING 227
SWIDTH 561 0
DWIDTH 9 0
BBX 9 12 1 0
BITMAP
0080
0F00
1000
0000
0F80
1100
2100
4100
8200
8600
9A80
6300
ENDCHAR
STARTCHAR adieresis
ENCODING 228
SWIDTH 561 0
DWIDTH 9 0
BBX 9 11 1 0
BITMAP
0900
0000
0000
0F00
1100
2100
4200
8200
8600
9A80
6300
ENDCHAR
STARTCHAR aring
ENCODING 229
SWIDTH 561 0
DWIDTH 9 0
BBX 9 13 1 0
BITMAP
0600
0900
0900
0600
0000
0F80
1100
2100
4100
8200
8600
9A80
6300
ENDCHAR
STARTCHAR ae
ENCODING 230
SWIDTH 779 0
DWIDTH 13 0
BBX 13 8 1 0
BITMAP
0F30
31C8
4188
4110
86E0
8A08
9210
61E0
ENDCHAR
STARTCHAR iogonek
ENCODING 231
SWIDTH 317 0
DWIDTH 5 0
BBX 4 16 2 -4
BITMAP
10
20
00
00
A0
40
40
40
80
A0
A0
C0
40
80
80
60
ENDCHAR
STARTCHAR ccaron
ENCODING 232
SWIDTH 441 0
DWIDTH 7 0
BBX 6 12 2 0
BITMAP
44
28
10
00
18
24
44
80
80
84
88
70
ENDCHAR
STARTCHAR eacute
ENCODING 233
SWIDTH 453 0
DWIDTH 8 0
BBX 6 12 2 0
BITMAP
04
04
18
00
18
24
44
98
60
84
88
70
ENDCHAR
STARTCHAR eogonek
ENCODING 234
SWIDTH 453 0
DWIDTH 8 0
BBX 6 12 2 -4
BITMAP
18
24
44
98
60
84
88
70
10
20
20
18
ENDCHAR
STARTCHAR edieresis
ENCODING 235
SWIDTH 453 0
DWIDTH 8 0
BBX 6 11 2 0
BITMAP
24
00
00
18
24
44
98
60
84
88
70
ENDCHAR
STARTCHAR edotaccent
ENCODING 236
SWIDTH 453 0
DWIDTH 8 0
BBX 6 10 2 0
BITMAP
10
00
18
24
44
98
60
84
88
70
ENDCHAR
STARTCHAR iacute
ENCODING 237
SWIDTH 317 0
DWIDTH 5 0
BBX 4 12 2 0
BITMAP
10
10
60
00
A0
40
40
40
80
A0
A0
C0
ENDCHAR
STARTCHAR icircumflex
ENCODING 238
SWIDTH 317 0
DWIDTH 5 0
BBX 5 12 2 0
BITMAP
20
50
88
00
A0
40
40
40
80
A0
A0
C0
ENDCHAR
STARTCHAR imacron
ENCODING 239
SWIDTH 317 0
DWIDTH 5 0
BBX 5 10 1 0
BITMAP
F8
00
50
20
20
20
40
50
50
60
ENDCHAR
STARTCHAR dcroat
ENCODING 240
SWIDTH 587 0
DWIDTH 10 0
BBX 10 12 2 0
BITMAP
0180
0300
1FC0
0100
1E00
2200
4200
4200
8400
8C00
9500
6600
ENDCHAR
STARTCHAR ncommaaccent
ENCODING 241
SWIDTH 618 0
DWIDTH 10 0
BBX 8 14 2 -6
BITMAP
42
2D
29
32
24
45
45
C6
00
08
08
08
10
10
ENDCHAR
STARTCHAR omacron
ENCODING 242
SWIDTH 537 0
DWIDTH 9 0
BBX 7 10 2 0
BITMAP
3E
00
1C
22
42
82
82
84
8C
70
ENDCHAR
STARTCHAR kcommaaccent
ENCODING 243
SWIDTH 545 0
DWIDTH 9 0
BBX 8 18 2 -6
BITMAP
10
70
10
20
27
28
28
48
50
49
4A
84
00
10
10
10
20
20
ENDCHAR
STARTCHAR ocircumflex
ENCODING 244
SWIDTH 537 0
DWIDTH 9 0
BBX 7 12 2 0
BITMAP
04
1C
22
00
1C
22
42
82
82
84
8C
70
ENDCHAR
STARTCHAR otilde
ENCODING 245
SWIDTH 537 0
DWIDTH 9 0
BBX 7 12 2 0
BITMAP
02
1C
20
00
1C
22
42
82
82
84
8C
70
ENDCHAR
STARTCHAR odieresis
ENCODING 246
SWIDTH 537 0
DWIDTH 9 0
BBX 7 11 2 0
BITMAP
12
00
00
1C
22
42
82
82
84
CC
30
ENDCHAR
STARTCHAR divide
ENCODING 247
SWIDTH 570 0
DWIDTH 9 0
BBX 8 7 2 0
BITMAP
18
08
00
FF
00
18
08
ENDCHAR
STARTCHAR oslash
ENCODING 248
SWIDTH 537 0
DWIDTH 9 0
BBX 7 8 2 0
BITMAP
1E
22
4E
92
A2
C4
8C
F0
ENDCHAR
STARTCHAR uogonek
ENCODING 249
SWIDTH 618 0
DWIDTH 10 0
BBX 8 12 2 -4
BITMAP
A1
42
42
42
84
8D
95
66
08
10
10
0C
ENDCHAR
STARTCHAR uacute
ENCODING 250
SWIDTH 618 0
DWIDTH 10 0
BBX 8 12 2 0
BITMAP
02
02
0C
00
A1
42
42
42
84
8D
95
66
ENDCHAR
STARTCHAR ucircumflex
ENCODING 251
SWIDTH 618 0
DWIDTH 10 0
BBX 8 12 2 0
BITMAP
04
1C
22
00
A1
42
42
42
84
8D
95
66
ENDCHAR
STARTCHAR udieresis
ENCODING 252
SWIDTH 618 0
DWIDTH 10 0
BBX 8 11 2 0
BITMAP
11
00
00
A1
42
42
42
84
8D
95
66
ENDCHAR
STARTCHAR utilde
ENCODING 253
SWIDTH 618 0
DWIDTH 10 0
BBX 8 11 2 0
BITMAP
32
4C
00
A1
42
42
42
84
8D
95
66
ENDCHAR
STARTCHAR umacron
ENCODING 254
SWIDTH 618 0
DWIDTH 10 0
BBX 8 10 2 0
BITMAP
7C
00
A1
42
42
42
84
8D
95
66
ENDCHAR
STARTCHAR dotaccent
ENCODING 255
SWIDTH 402 0
DWIDTH 7 0
BBX 1 1 5 10
BITMAP
80
ENDCHAR
ENDFONT
