STARTFONT 2.1
COMMENT AUTOMATICALLY GENERATED FILE. DO NOT EDIT!
COMMENT Generated with 'ucs2any lubB19.bdf /usr/local/lib/X11/fonts/util/map-ISO8859-2 ISO8859-2'
COMMENT from an ISO10646-1 encoded source BDF font.
COMMENT ucs2any by Ben Collver <collver1@attbi.com>, 2003, based on
COMMENT ucs2any.pl by Markus Kuhn <http://www.cl.cam.ac.uk/~mgk25/>, 2000.
COMMENT $Xorg: $
COMMENT ISO10646-1 extension by Markus Kuhn <mkuhn@acm.org>, 2001-03-20
COMMENT  (c) Copyright Bigelow & Holmes 1986, 1985. Lucida is a registered
COMMENT  trademark of Bigelow & Holmes. See LEGAL NOTICE file for terms
COMMENT  of the license.
FONT -B&H-LucidaBright-DemiBold-R-Normal--26-190-100-100-P-155-ISO8859-2
SIZE 19 100 100
FONTBOUNDINGBOX 26 30 -1 -5
STARTPROPERTIES 22
COMMENT Begin LogicalFontDescription
FONTNAME_REGISTRY ""
FOUNDRY "B&H"
FAMILY_NAME "LucidaBright"
WEIGHT_NAME "DemiBold"
SLANT "R"
SETWIDTH_NAME "Normal"
ADD_STYLE_NAME ""
PIXEL_SIZE 26
POINT_SIZE 190
RESOLUTION_X 100
RESOLUTION_Y 100
SPACING "P"
AVERAGE_WIDTH 155
CHARSET_REGISTRY "ISO8859"
CHARSET_ENCODING "2"
COMMENT END LogicalFontDescription
COPYRIGHT "Copyright Bigelow & Holmes 1986, 1985."
FONT_ASCENT 24
FONT_DESCENT 6
DEFAULT_CHAR 0
FACE_NAME "Lucida Bright Demibold"
X_HEIGHT 14
CAP_HEIGHT 19
ENDPROPERTIES
CHARS 192
STARTCHAR defaultchar
ENCODING 0
SWIDTH 798 0
DWIDTH 21 0
BBX 19 19 0 0
BITMAP
AAAAA0
000000
800020
000000
800020
000000
800020
000000
800020
000000
800020
000000
800020
000000
800020
000000
800020
000000
AAAAA0
ENDCHAR
STARTCHAR space
ENCODING 32
SWIDTH 333 0
DWIDTH 8 0
BBX 1 1 0 0
BITMAP
00
ENDCHAR
STARTCHAR exclam
ENCODING 33
SWIDTH 265 0
DWIDTH 7 0
BBX 4 19 1 0
BITMAP
F0
F0
F0
F0
F0
F0
E0
E0
E0
60
60
40
40
40
00
F0
F0
F0
F0
ENDCHAR
STARTCHAR quotedbl
ENCODING 34
SWIDTH 461 0
DWIDTH 12 0
BBX 9 8 2 12
BITMAP
F780
F780
E380
E380
6300
6300
4100
4100
ENDCHAR
STARTCHAR numbersign
ENCODING 35
SWIDTH 663 0
DWIDTH 17 0
BBX 16 19 1 0
BITMAP
018C
030C
0318
0318
0718
7FFF
7FFF
0630
0630
0C70
0C60
FFFE
FFFE
1860
18C0
18C0
18C0
30C0
3180
ENDCHAR
STARTCHAR dollar
ENCODING 36
SWIDTH 623 0
DWIDTH 16 0
BBX 12 23 2 -3
BITMAP
0400
1FE0
3CE0
7C60
7C60
7C00
7C00
7C00
3C00
1E00
0F80
07C0
07E0
05F0
04F0
04F0
C4F0
C4E0
E5E0
FF80
0600
0400
0400
ENDCHAR
STARTCHAR percent
ENCODING 37
SWIDTH 759 0
DWIDTH 20 0
BBX 19 19 0 0
BITMAP
3E00E0
6301C0
E38380
E38700
E38600
E38C00
E39800
633800
3E7000
00EF80
01D8C0
0198C0
0338E0
0638E0
0E38E0
1C38E0
3818C0
7018C0
E00F80
ENDCHAR
STARTCHAR ampersand
ENCODING 38
SWIDTH 765 0
DWIDTH 20 0
BBX 18 19 1 0
BITMAP
07E000
0E7000
1E7800
1E7800
1E7800
1E7000
0FE000
078000
1B0FC0
338380
71C300
F1E300
F0E300
F0F600
F07C00
787C00
7C7E00
3FEF80
0F8F80
ENDCHAR
STARTCHAR quotesingle
ENCODING 39
SWIDTH 253 0
DWIDTH 7 0
BBX 3 8 2 12
BITMAP
E0
E0
E0
E0
40
40
40
40
ENDCHAR
STARTCHAR parenleft
ENCODING 40
SWIDTH 327 0
DWIDTH 8 0
BBX 7 24 1 -4
BITMAP
02
06
0C
18
38
38
70
70
F0
F0
F0
F0
F0
F0
F0
F0
70
70
38
38
18
0C
06
02
ENDCHAR
STARTCHAR parenright
ENCODING 41
SWIDTH 327 0
DWIDTH 8 0
BBX 7 24 1 -4
BITMAP
80
C0
60
30
38
38
1C
1C
1E
1E
1E
1E
1E
1E
1E
1E
1C
1C
38
38
30
60
C0
80
ENDCHAR
STARTCHAR asterisk
ENCODING 42
SWIDTH 434 0
DWIDTH 11 0
BBX 10 10 1 9
BITMAP
0C00
0C00
4C80
EDC0
F3C0
0000
1E00
3300
7380
1200
ENDCHAR
STARTCHAR plus
ENCODING 43
SWIDTH 623 0
DWIDTH 16 0
BBX 16 16 0 0
BITMAP
0180
0180
0180
0180
0180
0180
0180
FFFF
FFFF
0180
0180
0180
0180
0180
0180
0180
ENDCHAR
STARTCHAR comma
ENCODING 44
SWIDTH 265 0
DWIDTH 7 0
BBX 4 9 1 -4
BITMAP
F0
F0
F0
F0
F0
70
70
60
C0
ENDCHAR
STARTCHAR hyphen
ENCODING 45
SWIDTH 289 0
DWIDTH 8 0
BBX 6 3 1 7
BITMAP
FC
FC
FC
ENDCHAR
STARTCHAR period
ENCODING 46
SWIDTH 265 0
DWIDTH 7 0
BBX 4 4 1 0
BITMAP
F0
F0
F0
F0
ENDCHAR
STARTCHAR slash
ENCODING 47
SWIDTH 527 0
DWIDTH 14 0
BBX 14 24 0 -4
BITMAP
000C
0018
0018
0030
0030
0060
0060
00C0
00C0
0180
0180
0300
0300
0600
0600
0C00
0C00
1800
1800
3000
3000
6000
6000
C000
ENDCHAR
STARTCHAR zero
ENCODING 48
SWIDTH 623 0
DWIDTH 16 0
BBX 15 19 1 0
BITMAP
07C0
1C70
3838
3838
783C
701C
F01E
F01E
F01E
F01E
F01E
F01E
F01E
701C
783C
3838
3838
1C70
07C0
ENDCHAR
STARTCHAR one
ENCODING 49
SWIDTH 623 0
DWIDTH 16 0
BBX 10 19 3 0
BITMAP
FE00
1E00
1E00
1E00
1E00
1E00
1E00
1E00
1E00
1E00
1E00
1E00
1E00
1E00
1E00
1E00
1E00
3F00
FFC0
ENDCHAR
STARTCHAR two
ENCODING 50
SWIDTH 623 0
DWIDTH 16 0
BBX 13 19 1 0
BITMAP
3F80
E1E0
C0F0
C078
0078
0078
0078
0070
00E0
0180
0300
0400
0800
1000
3000
7FF8
7FF8
FFF8
FFF8
ENDCHAR
STARTCHAR three
ENCODING 51
SWIDTH 623 0
DWIDTH 16 0
BBX 12 19 2 0
BITMAP
7F00
E3C0
C1E0
C1E0
01E0
01E0
01C0
0380
3F00
0380
01E0
00E0
00F0
00F0
00F0
C0F0
C1E0
E3C0
FF00
ENDCHAR
STARTCHAR four
ENCODING 52
SWIDTH 623 0
DWIDTH 16 0
BBX 15 19 0 0
BITMAP
0038
0078
00F8
0178
0278
0678
0C78
0878
1078
2078
4078
FFFE
FFFE
FFFE
0078
0078
0078
0078
01FE
ENDCHAR
STARTCHAR five
ENCODING 53
SWIDTH 623 0
DWIDTH 16 0
BBX 11 19 3 0
BITMAP
FFE0
FFE0
FFE0
8000
8000
8000
8000
8000
FE00
0F80
03C0
03E0
01E0
01E0
01E0
C1E0
C3C0
E380
FE00
ENDCHAR
STARTCHAR six
ENCODING 54
SWIDTH 623 0
DWIDTH 16 0
BBX 14 19 1 0
BITMAP
07F0
1E38
3C18
3818
7800
7000
F000
F3E0
F7F0
F8F8
F07C
F03C
F03C
F03C
703C
7038
3878
1C70
0FC0
ENDCHAR
STARTCHAR seven
ENCODING 55
SWIDTH 623 0
DWIDTH 16 0
BBX 13 19 3 0
BITMAP
FFF8
FFF8
FFF8
FFF0
0030
0060
0040
0080
0180
0300
0700
0600
0E00
1C00
3C00
3800
3800
7800
7800
ENDCHAR
STARTCHAR eight
ENCODING 56
SWIDTH 623 0
DWIDTH 16 0
BBX 14 19 1 0
BITMAP
0FC0
3CF0
3878
7878
7878
7878
7C70
3FE0
0F80
0FE0
39F8
70F8
F07C
F03C
F03C
F03C
7878
3C70
1FC0
ENDCHAR
STARTCHAR nine
ENCODING 57
SWIDTH 623 0
DWIDTH 16 0
BBX 14 19 1 0
BITMAP
0FC0
38E0
7870
7038
F038
F03C
F03C
F03C
F83C
7C7C
3FBC
1F3C
003C
0038
0078
6070
60F0
71E0
3F80
ENDCHAR
STARTCHAR colon
ENCODING 58
SWIDTH 265 0
DWIDTH 7 0
BBX 4 14 1 0
BITMAP
F0
F0
F0
F0
00
00
00
00
00
00
F0
F0
F0
F0
ENDCHAR
STARTCHAR semicolon
ENCODING 59
SWIDTH 265 0
DWIDTH 7 0
BBX 4 18 1 -4
BITMAP
F0
F0
F0
F0
00
00
00
00
00
00
F0
F0
F0
F0
70
70
60
C0
ENDCHAR
STARTCHAR less
ENCODING 60
SWIDTH 623 0
DWIDTH 16 0
BBX 15 16 1 0
BITMAP
0002
000E
003E
00F8
01E0
0780
1E00
F800
7800
1E00
0780
01E0
00F8
003E
000E
0002
ENDCHAR
STARTCHAR equal
ENCODING 61
SWIDTH 623 0
DWIDTH 16 0
BBX 15 7 1 4
BITMAP
FFFE
FFFE
0000
0000
0000
FFFE
FFFE
ENDCHAR
STARTCHAR greater
ENCODING 62
SWIDTH 623 0
DWIDTH 16 0
BBX 15 16 1 0
BITMAP
8000
E000
F800
3E00
0F00
03C0
00F0
003C
003E
00F0
03C0
0F00
3E00
F800
E000
8000
ENDCHAR
STARTCHAR question
ENCODING 63
SWIDTH 505 0
DWIDTH 13 0
BBX 12 19 1 0
BITMAP
7F80
E3E0
C1F0
C0F0
00F0
00F0
00E0
01C0
0380
0700
0E00
1E00
1E00
1E00
0000
1E00
1E00
1E00
1E00
ENDCHAR
STARTCHAR at
ENCODING 64
SWIDTH 861 0
DWIDTH 22 0
BBX 20 19 2 0
BITMAP
007E00
038180
0400C0
080020
107020
218E10
430E10
470E10
C60E10
8E0C10
8E1C10
8E3420
8E6E20
8FCEC0
478F00
400000
200000
181800
07F000
ENDCHAR
STARTCHAR A
ENCODING 65
SWIDTH 795 0
DWIDTH 21 0
BBX 21 19 0 0
BITMAP
003000
007000
007000
007800
00F800
00FC00
013C00
013E00
021E00
021F00
040F00
040F80
0FFF80
0807C0
1803C0
1003C0
3001E0
7001E0
F807F8
ENDCHAR
STARTCHAR B
ENCODING 66
SWIDTH 639 0
DWIDTH 17 0
BBX 15 19 1 0
BITMAP
FFE0
3C78
3C3C
3C3C
3C3C
3C3C
3C38
3C78
3CE0
3FE0
3C78
3C3C
3C1E
3C1E
3C1E
3C1E
3C3C
3C7C
FFF0
ENDCHAR
STARTCHAR C
ENCODING 67
SWIDTH 711 0
DWIDTH 18 0
BBX 16 19 1 0
BITMAP
03FE
0E07
1C03
3803
7800
7000
F000
F000
F000
F000
F000
F000
F000
7800
7800
3C00
1F03
0FFF
03FC
ENDCHAR
STARTCHAR D
ENCODING 68
SWIDTH 794 0
DWIDTH 21 0
BBX 19 19 1 0
BITMAP
FFF800
3C1E00
3C0780
3C0380
3C03C0
3C01C0
3C01E0
3C01E0
3C01E0
3C01E0
3C01E0
3C01E0
3C01E0
3C01C0
3C03C0
3C0380
3C0700
3E0E00
FFF800
ENDCHAR
STARTCHAR E
ENCODING 69
SWIDTH 601 0
DWIDTH 16 0
BBX 14 19 1 0
BITMAP
FFFC
3C0C
3C0C
3C00
3C00
3C00
3C00
3C00
3C10
3FF0
3C10
3C10
3C00
3C00
3C00
3C00
3C0C
3C0C
FFFC
ENDCHAR
STARTCHAR F
ENCODING 70
SWIDTH 584 0
DWIDTH 15 0
BBX 14 19 0 0
BITMAP
FFFC
3C0C
3C0C
3C00
3C00
3C00
3C00
3C00
3C10
3FF0
3C10
3C00
3C00
3C00
3C00
3C00
3C00
3E00
FF80
ENDCHAR
STARTCHAR G
ENCODING 71
SWIDTH 753 0
DWIDTH 20 0
BBX 18 19 1 0
BITMAP
03FE00
0E0700
1C0300
380300
780000
700000
F00000
F00000
F00000
F00000
F00000
F03FC0
F00F00
780F00
780F00
380F00
1C0F00
0F0F00
03FE00
ENDCHAR
STARTCHAR H
ENCODING 72
SWIDTH 798 0
DWIDTH 21 0
BBX 20 19 0 0
BITMAP
FF0FF0
3C03C0
3C03C0
3C03C0
3C03C0
3C03C0
3C03C0
3C03C0
3FFFC0
3C03C0
3C03C0
3C03C0
3C03C0
3C03C0
3C03C0
3C03C0
3C03C0
3E07C0
FF0FF0
ENDCHAR
STARTCHAR I
ENCODING 73
SWIDTH 349 0
DWIDTH 9 0
BBX 8 19 1 0
BITMAP
FF
3C
3C
3C
3C
3C
3C
3C
3C
3C
3C
3C
3C
3C
3C
3C
3C
3C
FF
ENDCHAR
STARTCHAR J
ENCODING 74
SWIDTH 452 0
DWIDTH 12 0
BBX 11 23 0 -4
BITMAP
1FE0
07C0
0780
0780
0780
0780
0780
0780
0780
0780
0780
0780
0780
0780
0780
0780
0780
0780
0780
C780
C700
CF00
FC00
ENDCHAR
STARTCHAR K
ENCODING 75
SWIDTH 747 0
DWIDTH 19 0
BBX 19 19 1 0
BITMAP
FF0FC0
3C0700
3C0400
3C0800
3C1000
3C2000
3C4000
3C8000
3DC000
3FE000
3FE000
3DF000
3CF800
3C7C00
3C3E00
3C3E00
3C1F00
3C0F80
FF3FE0
ENDCHAR
STARTCHAR L
ENCODING 76
SWIDTH 584 0
DWIDTH 15 0
BBX 14 19 1 0
BITMAP
FF00
3C00
3C00
3C00
3C00
3C00
3C00
3C00
3C00
3C00
3C00
3C00
3C00
3C00
3C00
3C0C
3C0C
3C0C
FFFC
ENDCHAR
STARTCHAR M
ENCODING 77
SWIDTH 904 0
DWIDTH 23 0
BBX 22 19 1 0
BITMAP
FE00FC
3E01F0
3F01F0
3F01F0
3F03F0
3783F0
3786F0
37C6F0
33CEF0
33CCF0
33ECF0
31F8F0
31F8F0
30F0F0
30F0F0
30F0F0
3060F0
3000F0
FC03FC
ENDCHAR
STARTCHAR N
ENCODING 78
SWIDTH 788 0
DWIDTH 20 0
BBX 19 19 1 0
BITMAP
F807E0
3C0180
3E0180
3F0180
3F0180
3F8180
37C180
33C180
33E180
31F180
30F980
30F980
307D80
303F80
301F80
301F80
300F80
300780
FC0380
ENDCHAR
STARTCHAR O
ENCODING 79
SWIDTH 810 0
DWIDTH 21 0
BBX 19 19 1 0
BITMAP
03F800
0E0E00
1C0700
380380
7803C0
7001C0
F001E0
F001E0
F001E0
F001E0
F001E0
F001E0
F001E0
7001C0
7803C0
380380
1C0700
0E0E00
03F800
ENDCHAR
STARTCHAR P
ENCODING 80
SWIDTH 614 0
DWIDTH 16 0
BBX 15 19 0 0
BITMAP
FFF0
3C3C
3C1C
3C1E
3C1E
3C1E
3C1E
3C1C
3C3C
3C78
3FE0
3C00
3C00
3C00
3C00
3C00
3C00
3E00
FF00
ENDCHAR
STARTCHAR Q
ENCODING 81
SWIDTH 810 0
DWIDTH 21 0
BBX 22 23 1 -4
BITMAP
03F800
0E0E00
1C0700
380380
7803C0
7001C0
F001E0
F001E0
F001E0
F001E0
F001E0
F001E0
F001E0
7001C0
7803C0
3803C0
1C0780
0E0E00
03FC00
000F80
0007FC
0001F0
000060
ENDCHAR
STARTCHAR R
ENCODING 82
SWIDTH 720 0
DWIDTH 19 0
BBX 18 19 1 0
BITMAP
FFF000
3C3C00
3C1C00
3C1E00
3C1E00
3C1E00
3C1E00
3C1C00
3C3C00
3C7800
3FF000
3CF000
3CF800
3C7C00
3C3C00
3C3E00
3C1F00
3C1F80
FF0FC0
ENDCHAR
STARTCHAR S
ENCODING 83
SWIDTH 556 0
DWIDTH 14 0
BBX 13 19 1 0
BITMAP
0FE0
3870
7030
F030
F000
F000
FC00
7F00
3F80
1FE0
07F0
01F8
00F8
0078
0078
C078
C070
E0E0
7F80
ENDCHAR
STARTCHAR T
ENCODING 84
SWIDTH 714 0
DWIDTH 19 0
BBX 18 19 0 0
BITMAP
FFFFC0
E1E0C0
C1E0C0
C1E0C0
01E000
01E000
01E000
01E000
01E000
01E000
01E000
01E000
01E000
01E000
01E000
01E000
01E000
01F000
07F800
ENDCHAR
STARTCHAR U
ENCODING 85
SWIDTH 747 0
DWIDTH 19 0
BBX 19 19 0 0
BITMAP
FF07E0
3C0180
3C0180
3C0180
3C0180
3C0180
3C0180
3C0180
3C0180
3C0180
3C0180
3C0180
3C0180
3C0180
3C0180
1C0300
1E0300
0F0600
03F800
ENDCHAR
STARTCHAR V
ENCODING 86
SWIDTH 753 0
DWIDTH 20 0
BBX 20 19 0 0
BITMAP
FF01F0
3E00C0
3E00C0
1E0080
1F0180
0F0100
0F0100
0F8200
078200
07C600
03C400
03E400
01E800
01E800
00F000
00F000
00F000
006000
006000
ENDCHAR
STARTCHAR W
ENCODING 87
SWIDTH 955 0
DWIDTH 25 0
BBX 25 19 0 0
BITMAP
FE040F80
7C0E0200
3C0E0600
3C0E0400
3E1F0400
1E1F0400
1E1F0800
1E2F8800
1F278800
0F279000
0F47D000
0FC3D000
07C3F000
0783E000
0781E000
0781E000
0381C000
0300C000
0300C000
ENDCHAR
STARTCHAR X
ENCODING 88
SWIDTH 702 0
DWIDTH 18 0
BBX 18 19 0 0
BITMAP
7F07C0
3E0300
1E0200
1F0600
0F0400
0F8800
07D800
03D000
03E000
01F000
03F000
07F800
067800
0C7C00
1C3E00
183E00
301F00
700F80
F83FC0
ENDCHAR
STARTCHAR Y
ENCODING 89
SWIDTH 717 0
DWIDTH 19 0
BBX 18 19 0 0
BITMAP
FF07C0
7C0380
3E0300
1E0200
1F0400
0F0400
0F8800
07C800
03D000
03F000
01E000
01E000
01E000
01E000
01E000
01E000
01E000
01E000
07F800
ENDCHAR
STARTCHAR Z
ENCODING 90
SWIDTH 639 0
DWIDTH 17 0
BBX 14 19 1 0
BITMAP
7FFC
607C
6078
60F8
00F0
01F0
03E0
03C0
07C0
0780
0F80
0F00
1F00
3E00
3C00
7C00
780C
F80C
FFFC
ENDCHAR
STARTCHAR bracketleft
ENCODING 91
SWIDTH 327 0
DWIDTH 8 0
BBX 7 24 1 -4
BITMAP
FE
F0
F0
F0
F0
F0
F0
F0
F0
F0
F0
F0
F0
F0
F0
F0
F0
F0
F0
F0
F0
F0
F0
FE
ENDCHAR
STARTCHAR backslash
ENCODING 92
SWIDTH 527 0
DWIDTH 14 0
BBX 14 24 0 -4
BITMAP
C000
6000
6000
3000
3000
1800
1800
0C00
0C00
0600
0600
0300
0300
0180
0180
00C0
00C0
0060
0060
0030
0030
0018
0018
000C
ENDCHAR
STARTCHAR bracketright
ENCODING 93
SWIDTH 327 0
DWIDTH 8 0
BBX 7 24 0 -4
BITMAP
FE
1E
1E
1E
1E
1E
1E
1E
1E
1E
1E
1E
1E
1E
1E
1E
1E
1E
1E
1E
1E
1E
1E
FE
ENDCHAR
STARTCHAR asciicircum
ENCODING 94
SWIDTH 623 0
DWIDTH 16 0
BBX 15 16 1 3
BITMAP
0100
0100
0380
0380
07C0
06C0
0EE0
0C60
1C70
1830
1830
3018
3018
600C
600C
C006
ENDCHAR
STARTCHAR underscore
ENCODING 95
SWIDTH 500 0
DWIDTH 13 0
BBX 11 2 1 -3
BITMAP
FFE0
FFE0
ENDCHAR
STARTCHAR grave
ENCODING 96
SWIDTH 617 0
DWIDTH 16 0
BBX 6 4 4 16
BITMAP
F0
30
18
0C
ENDCHAR
STARTCHAR a
ENCODING 97
SWIDTH 556 0
DWIDTH 14 0
BBX 14 14 0 0
BITMAP
1F80
71E0
60F0
60F0
00F0
00F0
1FF0
78F0
F0F0
F0F0
F0F0
F8F0
7F70
3E3C
ENDCHAR
STARTCHAR b
ENCODING 98
SWIDTH 640 0
DWIDTH 17 0
BBX 16 20 0 0
BITMAP
FC00
3C00
3C00
3C00
3C00
3C00
3C78
3DFC
3DFE
3E1E
3C0F
3C0F
3C0F
3C0F
3C0F
3C0F
3C1E
3E3E
3FFC
39F0
ENDCHAR
STARTCHAR c
ENCODING 99
SWIDTH 541 0
DWIDTH 14 0
BBX 12 14 1 0
BITMAP
0FF0
3870
7830
7030
F000
F000
F000
F000
F000
F800
7800
3C10
1FF0
0FE0
ENDCHAR
STARTCHAR d
ENCODING 100
SWIDTH 652 0
DWIDTH 17 0
BBX 16 20 1 0
BITMAP
00FC
003C
003C
003C
003C
003C
1F3C
3FFC
787C
783C
F03C
F03C
F03C
F03C
F03C
F03C
787C
7FBC
3FBE
1E3F
ENDCHAR
STARTCHAR e
ENCODING 101
SWIDTH 568 0
DWIDTH 15 0
BBX 13 14 1 0
BITMAP
0FC0
38E0
7870
7070
F078
F078
FFF8
F000
F000
F800
7800
3C08
1FF8
07F0
ENDCHAR
STARTCHAR f
ENCODING 102
SWIDTH 416 0
DWIDTH 11 0
BBX 11 20 0 0
BITMAP
0FC0
1C60
3C60
3C60
3C00
3C00
FFC0
3C00
3C00
3C00
3C00
3C00
3C00
3C00
3C00
3C00
3C00
3C00
3C00
FF00
ENDCHAR
STARTCHAR g
ENCODING 103
SWIDTH 599 0
DWIDTH 16 0
BBX 14 19 1 -5
BITMAP
0FFC
38E8
38F0
78F0
78F0
78F0
78E0
38E0
0FC0
1800
3800
7FF0
3FF8
1FF8
7078
F078
F070
78E0
3FC0
ENDCHAR
STARTCHAR h
ENCODING 104
SWIDTH 654 0
DWIDTH 17 0
BBX 17 20 0 0
BITMAP
FC0000
3C0000
3C0000
3C0000
3C0000
3C0000
3C7800
3CFC00
3DFE00
3F1E00
3C1E00
3C1E00
3C1E00
3C1E00
3C1E00
3C1E00
3C1E00
3C1E00
3C1E00
FF7F80
ENDCHAR
STARTCHAR i
ENCODING 105
SWIDTH 325 0
DWIDTH 8 0
BBX 8 20 0 0
BITMAP
3C
3C
3C
3C
00
00
FC
3C
3C
3C
3C
3C
3C
3C
3C
3C
3C
3C
3C
FF
ENDCHAR
STARTCHAR j
ENCODING 106
SWIDTH 355 0
DWIDTH 9 0
BBX 9 25 -1 -5
BITMAP
0780
0780
0780
0780
0000
0000
1F80
0780
0780
0780
0780
0780
0780
0780
0780
0780
0780
0780
0780
0780
0780
C780
C780
C700
FE00
ENDCHAR
STARTCHAR k
ENCODING 107
SWIDTH 654 0
DWIDTH 16 0
BBX 17 20 0 0
BITMAP
FC0000
3C0000
3C0000
3C0000
3C0000
3C0000
3C3F00
3C1C00
3C1000
3C2000
3C4000
3DC000
3FE000
3DE000
3DF000
3CF800
3C7C00
3C7E00
3C3F00
FF1F80
ENDCHAR
STARTCHAR l
ENCODING 108
SWIDTH 325 0
DWIDTH 8 0
BBX 8 20 0 0
BITMAP
FC
3C
3C
3C
3C
3C
3C
3C
3C
3C
3C
3C
3C
3C
3C
3C
3C
3C
3C
FF
ENDCHAR
STARTCHAR m
ENCODING 109
SWIDTH 967 0
DWIDTH 25 0
BBX 24 14 1 0
BITMAP
FCF0F0
3DF9F8
3FFFFC
3E3E3C
3C3C3C
3C3C3C
3C3C3C
3C3C3C
3C3C3C
3C3C3C
3C3C3C
3C3C3C
3C3C3C
FFFFFF
ENDCHAR
STARTCHAR n
ENCODING 110
SWIDTH 654 0
DWIDTH 17 0
BBX 17 14 0 0
BITMAP
FC7800
7CFC00
3DFE00
3F1E00
3C1E00
3C1E00
3C1E00
3C1E00
3C1E00
3C1E00
3C1E00
3C1E00
3C1E00
FF7F80
ENDCHAR
STARTCHAR o
ENCODING 111
SWIDTH 617 0
DWIDTH 16 0
BBX 14 14 1 0
BITMAP
0FC0
3CF0
7878
7038
F03C
F03C
F03C
F03C
F03C
F03C
7038
7878
3CF0
0FC0
ENDCHAR
STARTCHAR p
ENCODING 112
SWIDTH 652 0
DWIDTH 17 0
BBX 16 19 0 -5
BITMAP
FC78
7DFC
3DFE
3E1E
3C0F
3C0F
3C0F
3C0F
3C0F
3C0F
3C1E
3E3E
3FFC
3CF8
3C00
3C00
3C00
3C00
FF00
ENDCHAR
STARTCHAR q
ENCODING 113
SWIDTH 640 0
DWIDTH 17 0
BBX 16 19 1 -5
BITMAP
1F3C
3FFC
7C7C
783C
F03C
F03C
F03C
F03C
F03C
F03C
787C
7FBC
3FBC
1E3C
003C
003C
003C
003C
00FF
ENDCHAR
STARTCHAR r
ENCODING 114
SWIDTH 462 0
DWIDTH 12 0
BBX 11 14 0 0
BITMAP
FCE0
3DE0
3FE0
3E60
3C00
3C00
3C00
3C00
3C00
3C00
3C00
3C00
3C00
FF00
ENDCHAR
STARTCHAR s
ENCODING 115
SWIDTH 525 0
DWIDTH 14 0
BBX 11 14 2 0
BITMAP
1F80
79C0
F0C0
F0C0
F800
FE00
7F80
3FC0
0FE0
03E0
C1E0
C1E0
E3C0
7F00
ENDCHAR
STARTCHAR t
ENCODING 116
SWIDTH 389 0
DWIDTH 10 0
BBX 9 18 1 0
BITMAP
0C00
3C00
3C00
3C00
FF80
3C00
3C00
3C00
3C00
3C00
3C00
3C00
3C00
3C00
3C00
3C00
1F80
0F80
ENDCHAR
STARTCHAR u
ENCODING 117
SWIDTH 654 0
DWIDTH 17 0
BBX 17 14 0 0
BITMAP
FC7E00
3C1E00
3C1E00
3C1E00
3C1E00
3C1E00
3C1E00
3C1E00
3C1E00
3C1E00
3C7E00
3FDE00
1F9F00
0F1F80
ENDCHAR
STARTCHAR v
ENCODING 118
SWIDTH 657 0
DWIDTH 17 0
BBX 17 14 0 0
BITMAP
FF0F80
7C0600
3E0400
1E0400
1F0800
0F0800
0F9000
079000
07A000
03E000
03E000
01C000
01C000
018000
ENDCHAR
STARTCHAR w
ENCODING 119
SWIDTH 880 0
DWIDTH 23 0
BBX 23 14 0 0
BITMAP
FE0C3E
7C1C08
3C1E18
3C1E10
1E3E10
1E2F30
1E4F20
0F4FA0
0FC7C0
0F87C0
0783C0
070380
070380
020180
ENDCHAR
STARTCHAR x
ENCODING 120
SWIDTH 608 0
DWIDTH 16 0
BBX 16 14 0 0
BITMAP
FF3F
3E0C
3E18
1F10
0FA0
07C0
07C0
03E0
07F0
05F0
08F8
107C
303E
F8FF
ENDCHAR
STARTCHAR y
ENCODING 121
SWIDTH 654 0
DWIDTH 17 0
BBX 17 19 0 -5
BITMAP
FF0F80
7C0600
3E0600
1E0400
1E0800
0F0800
0F1000
0F9000
07A000
07E000
03C000
03C000
018000
018000
010000
030000
060000
0C0000
1C0000
ENDCHAR
STARTCHAR z
ENCODING 122
SWIDTH 584 0
DWIDTH 15 0
BBX 13 14 1 0
BITMAP
FFF8
E0F8
C1F0
03E0
03E0
07C0
0F80
0F00
1F00
3E00
7C00
7C18
F818
FFF8
ENDCHAR
STARTCHAR braceleft
ENCODING 123
SWIDTH 366 0
DWIDTH 9 0
BBX 7 24 1 -4
BITMAP
1E
3C
78
78
78
7C
7C
3C
3C
3C
38
F0
70
38
3C
3C
3C
7C
7C
78
78
78
38
1E
ENDCHAR
STARTCHAR bar
ENCODING 124
SWIDTH 259 0
DWIDTH 7 0
BBX 2 24 2 -4
BITMAP
C0
C0
C0
C0
C0
C0
C0
C0
C0
C0
C0
C0
C0
C0
C0
C0
C0
C0
C0
C0
C0
C0
C0
C0
ENDCHAR
STARTCHAR braceright
ENCODING 125
SWIDTH 366 0
DWIDTH 9 0
BBX 7 24 1 -4
BITMAP
F0
38
3C
3C
3C
7C
7C
78
78
78
38
1E
1C
38
78
78
78
7C
7C
3C
3C
3C
38
F0
ENDCHAR
STARTCHAR asciitilde
ENCODING 126
SWIDTH 623 0
DWIDTH 16 0
BBX 15 5 1 5
BITMAP
3C00
7F02
C7C6
81FC
8078
ENDCHAR
STARTCHAR space
ENCODING 160
SWIDTH 333 0
DWIDTH 8 0
BBX 1 1 0 0
BITMAP
00
ENDCHAR
STARTCHAR Aogonek
ENCODING 161
SWIDTH 795 0
DWIDTH 21 0
BBX 21 23 0 -4
BITMAP
003000
007000
007000
007800
00F800
00FC00
013C00
013E00
021E00
021F00
040F00
040F80
0FFF80
0807C0
1803C0
1003C0
3001E0
7001E0
F807F8
003800
006000
007400
003C00
ENDCHAR
STARTCHAR breve
ENCODING 162
SWIDTH 617 0
DWIDTH 16 0
BBX 9 4 4 16
BITMAP
C180
FF80
7F00
3E00
ENDCHAR
STARTCHAR Lslash
ENCODING 163
SWIDTH 584 0
DWIDTH 15 0
BBX 14 19 1 0
BITMAP
FF00
3C00
3C00
3C00
3C00
3C80
3D80
3F00
3C00
7C00
FC00
BC00
3C00
3C00
3C00
3C0C
3C0C
3E0C
FFFC
ENDCHAR
STARTCHAR currency
ENCODING 164
SWIDTH 623 0
DWIDTH 16 0
BBX 15 17 1 1
BITMAP
8002
4004
27C8
3FF8
1C70
1830
3018
3018
3018
3018
3018
1830
1C70
3FF8
27C8
4004
8002
ENDCHAR
STARTCHAR Lcaron
ENCODING 165
SWIDTH 820 0
DWIDTH 21 0
BBX 18 20 1 0
BITMAP
0003C0
FF03C0
3C03C0
3C03C0
3C01C0
3C01C0
3C0180
3C0300
3C0000
3C0000
3C0000
3C0000
3C0000
3C0000
3C0000
3C0000
3C0C00
3C0C00
3C0C00
FFFC00
ENDCHAR
STARTCHAR Sacute
ENCODING 166
SWIDTH 556 0
DWIDTH 14 0
BBX 13 24 1 0
BITMAP
03C0
0300
0600
0C00
0000
0FE0
3870
7030
F030
F000
F000
FC00
7F00
3F80
1FE0
07F0
01F8
00F8
0078
0078
C078
C070
E0E0
7F80
ENDCHAR
STARTCHAR section
ENCODING 167
SWIDTH 623 0
DWIDTH 16 0
BBX 12 24 2 -5
BITMAP
1FC0
78E0
7060
F060
F000
F800
FE00
7F80
3FE0
67E0
E3F0
E0F0
F070
F870
7E60
7FC0
3FE0
0FF0
03F0
00F0
C0F0
C0E0
E1E0
7F80
ENDCHAR
STARTCHAR dieresis
ENCODING 168
SWIDTH 617 0
DWIDTH 16 0
BBX 8 3 4 16
BITMAP
E7
E7
E7
ENDCHAR
STARTCHAR Scaron
ENCODING 169
SWIDTH 556 0
DWIDTH 14 0
BBX 13 24 1 0
BITMAP
3060
1DC0
0F80
0700
0000
0FE0
3870
7030
F030
F000
F000
FC00
7F00
3F80
1FE0
07F0
01F8
00F8
0078
0078
C078
C070
E0E0
7F80
ENDCHAR
STARTCHAR Scedilla
ENCODING 170
SWIDTH 556 0
DWIDTH 14 0
BBX 13 24 1 -5
BITMAP
0FE0
3870
7030
F030
F000
F000
FC00
7F00
3F80
1FE0
07F0
01F8
00F8
0078
0078
C078
C070
E0E0
7F80
0200
0780
0380
0380
0700
ENDCHAR
STARTCHAR Tcaron
ENCODING 171
SWIDTH 714 0
DWIDTH 19 0
BBX 18 24 0 0
BITMAP
0C1800
077000
03E000
01C000
000000
FFFFC0
E1E0C0
C1E0C0
C1E0C0
01E000
01E000
01E000
01E000
01E000
01E000
01E000
01E000
01E000
01E000
01E000
01E000
01E000
01F000
07F800
ENDCHAR
STARTCHAR Zacute
ENCODING 172
SWIDTH 639 0
DWIDTH 17 0
BBX 14 24 1 0
BITMAP
00F0
00C0
0180
0300
0000
7FFC
607C
6078
60F8
00F0
01F0
03E0
03C0
07C0
0780
0F80
0F00
1F00
3E00
3C00
7C00
780C
F80C
FFFC
ENDCHAR
STARTCHAR hyphen
ENCODING 173
SWIDTH 289 0
DWIDTH 8 0
BBX 6 3 1 7
BITMAP
FC
FC
FC
ENDCHAR
STARTCHAR Zcaron
ENCODING 174
SWIDTH 639 0
DWIDTH 17 0
BBX 14 24 1 0
BITMAP
1830
0EE0
07C0
0380
0000
7FFC
607C
6078
60F8
00F0
01F0
03E0
03C0
07C0
0780
0F80
0F00
1F00
3E00
3C00
7C00
780C
F80C
FFFC
ENDCHAR
STARTCHAR Zdotaccent
ENCODING 175
SWIDTH 639 0
DWIDTH 17 0
BBX 14 24 1 0
BITMAP
0380
0380
0380
0380
0000
7FFC
607C
6078
60F8
00F0
01F0
03E0
03C0
07C0
0780
0F80
0F00
1F00
3E00
3C00
7C00
780C
F80C
FFFC
ENDCHAR
STARTCHAR degree
ENCODING 176
SWIDTH 259 0
DWIDTH 7 0
BBX 4 4 1 15
BITMAP
60
90
90
60
ENDCHAR
STARTCHAR aogonek
ENCODING 177
SWIDTH 556 0
DWIDTH 14 0
BBX 14 18 0 -4
BITMAP
1F80
71E0
60F0
60F0
00F0
00F0
1FF0
78F0
F0F0
F0F0
F0F0
F8F0
7F70
3E3C
0380
0600
0740
03C0
ENDCHAR
STARTCHAR ogonek
ENCODING 178
SWIDTH 617 0
DWIDTH 16 0
BBX 5 4 6 -4
BITMAP
70
C0
E8
78
ENDCHAR
STARTCHAR lslash
ENCODING 179
SWIDTH 325 0
DWIDTH 8 0
BBX 10 20 0 0
BITMAP
7E00
3E00
1E00
1E00
1E00
1E00
1E00
1EC0
1F80
1E00
3E00
FE00
9E00
1E00
1E00
1E00
1E00
1E00
3F00
7F80
ENDCHAR
STARTCHAR acute
ENCODING 180
SWIDTH 617 0
DWIDTH 16 0
BBX 6 4 6 16
BITMAP
3C
30
60
C0
ENDCHAR
STARTCHAR lcaron
ENCODING 181
SWIDTH 574 0
DWIDTH 15 0
BBX 13 20 0 0
BITMAP
FC78
3C78
3C78
3C78
3C38
3C38
3C30
3C60
3C00
3C00
3C00
3C00
3C00
3C00
3C00
3C00
3C00
3C00
3C00
FF00
ENDCHAR
STARTCHAR sacute
ENCODING 182
SWIDTH 525 0
DWIDTH 14 0
BBX 11 19 2 0
BITMAP
0780
0600
0C00
1800
0000
1F80
79C0
F0C0
F0C0
F800
FE00
7F80
3FC0
0FE0
03E0
C1E0
C1E0
E3C0
7F00
ENDCHAR
STARTCHAR caron
ENCODING 183
SWIDTH 617 0
DWIDTH 16 0
BBX 9 4 4 16
BITMAP
C180
7700
3E00
1C00
ENDCHAR
STARTCHAR cedilla
ENCODING 184
SWIDTH 617 0
DWIDTH 16 0
BBX 4 6 6 -5
BITMAP
60
40
F0
70
70
E0
ENDCHAR
STARTCHAR scaron
ENCODING 185
SWIDTH 525 0
DWIDTH 14 0
BBX 11 19 2 0
BITMAP
60C0
3B80
1F00
0E00
0000
1F80
79C0
F0C0
F0C0
F800
FE00
7F80
3FC0
0FE0
03E0
C1E0
C1E0
E3C0
7F00
ENDCHAR
STARTCHAR scedilla
ENCODING 186
SWIDTH 525 0
DWIDTH 14 0
BBX 11 19 2 -5
BITMAP
1F80
79C0
F0C0
F0C0
F800
FE00
7F80
3FC0
0FE0
03E0
C1E0
C1E0
E3C0
7F00
0400
0F00
0700
0700
0E00
ENDCHAR
STARTCHAR tcaron
ENCODING 187
SWIDTH 635 0
DWIDTH 17 0
BBX 14 20 1 0
BITMAP
003C
003C
0C3C
3C3C
3C1C
3C1C
FF98
3C30
3C00
3C00
3C00
3C00
3C00
3C00
3C00
3C00
3C00
3C00
1F80
0F80
ENDCHAR
STARTCHAR zacute
ENCODING 188
SWIDTH 584 0
DWIDTH 15 0
BBX 13 19 1 0
BITMAP
01E0
0180
0300
0600
0000
FFF8
E0F8
C1F0
03E0
03E0
07C0
0F80
0F00
1F00
3E00
7C00
7C18
F818
FFF8
ENDCHAR
STARTCHAR hungarumlaut
ENCODING 189
SWIDTH 617 0
DWIDTH 16 0
BBX 9 4 5 16
BITMAP
1B80
3600
6400
C800
ENDCHAR
STARTCHAR zcaron
ENCODING 190
SWIDTH 584 0
DWIDTH 15 0
BBX 13 19 1 0
BITMAP
3060
1DC0
0F80
0700
0000
FFF8
E0F8
C1F0
03E0
03E0
07C0
0F80
0F00
1F00
3E00
7C00
7C18
F818
FFF8
ENDCHAR
STARTCHAR zdotaccent
ENCODING 191
SWIDTH 584 0
DWIDTH 15 0
BBX 13 19 1 0
BITMAP
0700
0700
0700
0700
0000
FFF8
E0F8
C1F0
03E0
03E0
07C0
0F80
0F00
1F00
3E00
7C00
7C18
F818
FFF8
ENDCHAR
STARTCHAR Racute
ENCODING 192
SWIDTH 720 0
DWIDTH 19 0
BBX 18 24 1 0
BITMAP
00F000
00C000
018000
030000
000000
FFF000
3C3C00
3C1C00
3C1E00
3C1E00
3C1E00
3C1E00
3C1C00
3C3C00
3C7800
3FF000
3CF000
3CF800
3C7C00
3C3C00
3C3E00
3C1F00
3C1F80
FF0FC0
ENDCHAR
STARTCHAR Aacute
ENCODING 193
SWIDTH 795 0
DWIDTH 21 0
BBX 21 24 0 0
BITMAP
003C00
003000
006000
00C000
000000
003000
007000
007000
007800
00F800
00FC00
013C00
013E00
021E00
021F00
040F00
040F80
0FFF80
0807C0
1803C0
1003C0
3001E0
7001E0
F807F8
ENDCHAR
STARTCHAR Acircumflex
ENCODING 194
SWIDTH 795 0
DWIDTH 21 0
BBX 21 24 0 0
BITMAP
007000
00F800
01DC00
030600
000000
003000
007000
007000
007800
00F800
00FC00
013C00
013E00
021E00
021F00
040F00
040F80
0FFF80
0807C0
1803C0
1003C0
3001E0
7001E0
F807F8
ENDCHAR
STARTCHAR Abreve
ENCODING 195
SWIDTH 795 0
DWIDTH 21 0
BBX 21 24 0 0
BITMAP
030600
03FE00
01FC00
00F800
000000
003000
007000
007000
007800
00F800
00FC00
013C00
013E00
021E00
021F00
040F00
040F80
0FFF80
0807C0
1803C0
1003C0
3001E0
7001E0
F807F8
ENDCHAR
STARTCHAR Adieresis
ENCODING 196
SWIDTH 795 0
DWIDTH 21 0
BBX 21 23 0 0
BITMAP
01CE00
01CE00
01CE00
000000
003000
007000
007000
007800
00F800
00FC00
013C00
013E00
021E00
021F00
040F00
040F80
0FFF80
0807C0
1803C0
1003C0
3001E0
7001E0
F807F8
ENDCHAR
STARTCHAR Lacute
ENCODING 197
SWIDTH 584 0
DWIDTH 15 0
BBX 14 24 1 0
BITMAP
0780
0600
0C00
1800
0000
FF00
3C00
3C00
3C00
3C00
3C00
3C00
3C00
3C00
3C00
3C00
3C00
3C00
3C00
3C00
3C0C
3C0C
3C0C
FFFC
ENDCHAR
STARTCHAR Cacute
ENCODING 198
SWIDTH 711 0
DWIDTH 18 0
BBX 16 24 1 0
BITMAP
00F0
00C0
0180
0300
0000
03FE
0E07
1C03
3803
7800
7000
F000
F000
F000
F000
F000
F000
F000
7800
7800
3C00
1F03
0FFF
03FC
ENDCHAR
STARTCHAR Ccedilla
ENCODING 199
SWIDTH 711 0
DWIDTH 18 0
BBX 16 24 1 -5
BITMAP
03FE
0E07
1C03
3803
7800
7000
F000
F000
F000
F000
F000
F000
F000
7800
7800
3C00
1F03
0FFF
03FC
0100
03C0
01C0
01C0
0380
ENDCHAR
STARTCHAR Ccaron
ENCODING 200
SWIDTH 711 0
DWIDTH 18 0
BBX 16 24 1 0
BITMAP
0C18
0770
03E0
01C0
0000
03FE
0E07
1C03
3803
7800
7000
F000
F000
F000
F000
F000
F000
F000
7800
7800
3C00
1F03
0FFF
03FC
ENDCHAR
STARTCHAR Eacute
ENCODING 201
SWIDTH 601 0
DWIDTH 16 0
BBX 14 24 1 0
BITMAP
01E0
0180
0300
0600
0000
FFFC
3C0C
3C0C
3C00
3C00
3C00
3C00
3C00
3C10
3FF0
3C10
3C10
3C00
3C00
3C00
3C00
3C0C
3C0C
FFFC
ENDCHAR
STARTCHAR Eogonek
ENCODING 202
SWIDTH 601 0
DWIDTH 16 0
BBX 14 23 1 -4
BITMAP
FFFC
3C0C
3C0C
3C00
3C00
3C00
3C00
3C00
3C10
3FF0
3C10
3C10
3C00
3C00
3C00
3C00
3C0C
3C0C
FFFC
0700
0C00
0E80
0780
ENDCHAR
STARTCHAR Edieresis
ENCODING 203
SWIDTH 601 0
DWIDTH 16 0
BBX 14 23 1 0
BITMAP
1CE0
1CE0
1CE0
0000
FFFC
3C0C
3C0C
3C00
3C00
3C00
3C00
3C00
3C10
3FF0
3C10
3C10
3C00
3C00
3C00
3C00
3C0C
3C0C
FFFC
ENDCHAR
STARTCHAR Ecaron
ENCODING 204
SWIDTH 601 0
DWIDTH 16 0
BBX 14 24 1 0
BITMAP
3060
1DC0
0F80
0700
0000
FFFC
3C0C
3C0C
3C00
3C00
3C00
3C00
3C00
3C10
3FF0
3C10
3C10
3C00
3C00
3C00
3C00
3C0C
3C0C
FFFC
ENDCHAR
STARTCHAR Iacute
ENCODING 205
SWIDTH 349 0
DWIDTH 9 0
BBX 8 24 1 0
BITMAP
0F
0C
18
30
00
FF
3C
3C
3C
3C
3C
3C
3C
3C
3C
3C
3C
3C
3C
3C
3C
3C
3C
FF
ENDCHAR
STARTCHAR Icircumflex
ENCODING 206
SWIDTH 349 0
DWIDTH 9 0
BBX 9 24 2 0
BITMAP
1C00
3E00
7700
C180
0000
7F80
1E00
1E00
1E00
1E00
1E00
1E00
1E00
1E00
1E00
1E00
1E00
1E00
1E00
1E00
1E00
1E00
1E00
7F80
ENDCHAR
STARTCHAR Dcaron
ENCODING 207
SWIDTH 794 0
DWIDTH 21 0
BBX 19 24 1 0
BITMAP
0C1800
077000
03E000
01C000
000000
FFF800
3C1E00
3C0780
3C0380
3C03C0
3C01C0
3C01E0
3C01E0
3C01E0
3C01E0
3C01E0
3C01E0
3C01E0
3C01C0
3C03C0
3C0380
3C0700
3E0E00
FFF800
ENDCHAR
STARTCHAR Dcroat
ENCODING 208
SWIDTH 794 0
DWIDTH 21 0
BBX 20 19 0 0
BITMAP
7FFC00
3E0F00
1E03C0
1E01C0
1E01E0
1E00E0
1E00F0
1E00F0
1E00F0
FFE0F0
1E00F0
1E00F0
1E00F0
1E00E0
1E01E0
1E01C0
1E0380
3F0700
7FFC00
ENDCHAR
STARTCHAR Nacute
ENCODING 209
SWIDTH 788 0
DWIDTH 20 0
BBX 19 24 1 0
BITMAP
007800
006000
00C000
018000
000000
F807E0
3C0180
3E0180
3F0180
3F0180
3F8180
37C180
33C180
33E180
31F180
30F980
30F980
307D80
303F80
301F80
301F80
300F80
300780
FC0380
ENDCHAR
STARTCHAR Ncaron
ENCODING 210
SWIDTH 788 0
DWIDTH 20 0
BBX 19 24 1 0
BITMAP
0C1800
077000
03E000
01C000
000000
F807E0
3C0180
3E0180
3F0180
3F0180
3F8180
37C180
33C180
33E180
31F180
30F980
30F980
307D80
303F80
301F80
301F80
300F80
300780
FC0380
ENDCHAR
STARTCHAR Oacute
ENCODING 211
SWIDTH 810 0
DWIDTH 21 0
BBX 19 24 1 0
BITMAP
007800
006000
00C000
018000
000000
03F800
0E0E00
1C0700
380380
7803C0
7001C0
F001E0
F001E0
F001E0
F001E0
F001E0
F001E0
F001E0
7001C0
7803C0
380380
1C0700
0E0E00
03F800
ENDCHAR
STARTCHAR Ocircumflex
ENCODING 212
SWIDTH 810 0
DWIDTH 21 0
BBX 19 24 1 0
BITMAP
00E000
01F000
03B800
060C00
000000
03F800
0E0E00
1C0700
380380
7803C0
7001C0
F001E0
F001E0
F001E0
F001E0
F001E0
F001E0
F001E0
7001C0
7803C0
380380
1C0700
0E0E00
03F800
ENDCHAR
STARTCHAR Ohungarumlaut
ENCODING 213
SWIDTH 810 0
DWIDTH 21 0
BBX 19 24 1 0
BITMAP
006E00
00D800
019000
032000
000000
03F800
0E0E00
1C0700
380380
7803C0
7001C0
F001E0
F001E0
F001E0
F001E0
F001E0
F001E0
F001E0
7001C0
7803C0
380380
1C0700
0E0E00
03F800
ENDCHAR
STARTCHAR Odieresis
ENCODING 214
SWIDTH 810 0
DWIDTH 21 0
BBX 19 23 1 0
BITMAP
073800
073800
073800
000000
03F800
0E0E00
1C0700
380380
7803C0
7001C0
F001E0
F001E0
F001E0
F001E0
F001E0
F001E0
F001E0
7001C0
7803C0
380380
1C0700
0E0E00
03F800
ENDCHAR
STARTCHAR multiply
ENCODING 215
SWIDTH 623 0
DWIDTH 16 0
BBX 15 16 1 0
BITMAP
4004
E00E
701C
3838
1C70
0EE0
06C0
0380
0380
06C0
0EE0
1C70
3838
701C
E00E
4004
ENDCHAR
STARTCHAR Rcaron
ENCODING 216
SWIDTH 720 0
DWIDTH 19 0
BBX 18 24 1 0
BITMAP
0C1800
077000
03E000
01C000
000000
FFF000
3C3C00
3C1C00
3C1E00
3C1E00
3C1E00
3C1E00
3C1C00
3C3C00
3C7800
3FF000
3CF000
3CF800
3C7C00
3C3C00
3C3E00
3C1F00
3C1F80
FF0FC0
ENDCHAR
STARTCHAR Uring
ENCODING 217
SWIDTH 747 0
DWIDTH 19 0
BBX 19 24 0 0
BITMAP
00C000
012000
012000
00C000
000000
FF07E0
3C0180
3C0180
3C0180
3C0180
3C0180
3C0180
3C0180
3C0180
3C0180
3C0180
3C0180
3C0180
3C0180
3C0180
1C0300
1E0300
0F0600
03F800
ENDCHAR
STARTCHAR Uacute
ENCODING 218
SWIDTH 747 0
DWIDTH 19 0
BBX 19 24 0 0
BITMAP
007800
006000
00C000
018000
000000
FF07E0
3C0180
3C0180
3C0180
3C0180
3C0180
3C0180
3C0180
3C0180
3C0180
3C0180
3C0180
3C0180
3C0180
3C0180
1C0300
1E0300
0F0600
03F800
ENDCHAR
STARTCHAR Uhungarumlaut
ENCODING 219
SWIDTH 747 0
DWIDTH 19 0
BBX 19 24 0 0
BITMAP
006E00
00D800
019000
032000
000000
FF07E0
3C0180
3C0180
3C0180
3C0180
3C0180
3C0180
3C0180
3C0180
3C0180
3C0180
3C0180
3C0180
3C0180
3C0180
1C0300
1E0300
0F0600
03F800
ENDCHAR
STARTCHAR Udieresis
ENCODING 220
SWIDTH 747 0
DWIDTH 19 0
BBX 19 23 0 0
BITMAP
073800
073800
073800
000000
FF07E0
3C0180
3C0180
3C0180
3C0180
3C0180
3C0180
3C0180
3C0180
3C0180
3C0180
3C0180
3C0180
3C0180
3C0180
1C0300
1E0300
0F0600
03F800
ENDCHAR
STARTCHAR Yacute
ENCODING 221
SWIDTH 717 0
DWIDTH 19 0
BBX 18 24 0 0
BITMAP
007800
006000
00C000
018000
000000
FF07C0
7C0380
3E0300
1E0200
1F0400
0F0400
0F8800
07C800
03D000
03F000
01E000
01E000
01E000
01E000
01E000
01E000
01E000
01E000
07F800
ENDCHAR
STARTCHAR Tcommaaccent
ENCODING 222
SWIDTH 714 0
DWIDTH 19 0
BBX 18 24 0 -5
BITMAP
FFFFC0
E1E0C0
C1E0C0
C1E0C0
01E000
01E000
01E000
01E000
01E000
01E000
01E000
01E000
01E000
01E000
01E000
01E000
01E000
01F000
07F800
008000
01E000
00E000
00E000
01C000
ENDCHAR
STARTCHAR germandbls
ENCODING 223
SWIDTH 700 0
DWIDTH 18 0
BBX 16 20 1 0
BITMAP
07E0
1EF0
1C78
3C78
3C78
3C70
3CE0
3CC0
3DC0
3DE0
3DF0
3CF8
3CFC
3C7E
3C1F
3C0F
3C0F
3CCF
3CCE
FEFC
ENDCHAR
STARTCHAR racute
ENCODING 224
SWIDTH 462 0
DWIDTH 12 0
BBX 11 19 0 0
BITMAP
03C0
0300
0600
0C00
0000
FCE0
3DE0
3FE0
3E60
3C00
3C00
3C00
3C00
3C00
3C00
3C00
3C00
3C00
FF00
ENDCHAR
STARTCHAR aacute
ENCODING 225
SWIDTH 556 0
DWIDTH 14 0
BBX 14 19 0 0
BITMAP
01E0
0180
0300
0600
0000
1F80
71E0
60F0
60F0
00F0
00F0
1FF0
78F0
F0F0
F0F0
F0F0
F8F0
7F70
3E3C
ENDCHAR
STARTCHAR acircumflex
ENCODING 226
SWIDTH 556 0
DWIDTH 14 0
BBX 14 19 0 0
BITMAP
0700
0F80
1DC0
3060
0000
1F80
71E0
60F0
60F0
00F0
00F0
1FF0
78F0
F0F0
F0F0
F0F0
F8F0
7F70
3E3C
ENDCHAR
STARTCHAR abreve
ENCODING 227
SWIDTH 556 0
DWIDTH 14 0
BBX 14 19 0 0
BITMAP
3060
3FE0
1FC0
0F80
0000
1F80
71E0
60F0
60F0
00F0
00F0
1FF0
78F0
F0F0
F0F0
F0F0
F8F0
7F70
3E3C
ENDCHAR
STARTCHAR adieresis
ENCODING 228
SWIDTH 556 0
DWIDTH 14 0
BBX 14 18 0 0
BITMAP
1CE0
1CE0
1CE0
0000
1F80
71E0
60F0
60F0
00F0
00F0
1FF0
78F0
F0F0
F0F0
F0F0
F8F0
7F70
3E3C
ENDCHAR
STARTCHAR lacute
ENCODING 229
SWIDTH 325 0
DWIDTH 8 0
BBX 8 25 0 0
BITMAP
0F
0C
18
30
00
FC
3C
3C
3C
3C
3C
3C
3C
3C
3C
3C
3C
3C
3C
3C
3C
3C
3C
3C
FF
ENDCHAR
STARTCHAR cacute
ENCODING 230
SWIDTH 541 0
DWIDTH 14 0
BBX 12 19 1 0
BITMAP
01E0
0180
0300
0600
0000
0FF0
3870
7830
7030
F000
F000
F000
F000
F000
F800
7800
3C10
1FF0
0FE0
ENDCHAR
STARTCHAR ccedilla
ENCODING 231
SWIDTH 541 0
DWIDTH 14 0
BBX 12 19 1 -5
BITMAP
0FF0
3870
7830
7030
F000
F000
F000
F000
F000
F800
7800
3C10
1FF0
0FE0
0200
0780
0380
0380
0700
ENDCHAR
STARTCHAR ccaron
ENCODING 232
SWIDTH 541 0
DWIDTH 14 0
BBX 12 19 1 0
BITMAP
3060
1DC0
0F80
0700
0000
0FF0
3870
7830
7030
F000
F000
F000
F000
F000
F800
7800
3C10
1FF0
0FE0
ENDCHAR
STARTCHAR eacute
ENCODING 233
SWIDTH 568 0
DWIDTH 15 0
BBX 13 19 1 0
BITMAP
01E0
0180
0300
0600
0000
0FC0
38E0
7870
7070
F078
F078
FFF8
F000
F000
F800
7800
3C08
1FF8
07F0
ENDCHAR
STARTCHAR eogonek
ENCODING 234
SWIDTH 568 0
DWIDTH 15 0
BBX 13 18 1 -4
BITMAP
0FC0
38E0
7870
7070
F078
F078
FFF8
F000
F000
F800
7800
3C08
1FF8
07F0
0380
0600
0740
03C0
ENDCHAR
STARTCHAR edieresis
ENCODING 235
SWIDTH 568 0
DWIDTH 15 0
BBX 13 18 1 0
BITMAP
1CE0
1CE0
1CE0
0000
0FC0
38E0
7870
7070
F078
F078
FFF8
F000
F000
F800
7800
3C08
1FF8
07F0
ENDCHAR
STARTCHAR ecaron
ENCODING 236
SWIDTH 568 0
DWIDTH 15 0
BBX 13 19 1 0
BITMAP
3060
1DC0
0F80
0700
0000
0FC0
38E0
7870
7070
F078
F078
FFF8
F000
F000
F800
7800
3C08
1FF8
07F0
ENDCHAR
STARTCHAR iacute
ENCODING 237
SWIDTH 325 0
DWIDTH 8 0
BBX 8 19 0 0
BITMAP
0F
0C
18
30
00
FC
3C
3C
3C
3C
3C
3C
3C
3C
3C
3C
3C
3C
FF
ENDCHAR
STARTCHAR icircumflex
ENCODING 238
SWIDTH 325 0
DWIDTH 8 0
BBX 9 19 1 0
BITMAP
1C00
3E00
7700
C180
0000
7E00
1E00
1E00
1E00
1E00
1E00
1E00
1E00
1E00
1E00
1E00
1E00
1E00
7F80
ENDCHAR
STARTCHAR dcaron
ENCODING 239
SWIDTH 884 0
DWIDTH 23 0
BBX 20 20 1 0
BITMAP
00FCF0
003CF0
003CF0
003CF0
003C70
003C70
1F3C60
3FFCC0
787C00
783C00
F03C00
F03C00
F03C00
F03C00
F03C00
F03C00
787C00
7FBC00
3FBE00
1E3F00
ENDCHAR
STARTCHAR dcroat
ENCODING 240
SWIDTH 652 0
DWIDTH 17 0
BBX 16 20 1 0
BITMAP
00FC
003C
003C
003C
00FF
00FF
1F3C
3FFC
787C
783C
F03C
F03C
F03C
F03C
F03C
F03C
787C
7FBC
3FBE
1E3F
ENDCHAR
STARTCHAR nacute
ENCODING 241
SWIDTH 654 0
DWIDTH 17 0
BBX 17 19 0 0
BITMAP
00F000
00C000
018000
030000
000000
FC7800
7CFC00
3DFE00
3F1E00
3C1E00
3C1E00
3C1E00
3C1E00
3C1E00
3C1E00
3C1E00
3C1E00
3C1E00
FF7F80
ENDCHAR
STARTCHAR ncaron
ENCODING 242
SWIDTH 654 0
DWIDTH 17 0
BBX 17 19 0 0
BITMAP
183000
0EE000
07C000
038000
000000
FC7800
7CFC00
3DFE00
3F1E00
3C1E00
3C1E00
3C1E00
3C1E00
3C1E00
3C1E00
3C1E00
3C1E00
3C1E00
FF7F80
ENDCHAR
STARTCHAR oacute
ENCODING 243
SWIDTH 617 0
DWIDTH 16 0
BBX 14 19 1 0
BITMAP
01E0
0180
0300
0600
0000
0FC0
3CF0
7878
7038
F03C
F03C
F03C
F03C
F03C
F03C
7038
7878
3CF0
0FC0
ENDCHAR
STARTCHAR ocircumflex
ENCODING 244
SWIDTH 617 0
DWIDTH 16 0
BBX 14 19 1 0
BITMAP
0700
0F80
1DC0
3060
0000
0FC0
3CF0
7878
7038
F03C
F03C
F03C
F03C
F03C
F03C
7038
7878
3CF0
0FC0
ENDCHAR
STARTCHAR ohungarumlaut
ENCODING 245
SWIDTH 617 0
DWIDTH 16 0
BBX 14 19 1 0
BITMAP
01B8
0360
0640
0C80
0000
0FC0
3CF0
7878
7038
F03C
F03C
F03C
F03C
F03C
F03C
7038
7878
3CF0
0FC0
ENDCHAR
STARTCHAR odieresis
ENCODING 246
SWIDTH 617 0
DWIDTH 16 0
BBX 14 18 1 0
BITMAP
1CE0
1CE0
1CE0
0000
0FC0
3CF0
7878
7038
F03C
F03C
F03C
F03C
F03C
F03C
7038
7878
3CF0
0FC0
ENDCHAR
STARTCHAR divide
ENCODING 247
SWIDTH 623 0
DWIDTH 16 0
BBX 15 14 1 0
BITMAP
0380
0380
0380
0000
0000
0000
FFFE
FFFE
0000
0000
0000
0380
0380
0380
ENDCHAR
STARTCHAR rcaron
ENCODING 248
SWIDTH 462 0
DWIDTH 12 0
BBX 11 19 0 0
BITMAP
60C0
3B80
1F00
0E00
0000
FCE0
3DE0
3FE0
3E60
3C00
3C00
3C00
3C00
3C00
3C00
3C00
3C00
3C00
FF00
ENDCHAR
STARTCHAR uring
ENCODING 249
SWIDTH 654 0
DWIDTH 17 0
BBX 17 19 0 0
BITMAP
018000
024000
024000
018000
000000
FC7E00
3C1E00
3C1E00
3C1E00
3C1E00
3C1E00
3C1E00
3C1E00
3C1E00
3C1E00
3C7E00
3FDE00
1F9F00
0F1F80
ENDCHAR
STARTCHAR uacute
ENCODING 250
SWIDTH 654 0
DWIDTH 17 0
BBX 17 19 0 0
BITMAP
00F000
00C000
018000
030000
000000
FC7E00
3C1E00
3C1E00
3C1E00
3C1E00
3C1E00
3C1E00
3C1E00
3C1E00
3C1E00
3C7E00
3FDE00
1F9F00
0F1F80
ENDCHAR
STARTCHAR uhungarumlaut
ENCODING 251
SWIDTH 654 0
DWIDTH 17 0
BBX 17 19 0 0
BITMAP
00DC00
01B000
032000
064000
000000
FC7E00
3C1E00
3C1E00
3C1E00
3C1E00
3C1E00
3C1E00
3C1E00
3C1E00
3C1E00
3C7E00
3FDE00
1F9F00
0F1F80
ENDCHAR
STARTCHAR udieresis
ENCODING 252
SWIDTH 654 0
DWIDTH 17 0
BBX 17 18 0 0
BITMAP
073800
073800
073800
000000
FC7E00
3C1E00
3C1E00
3C1E00
3C1E00
3C1E00
3C1E00
3C1E00
3C1E00
3C1E00
3C7E00
3FDE00
1F9F00
0F1F80
ENDCHAR
STARTCHAR yacute
ENCODING 253
SWIDTH 654 0
DWIDTH 17 0
BBX 17 24 0 -5
BITMAP
00F000
00C000
018000
030000
000000
FF0F80
7C0600
3E0600
1E0400
1E0800
0F0800
0F1000
0F9000
07A000
07E000
03C000
03C000
018000
018000
010000
030000
060000
0C0000
1C0000
ENDCHAR
STARTCHAR tcommaaccent
ENCODING 254
SWIDTH 389 0
DWIDTH 10 0
BBX 9 23 1 -5
BITMAP
0C00
3C00
3C00
3C00
FF80
3C00
3C00
3C00
3C00
3C00
3C00
3C00
3C00
3C00
3C00
3C00
1F80
0F80
0800
1E00
0E00
0E00
1C00
ENDCHAR
STARTCHAR dotaccent
ENCODING 255
SWIDTH 617 0
DWIDTH 16 0
BBX 3 4 7 15
BITMAP
E0
E0
E0
E0
ENDCHAR
ENDFONT
