STARTFONT 2.1
COMMENT AUTOMATICALLY GENERATED FILE. DO NOT EDIT!
COMMENT Generated with 'ucs2any lubBI19.bdf /usr/local/lib/X11/fonts/util/map-ISO8859-14 ISO8859-14'
COMMENT from an ISO10646-1 encoded source BDF font.
COMMENT ucs2any by Ben Collver <collver1@attbi.com>, 2003, based on
COMMENT ucs2any.pl by Markus Kuhn <http://www.cl.cam.ac.uk/~mgk25/>, 2000.
COMMENT $Xorg: $
COMMENT ISO10646-1 extension by Markus Kuhn <mkuhn@acm.org>, 2001-03-20
COMMENT  (c) Copyright Bigelow & Holmes 1986, 1985. Lucida is a registered
COMMENT  trademark of Bigelow & Holmes. See LEGAL NOTICE file for terms
COMMENT  of the license.
FONT -B&H-LucidaBright-DemiBold-I-Normal--26-190-100-100-P-156-ISO8859-14
SIZE 19 100 100
FONTBOUNDINGBOX 29 29 -1 -5
STARTPROPERTIES 22
COMMENT Begin LogicalFontDescription
FONTNAME_REGISTRY ""
FOUNDRY "B&H"
FAMILY_NAME "LucidaBright"
WEIGHT_NAME "DemiBold"
SLANT "I"
SETWIDTH_NAME "Normal"
ADD_STYLE_NAME ""
PIXEL_SIZE 26
POINT_SIZE 190
RESOLUTION_X 100
RESOLUTION_Y 100
SPACING "P"
AVERAGE_WIDTH 156
CHARSET_REGISTRY "ISO8859"
CHARSET_ENCODING "14"
COMMENT END LogicalFontDescription
COPYRIGHT "Copyright Bigelow & Holmes 1986, 1985."
FONT_ASCENT 24
FONT_DESCENT 6
DEFAULT_CHAR 0
FACE_NAME "Lucida Bright Demibold Italic"
X_HEIGHT 14
CAP_HEIGHT 19
ENDPROPERTIES
CHARS 192
STARTCHAR defaultchar
ENCODING 0
SWIDTH 827 0
DWIDTH 22 0
BBX 23 19 1 0
BITMAP
AAAAAA
000000
800002
000000
800002
000000
800002
000000
800002
000000
800002
000000
800002
000000
800002
000000
800002
000000
AAAAAA
ENDCHAR
STARTCHAR space
ENCODING 32
SWIDTH 333 0
DWIDTH 8 0
BBX 1 1 0 0
BITMAP
00
ENDCHAR
STARTCHAR exclam
ENCODING 33
SWIDTH 265 0
DWIDTH 7 0
BBX 8 19 1 0
BITMAP
0F
0F
1E
1E
1E
1E
1C
1C
1C
18
38
38
38
30
00
00
78
F0
F0
ENDCHAR
STARTCHAR quotedbl
ENCODING 34
SWIDTH 451 0
DWIDTH 12 0
BBX 9 8 5 12
BITMAP
F380
F380
E380
6380
6380
6380
6100
6100
ENDCHAR
STARTCHAR numbersign
ENCODING 35
SWIDTH 636 0
DWIDTH 17 0
BBX 16 19 2 0
BITMAP
0063
00C2
00C6
0084
018C
0108
7FFF
0210
0630
0420
0C60
0C60
FFFE
1080
3180
2180
6300
6300
C600
ENDCHAR
STARTCHAR dollar
ENCODING 36
SWIDTH 636 0
DWIDTH 17 0
BBX 14 24 3 -3
BITMAP
0040
0040
07FC
0E9C
1C8C
1C88
1C80
1C80
1F80
1F00
0F80
07C0
03E0
03F0
02F0
0270
0270
4670
C4E0
E5C0
FF80
0400
0C00
0C00
ENDCHAR
STARTCHAR percent
ENCODING 37
SWIDTH 772 0
DWIDTH 20 0
BBX 21 19 1 0
BITMAP
0F0038
398060
31C0C0
71C180
61C300
E1C700
618E00
639C00
733800
3E7000
00E3E0
01C670
038E30
071C30
0E1C30
1C1C70
381C70
700CE0
E00780
ENDCHAR
STARTCHAR ampersand
ENCODING 38
SWIDTH 773 0
DWIDTH 20 0
BBX 20 19 1 0
BITMAP
007C00
01C700
03C700
038700
038700
038E00
03CE00
03F800
07E000
1DE3F0
39E0E0
70F0C0
F0F1C0
F07980
F07B00
F03E00
701E00
3C3F00
1FCFC0
ENDCHAR
STARTCHAR quotesingle
ENCODING 39
SWIDTH 247 0
DWIDTH 6 0
BBX 4 8 4 12
BITMAP
F0
F0
F0
60
60
60
60
60
ENDCHAR
STARTCHAR parenleft
ENCODING 40
SWIDTH 336 0
DWIDTH 9 0
BBX 9 25 2 -5
BITMAP
0080
0180
0300
0600
0E00
1C00
1C00
3800
3800
7800
7000
F000
F000
F000
F000
F000
F000
F000
E000
6000
7000
7000
3000
1800
0800
ENDCHAR
STARTCHAR parenright
ENCODING 41
SWIDTH 336 0
DWIDTH 9 0
BBX 9 25 0 -5
BITMAP
0400
0600
0600
0300
0380
0380
0380
0380
0380
0380
0380
0380
0380
0780
0780
0700
0700
0E00
0E00
1C00
1800
3000
6000
4000
8000
ENDCHAR
STARTCHAR asterisk
ENCODING 42
SWIDTH 434 0
DWIDTH 12 0
BBX 10 10 4 9
BITMAP
0E00
0600
4440
65C0
F3C0
0000
1600
F700
6700
2400
ENDCHAR
STARTCHAR plus
ENCODING 43
SWIDTH 636 0
DWIDTH 16 0
BBX 15 16 2 0
BITMAP
00C0
00C0
0080
0180
0180
0180
0180
0180
FFFE
0300
0300
0300
0300
0200
0600
0600
ENDCHAR
STARTCHAR comma
ENCODING 44
SWIDTH 265 0
DWIDTH 7 0
BBX 6 10 0 -5
BITMAP
3C
7C
7C
78
78
38
38
30
E0
C0
ENDCHAR
STARTCHAR hyphen
ENCODING 45
SWIDTH 289 0
DWIDTH 8 0
BBX 6 1 2 9
BITMAP
FC
ENDCHAR
STARTCHAR period
ENCODING 46
SWIDTH 265 0
DWIDTH 7 0
BBX 5 4 1 0
BITMAP
78
78
F0
F0
ENDCHAR
STARTCHAR slash
ENCODING 47
SWIDTH 515 0
DWIDTH 13 0
BBX 16 24 -1 -4
BITMAP
0001
0003
0002
0004
000C
0008
0010
0030
0020
0040
00C0
0080
0100
0300
0200
0400
0C00
0800
1000
3000
2000
4000
C000
8000
ENDCHAR
STARTCHAR zero
ENCODING 48
SWIDTH 623 0
DWIDTH 17 0
BBX 15 19 3 0
BITMAP
01F0
0738
0E1C
1C1E
3C1E
381E
781E
781E
701E
F01E
F01E
F01C
F03C
F03C
F038
F070
70E0
39C0
1F00
ENDCHAR
STARTCHAR one
ENCODING 49
SWIDTH 636 0
DWIDTH 17 0
BBX 11 19 3 0
BITMAP
1FE0
01E0
01E0
03C0
03C0
03C0
03C0
03C0
0780
0780
0780
0780
0780
0F00
0F00
0F00
0F00
1F00
FFE0
ENDCHAR
STARTCHAR two
ENCODING 50
SWIDTH 636 0
DWIDTH 17 0
BBX 16 19 2 0
BITMAP
01F8
0E1E
0C0F
0C0F
180F
000F
001E
001C
0038
0060
0180
0200
0400
0800
3000
7000
7FFC
FFF8
FFF8
ENDCHAR
STARTCHAR three
ENCODING 51
SWIDTH 636 0
DWIDTH 17 0
BBX 15 19 3 0
BITMAP
0FF0
0C3C
083C
181C
001E
003C
0038
00F0
1FC0
00E0
0070
0078
0078
0078
0078
4078
C0F0
E1E0
7F00
ENDCHAR
STARTCHAR four
ENCODING 52
SWIDTH 636 0
DWIDTH 17 0
BBX 15 19 2 0
BITMAP
001E
003C
003C
005C
009C
013C
0238
0438
0838
1038
2078
7FFE
FFFE
FFFE
0070
00F0
00F0
01E0
07FC
ENDCHAR
STARTCHAR five
ENCODING 53
SWIDTH 636 0
DWIDTH 17 0
BBX 15 19 3 0
BITMAP
0FFE
0FFE
0FFE
1800
1800
1000
1000
1F00
03E0
00F0
0078
0078
0078
0078
0078
4070
C0E0
E1C0
FF00
ENDCHAR
STARTCHAR six
ENCODING 54
SWIDTH 636 0
DWIDTH 17 0
BBX 15 19 3 0
BITMAP
00FC
0386
0E06
1C06
3C06
3800
7800
7BF0
7C78
F83C
F03C
F03C
F03C
F03C
F038
7078
7070
38E0
0F80
ENDCHAR
STARTCHAR seven
ENCODING 55
SWIDTH 636 0
DWIDTH 17 0
BBX 14 19 5 0
BITMAP
3FFC
7FFC
7FF8
0018
0030
0060
00C0
0180
0180
0300
0600
0E00
1C00
3C00
3800
7800
7000
F000
F000
ENDCHAR
STARTCHAR eight
ENCODING 56
SWIDTH 636 0
DWIDTH 17 0
BBX 15 19 2 0
BITMAP
01F8
071C
0E0E
1E0E
1E0E
1E1E
1F1C
0FB8
07E0
0FF0
38F8
787C
703C
F01C
F01C
F018
F038
7860
1F80
ENDCHAR
STARTCHAR nine
ENCODING 57
SWIDTH 636 0
DWIDTH 17 0
BBX 15 19 2 0
BITMAP
03F0
0638
1C1C
1C1E
381E
380E
780E
781E
781E
381E
3C7E
0F9E
003C
003C
4038
4070
C0E0
E1C0
7F00
ENDCHAR
STARTCHAR colon
ENCODING 58
SWIDTH 265 0
DWIDTH 7 0
BBX 7 14 1 0
BITMAP
1E
1E
3C
3C
00
00
00
00
00
00
78
78
F0
F0
ENDCHAR
STARTCHAR semicolon
ENCODING 59
SWIDTH 265 0
DWIDTH 7 0
BBX 7 19 1 -5
BITMAP
1E
1E
1E
1C
00
00
00
00
00
00
00
78
78
78
38
30
30
60
C0
ENDCHAR
STARTCHAR less
ENCODING 60
SWIDTH 636 0
DWIDTH 16 0
BBX 17 16 2 0
BITMAP
000080
000380
000F00
003C00
00E000
038000
0E0000
F80000
780000
1E0000
0F8000
03C000
00F000
003C00
001C00
000400
ENDCHAR
STARTCHAR equal
ENCODING 61
SWIDTH 636 0
DWIDTH 16 0
BBX 16 7 2 4
BITMAP
7FFF
0000
0000
0000
0000
0000
FFFE
ENDCHAR
STARTCHAR greater
ENCODING 62
SWIDTH 636 0
DWIDTH 16 0
BBX 17 16 0 0
BITMAP
100000
1C0000
1E0000
078000
01E000
00F800
003C00
000F00
000F80
003800
00E000
038000
1E0000
780000
E00000
800000
ENDCHAR
STARTCHAR question
ENCODING 63
SWIDTH 493 0
DWIDTH 13 0
BBX 11 19 4 0
BITMAP
3F80
63C0
41E0
C1E0
01E0
01C0
0180
0300
0600
0C00
1800
3800
7800
7800
0000
0000
F000
F000
F000
ENDCHAR
STARTCHAR at
ENCODING 64
SWIDTH 861 0
DWIDTH 22 0
BBX 20 19 3 0
BITMAP
00FE00
030380
0400C0
180040
107020
218E20
430C30
460C30
C60C30
861C20
8C3820
8C2860
8C7840
8ED880
471F00
400000
200000
181000
07E000
ENDCHAR
STARTCHAR A
ENCODING 65
SWIDTH 765 0
DWIDTH 20 0
BBX 20 19 0 0
BITMAP
000E00
000E00
001E00
003E00
002F00
006F00
004F00
00CF00
018700
010780
030780
020780
07FF80
0C03C0
0803C0
1803C0
1003C0
3003E0
F80FF0
ENDCHAR
STARTCHAR B
ENCODING 66
SWIDTH 651 0
DWIDTH 17 0
BBX 17 19 1 0
BITMAP
0FFE00
078F00
078780
078780
070780
070780
070700
0F0E00
0F1C00
0FF000
0E3C00
0E1E00
1E0F00
1E0F00
1E0F00
1C0F00
3C1E00
3C3C00
FFF000
ENDCHAR
STARTCHAR C
ENCODING 67
SWIDTH 740 0
DWIDTH 19 0
BBX 18 19 3 0
BITMAP
007F80
0383C0
0701C0
0E0180
1C0180
3C0000
380000
780000
780000
F00000
F00000
F00000
F00000
F00000
F80000
780000
7C0000
3E0600
0FF800
ENDCHAR
STARTCHAR D
ENCODING 68
SWIDTH 822 0
DWIDTH 21 0
BBX 21 19 1 0
BITMAP
1FFF80
0783E0
0780F0
0780F0
078078
078078
0F0078
0F0078
0F0078
0F0078
0F00F0
0E00F0
1E00F0
1E01E0
1E01E0
1E03C0
3E0780
3E1E00
FFF800
ENDCHAR
STARTCHAR E
ENCODING 69
SWIDTH 630 0
DWIDTH 16 0
BBX 18 19 1 0
BITMAP
0FFFC0
07C0C0
078180
078000
078000
078000
078000
0F8000
0F0600
0FFC00
0F0400
0F0C00
1E0000
1E0000
1E0000
1E0000
1E0600
3E0600
FFFE00
ENDCHAR
STARTCHAR F
ENCODING 70
SWIDTH 602 0
DWIDTH 16 0
BBX 17 19 1 0
BITMAP
1FFF80
078180
078300
078000
078000
070000
0F0000
0F0000
0F0C00
0FF800
0E0800
1E0000
1E0000
1E0000
1E0000
1C0000
3C0000
3C0000
FF0000
ENDCHAR
STARTCHAR G
ENCODING 71
SWIDTH 780 0
DWIDTH 20 0
BBX 18 19 3 0
BITMAP
00FF80
03C3C0
0701C0
0E0180
1C0180
3C0000
380000
780000
780000
F00000
F03FC0
F00F00
F00F00
F00E00
F01E00
781E00
781E00
3E1E00
0FF000
ENDCHAR
STARTCHAR H
ENCODING 72
SWIDTH 827 0
DWIDTH 22 0
BBX 23 19 1 0
BITMAP
1FF1FE
07C078
078078
0780F0
0780F0
0780F0
0F00F0
0F00F0
0F00E0
0FFFE0
0F01E0
1E01E0
1E01E0
1E01C0
1E03C0
1E03C0
3C03C0
3C07C0
FF1FF0
ENDCHAR
STARTCHAR I
ENCODING 73
SWIDTH 372 0
DWIDTH 10 0
BBX 12 19 1 0
BITMAP
0FF0
07C0
0780
0780
0780
0780
0780
0F00
0F00
0F00
0F00
0F00
1E00
1E00
1E00
1E00
1E00
3E00
FF00
ENDCHAR
STARTCHAR J
ENCODING 74
SWIDTH 478 0
DWIDTH 12 0
BBX 16 23 0 -4
BITMAP
00FF
007C
007C
0078
0078
0078
0078
00F0
00F0
00F0
00F0
00F0
00E0
01E0
01E0
01E0
01E0
01C0
03C0
63C0
C380
E700
FC00
ENDCHAR
STARTCHAR K
ENCODING 75
SWIDTH 746 0
DWIDTH 19 0
BBX 20 19 1 0
BITMAP
1FE1F0
07C0C0
078180
078300
078400
070800
0F3000
0F6000
0FE000
0FF000
0EF000
0E7800
1E7C00
1E3C00
1E3E00
1C1F00
3C0F00
3C0F80
FF1FE0
ENDCHAR
STARTCHAR L
ENCODING 76
SWIDTH 611 0
DWIDTH 16 0
BBX 15 19 1 0
BITMAP
1FF0
07C0
0780
0780
0780
0780
0F00
0F00
0F00
0F00
0F00
1E00
1E00
1E00
1E00
1E06
3C06
3C0C
FFFC
ENDCHAR
STARTCHAR M
ENCODING 77
SWIDTH 926 0
DWIDTH 24 0
BBX 26 19 1 0
BITMAP
0F800FC0
07801F00
07C01F00
07C02E00
07C03E00
07C05E00
04E0DE00
0CE09C00
0CE11C00
0CE31C00
0C723C00
08763C00
18743C00
18783800
18383800
18307800
30207800
30007800
FC01FC00
ENDCHAR
STARTCHAR N
ENCODING 78
SWIDTH 797 0
DWIDTH 21 0
BBX 23 19 1 0
BITMAP
0F807E
078038
07C030
07C030
07E030
07F030
06F030
0C7860
0C7860
0C3C60
0C3C60
0C1E60
181E40
180FC0
180FC0
1807C0
1803C0
380380
FC0180
ENDCHAR
STARTCHAR O
ENCODING 79
SWIDTH 831 0
DWIDTH 22 0
BBX 20 19 3 0
BITMAP
007E00
01C380
0701C0
0E01E0
1C01E0
3C00F0
7800F0
7800F0
7800F0
F801E0
F001E0
F001E0
F001C0
F003C0
F00780
780700
780E00
3C3800
0FE000
ENDCHAR
STARTCHAR P
ENCODING 80
SWIDTH 628 0
DWIDTH 16 0
BBX 18 19 1 0
BITMAP
0FFF00
07C780
0783C0
0783C0
0783C0
0783C0
078380
0F0780
0F0F00
0F1E00
0FF000
0E0000
1E0000
1E0000
1E0000
1E0000
1E0000
3E0000
FF8000
ENDCHAR
STARTCHAR Q
ENCODING 81
SWIDTH 835 0
DWIDTH 22 0
BBX 22 24 3 -5
BITMAP
007E00
018380
0701C0
0E01E0
1C01E0
3C00F0
7800F0
7800F0
7800F0
F001F0
F001E0
F001E0
F001E0
F003C0
F007C0
780780
780F00
3C3E00
0FFC00
007800
002000
001800
000700
0001FC
ENDCHAR
STARTCHAR R
ENCODING 82
SWIDTH 711 0
DWIDTH 18 0
BBX 18 19 1 0
BITMAP
0FFF00
078780
0783C0
0783C0
0783C0
0783C0
070780
0F0780
0F1F00
0FFC00
0F7800
0E3C00
1E3C00
1E1E00
1E1E00
1E0F00
1C0F00
3C0F80
FF07C0
ENDCHAR
STARTCHAR S
ENCODING 83
SWIDTH 587 0
DWIDTH 15 0
BBX 15 19 2 0
BITMAP
01FC
070E
0E06
1E0C
1E00
1E00
1F00
1F80
0FC0
07E0
03F0
00F8
0078
0078
0078
6078
C0F0
E1E0
7F80
ENDCHAR
STARTCHAR T
ENCODING 84
SWIDTH 716 0
DWIDTH 19 0
BBX 18 19 4 0
BITMAP
7FFFC0
E1E0C0
C1E080
C1E180
01C000
03C000
03C000
03C000
03C000
03C000
078000
078000
078000
078000
078000
0F0000
0F0000
0F0000
7FC000
ENDCHAR
STARTCHAR U
ENCODING 85
SWIDTH 775 0
DWIDTH 20 0
BBX 19 19 4 0
BITMAP
FF07E0
3E0180
3C0180
3C0100
3C0100
780100
780300
780200
780200
780200
F00200
F00600
F00400
F00400
F00400
F00800
701800
383000
1FC000
ENDCHAR
STARTCHAR V
ENCODING 86
SWIDTH 741 0
DWIDTH 19 0
BBX 20 19 3 0
BITMAP
FF01F0
7C00C0
3C0080
3C0080
3C0100
1E0300
1E0200
1E0400
1E0C00
1E0800
0F1000
0F1000
0F2000
0F6000
0F4000
078000
078000
070000
060000
ENDCHAR
STARTCHAR W
ENCODING 87
SWIDTH 922 0
DWIDTH 24 0
BBX 24 19 4 0
BITMAP
FE0C1F
781C06
781C0C
383C08
383C18
387C10
385C30
38DC20
389C60
399C40
3D1EC0
3D1E80
3E1F80
3E1F00
3C1F00
3C0E00
3C0E00
380C00
380C00
ENDCHAR
STARTCHAR X
ENCODING 88
SWIDTH 672 0
DWIDTH 17 0
BBX 20 19 0 0
BITMAP
0FE1F0
07C0C0
03C180
03C100
01E300
01E600
01EC00
00F800
00F000
007800
00F800
01F800
033C00
063C00
0C1E00
081E00
101E00
300F00
F83F80
ENDCHAR
STARTCHAR Y
ENCODING 89
SWIDTH 669 0
DWIDTH 17 0
BBX 18 19 3 0
BITMAP
FF07C0
7C0300
3C0200
3C0600
1E0C00
1E1800
1E3000
0F2000
0F6000
07C000
078000
078000
078000
0F0000
0F0000
0F0000
0F0000
1F0000
7FC000
ENDCHAR
STARTCHAR Z
ENCODING 90
SWIDTH 684 0
DWIDTH 18 0
BBX 18 19 2 0
BITMAP
0FFFC0
0C0780
0C0F80
001F00
001E00
003C00
007C00
00F800
01F000
01E000
03C000
07C000
0F8000
0F0000
1E0000
3E0000
7C0600
F80E00
FFFE00
ENDCHAR
STARTCHAR bracketleft
ENCODING 91
SWIDTH 336 0
DWIDTH 9 0
BBX 11 24 1 -4
BITMAP
07E0
0700
0F00
0F00
0E00
0E00
0E00
1E00
1E00
1C00
1C00
1C00
3C00
3C00
3800
3800
3800
7800
7800
7000
7000
7000
F000
FC00
ENDCHAR
STARTCHAR backslash
ENCODING 92
SWIDTH 515 0
DWIDTH 13 0
BBX 8 24 4 -4
BITMAP
C0
40
40
40
20
20
20
20
10
10
10
10
08
08
08
08
04
04
04
04
02
02
02
03
ENDCHAR
STARTCHAR bracketright
ENCODING 93
SWIDTH 336 0
DWIDTH 9 0
BBX 11 24 0 -4
BITMAP
07E0
01E0
01C0
01C0
01C0
03C0
03C0
0380
0380
0380
0780
0780
0700
0700
0700
0F00
0F00
0E00
0E00
0E00
1E00
1E00
1C00
FC00
ENDCHAR
STARTCHAR asciicircum
ENCODING 94
SWIDTH 636 0
DWIDTH 16 0
BBX 15 16 1 3
BITMAP
0020
0020
0060
00E0
00F0
01B0
0330
0318
0618
0C18
0C18
180C
300C
300C
6006
C006
ENDCHAR
STARTCHAR underscore
ENCODING 95
SWIDTH 500 0
DWIDTH 13 0
BBX 11 1 1 -3
BITMAP
FFE0
ENDCHAR
STARTCHAR grave
ENCODING 96
SWIDTH 599 0
DWIDTH 16 0
BBX 5 4 9 16
BITMAP
E0
70
30
18
ENDCHAR
STARTCHAR a
ENCODING 97
SWIDTH 634 0
DWIDTH 16 0
BBX 15 14 2 0
BITMAP
01FE
063E
0C1E
181C
383C
783C
707C
707C
F0B8
F1F8
F378
FE78
FC78
787C
ENDCHAR
STARTCHAR b
ENCODING 98
SWIDTH 633 0
DWIDTH 16 0
BBX 15 20 2 0
BITMAP
3F00
1E00
1E00
1E00
1E00
1E00
1C3C
3C7E
3CFE
3D9E
3F1E
3A1E
7C1C
781C
783C
7838
7030
F060
F8C0
FF00
ENDCHAR
STARTCHAR c
ENCODING 99
SWIDTH 524 0
DWIDTH 14 0
BBX 13 14 2 0
BITMAP
01F8
0638
1C18
3818
3800
7800
7000
F000
F000
F000
F000
F000
7820
1FC0
ENDCHAR
STARTCHAR d
ENCODING 100
SWIDTH 634 0
DWIDTH 16 0
BBX 16 20 2 0
BITMAP
003F
000F
000F
000E
001E
001E
01FE
063E
0C1C
183C
383C
783C
703C
7078
F0B8
F1F8
F378
FE78
FC78
78FC
ENDCHAR
STARTCHAR e
ENCODING 101
SWIDTH 548 0
DWIDTH 14 0
BBX 13 14 2 0
BITMAP
03E0
0470
1C78
3878
3870
7070
70E0
F3C0
FF00
F000
F000
F010
7870
1F80
ENDCHAR
STARTCHAR f
ENCODING 102
SWIDTH 415 0
DWIDTH 11 0
BBX 14 25 2 -5
BITMAP
00FC
038C
070C
0708
0F00
0F00
3FE0
1E00
1E00
1E00
1E00
1C00
3C00
3C00
3C00
3C00
3800
7800
7800
7800
7800
7000
F000
F000
F000
ENDCHAR
STARTCHAR g
ENCODING 103
SWIDTH 628 0
DWIDTH 16 0
BBX 16 19 1 -5
BITMAP
00FF
031F
060F
0C0E
1C0E
3C1E
383E
783E
785C
78FC
79BC
7F3C
7E38
3C38
0078
8070
C070
70C0
7F00
ENDCHAR
STARTCHAR h
ENCODING 104
SWIDTH 656 0
DWIDTH 17 0
BBX 15 20 2 0
BITMAP
3F00
1F00
0E00
1E00
1E00
1E00
1E1C
1C7E
3CFE
3D9E
3F1E
3E1C
3C1C
7C3C
783C
783C
7838
7078
F078
F07E
ENDCHAR
STARTCHAR i
ENCODING 105
SWIDTH 319 0
DWIDTH 8 0
BBX 8 19 2 0
BITMAP
0F
0F
1E
00
00
7E
3C
3C
3C
3C
3C
38
78
78
78
78
70
F8
FC
ENDCHAR
STARTCHAR j
ENCODING 106
SWIDTH 381 0
DWIDTH 10 0
BBX 14 24 -1 -5
BITMAP
003C
003C
0038
0000
0000
01F8
0078
0070
00F0
00F0
00F0
00E0
00E0
01E0
01E0
01E0
01C0
01C0
03C0
03C0
4380
C300
C600
FC00
ENDCHAR
STARTCHAR k
ENCODING 107
SWIDTH 626 0
DWIDTH 16 0
BBX 14 20 2 0
BITMAP
3F00
1E00
1E00
1E00
1E00
1C00
1C3C
3C3C
3C38
3C70
3CE0
3B80
7F80
7B80
7BC0
79E0
71E0
F0F0
F0F8
F07C
ENDCHAR
STARTCHAR l
ENCODING 108
SWIDTH 319 0
DWIDTH 8 0
BBX 8 20 2 0
BITMAP
3F
0F
0E
1E
1E
1E
1E
1C
3C
3C
3C
3C
38
78
78
78
78
70
F0
FC
ENDCHAR
STARTCHAR m
ENCODING 109
SWIDTH 969 0
DWIDTH 25 0
BBX 23 14 2 0
BITMAP
7E381C
3C7C7E
3CFCFE
3D9D9E
3F3D1E
3E3E1C
7C3E1C
783C3C
78383C
70783C
707838
F07838
F07078
F0707E
ENDCHAR
STARTCHAR n
ENCODING 110
SWIDTH 656 0
DWIDTH 17 0
BBX 15 14 2 0
BITMAP
7E1C
3C7E
3CFE
3D9E
3D1E
3E1C
3C1C
7C3C
783C
783C
7838
7078
F078
F07E
ENDCHAR
STARTCHAR o
ENCODING 111
SWIDTH 599 0
DWIDTH 16 0
BBX 14 14 2 0
BITMAP
01F0
0638
1C3C
3C3C
383C
783C
703C
F03C
F038
F038
F070
F060
78C0
3F00
ENDCHAR
STARTCHAR p
ENCODING 112
SWIDTH 639 0
DWIDTH 17 0
BBX 16 19 1 -5
BITMAP
7E1E
1E3F
1E7F
1ECF
1F8F
1D0F
3E0F
3C0E
3C1E
3C1C
3818
7830
7C60
7F80
7800
7000
F000
F000
F000
ENDCHAR
STARTCHAR q
ENCODING 113
SWIDTH 630 0
DWIDTH 16 0
BBX 15 19 2 -5
BITMAP
01FE
063E
0C1E
181C
383C
783C
703C
707C
F0B8
F1F8
F378
FE78
FC78
7870
00F0
00F0
00F0
00F0
00E0
ENDCHAR
STARTCHAR r
ENCODING 114
SWIDTH 496 0
DWIDTH 13 0
BBX 13 14 2 0
BITMAP
7C38
3C70
3CF0
3D90
3F00
3A00
7C00
7800
7800
7800
7000
F000
F000
F000
ENDCHAR
STARTCHAR s
ENCODING 115
SWIDTH 479 0
DWIDTH 12 0
BBX 12 14 1 0
BITMAP
07F0
0C30
1C30
1C30
1C00
1E00
0F80
07C0
03C0
01E0
41E0
C1C0
E380
7F00
ENDCHAR
STARTCHAR t
ENCODING 116
SWIDTH 375 0
DWIDTH 10 0
BBX 9 18 3 0
BITMAP
0C00
1C00
3C00
3C00
FF80
3C00
3800
7800
7800
7800
7800
7000
F000
F000
F000
F000
7200
3C00
ENDCHAR
STARTCHAR u
ENCODING 117
SWIDTH 655 0
DWIDTH 17 0
BBX 15 14 3 0
BITMAP
FC7E
3C1E
3C1C
383C
783C
783C
787C
7078
70F8
F1F8
F378
FE78
FC78
70FC
ENDCHAR
STARTCHAR v
ENCODING 118
SWIDTH 584 0
DWIDTH 15 0
BBX 15 14 2 0
BITMAP
F83E
7C1E
3C0E
3C0C
3C1C
1E18
1E30
1E60
1EC0
0E80
0F80
0F00
0E00
0C00
ENDCHAR
STARTCHAR w
ENCODING 119
SWIDTH 822 0
DWIDTH 21 0
BBX 21 14 2 0
BITMAP
F81078
783078
383830
3C3830
3C7860
1C7840
1CFCC0
1C9C80
1F1D00
1F1F00
1E1E00
1C1C00
0C1800
081800
ENDCHAR
STARTCHAR x
ENCODING 120
SWIDTH 534 0
DWIDTH 14 0
BBX 14 14 1 0
BITMAP
3E3C
1E1C
0E1C
0F18
0730
07E0
0780
07C0
0FC0
19E0
71E0
60F0
E0F0
E078
ENDCHAR
STARTCHAR y
ENCODING 121
SWIDTH 586 0
DWIDTH 15 0
BBX 18 19 0 -5
BITMAP
1F07C0
0F03C0
0781C0
078180
078380
038300
03C600
03CC00
03D800
03F000
01E000
01E000
01C000
018000
030000
060000
0C0000
1C0000
F80000
ENDCHAR
STARTCHAR z
ENCODING 122
SWIDTH 567 0
DWIDTH 15 0
BBX 15 14 1 0
BITMAP
1FFE
183C
1878
3078
00F0
01E0
03C0
0780
0F00
1E00
3E00
7C08
7818
FFF8
ENDCHAR
STARTCHAR braceleft
ENCODING 123
SWIDTH 361 0
DWIDTH 9 0
BBX 9 24 3 -4
BITMAP
0780
0E00
1E00
1E00
1E00
1E00
1E00
1E00
1C00
1C00
3800
F000
2000
3800
3800
3800
7800
7800
7000
F000
F000
E000
7000
3800
ENDCHAR
STARTCHAR bar
ENCODING 124
SWIDTH 253 0
DWIDTH 7 0
BBX 7 24 1 -4
BITMAP
06
06
0C
0C
0C
0C
0C
18
18
18
18
18
30
30
30
30
30
60
60
60
60
60
C0
C0
ENDCHAR
STARTCHAR braceright
ENCODING 125
SWIDTH 361 0
DWIDTH 9 0
BBX 9 24 1 -4
BITMAP
0E00
0700
0380
0380
0780
0780
0F00
0F00
0E00
0E00
0600
0200
0780
0E00
1C00
1C00
3C00
3C00
3C00
3C00
3C00
3C00
3800
F000
ENDCHAR
STARTCHAR asciitilde
ENCODING 126
SWIDTH 636 0
DWIDTH 16 0
BBX 16 6 2 5
BITMAP
1E01
2703
4382
41C2
80E4
8078
ENDCHAR
STARTCHAR space
ENCODING 160
SWIDTH 333 0
DWIDTH 8 0
BBX 1 1 0 0
BITMAP
00
ENDCHAR
STARTCHAR uni1E02
ENCODING 161
SWIDTH 651 0
DWIDTH 17 0
BBX 17 23 1 0
BITMAP
007000
00F000
00E000
000000
0FFE00
078F00
078780
078780
070780
070780
070700
0F0E00
0F1C00
0FF000
0E3C00
0E1E00
1E0F00
1E0F00
1E0F00
1C0F00
3C1E00
3C3C00
FFF000
ENDCHAR
STARTCHAR uni1E03
ENCODING 162
SWIDTH 633 0
DWIDTH 16 0
BBX 15 24 2 0
BITMAP
0700
0F00
0E00
0000
3F00
1E00
1E00
1E00
1E00
1E00
1C3C
3C7E
3CFE
3D9E
3F1E
3A1E
7C1C
781C
783C
7838
7030
F060
F8C0
FF00
ENDCHAR
STARTCHAR sterling
ENCODING 163
SWIDTH 636 0
DWIDTH 17 0
BBX 15 19 3 0
BITMAP
007C
01CE
0386
0384
0780
0780
0700
0F00
3FE0
0F00
0F00
0E00
1E00
1C00
1C00
3000
FFF0
FFF0
FFE0
ENDCHAR
STARTCHAR Cdotaccent
ENCODING 164
SWIDTH 740 0
DWIDTH 19 0
BBX 18 23 3 0
BITMAP
003800
007800
007000
000000
007F80
0383C0
0701C0
0E0180
1C0180
3C0000
380000
780000
780000
F00000
F00000
F00000
F00000
F00000
F80000
780000
7C0000
3E0600
0FF800
ENDCHAR
STARTCHAR cdotaccent
ENCODING 165
SWIDTH 524 0
DWIDTH 14 0
BBX 13 18 2 0
BITMAP
01C0
03C0
0380
0000
01F8
0638
1C18
3818
3800
7800
7000
F000
F000
F000
F000
F000
7820
1FC0
ENDCHAR
STARTCHAR uni1E0A
ENCODING 166
SWIDTH 822 0
DWIDTH 21 0
BBX 21 23 1 0
BITMAP
001C00
003C00
003800
000000
1FFF80
0783E0
0780F0
0780F0
078078
078078
0F0078
0F0078
0F0078
0F0078
0F00F0
0E00F0
1E00F0
1E01E0
1E01E0
1E03C0
3E0780
3E1E00
FFF800
ENDCHAR
STARTCHAR section
ENCODING 167
SWIDTH 636 0
DWIDTH 17 0
BBX 15 24 2 -5
BITMAP
01FC
070E
0E06
0E04
1E00
1E00
1F80
0FE0
07F0
09F8
187C
383C
3818
3C18
3F30
1FE0
07F0
01F0
00F0
0070
4070
C060
E1C0
7F00
ENDCHAR
STARTCHAR Wgrave
ENCODING 168
SWIDTH 922 0
DWIDTH 24 0
BBX 24 24 4 0
BITMAP
00E000
007000
003000
001800
000000
FE0C1F
781C06
781C0C
383C08
383C18
387C10
385C30
38DC20
389C60
399C40
3D1EC0
3D1E80
3E1F80
3E1F00
3C1F00
3C0E00
3C0E00
380C00
380C00
ENDCHAR
STARTCHAR copyright
ENCODING 169
SWIDTH 853 0
DWIDTH 22 0
BBX 20 19 3 0
BITMAP
01F800
060600
180100
300080
20FC40
418660
430420
C60030
860030
8E0030
8E0030
CE0030
460020
470860
21F040
300080
180100
060600
01F800
ENDCHAR
STARTCHAR Wacute
ENCODING 170
SWIDTH 922 0
DWIDTH 24 0
BBX 24 24 4 0
BITMAP
000F00
001C00
003800
006000
000000
FE0C1F
781C06
781C0C
383C08
383C18
387C10
385C30
38DC20
389C60
399C40
3D1EC0
3D1E80
3E1F80
3E1F00
3C1F00
3C0E00
3C0E00
380C00
380C00
ENDCHAR
STARTCHAR uni1E0B
ENCODING 171
SWIDTH 634 0
DWIDTH 16 0
BBX 16 24 2 0
BITMAP
001C
003C
0038
0000
003F
000F
000F
000E
001E
001E
01FE
063E
0C1C
183C
383C
783C
703C
7078
F0B8
F1F8
F378
FE78
FC78
78FC
ENDCHAR
STARTCHAR Ygrave
ENCODING 172
SWIDTH 669 0
DWIDTH 17 0
BBX 18 24 3 0
BITMAP
070000
038000
018000
00C000
000000
FF07C0
7C0300
3C0200
3C0600
1E0C00
1E1800
1E3000
0F2000
0F6000
07C000
078000
078000
078000
0F0000
0F0000
0F0000
0F0000
1F0000
7FC000
ENDCHAR
STARTCHAR hyphen
ENCODING 173
SWIDTH 289 0
DWIDTH 8 0
BBX 6 1 2 9
BITMAP
FC
ENDCHAR
STARTCHAR registered
ENCODING 174
SWIDTH 636 0
DWIDTH 17 0
BBX 11 13 5 6
BITMAP
1F00
3080
4040
4FA0
89A0
89A0
8F20
8A20
9B20
5B20
4040
3080
1F00
ENDCHAR
STARTCHAR Ydieresis
ENCODING 175
SWIDTH 669 0
DWIDTH 17 0
BBX 18 23 3 0
BITMAP
039C00
039C00
039C00
000000
FF07C0
7C0300
3C0200
3C0600
1E0C00
1E1800
1E3000
0F2000
0F6000
07C000
078000
078000
078000
0F0000
0F0000
0F0000
0F0000
1F0000
7FC000
ENDCHAR
STARTCHAR uni1E1E
ENCODING 176
SWIDTH 602 0
DWIDTH 16 0
BBX 17 23 1 0
BITMAP
00E000
01E000
01C000
000000
1FFF80
078180
078300
078000
078000
070000
0F0000
0F0000
0F0C00
0FF800
0E0800
1E0000
1E0000
1E0000
1E0000
1C0000
3C0000
3C0000
FF0000
ENDCHAR
STARTCHAR uni1E1F
ENCODING 177
SWIDTH 415 0
DWIDTH 11 0
BBX 14 29 2 -5
BITMAP
01C0
03C0
0380
0000
00FC
038C
070C
0708
0F00
0F00
3FE0
1E00
1E00
1E00
1E00
1C00
3C00
3C00
3C00
3C00
3800
7800
7800
7800
7800
7000
F000
F000
F000
ENDCHAR
STARTCHAR Gdotaccent
ENCODING 178
SWIDTH 780 0
DWIDTH 20 0
BBX 18 23 3 0
BITMAP
003800
007800
007000
000000
00FF80
03C3C0
0701C0
0E0180
1C0180
3C0000
380000
780000
780000
F00000
F03FC0
F00F00
F00F00
F00E00
F01E00
781E00
781E00
3E1E00
0FF000
ENDCHAR
STARTCHAR gdotaccent
ENCODING 179
SWIDTH 628 0
DWIDTH 16 0
BBX 16 23 1 -5
BITMAP
0070
00F0
00E0
0000
00FF
031F
060F
0C0E
1C0E
3C1E
383E
783E
785C
78FC
79BC
7F3C
7E38
3C38
0078
8070
C070
70C0
7F00
ENDCHAR
STARTCHAR uni1E40
ENCODING 180
SWIDTH 926 0
DWIDTH 24 0
BBX 26 23 1 0
BITMAP
00070000
000F0000
000E0000
00000000
0F800FC0
07801F00
07C01F00
07C02E00
07C03E00
07C05E00
04E0DE00
0CE09C00
0CE11C00
0CE31C00
0C723C00
08763C00
18743C00
18783800
18383800
18307800
30207800
30007800
FC01FC00
ENDCHAR
STARTCHAR uni1E41
ENCODING 181
SWIDTH 969 0
DWIDTH 25 0
BBX 23 18 2 0
BITMAP
001C00
003C00
003800
000000
7E381C
3C7C7E
3CFCFE
3D9D9E
3F3D1E
3E3E1C
7C3E1C
783C3C
78383C
70783C
707838
F07838
F07078
F0707E
ENDCHAR
STARTCHAR paragraph
ENCODING 182
SWIDTH 636 0
DWIDTH 17 0
BBX 11 23 4 -4
BITMAP
3FE0
7E20
FE20
FE60
FC60
FC40
FC40
7C40
3CC0
08C0
0880
0880
0880
1980
1180
1100
1100
1100
3100
3300
2200
2200
2200
ENDCHAR
STARTCHAR uni1E56
ENCODING 183
SWIDTH 628 0
DWIDTH 16 0
BBX 18 23 1 0
BITMAP
003800
007800
007000
000000
0FFF00
07C780
0783C0
0783C0
0783C0
0783C0
078380
0F0780
0F0F00
0F1E00
0FF000
0E0000
1E0000
1E0000
1E0000
1E0000
1E0000
3E0000
FF8000
ENDCHAR
STARTCHAR wgrave
ENCODING 184
SWIDTH 822 0
DWIDTH 21 0
BBX 21 19 2 0
BITMAP
01C000
00E000
006000
003000
000000
F81078
783078
383830
3C3830
3C7860
1C7840
1CFCC0
1C9C80
1F1D00
1F1F00
1E1E00
1C1C00
0C1800
081800
ENDCHAR
STARTCHAR uni1E57
ENCODING 185
SWIDTH 639 0
DWIDTH 17 0
BBX 16 23 1 -5
BITMAP
00E0
01E0
01C0
0000
7E1E
1E3F
1E7F
1ECF
1F8F
1D0F
3E0F
3C0E
3C1E
3C1C
3818
7830
7C60
7F80
7800
7000
F000
F000
F000
ENDCHAR
STARTCHAR wacute
ENCODING 186
SWIDTH 822 0
DWIDTH 21 0
BBX 21 19 2 0
BITMAP
001E00
003800
007000
00C000
000000
F81078
783078
383830
3C3830
3C7860
1C7840
1CFCC0
1C9C80
1F1D00
1F1F00
1E1E00
1C1C00
0C1800
081800
ENDCHAR
STARTCHAR uni1E60
ENCODING 187
SWIDTH 587 0
DWIDTH 15 0
BBX 15 23 2 0
BITMAP
00E0
01E0
01C0
0000
01FC
070E
0E06
1E0C
1E00
1E00
1F00
1F80
0FC0
07E0
03F0
00F8
0078
0078
0078
6078
C0F0
E1E0
7F80
ENDCHAR
STARTCHAR ygrave
ENCODING 188
SWIDTH 586 0
DWIDTH 15 0
BBX 18 24 0 -5
BITMAP
01C000
00E000
006000
003000
000000
1F07C0
0F03C0
0781C0
078180
078380
038300
03C600
03CC00
03D800
03F000
01E000
01E000
01C000
018000
030000
060000
0C0000
1C0000
F80000
ENDCHAR
STARTCHAR Wdieresis
ENCODING 189
SWIDTH 922 0
DWIDTH 24 0
BBX 24 23 4 0
BITMAP
01CE00
01CE00
01CE00
000000
FE0C1F
781C06
781C0C
383C08
383C18
387C10
385C30
38DC20
389C60
399C40
3D1EC0
3D1E80
3E1F80
3E1F00
3C1F00
3C0E00
3C0E00
380C00
380C00
ENDCHAR
STARTCHAR wdieresis
ENCODING 190
SWIDTH 822 0
DWIDTH 21 0
BBX 21 18 2 0
BITMAP
039C00
039C00
039C00
000000
F81078
783078
383830
3C3830
3C7860
1C7840
1CFCC0
1C9C80
1F1D00
1F1F00
1E1E00
1C1C00
0C1800
081800
ENDCHAR
STARTCHAR uni1E61
ENCODING 191
SWIDTH 479 0
DWIDTH 12 0
BBX 12 18 1 0
BITMAP
0380
0780
0700
0000
07F0
0C30
1C30
1C30
1C00
1E00
0F80
07C0
03C0
01E0
41E0
C1C0
E380
7F00
ENDCHAR
STARTCHAR Agrave
ENCODING 192
SWIDTH 765 0
DWIDTH 20 0
BBX 20 24 0 0
BITMAP
001C00
000E00
000600
000300
000000
000E00
000E00
001E00
003E00
002F00
006F00
004F00
00CF00
018700
010780
030780
020780
07FF80
0C03C0
0803C0
1803C0
1003C0
3003E0
F80FF0
ENDCHAR
STARTCHAR Aacute
ENCODING 193
SWIDTH 765 0
DWIDTH 20 0
BBX 20 24 0 0
BITMAP
0001E0
000380
000700
000C00
000000
000E00
000E00
001E00
003E00
002F00
006F00
004F00
00CF00
018700
010780
030780
020780
07FF80
0C03C0
0803C0
1803C0
1003C0
3003E0
F80FF0
ENDCHAR
STARTCHAR Acircumflex
ENCODING 194
SWIDTH 765 0
DWIDTH 20 0
BBX 20 24 0 0
BITMAP
000F00
001F80
003980
0060C0
000000
000E00
000E00
001E00
003E00
002F00
006F00
004F00
00CF00
018700
010780
030780
020780
07FF80
0C03C0
0803C0
1803C0
1003C0
3003E0
F80FF0
ENDCHAR
STARTCHAR Atilde
ENCODING 195
SWIDTH 765 0
DWIDTH 20 0
BBX 20 23 0 0
BITMAP
000E20
001FC0
002380
000000
000E00
000E00
001E00
003E00
002F00
006F00
004F00
00CF00
018700
010780
030780
020780
07FF80
0C03C0
0803C0
1803C0
1003C0
3003E0
F80FF0
ENDCHAR
STARTCHAR Adieresis
ENCODING 196
SWIDTH 765 0
DWIDTH 20 0
BBX 20 23 0 0
BITMAP
0039C0
0039C0
0039C0
000000
000E00
000E00
001E00
003E00
002F00
006F00
004F00
00CF00
018700
010780
030780
020780
07FF80
0C03C0
0803C0
1803C0
1003C0
3003E0
F80FF0
ENDCHAR
STARTCHAR Aring
ENCODING 197
SWIDTH 765 0
DWIDTH 20 0
BBX 20 24 0 0
BITMAP
000600
000900
000900
000600
000000
000E00
000E00
001E00
003E00
002F00
006F00
004F00
00CF00
018700
010780
030780
020780
07FF80
0C03C0
0803C0
1803C0
1003C0
3003E0
F80FF0
ENDCHAR
STARTCHAR AE
ENCODING 198
SWIDTH 958 0
DWIDTH 25 0
BBX 27 19 0 0
BITMAP
0001FFE0
0003E060
0007E0C0
000DC000
000BC000
0013C000
0033C000
0063C300
0043FF00
00878300
01878300
03078000
03FF8000
06070000
0C0F0000
180F0000
380F0300
700F0300
F87FFF00
ENDCHAR
STARTCHAR Ccedilla
ENCODING 199
SWIDTH 740 0
DWIDTH 19 0
BBX 18 24 3 -5
BITMAP
007F80
0383C0
0701C0
0E0180
1C0180
3C0000
380000
780000
780000
F00000
F00000
F00000
F00000
F00000
F80000
780000
7C0000
3E0600
0FF800
040000
070000
030000
030000
1E0000
ENDCHAR
STARTCHAR Egrave
ENCODING 200
SWIDTH 630 0
DWIDTH 16 0
BBX 18 24 1 0
BITMAP
007000
003800
001800
000C00
000000
0FFFC0
07C0C0
078180
078000
078000
078000
078000
0F8000
0F0600
0FFC00
0F0400
0F0C00
1E0000
1E0000
1E0000
1E0000
1E0600
3E0600
FFFE00
ENDCHAR
STARTCHAR Eacute
ENCODING 201
SWIDTH 630 0
DWIDTH 16 0
BBX 18 24 1 0
BITMAP
000F00
001C00
003800
006000
000000
0FFFC0
07C0C0
078180
078000
078000
078000
078000
0F8000
0F0600
0FFC00
0F0400
0F0C00
1E0000
1E0000
1E0000
1E0000
1E0600
3E0600
FFFE00
ENDCHAR
STARTCHAR Ecircumflex
ENCODING 202
SWIDTH 630 0
DWIDTH 16 0
BBX 18 24 1 0
BITMAP
003C00
007E00
00E600
018300
000000
0FFFC0
07C0C0
078180
078000
078000
078000
078000
0F8000
0F0600
0FFC00
0F0400
0F0C00
1E0000
1E0000
1E0000
1E0000
1E0600
3E0600
FFFE00
ENDCHAR
STARTCHAR Edieresis
ENCODING 203
SWIDTH 630 0
DWIDTH 16 0
BBX 18 23 1 0
BITMAP
00E700
00E700
00E700
000000
0FFFC0
07C0C0
078180
078000
078000
078000
078000
0F8000
0F0600
0FFC00
0F0400
0F0C00
1E0000
1E0000
1E0000
1E0000
1E0600
3E0600
FFFE00
ENDCHAR
STARTCHAR Igrave
ENCODING 204
SWIDTH 372 0
DWIDTH 10 0
BBX 12 24 1 0
BITMAP
0700
0380
0180
00C0
0000
0FF0
07C0
0780
0780
0780
0780
0780
0F00
0F00
0F00
0F00
0F00
1E00
1E00
1E00
1E00
1E00
3E00
FF00
ENDCHAR
STARTCHAR Iacute
ENCODING 205
SWIDTH 372 0
DWIDTH 10 0
BBX 13 24 1 0
BITMAP
0078
00E0
01C0
0300
0000
0FF0
07C0
0780
0780
0780
0780
0780
0F00
0F00
0F00
0F00
0F00
1E00
1E00
1E00
1E00
1E00
3E00
FF00
ENDCHAR
STARTCHAR Icircumflex
ENCODING 206
SWIDTH 372 0
DWIDTH 10 0
BBX 13 24 1 0
BITMAP
01E0
03F0
0730
0C18
0000
0FF0
07C0
0780
0780
0780
0780
0780
0F00
0F00
0F00
0F00
0F00
1E00
1E00
1E00
1E00
1E00
3E00
FF00
ENDCHAR
STARTCHAR Idieresis
ENCODING 207
SWIDTH 372 0
DWIDTH 10 0
BBX 12 23 1 0
BITMAP
0E70
0E70
0E70
0000
0FF0
07C0
0780
0780
0780
0780
0780
0F00
0F00
0F00
0F00
0F00
1E00
1E00
1E00
1E00
1E00
3E00
FF00
ENDCHAR
STARTCHAR Wcircumflex
ENCODING 208
SWIDTH 922 0
DWIDTH 24 0
BBX 24 24 4 0
BITMAP
003C00
007E00
00E600
018300
000000
FE0C1F
781C06
781C0C
383C08
383C18
387C10
385C30
38DC20
389C60
399C40
3D1EC0
3D1E80
3E1F80
3E1F00
3C1F00
3C0E00
3C0E00
380C00
380C00
ENDCHAR
STARTCHAR Ntilde
ENCODING 209
SWIDTH 797 0
DWIDTH 21 0
BBX 23 23 1 0
BITMAP
000E20
001FC0
002380
000000
0F807E
078038
07C030
07C030
07E030
07F030
06F030
0C7860
0C7860
0C3C60
0C3C60
0C1E60
181E40
180FC0
180FC0
1807C0
1803C0
380380
FC0180
ENDCHAR
STARTCHAR Ograve
ENCODING 210
SWIDTH 831 0
DWIDTH 22 0
BBX 20 24 3 0
BITMAP
007000
003800
001800
000C00
000000
007E00
01C380
0701C0
0E01E0
1C01E0
3C00F0
7800F0
7800F0
7800F0
F801E0
F001E0
F001E0
F001C0
F003C0
F00780
780700
780E00
3C3800
0FE000
ENDCHAR
STARTCHAR Oacute
ENCODING 211
SWIDTH 831 0
DWIDTH 22 0
BBX 20 24 3 0
BITMAP
000780
000E00
001C00
003000
000000
007E00
01C380
0701C0
0E01E0
1C01E0
3C00F0
7800F0
7800F0
7800F0
F801E0
F001E0
F001E0
F001C0
F003C0
F00780
780700
780E00
3C3800
0FE000
ENDCHAR
STARTCHAR Ocircumflex
ENCODING 212
SWIDTH 831 0
DWIDTH 22 0
BBX 20 24 3 0
BITMAP
003C00
007E00
00E600
018300
000000
007E00
01C380
0701C0
0E01E0
1C01E0
3C00F0
7800F0
7800F0
7800F0
F801E0
F001E0
F001E0
F001C0
F003C0
F00780
780700
780E00
3C3800
0FE000
ENDCHAR
STARTCHAR Otilde
ENCODING 213
SWIDTH 831 0
DWIDTH 22 0
BBX 20 23 3 0
BITMAP
003880
007F00
008E00
000000
007E00
01C380
0701C0
0E01E0
1C01E0
3C00F0
7800F0
7800F0
7800F0
F801E0
F001E0
F001E0
F001C0
F003C0
F00780
780700
780E00
3C3800
0FE000
ENDCHAR
STARTCHAR Odieresis
ENCODING 214
SWIDTH 831 0
DWIDTH 22 0
BBX 20 23 3 0
BITMAP
00E700
00E700
00E700
000000
007E00
01C380
0701C0
0E01E0
1C01E0
3C00F0
7800F0
7800F0
7800F0
F801E0
F001E0
F001E0
F001C0
F003C0
F00780
780700
780E00
3C3800
0FE000
ENDCHAR
STARTCHAR uni1E6A
ENCODING 215
SWIDTH 716 0
DWIDTH 19 0
BBX 18 23 4 0
BITMAP
00E000
01E000
01C000
000000
7FFFC0
E1E0C0
C1E080
C1E180
01C000
03C000
03C000
03C000
03C000
03C000
078000
078000
078000
078000
078000
0F0000
0F0000
0F0000
7FC000
ENDCHAR
STARTCHAR Oslash
ENCODING 216
SWIDTH 831 0
DWIDTH 22 0
BBX 23 19 1 0
BITMAP
001F86
00E1E8
0180F0
078078
0700F8
0E01F8
1E0378
1C0478
3C0878
3C1078
3C2078
3C4070
3C80F0
3F00E0
3E01E0
3C03C0
1E0700
3F0E00
E3F000
ENDCHAR
STARTCHAR Ugrave
ENCODING 217
SWIDTH 775 0
DWIDTH 20 0
BBX 19 24 4 0
BITMAP
01C000
00E000
006000
003000
000000
FF07E0
3E0180
3C0180
3C0100
3C0100
780100
780300
780200
780200
780200
F00200
F00600
F00400
F00400
F00400
F00800
701800
383000
1FC000
ENDCHAR
STARTCHAR Uacute
ENCODING 218
SWIDTH 775 0
DWIDTH 20 0
BBX 19 24 4 0
BITMAP
001E00
003800
007000
00C000
000000
FF07E0
3E0180
3C0180
3C0100
3C0100
780100
780300
780200
780200
780200
F00200
F00600
F00400
F00400
F00400
F00800
701800
383000
1FC000
ENDCHAR
STARTCHAR Ucircumflex
ENCODING 219
SWIDTH 775 0
DWIDTH 20 0
BBX 19 24 4 0
BITMAP
007800
00FC00
01CC00
030600
000000
FF07E0
3E0180
3C0180
3C0100
3C0100
780100
780300
780200
780200
780200
F00200
F00600
F00400
F00400
F00400
F00800
701800
383000
1FC000
ENDCHAR
STARTCHAR Udieresis
ENCODING 220
SWIDTH 775 0
DWIDTH 20 0
BBX 19 23 4 0
BITMAP
039C00
039C00
039C00
000000
FF07E0
3E0180
3C0180
3C0100
3C0100
780100
780300
780200
780200
780200
F00200
F00600
F00400
F00400
F00400
F00800
701800
383000
1FC000
ENDCHAR
STARTCHAR Yacute
ENCODING 221
SWIDTH 669 0
DWIDTH 17 0
BBX 18 24 3 0
BITMAP
003C00
007000
00E000
018000
000000
FF07C0
7C0300
3C0200
3C0600
1E0C00
1E1800
1E3000
0F2000
0F6000
07C000
078000
078000
078000
0F0000
0F0000
0F0000
0F0000
1F0000
7FC000
ENDCHAR
STARTCHAR Ycircumflex
ENCODING 222
SWIDTH 669 0
DWIDTH 17 0
BBX 18 24 3 0
BITMAP
01E000
03F000
073000
0C1800
000000
FF07C0
7C0300
3C0200
3C0600
1E0C00
1E1800
1E3000
0F2000
0F6000
07C000
078000
078000
078000
0F0000
0F0000
0F0000
0F0000
1F0000
7FC000
ENDCHAR
STARTCHAR germandbls
ENCODING 223
SWIDTH 656 0
DWIDTH 17 0
BBX 16 25 1 -5
BITMAP
00FC
039E
078E
070E
0F0E
0F1C
0F18
0E30
1E60
1E70
1EF8
1E7C
1C3E
3C1E
3C0F
3C07
3C07
3987
798E
79F8
7800
7800
7000
F000
F000
ENDCHAR
STARTCHAR agrave
ENCODING 224
SWIDTH 634 0
DWIDTH 16 0
BBX 15 19 2 0
BITMAP
01C0
00E0
0060
0030
0000
01FE
063E
0C1E
181C
383C
783C
707C
707C
F0B8
F1F8
F378
FE78
FC78
787C
ENDCHAR
STARTCHAR aacute
ENCODING 225
SWIDTH 634 0
DWIDTH 16 0
BBX 15 19 2 0
BITMAP
001E
0038
0070
00C0
0000
01FE
063E
0C1E
181C
383C
783C
707C
707C
F0B8
F1F8
F378
FE78
FC78
787C
ENDCHAR
STARTCHAR acircumflex
ENCODING 226
SWIDTH 634 0
DWIDTH 16 0
BBX 15 19 2 0
BITMAP
0078
00FC
01CC
0306
0000
01FE
063E
0C1E
181C
383C
783C
707C
707C
F0B8
F1F8
F378
FE78
FC78
787C
ENDCHAR
STARTCHAR atilde
ENCODING 227
SWIDTH 634 0
DWIDTH 16 0
BBX 15 18 2 0
BITMAP
00E2
01FC
0238
0000
01FE
063E
0C1E
181C
383C
783C
707C
707C
F0B8
F1F8
F378
FE78
FC78
787C
ENDCHAR
STARTCHAR adieresis
ENCODING 228
SWIDTH 634 0
DWIDTH 16 0
BBX 15 18 2 0
BITMAP
039C
039C
039C
0000
01FE
063E
0C1E
181C
383C
783C
707C
707C
F0B8
F1F8
F378
FE78
FC78
787C
ENDCHAR
STARTCHAR aring
ENCODING 229
SWIDTH 634 0
DWIDTH 16 0
BBX 15 19 2 0
BITMAP
0030
0048
0048
0030
0000
01FE
063E
0C1E
181C
383C
783C
707C
707C
F0B8
F1F8
F378
FE78
FC78
787C
ENDCHAR
STARTCHAR ae
ENCODING 230
SWIDTH 905 0
DWIDTH 24 0
BBX 22 14 2 0
BITMAP
01FEF8
063F3C
0C1E3C
181C1C
383C3C
783C38
703C78
707CE0
F0FF80
F1B800
F33800
FE3C04
FC1E1C
780FE0
ENDCHAR
STARTCHAR ccedilla
ENCODING 231
SWIDTH 524 0
DWIDTH 14 0
BBX 13 19 2 -5
BITMAP
01F8
0638
1C18
3818
3800
7800
7000
F000
F000
F000
F000
F000
7820
1FC0
3000
1C00
0C00
0C00
7800
ENDCHAR
STARTCHAR egrave
ENCODING 232
SWIDTH 548 0
DWIDTH 14 0
BBX 13 19 2 0
BITMAP
0380
01C0
00C0
0060
0000
03E0
0470
1C78
3878
3870
7070
70E0
F3C0
FF00
F000
F000
F010
7870
1F80
ENDCHAR
STARTCHAR eacute
ENCODING 233
SWIDTH 548 0
DWIDTH 14 0
BBX 14 19 2 0
BITMAP
003C
0070
00E0
0180
0000
03E0
0470
1C78
3878
3870
7070
70E0
F3C0
FF00
F000
F000
F010
7870
1F80
ENDCHAR
STARTCHAR ecircumflex
ENCODING 234
SWIDTH 548 0
DWIDTH 14 0
BBX 13 19 2 0
BITMAP
01E0
03F0
0730
0C18
0000
03E0
0470
1C78
3878
3870
7070
70E0
F3C0
FF00
F000
F000
F010
7870
1F80
ENDCHAR
STARTCHAR edieresis
ENCODING 235
SWIDTH 548 0
DWIDTH 14 0
BBX 13 18 2 0
BITMAP
0738
0738
0738
0000
03E0
0470
1C78
3878
3870
7070
70E0
F3C0
FF00
F000
F000
F010
7870
1F80
ENDCHAR
STARTCHAR igrave
ENCODING 236
SWIDTH 319 0
DWIDTH 8 0
BBX 8 19 2 0
BITMAP
1C
0E
06
03
00
7E
3E
3C
3C
3C
3C
38
38
78
78
78
78
F8
FC
ENDCHAR
STARTCHAR iacute
ENCODING 237
SWIDTH 319 0
DWIDTH 8 0
BBX 11 19 2 0
BITMAP
01E0
0380
0700
0C00
0000
7E00
3E00
3C00
3C00
3C00
3C00
3800
3800
7800
7800
7800
7800
F800
FC00
ENDCHAR
STARTCHAR icircumflex
ENCODING 238
SWIDTH 319 0
DWIDTH 8 0
BBX 10 19 2 0
BITMAP
0F00
1F80
3980
60C0
0000
7E00
3E00
3C00
3C00
3C00
3C00
3800
3800
7800
7800
7800
7800
F800
FC00
ENDCHAR
STARTCHAR idieresis
ENCODING 239
SWIDTH 319 0
DWIDTH 8 0
BBX 10 18 2 0
BITMAP
39C0
39C0
39C0
0000
7E00
3E00
3C00
3C00
3C00
3C00
3800
3800
7800
7800
7800
7800
F800
FC00
ENDCHAR
STARTCHAR wcircumflex
ENCODING 240
SWIDTH 822 0
DWIDTH 21 0
BBX 21 19 2 0
BITMAP
007800
00FC00
01CC00
030600
000000
F81078
783078
383830
3C3830
3C7860
1C7840
1CFCC0
1C9C80
1F1D00
1F1F00
1E1E00
1C1C00
0C1800
081800
ENDCHAR
STARTCHAR ntilde
ENCODING 241
SWIDTH 656 0
DWIDTH 17 0
BBX 15 18 2 0
BITMAP
00E2
01FC
0238
0000
7E1C
3C7E
3CFE
3D9E
3D1E
3E1C
3C1C
7C3C
783C
783C
7838
7078
F078
F07E
ENDCHAR
STARTCHAR ograve
ENCODING 242
SWIDTH 599 0
DWIDTH 16 0
BBX 14 19 2 0
BITMAP
01C0
00E0
0060
0030
0000
01F0
0638
1C3C
3C3C
383C
783C
703C
F03C
F038
F038
F070
F060
78C0
3F00
ENDCHAR
STARTCHAR oacute
ENCODING 243
SWIDTH 599 0
DWIDTH 16 0
BBX 14 19 2 0
BITMAP
003C
0070
00E0
0180
0000
01F0
0638
1C3C
3C3C
383C
783C
703C
F03C
F038
F038
F070
F060
78C0
3F00
ENDCHAR
STARTCHAR ocircumflex
ENCODING 244
SWIDTH 599 0
DWIDTH 16 0
BBX 14 19 2 0
BITMAP
00F0
01F8
0398
060C
0000
01F0
0638
1C3C
3C3C
383C
783C
703C
F03C
F038
F038
F070
F060
78C0
3F00
ENDCHAR
STARTCHAR otilde
ENCODING 245
SWIDTH 599 0
DWIDTH 16 0
BBX 14 18 2 0
BITMAP
01C4
03F8
0470
0000
01F0
0638
1C3C
3C3C
383C
783C
703C
F03C
F038
F038
F070
F060
78C0
3F00
ENDCHAR
STARTCHAR odieresis
ENCODING 246
SWIDTH 599 0
DWIDTH 16 0
BBX 14 18 2 0
BITMAP
039C
039C
039C
0000
01F0
0638
1C3C
3C3C
383C
783C
703C
F03C
F038
F038
F070
F060
78C0
3F00
ENDCHAR
STARTCHAR uni1E6B
ENCODING 247
SWIDTH 375 0
DWIDTH 10 0
BBX 9 22 3 0
BITMAP
0E00
1E00
1C00
0000
0C00
1C00
3C00
3C00
FF80
3C00
3800
7800
7800
7800
7800
7000
F000
F000
F000
F000
7200
3C00
ENDCHAR
STARTCHAR oslash
ENCODING 248
SWIDTH 599 0
DWIDTH 16 0
BBX 17 14 1 0
BITMAP
00FB80
031E00
0E1E00
1C1F00
1C3F00
3C6F00
38CE00
798E00
7B1E00
7E1C00
7C3800
783000
3C6000
DF8000
ENDCHAR
STARTCHAR ugrave
ENCODING 249
SWIDTH 655 0
DWIDTH 17 0
BBX 15 19 3 0
BITMAP
01C0
00E0
0060
0030
0000
FC7E
3C1E
3C1C
383C
783C
783C
787C
7078
70F8
F1F8
F378
FE78
FC78
70FC
ENDCHAR
STARTCHAR uacute
ENCODING 250
SWIDTH 655 0
DWIDTH 17 0
BBX 15 19 3 0
BITMAP
003C
0070
00E0
0180
0000
FC7E
3C1E
3C1C
383C
783C
783C
787C
7078
70F8
F1F8
F378
FE78
FC78
70FC
ENDCHAR
STARTCHAR ucircumflex
ENCODING 251
SWIDTH 655 0
DWIDTH 17 0
BBX 15 19 3 0
BITMAP
00F0
01F8
0398
060C
0000
FC7E
3C1E
3C1C
383C
783C
783C
787C
7078
70F8
F1F8
F378
FE78
FC78
70FC
ENDCHAR
STARTCHAR udieresis
ENCODING 252
SWIDTH 655 0
DWIDTH 17 0
BBX 15 18 3 0
BITMAP
039C
039C
039C
0000
FC7E
3C1E
3C1C
383C
783C
783C
787C
7078
70F8
F1F8
F378
FE78
FC78
70FC
ENDCHAR
STARTCHAR yacute
ENCODING 253
SWIDTH 586 0
DWIDTH 15 0
BBX 18 24 0 -5
BITMAP
000780
000E00
001C00
003000
000000
1F07C0
0F03C0
0781C0
078180
078380
038300
03C600
03CC00
03D800
03F000
01E000
01E000
01C000
018000
030000
060000
0C0000
1C0000
F80000
ENDCHAR
STARTCHAR ycircumflex
ENCODING 254
SWIDTH 586 0
DWIDTH 15 0
BBX 18 24 0 -5
BITMAP
007800
00FC00
01CC00
030600
000000
1F07C0
0F03C0
0781C0
078180
078380
038300
03C600
03CC00
03D800
03F000
01E000
01E000
01C000
018000
030000
060000
0C0000
1C0000
F80000
ENDCHAR
STARTCHAR ydieresis
ENCODING 255
SWIDTH 586 0
DWIDTH 15 0
BBX 18 23 0 -5
BITMAP
00E700
00E700
00E700
000000
1F07C0
0F03C0
0781C0
078180
078380
038300
03C600
03CC00
03D800
03F000
01E000
01E000
01C000
018000
030000
060000
0C0000
1C0000
F80000
ENDCHAR
ENDFONT
