STARTFONT 2.1
COMMENT AUTOMATICALLY GENERATED FILE. DO NOT EDIT!
COMMENT Generated with 'ucs2any luBIS14.bdf /usr/local/lib/X11/fonts/util/map-ISO8859-4 ISO8859-4'
COMMENT from an ISO10646-1 encoded source BDF font.
COMMENT ucs2any by Ben Collver <collver1@attbi.com>, 2003, based on
COMMENT ucs2any.pl by Markus Kuhn <http://www.cl.cam.ac.uk/~mgk25/>, 2000.
COMMENT $Xorg: $
COMMENT ISO10646-1 extension by Markus Kuhn <mkuhn@acm.org>, 2001-03-20
COMMENT  (c) Copyright Bigelow & Holmes 1986, 1985. Lucida is a registered
COMMENT  trademark of Bigelow & Holmes. See LEGAL NOTICE file for terms
COMMENT  of the license.
FONT -B&H-Lucida-Bold-I-Normal-Sans-20-140-100-100-P-127-ISO8859-4
SIZE 14 100 100
FONTBOUNDINGBOX 22 26 -1 -8
STARTPROPERTIES 22
COMMENT Begin LogicalFontDescription
FONTNAME_REGISTRY ""
FOUNDRY "B&H"
FAMILY_NAME "Lucida"
WEIGHT_NAME "Bold"
SLANT "I"
SETWIDTH_NAME "Normal"
ADD_STYLE_NAME "Sans"
PIXEL_SIZE 20
POINT_SIZE 140
RESOLUTION_X 100
RESOLUTION_Y 100
SPACING "P"
AVERAGE_WIDTH 127
CHARSET_REGISTRY "ISO8859"
CHARSET_ENCODING "4"
COMMENT END LogicalFontDescription
FONT_ASCENT 18
FONT_DESCENT 5
DEFAULT_CHAR 0
COPYRIGHT "Copyright Bigelow & Holmes 1986, 1985."
FACE_NAME "Lucida Sans Bold Italic"
X_HEIGHT 11
CAP_HEIGHT 14
ENDPROPERTIES
CHARS 192
STARTCHAR defaultchar
ENCODING 0
SWIDTH 813 0
DWIDTH 16 0
BBX 15 13 2 0
BITMAP
AAAA
0000
8002
0000
8002
0000
8002
0000
8002
0000
8002
0000
AAAA
ENDCHAR
STARTCHAR space
ENCODING 32
SWIDTH 343 0
DWIDTH 7 0
BBX 1 1 0 0
BITMAP
00
ENDCHAR
STARTCHAR exclam
ENCODING 33
SWIDTH 343 0
DWIDTH 7 0
BBX 7 14 1 0
BITMAP
1E
1E
3C
3C
3C
3C
38
38
38
30
00
00
F8
F0
ENDCHAR
STARTCHAR quotedbl
ENCODING 34
SWIDTH 530 0
DWIDTH 11 0
BBX 9 6 3 8
BITMAP
E380
E380
E380
C180
4100
4100
ENDCHAR
STARTCHAR numbersign
ENCODING 35
SWIDTH 687 0
DWIDTH 14 0
BBX 13 14 2 0
BITMAP
0398
0330
0770
7FF8
7FF8
0CC0
1DC0
1980
FFF0
FFF0
3300
6600
6600
CC00
ENDCHAR
STARTCHAR dollar
ENCODING 36
SWIDTH 687 0
DWIDTH 14 0
BBX 12 20 2 -2
BITMAP
0080
0180
0380
0F80
1FF0
1FF0
3D30
1900
1F00
1F00
0F80
07C0
07E0
04E0
04E0
E9C0
FF80
FF00
0C00
1800
ENDCHAR
STARTCHAR percent
ENCODING 37
SWIDTH 908 0
DWIDTH 18 0
BBX 17 14 2 0
BITMAP
3C0300
7E0600
E60C00
C61800
C63000
CC6000
FCC000
798000
030F00
061F80
0C3180
183180
303F00
601E00
ENDCHAR
STARTCHAR ampersand
ENCODING 38
SWIDTH 816 0
DWIDTH 16 0
BBX 15 14 2 0
BITMAP
03E0
07F0
0E18
0E30
0EF0
07C0
1F06
738E
618C
E1DC
E0F8
F0F0
7FF0
3F78
ENDCHAR
STARTCHAR quotesingle
ENCODING 39
SWIDTH 265 0
DWIDTH 5 0
BBX 4 6 3 8
BITMAP
F0
F0
E0
60
60
40
ENDCHAR
STARTCHAR parenleft
ENCODING 40
SWIDTH 386 0
DWIDTH 8 0
BBX 7 18 2 -4
BITMAP
02
06
0C
18
38
70
70
60
E0
E0
E0
E0
E0
E0
60
70
30
20
ENDCHAR
STARTCHAR parenright
ENCODING 41
SWIDTH 386 0
DWIDTH 8 0
BBX 7 18 1 -4
BITMAP
08
18
1C
0C
0E
0E
0E
0E
0E
0E
0C
1C
18
38
30
60
C0
80
ENDCHAR
STARTCHAR asterisk
ENCODING 42
SWIDTH 464 0
DWIDTH 9 0
BBX 8 7 3 7
BITMAP
1C
49
67
E7
3C
EE
28
ENDCHAR
STARTCHAR plus
ENCODING 43
SWIDTH 687 0
DWIDTH 14 0
BBX 12 11 2 0
BITMAP
0100
0100
0300
0200
FFF0
FFF0
0400
0C00
0800
0800
0800
ENDCHAR
STARTCHAR comma
ENCODING 44
SWIDTH 343 0
DWIDTH 7 0
BBX 5 7 1 -3
BITMAP
78
78
78
70
30
70
E0
ENDCHAR
STARTCHAR hyphen
ENCODING 45
SWIDTH 289 0
DWIDTH 6 0
BBX 5 2 2 6
BITMAP
F8
F8
ENDCHAR
STARTCHAR period
ENCODING 46
SWIDTH 343 0
DWIDTH 7 0
BBX 5 3 1 0
BITMAP
78
F8
F0
ENDCHAR
STARTCHAR slash
ENCODING 47
SWIDTH 596 0
DWIDTH 12 0
BBX 15 17 0 -3
BITMAP
000E
001C
0038
0030
0070
00E0
00C0
0180
0380
0300
0600
0E00
1C00
1800
3800
7000
E000
ENDCHAR
STARTCHAR zero
ENCODING 48
SWIDTH 687 0
DWIDTH 14 0
BBX 11 14 3 0
BITMAP
0780
1FC0
38C0
70E0
70E0
70E0
E0E0
E1C0
E1C0
E1C0
E380
E380
7F00
3C00
ENDCHAR
STARTCHAR one
ENCODING 49
SWIDTH 687 0
DWIDTH 14 0
BBX 7 14 5 0
BITMAP
7E
FE
3C
3C
3C
3C
3C
78
78
78
78
78
F0
F0
ENDCHAR
STARTCHAR two
ENCODING 50
SWIDTH 687 0
DWIDTH 14 0
BBX 13 14 2 0
BITMAP
0FE0
1FF0
1078
0038
0038
0070
00E0
03C0
0F00
1E00
3800
7800
FFE0
FFE0
ENDCHAR
STARTCHAR three
ENCODING 51
SWIDTH 687 0
DWIDTH 14 0
BBX 12 14 3 0
BITMAP
1FC0
1FF0
30F0
0070
0060
01C0
1F00
3FC0
01E0
00E0
00E0
C1E0
FFC0
FF00
ENDCHAR
STARTCHAR four
ENCODING 52
SWIDTH 687 0
DWIDTH 14 0
BBX 12 14 1 0
BITMAP
0070
00F0
01E0
02E0
04E0
08E0
19E0
31C0
7FF0
FFF0
03C0
0380
0380
0380
ENDCHAR
STARTCHAR five
ENCODING 53
SWIDTH 687 0
DWIDTH 14 0
BBX 13 14 2 0
BITMAP
1FF8
1FF8
1800
3800
3000
3F00
3FC0
03E0
00E0
00E0
00E0
C1E0
FFC0
FF00
ENDCHAR
STARTCHAR six
ENCODING 54
SWIDTH 687 0
DWIDTH 14 0
BBX 13 14 2 0
BITMAP
03F8
0FF8
1E18
3C00
7800
7FC0
FFE0
F0F0
E070
E070
E070
70E0
7FC0
1F00
ENDCHAR
STARTCHAR seven
ENCODING 55
SWIDTH 687 0
DWIDTH 14 0
BBX 11 14 4 0
BITMAP
7FE0
FFE0
01C0
0380
0380
0700
0E00
1C00
1800
3800
7000
7000
E000
E000
ENDCHAR
STARTCHAR eight
ENCODING 56
SWIDTH 687 0
DWIDTH 14 0
BBX 12 14 2 0
BITMAP
07C0
1FF0
1870
3030
3870
1FE0
0F80
3FE0
71E0
E060
E060
E0E0
7FC0
3F00
ENDCHAR
STARTCHAR nine
ENCODING 57
SWIDTH 687 0
DWIDTH 14 0
BBX 13 14 2 0
BITMAP
07C0
1FF0
3870
7038
7038
7038
7878
3FF8
1FF0
00F0
01E0
C3C0
FF80
FE00
ENDCHAR
STARTCHAR colon
ENCODING 58
SWIDTH 343 0
DWIDTH 7 0
BBX 6 11 2 0
BITMAP
3C
3C
78
00
00
00
00
00
78
F0
F0
ENDCHAR
STARTCHAR semicolon
ENCODING 59
SWIDTH 343 0
DWIDTH 7 0
BBX 7 14 1 -3
BITMAP
1E
1E
3C
00
00
00
00
7C
78
78
78
38
30
E0
ENDCHAR
STARTCHAR less
ENCODING 60
SWIDTH 687 0
DWIDTH 14 0
BBX 12 10 1 0
BITMAP
0030
01C0
0700
1C00
E000
3000
0C00
0300
00C0
0040
ENDCHAR
STARTCHAR equal
ENCODING 61
SWIDTH 687 0
DWIDTH 14 0
BBX 13 8 2 2
BITMAP
7FF8
7FF8
0000
0000
0000
0000
FFF0
FFF0
ENDCHAR
STARTCHAR greater
ENCODING 62
SWIDTH 687 0
DWIDTH 14 0
BBX 12 10 1 1
BITMAP
2000
3000
0C00
0300
00C0
0070
0380
0E00
3800
C000
ENDCHAR
STARTCHAR question
ENCODING 63
SWIDTH 539 0
DWIDTH 11 0
BBX 10 14 3 0
BITMAP
7F00
FFC0
83C0
01C0
0180
0700
0E00
1C00
3800
7800
0000
0000
F800
F000
ENDCHAR
STARTCHAR at
ENCODING 64
SWIDTH 833 0
DWIDTH 17 0
BBX 13 14 3 0
BITMAP
07C0
1820
3010
27C8
49C8
91C8
91C8
93C8
B298
9FA0
99E0
4000
2100
1F80
ENDCHAR
STARTCHAR A
ENCODING 65
SWIDTH 771 0
DWIDTH 15 0
BBX 14 14 1 0
BITMAP
00E0
01F0
01F0
03F0
0270
0670
0C78
0C78
1FF8
1FF8
3038
203C
603C
E03C
ENDCHAR
STARTCHAR B
ENCODING 66
SWIDTH 660 0
DWIDTH 13 0
BBX 12 14 2 0
BITMAP
1FE0
3FF0
3C70
3870
3860
38C0
7F80
7FC0
79E0
70E0
70E0
F0E0
FFC0
FF80
ENDCHAR
STARTCHAR C
ENCODING 67
SWIDTH 737 0
DWIDTH 15 0
BBX 15 14 2 0
BITMAP
01FE
07FE
1E06
3C00
7800
7000
E000
E000
E000
E000
F000
7818
7FF8
1FE0
ENDCHAR
STARTCHAR D
ENCODING 68
SWIDTH 822 0
DWIDTH 16 0
BBX 16 14 2 0
BITMAP
1FFC
1FFE
3E1F
3E07
3E07
3C07
3C07
7C0F
780E
781E
783C
7878
FFF0
FFC0
ENDCHAR
STARTCHAR E
ENCODING 69
SWIDTH 642 0
DWIDTH 13 0
BBX 13 14 2 0
BITMAP
1FF8
1FF8
3C00
3C00
3C00
3C00
3FE0
7FC0
7800
7800
7800
7800
FFE0
FFE0
ENDCHAR
STARTCHAR F
ENCODING 70
SWIDTH 614 0
DWIDTH 12 0
BBX 13 14 2 0
BITMAP
1FF8
1FF8
3C00
3C00
3C00
3C00
3FC0
7FC0
7800
7800
7800
7000
F000
F000
ENDCHAR
STARTCHAR G
ENCODING 71
SWIDTH 755 0
DWIDTH 15 0
BBX 15 14 2 0
BITMAP
01FE
07FE
1E06
3800
7000
7000
E000
E03C
E078
E078
F0F8
78F8
7FF0
1FF0
ENDCHAR
STARTCHAR H
ENCODING 72
SWIDTH 813 0
DWIDTH 16 0
BBX 16 14 2 0
BITMAP
1E0F
1E0F
3C0E
3C1E
3C1E
3C1E
3FFE
7FFC
783C
783C
783C
703C
F078
F078
ENDCHAR
STARTCHAR I
ENCODING 73
SWIDTH 361 0
DWIDTH 7 0
BBX 7 14 2 0
BITMAP
1E
1E
3C
3C
3C
3C
3C
78
78
78
78
78
F0
F0
ENDCHAR
STARTCHAR J
ENCODING 74
SWIDTH 502 0
DWIDTH 10 0
BBX 11 17 0 -3
BITMAP
01E0
01E0
01E0
01C0
03C0
03C0
03C0
03C0
0380
0780
0780
0780
0780
0700
8F00
FE00
FC00
ENDCHAR
STARTCHAR K
ENCODING 75
SWIDTH 753 0
DWIDTH 15 0
BBX 14 14 2 0
BITMAP
1E1C
1E38
3C70
3CE0
3DC0
3D80
3B00
7F80
79C0
79C0
78E0
70E0
F070
F078
ENDCHAR
STARTCHAR L
ENCODING 76
SWIDTH 623 0
DWIDTH 12 0
BBX 11 14 2 0
BITMAP
1E00
1E00
3C00
3C00
3C00
3C00
3800
7800
7800
7800
7800
7000
FFE0
FFE0
ENDCHAR
STARTCHAR M
ENCODING 77
SWIDTH 940 0
DWIDTH 19 0
BBX 18 14 2 0
BITMAP
1F03C0
1F07C0
3F0780
3F0F80
3F0B80
3F1780
371780
77A700
77E700
73C700
73CF00
638F00
E30E00
E00E00
ENDCHAR
STARTCHAR N
ENCODING 78
SWIDTH 789 0
DWIDTH 16 0
BBX 15 14 2 0
BITMAP
1C0E
1C0E
3E0C
3E1C
3F1C
3F1C
339C
7398
71F8
71F8
70F8
60F8
E070
E070
ENDCHAR
STARTCHAR O
ENCODING 79
SWIDTH 855 0
DWIDTH 17 0
BBX 14 14 3 0
BITMAP
03E0
0FF8
1C38
381C
701C
701C
E01C
E01C
E038
E038
F070
70E0
7FC0
1F00
ENDCHAR
STARTCHAR P
ENCODING 80
SWIDTH 645 0
DWIDTH 13 0
BBX 13 14 2 0
BITMAP
1FF0
1FF8
3C38
3C38
3C38
3870
3FE0
7F80
7800
7800
7000
7000
F000
F000
ENDCHAR
STARTCHAR Q
ENCODING 81
SWIDTH 855 0
DWIDTH 17 0
BBX 14 18 3 -4
BITMAP
03E0
0FF8
1C38
381C
701C
701C
E01C
E01C
E038
E038
F070
70F0
7FE0
1FC0
01F0
00FC
007C
0018
ENDCHAR
STARTCHAR R
ENCODING 82
SWIDTH 708 0
DWIDTH 14 0
BBX 13 14 2 0
BITMAP
1FF0
1FF8
3C38
3C38
3C38
3870
3FE0
7F80
7980
79C0
71C0
70C0
F0E0
F0F0
ENDCHAR
STARTCHAR S
ENCODING 83
SWIDTH 639 0
DWIDTH 13 0
BBX 12 14 2 0
BITMAP
07F0
1FF0
3830
3800
3C00
3E00
1F80
0FC0
03E0
00E0
00E0
41C0
FF80
FE00
ENDCHAR
STARTCHAR T
ENCODING 84
SWIDTH 747 0
DWIDTH 15 0
BBX 15 14 3 0
BITMAP
FFFE
FFFE
0780
0780
0780
0700
0F00
0F00
0F00
0F00
0F00
1E00
1E00
1E00
ENDCHAR
STARTCHAR U
ENCODING 85
SWIDTH 759 0
DWIDTH 15 0
BBX 14 14 3 0
BITMAP
3C1C
383C
7838
7838
7038
7038
7078
E070
E070
E070
E0F0
F0E0
7FC0
1F80
ENDCHAR
STARTCHAR V
ENCODING 86
SWIDTH 765 0
DWIDTH 15 0
BBX 14 14 3 0
BITMAP
F01C
F018
F030
7030
7860
78E0
78C0
79C0
7980
3B00
3F00
3E00
3E00
3C00
ENDCHAR
STARTCHAR W
ENCODING 87
SWIDTH 991 0
DWIDTH 20 0
BBX 17 14 4 0
BITMAP
E18180
E18100
E38300
E38200
E38600
E58400
E58C00
ED8800
E99800
E9B000
F1B000
71E000
71E000
61C000
ENDCHAR
STARTCHAR X
ENCODING 88
SWIDTH 696 0
DWIDTH 14 0
BBX 15 14 -1 0
BITMAP
1C0E
1E18
0E38
0E70
07E0
07C0
0780
0780
0F80
09C0
19C0
30E0
60E0
C0F0
ENDCHAR
STARTCHAR Y
ENCODING 89
SWIDTH 681 0
DWIDTH 14 0
BBX 12 14 2 0
BITMAP
E070
E0E0
61C0
7380
7300
3600
3E00
3C00
3C00
3800
7800
7800
7800
7800
ENDCHAR
STARTCHAR Z
ENCODING 90
SWIDTH 687 0
DWIDTH 14 0
BBX 14 14 1 0
BITMAP
1FFC
1FFC
0078
00F0
01E0
01C0
0380
0700
0E00
1E00
3C00
7800
7FF0
FFF0
ENDCHAR
STARTCHAR bracketleft
ENCODING 91
SWIDTH 386 0
DWIDTH 8 0
BBX 9 17 1 -3
BITMAP
0F80
1F80
1E00
1C00
1C00
1C00
3C00
3800
3800
3800
7800
7800
7000
7000
7000
FC00
F800
ENDCHAR
STARTCHAR backslash
ENCODING 92
SWIDTH 566 0
DWIDTH 11 0
BBX 7 17 3 -3
BITMAP
C0
60
60
60
60
30
30
30
38
18
18
18
0C
0C
0C
0C
06
ENDCHAR
STARTCHAR bracketright
ENCODING 93
SWIDTH 386 0
DWIDTH 8 0
BBX 9 17 0 -3
BITMAP
0F80
1F80
0700
0700
0700
0F00
0F00
0E00
0E00
0E00
1E00
1C00
1C00
1C00
3C00
FC00
F800
ENDCHAR
STARTCHAR asciicircum
ENCODING 94
SWIDTH 687 0
DWIDTH 14 0
BBX 10 10 0 3
BITMAP
0100
0300
0700
0500
0980
1880
3080
20C0
4040
C040
ENDCHAR
STARTCHAR underscore
ENCODING 95
SWIDTH 500 0
DWIDTH 10 0
BBX 9 2 0 -3
BITMAP
FF80
FF80
ENDCHAR
STARTCHAR grave
ENCODING 96
SWIDTH 663 0
DWIDTH 13 0
BBX 5 2 7 12
BITMAP
F0
38
ENDCHAR
STARTCHAR a
ENCODING 97
SWIDTH 681 0
DWIDTH 14 0
BBX 13 11 1 0
BITMAP
07F8
0FF8
1C78
30F0
70F0
61F0
E2F0
E6F0
FDE0
F9E0
71E0
ENDCHAR
STARTCHAR b
ENCODING 98
SWIDTH 681 0
DWIDTH 14 0
BBX 13 14 1 0
BITMAP
1F00
1F00
1F00
3E70
3EF8
3EF8
3FB8
7D38
7E30
7C70
7860
79C0
FF80
FF00
ENDCHAR
STARTCHAR c
ENCODING 99
SWIDTH 548 0
DWIDTH 11 0
BBX 9 11 2 0
BITMAP
0780
1F80
3880
7000
7000
E000
E000
E100
E100
7F00
3E00
ENDCHAR
STARTCHAR d
ENCODING 100
SWIDTH 681 0
DWIDTH 14 0
BBX 14 14 1 0
BITMAP
003C
003C
0078
07F8
0FF8
1C78
30F8
70F0
61F0
E2F0
E6F0
FDE0
F9E0
71E0
ENDCHAR
STARTCHAR e
ENCODING 101
SWIDTH 612 0
DWIDTH 12 0
BBX 11 11 1 0
BITMAP
07C0
1FE0
3CE0
78E0
71C0
FF80
FE00
F020
F8E0
7FE0
3F00
ENDCHAR
STARTCHAR f
ENCODING 102
SWIDTH 464 0
DWIDTH 9 0
BBX 12 18 1 -4
BITMAP
03F0
0FF0
1E10
3FC0
7F80
3C00
3C00
3C00
3C00
3C00
7800
7800
7800
7800
7800
F000
F000
F000
ENDCHAR
STARTCHAR g
ENCODING 103
SWIDTH 674 0
DWIDTH 13 0
BBX 13 15 1 -4
BITMAP
03F8
0FF0
1C70
38F0
30F0
71F0
6260
6660
7CE0
7CE0
30E0
01C0
C1C0
FF80
7E00
ENDCHAR
STARTCHAR h
ENCODING 104
SWIDTH 675 0
DWIDTH 13 0
BBX 12 14 2 0
BITMAP
1E00
1C00
3C00
3CE0
3DF0
3BF0
3BE0
7CE0
7CE0
78E0
70E0
70C0
F1C0
F1C0
ENDCHAR
STARTCHAR i
ENCODING 105
SWIDTH 343 0
DWIDTH 7 0
BBX 7 14 1 0
BITMAP
1E
3E
00
3C
3C
3C
78
78
78
78
78
F0
F0
F0
ENDCHAR
STARTCHAR j
ENCODING 106
SWIDTH 407 0
DWIDTH 8 0
BBX 12 18 -1 -4
BITMAP
00F0
01F0
0000
00C0
01C0
01C0
01C0
01C0
0180
0380
0380
0380
0380
0300
0700
8600
FC00
F800
ENDCHAR
STARTCHAR k
ENCODING 107
SWIDTH 666 0
DWIDTH 13 0
BBX 12 14 1 0
BITMAP
1E00
1E00
1C00
3C30
3C60
3CC0
3880
7900
7F80
7B80
7980
71C0
F1C0
F0E0
ENDCHAR
STARTCHAR l
ENCODING 108
SWIDTH 343 0
DWIDTH 7 0
BBX 7 14 1 0
BITMAP
1E
1E
1C
3C
3C
3C
3C
78
78
78
78
70
F0
F0
ENDCHAR
STARTCHAR m
ENCODING 109
SWIDTH 991 0
DWIDTH 20 0
BBX 19 11 1 0
BITMAP
3CE1C0
3DF3E0
3BF7E0
7AFDC0
7CF9C0
7CF1C0
78F1C0
71E180
F1E180
F1E380
F1E380
ENDCHAR
STARTCHAR n
ENCODING 110
SWIDTH 675 0
DWIDTH 13 0
BBX 12 11 2 0
BITMAP
3CE0
3DF0
3BF0
7AE0
7CE0
7CE0
78E0
70E0
F0C0
F1C0
F1C0
ENDCHAR
STARTCHAR o
ENCODING 111
SWIDTH 663 0
DWIDTH 13 0
BBX 10 11 3 0
BITMAP
0F80
1FC0
39C0
71C0
61C0
E1C0
E1C0
E180
E380
7F00
3C00
ENDCHAR
STARTCHAR p
ENCODING 112
SWIDTH 681 0
DWIDTH 14 0
BBX 13 15 1 -4
BITMAP
1E70
1CF8
3DF8
3D38
3A38
3C30
3870
7860
78E0
7FC0
7F00
7000
F000
F000
F000
ENDCHAR
STARTCHAR q
ENCODING 113
SWIDTH 681 0
DWIDTH 14 0
BBX 13 15 1 -4
BITMAP
07F8
0FF8
1C78
30F0
70F0
61F0
E2F0
E6F0
FDE0
F9E0
71E0
01E0
01E0
03C0
03C0
ENDCHAR
STARTCHAR r
ENCODING 114
SWIDTH 542 0
DWIDTH 11 0
BBX 11 11 2 0
BITMAP
3C60
3DC0
3B40
7A00
7C00
7800
7800
7000
F000
F000
F000
ENDCHAR
STARTCHAR s
ENCODING 115
SWIDTH 527 0
DWIDTH 11 0
BBX 10 11 1 0
BITMAP
0FC0
1FC0
3C00
3C00
3E00
1F00
0F80
0780
C780
FF00
FE00
ENDCHAR
STARTCHAR t
ENCODING 116
SWIDTH 437 0
DWIDTH 9 0
BBX 7 13 2 0
BITMAP
3C
38
FE
FE
78
70
70
70
E0
E0
F4
FC
78
ENDCHAR
STARTCHAR u
ENCODING 117
SWIDTH 675 0
DWIDTH 13 0
BBX 12 11 2 0
BITMAP
38F0
38F0
30F0
70E0
71E0
73E0
73E0
75E0
FDC0
FBC0
73C0
ENDCHAR
STARTCHAR v
ENCODING 118
SWIDTH 630 0
DWIDTH 13 0
BBX 12 11 2 0
BITMAP
F070
F060
F0C0
70C0
7980
7B80
7B00
7F00
7E00
3C00
3C00
ENDCHAR
STARTCHAR w
ENCODING 119
SWIDTH 878 0
DWIDTH 18 0
BBX 17 11 3 0
BITMAP
C0C380
C1E300
C1E700
E2E600
E26E00
E46C00
E47C00
E87800
F87800
F07000
F07000
ENDCHAR
STARTCHAR x
ENCODING 120
SWIDTH 563 0
DWIDTH 11 0
BBX 13 11 0 0
BITMAP
3E38
1E60
1EE0
0FC0
0F80
0780
0F80
1FC0
3BC0
33C0
E1E0
ENDCHAR
STARTCHAR y
ENCODING 121
SWIDTH 633 0
DWIDTH 13 0
BBX 14 15 1 -4
BITMAP
3C0C
3C18
3C30
3C20
3C60
1EC0
1E80
1F80
1F00
1E00
0E00
0C00
1800
3800
F000
ENDCHAR
STARTCHAR z
ENCODING 122
SWIDTH 630 0
DWIDTH 13 0
BBX 12 11 1 0
BITMAP
3FF0
3FE0
00C0
0180
0300
0600
0C00
1800
3000
7FE0
FFE0
ENDCHAR
STARTCHAR braceleft
ENCODING 123
SWIDTH 386 0
DWIDTH 8 0
BBX 8 17 2 -3
BITMAP
0F
1F
1E
1E
1E
0C
0C
78
60
F8
38
78
78
F0
F0
F8
70
ENDCHAR
STARTCHAR bar
ENCODING 124
SWIDTH 259 0
DWIDTH 5 0
BBX 6 17 1 -3
BITMAP
04
0C
08
08
08
10
10
10
30
20
20
20
40
40
40
C0
80
ENDCHAR
STARTCHAR braceright
ENCODING 125
SWIDTH 386 0
DWIDTH 8 0
BBX 8 17 1 -3
BITMAP
0E
1F
0F
0F
1E
1E
1C
1F
06
1E
30
30
78
78
78
F8
F0
ENDCHAR
STARTCHAR asciitilde
ENCODING 126
SWIDTH 687 0
DWIDTH 14 0
BBX 12 5 2 3
BITMAP
3830
7C30
4F60
C3E0
81C0
ENDCHAR
STARTCHAR space
ENCODING 160
SWIDTH 343 0
DWIDTH 7 0
BBX 1 1 0 0
BITMAP
00
ENDCHAR
STARTCHAR Aogonek
ENCODING 161
SWIDTH 771 0
DWIDTH 15 0
BBX 14 17 1 -3
BITMAP
00E0
01F0
01F0
03F0
0270
0670
0C78
0C78
1FF8
1FF8
3038
203C
603C
E03C
0000
0180
03C0
ENDCHAR
STARTCHAR kgreenlandic
ENCODING 162
SWIDTH 666 0
DWIDTH 13 0
BBX 12 11 1 0
BITMAP
3C30
3C60
3CC0
3880
7900
7F80
7B80
7980
71C0
F1C0
F0E0
ENDCHAR
STARTCHAR Rcommaaccent
ENCODING 163
SWIDTH 708 0
DWIDTH 14 0
BBX 13 22 2 -8
BITMAP
1FF0
1FF8
3C38
3C38
3C38
3870
3FE0
7F80
7980
79C0
71C0
70C0
F0E0
F0F0
0000
0F00
0F00
0F00
0E00
0600
0E00
1C00
ENDCHAR
STARTCHAR currency
ENCODING 164
SWIDTH 687 0
DWIDTH 14 0
BBX 16 14 0 0
BITMAP
0001
1003
09CC
0FF8
0630
0C30
0810
0C30
0C70
0FE0
1FF0
3010
C008
8000
ENDCHAR
STARTCHAR Itilde
ENCODING 165
SWIDTH 361 0
DWIDTH 7 0
BBX 9 17 2 0
BITMAP
3F80
7F00
0000
1E00
1E00
3C00
3C00
3C00
3C00
3C00
7800
7800
7800
7800
7800
F000
F000
ENDCHAR
STARTCHAR Lcommaaccent
ENCODING 166
SWIDTH 623 0
DWIDTH 12 0
BBX 11 22 2 -8
BITMAP
1E00
1E00
3C00
3C00
3C00
3C00
3800
7800
7800
7800
7800
7000
FFE0
FFE0
0000
1E00
1E00
1E00
1C00
0C00
1C00
3800
ENDCHAR
STARTCHAR section
ENCODING 167
SWIDTH 687 0
DWIDTH 14 0
BBX 12 18 2 -4
BITMAP
07F0
1FF0
1C30
3C00
3F00
1F80
1FE0
33E0
20E0
7060
7E40
3FC0
1FC0
07C0
03C0
C3C0
FF80
FE00
ENDCHAR
STARTCHAR dieresis
ENCODING 168
SWIDTH 663 0
DWIDTH 13 0
BBX 7 2 6 12
BITMAP
EE
EE
ENDCHAR
STARTCHAR Scaron
ENCODING 169
SWIDTH 639 0
DWIDTH 13 0
BBX 12 17 2 0
BITMAP
0770
03C0
0000
07F0
1FF0
3830
3800
3C00
3E00
1F80
0FC0
03E0
00E0
00E0
41C0
FF80
FE00
ENDCHAR
STARTCHAR Emacron
ENCODING 170
SWIDTH 642 0
DWIDTH 13 0
BBX 13 17 2 0
BITMAP
1FC0
1FC0
0000
1FF8
1FF8
3C00
3C00
3C00
3C00
3FE0
7FC0
7800
7800
7800
7800
FFE0
FFE0
ENDCHAR
STARTCHAR Gcommaaccent
ENCODING 171
SWIDTH 755 0
DWIDTH 15 0
BBX 15 22 2 -8
BITMAP
01FE
07FE
1E06
3800
7000
7000
E000
E03C
E078
E078
F0F8
78F8
7FF0
1FF0
0000
0780
0780
0780
0700
0300
0700
0E00
ENDCHAR
STARTCHAR Tbar
ENCODING 172
SWIDTH 747 0
DWIDTH 15 0
BBX 15 14 3 0
BITMAP
FFFE
FFFE
0780
0780
0780
0700
0FE0
0FE0
0F00
0F00
0F00
1E00
1E00
1E00
ENDCHAR
STARTCHAR hyphen
ENCODING 173
SWIDTH 289 0
DWIDTH 6 0
BBX 5 2 2 6
BITMAP
F8
F8
ENDCHAR
STARTCHAR Zcaron
ENCODING 174
SWIDTH 687 0
DWIDTH 14 0
BBX 14 17 1 0
BITMAP
03B8
01E0
0000
1FFC
1FFC
0078
00F0
01E0
01C0
0380
0700
0E00
1E00
3C00
7800
7FF0
FFF0
ENDCHAR
STARTCHAR macron
ENCODING 175
SWIDTH 663 0
DWIDTH 13 0
BBX 7 2 6 12
BITMAP
FE
FE
ENDCHAR
STARTCHAR degree
ENCODING 176
SWIDTH 241 0
DWIDTH 5 0
BBX 1 3 4 11
BITMAP
80
80
80
ENDCHAR
STARTCHAR aogonek
ENCODING 177
SWIDTH 681 0
DWIDTH 14 0
BBX 13 14 1 -3
BITMAP
07F8
0FF8
1C78
30F0
70F0
61F0
E2F0
E6F0
FDE0
F9E0
71E0
0000
0600
0F00
ENDCHAR
STARTCHAR ogonek
ENCODING 178
SWIDTH 663 0
DWIDTH 13 0
BBX 4 2 4 -3
BITMAP
60
F0
ENDCHAR
STARTCHAR rcommaaccent
ENCODING 179
SWIDTH 542 0
DWIDTH 11 0
BBX 11 19 2 -8
BITMAP
3C60
3DC0
3B40
7A00
7C00
7800
7800
7000
F000
F000
F000
0000
7800
7800
7800
7000
3000
7000
E000
ENDCHAR
STARTCHAR acute
ENCODING 180
SWIDTH 663 0
DWIDTH 13 0
BBX 6 2 7 12
BITMAP
3C
E0
ENDCHAR
STARTCHAR itilde
ENCODING 181
SWIDTH 343 0
DWIDTH 7 0
BBX 8 14 2 0
BITMAP
7F
FE
00
3C
3C
3C
78
78
78
78
78
F0
F0
F0
ENDCHAR
STARTCHAR lcommaaccent
ENCODING 182
SWIDTH 343 0
DWIDTH 7 0
BBX 7 22 1 -8
BITMAP
1E
1E
1C
3C
3C
3C
3C
78
78
78
78
70
F0
F0
00
78
78
78
70
30
70
E0
ENDCHAR
STARTCHAR caron
ENCODING 183
SWIDTH 663 0
DWIDTH 13 0
BBX 7 2 6 12
BITMAP
EE
78
ENDCHAR
STARTCHAR cedilla
ENCODING 184
SWIDTH 663 0
DWIDTH 13 0
BBX 4 5 4 -4
BITMAP
30
60
10
10
E0
ENDCHAR
STARTCHAR scaron
ENCODING 185
SWIDTH 527 0
DWIDTH 11 0
BBX 11 14 1 0
BITMAP
0EE0
0780
0000
0FC0
1FC0
3C00
3C00
3E00
1F00
0F80
0780
C780
FF00
FE00
ENDCHAR
STARTCHAR emacron
ENCODING 186
SWIDTH 612 0
DWIDTH 12 0
BBX 11 14 1 0
BITMAP
1FC0
1FC0
0000
07C0
1FE0
3CE0
78E0
71C0
FF80
FE00
F020
F8E0
7FE0
3F00
ENDCHAR
STARTCHAR gcommaaccent
ENCODING 187
SWIDTH 674 0
DWIDTH 13 0
BBX 13 22 1 -4
BITMAP
01C0
0300
0380
0780
0780
0780
0000
03F8
0FF0
1C70
38F0
30F0
71F0
6260
6660
7CE0
7CE0
30E0
01C0
C1C0
FF80
7E00
ENDCHAR
STARTCHAR tbar
ENCODING 188
SWIDTH 437 0
DWIDTH 9 0
BBX 7 13 2 0
BITMAP
3C
38
FE
FE
78
70
FE
FE
E0
E0
F4
FC
78
ENDCHAR
STARTCHAR Eng
ENCODING 189
SWIDTH 789 0
DWIDTH 16 0
BBX 15 18 2 -4
BITMAP
1C0E
1C0E
3E0C
3E1C
3F1C
3F1C
339C
7398
71F8
71F8
70F8
60F8
E078
E070
0070
0860
0FC0
0F80
ENDCHAR
STARTCHAR zcaron
ENCODING 190
SWIDTH 630 0
DWIDTH 13 0
BBX 12 14 1 0
BITMAP
0770
03C0
0000
3FF0
3FE0
00C0
0180
0300
0600
0C00
1800
3000
7FE0
FFE0
ENDCHAR
STARTCHAR eng
ENCODING 191
SWIDTH 675 0
DWIDTH 13 0
BBX 12 15 2 -4
BITMAP
3CE0
3DF0
3BF0
7AE0
7CE0
7CE0
78E0
70E0
F0E0
F0E0
F0C0
01C0
2180
3F00
3E00
ENDCHAR
STARTCHAR Amacron
ENCODING 192
SWIDTH 771 0
DWIDTH 15 0
BBX 14 17 1 0
BITMAP
07F0
07F0
0000
00E0
01F0
01F0
03F0
0270
0670
0C78
0C78
1FF8
1FF8
3038
203C
603C
E03C
ENDCHAR
STARTCHAR Aacute
ENCODING 193
SWIDTH 771 0
DWIDTH 15 0
BBX 14 17 1 0
BITMAP
003C
00E0
0000
00E0
01F0
01F0
03F0
0270
0670
0C78
0C78
1FF8
1FF8
3038
203C
603C
E03C
ENDCHAR
STARTCHAR Acircumflex
ENCODING 194
SWIDTH 771 0
DWIDTH 15 0
BBX 14 17 1 0
BITMAP
00F0
03B8
0000
00E0
01F0
01F0
03F0
0270
0670
0C78
0C78
1FF8
1FF8
3038
203C
603C
E03C
ENDCHAR
STARTCHAR Atilde
ENCODING 195
SWIDTH 771 0
DWIDTH 15 0
BBX 14 17 1 0
BITMAP
01FC
03F8
0000
00E0
01F0
01F0
03F0
0270
0670
0C78
0C78
1FF8
1FF8
3038
203C
603C
E03C
ENDCHAR
STARTCHAR Adieresis
ENCODING 196
SWIDTH 771 0
DWIDTH 15 0
BBX 14 17 1 0
BITMAP
01DC
01DC
0000
00E0
01F0
01F0
03F0
0270
0670
0C78
0C78
1FF8
1FF8
3038
203C
603C
E03C
ENDCHAR
STARTCHAR Aring
ENCODING 197
SWIDTH 771 0
DWIDTH 15 0
BBX 14 17 1 0
BITMAP
0070
0070
0000
00E0
01F0
01F0
03F0
0270
0670
0C78
0C78
1FF8
1FF8
3038
203C
603C
E03C
ENDCHAR
STARTCHAR AE
ENCODING 198
SWIDTH 1004 0
DWIDTH 20 0
BBX 21 14 0 0
BITMAP
001FF8
003FF8
007E00
007C00
00DC00
01BC00
03BFE0
073FC0
063800
0FF800
1FF800
387800
307FE0
E07FE0
ENDCHAR
STARTCHAR Iogonek
ENCODING 199
SWIDTH 361 0
DWIDTH 7 0
BBX 7 17 2 -3
BITMAP
1E
1E
3C
3C
3C
3C
3C
78
78
78
78
78
F0
F0
00
30
78
ENDCHAR
STARTCHAR Ccaron
ENCODING 200
SWIDTH 737 0
DWIDTH 15 0
BBX 15 17 2 0
BITMAP
0770
03C0
0000
01FE
07FE
1E06
3C00
7800
7000
E000
E000
E000
E000
F000
7818
7FF8
1FE0
ENDCHAR
STARTCHAR Eacute
ENCODING 201
SWIDTH 642 0
DWIDTH 13 0
BBX 13 17 2 0
BITMAP
00F0
0380
0000
1FF8
1FF8
3C00
3C00
3C00
3C00
3FE0
7FC0
7800
7800
7800
7800
FFE0
FFE0
ENDCHAR
STARTCHAR Eogonek
ENCODING 202
SWIDTH 642 0
DWIDTH 13 0
BBX 13 17 2 -3
BITMAP
1FF8
1FF8
3C00
3C00
3C00
3C00
3FE0
7FC0
7800
7800
7800
7800
FFE0
FFE0
0000
0C00
1E00
ENDCHAR
STARTCHAR Edieresis
ENCODING 203
SWIDTH 642 0
DWIDTH 13 0
BBX 13 17 2 0
BITMAP
0770
0770
0000
1FF8
1FF8
3C00
3C00
3C00
3C00
3FE0
7FC0
7800
7800
7800
7800
FFE0
FFE0
ENDCHAR
STARTCHAR Edotaccent
ENCODING 204
SWIDTH 642 0
DWIDTH 13 0
BBX 13 17 2 0
BITMAP
0700
0700
0000
1FF8
1FF8
3C00
3C00
3C00
3C00
3FE0
7FC0
7800
7800
7800
7800
FFE0
FFE0
ENDCHAR
STARTCHAR Iacute
ENCODING 205
SWIDTH 361 0
DWIDTH 7 0
BBX 9 17 2 0
BITMAP
0780
1C00
0000
1E00
1E00
3C00
3C00
3C00
3C00
3C00
7800
7800
7800
7800
7800
F000
F000
ENDCHAR
STARTCHAR Icircumflex
ENCODING 206
SWIDTH 361 0
DWIDTH 7 0
BBX 8 17 2 0
BITMAP
1E
77
00
1E
1E
3C
3C
3C
3C
3C
78
78
78
78
78
F0
F0
ENDCHAR
STARTCHAR Imacron
ENCODING 207
SWIDTH 361 0
DWIDTH 7 0
BBX 8 17 2 0
BITMAP
7F
7F
00
1E
1E
3C
3C
3C
3C
3C
78
78
78
78
78
F0
F0
ENDCHAR
STARTCHAR Dcroat
ENCODING 208
SWIDTH 822 0
DWIDTH 16 0
BBX 16 14 1 0
BITMAP
1FFC
1FFE
1F0F
1E07
1E07
3E07
FFC7
FF87
3C0E
380E
781C
7878
7FF0
7FC0
ENDCHAR
STARTCHAR Ncommaaccent
ENCODING 209
SWIDTH 789 0
DWIDTH 16 0
BBX 15 22 2 -8
BITMAP
1C0E
1C0E
3E0C
3E1C
3F1C
3F1C
339C
7398
71F8
71F8
70F8
60F8
E070
E070
0000
0780
0780
0780
0700
0300
0700
0E00
ENDCHAR
STARTCHAR Omacron
ENCODING 210
SWIDTH 855 0
DWIDTH 17 0
BBX 14 17 3 0
BITMAP
0FE0
0FE0
0000
03E0
0FF8
1C38
381C
701C
701C
E01C
E01C
E038
E038
F070
70E0
7FC0
1F00
ENDCHAR
STARTCHAR Kcommaaccent
ENCODING 211
SWIDTH 753 0
DWIDTH 15 0
BBX 14 22 2 -8
BITMAP
1E1C
1E38
3C70
3CE0
3DC0
3D80
3B00
7F80
79C0
79C0
78E0
70E0
F070
F078
0000
0780
0780
0780
0700
0300
0700
0E00
ENDCHAR
STARTCHAR Ocircumflex
ENCODING 212
SWIDTH 855 0
DWIDTH 17 0
BBX 14 17 3 0
BITMAP
01E0
0770
0000
03E0
0FF8
1C38
381C
701C
701C
E01C
E01C
E038
E038
F070
70E0
7FC0
1F00
ENDCHAR
STARTCHAR Otilde
ENCODING 213
SWIDTH 855 0
DWIDTH 17 0
BBX 14 17 3 0
BITMAP
03F8
07F0
0000
03E0
0FF8
1C38
381C
701C
701C
E01C
E01C
E038
E038
F070
70E0
7FC0
1F00
ENDCHAR
STARTCHAR Odieresis
ENCODING 214
SWIDTH 855 0
DWIDTH 17 0
BBX 14 17 3 0
BITMAP
0770
0770
0000
03E0
0FF8
1C38
381C
701C
701C
E01C
E01C
E038
E038
F070
70E0
7FC0
1F00
ENDCHAR
STARTCHAR multiply
ENCODING 215
SWIDTH 687 0
DWIDTH 14 0
BBX 13 11 2 0
BITMAP
1008
3018
1860
0CC0
0580
0200
0D00
1980
30C0
C060
8040
ENDCHAR
STARTCHAR Oslash
ENCODING 216
SWIDTH 855 0
DWIDTH 17 0
BBX 17 14 4 0
BITMAP
01F180
07FF00
0E1E00
1C1E00
383E00
386E00
70CE00
718E00
731C00
761C00
7C3800
387000
7FE000
CF8000
ENDCHAR
STARTCHAR Uogonek
ENCODING 217
SWIDTH 759 0
DWIDTH 15 0
BBX 14 17 3 -3
BITMAP
3C1C
383C
7838
7838
7038
7038
7078
E070
E070
E070
E0F0
F0E0
7FC0
1F80
0000
0600
0F00
ENDCHAR
STARTCHAR Uacute
ENCODING 218
SWIDTH 759 0
DWIDTH 15 0
BBX 14 17 3 0
BITMAP
00F0
0380
0000
3C1C
383C
7838
7838
7038
7038
7078
E070
E070
E070
E0F0
F0E0
7FC0
1F80
ENDCHAR
STARTCHAR Ucircumflex
ENCODING 219
SWIDTH 759 0
DWIDTH 15 0
BBX 14 17 3 0
BITMAP
01E0
0770
0000
3C1C
383C
7838
7838
7038
7038
7078
E070
E070
E070
E0F0
F0E0
7FC0
1F80
ENDCHAR
STARTCHAR Udieresis
ENCODING 220
SWIDTH 759 0
DWIDTH 15 0
BBX 14 17 3 0
BITMAP
0770
0770
0000
3C1C
383C
7838
7838
7038
7038
7078
E070
E070
E070
E0F0
F0E0
7FC0
1F80
ENDCHAR
STARTCHAR Utilde
ENCODING 221
SWIDTH 759 0
DWIDTH 15 0
BBX 14 17 3 0
BITMAP
07F0
0FE0
0000
3C1C
383C
7838
7838
7038
7038
7078
E070
E070
E070
E0F0
F0E0
7FC0
1F80
ENDCHAR
STARTCHAR Umacron
ENCODING 222
SWIDTH 759 0
DWIDTH 15 0
BBX 14 17 3 0
BITMAP
0FE0
0FE0
0000
3C1C
383C
7838
7838
7038
7038
7078
E070
E070
E070
E0F0
F0E0
7FC0
1F80
ENDCHAR
STARTCHAR germandbls
ENCODING 223
SWIDTH 708 0
DWIDTH 14 0
BBX 13 18 1 -4
BITMAP
03E0
0FF0
0E70
1E70
1EE0
1CC0
1DC0
3DE0
3CF0
3878
3838
7A38
7BF0
7BE0
7000
7000
F000
F000
ENDCHAR
STARTCHAR amacron
ENCODING 224
SWIDTH 681 0
DWIDTH 14 0
BBX 13 14 1 0
BITMAP
0FE0
0FE0
0000
07F8
0FF8
1C78
30F0
70F0
61F0
E2F0
E6F0
FDE0
F9E0
71E0
ENDCHAR
STARTCHAR aacute
ENCODING 225
SWIDTH 681 0
DWIDTH 14 0
BBX 13 14 1 0
BITMAP
00F0
0380
0000
07F8
0FF8
1C78
30F0
70F0
61F0
E2F0
E6F0
FDE0
F9E0
71E0
ENDCHAR
STARTCHAR acircumflex
ENCODING 226
SWIDTH 681 0
DWIDTH 14 0
BBX 13 14 1 0
BITMAP
01E0
0770
0000
07F8
0FF8
1C78
30F0
70F0
61F0
E2F0
E6F0
FDE0
F9E0
71E0
ENDCHAR
STARTCHAR atilde
ENCODING 227
SWIDTH 681 0
DWIDTH 14 0
BBX 13 14 1 0
BITMAP
03F8
07F0
0000
07F8
0FF8
1C78
30F0
70F0
61F0
E2F0
E6F0
FDE0
F9E0
71E0
ENDCHAR
STARTCHAR adieresis
ENCODING 228
SWIDTH 681 0
DWIDTH 14 0
BBX 13 14 1 0
BITMAP
0770
0770
0000
07F8
0FF8
1C78
30F0
70F0
61F0
E2F0
E6F0
FDE0
F9E0
71E0
ENDCHAR
STARTCHAR aring
ENCODING 229
SWIDTH 681 0
DWIDTH 14 0
BBX 13 14 1 0
BITMAP
01C0
01C0
0000
07F8
0FF8
1C78
30F0
70F0
61F0
E2F0
E6F0
FDE0
F9E0
71E0
ENDCHAR
STARTCHAR ae
ENCODING 230
SWIDTH 987 0
DWIDTH 20 0
BBX 18 11 2 0
BITMAP
07FF80
1FFFC0
38F9C0
30F1C0
70F380
61FF00
E2FC00
E6E040
FCF1C0
F8FFC0
707E00
ENDCHAR
STARTCHAR iogonek
ENCODING 231
SWIDTH 343 0
DWIDTH 7 0
BBX 7 17 1 -3
BITMAP
1E
3E
00
3C
3C
3C
78
78
78
78
78
F0
F0
F0
00
30
78
ENDCHAR
STARTCHAR ccaron
ENCODING 232
SWIDTH 548 0
DWIDTH 11 0
BBX 9 14 2 0
BITMAP
3B80
1E00
0000
0780
1F80
3880
7000
7000
E000
E000
E100
E100
7F00
3E00
ENDCHAR
STARTCHAR eacute
ENCODING 233
SWIDTH 612 0
DWIDTH 12 0
BBX 11 14 1 0
BITMAP
01E0
0700
0000
07C0
1FE0
3CE0
78E0
71C0
FF80
FE00
F020
F8E0
7FE0
3F00
ENDCHAR
STARTCHAR eogonek
ENCODING 234
SWIDTH 612 0
DWIDTH 12 0
BBX 11 14 1 -3
BITMAP
07C0
1FE0
3CE0
78E0
71C0
FF80
FE00
F020
F8E0
7FE0
3F00
0000
0C00
1E00
ENDCHAR
STARTCHAR edieresis
ENCODING 235
SWIDTH 612 0
DWIDTH 12 0
BBX 11 14 1 0
BITMAP
0EE0
0EE0
0000
07C0
1FE0
3CE0
78E0
71C0
FF80
FE00
F020
F8E0
7FE0
3F00
ENDCHAR
STARTCHAR edotaccent
ENCODING 236
SWIDTH 612 0
DWIDTH 12 0
BBX 11 14 1 0
BITMAP
0700
0700
0000
07C0
1FE0
3CE0
78E0
71C0
FF80
FE00
F020
F8E0
7FE0
3F00
ENDCHAR
STARTCHAR iacute
ENCODING 237
SWIDTH 343 0
DWIDTH 7 0
BBX 9 14 2 0
BITMAP
0780
1C00
0000
3C00
3C00
3C00
7800
7800
7800
7800
7800
F000
F000
F000
ENDCHAR
STARTCHAR icircumflex
ENCODING 238
SWIDTH 343 0
DWIDTH 7 0
BBX 8 14 2 0
BITMAP
1E
77
00
3C
3C
3C
78
78
78
78
78
F0
F0
F0
ENDCHAR
STARTCHAR imacron
ENCODING 239
SWIDTH 343 0
DWIDTH 7 0
BBX 7 14 2 0
BITMAP
FE
FE
00
3C
3C
3C
78
78
78
78
78
F0
F0
F0
ENDCHAR
STARTCHAR dcroat
ENCODING 240
SWIDTH 681 0
DWIDTH 14 0
BBX 14 14 1 0
BITMAP
003C
01FC
01FC
07F8
0FF8
1C78
30F8
70F0
61F0
E2F0
E6F0
FDE0
F9E0
71E0
ENDCHAR
STARTCHAR ncommaaccent
ENCODING 241
SWIDTH 675 0
DWIDTH 13 0
BBX 12 19 2 -8
BITMAP
3CE0
3DF0
3BF0
7AE0
7CE0
7CE0
78E0
70E0
F0C0
F1C0
F1C0
0000
1E00
1E00
1E00
1C00
0C00
1C00
3800
ENDCHAR
STARTCHAR omacron
ENCODING 242
SWIDTH 663 0
DWIDTH 13 0
BBX 10 14 3 0
BITMAP
3F80
3F80
0000
0F80
1FC0
39C0
71C0
61C0
E1C0
E1C0
E180
E380
7F00
3C00
ENDCHAR
STARTCHAR kcommaaccent
ENCODING 243
SWIDTH 666 0
DWIDTH 13 0
BBX 12 22 1 -8
BITMAP
1E00
1E00
1C00
3C30
3C60
3CC0
3880
7900
7F80
7B80
7980
71C0
F1C0
F0E0
0000
0F00
0F00
0F00
0E00
0600
0E00
1C00
ENDCHAR
STARTCHAR ocircumflex
ENCODING 244
SWIDTH 663 0
DWIDTH 13 0
BBX 10 14 3 0
BITMAP
0780
1DC0
0000
0F80
1FC0
39C0
71C0
61C0
E1C0
E1C0
E180
E380
7F00
3C00
ENDCHAR
STARTCHAR otilde
ENCODING 245
SWIDTH 663 0
DWIDTH 13 0
BBX 11 14 3 0
BITMAP
0FE0
1FC0
0000
0F80
1FC0
39C0
71C0
61C0
E1C0
E1C0
E180
E380
7F00
3C00
ENDCHAR
STARTCHAR odieresis
ENCODING 246
SWIDTH 663 0
DWIDTH 13 0
BBX 11 14 3 0
BITMAP
0EE0
0EE0
0000
0F80
1FC0
39C0
71C0
61C0
E1C0
E1C0
E180
E380
7F00
3C00
ENDCHAR
STARTCHAR divide
ENCODING 247
SWIDTH 687 0
DWIDTH 14 0
BBX 12 11 2 0
BITMAP
0380
0700
0000
0000
FFF0
FFF0
0000
0000
0000
0E00
1C00
ENDCHAR
STARTCHAR oslash
ENCODING 248
SWIDTH 663 0
DWIDTH 13 0
BBX 12 11 4 0
BITMAP
07F0
0FE0
1CE0
39E0
33E0
76E0
7CE0
78C0
71C0
7F80
DE00
ENDCHAR
STARTCHAR uogonek
ENCODING 249
SWIDTH 675 0
DWIDTH 13 0
BBX 12 14 2 -3
BITMAP
38F0
38F0
30F0
70E0
71E0
73E0
73E0
75E0
FDC0
FBC0
73C0
0000
0C00
1E00
ENDCHAR
STARTCHAR uacute
ENCODING 250
SWIDTH 675 0
DWIDTH 13 0
BBX 12 14 2 0
BITMAP
01E0
0700
0000
38F0
38F0
30F0
70E0
71E0
73E0
73E0
75E0
FDC0
FBC0
73C0
ENDCHAR
STARTCHAR ucircumflex
ENCODING 251
SWIDTH 675 0
DWIDTH 13 0
BBX 12 14 2 0
BITMAP
03C0
0EE0
0000
38F0
38F0
30F0
70E0
71E0
73E0
73E0
75E0
FDC0
FBC0
73C0
ENDCHAR
STARTCHAR udieresis
ENCODING 252
SWIDTH 675 0
DWIDTH 13 0
BBX 12 14 2 0
BITMAP
0EE0
0EE0
0000
38F0
38F0
30F0
70E0
71E0
73E0
73E0
75E0
FDC0
FBC0
73C0
ENDCHAR
STARTCHAR utilde
ENCODING 253
SWIDTH 675 0
DWIDTH 13 0
BBX 12 14 2 0
BITMAP
0FE0
1FC0
0000
38F0
38F0
30F0
70E0
71E0
73E0
73E0
75E0
FDC0
FBC0
73C0
ENDCHAR
STARTCHAR umacron
ENCODING 254
SWIDTH 675 0
DWIDTH 13 0
BBX 12 14 2 0
BITMAP
1FC0
1FC0
0000
38F0
38F0
30F0
70E0
71E0
73E0
73E0
75E0
FDC0
FBC0
73C0
ENDCHAR
STARTCHAR dotaccent
ENCODING 255
SWIDTH 663 0
DWIDTH 13 0
BBX 3 2 8 12
BITMAP
E0
E0
ENDCHAR
ENDFONT
