STARTFONT 2.1
COMMENT AUTOMATICALLY GENERATED FILE. DO NOT EDIT!
COMMENT Generated with 'ucs2any lubR12.bdf /usr/local/lib/X11/fonts/util/map-ISO8859-2 ISO8859-2'
COMMENT from an ISO10646-1 encoded source BDF font.
COMMENT ucs2any by Ben Collver <collver1@attbi.com>, 2003, based on
COMMENT ucs2any.pl by Markus Kuhn <http://www.cl.cam.ac.uk/~mgk25/>, 2000.
COMMENT $Xorg: $
COMMENT ISO10646-1 extension by Markus Kuhn <mkuhn@acm.org>, 2001-03-20
COMMENT  (c) Copyright Bigelow & Holmes 1986, 1985. Lucida is a registered
COMMENT  trademark of Bigelow & Holmes. See LEGAL NOTICE file for terms
COMMENT  of the license.
FONT -B&H-LucidaBright-Medium-R-Normal--17-120-100-100-P-96-ISO8859-2
SIZE 12 100 100
FONTBOUNDINGBOX 17 19 0 -3
STARTPROPERTIES 22
COMMENT Begin LogicalFontDescription
FONTNAME_REGISTRY ""
FOUNDRY "B&H"
FAMILY_NAME "LucidaBright"
WEIGHT_NAME "Medium"
SLANT "R"
SETWIDTH_NAME "Normal"
ADD_STYLE_NAME ""
PIXEL_SIZE 17
POINT_SIZE 120
RESOLUTION_X 100
RESOLUTION_Y 100
SPACING "P"
AVERAGE_WIDTH 96
CHARSET_REGISTRY "ISO8859"
CHARSET_ENCODING "2"
COMMENT END LogicalFontDescription
FONT_ASCENT 15
FONT_DESCENT 4
DEFAULT_CHAR 0
COPYRIGHT "Copyright Bigelow & Holmes 1986, 1985."
FACE_NAME "Lucida Bright"
X_HEIGHT 9
CAP_HEIGHT 13
ENDPROPERTIES
CHARS 192
STARTCHAR defaultchar
ENCODING 0
SWIDTH 771 0
DWIDTH 13 0
BBX 13 13 0 0
BITMAP
AAA8
0000
8008
0000
8008
0000
8008
0000
8008
0000
8008
0000
AAA8
ENDCHAR
STARTCHAR space
ENCODING 32
SWIDTH 333 0
DWIDTH 5 0
BBX 1 1 0 0
BITMAP
00
ENDCHAR
STARTCHAR exclam
ENCODING 33
SWIDTH 265 0
DWIDTH 4 0
BBX 2 13 3 0
BITMAP
40
40
40
40
40
40
80
80
80
80
00
00
40
ENDCHAR
STARTCHAR quotedbl
ENCODING 34
SWIDTH 386 0
DWIDTH 7 0
BBX 5 4 1 9
BITMAP
88
88
50
50
ENDCHAR
STARTCHAR numbersign
ENCODING 35
SWIDTH 608 0
DWIDTH 10 0
BBX 10 13 0 0
BITMAP
0980
0900
0900
0900
7FC0
1200
1200
1200
FF80
2400
2400
2400
6400
ENDCHAR
STARTCHAR dollar
ENCODING 36
SWIDTH 608 0
DWIDTH 10 0
BBX 7 14 2 -1
BITMAP
1E
F2
92
90
90
70
18
14
12
12
92
94
F8
10
ENDCHAR
STARTCHAR percent
ENCODING 37
SWIDTH 675 0
DWIDTH 11 0
BBX 11 13 0 0
BITMAP
7060
C840
8880
8900
8B00
7200
05C0
0B20
1A20
1220
2220
4220
C1C0
ENDCHAR
STARTCHAR ampersand
ENCODING 38
SWIDTH 690 0
DWIDTH 12 0
BBX 12 13 0 0
BITMAP
1E00
3300
2100
2100
3200
2C00
4CF0
8420
8220
8120
C0C0
61C0
3EF0
ENDCHAR
STARTCHAR quotesingle
ENCODING 39
SWIDTH 241 0
DWIDTH 4 0
BBX 3 5 1 8
BITMAP
E0
E0
E0
40
40
ENDCHAR
STARTCHAR parenleft
ENCODING 40
SWIDTH 316 0
DWIDTH 5 0
BBX 3 16 1 -3
BITMAP
20
40
40
80
80
80
80
80
80
80
80
80
80
40
40
20
ENDCHAR
STARTCHAR parenright
ENCODING 41
SWIDTH 316 0
DWIDTH 5 0
BBX 3 16 1 -3
BITMAP
80
80
40
20
20
20
20
20
20
20
20
20
20
40
80
80
ENDCHAR
STARTCHAR asterisk
ENCODING 42
SWIDTH 470 0
DWIDTH 8 0
BBX 7 5 1 8
BITMAP
10
D2
2C
28
44
ENDCHAR
STARTCHAR plus
ENCODING 43
SWIDTH 608 0
DWIDTH 10 0
BBX 9 11 1 0
BITMAP
0800
0800
0800
0800
0800
FF80
0800
0800
0800
0800
0800
ENDCHAR
STARTCHAR comma
ENCODING 44
SWIDTH 265 0
DWIDTH 4 0
BBX 2 5 1 -3
BITMAP
C0
C0
40
40
80
ENDCHAR
STARTCHAR hyphen
ENCODING 45
SWIDTH 325 0
DWIDTH 6 0
BBX 4 1 1 5
BITMAP
F0
ENDCHAR
STARTCHAR period
ENCODING 46
SWIDTH 265 0
DWIDTH 4 0
BBX 2 1 1 0
BITMAP
C0
ENDCHAR
STARTCHAR slash
ENCODING 47
SWIDTH 512 0
DWIDTH 9 0
BBX 9 16 0 -3
BITMAP
0080
0100
0100
0200
0200
0400
0400
0800
0800
1000
1000
2000
2000
4000
4000
8000
ENDCHAR
STARTCHAR zero
ENCODING 48
SWIDTH 608 0
DWIDTH 10 0
BBX 9 13 1 0
BITMAP
3E00
4100
4100
8080
8080
8080
8080
8080
8080
8080
4100
4100
3E00
ENDCHAR
STARTCHAR one
ENCODING 49
SWIDTH 608 0
DWIDTH 10 0
BBX 5 13 3 0
BITMAP
E0
20
20
20
20
20
20
20
20
20
20
20
F8
ENDCHAR
STARTCHAR two
ENCODING 50
SWIDTH 608 0
DWIDTH 10 0
BBX 7 13 2 0
BITMAP
78
84
82
02
02
06
0C
18
30
60
40
80
FE
ENDCHAR
STARTCHAR three
ENCODING 51
SWIDTH 608 0
DWIDTH 10 0
BBX 7 13 2 0
BITMAP
F8
86
82
02
02
04
7C
06
02
02
82
C4
F8
ENDCHAR
STARTCHAR four
ENCODING 52
SWIDTH 608 0
DWIDTH 10 0
BBX 9 13 0 0
BITMAP
0200
0600
0A00
1A00
1200
2200
4200
C200
FF80
0200
0200
0200
0F80
ENDCHAR
STARTCHAR five
ENCODING 53
SWIDTH 608 0
DWIDTH 10 0
BBX 6 13 2 0
BITMAP
FC
80
80
80
F0
18
04
04
04
04
84
88
F0
ENDCHAR
STARTCHAR six
ENCODING 54
SWIDTH 608 0
DWIDTH 10 0
BBX 8 13 1 0
BITMAP
1F
23
41
80
80
BC
C2
81
81
81
41
62
3C
ENDCHAR
STARTCHAR seven
ENCODING 55
SWIDTH 608 0
DWIDTH 10 0
BBX 8 13 2 0
BITMAP
FF
03
02
06
04
08
18
10
30
20
20
40
40
ENDCHAR
STARTCHAR eight
ENCODING 56
SWIDTH 608 0
DWIDTH 10 0
BBX 8 13 1 0
BITMAP
3C
C3
81
81
C1
7E
4C
82
81
81
81
42
3C
ENDCHAR
STARTCHAR nine
ENCODING 57
SWIDTH 608 0
DWIDTH 10 0
BBX 8 13 1 0
BITMAP
3C
46
82
81
81
81
43
3D
01
01
82
C4
F8
ENDCHAR
STARTCHAR colon
ENCODING 58
SWIDTH 265 0
DWIDTH 4 0
BBX 1 9 2 0
BITMAP
80
00
00
00
00
00
00
00
80
ENDCHAR
STARTCHAR semicolon
ENCODING 59
SWIDTH 265 0
DWIDTH 4 0
BBX 1 12 2 -3
BITMAP
80
00
00
00
00
00
00
80
80
80
80
80
ENDCHAR
STARTCHAR less
ENCODING 60
SWIDTH 608 0
DWIDTH 10 0
BBX 10 11 0 0
BITMAP
0040
0180
0600
0C00
3000
C000
3000
0C00
0700
0180
0040
ENDCHAR
STARTCHAR equal
ENCODING 61
SWIDTH 608 0
DWIDTH 10 0
BBX 10 4 0 3
BITMAP
FFC0
0000
0000
FFC0
ENDCHAR
STARTCHAR greater
ENCODING 62
SWIDTH 608 0
DWIDTH 10 0
BBX 10 11 0 0
BITMAP
8000
6000
3800
0C00
0300
00C0
0300
0C00
1800
6000
8000
ENDCHAR
STARTCHAR question
ENCODING 63
SWIDTH 480 0
DWIDTH 8 0
BBX 6 13 1 0
BITMAP
F8
8C
84
04
08
08
10
20
20
20
00
00
20
ENDCHAR
STARTCHAR at
ENCODING 64
SWIDTH 873 0
DWIDTH 15 0
BBX 13 13 1 0
BITMAP
07C0
1830
3010
6788
4888
9088
9108
9318
9730
9DE0
4000
6100
1E00
ENDCHAR
STARTCHAR A
ENCODING 65
SWIDTH 744 0
DWIDTH 13 0
BBX 13 13 0 0
BITMAP
0200
0600
0600
0500
0900
0880
1080
1080
3FC0
2040
2020
4020
E0F8
ENDCHAR
STARTCHAR B
ENCODING 66
SWIDTH 609 0
DWIDTH 10 0
BBX 9 13 0 0
BITMAP
FF00
2180
2080
2080
2080
2300
3F00
2300
2080
2080
2080
2180
FF00
ENDCHAR
STARTCHAR C
ENCODING 67
SWIDTH 695 0
DWIDTH 12 0
BBX 10 13 1 0
BITMAP
1FC0
30C0
4040
4000
8000
8000
8000
8000
8000
4000
4000
3040
1F80
ENDCHAR
STARTCHAR D
ENCODING 68
SWIDTH 768 0
DWIDTH 13 0
BBX 12 13 0 0
BITMAP
FF80
20C0
2020
2010
2010
2010
2010
2010
2010
2010
2020
2040
FF80
ENDCHAR
STARTCHAR E
ENCODING 69
SWIDTH 566 0
DWIDTH 10 0
BBX 10 13 0 0
BITMAP
FFC0
2040
2000
2000
2000
2100
3F00
2100
2000
2000
2040
2040
FFC0
ENDCHAR
STARTCHAR F
ENCODING 70
SWIDTH 548 0
DWIDTH 9 0
BBX 9 13 0 0
BITMAP
FF80
2080
2000
2000
2000
2100
3F00
2100
2000
2000
2000
2000
F800
ENDCHAR
STARTCHAR G
ENCODING 71
SWIDTH 732 0
DWIDTH 12 0
BBX 12 13 1 0
BITMAP
1F80
30C0
4040
4000
8000
8000
8000
81F0
8040
4040
4040
3040
1FC0
ENDCHAR
STARTCHAR H
ENCODING 72
SWIDTH 771 0
DWIDTH 13 0
BBX 13 13 0 0
BITMAP
F8F8
2020
2020
2020
2020
2020
3FE0
2020
2020
2020
2020
2020
F8F8
ENDCHAR
STARTCHAR I
ENCODING 73
SWIDTH 325 0
DWIDTH 6 0
BBX 5 13 0 0
BITMAP
F8
20
20
20
20
20
20
20
20
20
20
20
F8
ENDCHAR
STARTCHAR J
ENCODING 74
SWIDTH 422 0
DWIDTH 7 0
BBX 7 16 0 -3
BITMAP
3E
08
08
08
08
08
08
08
08
08
08
08
08
88
90
F0
ENDCHAR
STARTCHAR K
ENCODING 75
SWIDTH 708 0
DWIDTH 12 0
BBX 12 13 0 0
BITMAP
F9E0
20C0
2100
2200
2400
2800
3800
2C00
2600
2300
2180
20C0
F3F0
ENDCHAR
STARTCHAR L
ENCODING 76
SWIDTH 557 0
DWIDTH 9 0
BBX 9 13 0 0
BITMAP
F800
2000
2000
2000
2000
2000
2000
2000
2000
2000
2080
2080
FF80
ENDCHAR
STARTCHAR M
ENCODING 77
SWIDTH 860 0
DWIDTH 15 0
BBX 15 13 0 0
BITMAP
F01E
3018
2818
2828
2828
2448
2448
2248
2288
2188
2108
2108
F83E
ENDCHAR
STARTCHAR N
ENCODING 78
SWIDTH 751 0
DWIDTH 13 0
BBX 13 13 0 0
BITMAP
E0F8
3020
3020
2820
2420
2620
2220
2120
21A0
20A0
2060
2020
F820
ENDCHAR
STARTCHAR O
ENCODING 79
SWIDTH 777 0
DWIDTH 13 0
BBX 11 13 1 0
BITMAP
1F00
2080
4040
C060
8020
8020
8020
8020
8020
C060
4040
2080
1F00
ENDCHAR
STARTCHAR P
ENCODING 80
SWIDTH 573 0
DWIDTH 10 0
BBX 9 13 0 0
BITMAP
FE00
2100
2080
2080
2080
2180
2300
3E00
2000
2000
2000
2000
F800
ENDCHAR
STARTCHAR Q
ENCODING 81
SWIDTH 778 0
DWIDTH 13 0
BBX 13 16 1 -3
BITMAP
1F00
2080
4040
C040
8020
8020
8020
8020
8020
C060
4040
20C0
1F80
0180
00E0
0038
ENDCHAR
STARTCHAR R
ENCODING 82
SWIDTH 679 0
DWIDTH 11 0
BBX 11 13 0 0
BITMAP
FE00
2180
2080
2080
2080
2100
3E00
2200
2200
2100
2100
2080
F0E0
ENDCHAR
STARTCHAR S
ENCODING 83
SWIDTH 542 0
DWIDTH 9 0
BBX 7 13 1 0
BITMAP
3E
42
82
80
C0
60
18
04
02
02
82
84
F8
ENDCHAR
STARTCHAR T
ENCODING 84
SWIDTH 663 0
DWIDTH 11 0
BBX 11 13 0 0
BITMAP
FFE0
0400
0400
0400
0400
0400
0400
0400
0400
0400
0400
0400
1F00
ENDCHAR
STARTCHAR U
ENCODING 85
SWIDTH 719 0
DWIDTH 12 0
BBX 13 13 0 0
BITMAP
F8F8
2020
2020
2020
2020
2020
2020
2020
2020
2020
2020
1040
0F80
ENDCHAR
STARTCHAR V
ENCODING 86
SWIDTH 699 0
DWIDTH 12 0
BBX 12 13 0 0
BITMAP
F070
6020
2020
2040
1040
10C0
0880
0880
0D00
0500
0500
0200
0200
ENDCHAR
STARTCHAR W
ENCODING 87
SWIDTH 925 0
DWIDTH 16 0
BBX 16 13 0 0
BITMAP
F087
6182
2182
2184
21C4
1244
1248
1248
1428
0C30
0C30
0810
0810
ENDCHAR
STARTCHAR X
ENCODING 88
SWIDTH 657 0
DWIDTH 11 0
BBX 11 13 0 0
BITMAP
F8E0
3040
1080
1100
0B00
0E00
0C00
0A00
1300
3100
2080
40C0
E3E0
ENDCHAR
STARTCHAR Y
ENCODING 89
SWIDTH 678 0
DWIDTH 12 0
BBX 11 13 0 0
BITMAP
F8E0
3040
3080
1080
0900
0A00
0600
0400
0400
0400
0400
0400
1F00
ENDCHAR
STARTCHAR Z
ENCODING 90
SWIDTH 633 0
DWIDTH 11 0
BBX 8 13 1 0
BITMAP
FF
82
86
04
0C
08
10
10
20
20
41
41
FF
ENDCHAR
STARTCHAR bracketleft
ENCODING 91
SWIDTH 316 0
DWIDTH 5 0
BBX 3 16 2 -3
BITMAP
E0
80
80
80
80
80
80
80
80
80
80
80
80
80
80
E0
ENDCHAR
STARTCHAR backslash
ENCODING 92
SWIDTH 512 0
DWIDTH 9 0
BBX 9 16 0 -3
BITMAP
8000
4000
4000
2000
2000
1000
1000
0800
0800
0400
0400
0200
0200
0100
0100
0080
ENDCHAR
STARTCHAR bracketright
ENCODING 93
SWIDTH 316 0
DWIDTH 5 0
BBX 3 16 1 -3
BITMAP
E0
20
20
20
20
20
20
20
20
20
20
20
20
20
20
E0
ENDCHAR
STARTCHAR asciicircum
ENCODING 94
SWIDTH 608 0
DWIDTH 10 0
BBX 10 11 0 2
BITMAP
0400
0C00
0C00
1200
1200
3300
2100
2100
4080
4080
8040
ENDCHAR
STARTCHAR underscore
ENCODING 95
SWIDTH 500 0
DWIDTH 8 0
BBX 7 1 1 -1
BITMAP
FE
ENDCHAR
STARTCHAR grave
ENCODING 96
SWIDTH 602 0
DWIDTH 10 0
BBX 4 1 3 12
BITMAP
F0
ENDCHAR
STARTCHAR a
ENCODING 97
SWIDTH 543 0
DWIDTH 9 0
BBX 8 9 1 0
BITMAP
7C
86
82
02
3E
C2
82
C2
7F
ENDCHAR
STARTCHAR b
ENCODING 98
SWIDTH 611 0
DWIDTH 10 0
BBX 10 13 0 0
BITMAP
E000
2000
2000
2000
2F00
3080
2040
2040
2040
2040
2040
3080
2F00
ENDCHAR
STARTCHAR c
ENCODING 99
SWIDTH 509 0
DWIDTH 9 0
BBX 7 9 1 0
BITMAP
3E
42
C2
80
80
80
80
60
3E
ENDCHAR
STARTCHAR d
ENCODING 100
SWIDTH 642 0
DWIDTH 11 0
BBX 10 13 1 0
BITMAP
0700
0100
0100
0100
3D00
4300
8100
8100
8100
8100
8100
4300
3DC0
ENDCHAR
STARTCHAR e
ENCODING 101
SWIDTH 530 0
DWIDTH 9 0
BBX 7 9 1 0
BITMAP
38
44
82
82
FE
80
80
42
3C
ENDCHAR
STARTCHAR f
ENCODING 102
SWIDTH 404 0
DWIDTH 7 0
BBX 7 13 0 0
BITMAP
1E
22
22
20
FC
20
20
20
20
20
20
20
F8
ENDCHAR
STARTCHAR g
ENCODING 103
SWIDTH 571 0
DWIDTH 10 0
BBX 10 12 0 -3
BITMAP
3FC0
6300
4100
4100
4100
2200
7C00
4000
7F80
8040
C0C0
7F00
ENDCHAR
STARTCHAR h
ENCODING 104
SWIDTH 633 0
DWIDTH 11 0
BBX 11 13 0 0
BITMAP
E000
2000
2000
2000
2F00
3080
2080
2080
2080
2080
2080
2080
FBE0
ENDCHAR
STARTCHAR i
ENCODING 105
SWIDTH 307 0
DWIDTH 5 0
BBX 5 13 0 0
BITMAP
20
00
00
00
E0
20
20
20
20
20
20
20
F8
ENDCHAR
STARTCHAR j
ENCODING 106
SWIDTH 346 0
DWIDTH 6 0
BBX 5 16 0 -3
BITMAP
08
00
00
00
38
08
08
08
08
08
08
08
08
88
88
F0
ENDCHAR
STARTCHAR k
ENCODING 107
SWIDTH 599 0
DWIDTH 10 0
BBX 10 13 0 0
BITMAP
E000
2000
2000
2000
2380
2300
2600
2800
3800
2C00
2600
2300
F1C0
ENDCHAR
STARTCHAR l
ENCODING 108
SWIDTH 313 0
DWIDTH 5 0
BBX 5 13 0 0
BITMAP
E0
20
20
20
20
20
20
20
20
20
20
20
F8
ENDCHAR
STARTCHAR m
ENCODING 109
SWIDTH 946 0
DWIDTH 16 0
BBX 17 9 0 0
BITMAP
EF3C00
30C200
208200
208200
208200
208200
208200
208200
FBEF80
ENDCHAR
STARTCHAR n
ENCODING 110
SWIDTH 633 0
DWIDTH 11 0
BBX 11 9 0 0
BITMAP
EF00
3080
2080
2080
2080
2080
2080
2080
FBE0
ENDCHAR
STARTCHAR o
ENCODING 111
SWIDTH 602 0
DWIDTH 10 0
BBX 9 9 1 0
BITMAP
3E00
6300
C180
8080
8080
8080
C180
6300
3E00
ENDCHAR
STARTCHAR p
ENCODING 112
SWIDTH 642 0
DWIDTH 11 0
BBX 10 12 0 -3
BITMAP
EF00
3080
2040
2040
2040
2040
2040
3080
2F00
2000
2000
F800
ENDCHAR
STARTCHAR q
ENCODING 113
SWIDTH 617 0
DWIDTH 10 0
BBX 10 12 1 -3
BITMAP
3D00
4300
8100
8100
8100
8100
8100
4300
3D00
0100
0100
07C0
ENDCHAR
STARTCHAR r
ENCODING 114
SWIDTH 440 0
DWIDTH 7 0
BBX 6 9 1 0
BITMAP
EC
34
24
20
20
20
20
20
F8
ENDCHAR
STARTCHAR s
ENCODING 115
SWIDTH 504 0
DWIDTH 9 0
BBX 6 9 1 0
BITMAP
7C
84
84
C0
30
0C
84
84
F8
ENDCHAR
STARTCHAR t
ENCODING 116
SWIDTH 392 0
DWIDTH 7 0
BBX 5 12 1 0
BITMAP
40
40
40
F8
40
40
40
40
40
40
40
38
ENDCHAR
STARTCHAR u
ENCODING 117
SWIDTH 633 0
DWIDTH 11 0
BBX 11 9 0 0
BITMAP
E380
2080
2080
2080
2080
2080
2080
2180
1EE0
ENDCHAR
STARTCHAR v
ENCODING 118
SWIDTH 545 0
DWIDTH 9 0
BBX 9 9 0 0
BITMAP
F380
6100
2100
2200
1200
1600
1400
0C00
0800
ENDCHAR
STARTCHAR w
ENCODING 119
SWIDTH 795 0
DWIDTH 14 0
BBX 14 9 0 0
BITMAP
F11C
6308
2308
2298
2490
14D0
1860
1860
1020
ENDCHAR
STARTCHAR x
ENCODING 120
SWIDTH 557 0
DWIDTH 9 0
BBX 10 9 0 0
BITMAP
F1C0
6180
3300
1A00
0C00
1600
2300
4180
E3C0
ENDCHAR
STARTCHAR y
ENCODING 121
SWIDTH 551 0
DWIDTH 9 0
BBX 9 12 0 -3
BITMAP
F380
6100
2100
2300
1200
1200
1C00
0C00
0800
0800
1000
7000
ENDCHAR
STARTCHAR z
ENCODING 122
SWIDTH 595 0
DWIDTH 10 0
BBX 8 9 1 0
BITMAP
FF
86
04
08
10
30
20
41
FF
ENDCHAR
STARTCHAR braceleft
ENCODING 123
SWIDTH 343 0
DWIDTH 6 0
BBX 4 16 1 -3
BITMAP
30
40
40
40
40
40
40
40
80
40
40
40
40
40
40
30
ENDCHAR
STARTCHAR bar
ENCODING 124
SWIDTH 241 0
DWIDTH 4 0
BBX 1 16 2 -3
BITMAP
80
80
80
80
80
80
80
80
80
80
80
80
80
80
80
80
ENDCHAR
STARTCHAR braceright
ENCODING 125
SWIDTH 343 0
DWIDTH 6 0
BBX 4 16 1 -3
BITMAP
C0
20
20
20
20
20
20
20
10
20
20
20
20
20
20
C0
ENDCHAR
STARTCHAR asciitilde
ENCODING 126
SWIDTH 608 0
DWIDTH 10 0
BBX 10 4 0 3
BITMAP
7040
9840
8440
8380
ENDCHAR
STARTCHAR space
ENCODING 160
SWIDTH 333 0
DWIDTH 5 0
BBX 1 1 0 0
BITMAP
00
ENDCHAR
STARTCHAR Aogonek
ENCODING 161
SWIDTH 744 0
DWIDTH 13 0
BBX 13 16 0 -3
BITMAP
0200
0600
0600
0500
0900
0880
1080
1080
3FC0
2040
2020
4020
E0F8
0000
0000
0700
ENDCHAR
STARTCHAR breve
ENCODING 162
SWIDTH 602 0
DWIDTH 10 0
BBX 6 1 2 12
BITMAP
FC
ENDCHAR
STARTCHAR Lslash
ENCODING 163
SWIDTH 557 0
DWIDTH 9 0
BBX 9 13 0 0
BITMAP
F800
2000
2000
2000
2800
3800
2000
E000
2000
2000
2080
2080
FF80
ENDCHAR
STARTCHAR currency
ENCODING 164
SWIDTH 608 0
DWIDTH 10 0
BBX 9 11 1 1
BITMAP
8080
DD80
7700
4100
4100
4100
4100
6300
2200
5D00
8080
ENDCHAR
STARTCHAR Lcaron
ENCODING 165
SWIDTH 794 0
DWIDTH 13 0
BBX 12 13 0 0
BITMAP
F830
2030
2010
2010
2020
2000
2000
2000
2000
2000
2080
2080
FF80
ENDCHAR
STARTCHAR Sacute
ENCODING 166
SWIDTH 542 0
DWIDTH 9 0
BBX 7 15 1 0
BITMAP
3C
00
3E
42
82
80
C0
60
18
04
02
02
82
84
F8
ENDCHAR
STARTCHAR section
ENCODING 167
SWIDTH 608 0
DWIDTH 10 0
BBX 7 16 2 -3
BITMAP
3E
C6
82
80
80
70
9C
86
82
62
1C
06
02
82
C6
FC
ENDCHAR
STARTCHAR dieresis
ENCODING 168
SWIDTH 602 0
DWIDTH 10 0
BBX 5 1 3 12
BITMAP
D8
ENDCHAR
STARTCHAR Scaron
ENCODING 169
SWIDTH 542 0
DWIDTH 9 0
BBX 7 15 1 0
BITMAP
FC
00
3E
42
82
80
C0
60
18
04
02
02
82
84
F8
ENDCHAR
STARTCHAR Scedilla
ENCODING 170
SWIDTH 542 0
DWIDTH 9 0
BBX 7 16 1 -3
BITMAP
3E
42
82
80
C0
60
18
04
02
02
82
84
F8
30
18
38
ENDCHAR
STARTCHAR Tcaron
ENCODING 171
SWIDTH 663 0
DWIDTH 11 0
BBX 11 15 0 0
BITMAP
1F80
0000
FFE0
0400
0400
0400
0400
0400
0400
0400
0400
0400
0400
0400
1F00
ENDCHAR
STARTCHAR Zacute
ENCODING 172
SWIDTH 633 0
DWIDTH 11 0
BBX 8 15 1 0
BITMAP
3C
00
FF
82
86
04
0C
08
10
10
20
20
41
41
FF
ENDCHAR
STARTCHAR hyphen
ENCODING 173
SWIDTH 325 0
DWIDTH 6 0
BBX 4 1 1 5
BITMAP
F0
ENDCHAR
STARTCHAR Zcaron
ENCODING 174
SWIDTH 633 0
DWIDTH 11 0
BBX 8 15 1 0
BITMAP
7E
00
FF
82
86
04
0C
08
10
10
20
20
41
41
FF
ENDCHAR
STARTCHAR Zdotaccent
ENCODING 175
SWIDTH 633 0
DWIDTH 11 0
BBX 8 15 1 0
BITMAP
18
00
FF
82
86
04
0C
08
10
10
20
20
41
41
FF
ENDCHAR
STARTCHAR degree
ENCODING 176
SWIDTH 259 0
DWIDTH 4 0
BBX 3 4 1 9
BITMAP
40
A0
A0
40
ENDCHAR
STARTCHAR aogonek
ENCODING 177
SWIDTH 543 0
DWIDTH 9 0
BBX 8 12 1 -3
BITMAP
7C
86
82
02
3E
C2
82
C2
7F
00
00
38
ENDCHAR
STARTCHAR ogonek
ENCODING 178
SWIDTH 602 0
DWIDTH 10 0
BBX 3 1 4 -3
BITMAP
E0
ENDCHAR
STARTCHAR lslash
ENCODING 179
SWIDTH 313 0
DWIDTH 5 0
BBX 5 13 0 0
BITMAP
E0
20
20
20
20
38
60
E0
20
20
20
20
F8
ENDCHAR
STARTCHAR acute
ENCODING 180
SWIDTH 602 0
DWIDTH 10 0
BBX 4 1 3 12
BITMAP
F0
ENDCHAR
STARTCHAR lcaron
ENCODING 181
SWIDTH 562 0
DWIDTH 9 0
BBX 8 13 0 0
BITMAP
E3
23
21
21
22
20
20
20
20
20
20
20
F8
ENDCHAR
STARTCHAR sacute
ENCODING 182
SWIDTH 504 0
DWIDTH 9 0
BBX 6 11 1 0
BITMAP
78
00
7C
84
84
C0
30
0C
84
84
F8
ENDCHAR
STARTCHAR caron
ENCODING 183
SWIDTH 602 0
DWIDTH 10 0
BBX 6 1 2 12
BITMAP
FC
ENDCHAR
STARTCHAR cedilla
ENCODING 184
SWIDTH 602 0
DWIDTH 10 0
BBX 3 3 4 -3
BITMAP
C0
60
E0
ENDCHAR
STARTCHAR scaron
ENCODING 185
SWIDTH 504 0
DWIDTH 9 0
BBX 6 11 1 0
BITMAP
FC
00
7C
84
84
C0
30
0C
84
84
F8
ENDCHAR
STARTCHAR scedilla
ENCODING 186
SWIDTH 504 0
DWIDTH 9 0
BBX 6 12 1 -3
BITMAP
7C
84
84
C0
30
0C
84
84
F8
30
18
38
ENDCHAR
STARTCHAR tcaron
ENCODING 187
SWIDTH 637 0
DWIDTH 11 0
BBX 9 13 1 0
BITMAP
0180
4180
4080
4080
F900
4000
4000
4000
4000
4000
4000
4000
3800
ENDCHAR
STARTCHAR zacute
ENCODING 188
SWIDTH 595 0
DWIDTH 10 0
BBX 8 11 1 0
BITMAP
3C
00
FF
86
04
08
10
30
20
41
FF
ENDCHAR
STARTCHAR hungarumlaut
ENCODING 189
SWIDTH 602 0
DWIDTH 10 0
BBX 5 1 3 12
BITMAP
F8
ENDCHAR
STARTCHAR zcaron
ENCODING 190
SWIDTH 595 0
DWIDTH 10 0
BBX 8 11 1 0
BITMAP
7E
00
FF
86
04
08
10
30
20
41
FF
ENDCHAR
STARTCHAR zdotaccent
ENCODING 191
SWIDTH 595 0
DWIDTH 10 0
BBX 8 11 1 0
BITMAP
18
00
FF
86
04
08
10
30
20
41
FF
ENDCHAR
STARTCHAR Racute
ENCODING 192
SWIDTH 679 0
DWIDTH 11 0
BBX 11 15 0 0
BITMAP
1E00
0000
FE00
2180
2080
2080
2080
2100
3E00
2200
2200
2100
2100
2080
F0E0
ENDCHAR
STARTCHAR Aacute
ENCODING 193
SWIDTH 744 0
DWIDTH 13 0
BBX 13 15 0 0
BITMAP
0780
0000
0200
0600
0600
0500
0900
0880
1080
1080
3FC0
2040
2020
4020
E0F8
ENDCHAR
STARTCHAR Acircumflex
ENCODING 194
SWIDTH 744 0
DWIDTH 13 0
BBX 13 15 0 0
BITMAP
1F80
0000
0200
0600
0600
0500
0900
0880
1080
1080
3FC0
2040
2020
4020
E0F8
ENDCHAR
STARTCHAR Abreve
ENCODING 195
SWIDTH 744 0
DWIDTH 13 0
BBX 13 15 0 0
BITMAP
1F80
0000
0200
0600
0600
0500
0900
0880
1080
1080
3FC0
2040
2020
4020
E0F8
ENDCHAR
STARTCHAR Adieresis
ENCODING 196
SWIDTH 744 0
DWIDTH 13 0
BBX 13 15 0 0
BITMAP
0D80
0000
0200
0600
0600
0500
0900
0880
1080
1080
3FC0
2040
2020
4020
E0F8
ENDCHAR
STARTCHAR Lacute
ENCODING 197
SWIDTH 557 0
DWIDTH 9 0
BBX 9 15 0 0
BITMAP
7800
0000
F800
2000
2000
2000
2000
2000
2000
2000
2000
2000
2080
2080
FF80
ENDCHAR
STARTCHAR Cacute
ENCODING 198
SWIDTH 695 0
DWIDTH 12 0
BBX 10 15 1 0
BITMAP
0F00
0000
1FC0
30C0
4040
4000
8000
8000
8000
8000
8000
4000
4000
3040
1F80
ENDCHAR
STARTCHAR Ccedilla
ENCODING 199
SWIDTH 695 0
DWIDTH 12 0
BBX 10 16 1 -3
BITMAP
1FC0
30C0
4040
4000
8000
8000
8000
8000
8000
4000
4000
3040
1F80
0400
0600
0E00
ENDCHAR
STARTCHAR Ccaron
ENCODING 200
SWIDTH 695 0
DWIDTH 12 0
BBX 10 15 1 0
BITMAP
1F80
0000
1FC0
30C0
4040
4000
8000
8000
8000
8000
8000
4000
4000
3040
1F80
ENDCHAR
STARTCHAR Eacute
ENCODING 201
SWIDTH 566 0
DWIDTH 10 0
BBX 10 15 0 0
BITMAP
1E00
0000
FFC0
2040
2000
2000
2000
2100
3F00
2100
2000
2000
2040
2040
FFC0
ENDCHAR
STARTCHAR Eogonek
ENCODING 202
SWIDTH 566 0
DWIDTH 10 0
BBX 10 16 0 -3
BITMAP
FFC0
2040
2000
2000
2000
2100
3F00
2100
2000
2000
2040
2040
FFC0
0000
0000
0E00
ENDCHAR
STARTCHAR Edieresis
ENCODING 203
SWIDTH 566 0
DWIDTH 10 0
BBX 10 15 0 0
BITMAP
1B00
0000
FFC0
2040
2000
2000
2000
2100
3F00
2100
2000
2000
2040
2040
FFC0
ENDCHAR
STARTCHAR Ecaron
ENCODING 204
SWIDTH 566 0
DWIDTH 10 0
BBX 10 15 0 0
BITMAP
3F00
0000
FFC0
2040
2000
2000
2000
2100
3F00
2100
2000
2000
2040
2040
FFC0
ENDCHAR
STARTCHAR Iacute
ENCODING 205
SWIDTH 325 0
DWIDTH 6 0
BBX 5 15 0 0
BITMAP
78
00
F8
20
20
20
20
20
20
20
20
20
20
20
F8
ENDCHAR
STARTCHAR Icircumflex
ENCODING 206
SWIDTH 325 0
DWIDTH 6 0
BBX 6 15 1 0
BITMAP
FC
00
7C
10
10
10
10
10
10
10
10
10
10
10
7C
ENDCHAR
STARTCHAR Dcaron
ENCODING 207
SWIDTH 768 0
DWIDTH 13 0
BBX 12 15 0 0
BITMAP
1F80
0000
FF80
20C0
2020
2010
2010
2010
2010
2010
2010
2010
2020
2040
FF80
ENDCHAR
STARTCHAR Dcroat
ENCODING 208
SWIDTH 768 0
DWIDTH 13 0
BBX 12 13 0 0
BITMAP
FF80
20C0
2020
2010
2010
2010
FC10
2010
2010
2010
2020
2040
FF80
ENDCHAR
STARTCHAR Nacute
ENCODING 209
SWIDTH 751 0
DWIDTH 13 0
BBX 13 15 0 0
BITMAP
0F00
0000
E0F8
3020
3020
2820
2420
2620
2220
2120
21A0
20A0
2060
2020
F820
ENDCHAR
STARTCHAR Ncaron
ENCODING 210
SWIDTH 751 0
DWIDTH 13 0
BBX 13 15 0 0
BITMAP
1F80
0000
E0F8
3020
3020
2820
2420
2620
2220
2120
21A0
20A0
2060
2020
F820
ENDCHAR
STARTCHAR Oacute
ENCODING 211
SWIDTH 777 0
DWIDTH 13 0
BBX 11 15 1 0
BITMAP
0F00
0000
1F00
2080
4040
C060
8020
8020
8020
8020
8020
C060
4040
2080
1F00
ENDCHAR
STARTCHAR Ocircumflex
ENCODING 212
SWIDTH 777 0
DWIDTH 13 0
BBX 11 15 1 0
BITMAP
3F00
0000
1F00
2080
4040
C060
8020
8020
8020
8020
8020
C060
4040
2080
1F00
ENDCHAR
STARTCHAR Ohungarumlaut
ENCODING 213
SWIDTH 777 0
DWIDTH 13 0
BBX 11 15 1 0
BITMAP
1F00
0000
1F00
2080
4040
C060
8020
8020
8020
8020
8020
C060
4040
2080
1F00
ENDCHAR
STARTCHAR Odieresis
ENCODING 214
SWIDTH 777 0
DWIDTH 13 0
BBX 11 15 1 0
BITMAP
1B00
0000
1F00
2080
4040
C060
8020
8020
8020
8020
8020
C060
4040
2080
1F00
ENDCHAR
STARTCHAR multiply
ENCODING 215
SWIDTH 608 0
DWIDTH 10 0
BBX 10 11 0 0
BITMAP
8040
4080
2100
3300
1E00
0C00
1E00
1200
2100
4080
8040
ENDCHAR
STARTCHAR Rcaron
ENCODING 216
SWIDTH 679 0
DWIDTH 11 0
BBX 11 15 0 0
BITMAP
3F00
0000
FE00
2180
2080
2080
2080
2100
3E00
2200
2200
2100
2100
2080
F0E0
ENDCHAR
STARTCHAR Uring
ENCODING 217
SWIDTH 719 0
DWIDTH 12 0
BBX 13 16 0 0
BITMAP
0700
0700
0000
F8F8
2020
2020
2020
2020
2020
2020
2020
2020
2020
2020
1040
0F80
ENDCHAR
STARTCHAR Uacute
ENCODING 218
SWIDTH 719 0
DWIDTH 12 0
BBX 13 15 0 0
BITMAP
0780
0000
F8F8
2020
2020
2020
2020
2020
2020
2020
2020
2020
2020
1040
0F80
ENDCHAR
STARTCHAR Uhungarumlaut
ENCODING 219
SWIDTH 719 0
DWIDTH 12 0
BBX 13 15 0 0
BITMAP
0F80
0000
F8F8
2020
2020
2020
2020
2020
2020
2020
2020
2020
2020
1040
0F80
ENDCHAR
STARTCHAR Udieresis
ENCODING 220
SWIDTH 719 0
DWIDTH 12 0
BBX 13 15 0 0
BITMAP
0D80
0000
F8F8
2020
2020
2020
2020
2020
2020
2020
2020
2020
2020
1040
0F80
ENDCHAR
STARTCHAR Yacute
ENCODING 221
SWIDTH 678 0
DWIDTH 12 0
BBX 11 15 0 0
BITMAP
0F00
0000
F8E0
3040
3080
1080
0900
0A00
0600
0400
0400
0400
0400
0400
1F00
ENDCHAR
STARTCHAR Tcommaaccent
ENCODING 222
SWIDTH 663 0
DWIDTH 11 0
BBX 11 16 0 -3
BITMAP
FFE0
0400
0400
0400
0400
0400
0400
0400
0400
0400
0400
0400
1F00
0C00
0600
0E00
ENDCHAR
STARTCHAR germandbls
ENCODING 223
SWIDTH 614 0
DWIDTH 10 0
BBX 11 13 0 0
BITMAP
1F00
3180
2080
2180
2200
2200
2300
2180
20C0
2020
2020
2220
FBC0
ENDCHAR
STARTCHAR racute
ENCODING 224
SWIDTH 440 0
DWIDTH 7 0
BBX 6 11 1 0
BITMAP
78
00
EC
34
24
20
20
20
20
20
F8
ENDCHAR
STARTCHAR aacute
ENCODING 225
SWIDTH 543 0
DWIDTH 9 0
BBX 8 11 1 0
BITMAP
3C
00
7C
86
82
02
3E
C2
82
C2
7F
ENDCHAR
STARTCHAR acircumflex
ENCODING 226
SWIDTH 543 0
DWIDTH 9 0
BBX 8 11 1 0
BITMAP
7E
00
7C
86
82
02
3E
C2
82
C2
7F
ENDCHAR
STARTCHAR abreve
ENCODING 227
SWIDTH 543 0
DWIDTH 9 0
BBX 8 11 1 0
BITMAP
7E
00
7C
86
82
02
3E
C2
82
C2
7F
ENDCHAR
STARTCHAR adieresis
ENCODING 228
SWIDTH 543 0
DWIDTH 9 0
BBX 8 11 1 0
BITMAP
6C
00
7C
86
82
02
3E
C2
82
C2
7F
ENDCHAR
STARTCHAR lacute
ENCODING 229
SWIDTH 313 0
DWIDTH 5 0
BBX 5 15 0 0
BITMAP
F0
00
E0
20
20
20
20
20
20
20
20
20
20
20
F8
ENDCHAR
STARTCHAR cacute
ENCODING 230
SWIDTH 509 0
DWIDTH 9 0
BBX 7 11 1 0
BITMAP
3C
00
3E
42
C2
80
80
80
80
60
3E
ENDCHAR
STARTCHAR ccedilla
ENCODING 231
SWIDTH 509 0
DWIDTH 9 0
BBX 7 12 1 -3
BITMAP
3E
42
C2
80
80
80
80
60
3E
10
18
38
ENDCHAR
STARTCHAR ccaron
ENCODING 232
SWIDTH 509 0
DWIDTH 9 0
BBX 7 11 1 0
BITMAP
7E
00
3E
42
C2
80
80
80
80
60
3E
ENDCHAR
STARTCHAR eacute
ENCODING 233
SWIDTH 530 0
DWIDTH 9 0
BBX 7 11 1 0
BITMAP
3C
00
38
44
82
82
FE
80
80
42
3C
ENDCHAR
STARTCHAR eogonek
ENCODING 234
SWIDTH 530 0
DWIDTH 9 0
BBX 7 12 1 -3
BITMAP
38
44
82
82
FE
80
80
42
3C
00
00
38
ENDCHAR
STARTCHAR edieresis
ENCODING 235
SWIDTH 530 0
DWIDTH 9 0
BBX 7 11 1 0
BITMAP
6C
00
38
44
82
82
FE
80
80
42
3C
ENDCHAR
STARTCHAR ecaron
ENCODING 236
SWIDTH 530 0
DWIDTH 9 0
BBX 7 11 1 0
BITMAP
7E
00
38
44
82
82
FE
80
80
42
3C
ENDCHAR
STARTCHAR iacute
ENCODING 237
SWIDTH 307 0
DWIDTH 5 0
BBX 5 11 0 0
BITMAP
78
00
E0
20
20
20
20
20
20
20
F8
ENDCHAR
STARTCHAR icircumflex
ENCODING 238
SWIDTH 307 0
DWIDTH 5 0
BBX 6 11 1 0
BITMAP
FC
00
70
10
10
10
10
10
10
10
7C
ENDCHAR
STARTCHAR dcaron
ENCODING 239
SWIDTH 875 0
DWIDTH 14 0
BBX 12 13 1 0
BITMAP
0730
0130
0110
0110
3D20
4300
8100
8100
8100
8100
8100
4300
3DC0
ENDCHAR
STARTCHAR dcroat
ENCODING 240
SWIDTH 642 0
DWIDTH 11 0
BBX 10 13 1 0
BITMAP
0700
0100
07C0
0100
3D00
4300
8100
8100
8100
8100
8100
4300
3DC0
ENDCHAR
STARTCHAR nacute
ENCODING 241
SWIDTH 633 0
DWIDTH 11 0
BBX 11 11 0 0
BITMAP
1E00
0000
EF00
3080
2080
2080
2080
2080
2080
2080
FBE0
ENDCHAR
STARTCHAR ncaron
ENCODING 242
SWIDTH 633 0
DWIDTH 11 0
BBX 11 11 0 0
BITMAP
3F00
0000
EF00
3080
2080
2080
2080
2080
2080
2080
FBE0
ENDCHAR
STARTCHAR oacute
ENCODING 243
SWIDTH 602 0
DWIDTH 10 0
BBX 9 11 1 0
BITMAP
1E00
0000
3E00
6300
C180
8080
8080
8080
C180
6300
3E00
ENDCHAR
STARTCHAR ocircumflex
ENCODING 244
SWIDTH 602 0
DWIDTH 10 0
BBX 9 11 1 0
BITMAP
7E00
0000
3E00
6300
C180
8080
8080
8080
C180
6300
3E00
ENDCHAR
STARTCHAR ohungarumlaut
ENCODING 245
SWIDTH 602 0
DWIDTH 10 0
BBX 9 11 1 0
BITMAP
3E00
0000
3E00
6300
C180
8080
8080
8080
C180
6300
3E00
ENDCHAR
STARTCHAR odieresis
ENCODING 246
SWIDTH 602 0
DWIDTH 10 0
BBX 9 11 1 0
BITMAP
3600
0000
3E00
6300
C180
8080
8080
8080
C180
6300
3E00
ENDCHAR
STARTCHAR divide
ENCODING 247
SWIDTH 608 0
DWIDTH 10 0
BBX 9 9 1 0
BITMAP
0800
0000
0000
0000
FF80
0000
0000
0000
0800
ENDCHAR
STARTCHAR rcaron
ENCODING 248
SWIDTH 440 0
DWIDTH 7 0
BBX 6 11 1 0
BITMAP
FC
00
EC
34
24
20
20
20
20
20
F8
ENDCHAR
STARTCHAR uring
ENCODING 249
SWIDTH 633 0
DWIDTH 11 0
BBX 11 12 0 0
BITMAP
0E00
0E00
0000
E380
2080
2080
2080
2080
2080
2080
2180
1EE0
ENDCHAR
STARTCHAR uacute
ENCODING 250
SWIDTH 633 0
DWIDTH 11 0
BBX 11 11 0 0
BITMAP
0F00
0000
E380
2080
2080
2080
2080
2080
2080
2180
1EE0
ENDCHAR
STARTCHAR uhungarumlaut
ENCODING 251
SWIDTH 633 0
DWIDTH 11 0
BBX 11 11 0 0
BITMAP
1F00
0000
E380
2080
2080
2080
2080
2080
2080
2180
1EE0
ENDCHAR
STARTCHAR udieresis
ENCODING 252
SWIDTH 633 0
DWIDTH 11 0
BBX 11 11 0 0
BITMAP
1B00
0000
E380
2080
2080
2080
2080
2080
2080
2180
1EE0
ENDCHAR
STARTCHAR yacute
ENCODING 253
SWIDTH 551 0
DWIDTH 9 0
BBX 9 14 0 -3
BITMAP
1E00
0000
F380
6100
2100
2300
1200
1200
1C00
0C00
0800
0800
1000
7000
ENDCHAR
STARTCHAR tcommaaccent
ENCODING 254
SWIDTH 392 0
DWIDTH 7 0
BBX 5 15 1 -3
BITMAP
40
40
40
F8
40
40
40
40
40
40
40
38
60
30
70
ENDCHAR
STARTCHAR dotaccent
ENCODING 255
SWIDTH 602 0
DWIDTH 10 0
BBX 2 1 4 12
BITMAP
C0
ENDCHAR
ENDFONT
