STARTFONT 2.1
COMMENT AUTOMATICALLY GENERATED FILE. DO NOT EDIT!
COMMENT Generated with 'ucs2any lubR08.bdf /usr/local/lib/X11/fonts/util/map-ISO8859-2 ISO8859-2'
COMMENT from an ISO10646-1 encoded source BDF font.
COMMENT ucs2any by Ben Collver <collver1@attbi.com>, 2003, based on
COMMENT ucs2any.pl by Markus Kuhn <http://www.cl.cam.ac.uk/~mgk25/>, 2000.
COMMENT $Xorg: $
COMMENT ISO10646-1 extension by Markus Kuhn <mkuhn@acm.org>, 2001-03-20
COMMENT  (c) Copyright Bigelow & Holmes 1986, 1985. Lucida is a registered
COMMENT  trademark of Bigelow & Holmes. See LEGAL NOTICE file for terms
COMMENT  of the license.
FONT -B&H-LucidaBright-Medium-R-Normal--11-80-100-100-P-63-ISO8859-2
SIZE 8 100 100
FONTBOUNDINGBOX 11 15 0 -2
STARTPROPERTIES 22
COMMENT Begin LogicalFontDescription
FONTNAME_REGISTRY ""
FOUNDRY "B&H"
FAMILY_NAME "LucidaBright"
WEIGHT_NAME "Medium"
SLANT "R"
SETWIDTH_NAME "Normal"
ADD_STYLE_NAME ""
PIXEL_SIZE 11
POINT_SIZE 80
RESOLUTION_X 100
RESOLUTION_Y 100
SPACING "P"
AVERAGE_WIDTH 63
CHARSET_REGISTRY "ISO8859"
CHARSET_ENCODING "2"
COMMENT END LogicalFontDescription
FONT_ASCENT 10
FONT_DESCENT 3
DEFAULT_CHAR 0
COPYRIGHT "Copyright Bigelow & Holmes 1986, 1985."
FACE_NAME "Lucida Bright"
X_HEIGHT 6
CAP_HEIGHT 9
ENDPROPERTIES
CHARS 192
STARTCHAR defaultchar
ENCODING 0
SWIDTH 771 0
DWIDTH 8 0
BBX 7 9 0 0
BITMAP
AA
00
82
00
82
00
82
00
AA
ENDCHAR
STARTCHAR space
ENCODING 32
SWIDTH 333 0
DWIDTH 3 0
BBX 1 1 0 0
BITMAP
00
ENDCHAR
STARTCHAR exclam
ENCODING 33
SWIDTH 265 0
DWIDTH 3 0
BBX 1 9 1 0
BITMAP
80
80
80
80
80
80
80
00
80
ENDCHAR
STARTCHAR quotedbl
ENCODING 34
SWIDTH 386 0
DWIDTH 4 0
BBX 2 3 1 6
BITMAP
C0
C0
C0
ENDCHAR
STARTCHAR numbersign
ENCODING 35
SWIDTH 608 0
DWIDTH 7 0
BBX 7 9 0 0
BITMAP
14
24
7E
28
28
FC
48
50
50
ENDCHAR
STARTCHAR dollar
ENCODING 36
SWIDTH 608 0
DWIDTH 7 0
BBX 5 10 1 -1
BITMAP
38
E8
A0
E0
70
28
28
A8
F0
20
ENDCHAR
STARTCHAR percent
ENCODING 37
SWIDTH 675 0
DWIDTH 7 0
BBX 6 9 1 0
BITMAP
44
A8
A8
50
38
34
54
54
88
ENDCHAR
STARTCHAR ampersand
ENCODING 38
SWIDTH 690 0
DWIDTH 8 0
BBX 8 9 0 0
BITMAP
30
48
48
70
97
92
8A
CC
7B
ENDCHAR
STARTCHAR quotesingle
ENCODING 39
SWIDTH 241 0
DWIDTH 3 0
BBX 2 4 0 5
BITMAP
C0
C0
40
40
ENDCHAR
STARTCHAR parenleft
ENCODING 40
SWIDTH 316 0
DWIDTH 3 0
BBX 3 11 1 -2
BITMAP
60
80
80
80
80
80
80
80
80
80
40
ENDCHAR
STARTCHAR parenright
ENCODING 41
SWIDTH 316 0
DWIDTH 3 0
BBX 3 11 2 -2
BITMAP
40
60
20
20
20
20
20
20
20
60
80
ENDCHAR
STARTCHAR asterisk
ENCODING 42
SWIDTH 470 0
DWIDTH 5 0
BBX 4 4 1 5
BITMAP
40
F0
60
60
ENDCHAR
STARTCHAR plus
ENCODING 43
SWIDTH 608 0
DWIDTH 7 0
BBX 7 8 0 0
BITMAP
10
10
10
10
FE
10
10
10
ENDCHAR
STARTCHAR comma
ENCODING 44
SWIDTH 265 0
DWIDTH 3 0
BBX 1 4 1 -2
BITMAP
80
80
80
80
ENDCHAR
STARTCHAR hyphen
ENCODING 45
SWIDTH 325 0
DWIDTH 4 0
BBX 3 1 0 3
BITMAP
E0
ENDCHAR
STARTCHAR period
ENCODING 46
SWIDTH 265 0
DWIDTH 3 0
BBX 1 1 1 0
BITMAP
80
ENDCHAR
STARTCHAR slash
ENCODING 47
SWIDTH 512 0
DWIDTH 6 0
BBX 6 11 0 -2
BITMAP
04
08
08
18
10
30
20
60
40
40
80
ENDCHAR
STARTCHAR zero
ENCODING 48
SWIDTH 608 0
DWIDTH 7 0
BBX 6 9 0 0
BITMAP
30
48
84
84
84
84
84
48
30
ENDCHAR
STARTCHAR one
ENCODING 49
SWIDTH 608 0
DWIDTH 7 0
BBX 4 9 1 0
BITMAP
E0
20
20
20
20
20
20
20
F0
ENDCHAR
STARTCHAR two
ENCODING 50
SWIDTH 608 0
DWIDTH 7 0
BBX 5 9 1 0
BITMAP
70
88
88
08
10
20
40
80
F8
ENDCHAR
STARTCHAR three
ENCODING 51
SWIDTH 608 0
DWIDTH 7 0
BBX 5 9 1 0
BITMAP
F0
88
08
08
70
08
08
88
F0
ENDCHAR
STARTCHAR four
ENCODING 52
SWIDTH 608 0
DWIDTH 7 0
BBX 6 9 0 0
BITMAP
18
18
28
48
C8
FC
08
08
1C
ENDCHAR
STARTCHAR five
ENCODING 53
SWIDTH 608 0
DWIDTH 7 0
BBX 4 9 1 0
BITMAP
F0
80
80
E0
10
10
10
90
E0
ENDCHAR
STARTCHAR six
ENCODING 54
SWIDTH 608 0
DWIDTH 7 0
BBX 5 9 1 0
BITMAP
38
48
80
F0
88
88
88
48
70
ENDCHAR
STARTCHAR seven
ENCODING 55
SWIDTH 608 0
DWIDTH 7 0
BBX 5 9 1 0
BITMAP
F8
08
10
30
20
40
40
C0
80
ENDCHAR
STARTCHAR eight
ENCODING 56
SWIDTH 608 0
DWIDTH 7 0
BBX 5 9 1 0
BITMAP
70
88
88
48
70
88
88
88
70
ENDCHAR
STARTCHAR nine
ENCODING 57
SWIDTH 608 0
DWIDTH 7 0
BBX 5 9 1 0
BITMAP
70
90
88
88
88
78
08
90
E0
ENDCHAR
STARTCHAR colon
ENCODING 58
SWIDTH 265 0
DWIDTH 3 0
BBX 1 6 1 0
BITMAP
80
00
00
00
00
80
ENDCHAR
STARTCHAR semicolon
ENCODING 59
SWIDTH 265 0
DWIDTH 3 0
BBX 1 8 1 -2
BITMAP
80
00
00
00
80
80
80
80
ENDCHAR
STARTCHAR less
ENCODING 60
SWIDTH 608 0
DWIDTH 7 0
BBX 6 8 0 0
BITMAP
04
18
30
C0
C0
30
18
04
ENDCHAR
STARTCHAR equal
ENCODING 61
SWIDTH 608 0
DWIDTH 7 0
BBX 6 3 0 2
BITMAP
FC
00
FC
ENDCHAR
STARTCHAR greater
ENCODING 62
SWIDTH 608 0
DWIDTH 7 0
BBX 6 8 0 0
BITMAP
80
60
30
0C
0C
30
60
80
ENDCHAR
STARTCHAR question
ENCODING 63
SWIDTH 480 0
DWIDTH 5 0
BBX 5 9 0 0
BITMAP
F0
88
08
10
30
20
20
00
20
ENDCHAR
STARTCHAR at
ENCODING 64
SWIDTH 873 0
DWIDTH 10 0
BBX 8 9 1 0
BITMAP
1E
22
5D
99
A9
AD
B6
40
3C
ENDCHAR
STARTCHAR A
ENCODING 65
SWIDTH 744 0
DWIDTH 8 0
BBX 8 9 0 0
BITMAP
10
18
18
28
24
7C
42
82
C7
ENDCHAR
STARTCHAR B
ENCODING 66
SWIDTH 609 0
DWIDTH 7 0
BBX 6 9 0 0
BITMAP
F8
44
44
48
78
4C
44
44
F8
ENDCHAR
STARTCHAR C
ENCODING 67
SWIDTH 695 0
DWIDTH 8 0
BBX 6 9 1 0
BITMAP
3C
44
84
80
80
80
80
44
38
ENDCHAR
STARTCHAR D
ENCODING 68
SWIDTH 768 0
DWIDTH 8 0
BBX 8 9 0 0
BITMAP
FC
42
41
41
41
41
41
42
FC
ENDCHAR
STARTCHAR E
ENCODING 69
SWIDTH 566 0
DWIDTH 6 0
BBX 5 9 1 0
BITMAP
F8
48
40
50
70
50
40
48
F8
ENDCHAR
STARTCHAR F
ENCODING 70
SWIDTH 548 0
DWIDTH 6 0
BBX 5 9 0 0
BITMAP
F8
48
40
50
70
50
40
40
C0
ENDCHAR
STARTCHAR G
ENCODING 71
SWIDTH 732 0
DWIDTH 8 0
BBX 7 9 1 0
BITMAP
3C
44
80
80
80
8E
84
44
3C
ENDCHAR
STARTCHAR H
ENCODING 72
SWIDTH 771 0
DWIDTH 8 0
BBX 8 9 0 0
BITMAP
E7
42
42
42
7E
42
42
42
E7
ENDCHAR
STARTCHAR I
ENCODING 73
SWIDTH 325 0
DWIDTH 4 0
BBX 3 9 0 0
BITMAP
E0
40
40
40
40
40
40
40
E0
ENDCHAR
STARTCHAR J
ENCODING 74
SWIDTH 422 0
DWIDTH 5 0
BBX 4 11 0 -2
BITMAP
30
20
20
20
20
20
20
20
20
A0
C0
ENDCHAR
STARTCHAR K
ENCODING 75
SWIDTH 708 0
DWIDTH 8 0
BBX 8 9 0 0
BITMAP
EE
44
48
50
60
50
4C
46
EF
ENDCHAR
STARTCHAR L
ENCODING 76
SWIDTH 557 0
DWIDTH 6 0
BBX 6 9 0 0
BITMAP
E0
40
40
40
40
40
40
44
FC
ENDCHAR
STARTCHAR M
ENCODING 77
SWIDTH 860 0
DWIDTH 9 0
BBX 9 9 0 0
BITMAP
E180
6300
6300
5700
5500
5D00
4900
4900
E380
ENDCHAR
STARTCHAR N
ENCODING 78
SWIDTH 751 0
DWIDTH 8 0
BBX 8 9 0 0
BITMAP
C7
62
62
52
4A
4A
46
42
E2
ENDCHAR
STARTCHAR O
ENCODING 79
SWIDTH 777 0
DWIDTH 9 0
BBX 7 9 1 0
BITMAP
38
44
82
82
82
82
82
44
38
ENDCHAR
STARTCHAR P
ENCODING 80
SWIDTH 573 0
DWIDTH 6 0
BBX 6 9 0 0
BITMAP
F8
44
44
4C
78
40
40
40
E0
ENDCHAR
STARTCHAR Q
ENCODING 81
SWIDTH 778 0
DWIDTH 9 0
BBX 9 11 1 -2
BITMAP
3800
4400
8200
8200
8200
8200
8200
4400
3C00
0600
0380
ENDCHAR
STARTCHAR R
ENCODING 82
SWIDTH 679 0
DWIDTH 7 0
BBX 7 9 0 0
BITMAP
F8
44
44
44
78
48
48
44
E6
ENDCHAR
STARTCHAR S
ENCODING 83
SWIDTH 542 0
DWIDTH 6 0
BBX 5 9 1 0
BITMAP
78
88
80
C0
30
18
08
88
F0
ENDCHAR
STARTCHAR T
ENCODING 84
SWIDTH 663 0
DWIDTH 7 0
BBX 7 9 0 0
BITMAP
FE
10
10
10
10
10
10
10
38
ENDCHAR
STARTCHAR U
ENCODING 85
SWIDTH 719 0
DWIDTH 8 0
BBX 8 9 0 0
BITMAP
E7
42
42
42
42
42
42
66
3C
ENDCHAR
STARTCHAR V
ENCODING 86
SWIDTH 699 0
DWIDTH 8 0
BBX 8 9 0 0
BITMAP
E3
43
42
22
24
14
14
18
08
ENDCHAR
STARTCHAR W
ENCODING 87
SWIDTH 925 0
DWIDTH 10 0
BBX 10 9 0 0
BITMAP
E4C0
4C80
4C80
4C80
2C80
3300
3300
3300
2200
ENDCHAR
STARTCHAR X
ENCODING 88
SWIDTH 657 0
DWIDTH 7 0
BBX 7 9 0 0
BITMAP
E6
44
2C
38
10
28
48
44
CE
ENDCHAR
STARTCHAR Y
ENCODING 89
SWIDTH 678 0
DWIDTH 7 0
BBX 7 9 0 0
BITMAP
E6
44
24
28
18
10
10
10
38
ENDCHAR
STARTCHAR Z
ENCODING 90
SWIDTH 633 0
DWIDTH 7 0
BBX 5 9 1 0
BITMAP
F8
90
10
20
20
60
40
48
F8
ENDCHAR
STARTCHAR bracketleft
ENCODING 91
SWIDTH 316 0
DWIDTH 3 0
BBX 2 11 1 -2
BITMAP
C0
80
80
80
80
80
80
80
80
80
C0
ENDCHAR
STARTCHAR backslash
ENCODING 92
SWIDTH 512 0
DWIDTH 6 0
BBX 6 11 0 -2
BITMAP
80
40
40
60
20
30
10
18
08
08
04
ENDCHAR
STARTCHAR bracketright
ENCODING 93
SWIDTH 316 0
DWIDTH 3 0
BBX 2 11 0 -2
BITMAP
C0
40
40
40
40
40
40
40
40
40
C0
ENDCHAR
STARTCHAR asciicircum
ENCODING 94
SWIDTH 608 0
DWIDTH 7 0
BBX 6 8 0 1
BITMAP
10
30
30
70
48
48
84
84
ENDCHAR
STARTCHAR underscore
ENCODING 95
SWIDTH 500 0
DWIDTH 5 0
BBX 4 1 1 -1
BITMAP
F0
ENDCHAR
STARTCHAR grave
ENCODING 96
SWIDTH 602 0
DWIDTH 7 0
BBX 2 1 2 8
BITMAP
C0
ENDCHAR
STARTCHAR a
ENCODING 97
SWIDTH 543 0
DWIDTH 6 0
BBX 5 6 1 0
BITMAP
F0
10
70
90
90
68
ENDCHAR
STARTCHAR b
ENCODING 98
SWIDTH 611 0
DWIDTH 7 0
BBX 6 9 0 0
BITMAP
C0
40
40
78
44
44
44
44
78
ENDCHAR
STARTCHAR c
ENCODING 99
SWIDTH 509 0
DWIDTH 6 0
BBX 5 6 0 0
BITMAP
78
C8
80
80
C0
78
ENDCHAR
STARTCHAR d
ENCODING 100
SWIDTH 642 0
DWIDTH 7 0
BBX 6 9 1 0
BITMAP
18
08
08
78
88
88
88
88
7C
ENDCHAR
STARTCHAR e
ENCODING 101
SWIDTH 530 0
DWIDTH 6 0
BBX 5 6 0 0
BITMAP
70
88
F8
80
C0
78
ENDCHAR
STARTCHAR f
ENCODING 102
SWIDTH 404 0
DWIDTH 4 0
BBX 4 9 0 0
BITMAP
70
50
40
E0
40
40
40
40
E0
ENDCHAR
STARTCHAR g
ENCODING 103
SWIDTH 571 0
DWIDTH 6 0
BBX 5 8 1 -2
BITMAP
78
90
90
60
80
78
88
F0
ENDCHAR
STARTCHAR h
ENCODING 104
SWIDTH 633 0
DWIDTH 7 0
BBX 7 9 0 0
BITMAP
C0
40
40
7C
44
44
44
44
EE
ENDCHAR
STARTCHAR i
ENCODING 105
SWIDTH 307 0
DWIDTH 3 0
BBX 3 9 0 0
BITMAP
40
00
00
C0
40
40
40
40
E0
ENDCHAR
STARTCHAR j
ENCODING 106
SWIDTH 346 0
DWIDTH 4 0
BBX 3 11 0 -2
BITMAP
20
00
00
60
20
20
20
20
20
A0
E0
ENDCHAR
STARTCHAR k
ENCODING 107
SWIDTH 599 0
DWIDTH 7 0
BBX 6 9 0 0
BITMAP
C0
40
40
4C
58
60
50
58
EC
ENDCHAR
STARTCHAR l
ENCODING 108
SWIDTH 313 0
DWIDTH 3 0
BBX 3 9 0 0
BITMAP
C0
40
40
40
40
40
40
40
E0
ENDCHAR
STARTCHAR m
ENCODING 109
SWIDTH 946 0
DWIDTH 10 0
BBX 11 6 0 0
BITMAP
FFC0
4440
4440
4440
4440
EEE0
ENDCHAR
STARTCHAR n
ENCODING 110
SWIDTH 633 0
DWIDTH 7 0
BBX 7 6 0 0
BITMAP
FC
44
44
44
44
EE
ENDCHAR
STARTCHAR o
ENCODING 111
SWIDTH 602 0
DWIDTH 7 0
BBX 6 6 0 0
BITMAP
78
CC
84
84
CC
78
ENDCHAR
STARTCHAR p
ENCODING 112
SWIDTH 642 0
DWIDTH 7 0
BBX 6 8 0 -2
BITMAP
F8
44
44
44
44
78
40
E0
ENDCHAR
STARTCHAR q
ENCODING 113
SWIDTH 617 0
DWIDTH 7 0
BBX 6 8 1 -2
BITMAP
78
88
88
88
88
78
08
1C
ENDCHAR
STARTCHAR r
ENCODING 114
SWIDTH 440 0
DWIDTH 5 0
BBX 4 6 0 0
BITMAP
F0
50
40
40
40
E0
ENDCHAR
STARTCHAR s
ENCODING 115
SWIDTH 504 0
DWIDTH 6 0
BBX 4 6 1 0
BITMAP
F0
90
C0
B0
90
E0
ENDCHAR
STARTCHAR t
ENCODING 116
SWIDTH 392 0
DWIDTH 4 0
BBX 4 9 0 0
BITMAP
40
40
40
F0
40
40
40
40
70
ENDCHAR
STARTCHAR u
ENCODING 117
SWIDTH 633 0
DWIDTH 7 0
BBX 7 6 0 0
BITMAP
CC
44
44
44
44
7E
ENDCHAR
STARTCHAR v
ENCODING 118
SWIDTH 545 0
DWIDTH 6 0
BBX 6 6 0 0
BITMAP
EC
44
48
28
30
10
ENDCHAR
STARTCHAR w
ENCODING 119
SWIDTH 795 0
DWIDTH 9 0
BBX 9 6 0 0
BITMAP
E980
4880
5500
5500
3200
2200
ENDCHAR
STARTCHAR x
ENCODING 120
SWIDTH 557 0
DWIDTH 6 0
BBX 6 6 0 0
BITMAP
EC
48
30
70
48
DC
ENDCHAR
STARTCHAR y
ENCODING 121
SWIDTH 551 0
DWIDTH 6 0
BBX 6 8 0 -2
BITMAP
EC
44
48
28
30
10
20
60
ENDCHAR
STARTCHAR z
ENCODING 122
SWIDTH 595 0
DWIDTH 7 0
BBX 5 6 1 0
BITMAP
F8
90
20
60
48
F8
ENDCHAR
STARTCHAR braceleft
ENCODING 123
SWIDTH 343 0
DWIDTH 4 0
BBX 3 11 0 -2
BITMAP
20
40
40
40
40
80
40
40
40
40
20
ENDCHAR
STARTCHAR bar
ENCODING 124
SWIDTH 241 0
DWIDTH 3 0
BBX 1 11 1 -2
BITMAP
80
80
80
80
80
80
80
80
80
80
80
ENDCHAR
STARTCHAR braceright
ENCODING 125
SWIDTH 343 0
DWIDTH 4 0
BBX 3 11 1 -2
BITMAP
80
40
40
40
40
20
40
40
40
40
80
ENDCHAR
STARTCHAR asciitilde
ENCODING 126
SWIDTH 608 0
DWIDTH 7 0
BBX 6 3 0 2
BITMAP
64
B4
9C
ENDCHAR
STARTCHAR space
ENCODING 160
SWIDTH 333 0
DWIDTH 3 0
BBX 1 1 0 0
BITMAP
00
ENDCHAR
STARTCHAR Aogonek
ENCODING 161
SWIDTH 744 0
DWIDTH 8 0
BBX 8 11 0 -2
BITMAP
10
18
18
28
24
7C
42
82
C7
00
18
ENDCHAR
STARTCHAR breve
ENCODING 162
SWIDTH 602 0
DWIDTH 7 0
BBX 4 1 1 8
BITMAP
F0
ENDCHAR
STARTCHAR Lslash
ENCODING 163
SWIDTH 557 0
DWIDTH 6 0
BBX 6 9 0 0
BITMAP
E0
40
40
60
C0
C0
40
44
FC
ENDCHAR
STARTCHAR currency
ENCODING 164
SWIDTH 608 0
DWIDTH 7 0
BBX 7 7 0 1
BITMAP
82
7C
44
44
44
7C
82
ENDCHAR
STARTCHAR Lcaron
ENCODING 165
SWIDTH 794 0
DWIDTH 9 0
BBX 8 9 0 0
BITMAP
E1
41
41
41
40
40
40
44
FC
ENDCHAR
STARTCHAR Sacute
ENCODING 166
SWIDTH 542 0
DWIDTH 6 0
BBX 5 11 1 0
BITMAP
30
00
78
88
80
C0
30
18
08
88
F0
ENDCHAR
STARTCHAR section
ENCODING 167
SWIDTH 608 0
DWIDTH 7 0
BBX 5 11 1 -2
BITMAP
78
88
80
40
B0
88
68
10
08
88
F0
ENDCHAR
STARTCHAR dieresis
ENCODING 168
SWIDTH 602 0
DWIDTH 7 0
BBX 3 1 2 8
BITMAP
A0
ENDCHAR
STARTCHAR Scaron
ENCODING 169
SWIDTH 542 0
DWIDTH 6 0
BBX 5 10 1 0
BITMAP
E0
78
88
80
C0
30
18
08
88
F0
ENDCHAR
STARTCHAR Scedilla
ENCODING 170
SWIDTH 542 0
DWIDTH 6 0
BBX 5 11 1 -2
BITMAP
78
88
80
C0
30
18
08
88
F0
10
30
ENDCHAR
STARTCHAR Tcaron
ENCODING 171
SWIDTH 663 0
DWIDTH 7 0
BBX 7 11 0 0
BITMAP
3C
00
FE
10
10
10
10
10
10
10
38
ENDCHAR
STARTCHAR Zacute
ENCODING 172
SWIDTH 633 0
DWIDTH 7 0
BBX 5 11 1 0
BITMAP
30
00
F8
90
10
20
20
60
40
48
F8
ENDCHAR
STARTCHAR hyphen
ENCODING 173
SWIDTH 325 0
DWIDTH 4 0
BBX 3 1 0 3
BITMAP
E0
ENDCHAR
STARTCHAR Zcaron
ENCODING 174
SWIDTH 633 0
DWIDTH 7 0
BBX 5 10 1 0
BITMAP
30
F8
90
10
20
20
60
40
48
F8
ENDCHAR
STARTCHAR Zdotaccent
ENCODING 175
SWIDTH 633 0
DWIDTH 7 0
BBX 5 11 1 0
BITMAP
20
00
F8
90
10
20
20
60
40
48
F8
ENDCHAR
STARTCHAR degree
ENCODING 176
SWIDTH 259 0
DWIDTH 3 0
BBX 2 3 0 6
BITMAP
C0
C0
C0
ENDCHAR
STARTCHAR aogonek
ENCODING 177
SWIDTH 543 0
DWIDTH 6 0
BBX 5 8 1 -2
BITMAP
F0
10
70
90
90
68
00
30
ENDCHAR
STARTCHAR ogonek
ENCODING 178
SWIDTH 602 0
DWIDTH 7 0
BBX 2 1 3 -2
BITMAP
C0
ENDCHAR
STARTCHAR lslash
ENCODING 179
SWIDTH 313 0
DWIDTH 3 0
BBX 3 9 0 0
BITMAP
C0
40
40
60
C0
C0
40
40
E0
ENDCHAR
STARTCHAR acute
ENCODING 180
SWIDTH 602 0
DWIDTH 7 0
BBX 2 1 2 8
BITMAP
C0
ENDCHAR
STARTCHAR lcaron
ENCODING 181
SWIDTH 562 0
DWIDTH 6 0
BBX 5 9 0 0
BITMAP
C8
48
48
48
40
40
40
40
E0
ENDCHAR
STARTCHAR sacute
ENCODING 182
SWIDTH 504 0
DWIDTH 6 0
BBX 4 8 1 0
BITMAP
60
00
F0
90
C0
B0
90
E0
ENDCHAR
STARTCHAR caron
ENCODING 183
SWIDTH 602 0
DWIDTH 7 0
BBX 4 1 1 8
BITMAP
F0
ENDCHAR
STARTCHAR cedilla
ENCODING 184
SWIDTH 602 0
DWIDTH 7 0
BBX 2 3 2 -2
BITMAP
80
40
C0
ENDCHAR
STARTCHAR scaron
ENCODING 185
SWIDTH 504 0
DWIDTH 6 0
BBX 4 7 1 0
BITMAP
60
F0
90
C0
B0
90
E0
ENDCHAR
STARTCHAR scedilla
ENCODING 186
SWIDTH 504 0
DWIDTH 6 0
BBX 4 8 1 -2
BITMAP
F0
90
C0
B0
90
E0
20
60
ENDCHAR
STARTCHAR tcaron
ENCODING 187
SWIDTH 637 0
DWIDTH 7 0
BBX 6 9 0 0
BITMAP
44
44
44
F4
40
40
40
40
70
ENDCHAR
STARTCHAR zacute
ENCODING 188
SWIDTH 595 0
DWIDTH 7 0
BBX 5 8 1 0
BITMAP
60
00
F8
90
20
60
48
F8
ENDCHAR
STARTCHAR hungarumlaut
ENCODING 189
SWIDTH 602 0
DWIDTH 7 0
BBX 3 1 2 8
BITMAP
E0
ENDCHAR
STARTCHAR zcaron
ENCODING 190
SWIDTH 595 0
DWIDTH 7 0
BBX 5 7 1 0
BITMAP
60
F8
90
20
60
48
F8
ENDCHAR
STARTCHAR zdotaccent
ENCODING 191
SWIDTH 595 0
DWIDTH 7 0
BBX 5 8 1 0
BITMAP
20
00
F8
90
20
60
48
F8
ENDCHAR
STARTCHAR Racute
ENCODING 192
SWIDTH 679 0
DWIDTH 7 0
BBX 7 11 0 0
BITMAP
30
00
F8
44
44
44
78
48
48
44
E6
ENDCHAR
STARTCHAR Aacute
ENCODING 193
SWIDTH 744 0
DWIDTH 8 0
BBX 8 10 0 0
BITMAP
18
10
18
18
28
24
7C
42
82
C7
ENDCHAR
STARTCHAR Acircumflex
ENCODING 194
SWIDTH 744 0
DWIDTH 8 0
BBX 8 10 0 0
BITMAP
3C
10
18
18
28
24
7C
42
82
C7
ENDCHAR
STARTCHAR Abreve
ENCODING 195
SWIDTH 744 0
DWIDTH 8 0
BBX 8 11 0 0
BITMAP
3C
00
10
18
18
28
24
7C
42
82
C7
ENDCHAR
STARTCHAR Adieresis
ENCODING 196
SWIDTH 744 0
DWIDTH 8 0
BBX 8 10 0 0
BITMAP
28
10
18
18
28
24
7C
42
82
C7
ENDCHAR
STARTCHAR Lacute
ENCODING 197
SWIDTH 557 0
DWIDTH 6 0
BBX 6 11 0 0
BITMAP
60
00
E0
40
40
40
40
40
40
44
FC
ENDCHAR
STARTCHAR Cacute
ENCODING 198
SWIDTH 695 0
DWIDTH 8 0
BBX 6 11 1 0
BITMAP
30
00
3C
44
84
80
80
80
80
44
38
ENDCHAR
STARTCHAR Ccedilla
ENCODING 199
SWIDTH 695 0
DWIDTH 8 0
BBX 6 11 1 -2
BITMAP
3C
44
84
80
80
80
80
44
38
10
30
ENDCHAR
STARTCHAR Ccaron
ENCODING 200
SWIDTH 695 0
DWIDTH 8 0
BBX 6 11 1 0
BITMAP
78
00
3C
44
84
80
80
80
80
44
38
ENDCHAR
STARTCHAR Eacute
ENCODING 201
SWIDTH 566 0
DWIDTH 6 0
BBX 5 10 1 0
BITMAP
20
F8
48
40
50
70
50
40
48
F8
ENDCHAR
STARTCHAR Eogonek
ENCODING 202
SWIDTH 566 0
DWIDTH 6 0
BBX 5 11 1 -2
BITMAP
F8
48
40
50
70
50
40
48
F8
00
30
ENDCHAR
STARTCHAR Edieresis
ENCODING 203
SWIDTH 566 0
DWIDTH 6 0
BBX 5 10 1 0
BITMAP
50
F8
48
40
50
70
50
40
48
F8
ENDCHAR
STARTCHAR Ecaron
ENCODING 204
SWIDTH 566 0
DWIDTH 6 0
BBX 5 11 1 0
BITMAP
78
00
F8
48
40
50
70
50
40
48
F8
ENDCHAR
STARTCHAR Iacute
ENCODING 205
SWIDTH 325 0
DWIDTH 4 0
BBX 3 10 0 0
BITMAP
40
E0
40
40
40
40
40
40
40
E0
ENDCHAR
STARTCHAR Icircumflex
ENCODING 206
SWIDTH 325 0
DWIDTH 4 0
BBX 4 10 1 0
BITMAP
E0
70
20
20
20
20
20
20
20
70
ENDCHAR
STARTCHAR Dcaron
ENCODING 207
SWIDTH 768 0
DWIDTH 8 0
BBX 8 11 0 0
BITMAP
3C
00
FC
42
41
41
41
41
41
42
FC
ENDCHAR
STARTCHAR Dcroat
ENCODING 208
SWIDTH 768 0
DWIDTH 8 0
BBX 8 9 0 0
BITMAP
FC
42
41
41
F1
41
41
42
FC
ENDCHAR
STARTCHAR Nacute
ENCODING 209
SWIDTH 751 0
DWIDTH 8 0
BBX 8 11 0 0
BITMAP
18
00
C7
62
62
52
4A
4A
46
42
E2
ENDCHAR
STARTCHAR Ncaron
ENCODING 210
SWIDTH 751 0
DWIDTH 8 0
BBX 8 11 0 0
BITMAP
3C
00
C7
62
62
52
4A
4A
46
42
E2
ENDCHAR
STARTCHAR Oacute
ENCODING 211
SWIDTH 777 0
DWIDTH 9 0
BBX 7 10 1 0
BITMAP
10
38
44
82
82
82
82
82
44
38
ENDCHAR
STARTCHAR Ocircumflex
ENCODING 212
SWIDTH 777 0
DWIDTH 9 0
BBX 7 10 1 0
BITMAP
70
38
44
82
82
82
82
82
44
38
ENDCHAR
STARTCHAR Ohungarumlaut
ENCODING 213
SWIDTH 777 0
DWIDTH 9 0
BBX 7 11 1 0
BITMAP
38
00
38
44
82
82
82
82
82
44
38
ENDCHAR
STARTCHAR Odieresis
ENCODING 214
SWIDTH 777 0
DWIDTH 9 0
BBX 7 10 1 0
BITMAP
28
38
44
82
82
82
82
82
44
38
ENDCHAR
STARTCHAR multiply
ENCODING 215
SWIDTH 608 0
DWIDTH 7 0
BBX 6 8 0 0
BITMAP
84
CC
48
30
30
48
C8
84
ENDCHAR
STARTCHAR Rcaron
ENCODING 216
SWIDTH 679 0
DWIDTH 7 0
BBX 7 11 0 0
BITMAP
78
00
F8
44
44
44
78
48
48
44
E6
ENDCHAR
STARTCHAR Uring
ENCODING 217
SWIDTH 719 0
DWIDTH 8 0
BBX 8 13 0 0
BITMAP
18
24
18
00
E7
42
42
42
42
42
42
66
3C
ENDCHAR
STARTCHAR Uacute
ENCODING 218
SWIDTH 719 0
DWIDTH 8 0
BBX 8 10 0 0
BITMAP
18
E7
42
42
42
42
42
42
66
3C
ENDCHAR
STARTCHAR Uhungarumlaut
ENCODING 219
SWIDTH 719 0
DWIDTH 8 0
BBX 8 11 0 0
BITMAP
1C
00
E7
42
42
42
42
42
42
66
3C
ENDCHAR
STARTCHAR Udieresis
ENCODING 220
SWIDTH 719 0
DWIDTH 8 0
BBX 8 10 0 0
BITMAP
14
E7
42
42
42
42
42
42
66
3C
ENDCHAR
STARTCHAR Yacute
ENCODING 221
SWIDTH 678 0
DWIDTH 7 0
BBX 7 10 0 0
BITMAP
18
E6
44
24
28
18
10
10
10
38
ENDCHAR
STARTCHAR Tcommaaccent
ENCODING 222
SWIDTH 663 0
DWIDTH 7 0
BBX 7 11 0 -2
BITMAP
FE
10
10
10
10
10
10
10
38
08
18
ENDCHAR
STARTCHAR germandbls
ENCODING 223
SWIDTH 614 0
DWIDTH 7 0
BBX 6 9 0 0
BITMAP
78
48
48
50
50
48
44
54
F8
ENDCHAR
STARTCHAR racute
ENCODING 224
SWIDTH 440 0
DWIDTH 5 0
BBX 4 8 0 0
BITMAP
60
00
F0
50
40
40
40
E0
ENDCHAR
STARTCHAR aacute
ENCODING 225
SWIDTH 543 0
DWIDTH 6 0
BBX 5 7 1 0
BITMAP
20
F0
10
70
90
90
68
ENDCHAR
STARTCHAR acircumflex
ENCODING 226
SWIDTH 543 0
DWIDTH 6 0
BBX 5 7 1 0
BITMAP
60
F0
10
70
90
90
68
ENDCHAR
STARTCHAR abreve
ENCODING 227
SWIDTH 543 0
DWIDTH 6 0
BBX 5 8 1 0
BITMAP
F0
00
F0
10
70
90
90
68
ENDCHAR
STARTCHAR adieresis
ENCODING 228
SWIDTH 543 0
DWIDTH 6 0
BBX 5 7 1 0
BITMAP
50
F0
10
70
90
90
68
ENDCHAR
STARTCHAR lacute
ENCODING 229
SWIDTH 313 0
DWIDTH 3 0
BBX 3 11 0 0
BITMAP
C0
00
C0
40
40
40
40
40
40
40
E0
ENDCHAR
STARTCHAR cacute
ENCODING 230
SWIDTH 509 0
DWIDTH 6 0
BBX 5 8 0 0
BITMAP
30
00
78
C8
80
80
C0
78
ENDCHAR
STARTCHAR ccedilla
ENCODING 231
SWIDTH 509 0
DWIDTH 6 0
BBX 5 8 0 -2
BITMAP
78
C8
80
80
C0
78
10
30
ENDCHAR
STARTCHAR ccaron
ENCODING 232
SWIDTH 509 0
DWIDTH 6 0
BBX 5 8 0 0
BITMAP
78
00
78
C8
80
80
C0
78
ENDCHAR
STARTCHAR eacute
ENCODING 233
SWIDTH 530 0
DWIDTH 6 0
BBX 5 7 0 0
BITMAP
20
70
88
F8
80
C0
78
ENDCHAR
STARTCHAR eogonek
ENCODING 234
SWIDTH 530 0
DWIDTH 6 0
BBX 5 8 0 -2
BITMAP
70
88
F8
80
C0
78
00
60
ENDCHAR
STARTCHAR edieresis
ENCODING 235
SWIDTH 530 0
DWIDTH 6 0
BBX 5 7 0 0
BITMAP
50
70
88
F8
80
C0
78
ENDCHAR
STARTCHAR ecaron
ENCODING 236
SWIDTH 530 0
DWIDTH 6 0
BBX 5 8 0 0
BITMAP
78
00
70
88
F8
80
C0
78
ENDCHAR
STARTCHAR iacute
ENCODING 237
SWIDTH 307 0
DWIDTH 3 0
BBX 3 7 0 0
BITMAP
60
C0
40
40
40
40
E0
ENDCHAR
STARTCHAR icircumflex
ENCODING 238
SWIDTH 307 0
DWIDTH 3 0
BBX 4 7 1 0
BITMAP
F0
60
20
20
20
20
70
ENDCHAR
STARTCHAR dcaron
ENCODING 239
SWIDTH 875 0
DWIDTH 10 0
BBX 8 9 1 0
BITMAP
19
09
09
79
88
88
88
88
7C
ENDCHAR
STARTCHAR dcroat
ENCODING 240
SWIDTH 642 0
DWIDTH 7 0
BBX 6 9 1 0
BITMAP
18
08
1C
78
88
88
88
88
7C
ENDCHAR
STARTCHAR nacute
ENCODING 241
SWIDTH 633 0
DWIDTH 7 0
BBX 7 8 0 0
BITMAP
30
00
FC
44
44
44
44
EE
ENDCHAR
STARTCHAR ncaron
ENCODING 242
SWIDTH 633 0
DWIDTH 7 0
BBX 7 8 0 0
BITMAP
78
00
FC
44
44
44
44
EE
ENDCHAR
STARTCHAR oacute
ENCODING 243
SWIDTH 602 0
DWIDTH 7 0
BBX 6 7 0 0
BITMAP
20
78
CC
84
84
CC
78
ENDCHAR
STARTCHAR ocircumflex
ENCODING 244
SWIDTH 602 0
DWIDTH 7 0
BBX 6 7 0 0
BITMAP
30
78
CC
84
84
CC
78
ENDCHAR
STARTCHAR ohungarumlaut
ENCODING 245
SWIDTH 602 0
DWIDTH 7 0
BBX 6 8 0 0
BITMAP
38
00
78
CC
84
84
CC
78
ENDCHAR
STARTCHAR odieresis
ENCODING 246
SWIDTH 602 0
DWIDTH 7 0
BBX 6 7 0 0
BITMAP
50
78
CC
84
84
CC
78
ENDCHAR
STARTCHAR divide
ENCODING 247
SWIDTH 608 0
DWIDTH 7 0
BBX 7 6 0 0
BITMAP
10
00
00
FE
00
10
ENDCHAR
STARTCHAR rcaron
ENCODING 248
SWIDTH 440 0
DWIDTH 5 0
BBX 4 8 0 0
BITMAP
F0
00
F0
50
40
40
40
E0
ENDCHAR
STARTCHAR uring
ENCODING 249
SWIDTH 633 0
DWIDTH 7 0
BBX 7 10 0 0
BITMAP
30
48
30
00
CC
44
44
44
44
7E
ENDCHAR
STARTCHAR uacute
ENCODING 250
SWIDTH 633 0
DWIDTH 7 0
BBX 7 7 0 0
BITMAP
18
CC
44
44
44
44
7E
ENDCHAR
STARTCHAR uhungarumlaut
ENCODING 251
SWIDTH 633 0
DWIDTH 7 0
BBX 7 8 0 0
BITMAP
38
00
CC
44
44
44
44
7E
ENDCHAR
STARTCHAR udieresis
ENCODING 252
SWIDTH 633 0
DWIDTH 7 0
BBX 7 7 0 0
BITMAP
28
CC
44
44
44
44
7E
ENDCHAR
STARTCHAR yacute
ENCODING 253
SWIDTH 551 0
DWIDTH 6 0
BBX 6 9 0 -2
BITMAP
30
EC
44
48
28
30
10
20
60
ENDCHAR
STARTCHAR tcommaaccent
ENCODING 254
SWIDTH 392 0
DWIDTH 4 0
BBX 4 11 0 -2
BITMAP
40
40
40
F0
40
40
40
40
70
20
60
ENDCHAR
STARTCHAR dotaccent
ENCODING 255
SWIDTH 602 0
DWIDTH 7 0
BBX 1 1 3 8
BITMAP
80
ENDCHAR
ENDFONT
