STARTFONT 2.1
COMMENT AUTOMATICALLY GENERATED FILE. DO NOT EDIT!
COMMENT Generated with 'ucs2any luIS08.bdf /usr/local/lib/X11/fonts/util/map-ISO8859-4 ISO8859-4'
COMMENT from an ISO10646-1 encoded source BDF font.
COMMENT ucs2any by Ben Collver <collver1@attbi.com>, 2003, based on
COMMENT ucs2any.pl by Markus Kuhn <http://www.cl.cam.ac.uk/~mgk25/>, 2000.
COMMENT $Xorg: $
COMMENT ISO10646-1 extension by Markus Kuhn <mkuhn@acm.org>, 2001-03-20
COMMENT  (c) Copyright Bigelow & Holmes 1986, 1985. Lucida is a registered
COMMENT  trademark of Bigelow & Holmes. See LEGAL NOTICE file for terms
COMMENT  of the license.
FONT -B&H-Lucida-Medium-I-Normal-Sans-11-80-100-100-P-62-ISO8859-4
SIZE 8 100 100
FONTBOUNDINGBOX 11 15 0 -5
STARTPROPERTIES 22
COMMENT Begin LogicalFontDescription
FONTNAME_REGISTRY ""
FOUNDRY "B&H"
FAMILY_NAME "Lucida"
WEIGHT_NAME "Medium"
SLANT "I"
SETWIDTH_NAME "Normal"
ADD_STYLE_NAME "Sans"
PIXEL_SIZE 11
POINT_SIZE 80
RESOLUTION_X 100
RESOLUTION_Y 100
SPACING "P"
AVERAGE_WIDTH 62
CHARSET_REGISTRY "ISO8859"
CHARSET_ENCODING "4"
COMMENT END LogicalFontDescription
FONT_ASCENT 10
FONT_DESCENT 3
DEFAULT_CHAR 0
COPYRIGHT "Copyright Bigelow & Holmes 1986, 1985."
FACE_NAME "Lucida Sans Italic"
X_HEIGHT 6
CAP_HEIGHT 8
ENDPROPERTIES
CHARS 192
STARTCHAR defaultchar
ENCODING 0
SWIDTH 735 0
DWIDTH 8 0
BBX 7 7 1 0
BITMAP
AA
00
82
00
82
00
AA
ENDCHAR
STARTCHAR space
ENCODING 32
SWIDTH 316 0
DWIDTH 3 0
BBX 1 1 0 0
BITMAP
00
ENDCHAR
STARTCHAR exclam
ENCODING 33
SWIDTH 193 0
DWIDTH 3 0
BBX 3 8 1 0
BITMAP
20
20
40
40
40
40
00
80
ENDCHAR
STARTCHAR quotedbl
ENCODING 34
SWIDTH 361 0
DWIDTH 4 0
BBX 3 3 2 5
BITMAP
A0
A0
A0
ENDCHAR
STARTCHAR numbersign
ENCODING 35
SWIDTH 633 0
DWIDTH 7 0
BBX 7 8 1 0
BITMAP
1A
14
7E
28
28
FC
50
B0
ENDCHAR
STARTCHAR dollar
ENCODING 36
SWIDTH 633 0
DWIDTH 7 0
BBX 5 10 2 -1
BITMAP
10
38
50
50
20
30
28
30
F0
40
ENDCHAR
STARTCHAR percent
ENCODING 37
SWIDTH 741 0
DWIDTH 8 0
BBX 8 8 1 0
BITMAP
33
52
54
68
16
2A
4A
8C
ENDCHAR
STARTCHAR ampersand
ENCODING 38
SWIDTH 701 0
DWIDTH 8 0
BBX 7 8 1 0
BITMAP
1C
24
2C
30
D2
9E
8C
74
ENDCHAR
STARTCHAR quotesingle
ENCODING 39
SWIDTH 217 0
DWIDTH 2 0
BBX 1 3 2 5
BITMAP
80
80
80
ENDCHAR
STARTCHAR parenleft
ENCODING 40
SWIDTH 325 0
DWIDTH 4 0
BBX 4 10 1 -2
BITMAP
10
20
40
40
80
80
80
80
80
40
ENDCHAR
STARTCHAR parenright
ENCODING 41
SWIDTH 325 0
DWIDTH 4 0
BBX 4 10 0 -2
BITMAP
20
20
10
10
10
20
20
20
40
80
ENDCHAR
STARTCHAR asterisk
ENCODING 42
SWIDTH 470 0
DWIDTH 5 0
BBX 4 4 2 4
BITMAP
20
F0
60
A0
ENDCHAR
STARTCHAR plus
ENCODING 43
SWIDTH 633 0
DWIDTH 7 0
BBX 7 7 1 0
BITMAP
08
10
10
FE
10
10
20
ENDCHAR
STARTCHAR comma
ENCODING 44
SWIDTH 316 0
DWIDTH 3 0
BBX 2 4 1 -2
BITMAP
40
C0
40
80
ENDCHAR
STARTCHAR hyphen
ENCODING 45
SWIDTH 313 0
DWIDTH 3 0
BBX 3 1 1 3
BITMAP
E0
ENDCHAR
STARTCHAR period
ENCODING 46
SWIDTH 316 0
DWIDTH 3 0
BBX 2 1 1 0
BITMAP
C0
ENDCHAR
STARTCHAR slash
ENCODING 47
SWIDTH 482 0
DWIDTH 5 0
BBX 7 10 0 -2
BITMAP
02
04
08
08
10
10
20
40
40
80
ENDCHAR
STARTCHAR zero
ENCODING 48
SWIDTH 633 0
DWIDTH 7 0
BBX 6 8 1 0
BITMAP
38
4C
44
84
84
88
98
70
ENDCHAR
STARTCHAR one
ENCODING 49
SWIDTH 633 0
DWIDTH 7 0
BBX 3 8 3 0
BITMAP
E0
20
40
40
40
40
C0
80
ENDCHAR
STARTCHAR two
ENCODING 50
SWIDTH 633 0
DWIDTH 7 0
BBX 6 8 1 0
BITMAP
38
64
04
08
10
20
40
F8
ENDCHAR
STARTCHAR three
ENCODING 51
SWIDTH 633 0
DWIDTH 7 0
BBX 6 8 1 0
BITMAP
78
0C
08
70
18
08
18
F0
ENDCHAR
STARTCHAR four
ENCODING 52
SWIDTH 633 0
DWIDTH 7 0
BBX 6 8 1 0
BITMAP
0C
1C
38
28
48
FC
08
10
ENDCHAR
STARTCHAR five
ENCODING 53
SWIDTH 633 0
DWIDTH 7 0
BBX 6 8 1 0
BITMAP
3C
40
40
70
18
08
18
F0
ENDCHAR
STARTCHAR six
ENCODING 54
SWIDTH 633 0
DWIDTH 7 0
BBX 6 8 1 0
BITMAP
1C
60
40
F8
C8
88
88
70
ENDCHAR
STARTCHAR seven
ENCODING 55
SWIDTH 633 0
DWIDTH 7 0
BBX 6 8 2 0
BITMAP
7C
0C
18
30
20
40
C0
80
ENDCHAR
STARTCHAR eight
ENCODING 56
SWIDTH 633 0
DWIDTH 7 0
BBX 6 8 1 0
BITMAP
38
44
4C
30
58
88
88
70
ENDCHAR
STARTCHAR nine
ENCODING 57
SWIDTH 633 0
DWIDTH 7 0
BBX 6 8 1 0
BITMAP
38
44
44
4C
7C
08
18
E0
ENDCHAR
STARTCHAR colon
ENCODING 58
SWIDTH 316 0
DWIDTH 3 0
BBX 2 6 1 0
BITMAP
40
00
00
00
00
80
ENDCHAR
STARTCHAR semicolon
ENCODING 59
SWIDTH 316 0
DWIDTH 3 0
BBX 3 8 1 -2
BITMAP
20
00
00
00
00
C0
80
80
ENDCHAR
STARTCHAR less
ENCODING 60
SWIDTH 633 0
DWIDTH 7 0
BBX 7 7 1 0
BITMAP
02
0C
30
C0
60
18
04
ENDCHAR
STARTCHAR equal
ENCODING 61
SWIDTH 633 0
DWIDTH 7 0
BBX 7 4 1 1
BITMAP
FE
00
00
FE
ENDCHAR
STARTCHAR greater
ENCODING 62
SWIDTH 633 0
DWIDTH 7 0
BBX 7 7 0 0
BITMAP
40
30
0C
06
18
60
80
ENDCHAR
STARTCHAR question
ENCODING 63
SWIDTH 464 0
DWIDTH 5 0
BBX 4 8 1 0
BITMAP
F0
10
10
20
40
C0
00
80
ENDCHAR
STARTCHAR at
ENCODING 64
SWIDTH 858 0
DWIDTH 9 0
BBX 8 8 1 0
BITMAP
1E
63
9D
A5
B9
BE
C0
78
ENDCHAR
STARTCHAR A
ENCODING 65
SWIDTH 687 0
DWIDTH 8 0
BBX 7 8 0 0
BITMAP
0C
0C
14
34
24
7E
42
82
ENDCHAR
STARTCHAR B
ENCODING 66
SWIDTH 593 0
DWIDTH 7 0
BBX 6 8 1 0
BITMAP
7C
44
48
78
48
C8
88
F0
ENDCHAR
STARTCHAR C
ENCODING 67
SWIDTH 679 0
DWIDTH 7 0
BBX 7 8 1 0
BITMAP
1E
60
40
C0
80
80
C4
78
ENDCHAR
STARTCHAR D
ENCODING 68
SWIDTH 743 0
DWIDTH 8 0
BBX 8 8 1 0
BITMAP
3E
63
41
41
41
42
86
F8
ENDCHAR
STARTCHAR E
ENCODING 69
SWIDTH 547 0
DWIDTH 6 0
BBX 6 8 1 0
BITMAP
7C
40
40
78
40
C0
80
F8
ENDCHAR
STARTCHAR F
ENCODING 70
SWIDTH 536 0
DWIDTH 6 0
BBX 6 8 1 0
BITMAP
7C
40
40
40
78
C0
80
80
ENDCHAR
STARTCHAR G
ENCODING 71
SWIDTH 702 0
DWIDTH 8 0
BBX 7 8 1 0
BITMAP
1E
60
40
80
84
84
C4
78
ENDCHAR
STARTCHAR H
ENCODING 72
SWIDTH 735 0
DWIDTH 8 0
BBX 8 8 1 0
BITMAP
21
43
42
7E
42
42
86
84
ENDCHAR
STARTCHAR I
ENCODING 73
SWIDTH 289 0
DWIDTH 3 0
BBX 3 8 1 0
BITMAP
20
20
40
40
40
40
80
80
ENDCHAR
STARTCHAR J
ENCODING 74
SWIDTH 408 0
DWIDTH 4 0
BBX 5 10 0 -2
BITMAP
08
08
18
10
10
10
10
10
20
E0
ENDCHAR
STARTCHAR K
ENCODING 75
SWIDTH 635 0
DWIDTH 7 0
BBX 7 8 1 0
BITMAP
26
4C
58
70
70
50
88
8C
ENDCHAR
STARTCHAR L
ENCODING 76
SWIDTH 545 0
DWIDTH 6 0
BBX 5 8 1 0
BITMAP
60
40
40
40
40
C0
80
F8
ENDCHAR
STARTCHAR M
ENCODING 77
SWIDTH 828 0
DWIDTH 9 0
BBX 9 8 1 0
BITMAP
2180
6180
5300
5500
5500
5900
9900
8200
ENDCHAR
STARTCHAR N
ENCODING 78
SWIDTH 741 0
DWIDTH 8 0
BBX 8 8 1 0
BITMAP
21
61
52
52
4A
4A
86
84
ENDCHAR
STARTCHAR O
ENCODING 79
SWIDTH 777 0
DWIDTH 9 0
BBX 8 8 1 0
BITMAP
1E
22
43
81
82
82
C4
78
ENDCHAR
STARTCHAR P
ENCODING 80
SWIDTH 575 0
DWIDTH 6 0
BBX 6 8 1 0
BITMAP
7C
44
44
48
70
C0
80
80
ENDCHAR
STARTCHAR Q
ENCODING 81
SWIDTH 777 0
DWIDTH 9 0
BBX 8 10 1 -2
BITMAP
1E
22
43
81
82
82
C4
78
0C
03
ENDCHAR
STARTCHAR R
ENCODING 82
SWIDTH 632 0
DWIDTH 7 0
BBX 6 8 1 0
BITMAP
7C
44
44
48
70
D0
88
8C
ENDCHAR
STARTCHAR S
ENCODING 83
SWIDTH 553 0
DWIDTH 6 0
BBX 6 8 1 0
BITMAP
3C
60
60
30
18
08
88
F0
ENDCHAR
STARTCHAR T
ENCODING 84
SWIDTH 623 0
DWIDTH 7 0
BBX 7 8 1 0
BITMAP
FE
10
10
20
20
20
20
60
ENDCHAR
STARTCHAR U
ENCODING 85
SWIDTH 693 0
DWIDTH 8 0
BBX 7 8 1 0
BITMAP
42
42
44
C4
84
84
88
78
ENDCHAR
STARTCHAR V
ENCODING 86
SWIDTH 687 0
DWIDTH 8 0
BBX 7 8 2 0
BITMAP
82
84
C4
48
58
50
60
60
ENDCHAR
STARTCHAR W
ENCODING 87
SWIDTH 886 0
DWIDTH 10 0
BBX 9 8 2 0
BITMAP
8880
8880
9900
9900
AA00
AA00
CC00
CC00
ENDCHAR
STARTCHAR X
ENCODING 88
SWIDTH 620 0
DWIDTH 7 0
BBX 8 8 0 0
BITMAP
23
32
14
18
18
2C
44
C6
ENDCHAR
STARTCHAR Y
ENCODING 89
SWIDTH 608 0
DWIDTH 7 0
BBX 6 8 2 0
BITMAP
8C
48
50
70
20
60
40
40
ENDCHAR
STARTCHAR Z
ENCODING 90
SWIDTH 578 0
DWIDTH 6 0
BBX 7 8 0 0
BITMAP
3E
04
08
18
30
60
40
FC
ENDCHAR
STARTCHAR bracketleft
ENCODING 91
SWIDTH 325 0
DWIDTH 4 0
BBX 4 10 1 -2
BITMAP
30
20
40
40
40
40
40
80
80
C0
ENDCHAR
STARTCHAR backslash
ENCODING 92
SWIDTH 482 0
DWIDTH 5 0
BBX 3 10 2 -2
BITMAP
80
80
40
40
40
40
40
40
20
20
ENDCHAR
STARTCHAR bracketright
ENCODING 93
SWIDTH 325 0
DWIDTH 4 0
BBX 4 10 0 -2
BITMAP
30
10
10
20
20
20
20
20
40
C0
ENDCHAR
STARTCHAR asciicircum
ENCODING 94
SWIDTH 633 0
DWIDTH 7 0
BBX 6 7 1 1
BITMAP
08
18
18
28
68
44
84
ENDCHAR
STARTCHAR underscore
ENCODING 95
SWIDTH 500 0
DWIDTH 6 0
BBX 5 1 0 -1
BITMAP
F8
ENDCHAR
STARTCHAR grave
ENCODING 96
SWIDTH 572 0
DWIDTH 6 0
BBX 2 1 4 7
BITMAP
C0
ENDCHAR
STARTCHAR a
ENCODING 97
SWIDTH 608 0
DWIDTH 7 0
BBX 6 6 1 0
BITMAP
3C
64
4C
98
B8
E8
ENDCHAR
STARTCHAR b
ENCODING 98
SWIDTH 608 0
DWIDTH 7 0
BBX 6 8 1 0
BITMAP
20
40
5C
74
64
48
98
F0
ENDCHAR
STARTCHAR c
ENCODING 99
SWIDTH 503 0
DWIDTH 6 0
BBX 5 6 1 0
BITMAP
38
40
80
80
90
70
ENDCHAR
STARTCHAR d
ENCODING 100
SWIDTH 608 0
DWIDTH 7 0
BBX 6 8 1 0
BITMAP
04
04
3C
48
48
98
B8
F8
ENDCHAR
STARTCHAR e
ENCODING 101
SWIDTH 529 0
DWIDTH 6 0
BBX 5 6 1 0
BITMAP
38
48
90
E0
88
70
ENDCHAR
STARTCHAR f
ENCODING 102
SWIDTH 383 0
DWIDTH 4 0
BBX 5 11 1 -2
BITMAP
18
20
20
F0
40
40
40
40
C0
80
80
ENDCHAR
STARTCHAR g
ENCODING 103
SWIDTH 608 0
DWIDTH 7 0
BBX 6 8 1 -2
BITMAP
1C
24
4C
C8
58
68
88
F0
ENDCHAR
STARTCHAR h
ENCODING 104
SWIDTH 620 0
DWIDTH 7 0
BBX 6 8 1 0
BITMAP
20
60
5C
74
64
44
88
88
ENDCHAR
STARTCHAR i
ENCODING 105
SWIDTH 289 0
DWIDTH 3 0
BBX 3 8 1 0
BITMAP
20
00
60
40
40
40
80
80
ENDCHAR
STARTCHAR j
ENCODING 106
SWIDTH 325 0
DWIDTH 4 0
BBX 5 10 0 -2
BITMAP
08
00
18
10
10
10
10
10
20
C0
ENDCHAR
STARTCHAR k
ENCODING 107
SWIDTH 572 0
DWIDTH 6 0
BBX 6 8 1 0
BITMAP
20
40
4C
50
60
70
90
88
ENDCHAR
STARTCHAR l
ENCODING 108
SWIDTH 289 0
DWIDTH 3 0
BBX 3 8 1 0
BITMAP
20
20
40
40
40
40
80
80
ENDCHAR
STARTCHAR m
ENCODING 109
SWIDTH 934 0
DWIDTH 10 0
BBX 9 6 1 0
BITMAP
5980
6A80
6C80
C880
8900
8900
ENDCHAR
STARTCHAR n
ENCODING 110
SWIDTH 620 0
DWIDTH 7 0
BBX 6 6 1 0
BITMAP
5C
74
64
44
88
88
ENDCHAR
STARTCHAR o
ENCODING 111
SWIDTH 566 0
DWIDTH 6 0
BBX 5 6 1 0
BITMAP
38
48
88
88
98
70
ENDCHAR
STARTCHAR p
ENCODING 112
SWIDTH 608 0
DWIDTH 7 0
BBX 6 8 1 -2
BITMAP
7C
74
64
48
48
F0
80
80
ENDCHAR
STARTCHAR q
ENCODING 113
SWIDTH 608 0
DWIDTH 7 0
BBX 6 8 1 -2
BITMAP
3C
64
48
98
B8
E8
08
10
ENDCHAR
STARTCHAR r
ENCODING 114
SWIDTH 478 0
DWIDTH 5 0
BBX 5 6 1 0
BITMAP
58
60
60
C0
80
80
ENDCHAR
STARTCHAR s
ENCODING 115
SWIDTH 489 0
DWIDTH 5 0
BBX 5 6 1 0
BITMAP
38
40
60
30
90
F0
ENDCHAR
STARTCHAR t
ENCODING 116
SWIDTH 383 0
DWIDTH 4 0
BBX 4 7 1 0
BITMAP
60
F0
40
40
80
80
60
ENDCHAR
STARTCHAR u
ENCODING 117
SWIDTH 620 0
DWIDTH 7 0
BBX 6 6 1 0
BITMAP
44
44
88
98
B8
E8
ENDCHAR
STARTCHAR v
ENCODING 118
SWIDTH 545 0
DWIDTH 6 0
BBX 5 6 2 0
BITMAP
88
90
90
A0
A0
40
ENDCHAR
STARTCHAR w
ENCODING 119
SWIDTH 795 0
DWIDTH 9 0
BBX 8 6 1 0
BITMAP
99
9A
AA
AC
CC
C8
ENDCHAR
STARTCHAR x
ENCODING 120
SWIDTH 541 0
DWIDTH 6 0
BBX 6 6 1 0
BITMAP
64
28
30
30
50
88
ENDCHAR
STARTCHAR y
ENCODING 121
SWIDTH 548 0
DWIDTH 6 0
BBX 6 8 1 -2
BITMAP
C4
48
58
50
60
60
40
80
ENDCHAR
STARTCHAR z
ENCODING 122
SWIDTH 536 0
DWIDTH 6 0
BBX 6 6 0 0
BITMAP
7C
08
10
20
40
F8
ENDCHAR
STARTCHAR braceleft
ENCODING 123
SWIDTH 325 0
DWIDTH 4 0
BBX 4 10 1 -2
BITMAP
30
20
60
40
C0
40
40
80
80
40
ENDCHAR
STARTCHAR bar
ENCODING 124
SWIDTH 233 0
DWIDTH 3 0
BBX 3 10 0 -2
BITMAP
20
20
40
40
40
40
40
40
80
80
ENDCHAR
STARTCHAR braceright
ENCODING 125
SWIDTH 325 0
DWIDTH 4 0
BBX 4 10 0 -2
BITMAP
20
10
20
20
30
20
40
40
40
C0
ENDCHAR
STARTCHAR asciitilde
ENCODING 126
SWIDTH 633 0
DWIDTH 7 0
BBX 7 3 1 2
BITMAP
62
92
8C
ENDCHAR
STARTCHAR space
ENCODING 160
SWIDTH 316 0
DWIDTH 3 0
BBX 1 1 0 0
BITMAP
00
ENDCHAR
STARTCHAR Aogonek
ENCODING 161
SWIDTH 687 0
DWIDTH 8 0
BBX 7 10 0 -2
BITMAP
0C
0C
14
34
24
7E
42
82
00
18
ENDCHAR
STARTCHAR kgreenlandic
ENCODING 162
SWIDTH 572 0
DWIDTH 6 0
BBX 6 6 1 0
BITMAP
4C
50
60
70
90
88
ENDCHAR
STARTCHAR Rcommaaccent
ENCODING 163
SWIDTH 632 0
DWIDTH 7 0
BBX 6 13 1 -5
BITMAP
7C
44
44
48
70
D0
88
8C
00
10
30
10
20
ENDCHAR
STARTCHAR currency
ENCODING 164
SWIDTH 633 0
DWIDTH 7 0
BBX 8 8 0 0
BITMAP
41
3A
24
24
44
24
7C
86
ENDCHAR
STARTCHAR Itilde
ENCODING 165
SWIDTH 289 0
DWIDTH 3 0
BBX 4 10 1 0
BITMAP
F0
00
20
20
40
40
40
40
80
80
ENDCHAR
STARTCHAR Lcommaaccent
ENCODING 166
SWIDTH 545 0
DWIDTH 6 0
BBX 5 13 1 -5
BITMAP
60
40
40
40
40
C0
80
F8
00
20
60
20
40
ENDCHAR
STARTCHAR section
ENCODING 167
SWIDTH 633 0
DWIDTH 7 0
BBX 6 10 1 -2
BITMAP
3C
60
40
70
48
48
38
08
88
F0
ENDCHAR
STARTCHAR dieresis
ENCODING 168
SWIDTH 566 0
DWIDTH 6 0
BBX 3 1 3 7
BITMAP
A0
ENDCHAR
STARTCHAR Scaron
ENCODING 169
SWIDTH 553 0
DWIDTH 6 0
BBX 6 9 1 0
BITMAP
18
3C
60
60
30
18
08
88
F0
ENDCHAR
STARTCHAR Emacron
ENCODING 170
SWIDTH 547 0
DWIDTH 6 0
BBX 6 10 1 0
BITMAP
70
00
7C
40
40
78
40
C0
80
F8
ENDCHAR
STARTCHAR Gcommaaccent
ENCODING 171
SWIDTH 702 0
DWIDTH 8 0
BBX 7 13 1 -5
BITMAP
1E
60
40
80
84
84
C4
78
00
10
30
10
20
ENDCHAR
STARTCHAR Tbar
ENCODING 172
SWIDTH 623 0
DWIDTH 7 0
BBX 7 8 1 0
BITMAP
FE
10
10
38
20
20
20
60
ENDCHAR
STARTCHAR hyphen
ENCODING 173
SWIDTH 313 0
DWIDTH 3 0
BBX 3 1 1 3
BITMAP
E0
ENDCHAR
STARTCHAR Zcaron
ENCODING 174
SWIDTH 578 0
DWIDTH 6 0
BBX 7 9 0 0
BITMAP
18
3E
04
08
18
30
60
40
FC
ENDCHAR
STARTCHAR macron
ENCODING 175
SWIDTH 566 0
DWIDTH 6 0
BBX 3 1 3 7
BITMAP
E0
ENDCHAR
STARTCHAR degree
ENCODING 176
SWIDTH 269 0
DWIDTH 3 0
BBX 2 2 2 6
BITMAP
C0
C0
ENDCHAR
STARTCHAR aogonek
ENCODING 177
SWIDTH 608 0
DWIDTH 7 0
BBX 6 8 1 -2
BITMAP
3C
64
4C
98
B8
E8
00
30
ENDCHAR
STARTCHAR ogonek
ENCODING 178
SWIDTH 566 0
DWIDTH 6 0
BBX 2 1 2 -2
BITMAP
C0
ENDCHAR
STARTCHAR rcommaaccent
ENCODING 179
SWIDTH 478 0
DWIDTH 5 0
BBX 5 11 1 -5
BITMAP
58
60
60
C0
80
80
00
40
C0
40
80
ENDCHAR
STARTCHAR acute
ENCODING 180
SWIDTH 566 0
DWIDTH 6 0
BBX 3 1 4 7
BITMAP
E0
ENDCHAR
STARTCHAR itilde
ENCODING 181
SWIDTH 289 0
DWIDTH 3 0
BBX 4 8 0 0
BITMAP
F0
00
20
20
20
40
40
40
ENDCHAR
STARTCHAR lcommaaccent
ENCODING 182
SWIDTH 289 0
DWIDTH 3 0
BBX 3 13 1 -5
BITMAP
20
20
40
40
40
40
80
80
00
40
C0
40
80
ENDCHAR
STARTCHAR caron
ENCODING 183
SWIDTH 568 0
DWIDTH 6 0
BBX 3 1 4 7
BITMAP
E0
ENDCHAR
STARTCHAR cedilla
ENCODING 184
SWIDTH 566 0
DWIDTH 6 0
BBX 2 3 2 -2
BITMAP
40
40
C0
ENDCHAR
STARTCHAR scaron
ENCODING 185
SWIDTH 489 0
DWIDTH 5 0
BBX 5 7 1 0
BITMAP
30
38
40
60
30
90
F0
ENDCHAR
STARTCHAR emacron
ENCODING 186
SWIDTH 529 0
DWIDTH 6 0
BBX 5 8 1 0
BITMAP
38
00
38
48
90
E0
88
70
ENDCHAR
STARTCHAR gcommaaccent
ENCODING 187
SWIDTH 608 0
DWIDTH 7 0
BBX 6 12 1 -2
BITMAP
08
10
18
00
1C
24
4C
C8
58
68
88
F0
ENDCHAR
STARTCHAR tbar
ENCODING 188
SWIDTH 383 0
DWIDTH 4 0
BBX 4 7 1 0
BITMAP
60
F0
40
70
80
80
60
ENDCHAR
STARTCHAR Eng
ENCODING 189
SWIDTH 741 0
DWIDTH 8 0
BBX 8 10 1 -2
BITMAP
21
61
52
52
4A
4A
86
86
04
18
ENDCHAR
STARTCHAR zcaron
ENCODING 190
SWIDTH 536 0
DWIDTH 6 0
BBX 6 7 0 0
BITMAP
18
7C
08
10
20
40
F8
ENDCHAR
STARTCHAR eng
ENCODING 191
SWIDTH 620 0
DWIDTH 7 0
BBX 6 8 1 -2
BITMAP
5C
74
64
44
84
84
08
30
ENDCHAR
STARTCHAR Amacron
ENCODING 192
SWIDTH 687 0
DWIDTH 8 0
BBX 7 10 0 0
BITMAP
1C
00
0C
0C
14
34
24
7E
42
82
ENDCHAR
STARTCHAR Aacute
ENCODING 193
SWIDTH 687 0
DWIDTH 8 0
BBX 7 9 0 0
BITMAP
0E
0C
0C
14
34
24
7E
42
82
ENDCHAR
STARTCHAR Acircumflex
ENCODING 194
SWIDTH 687 0
DWIDTH 8 0
BBX 7 9 0 0
BITMAP
1C
0C
0C
14
34
24
7E
42
82
ENDCHAR
STARTCHAR Atilde
ENCODING 195
SWIDTH 687 0
DWIDTH 8 0
BBX 7 9 0 0
BITMAP
1E
0C
0C
14
34
24
7E
42
82
ENDCHAR
STARTCHAR Adieresis
ENCODING 196
SWIDTH 687 0
DWIDTH 8 0
BBX 7 9 0 0
BITMAP
0A
0C
0C
14
34
24
7E
42
82
ENDCHAR
STARTCHAR Aring
ENCODING 197
SWIDTH 687 0
DWIDTH 8 0
BBX 7 10 0 0
BITMAP
0C
0C
0C
0C
14
34
24
7E
42
82
ENDCHAR
STARTCHAR AE
ENCODING 198
SWIDTH 893 0
DWIDTH 10 0
BBX 11 8 0 0
BITMAP
03E0
0600
0A00
1BC0
1200
3E00
4400
87C0
ENDCHAR
STARTCHAR Iogonek
ENCODING 199
SWIDTH 289 0
DWIDTH 3 0
BBX 3 10 1 -2
BITMAP
20
20
40
40
40
40
80
80
00
C0
ENDCHAR
STARTCHAR Ccaron
ENCODING 200
SWIDTH 679 0
DWIDTH 7 0
BBX 7 10 1 0
BITMAP
38
00
1E
60
40
C0
80
80
C4
78
ENDCHAR
STARTCHAR Eacute
ENCODING 201
SWIDTH 547 0
DWIDTH 6 0
BBX 6 9 1 0
BITMAP
08
7C
40
40
78
40
C0
80
F8
ENDCHAR
STARTCHAR Eogonek
ENCODING 202
SWIDTH 547 0
DWIDTH 6 0
BBX 6 10 1 -2
BITMAP
7C
40
40
78
40
C0
80
F8
00
60
ENDCHAR
STARTCHAR Edieresis
ENCODING 203
SWIDTH 547 0
DWIDTH 6 0
BBX 6 9 1 0
BITMAP
28
7C
40
40
78
40
C0
80
F8
ENDCHAR
STARTCHAR Edotaccent
ENCODING 204
SWIDTH 547 0
DWIDTH 6 0
BBX 6 10 1 0
BITMAP
20
00
7C
40
40
78
40
C0
80
F8
ENDCHAR
STARTCHAR Iacute
ENCODING 205
SWIDTH 289 0
DWIDTH 3 0
BBX 4 9 1 0
BITMAP
70
20
20
40
40
40
40
80
80
ENDCHAR
STARTCHAR Icircumflex
ENCODING 206
SWIDTH 289 0
DWIDTH 3 0
BBX 4 9 1 0
BITMAP
70
20
20
40
40
40
40
80
80
ENDCHAR
STARTCHAR Imacron
ENCODING 207
SWIDTH 289 0
DWIDTH 3 0
BBX 3 10 1 0
BITMAP
E0
00
20
20
40
40
40
40
80
80
ENDCHAR
STARTCHAR Dcroat
ENCODING 208
SWIDTH 743 0
DWIDTH 8 0
BBX 8 8 1 0
BITMAP
3E
23
61
F1
41
42
46
FC
ENDCHAR
STARTCHAR Ncommaaccent
ENCODING 209
SWIDTH 741 0
DWIDTH 8 0
BBX 8 13 1 -5
BITMAP
21
61
52
52
4A
4A
86
84
00
08
18
08
10
ENDCHAR
STARTCHAR Omacron
ENCODING 210
SWIDTH 777 0
DWIDTH 9 0
BBX 8 10 1 0
BITMAP
1C
00
1E
22
43
81
82
82
C4
78
ENDCHAR
STARTCHAR Kcommaaccent
ENCODING 211
SWIDTH 635 0
DWIDTH 7 0
BBX 7 13 1 -5
BITMAP
26
4C
58
70
70
50
88
8C
00
10
30
10
20
ENDCHAR
STARTCHAR Ocircumflex
ENCODING 212
SWIDTH 777 0
DWIDTH 9 0
BBX 8 9 1 0
BITMAP
14
1E
22
43
81
82
82
C4
78
ENDCHAR
STARTCHAR Otilde
ENCODING 213
SWIDTH 777 0
DWIDTH 9 0
BBX 8 9 1 0
BITMAP
1E
1E
22
43
81
82
82
C4
78
ENDCHAR
STARTCHAR Odieresis
ENCODING 214
SWIDTH 777 0
DWIDTH 9 0
BBX 8 9 1 0
BITMAP
14
1E
22
43
81
82
82
C4
78
ENDCHAR
STARTCHAR multiply
ENCODING 215
SWIDTH 633 0
DWIDTH 7 0
BBX 7 7 1 0
BITMAP
42
24
28
10
28
4C
84
ENDCHAR
STARTCHAR Oslash
ENCODING 216
SWIDTH 777 0
DWIDTH 9 0
BBX 9 8 1 0
BITMAP
1F80
2300
4700
8D00
9A00
B200
E400
F800
ENDCHAR
STARTCHAR Uogonek
ENCODING 217
SWIDTH 693 0
DWIDTH 8 0
BBX 7 10 1 -2
BITMAP
42
42
44
C4
84
84
88
78
00
30
ENDCHAR
STARTCHAR Uacute
ENCODING 218
SWIDTH 693 0
DWIDTH 8 0
BBX 7 9 1 0
BITMAP
1C
42
42
44
C4
84
84
88
78
ENDCHAR
STARTCHAR Ucircumflex
ENCODING 219
SWIDTH 693 0
DWIDTH 8 0
BBX 7 9 1 0
BITMAP
1C
42
42
44
C4
84
84
88
78
ENDCHAR
STARTCHAR Udieresis
ENCODING 220
SWIDTH 693 0
DWIDTH 8 0
BBX 7 9 1 0
BITMAP
14
42
42
44
C4
84
84
88
78
ENDCHAR
STARTCHAR Utilde
ENCODING 221
SWIDTH 693 0
DWIDTH 8 0
BBX 7 10 1 0
BITMAP
3C
00
42
42
44
C4
84
84
88
78
ENDCHAR
STARTCHAR Umacron
ENCODING 222
SWIDTH 693 0
DWIDTH 8 0
BBX 7 10 1 0
BITMAP
38
00
42
42
44
C4
84
84
88
78
ENDCHAR
STARTCHAR germandbls
ENCODING 223
SWIDTH 595 0
DWIDTH 7 0
BBX 6 11 1 -2
BITMAP
38
24
28
70
50
48
44
44
D8
80
80
ENDCHAR
STARTCHAR amacron
ENCODING 224
SWIDTH 608 0
DWIDTH 7 0
BBX 6 8 1 0
BITMAP
38
00
3C
64
4C
98
B8
E8
ENDCHAR
STARTCHAR aacute
ENCODING 225
SWIDTH 608 0
DWIDTH 7 0
BBX 6 7 1 0
BITMAP
08
3C
64
4C
98
B8
E8
ENDCHAR
STARTCHAR acircumflex
ENCODING 226
SWIDTH 608 0
DWIDTH 7 0
BBX 6 7 1 0
BITMAP
28
3C
64
4C
98
B8
E8
ENDCHAR
STARTCHAR atilde
ENCODING 227
SWIDTH 608 0
DWIDTH 7 0
BBX 6 7 1 0
BITMAP
3C
3C
64
4C
98
B8
E8
ENDCHAR
STARTCHAR adieresis
ENCODING 228
SWIDTH 608 0
DWIDTH 7 0
BBX 6 7 1 0
BITMAP
14
3C
64
4C
98
B8
E8
ENDCHAR
STARTCHAR aring
ENCODING 229
SWIDTH 608 0
DWIDTH 7 0
BBX 6 8 1 0
BITMAP
18
18
3C
64
4C
98
B8
E8
ENDCHAR
STARTCHAR ae
ENCODING 230
SWIDTH 893 0
DWIDTH 10 0
BBX 9 6 1 0
BITMAP
3F80
6480
C900
9E00
B880
E700
ENDCHAR
STARTCHAR iogonek
ENCODING 231
SWIDTH 289 0
DWIDTH 3 0
BBX 3 10 1 -2
BITMAP
20
00
60
40
40
40
80
80
00
C0
ENDCHAR
STARTCHAR ccaron
ENCODING 232
SWIDTH 503 0
DWIDTH 6 0
BBX 5 8 1 0
BITMAP
70
00
38
40
80
80
90
70
ENDCHAR
STARTCHAR eacute
ENCODING 233
SWIDTH 529 0
DWIDTH 6 0
BBX 6 7 1 0
BITMAP
0C
38
48
90
E0
88
70
ENDCHAR
STARTCHAR eogonek
ENCODING 234
SWIDTH 529 0
DWIDTH 6 0
BBX 5 8 1 -2
BITMAP
38
48
90
E0
88
70
00
30
ENDCHAR
STARTCHAR edieresis
ENCODING 235
SWIDTH 529 0
DWIDTH 6 0
BBX 5 7 1 0
BITMAP
28
38
48
90
E0
88
70
ENDCHAR
STARTCHAR edotaccent
ENCODING 236
SWIDTH 529 0
DWIDTH 6 0
BBX 5 8 1 0
BITMAP
10
00
38
48
90
E0
88
70
ENDCHAR
STARTCHAR iacute
ENCODING 237
SWIDTH 289 0
DWIDTH 3 0
BBX 4 7 1 0
BITMAP
70
40
40
40
80
80
80
ENDCHAR
STARTCHAR icircumflex
ENCODING 238
SWIDTH 289 0
DWIDTH 3 0
BBX 3 7 1 0
BITMAP
E0
40
40
40
80
80
80
ENDCHAR
STARTCHAR imacron
ENCODING 239
SWIDTH 289 0
DWIDTH 3 0
BBX 3 8 1 0
BITMAP
E0
00
40
40
40
80
80
80
ENDCHAR
STARTCHAR dcroat
ENCODING 240
SWIDTH 608 0
DWIDTH 7 0
BBX 6 8 1 0
BITMAP
04
1C
3C
48
48
98
B8
F8
ENDCHAR
STARTCHAR ncommaaccent
ENCODING 241
SWIDTH 620 0
DWIDTH 7 0
BBX 6 11 1 -5
BITMAP
5C
74
64
44
88
88
00
10
30
10
20
ENDCHAR
STARTCHAR omacron
ENCODING 242
SWIDTH 566 0
DWIDTH 6 0
BBX 5 8 1 0
BITMAP
38
00
38
48
88
88
98
70
ENDCHAR
STARTCHAR kcommaaccent
ENCODING 243
SWIDTH 572 0
DWIDTH 6 0
BBX 6 13 1 -5
BITMAP
20
40
4C
50
60
70
90
88
00
20
60
20
40
ENDCHAR
STARTCHAR ocircumflex
ENCODING 244
SWIDTH 566 0
DWIDTH 6 0
BBX 5 7 1 0
BITMAP
28
38
48
88
88
98
70
ENDCHAR
STARTCHAR otilde
ENCODING 245
SWIDTH 566 0
DWIDTH 6 0
BBX 6 7 1 0
BITMAP
3C
38
48
88
88
98
70
ENDCHAR
STARTCHAR odieresis
ENCODING 246
SWIDTH 566 0
DWIDTH 6 0
BBX 5 7 1 0
BITMAP
28
38
48
88
88
98
70
ENDCHAR
STARTCHAR divide
ENCODING 247
SWIDTH 633 0
DWIDTH 7 0
BBX 7 6 1 0
BITMAP
18
00
00
FE
00
30
ENDCHAR
STARTCHAR oslash
ENCODING 248
SWIDTH 566 0
DWIDTH 6 0
BBX 6 6 1 0
BITMAP
3C
48
98
A8
D8
F0
ENDCHAR
STARTCHAR uogonek
ENCODING 249
SWIDTH 620 0
DWIDTH 7 0
BBX 6 8 1 -2
BITMAP
44
44
88
98
B8
E8
00
30
ENDCHAR
STARTCHAR uacute
ENCODING 250
SWIDTH 620 0
DWIDTH 7 0
BBX 6 7 1 0
BITMAP
1C
44
44
88
98
B8
E8
ENDCHAR
STARTCHAR ucircumflex
ENCODING 251
SWIDTH 620 0
DWIDTH 7 0
BBX 6 7 1 0
BITMAP
38
44
44
88
98
B8
E8
ENDCHAR
STARTCHAR udieresis
ENCODING 252
SWIDTH 620 0
DWIDTH 7 0
BBX 6 7 1 0
BITMAP
28
44
44
88
98
B8
E8
ENDCHAR
STARTCHAR utilde
ENCODING 253
SWIDTH 620 0
DWIDTH 7 0
BBX 6 8 1 0
BITMAP
78
00
44
44
88
98
B8
E8
ENDCHAR
STARTCHAR umacron
ENCODING 254
SWIDTH 620 0
DWIDTH 7 0
BBX 6 8 1 0
BITMAP
38
00
44
44
88
98
B8
E8
ENDCHAR
STARTCHAR dotaccent
ENCODING 255
SWIDTH 566 0
DWIDTH 6 0
BBX 1 1 4 7
BITMAP
80
ENDCHAR
ENDFONT
