/* XPM */
static char * break_xpm[] = {
"21 22 4 1",
" 	c None",
".	c #000000",
"X	c #FFFFFF",
"o	c #FF0000",
"      .........      ",
"     .XXXXXXXXX.     ",
"    .XXoooooooXX.    ",
"   .XXoooooooooXX.   ",
"  .XXoooooooooooXX.  ",
" .XXoooooooooooooXX. ",
".XXoooooooooooooooXX.",
".XoooooooooooooooooX.",
".XooXXoXXXoXXooXXooX.",
".XoXooXoXoXooXoXoXoX.",
".XoXooooXoXooXoXoXoX.",
".XooXXooXoXooXoXXooX.",
".XooooXoXoXooXoXoooX.",
".XoXooXoXoXooXoXoooX.",
".XooXXooXooXXooXoooX.",
".XXoooooooooooooooXX.",
" .XXoooooooooooooXX. ",
"  .XXoooooooooooXX.  ",
"   .XXoooooooooXX.   ",
"    .XXoooooooXX.    ",
"     .XXXXXXXXX.     ",
"      .........      "};
