/* XPM */
static char * continue_xpm[] = {
"20 22 2 1",
" 	c None",
".	c #000000",
"                    ",
"                    ",
" .        .         ",
" ..       ..        ",
" ...      ...       ",
" ....     ....      ",
" .....    .....     ",
" ......   ......    ",
" .......  .......   ",
" ........ ........  ",
" .................. ",
" .................. ",
" ........ ........  ",
" .......  .......   ",
" ......   ......    ",
" .....    .....     ",
" ....     ....      ",
" ...      ...       ",
" ..       ..        ",
" .        .         ",
"                    ",
"                    "};
