/* XPM */
static char *edit[] = {
/* width height num_colors chars_per_pixel */
"    20    22        8            1",
/* colors */
". c #ffffff",
"# c None",
"a c #9999ff",
"b c #999999",
"c c #6666cc",
"d c #663399",
"e c #333333",
"f c #000000",
/* pixels */
"eeeeeeeeeeeee#######",
"e..........e.e######",
"e..........e..eeffff",
"e..........e.effadf#",
"e..........effacdf##",
"e.........ffaccdff##",
"e........facccdfbf##",
"e.......faccddfbbf##",
"e......faccddf..bf##",
"e.....faccddf...bf##",
"e....faccddf....bf##",
"e...eaccddf.....bf##",
"e...facddf......bf##",
"e..eacddf.......bf##",
"e..faeff........bf##",
"e.eaeb..........bf##",
"e.feb...........bf##",
"e.fb............bf##",
"e.f.............bf##",
"e...............bf##",
"eebbbbbbbbbbbbbbef##",
"##ffffffffffffffff##"
};

