/* XPM */
static char * run_xpm[] = {
"20 22 3 1",
" 	c None",
".	c #000000",
"X	c #C00080",
"                    ",
"                    ",
"        ....        ",
"       .XXXX.       ",
"       .XXXX.       ",
"       .XXXX.       ",
"       .XXXX.       ",
"        .XX.        ",
"        .XX.        ",
"        .XX.        ",
"        .XX.        ",
"         ..         ",
"         ..         ",
"         ..         ",
"         ..         ",
"                    ",
"         ..         ",
"        .XX.        ",
"        .XX.        ",
"         ..         ",
"                    ",
"                    "};
