/* XPM */
static char * brush_6_xpm[] = {
"8 8 2 1",
" 	c None",
".	c #000000",
"       .",
"      . ",
"     .  ",
"    .   ",
"   .    ",
"  .     ",
" .      ",
".       "};
