/* XPM */
static char * brush_0_xpm[] = {
"7 7 2 1",
" 	c None",
".	c #000000",
"  ...  ",
" ..... ",
".......",
".......",
".......",
" ..... ",
"  ...  "};
