/* XPM */
static char * brush_10_xpm[] = {
"5 5 2 1",
" 	c None",
".	c #000000",
".    ",
" .   ",
"  .  ",
"   . ",
"    ."};
