/* XPM */
static char * rect1_xpm[] = {
"35 13 3 1",
" 	c None",
".	c #000000",
"+	c #989090",
"...................................",
".+++++++++++++++++++++++++++++++++.",
".+++++++++++++++++++++++++++++++++.",
".+++++++++++++++++++++++++++++++++.",
".+++++++++++++++++++++++++++++++++.",
".+++++++++++++++++++++++++++++++++.",
".+++++++++++++++++++++++++++++++++.",
".+++++++++++++++++++++++++++++++++.",
".+++++++++++++++++++++++++++++++++.",
".+++++++++++++++++++++++++++++++++.",
".+++++++++++++++++++++++++++++++++.",
".+++++++++++++++++++++++++++++++++.",
"..................................."};
