/* XPM */
static char * rect0_xpm[] = {
"35 13 2 1",
" 	c None",
".	c #000000",
"...................................",
".                                 .",
".                                 .",
".                                 .",
".                                 .",
".                                 .",
".                                 .",
".                                 .",
".                                 .",
".                                 .",
".                                 .",
".                                 .",
"..................................."};
