/* XPM */
static char * sel1_xpm[] = {
"35 23 10 1",
" 	c None",
".	c #000000",
"+	c #FF0000",
"@	c #FFFFFF",
"#	c #008000",
"$	c #800080",
"%	c #FF00FF",
"&	c #00FF00",
"*	c #808000",
"=	c #FFFF00",
".........................          ",
".+++++++++++++++++++++++.          ",
".+++++++++++++++.+..+..+... .. .. .",
".+++++++..++++++.@@@@@@@@@@@@@@@@@.",
".+++++++...++++++@@@@@@@@@@@@@@@@@ ",
".++++++..#.+++++.@@@@........@@@@@.",
".++++++..##.++++.@@@.$$$$$.%%.@@@@ ",
".+++++.&.##.+++++@@.$$$$$.%%%%.@@@.",
".+++++.&.###.+++.@@.$$$$$.%%%%.@@@.",
".++++.&&.###.+++.@@.$$$$$.%%%%.@@@ ",
".++++.&&.####.+++@@.$$$$$.%%%%.@@@.",
".++++&&.#####.++.@@.$$$$$.%%%%.@@@.",
".+++.&&.#####....@@..$$$$$.%%.@@@@ ",
".++.&&&.####.****@@@.........@@@@@.",
".++.&&&.###.****.@@@@@@@@@@@@@@@@@.",
".+.&&&&.##.......@@@@@@@@@@@@@@@@@ ",
".++.&&.###.=====.@@@@@@@@@@@@@@@@@.",
".+++.&.###.======..=...+... .. .. .",
".++++..#...=======.=.+++.          ",
".+++++...+.=======..++++.          ",
".+++++++++.........+++++.          ",
".+++++++++++++++++++++++.          ",
".........................          "};
