#define drag_width 32
#define drag_height 32
#define drag_x_hot 13
#define drag_y_hot 13
static unsigned char drag_bits[] = {
   0x00, 0x00, 0x00, 0x00, 0x00, 0x20, 0x00, 0x00, 0x00, 0x50, 0x00, 0x00,
   0x00, 0x88, 0x00, 0x00, 0x00, 0x04, 0x01, 0x00, 0x00, 0x8e, 0x03, 0x00,
   0x00, 0x88, 0x00, 0x00, 0x00, 0x88, 0x00, 0x00, 0x00, 0x88, 0x00, 0x00,
   0x20, 0x88, 0x20, 0x00, 0x30, 0x88, 0x60, 0x00, 0xe8, 0x8f, 0xbf, 0x00,
   0x04, 0x00, 0x00, 0x01, 0x02, 0x00, 0x00, 0x02, 0x04, 0x00, 0x00, 0x01,
   0xe8, 0x8f, 0xbf, 0x00, 0x30, 0x88, 0x60, 0x00, 0x20, 0x88, 0x20, 0x00,
   0x00, 0x88, 0x00, 0x00, 0x00, 0x88, 0x00, 0x00, 0x00, 0x88, 0x00, 0x00,
   0x00, 0x8e, 0x03, 0x00, 0x00, 0x04, 0x01, 0x00, 0x00, 0x88, 0x00, 0x00,
   0x00, 0x50, 0x00, 0x00, 0x00, 0x20, 0x00, 0x00, 0x00, 0x00, 0x00, 0x00,
   0x00, 0x00, 0x00, 0x00, 0x00, 0x00, 0x00, 0x00, 0x00, 0x00, 0x00, 0x00,
   0x00, 0x00, 0x00, 0x00, 0x00, 0x00, 0x00, 0x00};
