#define gray_width 32
#define gray_height 2
static unsigned char gray_bits[] = {
   0x55, 0x55, 0x55, 0x55, 0xaa, 0xaa, 0xaa, 0xaa};
