#define hand_width 32
#define hand_height 32
#define hand_x_hot 6
#define hand_y_hot 1
static unsigned char hand_bits[] = {
   0x00, 0x00, 0x00, 0x00, 0xc0, 0x00, 0x00, 0x00, 0x20, 0x01, 0x00, 0x00,
   0x20, 0x01, 0x00, 0x00, 0x20, 0x01, 0x00, 0x00, 0x20, 0x01, 0x00, 0x00,
   0x20, 0x07, 0x00, 0x00, 0x20, 0x39, 0x00, 0x00, 0x20, 0xc9, 0x00, 0x00,
   0x20, 0x49, 0x01, 0x00, 0x2e, 0x49, 0x02, 0x00, 0x32, 0x40, 0x02, 0x00,
   0x22, 0x00, 0x02, 0x00, 0x24, 0x00, 0x02, 0x00, 0x08, 0x00, 0x02, 0x00,
   0x08, 0x00, 0x02, 0x00, 0x10, 0x00, 0x02, 0x00, 0x10, 0x00, 0x01, 0x00,
   0x20, 0x00, 0x01, 0x00, 0x20, 0x00, 0x01, 0x00, 0x40, 0x80, 0x00, 0x00,
   0x40, 0x80, 0x00, 0x00, 0xc0, 0xff, 0x00, 0x00, 0x00, 0x00, 0x00, 0x00,
   0x00, 0x00, 0x00, 0x00, 0x00, 0x00, 0x00, 0x00, 0x00, 0x00, 0x00, 0x00,
   0x00, 0x00, 0x00, 0x00, 0x00, 0x00, 0x00, 0x00, 0x00, 0x00, 0x00, 0x00,
   0x00, 0x00, 0x00, 0x00, 0x00, 0x00, 0x00, 0x00};
