#define ne_width 16
#define ne_height 16
#define ne_x_hot 12
#define ne_y_hot 3
static unsigned char ne_bits[] = {
   0x00, 0x00, 0xfe, 0x7f, 0x00, 0x40, 0x00, 0x40, 0x00, 0x40, 0xf8, 0x47,
   0x00, 0x46, 0x00, 0x45, 0x80, 0x44, 0x40, 0x44, 0x20, 0x44, 0x10, 0x44,
   0x08, 0x44, 0x00, 0x40, 0x00, 0x40, 0x00, 0x00};
