#define nw_mask_width 16
#define nw_mask_height 16
#define nw_mask_x_hot 3
#define nw_mask_y_hot 3
static unsigned char nw_mask_bits[] = {
   0xff, 0xff, 0xff, 0xff, 0xff, 0xff, 0x07, 0x00, 0xf7, 0x3f, 0xf7, 0x3f,
   0xf7, 0x3f, 0xf7, 0x01, 0xf7, 0x03, 0x77, 0x07, 0x77, 0x0e, 0x77, 0x1c,
   0x77, 0x38, 0x77, 0x30, 0x07, 0x00, 0x07, 0x00};
