#define se_mask_width 16
#define se_mask_height 16
#define se_mask_x_hot 12
#define se_mask_y_hot 12
static unsigned char se_mask_bits[] = {
   0x00, 0xe0, 0x00, 0xe0, 0x0c, 0xee, 0x1c, 0xee, 0x38, 0xee, 0x70, 0xee,
   0xe0, 0xee, 0xc0, 0xef, 0x80, 0xef, 0xfc, 0xef, 0xfc, 0xef, 0xfc, 0xef,
   0x00, 0xe0, 0xff, 0xff, 0xff, 0xff, 0xff, 0xff};
