#define sw_width 16
#define sw_height 16
#define sw_x_hot 3
#define sw_y_hot 12
static unsigned char sw_bits[] = {
   0x00, 0x00, 0x02, 0x00, 0x02, 0x00, 0x22, 0x10, 0x22, 0x08, 0x22, 0x04,
   0x22, 0x02, 0x22, 0x01, 0xa2, 0x00, 0x62, 0x00, 0xe2, 0x1f, 0x02, 0x00,
   0x02, 0x00, 0x02, 0x00, 0xfe, 0x7f, 0x00, 0x00};
