#define sw_mask_width 16
#define sw_mask_height 16
#define sw_mask_x_hot 3
#define sw_mask_y_hot 12
static unsigned char sw_mask_bits[] = {
   0x07, 0x00, 0x07, 0x00, 0x77, 0x30, 0x77, 0x38, 0x77, 0x1c, 0x77, 0x0e,
   0x77, 0x07, 0xf7, 0x03, 0xf7, 0x01, 0xf7, 0x3f, 0xf7, 0x3f, 0xf7, 0x3f,
   0x07, 0x00, 0xff, 0xff, 0xff, 0xff, 0xff, 0xff};
