/* XPM */
static char * address_book_xpm[] = {
"24 24 283 2",
"  	c None",
". 	c #BCBCBC",
"+ 	c #A1A1A1",
"@ 	c #8A8A8A",
"# 	c #777777",
"$ 	c #666666",
"% 	c #575757",
"& 	c #383838",
"* 	c #393939",
"= 	c #2B2B2B",
"- 	c #2E2E2E",
"; 	c #7C7C7C",
"> 	c #737373",
", 	c #BDBDBD",
"' 	c #CBCBCB",
") 	c #CCCCCC",
"! 	c #D5D5D5",
"~ 	c #DCDCDC",
"{ 	c #E3E3E3",
"] 	c #EDEDED",
"^ 	c #EBEBEB",
"/ 	c #F2F2F2",
"( 	c #F9F9F9",
"_ 	c #313131",
": 	c #3E3E3E",
"< 	c #F3F3F3",
"[ 	c #F6F6F6",
"} 	c #F7F7F7",
"| 	c #FBFBFB",
"1 	c #FFFFFF",
"2 	c #D8D8D8",
"3 	c #AFAFAF",
"4 	c #B5B5B5",
"5 	c #E0E0E0",
"6 	c #1C1C1C",
"7 	c #D2D2D2",
"8 	c #EFEFEF",
"9 	c #FEFEFE",
"0 	c #F4F4F4",
"a 	c #E1E1E1",
"b 	c #D7D7D7",
"c 	c #D9D9D9",
"d 	c #D1D1D1",
"e 	c #1D1D1D",
"f 	c #939393",
"g 	c #363636",
"h 	c #2C2C2C",
"i 	c #191919",
"j 	c #121212",
"k 	c #151515",
"l 	c #141414",
"m 	c #282828",
"n 	c #1A1A1A",
"o 	c #DEDEDE",
"p 	c #D6D6D6",
"q 	c #E8E8E8",
"r 	c #CACACA",
"s 	c #1E1E1E",
"t 	c #2D2D2D",
"u 	c #BBBBBB",
"v 	c #D0D0D0",
"w 	c #CFCFCF",
"x 	c #B6B6B6",
"y 	c #262626",
"z 	c #C2C2C2",
"A 	c #C7C7C7",
"B 	c #A8A8A8",
"C 	c #E4E4E4",
"D 	c #BEBEBE",
"E 	c #252525",
"F 	c #131313",
"G 	c #979797",
"H 	c #919191",
"I 	c #929292",
"J 	c #ADADAD",
"K 	c #858585",
"L 	c #FCFCFC",
"M 	c #3A3A3A",
"N 	c #9B9B9B",
"O 	c #969696",
"P 	c #989898",
"Q 	c #868686",
"R 	c #4F4F4F",
"S 	c #070707",
"T 	c #303030",
"U 	c #AAAAAA",
"V 	c #9A9A9A",
"W 	c #9C9C9C",
"X 	c #B0B0B0",
"Y 	c #747474",
"Z 	c #4C4C4C",
"` 	c #4E4E4E",
" .	c #414141",
"..	c #222222",
"+.	c #2F2F2F",
"@.	c #AEAEAE",
"#.	c #959595",
"$.	c #9D9D9D",
"%.	c #A2A2A2",
"&.	c #B9B9B9",
"*.	c #2F3132",
"=.	c #A8B2B7",
"-.	c #9FA9AE",
";.	c #555859",
">.	c #4B4B4B",
",.	c #373737",
"'.	c #424242",
").	c #272727",
"!.	c #292929",
"~.	c #323232",
"{.	c #4A4A4A",
"].	c #5D5D5D",
"^.	c #515353",
"/.	c #A9B4B9",
"(.	c #BFC5C7",
"_.	c #494C4D",
":.	c #1B1C1C",
"<.	c #404040",
"[.	c #3D3D3D",
"}.	c #6D6D6D",
"|.	c #232323",
"1.	c #161616",
"2.	c #000000",
"3.	c #383C3E",
"4.	c #CAD0D4",
"5.	c #565758",
"6.	c #1B0F12",
"7.	c #30141A",
"8.	c #333333",
"9.	c #3F3F3F",
"0.	c #A9A9A9",
"a.	c #E6E6E6",
"b.	c #C6C6C6",
"c.	c #ACACAC",
"d.	c #7A7A7A",
"e.	c #323435",
"f.	c #C6CACD",
"g.	c #373A3B",
"h.	c #311E22",
"i.	c #4D262E",
"j.	c #080808",
"k.	c #DBDBDB",
"l.	c #DADADA",
"m.	c #A0A0A0",
"n.	c #7D7D7D",
"o.	c #3C3C3C",
"p.	c #A6A7A7",
"q.	c #282929",
"r.	c #372125",
"s.	c #502B33",
"t.	c #342025",
"u.	c #808080",
"v.	c #343434",
"w.	c #202020",
"x.	c #0C0C0C",
"y.	c #7E7E7E",
"z.	c #392227",
"A.	c #4E2A32",
"B.	c #301219",
"C.	c #343031",
"D.	c #545454",
"E.	c #D4D4D4",
"F.	c #F1F1F1",
"G.	c #ABABAB",
"H.	c #848484",
"I.	c #583C42",
"J.	c #45252C",
"K.	c #38161D",
"L.	c #1E0C10",
"M.	c #888888",
"N.	c #CECECE",
"O.	c #707070",
"P.	c #525252",
"Q.	c #5C5C5C",
"R.	c #8E8B8B",
"S.	c #D0CDCD",
"T.	c #DDDDDD",
"U.	c #727272",
"V.	c #595959",
"W.	c #C9C9C9",
"X.	c #474747",
"Y.	c #6A5156",
"Z.	c #47222B",
"`.	c #33141B",
" +	c #270F14",
".+	c #272525",
"++	c #8A8385",
"@+	c #170A0E",
"#+	c #100508",
"$+	c #241E20",
"%+	c #544C4E",
"&+	c #462E31",
"*+	c #92787C",
"=+	c #9E898D",
"-+	c #9D9091",
";+	c #9A9293",
">+	c #6F5056",
",+	c #33141A",
"'+	c #38161E",
")+	c #36161C",
"!+	c #231115",
"~+	c #5A5A5A",
"{+	c #342C2E",
"]+	c #2F1019",
"^+	c #3D1C24",
"/+	c #65343C",
"(+	c #5A1620",
"_+	c #2E0A0F",
":+	c #400F16",
"<+	c #7B232F",
"[+	c #7D2B36",
"}+	c #7F343E",
"|+	c #7F3A43",
"1+	c #311A1E",
"2+	c #684E53",
"3+	c #421A23",
"4+	c #31141A",
"5+	c #2A1016",
"6+	c #2F1217",
"7+	c #1E1718",
"8+	c #B7B7B7",
"9+	c #403538",
"0+	c #A0868D",
"a+	c #A7737D",
"b+	c #99515D",
"c+	c #893844",
"d+	c #7A1E2B",
"e+	c #791C29",
"f+	c #340E14",
"g+	c #7C5E65",
"h+	c #34151B",
"i+	c #32141A",
"j+	c #250E13",
"k+	c #220C10",
"l+	c #1F1F1F",
"m+	c #373535",
"n+	c #85797C",
"o+	c #897378",
"p+	c #B58D96",
"q+	c #BF8F9A",
"r+	c #B17983",
"s+	c #8B3B47",
"t+	c #3E161D",
"u+	c #66444C",
"v+	c #35151C",
"w+	c #2D1217",
"x+	c #210C11",
"y+	c #120609",
"z+	c #1F1617",
"A+	c #515151",
"B+	c #484848",
"C+	c #2F2E2E",
"D+	c #292626",
"E+	c #8B7278",
"F+	c #AA8D95",
"G+	c #995E68",
"H+	c #832E3B",
"I+	c #531F28",
"J+	c #673C45",
"K+	c #3F1921",
"L+	c #240E12",
"M+	c #1A1012",
"N+	c #514B4C",
"O+	c #B4B4B4",
"P+	c #828282",
"Q+	c #3B3B3B",
"R+	c #302E2F",
"S+	c #221B1D",
"T+	c #201214",
"U+	c #6B1824",
"V+	c #66232E",
"W+	c #472229",
"X+	c #1B0A0E",
"Y+	c #282223",
"Z+	c #6B6868",
"`+	c #CDCDCD",
" @	c #A4A4A4",
".@	c #676767",
"+@	c #262424",
"@@	c #21191B",
"#@	c #231D1E",
"$@	c #8A8787",
"%@	c #A7A7A7",
"            . + @ # $ % & * = - - - ;           ",
"          > , ' ) ! ~ { ] ] ^ / ( ^ _           ",
"          : < [ } | 1 1 1 2 3 4 ] 5 6           ",
"          6 ^ 7 7 / 8 9 0 a b c 8 d e           ",
"f g h i i j k l j m n ) 0 o p ' q r s           ",
"t u v w w w w w w ! x y z A B B C D E           ",
"  F + G H H I I I f J K E ] | L L D E           ",
"    M B N O G G G P P J Q R } 1 1 3 S y y y i * ",
"      T U V N N N W W W X Q m 1 1 Y Z ` `  .s ..",
"        +.@.H f #.$.$.+ %.&.; *.=.-.;.>.,.'.E   ",
"          i ).!.= ~.~.{.R ].^./.(._.:.<.[.m     ",
"        !.}.* |.1.2.2.2.2.2.3.4.5.6.7.8.).      ",
"      9.0.a.b.u c.I #.d.9.i e.f.g.h.i.j.        ",
"    ,.z 1 1 1 k.l.u m.m.+ n.o.p.q.r.s.t.u.      ",
"  v.' 1 1 1 1 1 1 1 k.. @ w.x.y.R z.A.B.C.      ",
"  +.D.U E.F.( L 1 1 1 p }.u.G.D.H.I.J.K.L.M.    ",
"    N.O.P.Q.R.S.T.0 a.U.V.z W.N.X.Y.Z.`. +.+    ",
"          ++@+#+#+$+%+&+*+=+-+;+: >+,+'+)+!+~+  ",
"          {+]+^+/+(+_+:+<+[+}+|+1+2+3+4+5+6+7+8+",
"          9+0+a+b+c+d+e+e+e+e+e+f+g+K.h+i+j+k+l+",
"          1.m+n+o+p+q+r+s+e+e+e+t+u+v+w+x+y+z+&.",
"            f A+B+C+D+E+F+G+H+e+I+J+K+L+M+N+&.  ",
"                2 O+P+Q+R+S+T+U+V+W+X+Y+Z+      ",
"                        `+ @.@+@@@#@$@%@        "};
