/* XPM */
static char * addr_two_xpm[] = {
"16 13 29 1",
" 	c None",
".	c #161616",
"+	c #4D4D4D",
"@	c #F5F5F5",
"#	c #F4F4F4",
"$	c #373737",
"%	c #EAEAEA",
"&	c #F3F3F3",
"*	c #C3C3C3",
"=	c #F2F2F2",
"-	c #EBEBEB",
";	c #ADADAD",
">	c #424242",
",	c #EFEFEF",
"'	c #454545",
")	c #4C4C4C",
"!	c #BEBEBE",
"~	c #A3A3A3",
"{	c #D7D7D7",
"]	c #F1F1F1",
"^	c #BCBCBC",
"/	c #E9E9E9",
"(	c #909090",
"_	c #C1C1C1",
":	c #DBDBDB",
"<	c #CECECE",
"[	c #AAAAAA",
"}	c #D4D4D4",
"|	c #2D2D2D",
" ...........    ",
".+@@@##@@##$.   ",
".#+#........... ",
".#%.+@@@##@@##$.",
".@#.#+##@&#&#+*.",
".=@.#%+@##@#+-;.",
".@&.@##+@#@>,--.",
".#+.=@,+'#)+#=!.",
".+~.@&+#@+#=+{~.",
" ...#+&#@]&=^$/.",
"   .+~~(_^:<[}|.",
"    ........... ",
"                "};
