/* XPM */
static char * address_search_xpm[] = {
"16 16 51 1",
" 	c None",
".	c #B4B4A0",
"+	c #46463E",
"@	c #090908",
"#	c #4A4A42",
"$	c #C1C1AD",
"%	c #B0B09D",
"&	c #33332D",
"*	c #9D9D8D",
"=	c #CFCFB9",
"-	c #C4C4AF",
";	c #8D8D7F",
">	c #34342F",
",	c #C3C3AF",
"'	c #45453E",
")	c #9C9C8C",
"!	c #E2E2D0",
"~	c #EDEDE5",
"{	c #C0C0AC",
"]	c #B2B29F",
"^	c #828274",
"/	c #4B4B43",
"(	c #080807",
"_	c #D5D5BF",
":	c #FBFBFA",
"<	c #C3C3AE",
"[	c #B5B5A2",
"}	c #A6A695",
"|	c #959586",
"1	c #080808",
"2	c #CACAB5",
"3	c #DDDDD0",
"4	c #B7B7A4",
"5	c #AAAA98",
"6	c #9B9B8B",
"7	c #8C8C7D",
"8	c #46463F",
"9	c #929283",
"0	c #BABAA7",
"a	c #ADAD9B",
"b	c #9F9F8E",
"c	c #909081",
"d	c #727266",
"e	c #4B4B44",
"f	c #33332E",
"g	c #878779",
"h	c #A0A090",
"i	c #737367",
"j	c #000000",
"k	c #BEBEAA",
"l	c #404040",
"                ",
"                ",
"   .+@@#$       ",
"  %&*=-;>,      ",
"  ')!~{]^/      ",
"  (_:<[}|@      ",
"  1234567@      ",
"  890abcde      ",
"  0fgh9ijj      ",
"   k#@@ljjj     ",
"         jjj    ",
"          jjj   ",
"           jjj  ",
"            jj  ",
"                ",
"                "};
