/* XPM */
static char * anonymous_xpm[] = {
"96 96 10 1",
" 	c None",
".	c #565656",
"+	c #333333",
"@	c #272727",
"#	c #1B1B1B",
"$	c #666666",
"%	c #383838",
"&	c #434343",
"*	c #747474",
"=	c #898989",
"                                                                                                ",
"                                                                                                ",
"                                                                                                ",
"                                                                                                ",
"                                                                                                ",
"                                             .+@  .#.                                           ",
"                                          @+++++++++++++@$                                      ",
"                                       @++++++++++++++++++++@                                   ",
"                                     %+++++++++++++++++++++++@$                                 ",
"                                   .@++#+++++++++++++++++++++++@                                ",
"                                  &+++++++++++++++++++++++++++++@&                              ",
"                                 %+++++++++++++++++++++++++++++++#*                             ",
"                                 +++++++++++++++++++++++++++++++++#$                            ",
"                                %++++++++++++++++++++++++++++++++++#%                           ",
"                                +++++++++++++++++++++++++++++++++++++.                          ",
"                               @+++++++++++++++++++++++++++++++++++++#                          ",
"                              .+++++++++++++++++++++++++++++++++++++++#                         ",
"                              @++++++++++++++++++++++++++++++++++++++++@                        ",
"                              ++++++++++++++++++++++++++++++++++++++++++                        ",
"                              ++++++++++++++++++++++++++++++++++++++++++                        ",
"                             %++++++++++++++++++++++++++++++++++++++++++@                       ",
"                             @+++++++++++++++++++++++++++++++++++++++++++                       ",
"                             ++++++++++++++++++++++++++++++++++++++++++++                       ",
"                             ++++++++++++++++++++++++++++++++++++++++++++                       ",
"                             ++++++++++++++++++++++++++++++++++++++++++++                       ",
"                             ++++++++++++++++++++++++++++++++++++++++++++                       ",
"                             ++++++++++++++++++++++++++++++++++++++++++++                       ",
"                             ++++++++++++++++++++++++++++++++++++++++++++                       ",
"                             ++++++++++++++++++++++++++++++++++++++++++++                       ",
"                             #+++++++++++++++++++++++++++++++++++++++++++                       ",
"                             +++++++++++++++++++++++++++++++++++++++++++%                       ",
"                            .+++++++++++++++++++++++++++++++++++++++++++$                       ",
"                            @+++++++++++++++++++++++++++++++++++++++++++                        ",
"                            +++++++++++++++++++++++++++++++++++++++++++#                        ",
"                            #++++++++++++++++++++++++++++++++++++++++++#                        ",
"                            ++++++++++++++++++++++++++++++++++++++++++++                        ",
"                            ++++++++++++++++++++++++++++++++++++++++++++*                       ",
"                            #+++++++++++++++++++++++++++++++++++++++++++.                       ",
"                            @+++++++++++++++++++++++++++++++++++++++++++*                       ",
"                            &+++++++++++++++++++++++++++++++++++++++++++                        ",
"                             +++++++++++++++++++++++++++++++++++++++++++                        ",
"                             @+++++++++++++++++++++++++++++++++++++++++@                        ",
"                              @++++++++++++++++++++++++++++++++++++++++                         ",
"                               +++++++++++++++++++++++++++++++++++++++#                         ",
"                               @++++++++++++++++++++++++++++++++++++++                          ",
"                                +++++++++++++++++++++++++++++++++++++#                          ",
"                                +++++++++++++++++++++++++++++++++++@&                           ",
"                                ++++++++++++++++++++++++++++++++++@                             ",
"                               $+++++++++++++++++++++++++++++++++@                              ",
"                               $++++++++++++++++++++++++++++++++%                               ",
"                                ++++++++++++++++++++++++++++++++                                ",
"                                ++++++++++++++++++++++++++++++++                                ",
"                                @++++++++++++++++++++++++++++++@                                ",
"                                 ++++++++++++++++++++++++++++++                                 ",
"                                 ++++++++++++++++++++++++++++++                                 ",
"                                 ++++++++++++++++++++++++++++++                                 ",
"                                 @+++++++++++++++++++++++++++++                                 ",
"                                 #+++++++++++++++++++++++++++++                                 ",
"                                &++++++++++++++++++++++++++++++.                                ",
"                               &++++++++++++++++++++++++++++++++&                               ",
"                              %++++++++++++++++++++++++++++++++++%                              ",
"                              #++++++++++++++++++++++++++++++++++#                              ",
"                              ++++++++++++++++++++++++++++++++++++                              ",
"                             @++++++++++++++++++++++++++++++++++++@                             ",
"                            %++++++++++++++++++++++++++++++++++++++&                            ",
"                          &++++++++++++++++++++++++++++++++++++++++++&                          ",
"                        ##++++++++++++++++++++++++++++++++++++++++++++##                        ",
"                      %++++++++++++++++++++++++++++++++++++++++++++++++++%                      ",
"                    &++++++++++++++++++++++++++++++++++++++++++++++++++++++&                    ",
"                 %++++++++++++++++++++++++++++++++++++++++++++++++++++++++++++%                 ",
"               .++++++++++++++++++++++++++++++++++++++++++++++++++++++++++++++++.               ",
"             .++++++++++++++++++++++++++++++++++++++++++++++++++++++++++++++++++++.             ",
"            @++++++++++++++++++++++++++++++++++++++++++++++++++++++++++++++++++++++%            ",
"         .#++++++++++++++++++++++++++++++++++++++++++++++++++++++++++++++++++++++++++#.         ",
"       %++++++++++++++++++++++++++++++++++++++++++++++++++++++++++++++++++++++++++++++++&       ",
"    $#++++++++++++++++++++++++++++++++++++++++++++++++++++++++++++++++++++++++++++++++++++#$    ",
"  =#++++++++++++++++++++++++++++++++++++++++++++++++++++++++++++++++++++++++++++++++++++++++#   ",
"&#++++++++++++++++++++++++++++++++++++++++++++++++++++++++++++++++++++++++++++++++++++++++++++#%",
"++++++++++++++++++++++++++++++++++++++++++++++++++++++++++++++++++++++++++++++++++++++++++++++++",
"++++++++++++++++++++++++++++++++++++++++++++++++++++++++++++++++++++++++++++++++++++++++++++++++",
"++++++++++++++++++++++++++++++++++++++++++++++++++++++++++++++++++++++++++++++++++++++++++++++++",
"++++++++++++++++++++++++++++++++++++++++++++++++++++++++++++++++++++++++++++++++++++++++++++++++",
"++++++++++++++++++++++++++++++++++++++++++++++++++++++++++++++++++++++++++++++++++++++++++++++++",
"++++++++++++++++++++++++++++++++++++++++++++++++++++++++++++++++++++++++++++++++++++++++++++++++",
"++++++++++++++++++++++++++++++++++++++++++++++++++++++++++++++++++++++++++++++++++++++++++++++++",
"++++++++++++++++++++++++++++++++++++++++++++++++++++++++++++++++++++++++++++++++++++++++++++++++",
"++++++++++++++++++++++++++++++++++++++++++++++++++++++++++++++++++++++++++++++++++++++++++++++++",
"++++++++++++++++++++++++++++++++++++++++++++++++++++++++++++++++++++++++++++++++++++++++++++++++",
"++++++++++++++++++++++++++++++++++++++++++++++++++++++++++++++++++++++++++++++++++++++++++++++++",
"++++++++++++++++++++++++++++++++++++++++++++++++++++++++++++++++++++++++++++++++++++++++++++++++",
"++++++++++++++++++++++++++++++++++++++++++++++++++++++++++++++++++++++++++++++++++++++++++++++++",
"++++++++++++++++++++++++++++++++++++++++++++++++++++++++++++++++++++++++++++++++++++++++++++++++",
"++++++++++++++++++++++++++++++++++++++++++++++++++++++++++++++++++++++++++++++++++++++++++++++++",
"++++++++++++++++++++++++++++++++++++++++++++++++++++++++++++++++++++++++++++++++++++++++++++++++",
"++++++++++++++++++++++++++++++++++++++++++++++++++++++++++++++++++++++++++++++++++++++++++++++++",
"++++++++++++++++++++++++++++++++++++++++++++++++++++++++++++++++++++++++++++++++++++++++++++++++"};
