/* XPM */
static char * cancel_xpm[] = {
"24 24 211 2",
"  	c None",
". 	c #A30000",
"+ 	c #A20000",
"@ 	c #A50000",
"# 	c #B82020",
"$ 	c #BD2828",
"% 	c #AF0F0F",
"& 	c #A80606",
"* 	c #B61F1F",
"= 	c #DC5F5F",
"- 	c #F68A8A",
"; 	c #C43333",
"> 	c #A60101",
", 	c #AA0A0A",
"' 	c #AE0F0F",
") 	c #AD0C0C",
"! 	c #9B0000",
"~ 	c #BA2525",
"{ 	c #F58E8E",
"] 	c #F68888",
"^ 	c #F98D8D",
"/ 	c #E56969",
"( 	c #C22D2D",
"_ 	c #CC4343",
": 	c #EF7E7E",
"< 	c #D34D4D",
"[ 	c #BB2626",
"} 	c #F18484",
"| 	c #F67C7C",
"1 	c #F77D7D",
"2 	c #F99191",
"3 	c #CE4C4C",
"4 	c #A00000",
"5 	c #CA3F3F",
"6 	c #EB7777",
"7 	c #F88F8F",
"8 	c #F18383",
"9 	c #D74F4F",
"0 	c #AD0D0D",
"a 	c #B11515",
"b 	c #CD4646",
"c 	c #F78E8E",
"d 	c #F67979",
"e 	c #FA8989",
"f 	c #E66E6E",
"g 	c #C43434",
"h 	c #A10000",
"i 	c #BC2727",
"j 	c #E46F6F",
"k 	c #F78989",
"l 	c #F78484",
"m 	c #E46969",
"n 	c #B41B1B",
"o 	c #EF8484",
"p 	c #F57B7B",
"q 	c #F77A7A",
"r 	c #F68686",
"s 	c #DB6262",
"t 	c #A60202",
"u 	c #AE1111",
"v 	c #DE6969",
"w 	c #F48585",
"x 	c #F77F7F",
"y 	c #EE7E7E",
"z 	c #C23333",
"A 	c #AB0B0B",
"B 	c #D24D4D",
"C 	c #F38282",
"D 	c #F77979",
"E 	c #F98585",
"F 	c #EB7B7B",
"G 	c #C73F3F",
"H 	c #CD4C4C",
"I 	c #F48787",
"J 	c #F77676",
"K 	c #F77878",
"L 	c #EF7B7B",
"M 	c #D14F4F",
"N 	c #AC0C0C",
"O 	c #EA7E7E",
"P 	c #F57171",
"Q 	c #F67D7D",
"R 	c #F89191",
"S 	c #F56C6C",
"T 	c #F56262",
"U 	c #F47979",
"V 	c #D75E5E",
"W 	c #A80303",
"X 	c #D65252",
"Y 	c #EF7676",
"Z 	c #F56D6D",
"` 	c #F57272",
" .	c #F46565",
"..	c #F24B4B",
"+.	c #F98383",
"@.	c #D85E5E",
"#.	c #B01212",
"$.	c #D75757",
"%.	c #F07A7A",
"&.	c #F67474",
"*.	c #F46464",
"=.	c #F35A5A",
"-.	c #F14040",
";.	c #F98080",
">.	c #DE6363",
",.	c #BB2727",
"'.	c #A40000",
").	c #A80505",
"!.	c #C03030",
"~.	c #EA7C7C",
"{.	c #F47474",
"].	c #F46161",
"^.	c #F35252",
"/.	c #F24242",
"(.	c #F24A4A",
"_.	c #F08181",
":.	c #C13535",
"<.	c #A60000",
"[.	c #E47373",
"}.	c #F57878",
"|.	c #F45F5F",
"1.	c #F35555",
"2.	c #F13737",
"3.	c #F35151",
"4.	c #B82424",
"5.	c #B41C1C",
"6.	c #D65858",
"7.	c #F88686",
"8.	c #F45B5B",
"9.	c #F56161",
"0.	c #F34F4F",
"a.	c #F24646",
"b.	c #F78686",
"c.	c #C73D3D",
"d.	c #AD1010",
"e.	c #CC4646",
"f.	c #FA8D8D",
"g.	c #F47F7F",
"h.	c #EA8080",
"i.	c #E87B7B",
"j.	c #F67F7F",
"k.	c #F13E3E",
"l.	c #F66C6C",
"m.	c #E56B6B",
"n.	c #C13333",
"o.	c #CB4747",
"p.	c #F68383",
"q.	c #F14343",
"r.	c #F88585",
"s.	c #DF6262",
"t.	c #B31616",
"u.	c #B51F1F",
"v.	c #EE7B7B",
"w.	c #F24444",
"x.	c #CF5252",
"y.	c #CB3E3E",
"z.	c #E97070",
"A.	c #F76A6A",
"B.	c #F23F3F",
"C.	c #F67878",
"D.	c #BD2626",
"E.	c #AA0C0C",
"F.	c #C73A3A",
"G.	c #F88C8C",
"H.	c #F24343",
"I.	c #F66464",
"J.	c #E86C6C",
"K.	c #C83C3C",
"L.	c #B82121",
"M.	c #DE6464",
"N.	c #FC8D8D",
"O.	c #F67070",
"P.	c #F18080",
"Q.	c #BE2929",
"R.	c #A90606",
"S.	c #B31717",
"T.	c #EC7C7C",
"U.	c #F35F5F",
"V.	c #F34949",
"W.	c #F56E6E",
"X.	c #DE6767",
"Y.	c #A70202",
"Z.	c #C03232",
"`.	c #E06666",
" +	c #EE7676",
".+	c #C93D3D",
"++	c #A60404",
"@+	c #A90909",
"#+	c #C83E3E",
"$+	c #F27F7F",
"%+	c #F55757",
"&+	c #FA7272",
"*+	c #EC8080",
"=+	c #BF2E2E",
"-+	c #B81F1F",
";+	c #CE3E3E",
">+	c #A80909",
",+	c #E67777",
"'+	c #F17272",
")+	c #DD6161",
"!+	c #C12F2F",
"~+	c #970000",
"{+	c #9D0000",
"]+	c #9C0101",
"^+	c #CA3D3D",
"/+	c #E36D6D",
"(+	c #D45555",
"_+	c #AF1616",
":+	c #9E0000",
"<+	c #A10101",
"[+	c #9E0101",
"                  . + @                         ",
"                  # $ %                         ",
"              & * = - ; >           , ' )       ",
"            ! ~ { ] ^ / (         + _ : < >     ",
"              [ } | 1 2 3 .     4 5 6 7 8 9 0   ",
"              a b c d e f g h   i j k l - m '   ",
"                n o p q r s t u v w x x y z A   ",
"                A B C D E F G H I J K L M h     ",
"                  N O x P Q 2 R S T U V .       ",
"                  W X Y J Z `  ...+.@.#.        ",
"                  @ $.%.&.*.=.-.;.>.,.'.        ",
"                ).!.~.{.].^./.(._.:.<.          ",
"                * [.}.|.1...2.3.} 4.            ",
"              5.6.7.8.9.Z  .0.a.b.c.,           ",
"            d.e.f.1.8.g.h.i.j.k.l.m.n.4         ",
"          + o.p.8.q.r.s.t.u.v.|.w.+.x..         ",
"        . y.z.A.B.C.z.D.4 E.F.G.H.I.J.K.+       ",
"          L.M.N.O.P.Q.R.    S.T.U.V.W.X.,       ",
"          Y.Z.`. +.+++      @+#+$+%+&+*+=+      ",
"            h -+;+4           >+,+d '+)+!+      ",
"              ~+{+            ]+^+/+(+_+:+      ",
"                                <+> [+          ",
"                                                ",
"                                                "};
