/* XPM */
static char * category_xpm[] = {
"16 16 16 1",
" 	c None",
".	c #000000",
"+	c #2C7AD4",
"@	c #3B98C5",
"#	c #2D5AD3",
"$	c #01DFFF",
"%	c #BFEDE2",
"&	c #12BDEE",
"*	c #B8EADF",
"=	c #2ABAD6",
"-	c #039FFD",
";	c #155DEB",
">	c #271BD9",
",	c #3F18C1",
"'	c #1F1CE1",
")	c #3719C9",
"                ",
"                ",
"    ....        ",
"   .+@+@.       ",
"  .+#+#@+...... ",
"  .$$%$%&*%$==$.",
"  .=@&@&@=+=+-;.",
"  .$&@&@=+=+-+#.",
"  .=@&@=+=+-+->.",
"  .$&@=+=+-+-;#.",
"  .=@=+=+-+-;-,.",
"  .$=+=+-+-;-;>.",
"  .=';';';';)>,.",
"   ............ ",
"                ",
"                "};
