/* XPM */
static char * close_xpm[] = {
"24 24 196 2",
"  	c None",
". 	c #323839",
"+ 	c #303637",
"@ 	c #313839",
"# 	c #333939",
"$ 	c #303638",
"% 	c #33383B",
"& 	c #626666",
"* 	c #939593",
"= 	c #606464",
"- 	c #5E6262",
"; 	c #919391",
"> 	c #656969",
", 	c #303738",
"' 	c #323639",
") 	c #616665",
"! 	c #9B9C99",
"~ 	c #7F817D",
"{ 	c #A0A29F",
"] 	c #656868",
"^ 	c #A5A7A4",
"/ 	c #878885",
"( 	c #9FA09E",
"_ 	c #333839",
": 	c #2F3537",
"< 	c #909290",
"[ 	c #7C7D79",
"} 	c #6F716D",
"| 	c #797B77",
"1 	c #A1A29F",
"2 	c #686B6B",
"3 	c #666868",
"4 	c #A6A8A4",
"5 	c #82837F",
"6 	c #757772",
"7 	c #858783",
"8 	c #8A8C8A",
"9 	c #5D6160",
"0 	c #9A9B98",
"a 	c #777974",
"b 	c #737570",
"c 	c #7C7E79",
"d 	c #A1A3A0",
"e 	c #6A6E6E",
"f 	c #32383B",
"g 	c #676B6A",
"h 	c #A8A9A6",
"i 	c #848681",
"j 	c #787A76",
"k 	c #7E807C",
"l 	c #9FA19D",
"m 	c #5A5F5E",
"n 	c #323838",
"o 	c #797B76",
"p 	c #767873",
"q 	c #A2A4A0",
"r 	c #6C706F",
"s 	c #33393A",
"t 	c #686C6C",
"u 	c #868883",
"v 	c #80827E",
"w 	c #9FA19E",
"x 	c #5E6263",
"y 	c #616464",
"z 	c #9B9C98",
"A 	c #7B7D78",
"B 	c #80827D",
"C 	c #A1A39F",
"D 	c #6D7171",
"E 	c #686C6B",
"F 	c #878984",
"G 	c #7E807B",
"H 	c #81837E",
"I 	c #616463",
"J 	c #323739",
"K 	c #606463",
"L 	c #9A9C98",
"M 	c #7D7F7A",
"N 	c #7A7C78",
"O 	c #9FA09D",
"P 	c #A2A3A0",
"Q 	c #858782",
"R 	c #7F817C",
"S 	c #81837F",
"T 	c #9FA09C",
"U 	c #31373A",
"V 	c #5F6463",
"W 	c #999B97",
"X 	c #7D7F7B",
"Y 	c #82847F",
"Z 	c #9C9D9A",
"` 	c #636767",
" .	c #313739",
"..	c #5F6362",
"+.	c #989996",
"@.	c #7A7C77",
"#.	c #646766",
"$.	c #949592",
"%.	c #969793",
"&.	c #616564",
"*.	c #5B605F",
"=.	c #8F918D",
"-.	c #757773",
";.	c #72746F",
">.	c #777975",
",.	c #737571",
"'.	c #92938F",
").	c #5C6160",
"!.	c #313638",
"~.	c #585C5C",
"{.	c #8A8B88",
"].	c #71736F",
"^.	c #6E706B",
"/.	c #747571",
"(.	c #8E908C",
"_.	c #8E908D",
":.	c #747672",
"<.	c #70726D",
"[.	c #747671",
"}.	c #8D8F8C",
"|.	c #575B5A",
"1.	c #323738",
"2.	c #313738",
"3.	c #555959",
"4.	c #858784",
"5.	c #6D6F6A",
"6.	c #696B67",
"7.	c #6F716C",
"8.	c #898B87",
"9.	c #595D5C",
"0.	c #585C5B",
"a.	c #8B8C88",
"b.	c #6C6E69",
"c.	c #70726E",
"d.	c #888A87",
"e.	c #535756",
"f.	c #535656",
"g.	c #7F817E",
"h.	c #686A66",
"i.	c #656763",
"j.	c #6A6C68",
"k.	c #848682",
"l.	c #565B5A",
"m.	c #565A59",
"n.	c #868885",
"o.	c #6D6F6B",
"p.	c #676965",
"q.	c #848581",
"r.	c #4E5152",
"s.	c #4E5352",
"t.	c #7A7C79",
"u.	c #636561",
"v.	c #61635E",
"w.	c #7E7F7C",
"x.	c #545857",
"y.	c #303639",
"z.	c #515555",
"A.	c #686A67",
"B.	c #626460",
"C.	c #7D7F7C",
"D.	c #484D4C",
"E.	c #676967",
"F.	c #5B5D59",
"G.	c #5F615D",
"H.	c #757774",
"I.	c #505352",
"J.	c #2E3335",
"K.	c #2D3234",
"L.	c #4B4E4E",
"M.	c #767875",
"N.	c #5C5E5A",
"O.	c #6B6D69",
"P.	c #646765",
"Q.	c #484E4D",
"R.	c #60625F",
"S.	c #6E706C",
"T.	c #2B3031",
"U.	c #292E2F",
"V.	c #444647",
"W.	c #6D6E6B",
"X.	c #313537",
"Y.	c #2E3536",
"Z.	c #474B4B",
"`.	c #5F625F",
" +	c #464A49",
".+	c #292F30",
"++	c #272C2D",
"@+	c #3E4242",
"#+	c #595B59",
"$+	c #454B4A",
"%+	c #2E3434",
"&+	c #2E3436",
"*+	c #2B3131",
"=+	c #282E2F",
"-+	c #2B3032",
";+	c #2C3133",
"                                                ",
"                                                ",
"        . + @                     # $ %         ",
"      $ & * = .                 . - ; > ,       ",
"    ' ) ! ~ { ] .             . & ^ / ( & _     ",
"    : < [ } | 1 2 .         % 3 4 5 6 7 8 +     ",
"    @ 9 0 a b c d e f     f g h i j k l m @     ",
"      n = ! o p k q r s s t h u c v w x .       ",
"        . y z A o B C D E 4 F G H l I .         ",
"          J K L M N B O P Q R S T ) J           ",
"            U V W X N R Y M B Z ` U             ",
"               ...+.M o @.G W #. .              ",
"               .9 $.@.p a | %.&. .              ",
"            U *.=.-.;.a >.,.a '.).U             ",
"          !.~.{.].^./.(._.:.<.[.}.|.1.          ",
"        2.3.4.5.6.7.8.9.0.a.].b.c.d.e.2.        ",
"      $ f.g.h.i.j.k.l. . .m.n.o.p.o.q.r.$       ",
"    @ s.t.u.v.i.w.x.+     y.z.g.A.B.6.C.D.@     ",
"    : E.i.F.G.H.I.J.        K.L.M.B.N.O.P.:     ",
"    $ Q.].R.S.L.T.            U.V.W.B.} Q.X.    ",
"      Y.Z.`. +.+                ++@+#+$+%+      ",
"        &+K.*+                    =+-+;+        ",
"                                                ",
"                                                "};
