/* XPM */
static char * delete_btn_xpm[] = {
"24 24 97 2",
"  	c None",
". 	c #999999",
"+ 	c #000000",
"@ 	c #929292",
"# 	c #535353",
"$ 	c #FFFFFF",
"% 	c #FEFEFE",
"& 	c #FDFDFD",
"* 	c #FCFCFC",
"= 	c #FBFBFB",
"- 	c #F9F9F9",
"; 	c #F8F8F8",
"> 	c #F7F7F7",
", 	c #F6F6F6",
"' 	c #F5F5F5",
") 	c #F4F4F4",
"! 	c #E3E3E3",
"~ 	c #EEEEEE",
"{ 	c #4F4F4F",
"] 	c #F3F3F3",
"^ 	c #F2F2F2",
"/ 	c #F1F1F1",
"( 	c #F0F0F0",
"_ 	c #EFEFEF",
": 	c #EDEDED",
"< 	c #AEAEAE",
"[ 	c #E4E4E4",
"} 	c #434343",
"| 	c #ACACAC",
"1 	c #C8C8C8",
"2 	c #A0A0A0",
"3 	c #D4D4D4",
"4 	c #ECECEC",
"5 	c #959595",
"6 	c #3E3E3E",
"7 	c #4D4D4D",
"8 	c #818181",
"9 	c #C6C6C6",
"0 	c #6A6A6A",
"a 	c #636363",
"b 	c #B9B9B9",
"c 	c #737373",
"d 	c #9AB5CF",
"e 	c #8FABC7",
"f 	c #8EABC6",
"g 	c #8DAAC6",
"h 	c #8DA9C4",
"i 	c #8BA8C3",
"j 	c #8BA7C2",
"k 	c #8AA6C2",
"l 	c #88A6C2",
"m 	c #87A5C1",
"n 	c #87A4C0",
"o 	c #86A3BF",
"p 	c #84A2BF",
"q 	c #FF2C2C",
"r 	c #7F9EBA",
"s 	c #7E9DBA",
"t 	c #7E9CB9",
"u 	c #7090AE",
"v 	c #6F8FAE",
"w 	c #6E8FAD",
"x 	c #6D8EAC",
"y 	c #6D8DAB",
"z 	c #6B8CAA",
"A 	c #6A8BAA",
"B 	c #698AA9",
"C 	c #6889A8",
"D 	c #6789A7",
"E 	c #6687A7",
"F 	c #6587A6",
"G 	c #6486A5",
"H 	c #6385A5",
"I 	c #6384A4",
"J 	c #6283A3",
"K 	c #6182A2",
"L 	c #6081A1",
"M 	c #5F81A1",
"N 	c #517596",
"O 	c #507496",
"P 	c #4F7395",
"Q 	c #4E7394",
"R 	c #4D7293",
"S 	c #4C7092",
"T 	c #4B6F92",
"U 	c #4A6F91",
"V 	c #496E90",
"W 	c #486D8F",
"X 	c #476D8F",
"Y 	c #466C8E",
"Z 	c #466B8D",
"` 	c #44698C",
" .	c #43688C",
"..	c #43688B",
"+.	c #41678A",
"@.	c #406689",
"#.	c #406588",
"                                                ",
"      . + + + + + + + + + + + + + + + + + @     ",
"      + # $ $ $ $ % & * = - ; > , ' ) ! # +     ",
"      + ~ { $ ' ) ] ^ ^ / ( ( _ ~ : ! { < +     ",
"      + $ [ } & ] ^ ^ / ( _ ~ ~ : ! { | 1 +     ",
"      + $ ' [ { = / ( ( _ ~ : : ! } 2 3 1 +     ",
"      + $ = ' [ } ; ( _ ~ : 4 ! { 5 3 [ 1 +     ",
"      + $ ' ' ' [ 6 ' ~ : 4 ! 7 8 9 [ [ 1 +     ",
"      + $ = ' ' [ 0 } ] 4 ! { 0 9 9 ' [ 1 +     ",
"      + $ ' ' [ a $ b { ( { 5 9 c 9 ' [ 1 +     ",
"    + + + + + + + + + + + + + + + + + + + + +   ",
"  + + + + + + + + + + + + + + + + + + + + + + + ",
"  + + d d d d d d d d d d d d d d d d d d d + + ",
"  + + e f g h i j k l m n o p q q q q r s t + + ",
"  + + u v w x y z A B C D E F G H I J K L M + + ",
"  + + N O P Q R S T U V W X Y Z `  ...+.@.#.+ + ",
"  + + + + + + + + + + + + + + + + + + + + + + + ",
"    + + + + + + + + + + + + + + + + + + + + +   ",
"      + = + = = + + = = + = = + = + = = +       ",
"      + = + = = + + = + + = = + = + = = +       ",
"      + = + = = + + + + + = = + = + = = +       ",
"      + + + = + +       + + = + + + = + +       ",
"          + + +           + +     + + +         ",
"                                                "};
