/* XPM */
static char * dir_close_mark_xpm[] = {
"16 16 70 1",
" 	c None",
".	c #FFFFFF",
"+	c #000000",
"@	c #4E8EE5",
"#	c #4885E3",
"$	c #66A6EF",
"%	c #63A2F1",
"&	c #4D8BE9",
"*	c #DDF1FE",
"=	c #D7EDFE",
"-	c #AAD3FC",
";	c #94C4FA",
">	c #D0EAFE",
",	c #C0E2FD",
"'	c #90C2FA",
")	c #80B9F8",
"!	c #639EF1",
"~	c #CDE8FD",
"{	c #B9DEFC",
"]	c #ABD7FB",
"^	c #83BBF9",
"/	c #7CB4F8",
"(	c #66A0F2",
"_	c #4680E5",
":	c #CBE7FD",
"<	c #B7DDFC",
"[	c #A9D6FB",
"}	c #A5D2FB",
"|	c #7DB5F8",
"1	c #71ACF6",
"2	c #5895EE",
"3	c #386FDE",
"4	c #CBE8FD",
"5	c #A8D3FB",
"6	c #A2D1FB",
"7	c #96C8FA",
"8	c #74AEF7",
"9	c #65A1F4",
"0	c #4D88EA",
"a	c #3468D5",
"b	c #B1D8FB",
"c	c #9FCFFA",
"d	c #93C6F9",
"e	c #87BEF9",
"f	c #7FB9F8",
"g	c #7AB3F8",
"h	c #5691F0",
"i	c #427EE5",
"j	c #2F61CC",
"k	c #C0E1FD",
"l	c #9BC9F9",
"m	c #80B8F6",
"n	c #74AEF6",
"o	c #6FAAF5",
"p	c #6BA5F4",
"q	c #639FF3",
"r	c #5A94F0",
"s	c #417CE4",
"t	c #3469D8",
"u	c #2957BE",
"v	c #AAD4FB",
"w	c #70AAF3",
"x	c #538EEC",
"y	c #4F89EA",
"z	c #4F8AEC",
"A	c #4B87EA",
"B	c #4683E8",
"C	c #4076E1",
"D	c #356AD8",
"E	c #254EAB",
"             .. ",
"            .+. ",
"    ++++   .++. ",
"   +@..#+ .+++. ",
"  +$%.+.&.+++.+ ",
"  +*=.++.+++.-;+",
"  +>,.+++++.')!+",
"  +~{].+++.^/(_+",
"  +:<[}.+.^|123+",
"  +4<567.^|890a+",
"  +:bcdefg19hij+",
"  +klmnopqr0stu+",
"  +vwxyzABCDjuE+",
"   ++++++++++++ ",
"                ",
"                "};
