/* XPM */
static char * dir_close_xpm[] = {
"16 16 86 1",
" 	c None",
".	c #000000",
"+	c #4E8EE5",
"@	c #6EACF4",
"#	c #4885E3",
"$	c #66A6EF",
"%	c #63A2F1",
"&	c #7AB5F6",
"*	c #6FAAF5",
"=	c #65A2F0",
"-	c #4D8BE9",
";	c #DDF1FE",
">	c #D7EDFE",
",	c #D5ECFE",
"'	c #D3EBFE",
")	c #CDE6FD",
"!	c #B9DBFD",
"~	c #B4D8FC",
"{	c #AAD3FC",
"]	c #94C4FA",
"^	c #D0EAFE",
"/	c #C0E2FD",
"(	c #BADFFC",
"_	c #B9DEFC",
":	c #B5DBFC",
"<	c #A9D2FB",
"[	c #98C9FA",
"}	c #90C2FA",
"|	c #80B9F8",
"1	c #639EF1",
"2	c #CDE8FD",
"3	c #ABD7FB",
"4	c #A9D6FB",
"5	c #A8D5FB",
"6	c #A4D2FB",
"7	c #9BCAFA",
"8	c #8EC0F9",
"9	c #83BBF9",
"0	c #7CB4F8",
"a	c #66A0F2",
"b	c #4680E5",
"c	c #CBE7FD",
"d	c #B7DDFC",
"e	c #A5D2FB",
"f	c #A2D1FB",
"g	c #96C8FA",
"h	c #8ABFF9",
"i	c #7DB5F8",
"j	c #71ACF6",
"k	c #5895EE",
"l	c #386FDE",
"m	c #CBE8FD",
"n	c #A8D3FB",
"o	c #74AEF7",
"p	c #65A1F4",
"q	c #4D88EA",
"r	c #3468D5",
"s	c #B1D8FB",
"t	c #9FCFFA",
"u	c #93C6F9",
"v	c #87BEF9",
"w	c #7FB9F8",
"x	c #7AB3F8",
"y	c #5691F0",
"z	c #427EE5",
"A	c #2F61CC",
"B	c #C0E1FD",
"C	c #9BC9F9",
"D	c #80B8F6",
"E	c #74AEF6",
"F	c #6BA5F4",
"G	c #639FF3",
"H	c #5A94F0",
"I	c #417CE4",
"J	c #3469D8",
"K	c #2957BE",
"L	c #AAD4FB",
"M	c #70AAF3",
"N	c #538EEC",
"O	c #4F89EA",
"P	c #4F8AEC",
"Q	c #4B87EA",
"R	c #4683E8",
"S	c #4076E1",
"T	c #356AD8",
"U	c #254EAB",
"                ",
"                ",
"    ....        ",
"   .+@@#.       ",
"  .$%&*=-...... ",
"  .;>,',',)!~{].",
"  .^/(_(_:<[}|1.",
"  .2_34567890ab.",
"  .cd4efgh9ijkl.",
"  .mdnfgh9iopqr.",
"  .cstuvwxjpyzA.",
"  .BCDE*FGHqIJK.",
"  .LMNOPQRSTAKU.",
"   ............ ",
"                ",
"                "};
