/* XPM */
static char * dir_close_hrm_mark_xpm[] = {
"16 16 37 1",
" 	c None",
".	c #FFFFFF",
"+	c #000000",
"@	c #DD4E73",
"#	c #DF5175",
"$	c #D9466F",
"%	c #EB6C8D",
"&	c #F07D98",
"*	c #DC4E76",
"=	c #E35D7E",
"-	c #DA4873",
";	c #E66281",
">	c #DD4D73",
",	c #DE5177",
"'	c #DB4971",
")	c #E15577",
"!	c #D54074",
"~	c #E05376",
"{	c #DB4A71",
"]	c #D8446E",
"^	c #E35979",
"/	c #D43C6A",
"(	c #E35E85",
"_	c #E25A87",
":	c #D03E68",
"<	c #CE4067",
"[	c #CC4266",
"}	c #D23C69",
"|	c #CA4465",
"1	c #DC4B82",
"2	c #C83561",
"3	c #BE315A",
"4	c #C0315B",
"5	c #C63460",
"6	c #B82E55",
"7	c #CE3865",
"8	c #B02A50",
"             .. ",
"            .+. ",
"    ++++   .++. ",
"   +@..#+ .+++. ",
"  +@@.+.$.+++.+ ",
"  +%%.++.+++.&%+",
"  +*=.+++++.-;-+",
"  +>>>.+++.>>>>+",
"  +,','.+.#$)$)+",
"  +!~!~{.#]^/^/+",
"  +('('@>{#$)$)+",
"  +_:_:<<:[}|}|+",
"  +121234567878+",
"   ++++++++++++ ",
"                ",
"                "};
