/* XPM */
static char * drafts_close_xpm[] = {
"16 16 105 2",
"  	c None",
". 	c #000000",
"+ 	c #14100C",
"@ 	c #3D352A",
"# 	c #2E2A24",
"$ 	c #4E8EE5",
"% 	c #6EACF4",
"& 	c #4885E3",
"* 	c #1D140C",
"= 	c #AB7E50",
"- 	c #997E5B",
"; 	c #38495C",
"> 	c #63A2F1",
", 	c #7AB5F6",
"' 	c #6FAAF5",
") 	c #65A2F0",
"! 	c #4D8BE9",
"~ 	c #5A391D",
"{ 	c #C98D4E",
"] 	c #A88B66",
"^ 	c #4D555B",
"/ 	c #D5ECFE",
"( 	c #D3EBFE",
"_ 	c #CDE6FD",
": 	c #B9DBFD",
"< 	c #B4D8FC",
"[ 	c #AAD3FC",
"} 	c #94C4FA",
"| 	c #513017",
"1 	c #C38545",
"2 	c #A98C69",
"3 	c #525B5F",
"4 	c #AACCE8",
"5 	c #BADFFC",
"6 	c #B9DEFC",
"7 	c #B5DBFC",
"8 	c #A9D2FB",
"9 	c #98C9FA",
"0 	c #90C2FA",
"a 	c #80B9F8",
"b 	c #639EF1",
"c 	c #222222",
"d 	c #5B3C23",
"e 	c #C98C4C",
"f 	c #9A7A51",
"g 	c #5B666D",
"h 	c #9AC4E7",
"i 	c #A4D2FB",
"j 	c #9BCAFA",
"k 	c #8EC0F9",
"l 	c #83BBF9",
"m 	c #7CB4F8",
"n 	c #66A0F2",
"o 	c #4680E5",
"p 	c #8596A3",
"q 	c #5C3A1B",
"r 	c #C68A4A",
"s 	c #987B56",
"t 	c #4B5660",
"u 	c #96C8FA",
"v 	c #8ABFF9",
"w 	c #7DB5F8",
"x 	c #71ACF6",
"y 	c #5895EE",
"z 	c #386FDE",
"A 	c #CBE8FD",
"B 	c #7B91A2",
"C 	c #5C3C20",
"D 	c #B89675",
"E 	c #26221E",
"F 	c #74AEF7",
"G 	c #65A1F4",
"H 	c #4D88EA",
"I 	c #3468D5",
"J 	c #CBE7FD",
"K 	c #B1D8FB",
"L 	c #6B8CA9",
"M 	c #1D2731",
"N 	c #050709",
"O 	c #192531",
"P 	c #7AB3F8",
"Q 	c #5691F0",
"R 	c #427EE5",
"S 	c #2F61CC",
"T 	c #C0E1FD",
"U 	c #9BC9F9",
"V 	c #80B8F6",
"W 	c #74AEF6",
"X 	c #39587F",
"Y 	c #37567F",
"Z 	c #639FF3",
"` 	c #5A94F0",
" .	c #417CE4",
"..	c #3469D8",
"+.	c #2957BE",
"@.	c #AAD4FB",
"#.	c #70AAF3",
"$.	c #538EEC",
"%.	c #4F89EA",
"&.	c #4F8AEC",
"*.	c #4B87EA",
"=.	c #4683E8",
"-.	c #4076E1",
";.	c #356AD8",
">.	c #254EAB",
"                                ",
"                                ",
"        . . . .                 ",
"+ @ # . $ % % & .               ",
"* = - ; > , ' ) ! . . . . . .   ",
"  ~ { ] ^ / ( / ( / _ : < [ } . ",
"    | 1 2 3 4 5 6 7 8 9 0 a b . ",
"    c d e f g h i j k l m n o . ",
"    c p q r s t u v l w x y z . ",
"    . A B C D E v l w F G H I . ",
"    . J K L M N O P x G Q R S . ",
"    . T U V W X Y Z ` H  ...+.. ",
"    . @.#.$.%.&.*.=.-.;.S +.>.. ",
"      . . . . . . . . . . . .   ",
"                                ",
"                                "};
