/* XPM */
static char * drafts_open_xpm[] = {
"16 16 96 2",
"  	c None",
". 	c #000000",
"+ 	c #14100C",
"@ 	c #3D352A",
"# 	c #2E2A24",
"$ 	c #5695E8",
"% 	c #6FAAF5",
"& 	c #74AEF6",
"* 	c #4C89E6",
"= 	c #1D140C",
"- 	c #AB7E50",
"; 	c #997E5B",
"> 	c #2F4059",
", 	c #5A98F0",
"' 	c #68A7F5",
") 	c #67A6F4",
"! 	c #5593EE",
"~ 	c #4681E6",
"{ 	c #5A391D",
"] 	c #C98D4E",
"^ 	c #A88B66",
"/ 	c #223858",
"( 	c #65A2F6",
"_ 	c #609DF4",
": 	c #63A0F4",
"< 	c #5591F1",
"[ 	c #67A2F4",
"} 	c #538FEF",
"| 	c #4780EC",
"1 	c #4C88ED",
"2 	c #5792F1",
"3 	c #513017",
"4 	c #C38545",
"5 	c #A98C69",
"6 	c #17130E",
"7 	c #224AA4",
"8 	c #2957BE",
"9 	c #346ADB",
"0 	c #D2EAFD",
"a 	c #758088",
"b 	c #5B3C23",
"c 	c #C98C4C",
"d 	c #9A7A51",
"e 	c #656B6D",
"f 	c #B4D3E9",
"g 	c #C4E4FD",
"h 	c #C2E3FD",
"i 	c #B8DDFB",
"j 	c #80BBF1",
"k 	c #1D3E8C",
"l 	c #2650B0",
"m 	c #AAD4F8",
"n 	c #A4C3E0",
"o 	c #728CA2",
"p 	c #5C3A1B",
"q 	c #C68A4A",
"r 	c #987B56",
"s 	c #4C5760",
"t 	c #A8D5FB",
"u 	c #A7D4FA",
"v 	c #9ECEF9",
"w 	c #67A7EB",
"x 	c #1C3A80",
"y 	c #204396",
"z 	c #9BCCF9",
"A 	c #6986A0",
"B 	c #5C3C20",
"C 	c #B89675",
"D 	c #26221E",
"E 	c #98CBF9",
"F 	c #92C7F8",
"G 	c #71AEEF",
"H 	c #3470CA",
"I 	c #1D3D88",
"J 	c #94C9F9",
"K 	c #6387A8",
"L 	c #1D2831",
"M 	c #050709",
"N 	c #93C8F8",
"O 	c #80BDF5",
"P 	c #6BACEB",
"Q 	c #1B3781",
"R 	c #88BFF7",
"S 	c #86BEF7",
"T 	c #456380",
"U 	c #84BEF7",
"V 	c #7FBAF6",
"W 	c #5E9EEA",
"X 	c #3064BF",
"Y 	c #76B1F4",
"Z 	c #75B1F5",
"` 	c #70AEF4",
" .	c #6FADF4",
"..	c #67A7F1",
"+.	c #64A4EF",
"@.	c #498BE7",
"                                ",
"                                ",
"        . . . .                 ",
"+ @ # . $ % & * .               ",
"= - ; > , ' ) ! ~ . . . . . .   ",
"  { ] ^ / ( _ : < [ } | | 1 2 . ",
"  . 3 4 5 6 . . . . . . 7 8 9 . ",
". 0 a b c d e f g h i j . k l . ",
". m n o p q r s t u v w . x y . ",
"  . m z A B C D E E F G H . I . ",
"  . m J J K L M L N F O P . Q . ",
"    . z R S S T T S U V W X . . ",
"    . Y Z ` ` `  .`  ...+.@.. . ",
"      . . . . . . . . . . . .   ",
"                                ",
"                                "};
