/* XPM */
static char * drafts_open_mark_xpm[] = {
"16 16 76 1",
" 	c None",
".	c #FFFFFF",
"+	c #000000",
"@	c #14100C",
"#	c #3D352A",
"$	c #2E2A24",
"%	c #5695E8",
"&	c #4C89E6",
"*	c #1D140C",
"=	c #AB7E50",
"-	c #997E5B",
";	c #2F4059",
">	c #5A98F0",
",	c #4681E6",
"'	c #5A391D",
")	c #C98D4E",
"!	c #A88B66",
"~	c #223858",
"{	c #4C88ED",
"]	c #5792F1",
"^	c #513017",
"/	c #C38545",
"(	c #A98C69",
"_	c #224AA4",
":	c #2957BE",
"<	c #346ADB",
"[	c #D2EAFD",
"}	c #758088",
"|	c #5B3C23",
"1	c #C98C4C",
"2	c #9A7A51",
"3	c #80BBF1",
"4	c #1D3E8C",
"5	c #2650B0",
"6	c #AAD4F8",
"7	c #A4C3E0",
"8	c #728CA2",
"9	c #5C3A1B",
"0	c #C68A4A",
"a	c #987B56",
"b	c #9ECEF9",
"c	c #67A7EB",
"d	c #1C3A80",
"e	c #204396",
"f	c #9BCCF9",
"g	c #6986A0",
"h	c #5C3C20",
"i	c #B89675",
"j	c #26221E",
"k	c #98CBF9",
"l	c #92C7F8",
"m	c #71AEEF",
"n	c #3470CA",
"o	c #1D3D88",
"p	c #94C9F9",
"q	c #6387A8",
"r	c #1D2831",
"s	c #050709",
"t	c #93C8F8",
"u	c #80BDF5",
"v	c #6BACEB",
"w	c #1B3781",
"x	c #88BFF7",
"y	c #86BEF7",
"z	c #456380",
"A	c #84BEF7",
"B	c #7FBAF6",
"C	c #5E9EEA",
"D	c #3064BF",
"E	c #76B1F4",
"F	c #75B1F5",
"G	c #70AEF4",
"H	c #6FADF4",
"I	c #67A7F1",
"J	c #64A4EF",
"K	c #498BE7",
"             .. ",
"            .+. ",
"    ++++   .++. ",
"@#$+%..&+ .+++. ",
"*=-;>.+.,.+++.+ ",
" ')!~.++.+++.{]+",
" +^/(.+++++._:<+",
"+[}|12.+++.3+45+",
"+67890a.+.bc+de+",
" +6fghij.klmn+o+",
" +6ppqrsrtluv+w+",
"  +fxyyzzyABCD++",
"  +EFGGGHGHIJK++",
"   ++++++++++++ ",
"                ",
"                "};
