/* XPM */
static char * drafts_close_mark_xpm[] = {
"16 16 82 1",
" 	c None",
".	c #FFFFFF",
"+	c #000000",
"@	c #14100C",
"#	c #3D352A",
"$	c #2E2A24",
"%	c #4E8EE5",
"&	c #4885E3",
"*	c #1D140C",
"=	c #AB7E50",
"-	c #997E5B",
";	c #38495C",
">	c #63A2F1",
",	c #4D8BE9",
"'	c #5A391D",
")	c #C98D4E",
"!	c #A88B66",
"~	c #4D555B",
"{	c #AAD3FC",
"]	c #94C4FA",
"^	c #513017",
"/	c #C38545",
"(	c #A98C69",
"_	c #90C2FA",
":	c #80B9F8",
"<	c #639EF1",
"[	c #222222",
"}	c #5B3C23",
"|	c #C98C4C",
"1	c #9A7A51",
"2	c #83BBF9",
"3	c #7CB4F8",
"4	c #66A0F2",
"5	c #4680E5",
"6	c #8596A3",
"7	c #5C3A1B",
"8	c #C68A4A",
"9	c #987B56",
"0	c #7DB5F8",
"a	c #71ACF6",
"b	c #5895EE",
"c	c #386FDE",
"d	c #CBE8FD",
"e	c #7B91A2",
"f	c #5C3C20",
"g	c #B89675",
"h	c #26221E",
"i	c #74AEF7",
"j	c #65A1F4",
"k	c #4D88EA",
"l	c #3468D5",
"m	c #CBE7FD",
"n	c #B1D8FB",
"o	c #6B8CA9",
"p	c #1D2731",
"q	c #050709",
"r	c #192531",
"s	c #7AB3F8",
"t	c #5691F0",
"u	c #427EE5",
"v	c #2F61CC",
"w	c #C0E1FD",
"x	c #9BC9F9",
"y	c #80B8F6",
"z	c #74AEF6",
"A	c #39587F",
"B	c #37567F",
"C	c #639FF3",
"D	c #5A94F0",
"E	c #417CE4",
"F	c #3469D8",
"G	c #2957BE",
"H	c #AAD4FB",
"I	c #70AAF3",
"J	c #538EEC",
"K	c #4F89EA",
"L	c #4F8AEC",
"M	c #4B87EA",
"N	c #4683E8",
"O	c #4076E1",
"P	c #356AD8",
"Q	c #254EAB",
"             .. ",
"            .+. ",
"    ++++   .++. ",
"@#$+%..&+ .+++. ",
"*=-;>.+.,.+++.+ ",
" ')!~.++.+++.{]+",
"  ^/(.+++++._:<+",
"  [}|1.+++.2345+",
"  [6789.+.20abc+",
"  +defgh.20ijkl+",
"  +mnopqrsajtuv+",
"  +wxyzABCDkEFG+",
"  +HIJKLMNOPvGQ+",
"   ++++++++++++ ",
"                ",
"                "};
