/* XPM */
static char *edit_extern_xpm[] = {
/* columns rows colors chars-per-pixel */
"24 24 65 1",
"  c #CCCCC8",
". c #B5B5B1",
"X c #B1B1AD",
"o c #CECECA",
"O c #BEBEBB",
"+ c #BBBBB8",
"@ c #B2B2AF",
"# c #AAAAA7",
"$ c #9D9D9A",
"% c #F6F6F3",
"& c #DCDCD9",
"* c #D0D0CD",
"= c #CBCBC8",
"- c #C9C9C6",
"; c #C7C7C4",
": c #C5C5C2",
"> c #C1C1BE",
", c #A5A5A3",
"< c #949492",
"1 c #8A8A88",
"2 c #545453",
"3 c #F8F8F6",
"4 c #DEDEDC",
"5 c #B5B5B3",
"6 c #F0F0EF",
"7 c #E8E8E7",
"8 c #E6E6E5",
"9 c #E4E4E3",
"0 c #E0E0DF",
"q c #D9D9D8",
"w c #D6D6D5",
"e c #D2D2D1",
"r c #CCCCCB",
"t c #C2C2C1",
"y c #BFBFBE",
"u c #B8B8B7",
"i c #B6B6B5",
"p c #B3B3B2",
"a c #AEAEAD",
"s c #ACACAB",
"d c #F1E3AD",
"f c #DBD5C1",
"g c #7F5F00",
"h c #E6C370",
"j c #F1D283",
"k c #755204",
"l c #D1AF61",
"z c #D08B0C",
"x c #A46E09",
"c c #FBA90F",
"v c #76736E",
"b c gray100",
"n c #FDFDFD",
"m c #FBFBFB",
"M c #F8F8F8",
"N c gray96",
"B c gray95",
"V c gray93",
"C c gray92",
"Z c #E2E2E2",
"A c #A9A9A9",
"S c #161616",
"D c #0E0E0E",
"F c black",
"G c None",
/* pixels */
"GGGGGGGGGGGGGGFFFGGGGGGG",
"GGFFFFFFFFFFFFldcFFFGGGG",
"GGFmmmmmmmmmixdcgF0tFGGG",
"GGFmNmmmmmnnFhjzFptmAFGG",
"GGFmNmmmnnnpxdcgFmav22FG",
"GGFmNmmmmmMFhjzFs3Z12SFG",
"GGFmNnnmmm@xdcgFNB66waFG",
"GGFmBMNN%BFhjzF18Z0CZtFG",
"GGFm6MMM3axdcgFVCC770yFG",
"GGFm6B66VFhjzF$&qqw9wuFG",
"GGFmVNNBAkdcgF8880&q*pFG",
"GGFmCV88FhjzF<e4qe*=:aFG",
"GGFm76C,xdcgF&q*=>OO+sFG",
"GGFm89qFhjzF1+5O.55+>AFG",
"GGFmZ8,xccgFtua##@+::pFG",
"GGFm4&FdvkFv$<1,@O; =uFG",
"GGFm&&FfvkF$<$#iy- e*iFG",
"GGFmqoD2FF21<$,sX.p**5FG",
"GGFmeeFFv$,pO:=r  o**uFG",
"GGFme;2##@>:= oooooo uFG",
"GGFme*=;-=r or   ==  pFG",
"GGFme**r  oo   ==-- ;5FG",
"GGFm@5...pp@@@@XXaa@i<FG",
"GGFFFFFFFFFFFFFFFFFFFFFG"
};
