/* XPM */
static char * error_xpm[] = {
"10 10 32 1",
" 	c None",
".	c #0B0402",
"+	c #331516",
"@	c #261B1C",
"#	c #272120",
"$	c #3C1D1D",
"%	c #4B2727",
"&	c #462F2F",
"*	c #443A3B",
"=	c #573435",
"-	c #573E3E",
";	c #524647",
">	c #734647",
",	c #805353",
"'	c #786D6D",
")	c #826F72",
"!	c #A16A6D",
"~	c #947273",
"{	c #9B7376",
"]	c #877D7D",
"^	c #B07E7E",
"/	c #A48887",
"(	c #AF9291",
"_	c #BB8D8F",
":	c #AF9FA1",
"<	c #C4A0A1",
"[	c #C2A5A4",
"}	c #C3B4B5",
"|	c #D0B4B6",
"1	c #D6B2B3",
"2	c #E1D7D6",
"3	c #EFE2E2",
"  #*;;&+  ",
" ;:222|~% ",
"@:3}23:1,+",
"*2}#]]@/_%",
";23]..'|<=",
"-22]..)1_=",
"&[:@')+{!%",
"+~1(|1{^>+",
" ={__^!,% ",
"  $===$+  "};
