/* XPM */
static char * go_folders_xpm[] = {
"24 24 87 1",
" 	c None",
".	c #000000",
"+	c #5695E8",
"@	c #6FAAF5",
"#	c #74AEF6",
"$	c #4C89E6",
"%	c #4B89E7",
"&	c #5A98F0",
"*	c #68A7F5",
"=	c #67A6F4",
"-	c #5593EE",
";	c #4681E6",
">	c #79AEF8",
",	c #5F9DF4",
"'	c #65A2F6",
")	c #609DF4",
"!	c #63A0F4",
"~	c #5591F1",
"{	c #67A2F4",
"]	c #538FEF",
"^	c #4780EC",
"/	c #4C88ED",
"(	c #5792F1",
"_	c #224AA4",
":	c #2957BE",
"<	c #346ADB",
"[	c #D2EAFD",
"}	c #CFEAFD",
"|	c #C6E6FD",
"1	c #C4E5FD",
"2	c #C4E4FD",
"3	c #C2E3FD",
"4	c #B8DDFB",
"5	c #80BBF1",
"6	c #1D3E8C",
"7	c #2650B0",
"8	c #ACD7FB",
"9	c #A8D5FB",
"0	c #A7D4FA",
"a	c #9ECEF9",
"b	c #67A7EB",
"c	c #1C3A80",
"d	c #204396",
"e	c #EAC0BA",
"f	c #9BCCF9",
"g	c #98CBF9",
"h	c #92C7F8",
"i	c #71AEEF",
"j	c #3470CA",
"k	c #1D3D88",
"l	c #DF9E95",
"m	c #93C8F8",
"n	c #80BDF5",
"o	c #6BACEB",
"p	c #1B3781",
"q	c #E0A198",
"r	c #E1A59D",
"s	c #E2A79E",
"t	c #E3ABA3",
"u	c #E3AAA2",
"v	c #CC6253",
"w	c #86BEF7",
"x	c #84BEF7",
"y	c #7FBAF6",
"z	c #5E9EEA",
"A	c #3064BF",
"B	c #DD978D",
"C	c #DF9F97",
"D	c #DE9A90",
"E	c #DD968C",
"F	c #DD948A",
"G	c #B14334",
"H	c #70AEF4",
"I	c #6FADF4",
"J	c #67A7F1",
"K	c #64A4EF",
"L	c #498BE7",
"M	c #431913",
"N	c #EAC2BC",
"O	c #DF9C92",
"P	c #DD998F",
"Q	c #B54535",
"R	c #65261D",
"S	c #983A2C",
"T	c #7C2F24",
"U	c #63251D",
"V	c #6C291F",
"                        ",
"                        ",
"                        ",
"                        ",
"        ....            ",
"       .+@#$.           ",
"      .%&*=-;......     ",
"      .>,')!~{]^^/(.    ",
"     ..........._:<.    ",
"    .[}|11212345.67.    ",
"    ...8909090ab.cd.    ",
"    .e.ffggggghij.k.    ",
"   .el.......mhno.p.    ",
"  .eqrstsulv.wxyzA..    ",
" .eBClDEEDFG.HIJKL..    ",
"MNDOPPBDDDDQ.......     ",
" .RSSSSSSSST.           ",
"  .RSSUUUUUV.           ",
"   .RS.......           ",
"    .R.                 ",
"     ..                 ",
"      .                 ",
"                        ",
"                        "};
