/* XPM */
static char * gpg_signed_xpm[] = {
"11 12 28 1",
" 	c None",
".	c #D39C0A",
"+	c #E4AB0B",
"@	c #DA7D25",
"#	c #E4B600",
"$	c #E96B00",
"%	c #DA2D01",
"&	c #E9AD00",
"*	c #E94500",
"=	c #B11E04",
"-	c #E7BC01",
";	c #E99400",
">	c #E02F00",
",	c #E9BD00",
"'	c #E97800",
")	c #CA2B04",
"!	c #E7C50E",
"~	c #E9B802",
"{	c #E55902",
"]	c #E9CE07",
"^	c #E9AB06",
"/	c #D64707",
"(	c #E9CF16",
"_	c #E69E0E",
":	c #C86B37",
"<	c #E6CF8D",
"[	c #C47535",
"}	c #853823",
"           ",
"      .+@  ",
"      #$%  ",
"      &*=  ",
"     -;>   ",
"     ,')   ",
"    !~{    ",
"    ]^/    ",
"    (_:    ",
"    <[     ",
"    }      ",
"           "};
