/* XPM */
static char * inbox_open_hrm_xpm[] = {
"16 16 6 1",
" 	c None",
".	c #9B0007",
"+	c #050000",
"@	c #FD5484",
"#	c #FEC9D8",
"$	c #B41133",
"  .             ",
" ...    +       ",
"  ... ++@+      ",
"   ...@.@#+     ",
"  ++....$##+    ",
"++@@@...@$##+   ",
"+#+@....##$##+  ",
"+##+@@#####$##+ ",
"+###+@@#####$#@+",
" +###+@@@####$#+",
"  +###+@@####@$+",
"   +###+@@#@@@@+",
"    +##@$@@@@++ ",
"     +##+@@++   ",
"      +#+++     ",
"       ++       "};
