/* XPM */
static char * inbox_open_mark_xpm[] = {
"16 16 8 1",
" 	c None",
".	c #920A0C",
"+	c #FFFFFF",
"@	c #020204",
"#	c #000000",
"$	c #A9A9AA",
"%	c #F3F3F1",
"&	c #636364",
"  .          ++ ",
" ...    @   +#+ ",
"  ... @@$@ +##+ ",
"   ..++.$%+###+ ",
"  @@.+#+&+###+  ",
"@@$$$+##+###+   ",
"@%@$.+#####+%@  ",
"@%%@$$+###+&%%@ ",
"@%%%@$$+#+%%&%$@",
" @%%%@$$+%%%%&%@",
"  @%%%@$$%%%%$&@",
"   @%%%@$$%$$$$@",
"    @%%$&$$$$@@ ",
"     @%%@$$@@   ",
"      @%@@@     ",
"       @@       "};
