/* XPM */
static char * key_gpg_signed_xpm[] = {
"11 12 19 1",
" 	c None",
".	c #D39C0A",
"+	c #E4AB0B",
"@	c #DA7D25",
"#	c #E4B600",
"$	c #E96B00",
"%	c #DA2D01",
"&	c #E9AD00",
"*	c #E94500",
"=	c #B11E04",
"-	c #E7BC01",
";	c #E99400",
">	c #E02F00",
",	c #E9BD00",
"'	c #E97800",
")	c #040204",
"!	c #E7C50E",
"~	c #E9B802",
"{	c #FCFE04",
"           ",
"      .+@  ",
"      #$%  ",
"      &*=  ",
"     -;>   ",
"     ,'))) ",
"    !~){{{)",
" ))))){{{{)",
"){{{{{{{){)",
" ){){){{{{)",
"  ) ) ){{{)",
"       ))) "};
