/* XPM */
static char * mail_reply_to_author_xpm[] = {
"24 24 107 2",
"  	c None",
". 	c #030003",
"+ 	c #5A405A",
"@ 	c #1F2C61",
"# 	c #41518B",
"$ 	c #848E64",
"% 	c #24326C",
"& 	c #152254",
"* 	c #162661",
"= 	c #999999",
"- 	c #000000",
"; 	c #FFF1E6",
"> 	c #FEDFB9",
", 	c #DD9C73",
"' 	c #B1693F",
") 	c #B07147",
"! 	c #0C163F",
"~ 	c #535353",
"{ 	c #FFFFFF",
"] 	c #FEFEFE",
"^ 	c #FDFDFD",
"/ 	c #FCFCFC",
"( 	c #FBFBFB",
"_ 	c #F9F9F9",
": 	c #F8F8F8",
"< 	c #BF8270",
"[ 	c #FFE6C1",
"} 	c #B16637",
"| 	c #C37B43",
"1 	c #B16E49",
"2 	c #0D173F",
"3 	c #EEEEEE",
"4 	c #4F4F4F",
"5 	c #F5F5F5",
"6 	c #F4F4F4",
"7 	c #F3F3F3",
"8 	c #F2F2F2",
"9 	c #F1F1F1",
"0 	c #F0F0F0",
"a 	c #512311",
"b 	c #FFF0DE",
"c 	c #2E1307",
"d 	c #AE6535",
"e 	c #CD8C5E",
"f 	c #C07D4D",
"g 	c #E4E4E4",
"h 	c #434343",
"i 	c #EFEFEF",
"j 	c #FFEDD9",
"k 	c #B46E3B",
"l 	c #DC9956",
"m 	c #E4A159",
"n 	c #D18C4E",
"o 	c #96532B",
"p 	c #EDEDED",
"q 	c #FFE7C8",
"r 	c #EEBF9B",
"s 	c #EEB164",
"t 	c #D08A4C",
"u 	c #1D1A1D",
"v 	c #ECECEC",
"w 	c #E3E3E3",
"x 	c #CD8A64",
"y 	c #BC753F",
"z 	c #D0874A",
"A 	c #B36D39",
"B 	c #2B292B",
"C 	c #323032",
"D 	c #3E3E3E",
"E 	c #4D4D4D",
"F 	c #3D1A13",
"G 	c #6A6A6A",
"H 	c #C6C6C6",
"I 	c #C8C8C8",
"J 	c #636363",
"K 	c #B9B9B9",
"L 	c #959595",
"M 	c #737373",
"N 	c #EAC0BA",
"O 	c #D4D4D4",
"P 	c #ACACAC",
"Q 	c #7C7C7C",
"R 	c #DF9E95",
"S 	c #E0A198",
"T 	c #E1A59D",
"U 	c #E2A79E",
"V 	c #E3ABA3",
"W 	c #E3AAA2",
"X 	c #CC6253",
"Y 	c #DD978D",
"Z 	c #DF9F97",
"` 	c #DE9A90",
" .	c #DD968C",
"..	c #DD948A",
"+.	c #B14334",
"@.	c #BCBCBC",
"#.	c #431913",
"$.	c #EAC2BC",
"%.	c #DF9C92",
"&.	c #DD998F",
"*.	c #B54535",
"=.	c #787878",
"-.	c #65261D",
";.	c #983A2C",
">.	c #7C2F24",
",.	c #63251D",
"'.	c #6C291F",
"                                                ",
"                                . . . . . +     ",
"                              . @ # $ % & * .   ",
"      = - - - - - - - - - - - . ; > , ' ) ! .   ",
"      - ~ { { { { ] ^ / ( _ : . < [ } | 1 2 .   ",
"      - 3 4 { 5 6 7 8 8 9 0 0 . a b c d e f .   ",
"      - { g h ^ 7 8 8 9 0 i 3 . j k l m n o .   ",
"      - { 5 g 4 ( 9 0 0 i 3 p . q r l s t . u   ",
"      - { ( 5 g h : 0 i 3 p v w . x y z A B C   ",
"      - { 5 5 5 g D 5 3 p v w E . . . . . -     ",
"      - { ( F 5 g G h 7 v w 4 G H H 5 g I -     ",
"      - { - - g J { K 4 0 4 L H M H 5 g I -     ",
"      - - N - J { 5 g O 4 P H g g Q g g I -     ",
"      - N R - - - - - - - g 5 5 5 g Q g I -     ",
"    - N S T U V U W R X - g g g g g g Q I -     ",
"  - N Y Z R `  . .` ..+.- @.@.@.@.@.@.@.J -     ",
"#.$.` %.&.&.Y ` ` ` ` *.- - - - - - - - - =.    ",
"  - -.;.;.;.;.;.;.;.;.>.-                       ",
"    - -.;.;.,.,.,.,.,.'.-                       ",
"      - -.;.- - - - - - -                       ",
"        - -.-                                   ",
"          - -                                   ",
"            -                                   ",
"                                                "};
