/* XPM */
static char * mail_send_xpm[] = {
"24 24 61 1",
" 	c None",
".	c #4F3F0A",
"+	c #000000",
"@	c #F4E6B5",
"#	c #F4E5B3",
"$	c #EDD684",
"%	c #755F10",
"&	c #EDD580",
"*	c #EED685",
"=	c #AF8D18",
"-	c #EFD98C",
";	c #EED88B",
">	c #EDD582",
",	c #EED889",
"'	c #EFDA92",
")	c #999999",
"!	c #F0DB93",
"~	c #735D10",
"{	c #929292",
"]	c #535353",
"^	c #FFFFFF",
"/	c #F0DC97",
"(	c #F6F6F6",
"_	c #F5F5F5",
":	c #F4F4F4",
"<	c #E3E3E3",
"[	c #EEEEEE",
"}	c #4F4F4F",
"|	c #EDD37C",
"1	c #EDEDED",
"2	c #AEAEAE",
"3	c #E4E4E4",
"4	c #434343",
"5	c #FDFDFD",
"6	c #F3F3F3",
"7	c #E4BF3D",
"8	c #CBA41C",
"9	c #D1A81C",
"0	c #907413",
"a	c #7C6411",
"b	c #ACACAC",
"c	c #C8C8C8",
"d	c #FBFBFB",
"e	c #A0A0A0",
"f	c #D4D4D4",
"g	c #F8F8F8",
"h	c #F0F0F0",
"i	c #EFEFEF",
"j	c #ECECEC",
"k	c #959595",
"l	c #3E3E3E",
"m	c #4D4D4D",
"n	c #818181",
"o	c #C6C6C6",
"p	c #6A6A6A",
"q	c #636363",
"r	c #B9B9B9",
"s	c #737373",
"t	c #7C7C7C",
"u	c #BCBCBC",
"v	c #787878",
"                        ",
"           .            ",
"          +@+           ",
"         +#$%+          ",
"        +#&*=%+         ",
"       +#-;>==%+        ",
"      +#,',>===%+       ",
"  )++++++!$&=~++++++{   ",
"  +]^^^^+/$$=~+(_:<]+   ",
"  +[}^_:+,|$=~+[1<}2+   ",
"  +^3456+7890a+1<}bc+   ",
"  +^_3}d+++++++<4efc+   ",
"  +^d_34ghi[1j<}kf3c+   ",
"  +^___3l_[1j<mno33c+   ",
"  +^d__3p46j<}poo_3c+   ",
"  +^__3q^r}h}koso_3c+   ",
"  +^d3q^_3f}bo33t33c+   ",
"  +^3s^____33___3t3c+   ",
"  +^t^333333333333tc+   ",
"  +suuuuuuuuuuuuuuuq+   ",
"  {+++++++++++++++++v   ",
"                        ",
"                        ",
"                        "};
