/* XPM */
static char * mail_reply_xpm[] = {
"24 24 70 1",
" 	c None",
".	c #999999",
"+	c #000000",
"@	c #929292",
"#	c #535353",
"$	c #FFFFFF",
"%	c #FEFEFE",
"&	c #FDFDFD",
"*	c #FCFCFC",
"=	c #FBFBFB",
"-	c #F9F9F9",
";	c #F8F8F8",
">	c #F7F7F7",
",	c #F6F6F6",
"'	c #F5F5F5",
")	c #F4F4F4",
"!	c #E3E3E3",
"~	c #EEEEEE",
"{	c #4F4F4F",
"]	c #F3F3F3",
"^	c #F2F2F2",
"/	c #F1F1F1",
"(	c #F0F0F0",
"_	c #EFEFEF",
":	c #EDEDED",
"<	c #AEAEAE",
"[	c #E4E4E4",
"}	c #434343",
"|	c #ACACAC",
"1	c #C8C8C8",
"2	c #A0A0A0",
"3	c #D4D4D4",
"4	c #ECECEC",
"5	c #959595",
"6	c #3E3E3E",
"7	c #4D4D4D",
"8	c #818181",
"9	c #C6C6C6",
"0	c #3D1A13",
"a	c #6A6A6A",
"b	c #636363",
"c	c #B9B9B9",
"d	c #737373",
"e	c #EAC0BA",
"f	c #7C7C7C",
"g	c #DF9E95",
"h	c #E0A198",
"i	c #E1A59D",
"j	c #E2A79E",
"k	c #E3ABA3",
"l	c #E3AAA2",
"m	c #CC6253",
"n	c #DD978D",
"o	c #DF9F97",
"p	c #DE9A90",
"q	c #DD968C",
"r	c #DD948A",
"s	c #B14334",
"t	c #BCBCBC",
"u	c #431913",
"v	c #EAC2BC",
"w	c #DF9C92",
"x	c #DD998F",
"y	c #B54535",
"z	c #787878",
"A	c #65261D",
"B	c #983A2C",
"C	c #7C2F24",
"D	c #63251D",
"E	c #6C291F",
"                        ",
"                        ",
"                        ",
"   .+++++++++++++++++@  ",
"   +#$$$$%&*=-;>,')!#+  ",
"   +~{$')]^^/((_~:!{<+  ",
"   +$[}&]^^/(_~~:!{|1+  ",
"   +$'[{=/((_~::!}231+  ",
"   +$='[};(_~:4!{53[1+  ",
"   +$'''[6'~:4!789[[1+  ",
"   +$=0'[a}]4!{a99'[1+  ",
"   +$++[b$c{({59d9'[1+  ",
"   ++e+b$'[3{|9[[f[[1+  ",
"   +eg+++++++['''[f[1+  ",
"  +ehijkjlgm+[[[[[[f1+  ",
" +enogpqqprs+tttttttb+  ",
"uvpwxxnppppy+++++++++z  ",
" +ABBBBBBBBC+           ",
"  +ABBDDDDDE+           ",
"   +AB+++++++           ",
"    +A+                 ",
"     ++                 ",
"      +                 ",
"                        "};
