/* XPM */
static char * mail_reply_to_list_xpm[] = {
"24 24 90 1",
" 	c None",
".	c #434035",
"+	c #3D3A30",
"@	c #3E3B31",
"#	c #282210",
"$	c #000000",
"%	c #404040",
"&	c #363636",
"*	c #252525",
"=	c #B0B0B0",
"-	c #312F26",
";	c #FFFFFF",
">	c #D6D6D6",
",	c #1B1B1B",
"'	c #A7A7A7",
")	c #8F8F8F",
"!	c #141414",
"~	c #999999",
"{	c #050403",
"]	c #020202",
"^	c #535353",
"/	c #FEFEFE",
"(	c #FDFDFD",
"_	c #FCFCFC",
":	c #FBFBFB",
"<	c #F9F9F9",
"[	c #F8F8F8",
"}	c #12110E",
"|	c #6D6D6D",
"1	c #636363",
"2	c #767676",
"3	c #EEEEEE",
"4	c #4F4F4F",
"5	c #F5F5F5",
"6	c #F4F4F4",
"7	c #F3F3F3",
"8	c #F2F2F2",
"9	c #F1F1F1",
"0	c #F0F0F0",
"a	c #131313",
"b	c #E4E4E4",
"c	c #434343",
"d	c #EFEFEF",
"e	c #121212",
"f	c #EDEDED",
"g	c #251F0C",
"h	c #ECECEC",
"i	c #3E3E3E",
"j	c #E3E3E3",
"k	c #969696",
"l	c #3D3D3D",
"m	c #0B0B0B",
"n	c #060606",
"o	c #222222",
"p	c #3D1A13",
"q	c #6A6A6A",
"r	c #C6C6C6",
"s	c #C8C8C8",
"t	c #B9B9B9",
"u	c #959595",
"v	c #737373",
"w	c #EAC0BA",
"x	c #D4D4D4",
"y	c #ACACAC",
"z	c #7C7C7C",
"A	c #DF9E95",
"B	c #E0A198",
"C	c #E1A59D",
"D	c #E2A79E",
"E	c #E3ABA3",
"F	c #E3AAA2",
"G	c #CC6253",
"H	c #DD978D",
"I	c #DF9F97",
"J	c #DE9A90",
"K	c #DD968C",
"L	c #DD948A",
"M	c #B14334",
"N	c #BCBCBC",
"O	c #431913",
"P	c #EAC2BC",
"Q	c #DF9C92",
"R	c #DD998F",
"S	c #B54535",
"T	c #787878",
"U	c #65261D",
"V	c #983A2C",
"W	c #7C2F24",
"X	c #63251D",
"Y	c #6C291F",
"               .+@#$%&*=",
"               -;;;;;;>,",
"               .;')););!",
"   ~$$$$$$$$$$${;;;;;;;]",
"   $^;;;;/(_:<[};|1;2);]",
"   $34;56788900-;;;;;;;a",
"   $;bc(78890d3.;')););e",
"   $;5b4:900d3fg;;;;;;;a",
"   $;:5bc[0d3fh$>;;;;;;$",
"   $;555bi53fhjklaeamnoo",
"   $;:p5bqc7hj4qrr5bs$  ",
"   $;$$b1;t404urvr5bs$  ",
"   $$w$1;5bx4yrbbzbbs$  ",
"   $wA$$$$$$$b555bzbs$  ",
"  $wBCDEDFAG$bbbbbbzs$  ",
" $wHIAJKKJLM$NNNNNNN1$  ",
"OPJQRRHJJJJS$$$$$$$$$T  ",
" $UVVVVVVVVW$           ",
"  $UVVXXXXXY$           ",
"   $UV$$$$$$$           ",
"    $U$                 ",
"     $$                 ",
"      $                 ",
"                        "};
