/* XPM */
static char * mail_xpm[] = {
"24 24 58 1",
" 	c None",
".	c #000000",
"+	c #B8CADB",
"@	c #C5D4E3",
"#	c #687B8D",
"$	c #D8D8D8",
"%	c #CFDBE6",
"&	c #9DB8D2",
"*	c #728699",
"=	c #BCCEDF",
"-	c #FFFFFF",
";	c #D2DEEA",
">	c #C0D1E2",
",	c #CFDBE7",
"'	c #798EA3",
")	c #D0DDE9",
"!	c #B7CBDE",
"~	c #B6CADD",
"{	c #B7CADD",
"]	c #BACCDF",
"^	c #9FB9D3",
"/	c #999999",
"(	c #535353",
"_	c #FEFEFE",
":	c #FDFDFD",
"<	c #7E94A9",
"[	c #EEEEEE",
"}	c #4F4F4F",
"|	c #F5F5F5",
"1	c #F4F4F4",
"2	c #F3F3F3",
"3	c #F2F2F2",
"4	c #A4BDD5",
"5	c #BABABA",
"6	c #E4E4E4",
"7	c #434343",
"8	c #FBFBFB",
"9	c #F1F1F1",
"0	c #F0F0F0",
"a	c #F8F8F8",
"b	c #3E3E3E",
"c	c #556474",
"d	c #2A303A",
"e	c #6A6A6A",
"f	c #ECECEC",
"g	c #E3E3E3",
"h	c #C6C6C6",
"i	c #C8C8C8",
"j	c #636363",
"k	c #B9B9B9",
"l	c #959595",
"m	c #737373",
"n	c #D4D4D4",
"o	c #ACACAC",
"p	c #7C7C7C",
"q	c #BCBCBC",
"r	c #929292",
"s	c #787878",
"                        ",
"           ............ ",
"          .+@#$$$$$$%&*.",
"          .=&#------;&*.",
"          .>&#$$$$$$,&*.",
"          .>&'------)&*.",
"          .>&&!~~{{]^&*.",
"  /........>&&&&&&&&&&*.",
"  .(----_:.>&&<<<<<<&&*.",
"  .[}-|123.>4<$$5$-$<&*.",
"  .-67:233.>&<$5$-<$<&*.",
"  .-|6}890.>&<$5-$<$<&*.",
"  .-8|67a0.=&<5$-$$$<**.",
"  .-|||6b|[.c........d. ",
"  .-8||6e72fg}ehh|6i.   ",
"  .-||6j-k}0}lhmh|6i.   ",
"  .-86j-|6n}oh66p66i.   ",
"  .-6m-||||66|||6p6i.   ",
"  .-p-666666666666pi.   ",
"  .mqqqqqqqqqqqqqqqj.   ",
"  r.................s   ",
"                        ",
"                        ",
"                        "};
