/* XPM */
static char * mail_forward_xpm[] = {
"24 24 67 1",
" 	c None",
".	c #999999",
"+	c #000000",
"@	c #929292",
"#	c #535353",
"$	c #FFFFFF",
"%	c #FEFEFE",
"&	c #FDFDFD",
"*	c #FCFCFC",
"=	c #FBFBFB",
"-	c #F9F9F9",
";	c #F8F8F8",
">	c #F7F7F7",
",	c #F6F6F6",
"'	c #F5F5F5",
")	c #F4F4F4",
"!	c #E3E3E3",
"~	c #EEEEEE",
"{	c #4F4F4F",
"]	c #F3F3F3",
"^	c #F2F2F2",
"/	c #F1F1F1",
"(	c #F0F0F0",
"_	c #EFEFEF",
":	c #EDEDED",
"<	c #AEAEAE",
"[	c #E4E4E4",
"}	c #434343",
"|	c #ACACAC",
"1	c #C8C8C8",
"2	c #A0A0A0",
"3	c #D4D4D4",
"4	c #ECECEC",
"5	c #959595",
"6	c #3E3E3E",
"7	c #4D4D4D",
"8	c #818181",
"9	c #C6C6C6",
"0	c #6A6A6A",
"a	c #636363",
"b	c #B9B9B9",
"c	c #737373",
"d	c #7C7C7C",
"e	c #5B88B2",
"f	c #9EB8D1",
"g	c #5080AD",
"h	c #B5C9DC",
"i	c #AFC5DA",
"j	c #B2C7DB",
"k	c #B6CADD",
"l	c #A4BDD5",
"m	c #9CB7D1",
"n	c #080D11",
"o	c #BCBCBC",
"p	c #9BB6D0",
"q	c #A0BAD3",
"r	c #9AB5CF",
"s	c #97B3CE",
"t	c #5F8BB4",
"u	c #91B0CC",
"v	c #95B2CE",
"w	c #4C79A3",
"x	c #49749C",
"y	c #3F6588",
"z	c #2A435B",
"A	c #456F96",
"B	c #375978",
"                        ",
"                        ",
"                        ",
" .+++++++++++++++++@    ",
" +#$$$$%&*=-;>,')!#+    ",
" +~{$')]^^/((_~:!{<+    ",
" +$[}&]^^/(_~~:!{|1+    ",
" +$'[{=/((_~::!}231+    ",
" +$='[};(_~:4!{53[1+    ",
" +$'''[6'~:4!789[[1+    ",
" +$=''[0}]4!{099'+1+    ",
" +$''[a$b{({59c9'+++    ",
" +$=[a$'[3{|9[[d[+e+    ",
" +$[c$''''[+++++++fg+   ",
" +$d$[[[[[[+hijkkklmgn  ",
" +coooooooo+pqmmprqmst+ ",
" @++++++++++ufrrpmmmqvw+",
"           +xyyyyyyyyz+ ",
"           +ABBBBByyz+  ",
"           +++++++yz+   ",
"                 +z+    ",
"                 ++     ",
"                 +      ",
"                        "};
