/* XPM */
static char * mail_receive_xpm[] = {
"24 24 69 1",
" 	c None",
".	c #000000",
"+	c #C9DBC7",
"@	c #C9DAC7",
"#	c #819A79",
"$	c #58754D",
"%	c #B2C9B0",
"&	c #A9C4A7",
"*	c #ADC8AB",
"=	c #5B7950",
"-	c #4D6744",
";	c #BBD0B9",
">	c #AEC7AC",
",	c #2B2B2B",
"'	c #B9CEB7",
")	c #AAC7A8",
"!	c #CDDECB",
"~	c #B1C9B0",
"{	c #B5CEB5",
"]	c #B0C9B0",
"^	c #ADC6AB",
"/	c #4D6844",
"(	c #B4CBB2",
"_	c #B3CAB1",
":	c #999999",
"<	c #B0C7AE",
"[	c #929292",
"}	c #535353",
"|	c #FFFFFF",
"1	c #FEFEFE",
"2	c #54714A",
"3	c #F7F7F7",
"4	c #F6F6F6",
"5	c #F5F5F5",
"6	c #F4F4F4",
"7	c #E3E3E3",
"8	c #EEEEEE",
"9	c #4F4F4F",
"0	c #F3F3F3",
"a	c #F2F2F2",
"b	c #CFDFCC",
"c	c #F0F0F0",
"d	c #EFEFEF",
"e	c #EDEDED",
"f	c #AEAEAE",
"g	c #E4E4E4",
"h	c #434343",
"i	c #FDFDFD",
"j	c #F1F1F1",
"k	c #2D2D2D",
"l	c #ACACAC",
"m	c #C8C8C8",
"n	c #FBFBFB",
"o	c #A0A0A0",
"p	c #D4D4D4",
"q	c #F8F8F8",
"r	c #ECECEC",
"s	c #959595",
"t	c #3E3E3E",
"u	c #4D4D4D",
"v	c #818181",
"w	c #C6C6C6",
"x	c #6A6A6A",
"y	c #636363",
"z	c #B9B9B9",
"A	c #737373",
"B	c #7C7C7C",
"C	c #BCBCBC",
"D	c #787878",
"        .......         ",
"        .+@@#$.         ",
"        .%&*=-.         ",
"        .;>>=-.         ",
"     ,...'>)=-....      ",
"      .!~{]^===/.       ",
"       .!(_^==/.        ",
"  :......!)<=/......[   ",
"  .}||||1.!*2.34567}.   ",
"  .89|560a.b.cd8e79f.   ",
"  .|ghi0aajkd88e79lm.   ",
"  .|5g9njccd8ee7hopm.   ",
"  .|n5ghqcd8er79spgm.   ",
"  .|555gt58er7uvwggm.   ",
"  .|n55gxh0r79xww5gm.   ",
"  .|55gy|z9c9swAw5gm.   ",
"  .|ngy|5gp9lwggBggm.   ",
"  .|gA|5555gg555gBgm.   ",
"  .|B|ggggggggggggBm.   ",
"  .ACCCCCCCCCCCCCCCy.   ",
"  [.................D   ",
"                        ",
"                        ",
"                        "};
