/* XPM */
static char * mail_compose_xpm[] = {
"24 24 65 1",
" 	c None",
".	c #000000",
"+	c #BAA88F",
"@	c #836B4E",
"#	c #C5A985",
"$	c #DC9E55",
"%	c #9E6233",
"&	c #C3A783",
"*	c #DD9D53",
"=	c #A76631",
"-	c #C5AA88",
";	c #A86631",
">	c #C3A47A",
",	c #DD9D52",
"'	c #A66430",
")	c #999999",
"!	c #C2A174",
"~	c #DC9B4E",
"{	c #A96630",
"]	c #929292",
"^	c #535353",
"/	c #FFFFFF",
"(	c #FEFEFE",
"_	c #FDFDFD",
":	c #FCFCFC",
"<	c #FBFBFB",
"[	c #F9F9F9",
"}	c #F8F8F8",
"|	c #BEA686",
"1	c #DD9D51",
"2	c #AA682F",
"3	c #EEEEEE",
"4	c #4F4F4F",
"5	c #F5F5F5",
"6	c #F4F4F4",
"7	c #F3F3F3",
"8	c #F2F2F2",
"9	c #F1F1F1",
"0	c #F0F0F0",
"a	c #BCAC9B",
"b	c #A86E3F",
"c	c #AEAEAE",
"d	c #E4E4E4",
"e	c #434343",
"f	c #EFEFEF",
"g	c #ACACAC",
"h	c #C8C8C8",
"i	c #E3E3E3",
"j	c #A0A0A0",
"k	c #D4D4D4",
"l	c #EDEDED",
"m	c #EAEAEA",
"n	c #959595",
"o	c #3E3E3E",
"p	c #ECECEC",
"q	c #4D4D4D",
"r	c #818181",
"s	c #C6C6C6",
"t	c #6A6A6A",
"u	c #636363",
"v	c #B9B9B9",
"w	c #737373",
"x	c #7C7C7C",
"y	c #BCBCBC",
"z	c #787878",
"                        ",
"                     .. ",
"                    .+@.",
"                   .#$%.",
"                  .&*=. ",
"                 .-*;.  ",
"                .>,'.   ",
"  ).............!~{.]   ",
"  .^////(_:<[}.|12.^.   ",
"  .34/56788900.ab.4c.   ",
"  ./de_78890f....4gh.   ",
"  ./5d4<900f3..iejkh.   ",
"  ./<5de}0f3lmi4nkdh.   ",
"  ./555do53lpiqrsddh.   ",
"  ./<55dte7pi4tss5dh.   ",
"  ./55du/v404nsws5dh.   ",
"  ./<du/5dk4gsddxddh.   ",
"  ./dw/5555dd555dxdh.   ",
"  ./x/ddddddddddddxh.   ",
"  .wyyyyyyyyyyyyyyyu.   ",
"  ].................z   ",
"                        ",
"                        ",
"                        "};
