/* XPM */
static char * mail_receive_all_xpm[] = {
"24 24 89 1",
" 	c None",
".	c #000000",
"+	c #C9DBC7",
"@	c #C9DAC7",
"#	c #819A79",
"$	c #58754D",
"%	c #B2C9B0",
"&	c #A9C4A7",
"*	c #ADC8AB",
"=	c #5B7950",
"-	c #4D6744",
";	c #BBD0B9",
">	c #AEC7AC",
",	c #2B2B2B",
"'	c #B9CEB7",
")	c #AAC7A8",
"!	c #CDDECB",
"~	c #B1C9B0",
"{	c #B5CEB5",
"]	c #B0C9B0",
"^	c #ADC6AB",
"/	c #4D6844",
"(	c #999999",
"_	c #B4CBB2",
":	c #B3CAB1",
"<	c #929292",
"[	c #535353",
"}	c #FFFFFF",
"|	c #FEFEFE",
"1	c #FDFDFD",
"2	c #B0C7AE",
"3	c #F4F4F4",
"4	c #E3E3E3",
"5	c #EEEEEE",
"6	c #4F4F4F",
"7	c #F5F5F5",
"8	c #F3F3F3",
"9	c #F2F2F2",
"0	c #54714A",
"a	c #EDEDED",
"b	c #AEAEAE",
"c	c #E4E4E4",
"d	c #434343",
"e	c #F1F1F1",
"f	c #F0F0F0",
"g	c #CFDFCC",
"h	c #ACACAC",
"i	c #C8C8C8",
"j	c #898989",
"k	c #FBFBFB",
"l	c #EFEFEF",
"m	c #2D2D2D",
"n	c #A0A0A0",
"o	c #D4D4D4",
"p	c #D3D3D3",
"q	c #525252",
"r	c #F8F8F8",
"s	c #ECECEC",
"t	c #959595",
"u	c #BABABA",
"v	c #494949",
"w	c #3E3E3E",
"x	c #4D4D4D",
"y	c #818181",
"z	c #C6C6C6",
"A	c #414141",
"B	c #6A6A6A",
"C	c #838383",
"D	c #C5C5C5",
"E	c #636363",
"F	c #B9B9B9",
"G	c #737373",
"H	c #7C7C7C",
"I	c #BBBBBB",
"J	c #C9C9C9",
"K	c #BCBCBC",
"L	c #6B6B6B",
"M	c #686868",
"N	c #D6D6D6",
"O	c #D2D2D2",
"P	c #666666",
"Q	c #C0C0C0",
"R	c #CDCDCD",
"S	c #787878",
"T	c #C7C7C7",
"U	c #AFAFAF",
"V	c #B1B1B1",
"W	c #B6B6B6",
"X	c #919191",
"        .......         ",
"        .+@@#$.         ",
"        .%&*=-.         ",
"        .;>>=-.         ",
"     ,...'>)=-....      ",
"      .!~{]^===/.       ",
"(.......!_:^==/...<     ",
".[}}}}|1.!)2=/.34[.     ",
".56}73899.!*0.a46b.     ",
".}cd1899ef.g.a46hi....j ",
".}7c6keffl5ma4dnoi.ipq. ",
".}k7cdrfl5as46toci.uvh. ",
".}777cw75as4xyzcci.Anz. ",
".}k77cBd8s46Bzz7ci.CDz. ",
".}77cE}F6f6tzGz7ci.boz. ",
".}kcE}7co6hzccHcci.Ioz. ",
".}cG}7777cc777cHci.Joz. ",
".}H}ccccccccccccHi.Joz. ",
".GKKKKKKKKKKKKKKKE.Ioz. ",
"<.................LMNz. ",
"    .OPOIIIIIIIIIIQRST. ",
"    .LUUUUUUUUUUUUVWuE. ",
"    X.................S ",
"                        "};
