/* XPM */
static char * mail_sign_xpm[] = {
"24 24 168 2",
"  	c None",
". 	c #000000",
"+ 	c #FFFFFF",
"@ 	c #E0E0E0",
"# 	c #C1C1C1",
"$ 	c #F4F4F4",
"% 	c #FDFDFD",
"& 	c #FBFBFB",
"* 	c #C3C3C3",
"= 	c #A8A8A8",
"- 	c #F6F6F6",
"; 	c #FBFBFA",
"> 	c #FAFAFA",
", 	c #ADADAD",
"' 	c #767676",
") 	c #5D5D5D",
"! 	c #404040",
"~ 	c #F8F8F8",
"{ 	c #F3F3F3",
"] 	c #F8F8F6",
"^ 	c #E2E2E2",
"/ 	c #858585",
"( 	c #4B4B49",
"_ 	c #F2F2F2",
": 	c #F0F0F0",
"< 	c #EFEFEF",
"[ 	c #D5D5D5",
"} 	c #F9F9F9",
"| 	c #F6F6F3",
"1 	c #F3F3F0",
"2 	c #EDEDED",
"3 	c #EDEDEA",
"4 	c #EAEAE7",
"5 	c #E5E5E5",
"6 	c #DFDFDF",
"7 	c #EBEBEB",
"8 	c #F6F6F4",
"9 	c #EBEBE9",
"0 	c #E9E9E7",
"a 	c #E0E0DE",
"b 	c #BFBFBF",
"c 	c #F0F0ED",
"d 	c #E7E7E5",
"e 	c #E5E5E2",
"f 	c #E2E2DF",
"g 	c #DFDFDC",
"h 	c #DCDCD9",
"i 	c #D9D9D9",
"j 	c #D9D9D6",
"k 	c #D6D6D4",
"l 	c #E5E5E4",
"m 	c #D7D7D5",
"n 	c #BABABA",
"o 	c #E9E9E9",
"p 	c #E4E4E2",
"q 	c #E2E2E0",
"r 	c #D3D3D1",
"s 	c #EEEEEC",
"t 	c #9DA3B7",
"u 	c #9BA1B7",
"v 	c #D4D4D1",
"w 	c #DEDEDC",
"x 	c #DEDEDB",
"y 	c #D9D9D7",
"z 	c #BDBDBC",
"A 	c #E7E7E7",
"B 	c #EFEFED",
"C 	c #A4ABBF",
"D 	c #223675",
"E 	c #DBDBD9",
"F 	c #1A2E70",
"G 	c #989FB3",
"H 	c #BCBCBC",
"I 	c #E3E3E3",
"J 	c #999FB3",
"K 	c #505F8C",
"L 	c #D1D1CF",
"M 	c #CFCFC9",
"N 	c #CBCBC7",
"O 	c #C9C9C7",
"P 	c #DBDBD7",
"Q 	c #213574",
"R 	c #C8C8C7",
"S 	c #B4B4B4",
"T 	c #E4E4E4",
"U 	c #A2A9BD",
"V 	c #1D3172",
"W 	c #D9D9D5",
"X 	c #273A77",
"Y 	c #6F7A9D",
"Z 	c #D0D0CE",
"` 	c #BABAB8",
" .	c #DDDDDB",
"..	c #6C789B",
"+.	c #192E6F",
"@.	c #4E5D8A",
"#.	c #263975",
"$.	c #8E95A8",
"%.	c #8C93A6",
"&.	c #C4C4BF",
"*.	c #C1C1BC",
"=.	c #989FB1",
"-.	c #152A6D",
";.	c #D3D3D0",
">.	c #213473",
",.	c #DCDCDB",
"'.	c #747FA1",
").	c #3F5085",
"!.	c #223574",
"~.	c #283A77",
"{.	c #1D3171",
"].	c #D5D5D3",
"^.	c #172C6E",
"/.	c #52608D",
"(.	c #273A76",
"_.	c #6C7799",
":.	c #D1D1D0",
"<.	c #CACAC8",
"[.	c #B6B6B6",
"}.	c #687394",
"|.	c #192D6F",
"1.	c #8A91A3",
"2.	c #4A5986",
"3.	c #1F3372",
"4.	c #2D3E78",
"5.	c #858BA0",
"6.	c #172B6E",
"7.	c #B8B8B2",
"8.	c #485683",
"9.	c #B4B4B2",
"0.	c #D1D1CE",
"a.	c #C5C5C1",
"b.	c #989FB4",
"c.	c #3F4F84",
"d.	c #3E4E82",
"e.	c #D0D0CC",
"f.	c #CECECA",
"g.	c #B8B8B8",
"h.	c #CECEC9",
"i.	c #BFBFB9",
"j.	c #1B2F70",
"k.	c #BCBCB8",
"l.	c #B9B9B4",
"m.	c #B4B4AF",
"n.	c #37477B",
"o.	c #B2B2AF",
"p.	c #B2B2AD",
"q.	c #CCCCC8",
"r.	c #B8B8B6",
"s.	c #3D4E82",
"t.	c #CECECC",
"u.	c #CCCCCA",
"v.	c #9298AB",
"w.	c #CACAC7",
"x.	c #C1C1BD",
"y.	c #B3B3B3",
"z.	c #959BAF",
"A.	c #C8C8C5",
"B.	c #C7C7C3",
"C.	c #B1B1AF",
"D.	c #B4B4B3",
"E.	c #B4B4B1",
"F.	c #B3B3B1",
"G.	c #B3B3AF",
"H.	c #B1B1AD",
"I.	c #AFAFAD",
"J.	c #B6B6B4",
"K.	c #929290",
"                                                ",
". . . . . . . . . . . . . . . . . .             ",
". + + + + + + + + + + + + + + . @ # .           ",
". + $ + + + + + % % % % % % % & * & = .         ",
". + - + + + % % % % % % & & ; > , ' ) ! .       ",
". + - + & & & & ~ ~ ~ - - - { ] ^ / ( . .       ",
". + $ % % & & ; > > > ~ ] - $ _ : < [ , .       ",
". + _ } - - | { { 1 : 2 3 4 5 ^ 6 7 ^ # .       ",
". + : ~ ~ ~ ] - 8 $ _ : < 2 7 9 0 0 a b .       ",
". + < { : c 2 3 4 d e f g h i j k l m n .       ",
". + 2 $ $ _ : < 2 7 o 0 d l l p a q r n .       ",
". + 7 s d 5 f g t u j k v q a w x w y z .       ",
". + A B 7 9 0 C D l p q a w x h E F G H .       ",
". + 5 I i j J F K L M N O h P y m Q R S .       ",
". + q l T U V F w x h E P W X G X Y Z ` .       ",
". + w  ...+.@.O #.$.%.&.*.=.-.;.>.;.Z ` .       ",
". + ,.'.V ).F !.~.{.].^./.^.>.(._.:.<.[..       ",
". + E X $.}.|.1.2.3.4.|.5.6.7.8.9.0.a.S .       ",
". + b.y c.F d.r ;.;.K e.e.>.f.f.f.e.f.g..       ",
". + r h.i.j.k.k.l.7.7.m.n.m.o.o.p.f.q.r..       ",
". + ].;.s.>.Z e.t.f.f.u.v.q.q.w.w.q.x.y..       ",
". + :.0.z.t.f.f.f.f.q.q.q.w.w.A.A.q.B.S .       ",
". + C.D.E.E.E.F.F.G.G.G.C.H.H.I.I.G.J.K..       ",
". . . . . . . . . . . . . . . . . . . . .       "};
