/* XPM */
static char * mail_reply_to_all_xpm[] = {
"24 24 100 2",
"  	c None",
". 	c #030003",
"+ 	c #5A405A",
"@ 	c #1F2C61",
"# 	c #41518B",
"$ 	c #848E64",
"% 	c #24326C",
"& 	c #152254",
"* 	c #162661",
"= 	c #999999",
"- 	c #000000",
"; 	c #FFF1E6",
"> 	c #FEDFB9",
", 	c #DD9C73",
"' 	c #B1693F",
") 	c #B07147",
"! 	c #0C163F",
"~ 	c #535353",
"{ 	c #FFFFFF",
"] 	c #FEFEFE",
"^ 	c #FDD17B",
"/ 	c #BF8270",
"( 	c #FFE6C1",
"_ 	c #B16637",
": 	c #C37B43",
"< 	c #B16E49",
"[ 	c #0D173F",
"} 	c #EEEEEE",
"| 	c #4F4F4F",
"1 	c #F5F5F5",
"2 	c #F4F4F4",
"3 	c #F3F3F3",
"4 	c #F0B66B",
"5 	c #512311",
"6 	c #FFF0DE",
"7 	c #2E1307",
"8 	c #AE6535",
"9 	c #CD8C5E",
"0 	c #C07D4D",
"a 	c #E4E4E4",
"b 	c #434343",
"c 	c #FDFDFD",
"d 	c #F2F2F2",
"e 	c #FFEDD9",
"f 	c #B46E3B",
"g 	c #DC9956",
"h 	c #E4A159",
"i 	c #D18C4E",
"j 	c #96532B",
"k 	c #FBFBFB",
"l 	c #F1F1F1",
"m 	c #FFE7C8",
"n 	c #EEBF9B",
"o 	c #EEB164",
"p 	c #D08A4C",
"q 	c #1D1A1D",
"r 	c #F8F8F8",
"s 	c #F3B86A",
"t 	c #CD8A64",
"u 	c #BC753F",
"v 	c #D0874A",
"w 	c #B36D39",
"x 	c #2B292B",
"y 	c #3E3E3E",
"z 	c #3D1A13",
"A 	c #6A6A6A",
"B 	c #C6C6C6",
"C 	c #C8C8C8",
"D 	c #636363",
"E 	c #B9B9B9",
"F 	c #737373",
"G 	c #EAC0BA",
"H 	c #D4D4D4",
"I 	c #ACACAC",
"J 	c #7C7C7C",
"K 	c #DF9E95",
"L 	c #E0A198",
"M 	c #E1A59D",
"N 	c #E2A79E",
"O 	c #E3ABA3",
"P 	c #E3AAA2",
"Q 	c #CC6253",
"R 	c #DD978D",
"S 	c #DF9F97",
"T 	c #DE9A90",
"U 	c #DD968C",
"V 	c #DD948A",
"W 	c #B14334",
"X 	c #BCBCBC",
"Y 	c #431913",
"Z 	c #EAC2BC",
"` 	c #DF9C92",
" .	c #DD998F",
"..	c #B54535",
"+.	c #787878",
"@.	c #65261D",
"#.	c #983A2C",
"$.	c #7C2F24",
"%.	c #63251D",
"&.	c #6C291F",
"                                                ",
"                                . . . . . +     ",
"                              . @ # $ % & * .   ",
"      = - - - - - - - . . . . . ; > , ' ) ! .   ",
"      - ~ { { { { ] . ^ ^ ^ ^ . / ( _ : < [ .   ",
"      - } | { 1 2 3 . ; > , 4 . 5 6 7 8 9 0 .   ",
"      - { a b c 3 d . / ( _ : . e f g h i j .   ",
"      - { 1 a | k l . 5 6 7 8 . m n g o p . q   ",
"      - { k 1 a b r . e f g h s . t u v w x     ",
"      - { 1 1 1 a y . m n g o . . . . . . -     ",
"      - { k z 1 a A b . t u v . B B 1 a C -     ",
"      - { - - a D { E . . . . . F B 1 a C -     ",
"      - - G - D { 1 a H | I B a a J a a C -     ",
"      - G K - - - - - - - a 1 1 1 a J a C -     ",
"    - G L M N O N P K Q - a a a a a a J C -     ",
"  - G R S K T U U T V W - X X X X X X X D -     ",
"Y Z T `  . .R T T T T ..- - - - - - - - - +.    ",
"  - @.#.#.#.#.#.#.#.#.$.-                       ",
"    - @.#.#.%.%.%.%.%.&.-                       ",
"      - @.#.- - - - - - -                       ",
"        - @.-                                   ",
"          - -                                   ",
"            -                                   ",
"                                                "};
