/* XPM */
static char * mime_pdf_xpm[] = {
"16 16 71 1",
" 	c None",
".	c #000000",
"+	c #FEFEFE",
"@	c #FDFDFD",
"#	c #E0E0E0",
"$	c #C1C1C1",
"%	c #F1F1F1",
"&	c #C3C3C3",
"*	c #FBFBFB",
"=	c #A8A8A8",
"-	c #ADADAD",
";	c #767676",
">	c #5D5D5D",
",	c #404040",
"'	c #FEA6A6",
")	c #F3C7CA",
"!	c #F0F0F0",
"~	c #E2E2E2",
"{	c #858585",
"]	c #4B4B49",
"^	c #161616",
"/	c #EFEFEF",
"(	c #FFA7A9",
"_	c #F7C7C7",
":	c #EEEEEE",
"<	c #C5C5C5",
"[	c #FFA1A3",
"}	c #FEB8BA",
"|	c #ECECEC",
"1	c #C4C4C4",
"2	c #FF9797",
"3	c #FF9597",
"4	c #EBEBEB",
"5	c #EDEDED",
"6	c #ECEBEB",
"7	c #FF7F82",
"8	c #FF9191",
"9	c #F3D0CF",
"0	c #EAEAEA",
"a	c #E8E8E8",
"b	c #FCA4A4",
"c	c #F5B7B7",
"d	c #F3C5C5",
"e	c #FF575B",
"f	c #FF7575",
"g	c #FF8F8F",
"h	c #FBA1A5",
"i	c #C0C0C0",
"j	c #E9E7E7",
"k	c #F9B5B5",
"l	c #F1C5C5",
"m	c #E8E6E6",
"n	c #EED0D0",
"o	c #FF9194",
"p	c #F89B98",
"q	c #BFBFBF",
"r	c #F7B5B7",
"s	c #FF777A",
"t	c #EDCBCB",
"u	c #E6E6E6",
"v	c #E5E5E5",
"w	c #BEBEBE",
"x	c #FF7376",
"y	c #FAA6A6",
"z	c #E4E4E4",
"A	c #BDBDBD",
"B	c #E3E3E3",
"C	c #BBBBBB",
"D	c #C2C2C2",
"E	c #BCBCBC",
"F	c #A0A0A0",
"   .........    ",
"  .++++++@#$.   ",
"  .+%%%%%%&*=.  ",
"  .+%%%%%%-;>,. ",
"  .+%%%')!~{]^. ",
"  .+%//(_//::<. ",
"  .+///[}:::|1. ",
"  .@:::23:::4&. ",
"  .@5|6789000$. ",
"  .@4abcdefghi. ",
"  .@0jfklmnopq. ",
"  .@rstuuuuuvw. ",
"  .@xyuuuvvzzA. ",
"  .@uvvvzzBBBC. ",
"  .DAAAEECCCCF. ",
"   ...........  "};
