/* XPM */
static char *mime_application_xpm[] = {
/* columns rows colors chars-per-pixel */
"16 16 65 1",
"  c #B9B98A",
". c #B7B789",
"X c #CACA98",
"o c #444433",
"O c #24241B",
"+ c #29291F",
"@ c #2C2C22",
"# c #090907",
"$ c #25251D",
"% c #87876A",
"& c #AAAA87",
"* c #D4D4A9",
"= c #949477",
"- c #D7D7B1",
"; c #0C0C0A",
": c #B9B99B",
"> c #34342C",
", c #1B1B17",
"< c #C2C2A9",
"1 c #E4E4CD",
"2 c #505048",
"3 c #343430",
"4 c #D8D8CD",
"5 c #3D3D3A",
"6 c #F3F3E9",
"7 c #464643",
"8 c #EDEDE4",
"9 c #1F1F1E",
"0 c #F8F8F3",
"q c #F7F7F2",
"w c #3F3F3E",
"e c #4C4C4B",
"r c #FBFBFA",
"t c red",
"y c #FEFEFE",
"u c #FDFDFD",
"i c #F1F1F1",
"p c #EEEEEE",
"a c #E7E7E7",
"s c gray89",
"d c gray88",
"f c gray84",
"g c #CECECE",
"h c #CBCBCB",
"j c gray79",
"k c #C5C5C5",
"l c gray76",
"z c gray75",
"x c gray74",
"c c #BBBBBB",
"v c #B9B9B9",
"b c #B7B7B7",
"n c gray71",
"m c gray68",
"M c #AAAAAA",
"N c gray63",
"B c gray62",
"V c #929292",
"C c gray52",
"Z c #767676",
"A c #5D5D5D",
"S c gray22",
"D c #161616",
"F c black",
"G c None",
/* pixels */
"GGGFFFFFFFFFGGGG",
"GGFyyyyyyudlFGGG",
"GGFyiiiiiilrMFGG",
"GGFyiiiiiimZAwFG",
"GGFyiiiiiisCeDFG",
"GG;33>>@;spppkFG",
"G7$r00q8+9ejakFG",
"542q11*Xo&=5fzFG",
",8<01-**:-&9cbFG",
"5%76*XX @==3nbFG",
"Gw>1...&$9SVzvFG",
"GG;+$$$O#VMbfxFG",
"GGFxBNNBVMgfsxFG",
"GGFajjjhhfssscFG",
"GGFlcccvcccccNFG",
"GGGFFFFFFFFFFFGG"
};
