/* XPM */
static char * mime_text_patch_xpm[] = {
"16 16 111 2",
"  	c None",
". 	c #000000",
"+ 	c #959595",
"@ 	c #C0C0C0",
"# 	c #BFBFBF",
"$ 	c #AFAFAF",
"% 	c #999999",
"& 	c #272727",
"* 	c #BCBCBC",
"= 	c #FBFBFB",
"- 	c #F8F8F8",
"; 	c #F9F9F9",
"> 	c #DCDCDC",
", 	c #F0F0F0",
"' 	c #9F9F9F",
") 	c #202020",
"! 	c #BBBBBB",
"~ 	c #5E5858",
"{ 	c #A7A4A4",
"] 	c #A29E9E",
"^ 	c #9E9E9E",
"/ 	c #808080",
"( 	c #414141",
"_ 	c #0C0C0C",
": 	c #A8A4A4",
"< 	c #CCCDCD",
"[ 	c #CAC9C9",
"} 	c #A3A0A0",
"| 	c #919596",
"1 	c #535453",
"2 	c #272726",
"3 	c #060606",
"4 	c #FB2926",
"5 	c #FB1B17",
"6 	c #FC1412",
"7 	c #FC1917",
"8 	c #F0D8D4",
"9 	c #F64842",
"0 	c #DD5649",
"a 	c #C9B1AC",
"b 	c #A8AAAB",
"c 	c #222222",
"d 	c #F7F7F7",
"e 	c #F4A8A8",
"f 	c #F5A09E",
"g 	c #F39694",
"h 	c #F39C9B",
"i 	c #F4D3D6",
"j 	c #F5908F",
"k 	c #F4EAEA",
"l 	c #DADBDB",
"m 	c #2E2E2E",
"n 	c #F6F6F6",
"o 	c #37C429",
"p 	c #92DB8E",
"q 	c #91D88A",
"r 	c #D7D3D7",
"s 	c #2D2D2D",
"t 	c #BABABA",
"u 	c #92D88A",
"v 	c #C1E2BE",
"w 	c #C0E1BC",
"x 	c #90D78A",
"y 	c #BEE2BB",
"z 	c #D3D2D3",
"A 	c #2C2C2C",
"B 	c #F5F5F5",
"C 	c #92D68B",
"D 	c #90D689",
"E 	c #D4D0D4",
"F 	c #F4F4F4",
"G 	c #90D789",
"H 	c #90D183",
"I 	c #BCD9B2",
"J 	c #90D688",
"K 	c #8FD688",
"L 	c #BCDFB8",
"M 	c #D1CFD0",
"N 	c #F92826",
"O 	c #F28A8B",
"P 	c #FC1616",
"Q 	c #F08686",
"R 	c #F8302D",
"S 	c #F28688",
"T 	c #F83D3B",
"U 	c #F08180",
"V 	c #CED1D1",
"W 	c #F3F3F3",
"X 	c #EE9795",
"Y 	c #EABCBB",
"Z 	c #EE908F",
"` 	c #EBB3B3",
" .	c #ED9694",
"..	c #EBB1B1",
"+.	c #EF8080",
"@.	c #EAB3B3",
"#.	c #CDCECE",
"$.	c #E6E9EA",
"%.	c #E6E8E8",
"&.	c #E6E7E7",
"*.	c #E6E8E9",
"=.	c #E5E6E6",
"-.	c #E4E7E8",
";.	c #CCCCCC",
">.	c #2B2B2B",
",.	c #D6D6D6",
"'.	c #CDCDCD",
").	c #CBCBCB",
"!.	c #B9B9B9",
"~.	c #2F2F2F",
"{.	c #292929",
"      . . . . . . . . .         ",
"    . + @ # # # # # $ % &       ",
"    . * = - - - - ; > , ' )     ",
"    . ! - ~ ~ ~ { ] ~ ^ / ( _   ",
"    . ! - { : : < [ } | 1 2 3   ",
"    . ! - 4 5 6 7 8 9 0 a b c   ",
"    . ! d e f g h i h j k l m   ",
"    . ! n o o p o o p o q r s   ",
"    . t n u u v q q w x y z A   ",
"    . t B o o o C o o o D E A   ",
"    . t F G G H I J J K L M A   ",
"    . t F N O P Q R S T U V A   ",
"    . t W X Y Z `  ...+.@.#.A   ",
"    . * W $.%.$.&.*.=.-.&.;.>.  ",
"    . ^ ,.'.'.;.;.).).).;.!.&   ",
"      >.~.m m m m m m m m {.    "};
