/* XPM */
static char * mime_calendar_xpm[] = {
"16 16 40 1",
" 	c None",
".	c #000000",
"+	c #FEFEFE",
"@	c #FDFDFD",
"#	c #E0E0E0",
"$	c #C1C1C1",
"%	c #F1F1F1",
"&	c #C3C3C3",
"*	c #FBFBFB",
"=	c #A8A8A8",
"-	c #ADADAD",
";	c #767676",
">	c #5D5D5D",
",	c #404040",
"'	c #688DAE",
")	c #E2E2E2",
"!	c #858585",
"~	c #4B4B49",
"{	c #161616",
"]	c #89BAE6",
"^	c #C5C5C5",
"/	c #ECECEC",
"(	c #EBEBEB",
"_	c #EAEAEA",
":	c #C4C4C4",
"<	c #E9E9E9",
"[	c #E8E8E8",
"}	c #E7E7E7",
"|	c #C0C0C0",
"1	c #E6E6E6",
"2	c #E5E5E5",
"3	c #E4E4E4",
"4	c #BFBFBF",
"5	c #E3E3E3",
"6	c #BEBEBE",
"7	c #BDBDBD",
"8	c #BBBBBB",
"9	c #C2C2C2",
"0	c #BCBCBC",
"a	c #A0A0A0",
"   .........    ",
"  .++++++@#$.   ",
"  .+%%%%%%&*=.  ",
"  .+%%%%%%-;>,. ",
"  .+.'.'.')!~{. ",
"  .+;]']']'];^. ",
"  .+;/;/;(;_;:. ",
"  .@;&;&;&;&;&. ",
"  .@;_;<;[;};$. ",
"  .@;&;&;&;&;|. ",
"  .@;};1;2;3;4. ",
"  .@;;;;;;;;56. ",
"  .@%%%%%%%%%7. ",
"  .@%%%%%%%%%8. ",
"  .9777008888a. ",
"   ...........  "};
