/* XPM */
static char *mime_text_enriched_xpm[] = {
/* columns rows colors chars-per-pixel */
"16 16 65 1",
"  c #A7A2A6",
". c #9795A1",
"X c #878BA5",
"o c #686D83",
"O c #7C84A3",
"+ c #676D82",
"@ c #686E83",
"# c #4B4B49",
"$ c red",
"% c #FEFEFE",
"& c #FDFDFD",
"* c #FBFBFB",
"= c #F1F1F1",
"- c gray94",
"; c #EFEFEF",
": c #EEEEEE",
"> c gray93",
", c #ECECEC",
"< c gray92",
"1 c #EAEAEA",
"2 c #E9E9E9",
"3 c gray91",
"4 c #E7E7E7",
"5 c #E6E6E6",
"6 c gray90",
"7 c #E4E4E4",
"8 c gray89",
"9 c #E2E2E2",
"0 c gray88",
"q c LightGray",
"w c #CACACA",
"e c #C8C8C8",
"r c gray78",
"t c #C5C5C5",
"y c gray77",
"u c #C3C3C3",
"i c gray76",
"p c #C1C1C1",
"a c #C0C0C0",
"s c gray75",
"d c gray",
"f c gray74",
"g c #BCBCBC",
"h c #BBBBBB",
"j c gray71",
"k c gray70",
"l c gray68",
"z c gray66",
"x c #A0A0A0",
"c c gray52",
"v c #767676",
"b c #5D5D5D",
"n c gray25",
"m c #161616",
"M c black",
"N c black",
"B c black",
"V c black",
"C c black",
"Z c black",
"A c black",
"S c black",
"D c black",
"F c black",
"G c None",
/* pixels */
"GGGMMMMMMMMMGGGG",
"GGM%%%%%%&0pMGGG",
"GGM%======u*zMGG",
"GGM%=djdw=lvbnMG",
"GGM%=====-9c#mMG",
"GGM%=kefk0;::tMG",
"GGM%;0;:::::,yMG",
"GGM&:kqkggrr<uMG",
"GGM&>,,,<<111pMG",
"GGM&<ii3@@@@3aMG",
"GGM&1122@XO@4sMG",
"GGM&3pp5@ .@6dMG",
"GGM&4455@oo+7fMG",
"GGM&566677888hMG",
"GGMifffgghhhhxMG",
"GGGMMMMMMMMMMMGG"
};
