/* XPM */
static char * new_xpm[] = {
"15 12 49 1",
" 	c None",
".	c #000000",
"+	c #CBB2AF",
"@	c #F5F5F5",
"#	c #A5958F",
"$	c #98544E",
"%	c #FAEAF5",
"&	c #FFCAC7",
"*	c #FFE7EB",
"=	c #FFB5B3",
"-	c #814548",
";	c #FF7673",
">	c #9C524C",
",	c #F8EEF6",
"'	c #FFCDCB",
")	c #FFE7E7",
"!	c #FFB1AF",
"~	c #884B44",
"{	c #F3726F",
"]	c #944E51",
"^	c #FFE7E8",
"/	c #FFB9B7",
"(	c #FFA5A5",
"_	c #FFBFBD",
":	c #AA5656",
"<	c #A25050",
"[	c #FF9D9B",
"}	c #F46F6C",
"|	c #FFC4C3",
"1	c #A05454",
"2	c #945350",
"3	c #FFBBB9",
"4	c #A0524E",
"5	c #FF8F89",
"6	c #A9534F",
"7	c #FFA9A9",
"8	c #FFBDBB",
"9	c #FFAFAD",
"0	c #FFABAB",
"a	c #FF8383",
"b	c #B25656",
"c	c #FC7470",
"d	c #CCC2C2",
"e	c #EA6C6C",
"f	c #EC6C6C",
"g	c #EC6E6E",
"h	c #ED6F6F",
"i	c #FF7B75",
"j	c #DA7472",
"               ",
"  ...........  ",
" .+@@@@@@@@@#. ",
" .@$%&@&*&=-;. ",
" .@&>,')&!~!{. ",
" .@&&]^&/~&({. ",
" .@&_:~@~<=[}. ",
" .@|1&&2/345}. ",
" .@6&78930abc. ",
" .defffegghij. ",
"  ...........  ",
"               "};
