/* XPM */
static char * outbox_close_mark_xpm[] = {
"16 16 10 1",
" 	c None",
".	c #FFFFFF",
"+	c #020204",
"@	c #024A6C",
"#	c #000000",
"$	c #99999B",
"%	c #FDFDFB",
"&	c #626263",
"*	c #B4B4B4",
"=	c #E5E5E3",
"              ..",
"        +   @.#.",
"      ++$+  .##.",
"    ++..$%+.###.",
"  ++$$.#.%.###.@",
"++$$$$.##.###.  ",
"+%+$&&.#####.+  ",
"+%%+$*=.###.%%+ ",
"+%%%+**=.#.=&%$+",
" +%%%+**=.===&=+",
"  +%%%+**====*&+",
"   +%%%+*==***$+",
"    +%%$&***$++ ",
"     +%=+*$++   ",
"      +%+++     ",
"       ++       "};
