/* XPM */
static char * outbox_close_hrm_mark_xpm[] = {
"16 16 9 1",
" 	c None",
".	c #FFFFFF",
"+	c #050000",
"@	c #152658",
"#	c #000000",
"$	c #FE3569",
"%	c #FEC9D8",
"&	c #B21133",
"*	c #FE6993",
"              ..",
"        +   @.#.",
"      ++$+  .##.",
"    ++..$%+.###.",
"  ++$$.#.%.###.@",
"++$$$$.##.###.  ",
"+%+$&&.#####.+  ",
"+%%+$*%.###.%%+ ",
"+%%%+**%.#.%&%$+",
" +%%%+**%.%%%&%+",
"  +%%%+**%%%%*&+",
"   +%%%+*%%***$+",
"    +%%$&***$++ ",
"     +%%+*$++   ",
"      +%+++     ",
"       ++       "};
