/* XPM */
static char * outbox_open_hrm_xpm[] = {
"16 16 7 1",
" 	c None",
".	c #050000",
"+	c #152658",
"@	c #FE3569",
"#	c #FEC9D8",
"$	c #B21133",
"%	c #FE6993",
"                ",
"        .   ++++",
"      ..@.   +++",
"    ..@@@#. ++++",
"  ..@@@@$##+++ +",
"..@@@@$$%$+++   ",
".#.@$$%##+++#.  ",
".##.@%####+$##. ",
".###.%%#####$#@.",
" .###.%%#####$#.",
"  .###.%%####%$.",
"   .###.%##%%%@.",
"    .##@$%%%@.. ",
"     .##.%@..   ",
"      .#...     ",
"       ..       "};
