/* XPM */
static char * privacy_emblem_passed_xpm[] = {
"15 16 101 2",
"  	c None",
". 	c #393939",
"+ 	c #404040",
"@ 	c #171717",
"# 	c #050505",
"$ 	c #060606",
"% 	c #080808",
"& 	c #1F1F1F",
"* 	c #3F3F3F",
"= 	c #FFFFFF",
"- 	c #DADADA",
"; 	c #181818",
"> 	c #000000",
", 	c #212121",
"' 	c #4F4F4F",
") 	c #383838",
"! 	c #222222",
"~ 	c #F6F6F6",
"{ 	c #303030",
"] 	c #101010",
"^ 	c #3E3E3E",
"/ 	c #FAFAFA",
"( 	c #515151",
"_ 	c #B3B3B3",
": 	c #464646",
"< 	c #121212",
"[ 	c #070707",
"} 	c #FDFDFD",
"| 	c #5B5B5B",
"1 	c #B0B0B0",
"2 	c #FBFBFB",
"3 	c #595959",
"4 	c #151515",
"5 	c #131313",
"6 	c #666666",
"7 	c #F9F9F9",
"8 	c #676767",
"9 	c #A1A1A1",
"0 	c #D9D9D9",
"a 	c #353535",
"b 	c #C0C0C0",
"c 	c #A4A4A4",
"d 	c #838383",
"e 	c #5A5A5A",
"f 	c #CECECE",
"g 	c #FEFFFE",
"h 	c #E2F2E2",
"i 	c #4A4A4A",
"j 	c #EFEFEF",
"k 	c #C2C2C2",
"l 	c #767676",
"m 	c #D3D3D3",
"n 	c #525252",
"o 	c #B9E1B9",
"p 	c #069305",
"q 	c #A3D7A3",
"r 	c #E1E1E1",
"s 	c #545454",
"t 	c #E5E5E5",
"u 	c #1C1C1C",
"v 	c #BFBFBF",
"w 	c #4D4D4D",
"x 	c #50B34F",
"y 	c #0A9509",
"z 	c #E5F4E5",
"A 	c #848484",
"B 	c #A9A9A9",
"C 	c #8D8D8D",
"D 	c #414141",
"E 	c #8F8F8F",
"F 	c #049203",
"G 	c #76C375",
"H 	c #363636",
"I 	c #575757",
"J 	c #909090",
"K 	c #D5D5D5",
"L 	c #A1D6A1",
"M 	c #83CA83",
"N 	c #7AC579",
"O 	c #0F970E",
"P 	c #EDF7ED",
"Q 	c #2B2B2B",
"R 	c #424242",
"S 	c #FCFEFC",
"T 	c #019100",
"U 	c #82C982",
"V 	c #898989",
"W 	c #343434",
"X 	c #D1D1D1",
"Y 	c #60BA5F",
"Z 	c #169A15",
"` 	c #F3FAF3",
" .	c #CDE9CD",
"..	c #1D1D1D",
"+.	c #313131",
"@.	c #323232",
"#.	c #333333",
"$.	c #3A3A3A",
"%.	c #3B3B3B",
"&.	c #3C3C3C",
"*.	c #2A2A2A",
". + + + + + + + @ # # # $ % & ",
"* = = = = = = - ; > > > > , ' ",
"* = = = = = = ) > > > > > ! ' ",
"* = = = = = ~ { ] > > > > ! ' ",
"^ = = = = / ( _ : < > > [ . ' ",
"* = = = } | 1 = 2 3 4 5 6 7 ' ",
"^ = = = 8 9 = = = 0 a b = = ' ",
"* = = c d = = = = e f g h = ' ",
"+ = = i j k l = m n = o p q ' ",
"+ = r s t u v } w f = x y z ' ",
"+ = A B . C 0 D E = h F G = ' ",
"+ = H 6 I J ^ K L M N O P = ' ",
"+ r { Q R A 2 S x T T U = = ' ",
"+ = V W X = = = S Y Z ` = = ' ",
"+ = = 2 = = = = = g  .= = = ' ",
"..+.@.@.#.W H H ) $.$.%.&.^ *."};
