/* XPM */
static char * privacy_emblem_signed_xpm[] = {
"15 16 75 1",
" 	c None",
".	c #393939",
"+	c #404040",
"@	c #151515",
"#	c #050505",
"$	c #060606",
"%	c #090909",
"&	c #222222",
"*	c #3F3F3F",
"=	c #FFFFFF",
"-	c #D5D5D5",
";	c #171717",
">	c #000000",
",	c #232323",
"'	c #373737",
")	c #242424",
"!	c #F6F6F6",
"~	c #303030",
"{	c #101010",
"]	c #252525",
"^	c #3E3E3E",
"/	c #FAFAFA",
"(	c #515151",
"_	c #B3B3B3",
":	c #434343",
"<	c #111111",
"[	c #454545",
"}	c #FDFDFD",
"|	c #5B5B5B",
"1	c #B0B0B0",
"2	c #131313",
"3	c #6E6E6E",
"4	c #FBFBFB",
"5	c #676767",
"6	c #A1A1A1",
"7	c #CCCCCC",
"8	c #3B3B3B",
"9	c #C2C2C2",
"0	c #A3A3A3",
"a	c #838383",
"b	c #525252",
"c	c #D7D7D7",
"d	c #474747",
"e	c #F0F0F0",
"f	c #C1C1C1",
"g	c #767676",
"h	c #CECECE",
"i	c #575757",
"j	c #DBDBDB",
"k	c #595959",
"l	c #E2E2E2",
"m	c #1B1B1B",
"n	c #FCFCFC",
"o	c #4C4C4C",
"p	c #D1D1D1",
"q	c #7A7A7A",
"r	c #B1B1B1",
"s	c #333333",
"t	c #949494",
"u	c #8F8F8F",
"v	c #353535",
"w	c #606060",
"x	c #8A8A8A",
"y	c #D3D3D3",
"z	c #383838",
"A	c #797979",
"B	c #FEFEFE",
"C	c #1D1D1D",
"D	c #313131",
"E	c #323232",
"F	c #343434",
"G	c #363636",
"H	c #3A3A3A",
"I	c #3C3C3C",
"J	c #2C2C2C",
".+++++++@##$$%&",
"*======-;>>>>,+",
"*======'>>>>>)+",
"*=====!~{>>>>]+",
"^====/(_:<>>%[+",
"*===}|1=/(2234+",
"^===56===789==+",
"*==0a====bc===+",
"+==defg=hi====+",
"+=jklmfnop====+",
"+=qrstc+u=====+",
"+nv|wx+c======+",
"+yz~^xn=======+",
"+=A8c=========+",
"+=Bn==========+",
"CDEEsFGGzHH8I^J"};
