/* XPM */
static char * privacy_emblem_warn_xpm[] = {
"15 16 82 1",
" 	c None",
".	c #111111",
"+	c #2C2C2C",
"@	c #0D0D0D",
"#	c #030303",
"$	c #040404",
"%	c #080808",
"&	c #0E0E0E",
"*	c #272727",
"=	c #FFFFFF",
"-	c #D5D5D5",
";	c #171717",
">	c #000000",
",	c #252525",
"'	c #2D2D2D",
")	c #373737",
"!	c #262626",
"~	c #282828",
"{	c #F1F1F1",
"]	c #F6F6F6",
"^	c #4A4A4A",
"/	c #BABABA",
"(	c #3D3D3D",
"_	c #101010",
":	c #454545",
"<	c #292929",
"[	c #FAFAFA",
"}	c #515151",
"|	c #BDBDBD",
"1	c #F8F8F8",
"2	c #4D4D4D",
"3	c #121212",
"4	c #131313",
"5	c #666666",
"6	c #FDFDFD",
"7	c #5B5B5B",
"8	c #AFAFAF",
"9	c #CBCBCB",
"0	c #363636",
"a	c #B6B6B6",
"b	c #2A2A2A",
"c	c #949494",
"d	c #939393",
"e	c #DADADA",
"f	c #EFEFEF",
"g	c #F2F2F2",
"h	c #414141",
"i	c #F7F7F7",
"j	c #C1C1C1",
"k	c #767676",
"l	c #C5C5C5",
"m	c #606060",
"n	c #303030",
"o	c #2E2E2E",
"p	c #D3D3D3",
"q	c #626262",
"r	c #E2E2E2",
"s	c #1B1B1B",
"t	c #424242",
"u	c #DBDBDB",
"v	c #747474",
"w	c #B7B7B7",
"x	c #333333",
"y	c #9A9A9A",
"z	c #323232",
"A	c #FCFCFC",
"B	c #343434",
"C	c #5C5C5C",
"D	c #616161",
"E	c #8D8D8D",
"F	c #D2D2D2",
"G	c #3A3A3A",
"H	c #444444",
"I	c #868686",
"J	c #8F8F8F",
"K	c #A2A2A2",
"L	c #717171",
"M	c #D0D0D0",
"N	c #383838",
"O	c #F9F9F9",
"P	c #0C0C0C",
"Q	c #2B2B2B",
".+++++++@###$%&",
"*======-;>>>>,'",
"*======)>>>>>!'",
"~====={+&>>>>!'",
"~====]^/(_>>%:'",
"<===[}|=12345['",
"<==678===90a=='",
"b==cd====2efg='",
"+==hijk=lmf>n='",
"o=pqrsj[tuf>n='",
"n=vwxc-(y=f>n='",
"zABCDEhe==f>n='",
"BFGzHIA===iJK='",
"0=L)M=====f>n='",
"N=AO=========='",
"P''+++Qb<<~~**."};
