/* XPM */
static char * privacy_warn_xpm[] = {
"24 24 69 1",
" 	c None",
".	c #000000",
"+	c #EEE4C7",
"@	c #E1BC6C",
"#	c #AF8932",
"$	c #E4C279",
"%	c #D1940C",
"&	c #A07208",
"*	c #4E4E4E",
"=	c #303030",
"-	c #747372",
";	c #E3C178",
">	c #B2B2B2",
",	c #EBEBEB",
"'	c #E5E5E5",
")	c #CFCFCF",
"!	c #E3C279",
"~	c #DDDDDD",
"{	c #E2BF72",
"]	c #94918F",
"^	c #C6A14F",
"/	c #B7820A",
"(	c #7F5903",
"_	c #D2A06E",
":	c #A7896A",
"<	c #C99560",
"[	c #C48F5A",
"}	c #E8CC92",
"|	c #C78D0B",
"1	c #EFDABF",
"2	c #E5C7A0",
"3	c #D4B48A",
"4	c #D2AB7A",
"5	c #D1A874",
"6	c #CDA36C",
"7	c #C79C65",
"8	c #C39860",
"9	c #C19256",
"0	c #BB8544",
"a	c #B67C39",
"b	c #965C1B",
"c	c #8F6404",
"d	c #D6AF7F",
"e	c #CFA671",
"f	c #B48D59",
"g	c #846740",
"h	c #6B5334",
"i	c #BC9A6D",
"j	c #EED7BA",
"k	c #E3C39C",
"l	c #21190E",
"m	c #0C0905",
"n	c #493923",
"o	c #D1AF83",
"p	c #C19459",
"q	c #080604",
"r	c #BE8C4F",
"s	c #B27733",
"t	c #19130B",
"u	c #78664D",
"v	c #B8823F",
"w	c #E0C098",
"x	c #A58152",
"y	c #2E2316",
"z	c #CDAD82",
"A	c #A36B2F",
"B	c #E1BD94",
"C	c #A9753B",
"D	c #BB8849",
"                        ",
"  ......                ",
"  .+@@#.                ",
"  .$%%&.   *=...=-      ",
"  .;%%&.  .>,,'')*.     ",
"  .!%%&. .),>...~)*.    ",
"  .{%%&.->,].   .~>*    ",
"  .^//(.=,>.     .~-*   ",
"   .... .'-.     .'>.   ",
"        .~-.     .'>.   ",
"    .. .._:.......<[..  ",
"   .}|.1234567777890ab. ",
"   .|c.12d4efghi7890ab. ",
"   ....jkd46glmno8p0ab. ",
"      .jkd46h..q3pr0sb. ",
"      .1kd4egtqu4prvsb. ",
"      .jw456xy.z89rvsb. ",
"      .jkd46gt.:89rvsA. ",
"      .jB567nt.uor0asC. ",
"      .jw456hnnho9rvaC. ",
"      .jw567z33379D0rC. ",
"      .de9rDvvv0DDDDab. ",
"       ...............  ",
"                        "};
