/* XPM */
static char * privacy_expired_xpm[] = {
"24 24 64 1",
" 	c None",
".	c #545454",
"+	c #161616",
"@	c #000000",
"#	c #676767",
"$	c #464646",
"%	c #CBCBCB",
"&	c #E8E8E8",
"*	c #A3A09E",
"=	c #BABABA",
"-	c #878787",
";	c #2F2F2F",
">	c #F2F2F2",
",	c #F6F6F6",
"'	c #D2D2D2",
")	c #BDBDBD",
"!	c #757575",
"~	c #101010",
"{	c #27231F",
"]	c #E0E0E0",
"^	c #ACACAC",
"/	c #FBFBFB",
"(	c #979797",
"_	c #EEEEEE",
":	c #EDEDED",
"<	c #B3B3B3",
"[	c #C99560",
"}	c #C48F5A",
"|	c #4C3B27",
"1	c #C79C65",
"2	c #C29962",
"3	c #C19256",
"4	c #BB8544",
"5	c #B67C39",
"6	c #995E1B",
"7	c #A38051",
"8	c #846740",
"9	c #6B5334",
"0	c #18130C",
"a	c #967957",
"b	c #CDA36C",
"c	c #21190E",
"d	c #0C0905",
"e	c #D3B389",
"f	c #C19459",
"g	c #EED8BA",
"h	c #E2C29B",
"i	c #D2AC7E",
"j	c #080604",
"k	c #BF8E51",
"l	c #B27733",
"m	c #CEA671",
"n	c #78664D",
"o	c #BD8B4D",
"p	c #BA813E",
"q	c #D1A875",
"r	c #A08C72",
"s	c #A36B2F",
"t	c #E1BD94",
"u	c #A9753B",
"v	c #DFC096",
"w	c #BA8749",
"x	c #B68241",
"y	c #88521A",
"                        ",
"     .+@+.              ",
"   #$%&*=-;#            ",
"  #->,>;%')!~@@@;#      ",
"  $,,,,{==]^$^&]%$@     ",
" .%,,//{==)'(@@@]%.@    ",
" +>,///+)))%(~ (@]).-   ",
" @>#///~.))!(@   @'!$   ",
" +_,,,,^;*::<+   @&^@   ",
" .%>>>>_)$_'(.   @&=@   ",
"  $'___:&:&<$@@@@@[}@@* ",
"  #-':>#_&<#|111123456@ ",
"   #$^<=<(.|7892123456@ ",
"     .@@0|ab8cd|e2f456@ ",
"      @ghiib9@@jefk4l6@ ",
"      @ghiim80jnifopl6@ ",
"      @ghiqb7{@i23opl6@ ",
"      @ghiqb80@r23opls@ ",
"      @gtqb1|0@nik45lu@ ",
"      @gviqb9||9i3op5u@ ",
"      @gvqb1ieee13o4ou@ ",
"      @im3kwxxx4wwww5y@ ",
"       @@@@@@@@@@@@@@@  ",
"                        "};
