/* XPM */
static char * queue_open_mark_xpm[] = {
"16 16 93 2",
"  	c None",
". 	c #FFFFFF",
"+ 	c #000000",
"@ 	c #686868",
"# 	c #3E3931",
"$ 	c #3E3118",
"% 	c #575040",
"& 	c #0F0F0F",
"* 	c #707070",
"= 	c #8D8D8D",
"- 	c #DCDCDC",
"; 	c #C8BAA1",
"> 	c #786D58",
", 	c #494949",
"' 	c #8E8E8E",
") 	c #EAEAEA",
"! 	c #F6F6F6",
"~ 	c #A9A49C",
"{ 	c #7A6F5A",
"] 	c #DEDEDE",
"^ 	c #F8F8F8",
"/ 	c #FBFBFB",
"( 	c #ABA69D",
"_ 	c #4C88ED",
": 	c #5792F1",
"< 	c #424242",
"[ 	c #D9D9DA",
"} 	c #E8E8E8",
"| 	c #FDFDFD",
"1 	c #A4A19A",
"2 	c #224AA4",
"3 	c #2957BE",
"4 	c #346ADB",
"5 	c #D8D8D8",
"6 	c #E6E5E5",
"7 	c #C4C3C1",
"8 	c #575042",
"9 	c #80BBF1",
"0 	c #1D3E8C",
"a 	c #2650B0",
"b 	c #606060",
"c 	c #F1F1F2",
"d 	c #F2F2F3",
"e 	c #EDEDEE",
"f 	c #C4C4C4",
"g 	c #777777",
"h 	c #9ECEF9",
"i 	c #67A7EB",
"j 	c #1C3A80",
"k 	c #204396",
"l 	c #828283",
"m 	c #D9D9D9",
"n 	c #EDEDED",
"o 	c #DFDFDF",
"p 	c #DDDEDE",
"q 	c #EAEAE9",
"r 	c #C5C5C5",
"s 	c #87AED1",
"t 	c #92C7F8",
"u 	c #71AEEF",
"v 	c #3470CA",
"w 	c #1D3D88",
"x 	c #4F4F4F",
"y 	c #818182",
"z 	c #C6C6C6",
"A 	c #BABABA",
"B 	c #B9B9B9",
"C 	c #BBBBBB",
"D 	c #797979",
"E 	c #738290",
"F 	c #8EBDE8",
"G 	c #80BDF5",
"H 	c #6BACEB",
"I 	c #1B3781",
"J 	c #121212",
"K 	c #636669",
"L 	c #343535",
"M 	c #343434",
"N 	c #5E6165",
"O 	c #7CA7D3",
"P 	c #82B4E7",
"Q 	c #86BEF7",
"R 	c #84BEF7",
"S 	c #7FBAF6",
"T 	c #5E9EEA",
"U 	c #3064BF",
"V 	c #76B1F4",
"W 	c #75B1F5",
"X 	c #70AEF4",
"Y 	c #6FADF4",
"Z 	c #67A7F1",
"` 	c #64A4EF",
" .	c #498BE7",
"                          . .   ",
"                        . + .   ",
"      @ # $ % &       . + + .   ",
"  * = - ; . . > ,   . + + + .   ",
"  ' ) ! ~ . + . { . + + + . +   ",
"@ ] ^ / ( . + + . + + + . _ : + ",
"< [ } | 1 . + + + + + . 2 3 4 + ",
"< 5 6 ^ 7 8 . + + + . 9 + 0 a + ",
"b 5 c d e f g . + . h i + j k + ",
"  l m n o p q r . s t u v + w + ",
"  x y z A B C D E F t G H + I + ",
"    J K L M N O P Q R S T U + + ",
"    + V W X X X Y X Y Z `  .+ + ",
"      + + + + + + + + + + + +   ",
"                                ",
"                                "};
