/* XPM */
static char * queue_open_hrm_xpm[] = {
"16 16 101 2",
"  	c None",
". 	c #686868",
"+ 	c #3E3931",
"@ 	c #3E3118",
"# 	c #575040",
"$ 	c #0F0F0F",
"% 	c #707070",
"& 	c #8D8D8D",
"* 	c #DCDCDC",
"= 	c #C8BAA1",
"- 	c #C79A40",
"; 	c #C29F58",
"> 	c #786D58",
", 	c #494949",
"' 	c #8E8E8E",
") 	c #EAEAEA",
"! 	c #F6F6F6",
"~ 	c #A9A49C",
"{ 	c #A47E33",
"] 	c #ECBB56",
"^ 	c #DAC18D",
"/ 	c #7A6F5A",
"( 	c #101010",
"_ 	c #000000",
": 	c #DEDEDE",
"< 	c #F8F8F8",
"[ 	c #FBFBFB",
"} 	c #ABA69D",
"| 	c #A27A29",
"1 	c #EBB13E",
"2 	c #CDA554",
"3 	c #685646",
"4 	c #B7326A",
"5 	c #A63160",
"6 	c #BB326C",
"7 	c #8B283D",
"8 	c #424242",
"9 	c #D9D9DA",
"0 	c #E8E8E8",
"a 	c #FDFDFD",
"b 	c #A4A19A",
"c 	c #7B5C1E",
"d 	c #E3AB3B",
"e 	c #E2AE45",
"f 	c #C39942",
"g 	c #352A15",
"h 	c #752637",
"i 	c #5A151D",
"j 	c #AB3265",
"k 	c #D8D8D8",
"l 	c #E6E5E5",
"m 	c #C4C3C1",
"n 	c #575042",
"o 	c #AD9970",
"p 	c #E2D0A9",
"q 	c #C0B092",
"r 	c #343028",
"s 	c #F1809B",
"t 	c #EB6C8D",
"u 	c #6C212F",
"v 	c #7A293C",
"w 	c #606060",
"x 	c #F1F1F2",
"y 	c #F2F2F3",
"z 	c #EDEDEE",
"A 	c #C4C4C4",
"B 	c #777777",
"C 	c #E5E5E4",
"D 	c #B1B1B1",
"E 	c #635A5C",
"F 	c #E65F7C",
"G 	c #D43B6A",
"H 	c #712434",
"I 	c #828283",
"J 	c #D9D9D9",
"K 	c #EDEDED",
"L 	c #DFDFDF",
"M 	c #DDDEDE",
"N 	c #EAEAE9",
"O 	c #C5C5C5",
"P 	c #737373",
"Q 	c #C35B71",
"R 	c #972E4C",
"S 	c #4F4F4F",
"T 	c #818182",
"U 	c #C6C6C6",
"V 	c #BABABA",
"W 	c #B9B9B9",
"X 	c #BBBBBB",
"Y 	c #797979",
"Z 	c #8B636C",
"` 	c #C83F69",
" .	c #6C1F30",
"..	c #121212",
"+.	c #686163",
"@.	c #343535",
"#.	c #343434",
"$.	c #C65E74",
"%.	c #852C3F",
"&.	c #DF5089",
"*.	c #AF2A4F",
"                                ",
"                                ",
"      . + @ # $                 ",
"  % & * = - ; > ,               ",
"  ' ) ! ~ { ] ^ / ( _ _ _ _ _   ",
". : < [ } | 1 ] 2 3 4 5 6 5 7 _ ",
"8 9 0 a b c d e f g _ _ h i j _ ",
"8 k l < m n o p q r s t _ u v _ ",
"w k x y z A B C D E F G _ u H _ ",
"  I J K L M N O P Q G F R _ H _ ",
"  S T U V W X Y Z ` F G F _  ._ ",
"    ..+.@.#.E $.` F G F G %._ _ ",
"    _ &.G *.G *.G *.G *.G *._ _ ",
"      _ _ _ _ _ _ _ _ _ _ _ _   ",
"                                ",
"                                "};
