/* XPM */
static char * queue_open_xpm[] = {
"16 16 118 2",
"  	c None",
". 	c #686868",
"+ 	c #3E3931",
"@ 	c #3E3118",
"# 	c #575040",
"$ 	c #0F0F0F",
"% 	c #707070",
"& 	c #8D8D8D",
"* 	c #DCDCDC",
"= 	c #C8BAA1",
"- 	c #C79A40",
"; 	c #C29F58",
"> 	c #786D58",
", 	c #494949",
"' 	c #8E8E8E",
") 	c #EAEAEA",
"! 	c #F6F6F6",
"~ 	c #A9A49C",
"{ 	c #A47E33",
"] 	c #ECBB56",
"^ 	c #DAC18D",
"/ 	c #7A6F5A",
"( 	c #101010",
"_ 	c #000000",
": 	c #DEDEDE",
"< 	c #F8F8F8",
"[ 	c #FBFBFB",
"} 	c #ABA69D",
"| 	c #A27A29",
"1 	c #EBB13E",
"2 	c #CDA554",
"3 	c #625C4D",
"4 	c #538FEF",
"5 	c #4780EC",
"6 	c #4C88ED",
"7 	c #5792F1",
"8 	c #424242",
"9 	c #D9D9DA",
"0 	c #E8E8E8",
"a 	c #FDFDFD",
"b 	c #A4A19A",
"c 	c #7B5C1E",
"d 	c #E3AB3B",
"e 	c #E2AE45",
"f 	c #C39942",
"g 	c #352A15",
"h 	c #224AA4",
"i 	c #2957BE",
"j 	c #346ADB",
"k 	c #D8D8D8",
"l 	c #E6E5E5",
"m 	c #C4C3C1",
"n 	c #575042",
"o 	c #AD9970",
"p 	c #E2D0A9",
"q 	c #C0B092",
"r 	c #343028",
"s 	c #B8DDFB",
"t 	c #80BBF1",
"u 	c #1D3E8C",
"v 	c #2650B0",
"w 	c #606060",
"x 	c #F1F1F2",
"y 	c #F2F2F3",
"z 	c #EDEDEE",
"A 	c #C4C4C4",
"B 	c #777777",
"C 	c #E5E5E4",
"D 	c #B1B1B1",
"E 	c #606365",
"F 	c #9ECEF9",
"G 	c #67A7EB",
"H 	c #1C3A80",
"I 	c #204396",
"J 	c #828283",
"K 	c #D9D9D9",
"L 	c #EDEDED",
"M 	c #DFDFDF",
"N 	c #DDDEDE",
"O 	c #EAEAE9",
"P 	c #C5C5C5",
"Q 	c #737373",
"R 	c #87AED1",
"S 	c #92C7F8",
"T 	c #71AEEF",
"U 	c #3470CA",
"V 	c #1D3D88",
"W 	c #4F4F4F",
"X 	c #818182",
"Y 	c #C6C6C6",
"Z 	c #BABABA",
"` 	c #B9B9B9",
" .	c #BBBBBB",
"..	c #797979",
"+.	c #738290",
"@.	c #8EBDE8",
"#.	c #80BDF5",
"$.	c #6BACEB",
"%.	c #1B3781",
"&.	c #121212",
"*.	c #636669",
"=.	c #343535",
"-.	c #343434",
";.	c #5E6165",
">.	c #7CA7D3",
",.	c #82B4E7",
"'.	c #86BEF7",
").	c #84BEF7",
"!.	c #7FBAF6",
"~.	c #5E9EEA",
"{.	c #3064BF",
"].	c #76B1F4",
"^.	c #75B1F5",
"/.	c #70AEF4",
"(.	c #6FADF4",
"_.	c #67A7F1",
":.	c #64A4EF",
"<.	c #498BE7",
"                                ",
"                                ",
"      . + @ # $                 ",
"  % & * = - ; > ,               ",
"  ' ) ! ~ { ] ^ / ( _ _ _ _ _   ",
". : < [ } | 1 ] 2 3 4 5 5 6 7 _ ",
"8 9 0 a b c d e f g _ _ h i j _ ",
"8 k l < m n o p q r s t _ u v _ ",
"w k x y z A B C D E F G _ H I _ ",
"  J K L M N O P Q R S T U _ V _ ",
"  W X Y Z `  ...+.@.S #.$._ %._ ",
"    &.*.=.-.;.>.,.'.).!.~.{._ _ ",
"    _ ].^./././.(./.(._.:.<._ _ ",
"      _ _ _ _ _ _ _ _ _ _ _ _   ",
"                                ",
"                                "};
