/* XPM */
static char * queue_open_hrm_mark_xpm[] = {
"16 16 77 1",
" 	c None",
".	c #FFFFFF",
"+	c #000000",
"@	c #686868",
"#	c #3E3931",
"$	c #3E3118",
"%	c #575040",
"&	c #0F0F0F",
"*	c #707070",
"=	c #8D8D8D",
"-	c #DCDCDC",
";	c #C8BAA1",
">	c #786D58",
",	c #494949",
"'	c #8E8E8E",
")	c #EAEAEA",
"!	c #F6F6F6",
"~	c #A9A49C",
"{	c #7A6F5A",
"]	c #DEDEDE",
"^	c #F8F8F8",
"/	c #FBFBFB",
"(	c #ABA69D",
"_	c #A63160",
":	c #8B283D",
"<	c #424242",
"[	c #D9D9DA",
"}	c #E8E8E8",
"|	c #FDFDFD",
"1	c #A4A19A",
"2	c #752637",
"3	c #5A151D",
"4	c #AB3265",
"5	c #D8D8D8",
"6	c #E6E5E5",
"7	c #C4C3C1",
"8	c #575042",
"9	c #EB6C8D",
"0	c #6C212F",
"a	c #7A293C",
"b	c #606060",
"c	c #F1F1F2",
"d	c #F2F2F3",
"e	c #EDEDEE",
"f	c #C4C4C4",
"g	c #777777",
"h	c #E65F7C",
"i	c #D43B6A",
"j	c #712434",
"k	c #828283",
"l	c #D9D9D9",
"m	c #EDEDED",
"n	c #DFDFDF",
"o	c #DDDEDE",
"p	c #EAEAE9",
"q	c #C5C5C5",
"r	c #C35B71",
"s	c #972E4C",
"t	c #4F4F4F",
"u	c #818182",
"v	c #C6C6C6",
"w	c #BABABA",
"x	c #B9B9B9",
"y	c #BBBBBB",
"z	c #797979",
"A	c #8B636C",
"B	c #C83F69",
"C	c #6C1F30",
"D	c #121212",
"E	c #686163",
"F	c #343535",
"G	c #343434",
"H	c #635A5C",
"I	c #C65E74",
"J	c #852C3F",
"K	c #DF5089",
"L	c #AF2A4F",
"             .. ",
"            .+. ",
"   @#$%&   .++. ",
" *=-;..>, .+++. ",
" ')!~.+.{.+++.+ ",
"@]^/(.++.+++._:+",
"<[}|1.+++++.234+",
"<56^78.+++.9+0a+",
"b5cdefg.+.hi+0j+",
" klmnopq.rihs+j+",
" tuvwxyzABhih+C+",
"  DEFGHIBhihiJ++",
"  +KiLiLiLiLiL++",
"   ++++++++++++ ",
"                ",
"                "};
