/* XPM */
static char * queue_close_hrm_xpm[] = {
"16 16 108 2",
"  	c None",
". 	c #686868",
"+ 	c #3E3931",
"@ 	c #3E3118",
"# 	c #575040",
"$ 	c #0F0F0F",
"% 	c #707070",
"& 	c #8D8D8D",
"* 	c #DCDCDC",
"= 	c #C8BAA1",
"- 	c #C79A40",
"; 	c #C29F58",
"> 	c #786D58",
", 	c #494949",
"' 	c #8E8E8E",
") 	c #EAEAEA",
"! 	c #F6F6F6",
"~ 	c #A9A49C",
"{ 	c #A47E33",
"] 	c #ECBB56",
"^ 	c #DAC18D",
"/ 	c #7A6F5A",
"( 	c #101010",
"_ 	c #000000",
": 	c #DEDEDE",
"< 	c #F8F8F8",
"[ 	c #FBFBFB",
"} 	c #ABA69D",
"| 	c #A27A29",
"1 	c #EBB13E",
"2 	c #CDA554",
"3 	c #6A5947",
"4 	c #EC7190",
"5 	c #F07D98",
"6 	c #EB6C8D",
"7 	c #424242",
"8 	c #D9D9DA",
"9 	c #E8E8E8",
"0 	c #FDFDFD",
"a 	c #A4A19A",
"b 	c #7B5C1E",
"c 	c #E3AB3B",
"d 	c #E2AE45",
"e 	c #C39942",
"f 	c #352A15",
"g 	c #DD4F77",
"h 	c #E66281",
"i 	c #DA4873",
"j 	c #D8D8D8",
"k 	c #E6E5E5",
"l 	c #C4C3C1",
"m 	c #575042",
"n 	c #AD9970",
"o 	c #E2D0A9",
"p 	c #C0B092",
"q 	c #343028",
"r 	c #DD4D73",
"s 	c #676767",
"t 	c #F1F1F2",
"u 	c #F2F2F3",
"v 	c #EDEDEE",
"w 	c #C4C4C4",
"x 	c #777777",
"y 	c #E5E5E4",
"z 	c #B1B1B1",
"A 	c #635A5D",
"B 	c #DF5175",
"C 	c #D9466F",
"D 	c #E15577",
"E 	c #828283",
"F 	c #D9D9D9",
"G 	c #EDEDED",
"H 	c #DFDFDF",
"I 	c #DDDEDE",
"J 	c #EAEAE9",
"K 	c #C5C5C5",
"L 	c #737373",
"M 	c #BD506C",
"N 	c #D8446E",
"O 	c #E35979",
"P 	c #D43C6A",
"Q 	c #818182",
"R 	c #C6C6C6",
"S 	c #BABABA",
"T 	c #B9B9B9",
"U 	c #BBBBBB",
"V 	c #797979",
"W 	c #885E69",
"X 	c #CE4D6F",
"Y 	c #121212",
"Z 	c #675F62",
"` 	c #343535",
" .	c #343434",
"..	c #625A5C",
"+.	c #B34664",
"@.	c #C34467",
"#.	c #D03E68",
"$.	c #CC4266",
"%.	c #D23C69",
"&.	c #CA4465",
"*.	c #DC4B82",
"=.	c #C83561",
"-.	c #BE315A",
";.	c #C0315B",
">.	c #C63460",
",.	c #B82E55",
"'.	c #CE3865",
").	c #B02A50",
"                                ",
"                                ",
"      . + @ # $                 ",
"  % & * = - ; > ,               ",
"  ' ) ! ~ { ] ^ / ( _ _ _ _ _   ",
". : < [ } | 1 ] 2 3 4 5 6 5 6 _ ",
"7 8 9 0 a b c d e f g h i h i _ ",
"7 j k < l m n o p q r r r r r _ ",
"s j t u v w x y z A B C D C D _ ",
"  E F G H I J K L M N O P O P _ ",
"  % Q R S T U V W X B C D C D _ ",
"    Y Z `  ...+.@.#.$.%.&.%.&._ ",
"    _ *.=.*.=.-.;.>.,.'.).'.)._ ",
"      _ _ _ _ _ _ _ _ _ _ _ _   ",
"                                ",
"                                "};
