/* XPM */
static char * search_xpm[] = {
"24 24 254 2",
"  	c None",
". 	c #000000",
"+ 	c #434F5D",
"@ 	c #697D92",
"# 	c #71879C",
"$ 	c #738AA1",
"% 	c #6B8198",
"& 	c #3D4B58",
"* 	c #FFFFFF",
"= 	c #DEDEDE",
"- 	c #111111",
"; 	c #5E7082",
"> 	c #8E9FB0",
", 	c #B9C2CB",
"' 	c #D6DCE1",
") 	c #D7DEE6",
"! 	c #A2B6C9",
"~ 	c #7C96B2",
"{ 	c #5D7186",
"] 	c #F4F4F4",
"^ 	c #FDFDFD",
"/ 	c #797979",
"( 	c #414E5B",
"_ 	c #91A2B3",
": 	c #D3D9DE",
"< 	c #F6F6F7",
"[ 	c #F5F7F9",
"} 	c #E9EEF4",
"| 	c #D7E0EA",
"1 	c #94ACC5",
"2 	c #809BB8",
"3 	c #445364",
"4 	c #F6F6F6",
"5 	c #FCFCFC",
"6 	c #474747",
"7 	c #6A7F94",
"8 	c #B9C4CF",
"9 	c #F5F6F8",
"0 	c #F2F6F9",
"a 	c #D3DDE8",
"b 	c #B1C3D6",
"c 	c #86A1BD",
"d 	c #8CA4BE",
"e 	c #738DA8",
"f 	c #FBFBFB",
"g 	c #F8F8F8",
"h 	c #70869C",
"i 	c #E3E6E9",
"j 	c #F9FAFC",
"k 	c #E7EDF3",
"l 	c #D4DFE9",
"m 	c #B6C7D9",
"n 	c #8BA6C1",
"o 	c #85A0BD",
"p 	c #95ACC4",
"q 	c #849CB8",
"r 	c #FBFBFA",
"s 	c #FAFAFA",
"t 	c #F5F5F5",
"u 	c #6A7F95",
"v 	c #D5DCE1",
"w 	c #E5EBF2",
"x 	c #8DA8C3",
"y 	c #88A3BF",
"z 	c #839EBB",
"A 	c #A2B5CA",
"B 	c #859DB7",
"C 	c #F2F2F2",
"D 	c #F9F9F9",
"E 	c #F6F6F3",
"F 	c #F3F3F3",
"G 	c #F3F3F0",
"H 	c #F0F0F0",
"I 	c #EAEAEA",
"J 	c #2B2B2B",
"K 	c #607489",
"L 	c #97A9BB",
"M 	c #CCD7E2",
"N 	c #B5C6D7",
"O 	c #88A2BE",
"P 	c #94ABC3",
"Q 	c #AFC0D1",
"R 	c #6F89A4",
"S 	c #F8F8F6",
"T 	c #F6F6F4",
"U 	c #EEEEEE",
"V 	c #636363",
"W 	c #384351",
"X 	c #6B829A",
"Y 	c #879BB1",
"Z 	c #849DB9",
"` 	c #89A2BE",
" .	c #97ADC5",
"..	c #B9C8D7",
"+.	c #8DA4BD",
"@.	c #425263",
"#.	c #EFEFEF",
"$.	c #F0F0ED",
"%.	c #EDEDED",
"&.	c #EDEDEA",
"*.	c #EAEAE7",
"=.	c #E7E7E5",
"-.	c #E5E5E2",
";.	c #CDCDCA",
">.	c #9B9B99",
",.	c #050505",
"'.	c #4F6073",
").	c #667C93",
"!.	c #8496AA",
"~.	c #8B9FB4",
"{.	c #9FB1C4",
"].	c #ABBCCD",
"^.	c #98ADC3",
"/.	c #5D728A",
"(.	c #EBEBEB",
"_.	c #E8E8E8",
":.	c #9E9E9C",
"<.	c #4E4E4E",
"[.	c #0C0C0C",
"}.	c #394755",
"|.	c #617488",
"1.	c #6F8399",
"2.	c #6A829B",
"3.	c #69819C",
"4.	c #415162",
"5.	c #EEEEEC",
"6.	c #E5E5E5",
"7.	c #E2E2DF",
"8.	c #DFDFDC",
"9.	c #DCDCD9",
"0.	c #BCBCBC",
"a.	c #070707",
"b.	c #232323",
"c.	c #5C5C5B",
"d.	c #4B4B4B",
"e.	c #2A2A2A",
"f.	c #222222",
"g.	c #E7E7E7",
"h.	c #EFEFED",
"i.	c #EBEBE9",
"j.	c #E9E9E7",
"k.	c #B5B5B4",
"l.	c #262626",
"m.	c #B9B9B9",
"n.	c #909090",
"o.	c #161616",
"p.	c #5E5E5D",
"q.	c #A6A6A4",
"r.	c #B6B6B3",
"s.	c #B8B8B6",
"t.	c #B1B1B0",
"u.	c #A3A3A2",
"v.	c #8D8D8D",
"w.	c #E3E3E3",
"x.	c #D9D9D9",
"y.	c #D9D9D6",
"z.	c #D6D6D4",
"A.	c #B3B3B1",
"B.	c #0D0D0D",
"C.	c #B1B1B1",
"D.	c #6E6E6E",
"E.	c #969694",
"F.	c #B2B2AF",
"G.	c #C7C7C6",
"H.	c #CCCCCA",
"I.	c #B8B8B7",
"J.	c #A4A4A4",
"K.	c #E2E2E0",
"L.	c #E5E5E4",
"M.	c #E4E4E4",
"N.	c #E4E4E2",
"O.	c #C5C5C3",
"P.	c #B7B7B7",
"Q.	c #646462",
"R.	c #A3A3A0",
"S.	c #C0C0BC",
"T.	c #CFCFCE",
"U.	c #D3D3CF",
"V.	c #D5D5D1",
"W.	c #CECECC",
"X.	c #B7B7B5",
"Y.	c #DEDEDC",
"Z.	c #DDDDDB",
"`.	c #D1D1CF",
" +	c #CFCFCB",
".+	c #ABABAB",
"++	c #767676",
"@+	c #555553",
"#+	c #8E8E8A",
"$+	c #B8B8B5",
"%+	c #CCCCC8",
"&+	c #D2D2CF",
"*+	c #D1D1D0",
"=+	c #D3D3D0",
"-+	c #D0D0CE",
";+	c #BABAB8",
">+	c #DCDCDB",
",+	c #E0E0DC",
"'+	c #7D7D7B",
")+	c #080808",
"!+	c #1C1C1C",
"~+	c #646463",
"{+	c #9D9D9A",
"]+	c #C9C9C7",
"^+	c #CFCFCC",
"/+	c #D1D1CE",
"(+	c #D0D0CC",
"_+	c #CACAC8",
":+	c #B6B6B6",
"<+	c #DBDBD9",
"[+	c #D4D4D0",
"}+	c #C7C7C4",
"|+	c #C7C7C1",
"1+	c #BDBDB9",
"2+	c #51514F",
"3+	c #61615F",
"4+	c #8B8B89",
"5+	c #A2A29F",
"6+	c #B6B6B2",
"7+	c #B8B8B2",
"8+	c #B4B4B2",
"9+	c #C5C5C1",
"0+	c #B4B4B4",
"a+	c #D5D5D5",
"b+	c #D9D9D7",
"c+	c #D7D7D3",
"d+	c #ACACAA",
"e+	c #B6B6B4",
"f+	c #C7C7C3",
"g+	c #CECECA",
"h+	c #B8B8B8",
"i+	c #D3D3D1",
"j+	c #CECEC9",
"k+	c #BFBFB9",
"l+	c #BCBCB9",
"m+	c #BCBCB8",
"n+	c #BABAB6",
"o+	c #B3B3AE",
"p+	c #ADADA8",
"q+	c #B2B2AC",
"r+	c #B2B2AD",
"s+	c #B4B4AF",
"t+	c #D5D5D3",
"u+	c #CACAC7",
"v+	c #C1C1BD",
"w+	c #B3B3B3",
"x+	c #C8C8C5",
"y+	c #B1B1AF",
"z+	c #B4B4B3",
"A+	c #B4B4B1",
"B+	c #B3B3AF",
"C+	c #B1B1AD",
"D+	c #AFAFAD",
"E+	c #929290",
"                                . . . .         ",
". . . . . . . . . . . . . . . + @ # $ % & .     ",
". * * * * * * * * * * * = - ; > , ' ) ! ~ { .   ",
". * ] * * * * * ^ ^ ^ ^ / ( _ : < [ } | 1 2 3 . ",
". * 4 * * * ^ ^ ^ ^ ^ 5 6 7 8 9 0 } a b c d e . ",
". * 4 * f f f f g g g ] . h i j k l m n o p q . ",
". * ] ^ ^ f f r s s s t . u v w a m x y z A B . ",
". * C D 4 4 E F F G H I J K L M N n y O P Q R . ",
". * H g g g S 4 T ] C U V W X Y Z z `  ...+.@.. ",
". * #.F H $.%.&.*.=.-.;.>.,.'.).!.~.{.].^./..   ",
". * %.] ] C H #.%.(._.:.<.. [.}.|.1.2.3.4.. .   ",
". * (.5.=.6.7.8.9.0.. ,.a.b.c.d.e.. . f..       ",
". * g.h.(.i.j.=.k.l.m.n.o.p.q.r.s.t.u.v..       ",
". * 6.w.x.y.z.A.B.C.D.. . E.F.G.H.H.I.J..       ",
". * K.L.M.N.O.. P.D.. . Q.R.S.T.U.V.W.X..       ",
". * Y.Z.`. +. .+++. . @+#+$+%+&+*+=+-+;+.       ",
". * >+,+Y.>+'+)+!+. ~+{+$+]+^+/+(+*+_+:+.       ",
". * <+[+}+|+1+2+. 3+4+5+t.6+7+7+8+/+9+0+.       ",
". * a+b+b+c+U.]+$+d+e+f+g+W.g+g+g+(+g+h+.       ",
". * i+j+k+l+m+n+o+p+q+r+s+s+F.F.r+g+%+s..       ",
". * t+=+=+*+-+(+W.g+g+H.%+%+%+u+u+%+v+w+.       ",
". * *+/+-+W.g+g+g+g+%+%+%+u+u+x+x+%+f+0+.       ",
". * y+z+A+A+A+A.A.B+B+B+y+C+C+D+D+B+e+E+.       ",
". . . . . . . . . . . . . . . . . . . . .       "};
