/* XPM */
static char * trash_hrm_xpm[] = {
"16 16 11 1",
" 	c None",
".	c #000000",
"+	c #EB6C8D",
"@	c #E65F7C",
"#	c #852C3F",
"$	c #6C1F30",
"%	c #5A151D",
"&	c #D43B6A",
"*	c #F1809B",
"=	c #752637",
"-	c #A93262",
"                ",
"   ......       ",
" ..++@#@@..     ",
".@+++$%@@@&.    ",
".&+**@@@@&=.    ",
".=&@@&&==$$.    ",
" .#&==--$$.     ",
" .=$$$$$$=.     ",
" .=+-@-&-=....  ",
" .=+-@-&-=..... ",
" .=+-@-&-=..... ",
" .&+-@-&-=....  ",
"  .&&&=&=...    ",
"   .......      ",
"                ",
"                "};
