/* XPM */
static char * tray_newmarkedmail_xpm[] = {
"16 16 7 1",
" 	c None",
".	c #FF0000",
"+	c #FFFFFF",
"@	c #A0A0A0",
"#	c #DE3636",
"$	c #C3C3C3",
"%	c #808080",
"        .       ",
"       .+.      ",
"      .+.+.     ",
"     .+...+.    ",
"    .+++.+++.   ",
"   .+++++++++.  ",
"  .++++@++@+++. ",
"####++@++@++####",
"#+$@#+++@++#@@%#",
"#+$@#++@+++#@@%#",
"#+$@#+@+++.#@@%#",
"#+$@@######@@@%#",
"#+$@@@@@@@@@@@%#",
"#+$@@@@@@@@@@@%#",
" #$@@@@@@@@@@@# ",
"  ############  "};
