/* XPM */
static char * tray_unreadmail_offline_xpm[] = {
"16 16 10 1",
" 	c None",
".	c #3F3F3F",
"+	c #FFFFFF",
"@	c #9F9F9F",
"#	c #CF6F6F",
"$	c #818181",
"%	c #000000",
"&	c #D1D1D1",
"*	c #6666CC",
"=	c #B7B7B7",
"                ",
"                ",
" .............. ",
" .++++++++++++. ",
" .+@@@@++++##+. ",
" .+++++++++##+. ",
" .++++++++++++. ",
"$$$$%%@@@@%%$$$$",
"$+&%*%%%++%*%=@$",
"%%%**%++@@%**%%%",
"*****%%%++%*****",
"%%%**%$$$$%**%%%",
"$+&%*%%%==%*%=@$",
"$+&=%%====%%==@$",
" $&===========$ ",
"  $$$$$$$$$$$$  "};
