/* XPM */
static char * tray_newmarkedmail_offline_xpm[] = {
"16 16 9 1",
" 	c None",
".	c #CF6F6F",
"+	c #FFFFFF",
"@	c #B7B7B7",
"#	c #C68686",
"$	c #000000",
"%	c #D1D1D1",
"&	c #6666CC",
"*	c #9F9F9F",
"        .       ",
"       .+.      ",
"      .+.+.     ",
"     .+...+.    ",
"    .+++.+++.   ",
"   .+++++++++.  ",
"  .++++@++@+++. ",
"####$$@++@$$####",
"#+%$&$$$@+$&$@*#",
"$$$&&$+@++$&&$$$",
"&&&&&$$$++$&&&&&",
"$$$&&$####$&&$$$",
"#+%$&$$$@@$&$@*#",
"#+%@$$@@@@$$@@*#",
" #%@@@@@@@@@@@# ",
"  ############  "};
