/* XPM */
static char * tray_newmail_offline_xpm[] = {
"16 16 10 1",
" 	c None",
".	c #3F3F3F",
"+	c #FFFFFF",
"@	c #CF6F6F",
"#	c #B7B7B7",
"$	c #818181",
"%	c #000000",
"&	c #D1D1D1",
"*	c #6666CC",
"=	c #9F9F9F",
"        .       ",
"       .+.      ",
"      .+@+.     ",
"     .+@@@+.    ",
"    .+++@+++.   ",
"   .+++++++++.  ",
"  .++++#++#+++. ",
"$$$$%%#++#%%$$$$",
"$+&%*%%%#+%*%#=$",
"%%%**%+#++%**%%%",
"*****%%%++%*****",
"%%%**%$$$$%**%%%",
"$+&%*%%%##%*%#=$",
"$+&#%%####%%##=$",
" $&###########$ ",
"  $$$$$$$$$$$$  "};
