/* XPM */
static char * watchthread_xpm[] = {
"16 16 30 1",
" 	c None",
".	c #1B2B3C",
"+	c #000000",
"@	c #B6B6B6",
"#	c #264057",
"$	c #233B51",
"%	c #253F56",
"&	c #374E63",
"*	c #606B76",
"=	c #2B2B2B",
"-	c #CACACA",
";	c #334F68",
">	c #E7E7E7",
",	c #FFFFFF",
"'	c #314E6C",
")	c #597187",
"!	c #262626",
"~	c #DFDFDF",
"{	c #F5F5F5",
"]	c #3B5673",
"^	c #506881",
"/	c #E1E1E1",
"(	c #A0A0A0",
"_	c #F0F0F0",
":	c #8091A3",
"<	c #3A5572",
"[	c #EBEBEB",
"}	c #7D8EA0",
"|	c #303030",
"1	c #1F262D",
"                ",
"                ",
"                ",
"                ",
"    .+++++      ",
"   .@#$%&*=     ",
"  +-;>,+')@!    ",
" +~{],,+'^/(+   ",
"  +_:'''<<~+    ",
"   +[}<<}[+     ",
"    |++1++      ",
"                ",
"                ",
"                ",
"                ",
"                "};
