<?xml version="1.0" encoding="UTF-8" standalone="no"?>
<!-- Created with Inkscape (http://www.inkscape.org/) -->
<svg
   xmlns:dc="http://purl.org/dc/elements/1.1/"
   xmlns:cc="http://web.resource.org/cc/"
   xmlns:rdf="http://www.w3.org/1999/02/22-rdf-syntax-ns#"
   xmlns:svg="http://www.w3.org/2000/svg"
   xmlns="http://www.w3.org/2000/svg"
   xmlns:xlink="http://www.w3.org/1999/xlink"
   xmlns:sodipodi="http://inkscape.sourceforge.net/DTD/sodipodi-0.dtd"
   xmlns:inkscape="http://www.inkscape.org/namespaces/inkscape"
   inkscape:export-ydpi="90.000000"
   inkscape:export-xdpi="90.000000"
   inkscape:export-filename="/home/pippin/src/babl/docs/graphics/babl.png"
   sodipodi:docname="babl-48x48.svg"
   sodipodi:docbase="/home/pippin/src/babl/docs/graphics"
   inkscape:version="0.41"
   sodipodi:version="0.32"
   id="svg22444"
   height="48.000000px"
   width="48.000000px">
  <defs
     id="defs3">
    <radialGradient
       r="7.7136898"
       fy="167.31000"
       fx="297.30670"
       cy="167.35597"
       cx="297.26108"
       gradientUnits="userSpaceOnUse"
       id="radialGradient2263"
       xlink:href="#linearGradient3769"
       inkscape:collect="always" />
    <radialGradient
       r="16.054159"
       fy="173.68797"
       fx="293.63730"
       cy="173.68797"
       cx="293.63730"
       gradientUnits="userSpaceOnUse"
       id="radialGradient2261"
       xlink:href="#linearGradient3775"
       inkscape:collect="always" />
    <radialGradient
       r="14.441721"
       fy="166.15393"
       fx="293.64859"
       cy="166.39696"
       cx="293.51672"
       gradientUnits="userSpaceOnUse"
       id="radialGradient2259"
       xlink:href="#linearGradient3737"
       inkscape:collect="always" />
    <radialGradient
       r="16.772598"
       fy="182.92325"
       fx="292.91949"
       cy="182.19415"
       cx="292.79327"
       gradientUnits="userSpaceOnUse"
       id="radialGradient2257"
       xlink:href="#linearGradient3725"
       inkscape:collect="always" />
    <radialGradient
       r="7.7136898"
       fy="167.31000"
       fx="297.30670"
       cy="167.35597"
       cx="297.26108"
       gradientUnits="userSpaceOnUse"
       id="radialGradient2255"
       xlink:href="#linearGradient3769"
       inkscape:collect="always" />
    <radialGradient
       r="16.054159"
       fy="173.68797"
       fx="293.63730"
       cy="173.68797"
       cx="293.63730"
       gradientUnits="userSpaceOnUse"
       id="radialGradient2253"
       xlink:href="#linearGradient3775"
       inkscape:collect="always" />
    <radialGradient
       r="14.441721"
       fy="166.15393"
       fx="293.64859"
       cy="166.39696"
       cx="293.51672"
       gradientUnits="userSpaceOnUse"
       id="radialGradient2251"
       xlink:href="#linearGradient3737"
       inkscape:collect="always" />
    <radialGradient
       r="16.772598"
       fy="182.92325"
       fx="292.91949"
       cy="182.19415"
       cx="292.79327"
       gradientUnits="userSpaceOnUse"
       id="radialGradient2249"
       xlink:href="#linearGradient3725"
       inkscape:collect="always" />
    <linearGradient
       y2="131.12579"
       x2="512.21820"
       y1="138.84357"
       x1="497.25031"
       gradientTransform="matrix(-1.175523,-3.495348e-2,-5.497797e-2,1.318191,682.3556,-115.3852)"
       gradientUnits="userSpaceOnUse"
       id="linearGradient2247"
       xlink:href="#linearGradient2106"
       inkscape:collect="always" />
    <linearGradient
       id="linearGradient2090">
      <stop
         id="stop2092"
         offset="0.0000000"
         style="stop-color:#00a482;stop-opacity:0.31683168;" />
      <stop
         id="stop17794"
         offset="0.80769229"
         style="stop-color:#12244c;stop-opacity:0.41584158;" />
      <stop
         id="stop2094"
         offset="1.0000000"
         style="stop-color:#1e31a4;stop-opacity:0.0000000;" />
    </linearGradient>
    <linearGradient
       y2="82.096291"
       x2="405.35065"
       y1="479.45346"
       x1="547.55261"
       gradientTransform="matrix(0.427382,0.000000,0.000000,0.452061,-150.3320,-56.47006)"
       gradientUnits="userSpaceOnUse"
       id="linearGradient15225"
       xlink:href="#linearGradient2090"
       inkscape:collect="always" />
    <radialGradient
       inkscape:collect="always"
       xlink:href="#linearGradient3769"
       id="radialGradient3402"
       gradientUnits="userSpaceOnUse"
       cx="297.26108"
       cy="167.35597"
       fx="297.30670"
       fy="167.31000"
       r="7.7136898" />
    <radialGradient
       inkscape:collect="always"
       xlink:href="#linearGradient3775"
       id="radialGradient3400"
       gradientUnits="userSpaceOnUse"
       cx="293.63730"
       cy="173.68797"
       fx="293.63730"
       fy="173.68797"
       r="16.054159" />
    <radialGradient
       inkscape:collect="always"
       xlink:href="#linearGradient3737"
       id="radialGradient3398"
       gradientUnits="userSpaceOnUse"
       cx="293.51672"
       cy="166.39696"
       fx="293.64859"
       fy="166.15393"
       r="14.441721" />
    <radialGradient
       inkscape:collect="always"
       xlink:href="#linearGradient3725"
       id="radialGradient3396"
       gradientUnits="userSpaceOnUse"
       cx="292.79327"
       cy="182.19415"
       fx="292.91949"
       fy="182.92325"
       r="16.772598" />
    <linearGradient
       id="linearGradient3769">
      <stop
         id="stop3771"
         offset="0.0000000"
         style="stop-color:#ffffff;stop-opacity:0.58415842;" />
      <stop
         id="stop3773"
         offset="1"
         style="stop-color:#dcd7ff;stop-opacity:0;" />
    </linearGradient>
    <radialGradient
       inkscape:collect="always"
       xlink:href="#linearGradient3769"
       id="radialGradient3394"
       gradientUnits="userSpaceOnUse"
       cx="297.26108"
       cy="167.35597"
       fx="297.30670"
       fy="167.31000"
       r="7.7136898" />
    <linearGradient
       id="linearGradient3775">
      <stop
         id="stop3777"
         offset="0.0000000"
         style="stop-color:#ffffff;stop-opacity:0.0000000;" />
      <stop
         id="stop3783"
         offset="0.98000002"
         style="stop-color:#ffffff;stop-opacity:0.039603960;" />
      <stop
         id="stop3779"
         offset="1.0000000"
         style="stop-color:#ffffff;stop-opacity:0.079207920;" />
    </linearGradient>
    <radialGradient
       inkscape:collect="always"
       xlink:href="#linearGradient3775"
       id="radialGradient3392"
       gradientUnits="userSpaceOnUse"
       cx="293.63730"
       cy="173.68797"
       fx="293.63730"
       fy="173.68797"
       r="16.054159" />
    <radialGradient
       inkscape:collect="always"
       xlink:href="#linearGradient3737"
       id="radialGradient3390"
       gradientUnits="userSpaceOnUse"
       cx="293.51672"
       cy="166.39696"
       fx="293.64859"
       fy="166.15393"
       r="14.441721" />
    <radialGradient
       inkscape:collect="always"
       xlink:href="#linearGradient3725"
       id="radialGradient3388"
       gradientUnits="userSpaceOnUse"
       cx="292.79327"
       cy="182.19415"
       fx="292.91949"
       fy="182.92325"
       r="16.772598" />
    <linearGradient
       id="linearGradient3737">
      <stop
         id="stop3739"
         offset="0.0000000"
         style="stop-color:#ffffff;stop-opacity:0.25098041;" />
      <stop
         id="stop3787"
         offset="0.57692307"
         style="stop-color:#ffffff;stop-opacity:0.12549020;" />
      <stop
         id="stop3741"
         offset="1.0000000"
         style="stop-color:#ffffff;stop-opacity:0.0000000;" />
    </linearGradient>
    <radialGradient
       inkscape:collect="always"
       xlink:href="#linearGradient3737"
       id="radialGradient3386"
       gradientUnits="userSpaceOnUse"
       cx="293.51672"
       cy="166.39696"
       fx="293.64859"
       fy="166.15393"
       r="14.441721" />
    <linearGradient
       id="linearGradient3725">
      <stop
         id="stop3727"
         offset="0.0000000"
         style="stop-color:#020202;stop-opacity:0.24752475;" />
      <stop
         id="stop3789"
         offset="0.42307693"
         style="stop-color:#000000;stop-opacity:0.12549020;" />
      <stop
         id="stop3729"
         offset="1.0000000"
         style="stop-color:#000000;stop-opacity:0.0000000;" />
    </linearGradient>
    <radialGradient
       inkscape:collect="always"
       xlink:href="#linearGradient3725"
       id="radialGradient3384"
       gradientUnits="userSpaceOnUse"
       cx="292.79327"
       cy="182.19415"
       fx="292.91949"
       fy="182.92325"
       r="16.772598" />
    <linearGradient
       id="linearGradient2098">
      <stop
         id="stop2100"
         offset="0"
         style="stop-color:#003f00;stop-opacity:1;" />
      <stop
         id="stop2102"
         offset="1.0000000"
         style="stop-color:#319f31;stop-opacity:1.0000000;" />
    </linearGradient>
    <linearGradient
       inkscape:collect="always"
       xlink:href="#linearGradient2098"
       id="linearGradient3382"
       gradientUnits="userSpaceOnUse"
       x1="278.08313"
       y1="173.68797"
       x2="309.19147"
       y2="173.68797" />
    <linearGradient
       id="linearGradient2106">
      <stop
         id="stop2108"
         offset="0.0000000"
         style="stop-color:#006200;stop-opacity:1.0000000;" />
      <stop
         id="stop2110"
         offset="1.0000000"
         style="stop-color:#002000;stop-opacity:0.96039605;" />
    </linearGradient>
    <linearGradient
       inkscape:collect="always"
       xlink:href="#linearGradient2106"
       id="linearGradient3380"
       gradientUnits="userSpaceOnUse"
       gradientTransform="matrix(0.823983,0.000000,0.000000,1.213617,-236.0338,-109.4693)"
       x1="497.25031"
       y1="138.84357"
       x2="512.21820"
       y2="131.12579" />
    <linearGradient
       y2="131.12579"
       x2="512.21820"
       y1="138.84357"
       x1="497.25031"
       gradientTransform="matrix(0.823983,0.000000,0.000000,1.213617,-236.0338,-109.4693)"
       gradientUnits="userSpaceOnUse"
       id="linearGradient22529"
       xlink:href="#linearGradient2106"
       inkscape:collect="always" />
    <linearGradient
       y2="173.68797"
       x2="309.19147"
       y1="173.68797"
       x1="278.08313"
       gradientUnits="userSpaceOnUse"
       id="linearGradient22531"
       xlink:href="#linearGradient2098"
       inkscape:collect="always" />
    <radialGradient
       r="16.772598"
       fy="182.92325"
       fx="292.91949"
       cy="182.19415"
       cx="292.79327"
       gradientUnits="userSpaceOnUse"
       id="radialGradient22533"
       xlink:href="#linearGradient3725"
       inkscape:collect="always" />
    <radialGradient
       r="14.441721"
       fy="166.15393"
       fx="293.64859"
       cy="166.39696"
       cx="293.51672"
       gradientUnits="userSpaceOnUse"
       id="radialGradient22535"
       xlink:href="#linearGradient3737"
       inkscape:collect="always" />
    <radialGradient
       r="16.772598"
       fy="182.92325"
       fx="292.91949"
       cy="182.19415"
       cx="292.79327"
       gradientUnits="userSpaceOnUse"
       id="radialGradient22537"
       xlink:href="#linearGradient3725"
       inkscape:collect="always" />
    <radialGradient
       r="14.441721"
       fy="166.15393"
       fx="293.64859"
       cy="166.39696"
       cx="293.51672"
       gradientUnits="userSpaceOnUse"
       id="radialGradient22539"
       xlink:href="#linearGradient3737"
       inkscape:collect="always" />
    <radialGradient
       r="16.054159"
       fy="173.68797"
       fx="293.63730"
       cy="173.68797"
       cx="293.63730"
       gradientUnits="userSpaceOnUse"
       id="radialGradient22541"
       xlink:href="#linearGradient3775"
       inkscape:collect="always" />
    <radialGradient
       r="7.7136898"
       fy="167.31000"
       fx="297.30670"
       cy="167.35597"
       cx="297.26108"
       gradientUnits="userSpaceOnUse"
       id="radialGradient22543"
       xlink:href="#linearGradient3769"
       inkscape:collect="always" />
    <radialGradient
       r="16.772598"
       fy="182.92325"
       fx="292.91949"
       cy="182.19415"
       cx="292.79327"
       gradientUnits="userSpaceOnUse"
       id="radialGradient22545"
       xlink:href="#linearGradient3725"
       inkscape:collect="always" />
    <radialGradient
       r="14.441721"
       fy="166.15393"
       fx="293.64859"
       cy="166.39696"
       cx="293.51672"
       gradientUnits="userSpaceOnUse"
       id="radialGradient22547"
       xlink:href="#linearGradient3737"
       inkscape:collect="always" />
    <radialGradient
       r="16.054159"
       fy="173.68797"
       fx="293.63730"
       cy="173.68797"
       cx="293.63730"
       gradientUnits="userSpaceOnUse"
       id="radialGradient22549"
       xlink:href="#linearGradient3775"
       inkscape:collect="always" />
    <radialGradient
       r="7.7136898"
       fy="167.31000"
       fx="297.30670"
       cy="167.35597"
       cx="297.26108"
       gradientUnits="userSpaceOnUse"
       id="radialGradient22551"
       xlink:href="#linearGradient3769"
       inkscape:collect="always" />
    <linearGradient
       y2="-4.6055222"
       x2="62.451553"
       y1="155.83595"
       x1="86.064316"
       gradientTransform="scale(0.972321,1.028467)"
       gradientUnits="userSpaceOnUse"
       id="linearGradient22554"
       xlink:href="#linearGradient2090"
       inkscape:collect="always" />
  </defs>
  <sodipodi:namedview
     inkscape:window-y="102"
     inkscape:window-x="360"
     inkscape:window-height="537"
     inkscape:window-width="640"
     inkscape:document-units="px"
     inkscape:grid-bbox="true"
     showgrid="true"
     inkscape:current-layer="layer1"
     inkscape:cy="27.633972"
     inkscape:cx="34.006779"
     inkscape:zoom="5.6568542"
     inkscape:pageshadow="2"
     inkscape:pageopacity="0.0"
     borderopacity="1.0"
     bordercolor="#666666"
     pagecolor="#ffffff"
     id="base" />
  <metadata
     id="metadata4">
    <rdf:RDF
       id="RDF5">
      <cc:Work
         id="Work6"
         rdf:about="">
        <dc:format
           id="format7">image/svg+xml</dc:format>
        <dc:type
           rdf:resource="http://purl.org/dc/dcmitype/StillImage"
           id="type9" />
        <dc:title
           id="title22660">Babl icon</dc:title>
        <dc:date
           id="date22662">2005-08-20</dc:date>
        <dc:creator
           id="creator22664">
          <cc:Agent
             id="Agent22666">
            <dc:title
               id="title22668">Øyvind Kolås</dc:title>
          </cc:Agent>
        </dc:creator>
        <cc:license
           rdf:resource="http://creativecommons.org/licenses/by/2.0/"
           id="license22670" />
        <dc:source
           id="source22684" />
        <dc:description
           id="description22686" />
      </cc:Work>
      <cc:License
         id="License22672"
         rdf:about="http://creativecommons.org/licenses/by/2.0/">
        <cc:permits
           id="permits22674"
           rdf:resource="http://web.resource.org/cc/Reproduction" />
        <cc:permits
           id="permits22676"
           rdf:resource="http://web.resource.org/cc/Distribution" />
        <cc:requires
           id="requires22678"
           rdf:resource="http://web.resource.org/cc/Notice" />
        <cc:requires
           id="requires22680"
           rdf:resource="http://web.resource.org/cc/Attribution" />
        <cc:prohibits
           id="prohibits22682"
           rdf:resource="http://web.resource.org/cc/CommercialUse" />
      </cc:License>
    </rdf:RDF>
  </metadata>
  <g
     inkscape:groupmode="layer"
     inkscape:label="Layer 1"
     id="layer1">
    <path
       sodipodi:nodetypes="ccccccccccccccccccccccccccccccccccccccccccc"
       style="opacity:0.0000000;stroke-width:1.0000000;stroke:none;fill-opacity:1.0;fill:url(#linearGradient22554)"
       d="M 6.3076266,-45.118406 C 6.3076266,-45.118406 6.2329024,33.011302 6.2329024,33.011302 C 6.2329024,33.011302 15.023866,33.011302 15.023866,33.011302 C 15.023866,33.011302 15.023866,44.000000 15.023866,44.000000 C 15.023866,44.000000 4.0000000,44.000000 4.0000000,44.000000 C 4.0000000,44.000000 4.0000000,-45.008516 4.0000000,-45.008516 C 4.0000000,-45.008516 6.3076266,-45.118406 6.3076266,-45.118406 z M 6.2329024,41.767099 C 6.2329024,41.767099 12.790961,41.767099 12.790961,41.767099 C 12.790961,41.767099 12.790961,35.244202 12.790961,35.244202 C 12.790961,35.244202 6.2329024,35.244202 6.2329024,35.244202 C 6.2329024,35.244202 6.2329024,41.767099 6.2329024,41.767099 z M 19.419344,41.767099 C 19.419344,41.767099 25.977399,41.767099 25.977399,41.767099 C 25.977399,41.767099 25.977399,39.604524 25.977399,39.604524 C 25.977399,39.604524 19.419344,39.604524 19.419344,39.604524 C 19.419344,39.604524 19.419344,41.767099 19.419344,41.767099 z M 28.210301,33.011302 C 28.210301,33.011302 28.210301,44.000000 28.210301,44.000000 C 28.210301,44.000000 17.186440,44.000000 17.186440,44.000000 C 17.186440,44.000000 17.186440,37.371615 17.186440,37.371615 C 17.186440,37.371615 25.977399,37.371615 25.977399,37.371615 C 25.977399,37.371615 25.977399,35.244202 25.977399,35.244202 C 25.977399,35.244202 17.186440,35.244202 17.186440,35.244202 C 17.186440,35.244202 17.186440,33.011302 17.186440,33.011302 C 17.186440,33.011302 28.210301,33.011302 28.210301,33.011302 z M 32.605779,28.176276 C 32.605779,28.176276 32.605779,33.011302 32.605779,33.011302 C 32.605779,33.011302 41.396735,33.011302 41.396735,33.011302 C 41.396735,33.011302 41.396735,44.000000 41.396735,44.000000 C 41.396735,44.000000 30.372877,44.000000 30.372877,44.000000 C 30.372877,44.000000 30.372877,28.176276 30.372877,28.176276 C 30.372877,28.176276 32.605779,28.176276 32.605779,28.176276 z M 32.605779,41.767099 C 32.605779,41.767099 39.163834,41.767099 39.163834,41.767099 C 39.163834,41.767099 39.163834,35.244202 39.163834,35.244202 C 39.163834,35.244202 32.605779,35.244202 32.605779,35.244202 C 32.605779,35.244202 32.605779,41.767099 32.605779,41.767099 z M 45.866938,-44.788746 C 45.866938,-44.788746 45.792216,44.000000 45.792216,44.000000 C 45.792216,44.000000 43.559313,44.000000 43.559313,44.000000 C 43.559313,44.000000 43.669197,-44.788746 43.669197,-44.788746 C 43.669197,-44.788746 45.866938,-44.788746 45.866938,-44.788746 z "
       id="babl" />
    <g
       id="g3361"
       transform="matrix(0.802284,0.000000,0.000000,0.802284,-107.8994,-28.91102)">
      <path
         style="fill:url(#linearGradient22529);fill-opacity:1.0000000;stroke:none;stroke-width:1.0000000"
         d="M 188.89292,44.760980 C 176.35292,49.120980 172.53292,57.850980 173.98292,65.480980 C 175.44292,73.120980 179.07292,74.390980 193.07292,72.570980 C 183.80292,65.670980 179.44292,59.670980 188.89292,44.760980 z "
         id="tail" />
      <g
         transform="translate(-237.1827,-109.6991)"
         id="g5419">
        <path
           transform="matrix(1.357648,0.000000,0.000000,0.754363,-2.043468,43.23668)"
           d="M 309.19146 173.68797 A 15.554159 15.554159 0 1 1  278.08314,173.68797 A 15.554159 15.554159 0 1 1  309.19146 173.68797 z"
           sodipodi:ry="15.554159"
           sodipodi:rx="15.554159"
           sodipodi:cy="173.68797"
           sodipodi:cx="293.63730"
           id="path5352"
           style="fill:url(#linearGradient22531);fill-opacity:1.0000000;stroke:none"
           sodipodi:type="arc" />
        <path
           transform="matrix(1.357648,0.000000,0.000000,0.754363,-2.043468,43.23668)"
           d="M 309.19146 173.68797 A 15.554159 15.554159 0 1 1  278.08314,173.68797 A 15.554159 15.554159 0 1 1  309.19146 173.68797 z"
           sodipodi:ry="15.554159"
           sodipodi:rx="15.554159"
           sodipodi:cy="173.68797"
           sodipodi:cx="293.63730"
           id="path5354"
           style="fill:url(#radialGradient22533);fill-opacity:1.0000000;stroke:none"
           sodipodi:type="arc" />
        <path
           transform="matrix(1.357648,0.000000,0.000000,0.754363,-2.043468,43.23668)"
           d="M 309.19146 173.68797 A 15.554159 15.554159 0 1 1  278.08314,173.68797 A 15.554159 15.554159 0 1 1  309.19146 173.68797 z"
           sodipodi:ry="15.554159"
           sodipodi:rx="15.554159"
           sodipodi:cy="173.68797"
           sodipodi:cx="293.63730"
           id="path5356"
           style="fill:url(#radialGradient22535);fill-opacity:1.0000000;stroke:none;stroke-opacity:1.0000000"
           sodipodi:type="arc" />
      </g>
      <g
         id="g3342">
        <path
           transform="matrix(0.305325,0.000000,0.000000,0.297351,52.22804,8.902103)"
           d="M 309.19146 173.68797 A 15.554159 15.554159 0 1 1  278.08314,173.68797 A 15.554159 15.554159 0 1 1  309.19146 173.68797 z"
           sodipodi:ry="15.554159"
           sodipodi:rx="15.554159"
           sodipodi:cy="173.68797"
           sodipodi:cx="293.63730"
           id="path4845"
           style="fill:#eaeaea;fill-opacity:1.0000000;stroke:none"
           sodipodi:type="arc" />
        <path
           transform="matrix(0.305325,0.000000,0.000000,0.297351,52.22804,8.902103)"
           d="M 309.19146 173.68797 A 15.554159 15.554159 0 1 1  278.08314,173.68797 A 15.554159 15.554159 0 1 1  309.19146 173.68797 z"
           sodipodi:ry="15.554159"
           sodipodi:rx="15.554159"
           sodipodi:cy="173.68797"
           sodipodi:cx="293.63730"
           id="path4847"
           style="fill:url(#radialGradient22537);fill-opacity:1.0000000;stroke:none"
           sodipodi:type="arc" />
        <path
           transform="matrix(0.305325,0.000000,0.000000,0.297351,52.22804,8.902103)"
           d="M 309.19146 173.68797 A 15.554159 15.554159 0 1 1  278.08314,173.68797 A 15.554159 15.554159 0 1 1  309.19146 173.68797 z"
           sodipodi:ry="15.554159"
           sodipodi:rx="15.554159"
           sodipodi:cy="173.68797"
           sodipodi:cx="293.63730"
           id="path4849"
           style="fill:url(#radialGradient22539);fill-opacity:1.0000000;stroke:url(#radialGradient22541);stroke-opacity:1.0000000"
           sodipodi:type="arc" />
        <path
           transform="matrix(0.582483,0.000000,0.000000,0.561567,-66.35254,-39.32076)"
           d="M 360.53069 177.23495 A 3.9148138 3.9148138 0 1 1  352.70106,177.23495 A 3.9148138 3.9148138 0 1 1  360.53069 177.23495 z"
           sodipodi:ry="3.9148138"
           sodipodi:rx="3.9148138"
           sodipodi:cy="177.23495"
           sodipodi:cx="356.61588"
           id="path4851"
           style="fill:#404040;fill-opacity:1.0000000;stroke:none"
           sodipodi:type="arc" />
        <path
           transform="matrix(0.308390,0.000000,0.000000,0.412793,49.94549,-11.31996)"
           d="M 300.36342 168.64339 A 2.9426789 2.9426789 0 1 1  294.47807,168.64339 A 2.9426789 2.9426789 0 1 1  300.36342 168.64339 z"
           sodipodi:ry="2.9426789"
           sodipodi:rx="2.9426789"
           sodipodi:cy="168.64339"
           sodipodi:cx="297.42075"
           id="path4870"
           style="fill:url(#radialGradient22543);fill-opacity:1.0000000;stroke:none"
           sodipodi:type="arc" />
      </g>
      <g
         id="g3354">
        <path
           transform="matrix(0.355197,0.000000,0.000000,0.345921,44.96393,1.489673)"
           d="M 309.19146 173.68797 A 15.554159 15.554159 0 1 1  278.08314,173.68797 A 15.554159 15.554159 0 1 1  309.19146 173.68797 z"
           sodipodi:ry="15.554159"
           sodipodi:rx="15.554159"
           sodipodi:cy="173.68797"
           sodipodi:cx="293.63730"
           id="path4905"
           style="fill:#eaeaea;fill-opacity:1.0000000;stroke:none"
           sodipodi:type="arc" />
        <path
           transform="matrix(0.355197,0.000000,0.000000,0.345921,44.96393,1.489673)"
           d="M 309.19146 173.68797 A 15.554159 15.554159 0 1 1  278.08314,173.68797 A 15.554159 15.554159 0 1 1  309.19146 173.68797 z"
           sodipodi:ry="15.554159"
           sodipodi:rx="15.554159"
           sodipodi:cy="173.68797"
           sodipodi:cx="293.63730"
           id="path4907"
           style="fill:url(#radialGradient22545);fill-opacity:1.0000000;stroke:none"
           sodipodi:type="arc" />
        <path
           transform="matrix(0.355197,0.000000,0.000000,0.345921,44.96393,1.489673)"
           d="M 309.19146 173.68797 A 15.554159 15.554159 0 1 1  278.08314,173.68797 A 15.554159 15.554159 0 1 1  309.19146 173.68797 z"
           sodipodi:ry="15.554159"
           sodipodi:rx="15.554159"
           sodipodi:cy="173.68797"
           sodipodi:cx="293.63730"
           id="path4909"
           style="fill:url(#radialGradient22547);fill-opacity:1.0000000;stroke:url(#radialGradient22549);stroke-opacity:1.0000000"
           sodipodi:type="arc" />
        <path
           transform="matrix(0.677626,0.000000,0.000000,0.653293,-92.98569,-54.60994)"
           d="M 360.53069 177.23495 A 3.9148138 3.9148138 0 1 1  352.70106,177.23495 A 3.9148138 3.9148138 0 1 1  360.53069 177.23495 z"
           sodipodi:ry="3.9148138"
           sodipodi:rx="3.9148138"
           sodipodi:cy="177.23495"
           sodipodi:cx="356.61588"
           id="path4911"
           style="fill:#3f3f3f;fill-opacity:1.0000000;stroke:none"
           sodipodi:type="arc" />
        <path
           transform="matrix(0.358762,0.000000,0.000000,0.480218,42.30855,-22.03548)"
           d="M 300.36342 168.64339 A 2.9426789 2.9426789 0 1 1  294.47807,168.64339 A 2.9426789 2.9426789 0 1 1  300.36342 168.64339 z"
           sodipodi:ry="2.9426789"
           sodipodi:rx="2.9426789"
           sodipodi:cy="168.64339"
           sodipodi:cx="297.42075"
           id="path4913"
           style="fill:url(#radialGradient22551);fill-opacity:1.0000000;stroke:none"
           sodipodi:type="arc" />
      </g>
    </g>
  </g>
</svg>
