<?xml version="1.0" encoding="UTF-8" standalone="no"?>
<!-- Created with Inkscape (http://www.inkscape.org/) -->
<svg
   xmlns:dc="http://purl.org/dc/elements/1.1/"
   xmlns:cc="http://web.resource.org/cc/"
   xmlns:rdf="http://www.w3.org/1999/02/22-rdf-syntax-ns#"
   xmlns:svg="http://www.w3.org/2000/svg"
   xmlns="http://www.w3.org/2000/svg"
   xmlns:xlink="http://www.w3.org/1999/xlink"
   xmlns:sodipodi="http://sodipodi.sourceforge.net/DTD/sodipodi-0.dtd"
   xmlns:inkscape="http://www.inkscape.org/namespaces/inkscape"
   width="48"
   height="48"
   id="svg2"
   sodipodi:version="0.32"
   inkscape:version="0.44"
   version="1.0"
   sodipodi:docbase="/home/lapo/Icone/cvs/gnome-icon-theme/scalable/devices"
   sodipodi:docname="input-mouse.svg"
   inkscape:output_extension="org.inkscape.output.svg.inkscape">
  <defs
     id="defs4">
    <linearGradient
       inkscape:collect="always"
       id="linearGradient5052">
      <stop
         style="stop-color:#eeeeec;stop-opacity:1;"
         offset="0"
         id="stop5054" />
      <stop
         style="stop-color:#888a85"
         offset="1"
         id="stop5056" />
    </linearGradient>
    <linearGradient
       inkscape:collect="always"
       id="linearGradient5036">
      <stop
         style="stop-color:#888a85;stop-opacity:1;"
         offset="0"
         id="stop5038" />
      <stop
         style="stop-color:#888a85;stop-opacity:0;"
         offset="1"
         id="stop5040" />
    </linearGradient>
    <linearGradient
       id="linearGradient5024">
      <stop
         style="stop-color:#555753"
         offset="0"
         id="stop5026" />
      <stop
         style="stop-color:#555753;stop-opacity:0;"
         offset="1"
         id="stop5028" />
    </linearGradient>
    <linearGradient
       inkscape:collect="always"
       id="linearGradient4881">
      <stop
         style="stop-color:#ffffff;stop-opacity:1;"
         offset="0"
         id="stop4883" />
      <stop
         style="stop-color:#ffffff;stop-opacity:0;"
         offset="1"
         id="stop4885" />
    </linearGradient>
    <linearGradient
       inkscape:collect="always"
       id="linearGradient2329">
      <stop
         style="stop-color:#888a85;stop-opacity:1;"
         offset="0"
         id="stop2331" />
      <stop
         style="stop-color:#888a85;stop-opacity:0;"
         offset="1"
         id="stop2333" />
    </linearGradient>
    <linearGradient
       inkscape:collect="always"
       id="linearGradient2319">
      <stop
         style="stop-color:#ffffff;stop-opacity:1;"
         offset="0"
         id="stop2321" />
      <stop
         style="stop-color:#ffffff;stop-opacity:0;"
         offset="1"
         id="stop2323" />
    </linearGradient>
    <linearGradient
       id="linearGradient2303">
      <stop
         style="stop-color:#eeeeec"
         offset="0"
         id="stop2305" />
      <stop
         id="stop4891"
         offset="0.61904764"
         style="stop-color:#dedfdc;stop-opacity:1;" />
      <stop
         style="stop-color:#babdb6"
         offset="1"
         id="stop2307" />
    </linearGradient>
    <radialGradient
       inkscape:collect="always"
       xlink:href="#linearGradient2303"
       id="radialGradient2309"
       cx="14.875"
       cy="17.263519"
       fx="14.875"
       fy="17.263519"
       r="15"
       gradientTransform="matrix(0.502475,3.093649,-1.648193,0.267715,35.85428,-34.76476)"
       gradientUnits="userSpaceOnUse" />
    <linearGradient
       inkscape:collect="always"
       xlink:href="#linearGradient2319"
       id="linearGradient2325"
       x1="24.875"
       y1="17.250874"
       x2="24.875"
       y2="8.3119793"
       gradientUnits="userSpaceOnUse"
       gradientTransform="translate(0,1)" />
    <linearGradient
       inkscape:collect="always"
       xlink:href="#linearGradient2329"
       id="linearGradient2335"
       x1="23.25"
       y1="16.209139"
       x2="23.25"
       y2="9.2955227"
       gradientUnits="userSpaceOnUse"
       gradientTransform="translate(0,1)" />
    <linearGradient
       inkscape:collect="always"
       xlink:href="#linearGradient4881"
       id="linearGradient5004"
       gradientUnits="userSpaceOnUse"
       gradientTransform="translate(2,1)"
       x1="8.867074"
       y1="25.9375"
       x2="12.813787"
       y2="25.9375" />
    <linearGradient
       inkscape:collect="always"
       xlink:href="#linearGradient5024"
       id="linearGradient5030"
       x1="30.616116"
       y1="3.3276651"
       x2="31.094669"
       y2="0.12944162"
       gradientUnits="userSpaceOnUse"
       gradientTransform="translate(1.039776,1)" />
    <linearGradient
       inkscape:collect="always"
       xlink:href="#linearGradient5036"
       id="linearGradient5042"
       x1="34.206291"
       y1="8.1061554"
       x2="35.885674"
       y2="4.9194174"
       gradientUnits="userSpaceOnUse" />
    <linearGradient
       inkscape:collect="always"
       xlink:href="#linearGradient5052"
       id="linearGradient5058"
       x1="23.499411"
       y1="10.03125"
       x2="26.000536"
       y2="10.03125"
       gradientUnits="userSpaceOnUse" />
  </defs>
  <sodipodi:namedview
     id="base"
     pagecolor="#ffffff"
     bordercolor="#666666"
     borderopacity="1.0"
     inkscape:pageopacity="0.0"
     inkscape:pageshadow="2"
     inkscape:zoom="1"
     inkscape:cx="42.044392"
     inkscape:cy="15.813365"
     inkscape:document-units="px"
     inkscape:current-layer="layer3"
     showgrid="false"
     gridempspacing="2"
     gridspacingx="0.5px"
     gridspacingy="0.5px"
     inkscape:window-width="930"
     inkscape:window-height="738"
     inkscape:window-x="21"
     inkscape:window-y="138"
     showguides="false"
     inkscape:guide-bbox="true"
     stroke="#2e3436"
     inkscape:grid-points="true"
     fill="#2e3436"
     inkscape:showpageshadow="false"
     showborder="false">
    <sodipodi:guide
       orientation="vertical"
       position="8.9272231"
       id="guide1403" />
    <sodipodi:guide
       orientation="vertical"
       position="38.979261"
       id="guide1405" />
    <sodipodi:guide
       orientation="horizontal"
       position="2.032932"
       id="guide1407" />
    <sodipodi:guide
       orientation="horizontal"
       position="38.979261"
       id="guide1409" />
  </sodipodi:namedview>
  <metadata
     id="metadata7">
    <rdf:RDF>
      <cc:Work
         rdf:about="">
        <dc:format>image/svg+xml</dc:format>
        <dc:type
           rdf:resource="http://purl.org/dc/dcmitype/StillImage" />
        <dc:creator>
          <cc:Agent>
            <dc:title>Lapo Calamandrei</dc:title>
          </cc:Agent>
        </dc:creator>
        <dc:title>Input - Mouse</dc:title>
        <dc:subject>
          <rdf:Bag>
            <rdf:li>mouse</rdf:li>
            <rdf:li>pointer</rdf:li>
            <rdf:li>input</rdf:li>
            <rdf:li>device</rdf:li>
            <rdf:li>HID</rdf:li>
          </rdf:Bag>
        </dc:subject>
        <cc:license
           rdf:resource="http://creativecommons.org/licenses/GPL/2.0/" />
      </cc:Work>
      <cc:License
         rdf:about="http://creativecommons.org/licenses/GPL/2.0/">
        <cc:permits
           rdf:resource="http://web.resource.org/cc/Reproduction" />
        <cc:permits
           rdf:resource="http://web.resource.org/cc/Distribution" />
        <cc:requires
           rdf:resource="http://web.resource.org/cc/Notice" />
        <cc:permits
           rdf:resource="http://web.resource.org/cc/DerivativeWorks" />
        <cc:requires
           rdf:resource="http://web.resource.org/cc/ShareAlike" />
        <cc:requires
           rdf:resource="http://web.resource.org/cc/SourceCode" />
      </cc:License>
    </rdf:RDF>
  </metadata>
  <g
     inkscape:groupmode="layer"
     id="layer3"
     inkscape:label="Mouse"
     style="display:inline">
    <path
       style="opacity:0.1;color:#000000;fill:#2e3436;fill-opacity:1;fill-rule:nonzero;stroke:#2e3436;stroke-width:0.99999905;stroke-linecap:round;stroke-linejoin:round;marker:none;marker-start:none;marker-mid:none;marker-end:none;stroke-miterlimit:4;stroke-dashoffset:0;stroke-opacity:1;visibility:visible;display:inline;overflow:visible"
       d="M 17.875563,11.133446 L 30.033402,11.133446 C 34.811405,11.133446 38.657954,13.992592 38.657954,17.544091 L 38.657954,40.442144 C 38.657954,43.993641 34.094808,46.852787 28.010613,46.852787 L 19.89835,46.852787 C 13.814155,46.852787 9.2510082,43.954959 9.2510082,40.403462 L 9.2510082,17.544091 C 9.2510082,13.992592 13.097558,11.133446 17.875563,11.133446 z "
       id="path5066"
       sodipodi:nodetypes="ccccccccc" />
    <path
       style="opacity:0.1;color:#000000;fill:#2e3436;fill-opacity:1;fill-rule:nonzero;stroke:#2e3436;stroke-width:0.99999946;stroke-linecap:round;stroke-linejoin:round;marker:none;marker-start:none;marker-mid:none;marker-end:none;stroke-miterlimit:4;stroke-dashoffset:0;stroke-opacity:1;visibility:visible;display:inline;overflow:visible"
       d="M 17.624702,10.396406 L 30.284285,10.396406 C 35.259472,10.396406 39.264766,13.373547 39.264766,17.071612 L 39.264766,40.914649 C 39.264766,44.612712 34.513302,47.589853 28.178017,47.589853 L 19.73097,47.589853 C 13.395684,47.589853 8.6442204,44.572434 8.6442204,40.87437 L 8.6442204,17.071612 C 8.6442204,13.373547 12.649515,10.396406 17.624702,10.396406 z "
       id="path5062"
       sodipodi:nodetypes="ccccccccc" />
    <path
       style="opacity:0.1;color:#000000;fill:#2e3436;fill-opacity:1;fill-rule:nonzero;stroke:#2e3436;stroke-width:0.9999994;stroke-linecap:round;stroke-linejoin:round;marker:none;marker-start:none;marker-mid:none;marker-end:none;stroke-miterlimit:4;stroke-dashoffset:0;stroke-opacity:1;visibility:visible;display:inline;overflow:visible"
       d="M 17.769487,10.821782 L 30.139497,10.821782 C 35.000882,10.821782 38.914559,13.730824 38.914559,17.344301 L 38.914559,40.641956 C 38.914559,44.255431 34.27178,47.164473 28.081407,47.164473 L 19.827575,47.164473 C 13.637202,47.164473 8.9944225,44.216074 8.9944225,40.602599 L 8.9944225,17.344301 C 8.9944225,13.730824 12.9081,10.821782 17.769487,10.821782 z "
       id="path5064"
       sodipodi:nodetypes="ccccccccc" />
    <path
       style="opacity:0.30980392;fill:none;fill-opacity:1;fill-rule:evenodd;stroke:url(#linearGradient5042);stroke-width:1;stroke-linecap:butt;stroke-linejoin:miter;stroke-miterlimit:4;stroke-dasharray:none;stroke-opacity:1;display:inline"
       d="M 24.539776,11.5 C 24.539776,2.1739775 12.039776,14.21399 12.039776,6 C 12.039776,-2.3023326 33.539776,11 36.039776,8 C 38.539776,5 30.039776,6 30.039776,1"
       id="path5032"
       sodipodi:nodetypes="czzc" />
    <path
       style="opacity:1;color:#000000;fill:url(#radialGradient2309);fill-opacity:1;fill-rule:nonzero;stroke:#888a85;stroke-width:1;stroke-linecap:round;stroke-linejoin:round;marker:none;marker-start:none;marker-mid:none;marker-end:none;stroke-miterlimit:4;stroke-dashoffset:0;stroke-opacity:1;visibility:visible;display:inline;overflow:visible"
       d="M 18.005204,10.5 L 29.994796,10.5 C 34.706679,10.5 38.5,13.381612 38.5,16.961014 L 38.5,40.038986 C 38.5,43.618388 34,46.5 28,46.5 L 20,46.5 C 14,46.5 9.5,43.579402 9.5,40 L 9.5,16.961014 C 9.5,13.381612 13.293321,10.5 18.005204,10.5 z "
       id="rect1413"
       sodipodi:nodetypes="ccccccccc" />
    <path
       style="opacity:0.5;fill:none;fill-opacity:1;fill-rule:evenodd;stroke:url(#linearGradient2335);stroke-width:1;stroke-linecap:round;stroke-linejoin:round;stroke-miterlimit:4;stroke-dasharray:none;stroke-opacity:1;display:inline"
       d="M 10.5,27 C 10.5,26.5 11,25.5 12,25.5 L 22.5,25.5 C 23,25.5 23.5,25 23.5,24.5 L 23.5,11.5"
       id="path2293"
       sodipodi:nodetypes="czzzc" />
    <path
       style="opacity:0.5;fill:none;fill-opacity:0.75;fill-rule:evenodd;stroke:#888a85;stroke-width:1;stroke-linecap:round;stroke-linejoin:miter;stroke-miterlimit:4;stroke-dasharray:none;stroke-opacity:1;display:inline"
       d="M 24.5,25.5 L 36,25.5 C 37,25.5 37.5,26.5 37.5,27"
       id="path2295"
       sodipodi:nodetypes="czz" />
    <path
       style="opacity:0.5;color:#000000;fill:none;fill-opacity:1;fill-rule:nonzero;stroke:#ffffff;stroke-width:0.99999958;stroke-linecap:round;stroke-linejoin:round;marker:none;marker-start:none;marker-mid:none;marker-end:none;stroke-miterlimit:4;stroke-dashoffset:0;stroke-opacity:1;visibility:visible;display:inline;overflow:visible"
       d="M 18.005201,11.5 L 29.994799,11.5 C 34.15268,11.5 37.5,13.963486 37.5,17.023511 L 37.5,39.976489 C 37.5,43 33.5,45.5 28,45.5 L 20,45.5 C 14.5,45.5 10.5,43.036514 10.5,39.976489 L 10.5,17.023511 C 10.5,13.963486 13.84732,11.5 18.005201,11.5 z "
       id="rect2289"
       sodipodi:nodetypes="ccccccccc" />
    <path
       style="fill:none;fill-opacity:1;fill-rule:evenodd;stroke:url(#linearGradient2325);stroke-width:1.5;stroke-linecap:round;stroke-linejoin:miter;stroke-miterlimit:4;stroke-dasharray:none;stroke-opacity:1"
       d="M 24.75,24.75 L 24.75,11.75"
       id="path2299" />
    <path
       style="opacity:0.6;fill:#ffffff;fill-opacity:1;fill-rule:evenodd;stroke:none;stroke-width:1;stroke-linecap:square;stroke-linejoin:miter;stroke-miterlimit:4;stroke-dasharray:none;stroke-opacity:1;display:inline"
       d="M 12,26 C 11.333333,26 10.821104,26.348621 10.5,26.75 C 10.178896,27.151379 10,27.583333 10,28 L 10,28.5 C 10,28.5 10.475301,27 12,27 L 36,27 C 38,27 38,28.5 38,28.5 L 38,28 C 38,27.583333 37.821104,27.151379 37.5,26.75 C 37.178896,26.348621 36.666667,26 36,26 L 12,26 z "
       id="path2301"
       sodipodi:nodetypes="csccccccscc" />
    <path
       style="fill:none;fill-opacity:1;fill-rule:evenodd;stroke:url(#linearGradient5030);stroke-width:1;stroke-linecap:butt;stroke-linejoin:miter;stroke-miterlimit:4;stroke-dasharray:none;stroke-opacity:1"
       d="M 24.539776,10.5 C 24.539776,1.6112896 12.039776,13.299624 12.039776,5 C 12.039776,-3.3875414 33.539776,10 36.039776,7 C 38.539776,4 30.039776,5 30.039776,0"
       id="path5014"
       sodipodi:nodetypes="czzc" />
    <path
       style="opacity:0.77254902;color:#000000;fill:url(#linearGradient5004);fill-opacity:1;fill-rule:nonzero;stroke:none;stroke-width:0.99999958;stroke-linecap:round;stroke-linejoin:round;marker:none;marker-start:none;marker-mid:none;marker-end:none;stroke-miterlimit:4;stroke-dashoffset:0;stroke-opacity:1;visibility:visible;display:inline;overflow:visible"
       d="M 18.65625,11 C 15.705696,11.185484 12,13.636719 12,17 L 12,25 L 15,25 L 15,17 C 15,12.375 18.424125,11.154359 18.9375,11 C 18.843271,11.001218 18.752203,10.993968 18.65625,11 z M 12,27 L 12,40 C 12,43.054048 15.98535,45.988549 21.46875,46 C 21.087494,45.885271 15,43.981849 15,40 L 15,27 L 12,27 z "
       id="path3988" />
    <path
       style="color:#000000;fill:url(#linearGradient5058);fill-opacity:1;fill-rule:nonzero;stroke:#888a85;stroke-width:1;stroke-linecap:square;stroke-linejoin:round;marker:none;marker-start:none;marker-mid:none;marker-end:none;stroke-miterlimit:4;stroke-dashoffset:0;stroke-opacity:1;visibility:visible;display:inline;overflow:visible"
       d="M 22.5,9 L 25.5,9 L 25.5,10.5 C 25.5,11.394864 22.5,11.394864 22.5,10.5 L 22.5,9 z "
       id="rect5006"
       sodipodi:nodetypes="cczzc" />
    <path
       style="font-size:4.08641815px;font-style:normal;font-weight:normal;line-height:125%;opacity:0.35;fill:#888a85;fill-opacity:1;stroke:none;stroke-width:1pt;stroke-linecap:butt;stroke-linejoin:miter;stroke-opacity:1;font-family:Bitstream Vera Sans"
       d="M 20.92428,30.12934 C 20.801073,30.199092 20.673226,30.251157 20.540742,30.285542 C 20.408252,30.318943 20.266482,30.335643 20.115432,30.335643 C 19.847081,30.335643 19.636113,30.256562 19.482531,30.098396 C 19.328945,29.939249 19.252155,29.72263 19.252155,29.448541 C 19.252155,29.270728 19.276206,29.104212 19.324306,28.948993 C 19.372406,28.792793 19.444133,28.650345 19.539491,28.521648 C 19.655943,28.364469 19.793074,28.247074 19.950878,28.169461 C 20.109523,28.091855 20.290532,28.05305 20.493907,28.053046 C 20.606983,28.05305 20.720906,28.066804 20.835672,28.094306 C 20.950438,28.121817 21.063516,28.162587 21.174908,28.216616 L 21.100226,28.671956 C 20.997273,28.602207 20.896431,28.550142 20.797698,28.515755 C 20.69981,28.481374 20.601076,28.464181 20.5015,28.46418 C 20.283782,28.464181 20.106569,28.548667 19.969864,28.717639 C 19.833156,28.886612 19.764804,29.10372 19.764804,29.368967 C 19.764804,29.544818 19.804467,29.681369 19.88379,29.778626 C 19.963957,29.875883 20.076612,29.924513 20.221759,29.924512 C 20.269015,29.924513 20.316271,29.921074 20.36353,29.914198 C 20.410785,29.906338 20.458462,29.89455 20.506565,29.87883 L 20.578716,29.451487 L 20.281252,29.451487 L 20.343276,29.0713 L 21.100226,29.0713 L 20.92428,30.12934 M 22.957157,29.28792 L 22.788806,30.29291 L 22.334383,30.29291 L 22.477417,29.432332 C 22.487545,29.376335 22.495138,29.329181 22.500202,29.290865 C 22.506108,29.251573 22.509062,29.220626 22.509063,29.198032 C 22.509062,29.135157 22.493873,29.086529 22.463495,29.052143 C 22.433957,29.01776 22.391765,29.00057 22.336913,29.000568 C 22.243244,29.00057 22.162655,29.043303 22.095146,29.128771 C 22.02848,29.213258 21.982066,29.330654 21.955908,29.480959 L 21.819202,30.29291 L 21.364778,30.29291 L 21.640724,28.642484 L 22.096412,28.642484 L 22.054642,28.884155 C 22.138182,28.788862 22.222147,28.718131 22.306535,28.671956 C 22.390922,28.625785 22.479104,28.6027 22.571087,28.602696 C 22.701886,28.6027 22.802728,28.642487 22.873615,28.722058 C 22.944498,28.801635 22.979941,28.913628 22.979942,29.058038 C 22.979941,29.089476 22.977829,29.124351 22.973613,29.162664 C 22.970236,29.200978 22.964752,29.242731 22.957157,29.28792 M 24.10524,28.979939 C 23.987942,28.979939 23.89132,29.041831 23.815371,29.16561 C 23.739423,29.289394 23.701449,29.447068 23.701449,29.638635 C 23.701449,29.74277 23.721701,29.822344 23.762208,29.877357 C 23.803556,29.931388 23.863471,29.958404 23.941951,29.958404 C 24.059249,29.958404 24.155872,29.896515 24.231821,29.77273 C 24.307768,29.647967 24.345742,29.48931 24.345742,29.296761 C 24.345742,29.193611 24.325066,29.115017 24.283718,29.060986 C 24.243212,29.006955 24.183718,28.979939 24.10524,28.979939 M 24.141949,28.602696 C 24.352915,28.6027 24.518735,28.665081 24.639408,28.789844 C 24.76008,28.91461 24.820418,29.084564 24.820418,29.299707 C 24.820418,29.424473 24.80143,29.545798 24.763458,29.663685 C 24.725482,29.780591 24.67021,29.887672 24.597638,29.984929 C 24.511562,30.100853 24.409874,30.188285 24.292579,30.247229 C 24.175281,30.306173 24.04448,30.335643 23.900181,30.335643 C 23.691744,30.335643 23.527191,30.273262 23.406518,30.148498 C 23.286687,30.023733 23.226774,29.853779 23.226774,29.638635 C 23.226774,29.514853 23.246183,29.394018 23.285001,29.27613 C 23.323818,29.157261 23.379513,29.048708 23.452086,28.950467 C 23.536473,28.83651 23.636893,28.750058 23.753347,28.691114 C 23.870644,28.632171 24.000178,28.6027 24.141949,28.602696 M 26.540644,28.916573 C 26.610684,28.815388 26.690008,28.737778 26.778614,28.683744 C 26.868063,28.629716 26.960887,28.6027 27.057093,28.602696 C 27.183669,28.6027 27.283246,28.643468 27.355821,28.725006 C 27.429236,28.805564 27.465943,28.916574 27.465945,29.058038 C 27.465943,29.087512 27.463833,29.121405 27.459617,29.159717 C 27.456239,29.19705 27.450754,29.239783 27.443161,29.28792 L 27.27481,30.29291 L 26.817853,30.29291 L 26.960892,29.432332 L 26.964688,29.410228 C 26.986625,29.28841 26.997598,29.210312 26.997599,29.175926 C 26.997598,29.121894 26.984095,29.079161 26.957093,29.047724 C 26.930932,29.016287 26.895066,29.00057 26.849499,29.000568 C 26.762579,29.00057 26.688742,29.042322 26.627984,29.125823 C 26.568069,29.208347 26.52503,29.326725 26.498872,29.480959 L 26.362166,30.29291 L 25.905211,30.29291 L 26.050779,29.432332 C 26.063436,29.358653 26.072296,29.303146 26.077361,29.265816 C 26.082424,29.227502 26.084954,29.197539 26.084954,29.175926 C 26.084954,29.120913 26.071874,29.078179 26.045715,29.047724 C 26.019554,29.016287 25.983269,29.00057 25.936856,29.000568 C 25.853312,29.00057 25.779896,29.043796 25.716607,29.130245 C 25.654159,29.215713 25.610702,29.33262 25.586228,29.480959 L 25.449523,30.29291 L 24.995099,30.29291 L 25.271045,28.642484 L 25.726733,28.642484 L 25.684962,28.884155 C 25.755846,28.790828 25.831372,28.720587 25.911541,28.673432 C 25.991708,28.626277 26.07525,28.6027 26.162169,28.602696 C 26.260056,28.6027 26.344022,28.632171 26.414064,28.691114 C 26.484103,28.749075 26.526296,28.824229 26.540644,28.916573 M 28.591244,28.979939 C 28.473944,28.979939 28.377323,29.041831 28.301375,29.16561 C 28.225426,29.289394 28.187453,29.447068 28.187453,29.638635 C 28.187453,29.74277 28.207704,29.822344 28.24821,29.877357 C 28.289561,29.931388 28.349474,29.958404 28.427955,29.958404 C 28.545252,29.958404 28.641875,29.896515 28.717824,29.77273 C 28.793772,29.647967 28.831744,29.48931 28.831744,29.296761 C 28.831744,29.193611 28.811069,29.115017 28.769721,29.060986 C 28.729214,29.006955 28.669722,28.979939 28.591244,28.979939 M 28.627951,28.602696 C 28.838918,28.6027 29.004737,28.665081 29.125412,28.789844 C 29.246082,28.91461 29.30642,29.084564 29.306422,29.299707 C 29.30642,29.424473 29.287433,29.545798 29.24946,29.663685 C 29.211485,29.780591 29.156212,29.887672 29.083641,29.984929 C 28.997565,30.100853 28.895879,30.188285 28.778583,30.247229 C 28.661283,30.306173 28.530483,30.335643 28.386184,30.335643 C 28.177749,30.335643 28.013193,30.273262 27.89252,30.148498 C 27.77269,30.023733 27.712777,29.853779 27.712777,29.638635 C 27.712777,29.514853 27.732185,29.394018 27.771004,29.27613 C 27.809821,29.157261 27.865517,29.048708 27.93809,28.950467 C 28.022475,28.83651 28.122895,28.750058 28.239349,28.691114 C 28.356647,28.632171 28.486182,28.6027 28.627951,28.602696 M 31.125381,28.162093 L 31.046901,28.627747 C 30.95154,28.572736 30.857451,28.531967 30.764626,28.50544 C 30.671799,28.477936 30.581083,28.464181 30.492478,28.46418 C 30.37096,28.464181 30.276025,28.486286 30.207673,28.530491 C 30.140163,28.5747 30.106408,28.636101 30.10641,28.714692 C 30.106408,28.764795 30.121177,28.804091 30.150712,28.832578 C 30.18109,28.860087 30.243115,28.887103 30.336785,28.913627 L 30.536782,28.971097 C 30.703866,29.020218 30.826227,29.091441 30.903865,29.184768 C 30.982343,29.277113 31.021582,29.396964 31.021584,29.544325 C 31.021582,29.783047 30.943525,29.974614 30.78741,30.119026 C 30.632138,30.263437 30.423279,30.335643 30.160838,30.335643 C 30.038477,30.335643 29.916538,30.322382 29.795021,30.295856 C 29.674348,30.269331 29.556207,30.230036 29.440596,30.177971 L 29.517811,29.699051 C 29.630045,29.774696 29.738906,29.831185 29.844387,29.868515 C 29.950714,29.905847 30.055354,29.924513 30.158308,29.924512 C 30.269697,29.924513 30.35999,29.897988 30.429189,29.844939 C 30.49923,29.791888 30.534249,29.724103 30.534251,29.641582 C 30.534249,29.587551 30.518637,29.545798 30.487416,29.516328 C 30.456191,29.485873 30.387837,29.454926 30.282355,29.42349 L 30.083625,29.36602 C 29.936792,29.323777 29.82751,29.256974 29.755782,29.16561 C 29.684052,29.074249 29.64819,28.955871 29.64819,28.810473 C 29.64819,28.581578 29.723293,28.398361 29.873501,28.260825 C 30.024554,28.122307 30.227504,28.05305 30.482352,28.053046 C 30.58446,28.05305 30.689099,28.062382 30.796271,28.081045 C 30.904286,28.098732 31.013987,28.125746 31.125381,28.162093 M 32.241817,28.979939 C 32.124519,28.979939 32.027897,29.041831 31.95195,29.16561 C 31.876001,29.289394 31.838027,29.447068 31.838027,29.638635 C 31.838027,29.74277 31.858278,29.822344 31.898785,29.877357 C 31.940135,29.931388 32.000049,29.958404 32.078529,29.958404 C 32.195825,29.958404 32.292448,29.896515 32.368399,29.77273 C 32.444345,29.647967 32.482319,29.48931 32.482319,29.296761 C 32.482319,29.193611 32.461644,29.115017 32.420295,29.060986 C 32.379789,29.006955 32.320296,28.979939 32.241817,28.979939 M 32.278526,28.602696 C 32.489493,28.6027 32.655312,28.665081 32.775986,28.789844 C 32.896657,28.91461 32.956995,29.084564 32.956997,29.299707 C 32.956995,29.424473 32.938007,29.545798 32.900035,29.663685 C 32.86206,29.780591 32.806787,29.887672 32.734216,29.984929 C 32.64814,30.100853 32.546453,30.188285 32.429156,30.247229 C 32.311858,30.306173 32.18106,30.335643 32.036759,30.335643 C 31.828322,30.335643 31.663768,30.273262 31.543095,30.148498 C 31.423265,30.023733 31.363351,29.853779 31.363351,29.638635 C 31.363351,29.514853 31.382759,29.394018 31.421579,29.27613 C 31.460396,29.157261 31.516091,29.048708 31.588664,28.950467 C 31.67305,28.83651 31.77347,28.750058 31.889924,28.691114 C 32.007221,28.632171 32.136755,28.6027 32.278526,28.602696 M 34.451909,27.999999 L 34.392416,28.346292 L 34.143053,28.346292 C 34.079761,28.346296 34.03335,28.360047 34.003815,28.387553 C 33.975123,28.41408 33.955292,28.460253 33.944321,28.526072 L 33.922803,28.642484 L 34.306342,28.642484 L 34.244316,29.019726 L 33.860779,29.019726 L 33.648124,30.29291 L 33.192434,30.29291 L 33.405089,29.019726 L 33.181042,29.019726 L 33.244334,28.642484 L 33.467115,28.642484 L 33.487366,28.527544 C 33.51859,28.344822 33.583567,28.211216 33.682301,28.126728 C 33.781032,28.042243 33.921536,28 34.103811,27.999999 L 34.451909,27.999999 M 35.113923,28.17388 L 35.036709,28.642484 L 35.499993,28.642484 L 35.435436,29.019726 L 34.972153,29.019726 L 34.855699,29.718207 C 34.852323,29.733927 34.849792,29.747189 34.848103,29.757996 C 34.84726,29.768803 34.846838,29.779118 34.846838,29.788943 C 34.846838,29.834131 34.859496,29.866551 34.884812,29.886198 C 34.910972,29.905847 34.954431,29.91567 35.015191,29.91567 L 35.249363,29.91567 L 35.184808,30.29291 L 34.803802,30.29291 C 34.667095,30.29291 34.562876,30.259508 34.491148,30.192707 C 34.41942,30.125903 34.383555,30.029627 34.383555,29.903882 C 34.383555,29.876375 34.38482,29.846904 34.387351,29.815465 C 34.389885,29.78403 34.393682,29.752101 34.398744,29.719682 L 34.515198,29.019726 L 34.292417,29.019726 L 34.354442,28.642484 L 34.579755,28.642484 L 34.658234,28.17388 L 35.113923,28.17388"
       id="text5068" />
  </g>
</svg>
