<?xml version="1.0" encoding="UTF-8" standalone="no"?>
<!-- Created with Inkscape (http://www.inkscape.org/) -->
<svg
   xmlns:i="http://ns.adobe.com/AdobeIllustrator/10.0/"
   xmlns:s="http://inkscape.sourceforge.net/DTD/s odipodi-0.dtd"
   xmlns:dc="http://purl.org/dc/elements/1.1/"
   xmlns:cc="http://web.resource.org/cc/"
   xmlns:rdf="http://www.w3.org/1999/02/22-rdf-syntax-ns#"
   xmlns:svg="http://www.w3.org/2000/svg"
   xmlns="http://www.w3.org/2000/svg"
   xmlns:xlink="http://www.w3.org/1999/xlink"
   xmlns:sodipodi="http://sodipodi.sourceforge.net/DTD/sodipodi-0.dtd"
   xmlns:inkscape="http://www.inkscape.org/namespaces/inkscape"
   width="48"
   height="48"
   id="svg18269"
   s:version="0.32"
   inkscape:version="0.44"
   version="1.0"
   s:docbase="/home/andreas/projekt/tango"
   s:docname="certificate.svg"
   sodipodi:version="0.32"
   sodipodi:docname="application-certificate.svg"
   sodipodi:docbase="/home/lapo/Icone/cvs/gnome-icon-theme/scalable/mimetypes"
   inkscape:output_extension="org.inkscape.output.svg.inkscape">
  <sodipodi:namedview
     inkscape:window-height="480"
     inkscape:window-width="640"
     inkscape:pageshadow="2"
     inkscape:pageopacity="0.0"
     guidetolerance="10.0"
     gridtolerance="10.0"
     objecttolerance="10.0"
     borderopacity="1.0"
     bordercolor="#666666"
     pagecolor="#ffffff"
     id="base" />
  <defs
     id="defs18271">
    <linearGradient
       id="linearGradient9590">
      <stop
         style="stop-color:#eaeaea;stop-opacity:1;"
         offset="0"
         id="stop9592" />
      <stop
         style="stop-color:#ffffff;stop-opacity:1;"
         offset="1"
         id="stop9594" />
    </linearGradient>
    <linearGradient
       inkscape:collect="always"
       xlink:href="#linearGradient9590"
       id="linearGradient1356"
       gradientUnits="userSpaceOnUse"
       gradientTransform="matrix(9.125781e-2,0,0,9.374382e-2,69.688,218.6482)"
       x1="-500.67075"
       y1="-2282.6199"
       x2="-500.67075"
       y2="-2060.9878" />
  </defs>
  <s:namedview
     id="base"
     pagecolor="#ffffff"
     bordercolor="#666666"
     borderopacity="1.0"
     inkscape:pageopacity="0.0"
     inkscape:pageshadow="2"
     inkscape:zoom="7.9999999"
     inkscape:cx="44.95067"
     inkscape:cy="11.390847"
     inkscape:document-units="px"
     inkscape:current-layer="layer1"
     inkscape:window-width="1264"
     inkscape:window-height="945"
     inkscape:window-x="6"
     inkscape:window-y="25"
     showgrid="false"
     stroke="#888a85"
     fill="#729fcf"
     showguides="true"
     inkscape:guide-bbox="true" />
  <metadata
     id="metadata18274">
    <rdf:RDF>
      <cc:Work
         rdf:about="">
        <dc:format>image/svg+xml</dc:format>
        <dc:type
           rdf:resource="http://purl.org/dc/dcmitype/StillImage" />
        <dc:title>Certificate</dc:title>
        <dc:date>May 2006</dc:date>
        <dc:creator>
          <cc:Agent>
            <dc:title>Máirín Duffy</dc:title>
          </cc:Agent>
        </dc:creator>
        <cc:license
           rdf:resource="http://creativecommons.org/licenses/GPL/2.0/" />
        <dc:contributor>
          <cc:Agent>
            <dc:title>Andreas Nilsson</dc:title>
          </cc:Agent>
        </dc:contributor>
        <dc:subject>
          <rdf:Bag>
            <rdf:li>certificate</rdf:li>
          </rdf:Bag>
        </dc:subject>
        <dc:source>http://www.redhat.com</dc:source>
      </cc:Work>
      <cc:License
         rdf:about="http://creativecommons.org/licenses/GPL/2.0/">
        <cc:permits
           rdf:resource="http://web.resource.org/cc/Reproduction" />
        <cc:permits
           rdf:resource="http://web.resource.org/cc/Distribution" />
        <cc:requires
           rdf:resource="http://web.resource.org/cc/Notice" />
        <cc:permits
           rdf:resource="http://web.resource.org/cc/DerivativeWorks" />
        <cc:requires
           rdf:resource="http://web.resource.org/cc/ShareAlike" />
        <cc:requires
           rdf:resource="http://web.resource.org/cc/SourceCode" />
      </cc:License>
    </rdf:RDF>
  </metadata>
  <g
     inkscape:label="Layer 1"
     inkscape:groupmode="layer"
     id="layer1">
    <g
       id="g3799"
       transform="matrix(1.057794,0,0,0.608142,-167.4607,91.0706)"
       inkscape:r_cx="true"
       inkscape:r_cy="true"
       style="opacity:0.4">
      <path
         inkscape:r_cy="true"
         inkscape:r_cx="true"
         id="path1196"
         style="opacity:0.04787233;fill-rule:evenodd;stroke-width:3pt"
         d="M 162.36286,-88.911137 C 160.1183,-88.911137 158.3113,-86.711005 158.3113,-83.978106 C 158.3113,-81.245207 160.1183,-79.045075 162.36286,-79.045075 L 199.63718,-79.045075 C 201.88174,-79.045075 203.68873,-81.245207 203.68873,-83.978106 C 203.68873,-86.711005 201.88174,-88.911137 199.63718,-88.911137 L 162.36286,-88.911137 z " />
      <path
         inkscape:r_cy="true"
         inkscape:r_cx="true"
         id="path1195"
         style="opacity:0.04787233;fill-rule:evenodd;stroke-width:3pt"
         d="M 162.36286,-88.582269 C 160.26794,-88.582269 158.58141,-86.528812 158.58141,-83.978106 C 158.58141,-81.4274 160.26794,-79.373944 162.36286,-79.373944 L 199.63718,-79.373944 C 201.7321,-79.373944 203.41863,-81.4274 203.41863,-83.978106 C 203.41863,-86.528812 201.7321,-88.582269 199.63718,-88.582269 L 162.36286,-88.582269 z " />
      <path
         inkscape:r_cy="true"
         inkscape:r_cx="true"
         id="path1194"
         style="opacity:0.04787233;fill-rule:evenodd;stroke-width:3pt"
         d="M 162.36286,-88.2534 C 160.41757,-88.2534 158.85151,-86.346619 158.85151,-83.978106 C 158.85151,-81.609593 160.41757,-79.702812 162.36286,-79.702812 L 199.63718,-79.702812 C 201.58246,-79.702812 203.14853,-81.609593 203.14853,-83.978106 C 203.14853,-86.346619 201.58246,-88.2534 199.63718,-88.2534 L 162.36286,-88.2534 z " />
      <path
         inkscape:r_cy="true"
         inkscape:r_cx="true"
         id="path1193"
         style="opacity:0.04787233;fill-rule:evenodd;stroke-width:3pt"
         d="M 162.36286,-87.924531 C 160.56721,-87.924531 159.12162,-86.164426 159.12162,-83.978106 C 159.12162,-81.791787 160.56721,-80.031681 162.36286,-80.031681 L 199.63718,-80.031681 C 201.43283,-80.031681 202.87842,-81.791787 202.87842,-83.978106 C 202.87842,-86.164426 201.43283,-87.924531 199.63718,-87.924531 L 162.36286,-87.924531 z " />
      <path
         inkscape:r_cy="true"
         inkscape:r_cx="true"
         id="path1192"
         style="opacity:0.04787233;fill-rule:evenodd;stroke-width:3pt"
         d="M 162.36309,-87.595662 C 160.71708,-87.595662 159.39195,-85.982232 159.39195,-83.978106 C 159.39195,-81.97398 160.71708,-80.36055 162.36309,-80.36055 L 199.63707,-80.36055 C 201.28308,-80.36055 202.60821,-81.97398 202.60821,-83.978106 C 202.60821,-85.982232 201.28308,-87.595662 199.63707,-87.595662 L 162.36309,-87.595662 z " />
      <path
         inkscape:r_cy="true"
         inkscape:r_cx="true"
         id="path1191"
         style="opacity:0.04787233;fill-rule:evenodd;stroke-width:3pt"
         d="M 162.36286,-87.266794 C 160.86649,-87.266794 159.66182,-85.800039 159.66182,-83.978106 C 159.66182,-82.156173 160.86649,-80.689419 162.36286,-80.689419 L 199.63718,-80.689419 C 201.13355,-80.689419 202.33821,-82.156173 202.33821,-83.978106 C 202.33821,-85.800039 201.13355,-87.266794 199.63718,-87.266794 L 162.36286,-87.266794 z " />
      <path
         inkscape:r_cy="true"
         inkscape:r_cx="true"
         id="path1190"
         style="opacity:0.04787233;fill-rule:evenodd;stroke-width:3pt"
         d="M 162.36286,-86.937925 C 161.01612,-86.937925 159.93193,-85.617846 159.93193,-83.978106 C 159.93193,-82.338367 161.01612,-81.018287 162.36286,-81.018287 L 199.63718,-81.018287 C 200.98391,-81.018287 202.06811,-82.338367 202.06811,-83.978106 C 202.06811,-85.617846 200.98391,-86.937925 199.63718,-86.937925 L 162.36286,-86.937925 z " />
      <path
         inkscape:r_cy="true"
         inkscape:r_cx="true"
         id="path1189"
         style="opacity:0.04787233;fill-rule:evenodd;stroke-width:3pt"
         d="M 162.36286,-86.609056 C 161.16576,-86.609056 160.20203,-85.435652 160.20203,-83.978106 C 160.20203,-82.52056 161.16576,-81.347156 162.36286,-81.347156 L 199.63718,-81.347156 C 200.83428,-81.347156 201.79801,-82.52056 201.79801,-83.978106 C 201.79801,-85.435652 200.83428,-86.609056 199.63718,-86.609056 L 162.36286,-86.609056 z " />
    </g>
    <rect
       ry="0.77628309"
       y="5.5012813"
       x="2.5053658"
       height="35.005295"
       width="42.985188"
       id="rect1324"
       style="color:#000000;fill:url(#linearGradient1356);fill-opacity:1;fill-rule:nonzero;stroke:#777974;stroke-width:0.99999976;stroke-linecap:square;stroke-linejoin:miter;marker:none;marker-start:none;marker-mid:none;marker-end:none;stroke-miterlimit:4;stroke-dasharray:none;stroke-dashoffset:0;stroke-opacity:1;visibility:visible;display:inline;overflow:visible"
       rx="0.77628255" />
    <path
       style="color:#000000;fill:#729fcf;fill-opacity:1;fill-rule:nonzero;stroke:none;stroke-width:3.73707104;stroke-linecap:round;stroke-linejoin:round;marker:none;marker-start:none;marker-mid:none;marker-end:none;stroke-miterlimit:4;stroke-dasharray:none;stroke-dashoffset:0;stroke-opacity:1;visibility:visible;display:inline;overflow:visible"
       d="M 9.9314581,9.9387687 C 9.9314581,9.9387687 7.676147,9.3407392 6.9390895,10.041181 C 6.202032,10.741623 6.983228,12.740536 6.983228,12.740536 C 6.983228,12.740536 5.0000229,12.996881 5.0000229,15.029513 C 5.0000229,17.194145 6.9047893,16.943942 6.9047893,16.943942 C 6.9047893,16.943942 5.0189616,16.985286 5.0189616,18.788198 C 5.0189616,20.601278 7.017528,20.967793 7.017528,20.967793 C 7.017528,20.967793 5.0379001,20.966395 5.0379001,23.033027 C 5.0379001,25.055465 7.0391726,24.991651 7.0391726,24.991651 C 7.0391726,24.991651 5.0126446,25.06756 5.0126446,27.012702 C 5.0126446,28.913829 6.9201168,29.059695 6.9201168,29.059695 C 6.9201168,29.059695 5.0342922,29.024028 5.0342922,30.948164 C 5.0342922,32.828128 6.9850349,33.040131 6.9850349,33.040131 C 6.9850349,33.040131 6.2155617,35.297108 6.9832837,36.070579 C 7.7510057,36.84405 10.055923,36.134014 10.055923,36.134014 C 10.055923,36.134014 10.178291,37.981183 12.087074,37.981183 C 13.933358,37.981183 14.190986,36.101167 14.190986,36.101167 C 14.190986,36.101167 13.969699,37.9471 15.925259,37.9471 C 17.943297,37.9471 18.010379,36.062185 18.010379,36.062185 C 18.010379,36.062185 17.77906,37.9471 19.92143,37.9471 C 21.939251,37.9471 22.050743,36.017991 22.050743,36.017991 C 22.050743,36.017991 22.117155,38.079682 24.094379,38.079682 C 26.134095,38.079682 25.958529,36.150573 25.958529,36.150573 C 25.958529,36.150573 26.240037,38.079682 28.00216,38.079682 C 29.955298,38.079682 29.998892,36.238961 29.998892,36.238961 C 29.998892,36.238961 30.598814,37.956459 31.909941,37.991294 C 33.846484,38.042746 33.995065,36.194767 33.995065,36.194767 C 33.995065,36.194767 34.030075,38.017151 35.950309,38.079682 C 37.995406,38.146279 37.925453,36.211154 37.925453,36.211154 C 37.925453,36.211154 40.191198,36.867422 40.988207,36.090486 C 41.785216,35.31355 41.113487,33.103411 41.113487,33.103411 C 41.113487,33.103411 43.038259,32.987896 43.018265,31.036552 C 42.998271,29.129403 41.033514,29.010521 41.033514,29.010521 C 41.033514,29.010521 43.012915,28.959654 43.012915,26.924313 C 43.012915,24.712293 41.021762,24.814875 41.021762,24.814875 C 41.021762,24.814875 43.031854,24.890388 43.031854,22.944639 C 43.031854,20.91115 40.995459,20.746822 40.995459,20.746822 C 40.995459,20.746822 43.053498,20.865876 43.053498,18.876586 C 43.053498,16.93149 40.974568,16.855554 40.974568,16.855554 C 40.974568,16.855554 43.010704,16.942804 42.981953,14.985319 C 42.953185,13.026702 41.040531,12.914702 41.040531,12.914702 C 41.040531,12.914702 41.784713,10.764979 41.038977,10.023315 C 40.293241,9.2816507 38.057586,9.9480449 38.057586,9.9480449 C 38.057586,9.9480449 38.009435,8.0938219 35.99285,8.0938219 C 34.022042,8.0938219 34.017817,9.9430534 34.017817,9.9430534 C 34.017817,9.9430534 33.91966,8.0779669 31.944897,8.0701544 C 29.969357,8.0623388 29.957662,9.8676092 29.957662,9.8676092 C 29.957662,9.8676092 30.016497,7.9090027 28.041735,7.8933777 C 26.066455,7.8777486 25.99052,9.8988592 25.99052,9.8988592 C 25.99052,9.8988592 26.068729,7.8777527 24.005991,7.8933777 C 21.911261,7.9090027 21.962355,9.9613592 21.962355,9.9613592 C 21.962355,9.9613592 22.158601,7.9181277 20.075585,7.9217564 C 17.960578,7.9253851 17.853081,9.8508738 17.853081,9.8508738 C 17.853081,9.8508738 17.95246,7.9995262 15.944737,7.9659506 C 13.873031,7.932375 13.833241,9.9223772 13.833241,9.9223772 C 13.833241,9.9223772 13.875486,7.9546482 12.109508,7.9644329 C 10.387724,7.9742176 9.9314581,9.9387687 9.9314581,9.9387687 z M 9.9774469,10.997768 L 37.986232,10.997767 L 39.986729,13.001158 L 40.003117,32.953678 L 38.108489,35.025796 L 9.8899549,34.9816 L 8.0961661,33.028516 L 8.004176,13.190876 L 9.9774469,10.997768 z "
       id="path1326"
       s:nodetypes="czczczczczczczczczczczczczczczczczczczczczszczczczczczczcccccccccc" />
    <g
       id="g1330"
       transform="matrix(0.437059,6.280377e-2,-7.980374e-3,0.426832,-195.4767,-37.00685)">
      <path
         style="fill:none;stroke:#1d3f99;stroke-width:1.38310003;stroke-linecap:round;stroke-linejoin:round;stroke-miterlimit:3.86369991"
         id="path1332"
         d="M 474.25,81.922 C 474.28,82.283 474.334,82.875 474.334,82.875 C 474.334,82.875 474.403,81.798 473.923,81.718 C 472.88,81.553 472.334,83.058 471.98,84.151 C 471.486,85.66 471.888,87.31 473.359,87.539 C 475.113,87.817 477.832,85.159 477.832,85.159 C 477.832,85.159 477.489,85.437 477.43,85.66 C 477.337,85.947 477.147,86.369 477.171,86.418 C 477.193,86.455 477.452,86.458 477.627,86.489 C 478.122,86.565 478.687,86.224 478.847,85.714 C 478.985,85.297 479.19,84.681 479.19,84.681 C 479.19,84.681 478.976,84.98 478.915,85.167 C 478.779,85.576 479.205,85.793 479.602,85.857 C 480.273,85.966 481.204,84.836 481.255,84.84 C 481.324,84.847 481.538,85.409 481.888,85.463 C 482.399,85.548 483.032,84.888 483.244,84.901 C 483.306,84.905 483.366,85.174 483.534,85.204 C 484.113,85.296 485.02,84.547 485.072,84.585 C 485.232,84.71 485.333,86.061 485.316,87.117"
         stroke-miterlimit="3.8637"
         i:knockout="Off" />
      <path
         style="fill:none;stroke:#1d3f99;stroke-width:1.38310003;stroke-linecap:round;stroke-linejoin:round;stroke-miterlimit:3.86369991"
         id="path1334"
         d="M 487.965,80.738 C 487.616,82.026 487.661,82.795 487.371,84.087"
         stroke-miterlimit="3.8637"
         i:knockout="Off" />
      <path
         style="fill:none;stroke:#1d3f99;stroke-width:1.38310003;stroke-linecap:round;stroke-linejoin:round;stroke-miterlimit:3.86369991"
         id="path1336"
         d="M 487.707,81.308 C 487.556,81.515 487.472,81.62 487.311,81.826 C 488.401,81.436 490.032,80.784 490.093,80.843 C 490.099,80.857 490.177,81.052 490.13,81.2 C 489.857,82.038 488.987,83.221 488.987,83.221 C 489.055,83.304 492.049,82.234 492.316,82.456 C 492.37,82.503 492.416,82.885 492.333,83.153 C 492.18,83.625 491.937,83.843 491.639,84.256 C 491.746,84.233 491.799,84.232 491.907,84.212"
         stroke-miterlimit="3.8637"
         i:knockout="Off" />
      <path
         style="fill:none;stroke:#1d3f99;stroke-width:1.38310003;stroke-linecap:round;stroke-linejoin:round;stroke-miterlimit:3.86369991"
         id="path1338"
         d="M 493.933,81.351 C 493.834,81.468 493.796,81.523 493.698,81.639 C 494.512,81.553 494.946,81.075 495.724,80.964 C 495.472,81.739 495.35,82.13 495.106,82.905 C 495.938,82.002 497.183,80.74 497.417,80.802 C 497.592,80.842 497.378,82.657 497.477,82.676 C 497.905,82.751 501.106,79.522 501.357,79.613 C 501.585,79.697 500.732,82.204 501.798,82.37 C 502.666,82.516 503.917,80.981 503.917,80.981 C 503.917,80.981 503.513,81.379 503.284,81.66 C 503.397,81.713 503.451,81.743 503.574,81.795 C 504.35,81.514 504.816,81.175 505.6,80.909 C 505.531,81.11 505.508,81.199 505.44,81.398 C 505.553,81.43 505.607,81.516 505.752,81.543 C 506.514,81.653 507.794,80.825 507.794,80.825 C 507.824,80.842 507.619,81.491 507.9,81.535 C 509.28,81.758 510.221,81.042 511.642,80.483"
         stroke-miterlimit="3.8637"
         i:knockout="Off" />
    </g>
    <g
       id="g1340"
       transform="matrix(8.237918e-2,0,0,8.284297e-2,107.8715,194.0967)">
      <path
         s:type="star"
         style="color:#000000;fill:#f7f999;fill-opacity:1;fill-rule:nonzero;stroke:#fdcd12;stroke-width:48.89274216;stroke-linecap:square;stroke-linejoin:miter;marker:none;marker-start:none;marker-mid:none;marker-end:none;stroke-miterlimit:4;stroke-dasharray:none;stroke-dashoffset:0;stroke-opacity:1;visibility:visible;display:inline;overflow:visible"
         id="path1342"
         s:sides="9"
         s:cx="-2073.0457"
         s:cy="-1596.6304"
         s:r1="209.7282"
         s:r2="180.36626"
         s:arg1="0.84055688"
         s:arg2="1.1896227"
         inkscape:flatsided="false"
         inkscape:rounded="0.38"
         inkscape:randomized="0"
         d="M -1933.1469,-1440.3798 C -1953.9984,-1421.7104 -1979.9683,-1439.6211 -2005.9476,-1429.2092 C -2031.9269,-1418.7974 -2038.3393,-1387.9088 -2066.3129,-1387.0103 C -2094.2865,-1386.1118 -2102.6679,-1416.5253 -2129.2618,-1425.2485 C -2155.8557,-1433.9718 -2180.6227,-1414.4315 -2202.6293,-1431.7243 C -2224.6358,-1449.0172 -2211.5069,-1477.7027 -2226.2718,-1501.4793 C -2241.0367,-1525.2559 -2272.5696,-1526.2072 -2278.312,-1553.5998 C -2284.0544,-1580.9924 -2255.5584,-1594.5277 -2251.5856,-1622.2323 C -2247.6129,-1649.937 -2271.1571,-1670.9346 -2257.9484,-1695.6097 C -2244.7397,-1720.2848 -2214.2101,-1712.3365 -2193.3586,-1731.0059 C -2172.5071,-1749.6752 -2177.046,-1780.8943 -2151.0667,-1791.3061 C -2125.0874,-1801.7179 -2106.8094,-1776.0052 -2078.8358,-1776.9037 C -2050.8622,-1777.8021 -2034.272,-1804.6348 -2007.6781,-1795.9116 C -1981.0842,-1787.1883 -1983.6103,-1755.7424 -1961.6037,-1738.4496 C -1939.5972,-1721.1568 -1909.6406,-1731.0478 -1894.8757,-1707.2711 C -1880.1108,-1683.4945 -1902.259,-1661.0293 -1896.5166,-1633.6367 C -1890.7742,-1606.2441 -1861.4683,-1594.5653 -1865.441,-1566.8607 C -1869.4138,-1539.156 -1900.8206,-1536.1833 -1914.0293,-1511.5082 C -1927.238,-1486.8331 -1912.2954,-1459.0492 -1933.1469,-1440.3798 z "
         transform="matrix(0.236918,0,0,0.236918,-411.8839,-1633.833)" />
      <g
         transform="matrix(0.89577,0,0,0.89577,-95.73024,-211.15)"
         id="g1344">
        <path
           transform="matrix(1.162924,0,0,1.162924,226.5602,-739.689)"
           d="M -941.13729 -1093.3582 A 29.97831 29.069878 0 1 1  -1001.0939,-1093.3582 A 29.97831 29.069878 0 1 1  -941.13729 -1093.3582 z"
           s:ry="29.069878"
           s:rx="29.97831"
           s:cy="-1093.3582"
           s:cx="-971.1156"
           id="path1346"
           style="color:#000000;fill:#fdce15;fill-opacity:1;fill-rule:nonzero;stroke:none;stroke-width:6.25;stroke-linecap:round;stroke-linejoin:round;marker:none;marker-start:none;marker-mid:none;marker-end:none;stroke-miterlimit:4;stroke-dasharray:none;stroke-dashoffset:0;stroke-opacity:1;visibility:visible;display:inline;overflow:visible"
           s:type="arc" />
        <path
           s:nodetypes="cccccc"
           id="path1348"
           d="M -888.9211,-2029.5723 C -890.083,-2030.3268 -891.3477,-2030.9553 -892.7095,-2031.4461 C -896.1994,-2033.0267 -900.0341,-2033.7844 -903.8503,-2033.666 C -903.9418,-2033.6632 -904.0234,-2033.6496 -904.1151,-2033.6457 C -919.8297,-2033.9934 -932.1829,-2013.9212 -923.3417,-2000.3862 C -922.4823,-1998.883 -921.4426,-1997.5276 -920.2662,-1996.3127"
           style="color:#000000;fill:none;fill-opacity:1;fill-rule:nonzero;stroke:#ffffff;stroke-width:7.53940821;stroke-linecap:round;stroke-linejoin:round;marker:none;marker-start:none;marker-mid:none;marker-end:none;stroke-miterlimit:4;stroke-dasharray:none;stroke-dashoffset:0;stroke-opacity:1;visibility:visible;display:inline;overflow:visible" />
      </g>
    </g>
    <rect
       ry="0"
       y="6.5002341"
       x="3.4998345"
       height="32.984631"
       width="41.000504"
       id="rect2231"
       style="color:#000000;fill:none;fill-opacity:1;fill-rule:nonzero;stroke:#ffffff;stroke-width:1.00000036;stroke-linecap:butt;stroke-linejoin:miter;marker:none;marker-start:none;marker-mid:none;marker-end:none;stroke-miterlimit:4;stroke-dasharray:none;stroke-dashoffset:0;stroke-opacity:1;visibility:visible;display:inline;overflow:visible"
       rx="0" />
    <path
       style="fill:none;fill-opacity:0.75;fill-rule:evenodd;stroke:#888a85;stroke-width:1px;stroke-linecap:round;stroke-linejoin:miter;stroke-opacity:1"
       d="M 11.5,14.5 L 36.5,14.5"
       id="path2235" />
    <path
       style="fill:none;fill-opacity:0.75;fill-rule:evenodd;stroke:#888a85;stroke-width:1.00000024px;stroke-linecap:round;stroke-linejoin:miter;stroke-opacity:1"
       d="M 15.393372,17.5 L 33.414308,17.5"
       id="path2237" />
    <path
       style="fill:none;fill-opacity:0.75;fill-rule:evenodd;stroke:#888a85;stroke-width:0.99999994px;stroke-linecap:round;stroke-linejoin:miter;stroke-opacity:1"
       d="M 12.341724,21.5 L 24.658258,21.5"
       id="path2239" />
    <path
       style="fill:none;fill-opacity:0.75;fill-rule:evenodd;stroke:#888a85;stroke-width:0.99999994px;stroke-linecap:round;stroke-linejoin:miter;stroke-opacity:1"
       d="M 12.5,24.5 L 24.816534,24.5"
       id="path2241" />
  </g>
</svg>
