<?xml version="1.0" encoding="UTF-8" standalone="no"?>
<!-- Created with Inkscape (http://www.inkscape.org/) -->
<svg
   xmlns:dc="http://purl.org/dc/elements/1.1/"
   xmlns:cc="http://web.resource.org/cc/"
   xmlns:rdf="http://www.w3.org/1999/02/22-rdf-syntax-ns#"
   xmlns:svg="http://www.w3.org/2000/svg"
   xmlns="http://www.w3.org/2000/svg"
   xmlns:xlink="http://www.w3.org/1999/xlink"
   xmlns:sodipodi="http://sodipodi.sourceforge.net/DTD/sodipodi-0.dtd"
   xmlns:inkscape="http://www.inkscape.org/namespaces/inkscape"
   id="svg1"
   sodipodi:version="0.32"
   inkscape:version="0.44.1"
   width="48"
   height="48"
   sodipodi:docbase="/home/test"
   sodipodi:docname="xfe.svg"
   inkscape:export-filename="/home/test/new-xfe.png"
   inkscape:export-xdpi="23.779238"
   inkscape:export-ydpi="23.779238"
   version="1.0">
  <metadata
     id="metadata114">
    <rdf:RDF>
      <cc:Work
         rdf:about="">
        <dc:format>image/svg+xml</dc:format>
        <dc:type
           rdf:resource="http://purl.org/dc/dcmitype/StillImage" />
      </cc:Work>
    </rdf:RDF>
  </metadata>
  <defs
     id="defs3">
    <linearGradient
       id="linearGradient1214">
      <stop
         style="stop-color:#f3f3f3;stop-opacity:1.0000000;"
         offset="0.0000000"
         id="stop1215" />
      <stop
         style="stop-color:#cccccc;stop-opacity:1.0000000;"
         offset="1.0000000"
         id="stop1216" />
    </linearGradient>
    <linearGradient
       id="linearGradient984">
      <stop
         style="stop-color:#6c80a9;stop-opacity:1.0000000;"
         offset="0.0000000"
         id="stop985" />
      <stop
         style="stop-color:#8b9dc0;stop-opacity:1.0000000;"
         offset="1.0000000"
         id="stop986" />
    </linearGradient>
    <linearGradient
       id="linearGradient869">
      <stop
         style="stop-color:#576682;stop-opacity:1.0000000;"
         offset="0.0000000"
         id="stop870" />
      <stop
         style="stop-color:#6b80a9;stop-opacity:1.0000000;"
         offset="1.0000000"
         id="stop871" />
    </linearGradient>
    <linearGradient
       xlink:href="#linearGradient984"
       id="linearGradient873"
       x1="-5.1072699e-17"
       y1="0.984375"
       x2="-5.9895394e-17"
       y2="0.1796875" />
    <linearGradient
       xlink:href="#linearGradient984"
       id="linearGradient877"
       x1="0.60869563"
       y1="0.4609375"
       x2="0.50931674"
       y2="0.34375" />
    <linearGradient
       xlink:href="#linearGradient1214"
       id="linearGradient988"
       x1="0.0052910051"
       y1="0.984375"
       x2="0.99470901"
       y2="0.0078125" />
    <linearGradient
       inkscape:collect="always"
       xlink:href="#linearGradient984"
       id="linearGradient3898"
       gradientUnits="userSpaceOnUse"
       gradientTransform="matrix(0.935998,0,0,0.550765,30.59473,31.91764)"
       x1="8.3368893"
       y1="266.42126"
       x2="8.3368893"
       y2="138.54814" />
    <linearGradient
       inkscape:collect="always"
       xlink:href="#linearGradient869"
       id="linearGradient3923"
       gradientUnits="userSpaceOnUse"
       gradientTransform="matrix(0.747936,0,0,0.689251,30.55848,158.6478)"
       x1="30.622637"
       y1="-97.787552"
       x2="26.242413"
       y2="-140.48618" />
    <linearGradient
       inkscape:collect="always"
       xlink:href="#linearGradient984"
       id="linearGradient3927"
       gradientUnits="userSpaceOnUse"
       gradientTransform="matrix(0.749983,0,0,0.687369,30.59472,159.9009)"
       x1="129.0108"
       y1="-67.418991"
       x2="111.2336"
       y2="-88.381859" />
    <linearGradient
       inkscape:collect="always"
       xlink:href="#linearGradient984"
       id="linearGradient2931"
       gradientUnits="userSpaceOnUse"
       gradientTransform="matrix(0.935998,0,0,0.550765,30.59473,31.91764)"
       x1="8.3368893"
       y1="266.42126"
       x2="8.3368893"
       y2="138.54814" />
    <linearGradient
       inkscape:collect="always"
       xlink:href="#linearGradient869"
       id="linearGradient2953"
       gradientUnits="userSpaceOnUse"
       gradientTransform="matrix(0.747936,0,0,0.689251,30.55848,158.6478)"
       x1="30.622637"
       y1="-97.787552"
       x2="26.242413"
       y2="-140.48618" />
    <linearGradient
       inkscape:collect="always"
       xlink:href="#linearGradient984"
       id="linearGradient2957"
       gradientUnits="userSpaceOnUse"
       gradientTransform="matrix(0.749983,0,0,0.687369,30.59472,159.9009)"
       x1="129.0108"
       y1="-67.418991"
       x2="111.2336"
       y2="-88.381859" />
    <linearGradient
       inkscape:collect="always"
       xlink:href="#linearGradient984"
       id="linearGradient21958"
       gradientUnits="userSpaceOnUse"
       gradientTransform="matrix(0.749983,0,0,0.687369,30.59472,159.9009)"
       x1="129.0108"
       y1="-67.418991"
       x2="111.2336"
       y2="-88.381859" />
    <linearGradient
       inkscape:collect="always"
       xlink:href="#linearGradient869"
       id="linearGradient21960"
       gradientUnits="userSpaceOnUse"
       gradientTransform="matrix(0.747936,0,0,0.689251,30.55848,158.6478)"
       x1="30.622637"
       y1="-97.787552"
       x2="26.242413"
       y2="-140.48618" />
    <linearGradient
       inkscape:collect="always"
       xlink:href="#linearGradient984"
       id="linearGradient21962"
       gradientUnits="userSpaceOnUse"
       gradientTransform="matrix(0.935998,0,0,0.550765,30.59473,31.91764)"
       x1="8.3368893"
       y1="266.42126"
       x2="8.3368893"
       y2="138.54814" />
  </defs>
  <sodipodi:namedview
     id="base"
     pagecolor="#ffffff"
     bordercolor="#666666"
     borderopacity="1.0"
     inkscape:pageopacity="0.0"
     inkscape:pageshadow="2"
     inkscape:zoom="2.1681715"
     inkscape:cx="155.86962"
     inkscape:cy="-1.0707107"
     inkscape:window-width="1402"
     inkscape:window-height="1079"
     showguides="false"
     snaptoguides="false"
     inkscape:window-x="0"
     inkscape:window-y="32"
     inkscape:current-layer="svg1"
     width="48px"
     height="48px">
    <sodipodi:guide
       orientation="vertical"
       position="18.000854"
       id="guide826" />
    <sodipodi:guide
       orientation="horizontal"
       position="166.01139"
       id="guide827" />
    <sodipodi:guide
       orientation="vertical"
       position="177.99958"
       id="guide828" />
    <sodipodi:guide
       orientation="horizontal"
       position="27.849974"
       id="guide829" />
    <sodipodi:guide
       orientation="horizontal"
       position="154.01980"
       id="guide830" />
    <sodipodi:guide
       orientation="horizontal"
       position="142.05432"
       id="guide831" />
    <sodipodi:guide
       orientation="horizontal"
       position="127.59771"
       id="guide832" />
    <sodipodi:guide
       orientation="vertical"
       position="61.690169"
       id="guide838" />
    <sodipodi:guide
       orientation="vertical"
       position="75.738426"
       id="guide844" />
    <sodipodi:guide
       orientation="vertical"
       position="89.707097"
       id="guide847" />
    <sodipodi:guide
       orientation="horizontal"
       position="164.03206"
       id="guide971" />
    <sodipodi:guide
       orientation="horizontal"
       position="156.03921"
       id="guide972" />
    <sodipodi:guide
       orientation="vertical"
       position="23.750000"
       id="guide1067" />
    <sodipodi:guide
       orientation="vertical"
       position="171.75000"
       id="guide1068" />
    <sodipodi:guide
       orientation="vertical"
       position="7.7500000"
       id="guide1207" />
    <sodipodi:guide
       orientation="vertical"
       position="184.00000"
       id="guide1208" />
    <sodipodi:guide
       orientation="horizontal"
       position="130.25000"
       id="guide1209" />
    <sodipodi:guide
       orientation="horizontal"
       position="115.50000"
       id="guide1210" />
  </sodipodi:namedview>
  <g
     id="g21926"
     transform="matrix(0.2888,0,0,0.2888,-8.687238,-10.31377)">
    <path
       sodipodi:nodetypes="cccccccczzzzc"
       id="path947"
       d="M 47.346783,56.883048 C 46.428073,56.883048 45.68846,57.730384 45.68846,58.782906 L 45.68846,177.94174 C 45.68846,178.99426 46.428073,179.8416 47.346783,179.8416 L 178.18947,179.8416 C 179.10818,179.8416 179.8478,178.99426 179.8478,177.94174 L 179.8478,70.302466 C 179.8478,69.249944 179.10818,68.402607 178.18947,68.402607 L 105.81432,68.402607 C 104.60347,68.402607 103.31123,67.585847 102.60056,66.462698 L 97.742155,58.784517 C 96.959384,57.547432 95.435248,56.883113 94.101562,56.883111 L 47.346783,56.883048 z "
       style="fill:none;fill-rule:evenodd;stroke:black;stroke-width:2.15398064pt;stroke-linecap:round;stroke-linejoin:round" />
    <path
       sodipodi:nodetypes="cccccccczzzzc"
       id="path895"
       d="M 47.34679,56.88302 C 46.42808,56.88302 45.688467,57.730358 45.688467,58.78288 L 45.688467,177.94171 C 45.688467,178.99423 46.42808,179.84157 47.34679,179.84157 L 178.18948,179.84157 C 179.10819,179.84157 179.8478,178.99423 179.8478,177.94171 L 179.8478,70.302439 C 179.8478,69.249918 179.10819,68.402579 178.18948,68.402579 L 105.81433,68.402579 C 104.60348,68.402579 103.31124,67.58582 102.60057,66.462673 L 97.742161,58.784486 C 96.959392,57.547408 95.435256,56.883081 94.101569,56.883081 L 47.34679,56.88302 z "
       style="fill:url(#linearGradient21958);fill-rule:evenodd;stroke-width:3pt" />
    <path
       sodipodi:nodetypes="cccccccczzzzc"
       id="path949"
       d="M 47.333507,56.88302 C 46.422156,56.88302 45.688467,57.730358 45.688467,58.78288 L 45.688467,177.94171 C 45.688467,178.99423 46.422156,179.84157 47.333507,179.84157 L 177.12812,179.84157 C 178.03947,179.84157 178.77316,178.99423 178.77316,177.94171 L 178.77316,70.302439 C 178.77316,69.249918 178.03947,68.402579 177.12812,68.402579 L 105.33271,68.402579 C 104.13156,68.402579 102.84967,67.58582 102.14469,66.462673 L 97.325201,58.784486 C 96.5487,57.547408 95.036773,56.883081 93.713772,56.883081 L 47.333507,56.88302 z "
       style="fill:white;fill-opacity:1;fill-rule:evenodd;stroke-width:3pt" />
    <path
       sodipodi:nodetypes="cccccccczzzzc"
       id="path951"
       d="M 48.548872,57.07086 C 47.640928,57.07086 46.909982,57.908262 46.909982,58.948449 L 46.909982,176.71086 C 46.909982,177.75105 47.640928,178.58846 48.548872,178.58846 L 177.13508,178.58846 C 178.04302,178.58846 178.77397,177.75105 178.77397,176.71086 L 178.77397,70.333012 C 178.77397,69.292826 178.04302,68.455416 177.13508,68.455416 L 105.07349,68.455424 C 103.87682,68.455424 102.59973,67.648233 101.89738,66.538242 L 97.095911,58.950047 C 96.322309,57.727455 94.816036,57.070922 93.497977,57.070922 L 48.548872,57.07086 z "
       style="fill:url(#linearGradient21960);fill-rule:evenodd;stroke-width:3pt" />
    <path
       id="path952"
       d="M 48.580586,56.455283 C 47.672643,56.455283 46.945507,57.288327 46.945507,58.328514 L 46.945507,176.07789 C 46.945507,177.11808 47.672643,177.95112 48.580586,177.95112 L 177.16495,177.95112 C 178.07289,177.95111 178.80003,177.11808 178.80003,176.07789 L 178.80003,69.711994 C 178.80003,68.671807 178.07289,67.838763 177.16495,67.838763 L 105.11662,67.838763 C 103.91996,67.838763 102.63266,67.027483 101.93031,65.917501 L 97.129883,58.328514 C 96.35628,57.10593 94.842379,56.455283 93.52432,56.455283 L 48.580586,56.455283 z M 50.844543,59.961587 L 94.216085,59.961587 C 95.487981,59.961587 96.928407,60.578489 97.674909,61.738755 L 102.30764,68.943489 C 102.98538,69.996894 104.23438,70.768689 105.38913,70.768689 L 174.92195,70.768689 C 175.79809,70.768689 176.49414,71.558689 176.49414,72.545856 L 176.49414,173.5082 C 176.49414,174.49537 175.79809,175.28537 174.92195,175.28537 L 50.844543,175.28537 C 49.9684,175.28537 49.251388,174.49537 49.251388,173.5082 L 49.251388,61.738755 C 49.251388,60.751587 49.968399,59.961587 50.844543,59.961587 z "
       style="opacity:0.05319148;fill:white;fill-rule:evenodd;stroke-width:3pt" />
    <path
       id="path953"
       d="M 48.580586,56.455283 C 47.672643,56.455283 46.945507,57.288327 46.945507,58.328514 L 46.945507,176.07789 C 46.945507,177.11808 47.672643,177.95112 48.580586,177.95112 L 177.16495,177.95112 C 178.07289,177.95111 178.80003,177.11808 178.80003,176.07789 L 178.80003,69.711994 C 178.80003,68.671807 178.07289,67.838763 177.16495,67.838763 L 105.11662,67.838763 C 103.91996,67.838763 102.63266,67.027483 101.93031,65.917501 L 97.129883,58.328514 C 96.35628,57.10593 94.842379,56.455283 93.52432,56.455283 L 48.580586,56.455283 z M 49.314276,57.800167 L 93.754909,57.800167 C 95.058232,57.800167 96.55359,58.445588 97.318546,59.649382 L 102.05609,67.11829 C 102.75058,68.211212 104.01718,69.015537 105.20047,69.015537 L 176.45222,69.015537 C 177.35001,69.015537 178.06633,69.84055 178.06634,70.864752 L 178.06634,175.59757 C 178.06634,176.62178 177.35001,177.44679 176.45222,177.44679 L 49.314276,177.44679 C 48.416483,177.44679 47.679196,176.62177 47.679196,175.59757 L 47.679196,59.649382 C 47.679196,58.62518 48.416483,57.800167 49.314276,57.800167 z "
       style="opacity:0.17021275;fill:white;fill-rule:evenodd;stroke-width:3pt" />
    <g
       style="opacity:0.4148936"
       transform="matrix(0.683861,0,0,0.783465,-150.3364,35.73678)"
       id="g1229">
      <path
         id="path1222"
         d="M 309.00751,53.750008 C 307.47985,53.750008 306.25,54.979858 306.25,56.50752 L 306.25,160.99249 C 306.25,162.52015 307.47985,163.75 309.00751,163.75 L 463.4925,163.75 C 465.02016,163.75 466.25002,162.52015 466.25002,160.99249 L 466.25002,56.50752 C 466.25002,54.979858 465.02016,53.750008 463.4925,53.750008 L 309.00751,53.750008 z "
         style="opacity:0.05;fill-rule:evenodd;stroke-width:3pt" />
      <path
         id="path1223"
         d="M 307.8006,52.500008 C 306.24907,52.500008 305,53.757809 305,55.320191 L 305,162.17982 C 305,163.7422 306.24907,165 307.8006,165 L 464.69938,165 C 466.25091,165 467.49998,163.7422 467.49998,162.17982 L 467.49998,55.320191 C 467.49998,53.757809 466.25091,52.500008 464.69938,52.500008 L 307.8006,52.500008 z "
         style="opacity:0.05;fill-rule:evenodd;stroke-width:3pt" />
      <path
         id="path1224"
         d="M 306.59369,51.250008 C 305.01829,51.250008 303.75,52.53576 303.75,54.132862 L 303.75,163.36715 C 303.75,164.96425 305.01829,166.25 306.59369,166.25 L 465.90633,166.25 C 467.48173,166.25 468.75002,164.96425 468.75002,163.36715 L 468.75002,54.132862 C 468.75002,52.53576 467.48173,51.250008 465.90633,51.250008 L 306.59369,51.250008 z "
         style="opacity:0.05;fill-rule:evenodd;stroke-width:3pt" />
      <path
         id="path1225"
         d="M 305.38678,50.000008 C 303.78751,50.000008 302.5,51.313711 302.5,52.945533 L 302.5,164.55448 C 302.5,166.1863 303.78751,167.5 305.38678,167.5 L 467.11321,167.5 C 468.71248,167.5 469.99998,166.1863 469.99998,164.55448 L 469.99998,52.945533 C 469.99998,51.313711 468.71248,50.000008 467.11321,50.000008 L 305.38678,50.000008 z "
         style="opacity:0.05;fill-rule:evenodd;stroke-width:3pt" />
      <path
         id="path1226"
         d="M 304.17987,48.750008 C 302.55673,48.750008 301.25,50.091662 301.25,51.758204 L 301.25,165.74181 C 301.25,167.40835 302.55673,168.75 304.17987,168.75 L 468.32016,168.75 C 469.9433,168.75 471.25002,167.40835 471.25002,165.74181 L 471.25002,51.758204 C 471.25002,50.091662 469.9433,48.750008 468.32016,48.750008 L 304.17987,48.750008 z "
         style="opacity:0.05;fill-rule:evenodd;stroke-width:3pt" />
    </g>
    <rect
       ry="1.7767887"
       y="78.670891"
       x="60.140514"
       height="84.535545"
       width="107.32833"
       id="rect1235"
       style="fill-rule:evenodd;stroke-width:3pt" />
    <rect
       y="79.631523"
       x="60.979015"
       height="82.614281"
       width="105.65133"
       id="rect1236"
       style="fill:white;fill-rule:evenodd;stroke-width:3pt" />
    <g
       style="opacity:0.6"
       transform="matrix(0.670802,0,0,0.658627,192.2209,52.93033)"
       id="g1026">
      <path
         sodipodi:nodetypes="cccccccczzzzc"
         id="path1015"
         d="M -20.917886,61.18677 C -19.548329,61.18677 -18.445749,62.289348 -18.445749,63.658919 L -18.445739,188.76535 C -18.445739,190.13492 -19.548319,191.2375 -20.917876,191.2375 L -215.97198,191.2375 C -217.34155,191.2375 -218.44413,190.13492 -218.44413,188.76535 L -218.44414,83.630126 C -218.44414,82.260555 -217.34156,81.157977 -215.97199,81.157977 L -163.73292,81.157977 C -161.92783,81.157977 -159.72802,80.258668 -158.94198,78.633714 L -151.6993,63.661015 C -150.83352,61.871211 -148.26026,61.186853 -146.27205,61.186852 L -20.917886,61.18677 z "
         style="opacity:0.03999999;fill:black;fill-opacity:1;fill-rule:evenodd;stroke-width:3pt" />
      <path
         sodipodi:nodetypes="cccccccczzzzc"
         id="path1020"
         d="M -20.917886,59.936768 C -19.548329,59.936768 -18.445749,61.039346 -18.445749,62.408917 L -18.445739,187.51535 C -18.445739,188.88492 -19.548319,189.9875 -20.917876,189.9875 L -215.97198,189.9875 C -217.34155,189.9875 -218.44413,188.88492 -218.44413,187.51535 L -218.44414,82.380124 C -218.44414,81.010553 -217.34156,79.907975 -215.97199,79.907975 L -163.73292,79.907975 C -161.92783,79.907975 -159.72802,79.008666 -158.94198,77.383712 L -151.6993,62.411013 C -150.83352,60.621209 -148.26026,59.936851 -146.27205,59.93685 L -20.917886,59.936768 z "
         style="opacity:0.03999999;fill:black;fill-opacity:1;fill-rule:evenodd;stroke-width:3pt" />
      <path
         sodipodi:nodetypes="cccccccczzzzc"
         id="path1021"
         d="M -20.917886,58.686768 C -19.548329,58.686768 -18.445749,59.789346 -18.445749,61.158917 L -18.445739,186.26535 C -18.445739,187.63492 -19.548319,188.7375 -20.917876,188.7375 L -215.97198,188.7375 C -217.34155,188.7375 -218.44413,187.63492 -218.44413,186.26535 L -218.44414,81.130124 C -218.44414,79.760553 -217.34156,78.657975 -215.97199,78.657975 L -163.73292,78.657975 C -161.92783,78.657975 -159.72802,77.758666 -158.94198,76.133712 L -151.6993,61.161013 C -150.83352,59.371209 -148.26026,58.686851 -146.27205,58.68685 L -20.917886,58.686768 z "
         style="opacity:0.03999999;fill:black;fill-opacity:1;fill-rule:evenodd;stroke-width:3pt" />
      <path
         sodipodi:nodetypes="cccccccczzzzc"
         id="path1022"
         d="M -20.917886,57.436766 C -19.548329,57.436766 -18.445749,58.539344 -18.445749,59.908915 L -18.445739,185.01535 C -18.445739,186.38492 -19.548319,187.4875 -20.917876,187.4875 L -215.97198,187.4875 C -217.34155,187.4875 -218.44413,186.38492 -218.44413,185.01535 L -218.44414,79.880122 C -218.44414,78.510551 -217.34156,77.407973 -215.97199,77.407973 L -163.73292,77.407973 C -161.92783,77.407973 -159.72802,76.508664 -158.94198,74.88371 L -151.6993,59.911011 C -150.83352,58.121207 -148.26026,57.436849 -146.27205,57.436848 L -20.917886,57.436766 z "
         style="opacity:0.03999999;fill:black;fill-opacity:1;fill-rule:evenodd;stroke-width:3pt" />
      <path
         sodipodi:nodetypes="cccccccczzzzc"
         id="path1023"
         d="M -20.917886,56.186764 C -19.548329,56.186764 -18.445749,57.289342 -18.445749,58.658913 L -18.445739,183.76535 C -18.445739,185.13492 -19.548319,186.2375 -20.917876,186.2375 L -215.97198,186.2375 C -217.34155,186.2375 -218.44413,185.13492 -218.44413,183.76535 L -218.44414,78.63012 C -218.44414,77.260549 -217.34156,76.157971 -215.97199,76.157971 L -163.73292,76.157971 C -161.92783,76.157971 -159.72802,75.258662 -158.94198,73.633708 L -151.6993,58.661009 C -150.83352,56.871205 -148.26026,56.186847 -146.27205,56.186846 L -20.917886,56.186764 z "
         style="opacity:0.03999999;fill:black;fill-opacity:1;fill-rule:evenodd;stroke-width:3pt" />
      <path
         sodipodi:nodetypes="cccccccczzzzc"
         id="path1024"
         d="M -20.917886,54.936764 C -19.548329,54.936764 -18.445749,56.039342 -18.445749,57.408913 L -18.445739,182.51535 C -18.445739,183.88492 -19.548319,184.9875 -20.917876,184.9875 L -215.97198,184.9875 C -217.34155,184.9875 -218.44413,183.88492 -218.44413,182.51535 L -218.44414,77.38012 C -218.44414,76.010549 -217.34156,74.907971 -215.97199,74.907971 L -163.73292,74.907971 C -161.92783,74.907971 -159.72802,74.008662 -158.94198,72.383708 L -151.6993,57.411009 C -150.83352,55.621205 -148.26026,54.936847 -146.27205,54.936846 L -20.917886,54.936764 z "
         style="opacity:0.03999999;fill:black;fill-opacity:1;fill-rule:evenodd;stroke-width:3pt" />
      <path
         sodipodi:nodetypes="cccccccczzzzc"
         id="path1025"
         d="M -20.917886,53.686762 C -19.548329,53.686762 -18.445749,54.78934 -18.445749,56.158911 L -18.445739,181.26535 C -18.445739,182.63492 -19.548319,183.7375 -20.917876,183.7375 L -215.97198,183.7375 C -217.34155,183.7375 -218.44413,182.63492 -218.44413,181.26535 L -218.44414,76.130118 C -218.44414,74.760547 -217.34156,73.657969 -215.97199,73.657969 L -163.73292,73.657969 C -161.92783,73.657969 -159.72802,72.75866 -158.94198,71.133706 L -151.6993,56.161007 C -150.83352,54.371203 -148.26026,53.686845 -146.27205,53.686844 L -20.917886,53.686762 z "
         style="opacity:0.03999999;fill:black;fill-opacity:1;fill-rule:evenodd;stroke-width:3pt" />
    </g>
    <path
       sodipodi:nodetypes="cccscccczzzzc"
       id="path981"
       d="M 185.29917,92.498452 C 186.31772,92.498452 187.13772,93.24047 187.13772,94.162171 L 179.84788,178.35692 C 179.84788,179.27862 179.02789,180.02064 178.00934,180.02064 L 47.527126,180.02064 C 46.508564,180.02064 45.688571,179.27862 45.688571,178.35692 L 38.398115,107.60249 C 38.398115,106.68079 39.218108,105.93877 40.23667,105.93877 L 79.087068,105.93877 C 80.42952,105.93877 82.065528,105.33355 82.650109,104.23998 L 88.036519,94.163581 C 88.680403,92.95907 90.594147,92.498507 92.072787,92.498507 L 185.29917,92.498452 z "
       style="fill:none;fill-rule:evenodd;stroke:black;stroke-width:2.12238426pt;stroke-linecap:round;stroke-linejoin:round" />
    <path
       sodipodi:nodetypes="cccccccczzzzc"
       id="path980"
       d="M 185.29912,92.498463 C 186.31766,92.498463 187.13765,93.240481 187.13765,94.162182 L 179.84783,178.35696 C 179.84783,179.27866 179.02783,180.02068 178.00929,180.02068 L 47.527047,180.02068 C 46.508484,180.02068 45.688491,179.27866 45.688491,178.35696 L 38.398038,107.60251 C 38.398038,106.68081 39.218031,105.93879 40.236593,105.93879 L 79.086996,105.93879 C 80.429448,105.93879 82.065456,105.33357 82.650037,104.24 L 88.036448,94.163593 C 88.680332,92.959081 90.594076,92.498519 92.072713,92.498518 L 185.29912,92.498463 z "
       style="fill:url(#linearGradient21962);fill-rule:evenodd;stroke-width:3pt" />
    <path
       sodipodi:nodetypes="ccccccccccc"
       id="path1044"
       d="M 185.79043,92.670387 C 185.84291,92.825436 185.97635,92.941022 185.97635,93.112034 L 178.68577,177.29825 C 178.68578,178.21995 177.8683,178.95968 176.84975,178.95968 L 46.309564,178.95968 C 46.120581,178.95968 45.992851,178.83894 45.821508,178.79144 C 46.05191,179.47205 46.642022,180.01121 47.471601,180.01122 L 178.01179,180.01122 C 179.03034,180.01122 179.84782,179.27149 179.84781,178.34979 L 187.13839,94.163573 C 187.13839,93.412883 186.54256,92.878879 185.79043,92.670387 z "
       style="opacity:0.13297867;fill-rule:evenodd;stroke-width:3pt" />
    <path
       sodipodi:nodetypes="ccccccc"
       id="path1049"
       d="M 174.42177,171.4126 C 174.42178,172.3343 172.20181,174.56842 171.18326,174.56842 C 171.18326,174.56842 50.270427,180.01125 51.28899,180.01126 L 178.01181,180.01126 C 179.03035,180.01126 179.84783,179.27153 179.84783,178.34983 L 187.1384,94.163584 L 174.42177,171.4126 z "
       style="opacity:0.05319148;fill-rule:evenodd;stroke-width:3pt" />
    <path
       sodipodi:nodetypes="ccccccccccccccczcc"
       id="path1053"
       d="M 92.083723,92.502141 C 90.605083,92.502142 88.683718,92.95906 88.039832,94.163573 L 82.647978,104.23732 C 82.063397,105.33089 80.434594,105.94081 79.092143,105.94081 L 40.233609,105.94081 C 39.215047,105.94081 38.397589,106.68054 38.39759,107.60224 L 45.688489,178.20115 C 45.688489,179.0918 45.917821,179.79385 46.888447,179.84156 C 46.725639,179.59309 46.539836,179.35335 46.539836,179.04239 L 39.248937,108.97679 C 39.248936,108.05509 40.066394,107.31536 41.084956,107.31536 L 80.486588,107.31536 C 81.829039,107.31535 83.457842,106.70543 84.042423,105.61186 L 89.434277,95.538119 C 90.078163,94.333606 91.999528,93.876688 93.478167,93.876687 L 185.67407,93.784481 C 187.21165,93.782943 186.47513,92.562181 185.30237,92.502141 L 92.083723,92.502141 z "
       style="fill:white;fill-rule:evenodd;stroke-width:3pt" />
    <path
       sodipodi:nodetypes="ccccccccccccczzc"
       id="path1056"
       d="M 93.330562,92.502141 C 91.851923,92.502142 89.930557,92.95906 89.286672,94.163573 L 83.894818,104.23732 C 83.310237,105.33089 81.681434,105.94081 80.338983,105.94081 L 41.480449,105.94081 C 40.461887,105.94081 39.023746,106.68054 39.023746,107.60224 L 45.688489,178.34979 L 44.408784,112.06077 C 44.408784,111.13907 45.226241,110.39934 46.244803,110.39934 L 85.103337,110.39934 C 86.445792,110.39934 88.07459,109.78941 88.659172,108.69584 L 94.051026,98.622098 C 94.69491,97.417584 96.616271,96.960667 98.094918,96.960667 L 181.81176,95.473566 C 190.13006,95.325804 185.3609,92.502141 184.74151,92.502141 L 93.330562,92.502141 z "
       style="opacity:0.11170211;fill:white;fill-rule:evenodd;stroke-width:3pt" />
    <text
       transform="scale(1.331745,0.750895)"
       sodipodi:linespacing="125%"
       id="text3004"
       y="217.49663"
       x="43.683937"
       style="font-size:58.15241241px;font-style:normal;font-weight:normal;line-height:125%;fill:#f1f1ed;fill-opacity:1;stroke:none;stroke-width:1px;stroke-linecap:butt;stroke-linejoin:miter;stroke-opacity:1;font-family:Bitstream Vera Sans"
       xml:space="preserve"><tspan
         style="font-size:58.15241241px;font-style:normal;font-variant:normal;font-weight:normal;font-stretch:normal;text-align:start;line-height:125%;writing-mode:lr-tb;text-anchor:start;fill:#f1f1ed;fill-opacity:1;font-family:Staccato222 BT"
         y="217.49663"
         x="43.683937"
         id="tspan3006"
         sodipodi:role="line">XFE</tspan></text>
  </g>
</svg>
