<?xml version="1.0" encoding="UTF-8" standalone="no"?>
<!-- Generator: Adobe Illustrator 9.0, SVG Export Plug-In  -->
<svg
   xmlns:dc="http://purl.org/dc/elements/1.1/"
   xmlns:cc="http://web.resource.org/cc/"
   xmlns:rdf="http://www.w3.org/1999/02/22-rdf-syntax-ns#"
   xmlns:svg="http://www.w3.org/2000/svg"
   xmlns="http://www.w3.org/2000/svg"
   xmlns:xlink="http://www.w3.org/1999/xlink"
   xmlns:sodipodi="http://sodipodi.sourceforge.net/DTD/sodipodi-0.dtd"
   xmlns:inkscape="http://www.inkscape.org/namespaces/inkscape"
   width="48"
   height="48"
   viewBox="0 0 43.8 39"
   xml:space="preserve"
   id="svg20954"
   sodipodi:version="0.32"
   inkscape:version="0.44.1"
   sodipodi:docname="xfi.svg"
   sodipodi:docbase="/home/test"
   version="1.0"><metadata
   id="metadata21022"><rdf:RDF><cc:Work
       rdf:about=""><dc:format>image/svg+xml</dc:format><dc:type
         rdf:resource="http://purl.org/dc/dcmitype/StillImage" /></cc:Work></rdf:RDF></metadata><defs
   id="defs21020">
		
		<linearGradient
   y2="36.032799"
   x2="31.081301"
   y1="3.7319"
   x1="12.4873"
   gradientUnits="userSpaceOnUse"
   id="aigrd1">
			<stop
   id="stop20963"
   style="stop-color:#D2D2D2"
   offset="0" />
			<stop
   id="stop20965"
   style="stop-color:#EDEDED"
   offset="1" />
		</linearGradient>
		
		<linearGradient
   y2="22.5769"
   x2="21.9168"
   y1="30.341299"
   x1="21.877001"
   gradientUnits="userSpaceOnUse"
   id="aigrd2"
   gradientTransform="translate(-0.412698,-2.269841)">
			<stop
   id="stop20970"
   style="stop-color:#163069"
   offset="0" />
			<stop
   id="stop20972"
   style="stop-color:#83A1CB"
   offset="1" />
		</linearGradient>
		
		
		
		
		
		<linearGradient
   y2="7.1090999"
   x2="21.9326"
   y1="24.627399"
   x1="21.9326"
   gradientUnits="userSpaceOnUse"
   id="aigrd3"
   gradientTransform="translate(-0.412698,-2.269841)">
			<stop
   id="stop20985"
   style="stop-color:#D0D6E5"
   offset="0" />
			<stop
   id="stop20987"
   style="stop-color:#093A80"
   offset="1" />
		</linearGradient>
		
		
		
		
		
		
		
	<linearGradient
   inkscape:collect="always"
   xlink:href="#aigrd1"
   id="linearGradient22339"
   gradientUnits="userSpaceOnUse"
   x1="12.4873"
   y1="3.7319"
   x2="31.081301"
   y2="36.032799" /><linearGradient
   inkscape:collect="always"
   xlink:href="#aigrd2"
   id="linearGradient22341"
   gradientUnits="userSpaceOnUse"
   gradientTransform="translate(-0.412698,-2.269841)"
   x1="21.877001"
   y1="30.341299"
   x2="21.9168"
   y2="22.5769" /><linearGradient
   inkscape:collect="always"
   xlink:href="#aigrd3"
   id="linearGradient22343"
   gradientUnits="userSpaceOnUse"
   gradientTransform="translate(-0.412698,-2.269841)"
   x1="21.9326"
   y1="24.627399"
   x2="21.9326"
   y2="7.1090999" /></defs><sodipodi:namedview
   inkscape:window-height="1039"
   inkscape:window-width="1427"
   inkscape:pageshadow="2"
   inkscape:pageopacity="0.0"
   guidetolerance="10.0"
   gridtolerance="10.0"
   objecttolerance="10.0"
   borderopacity="1.0"
   bordercolor="#666666"
   pagecolor="#ffffff"
   id="base"
   inkscape:zoom="7.7538462"
   inkscape:cx="27.375"
   inkscape:cy="24.375"
   inkscape:window-x="10"
   inkscape:window-y="77"
   inkscape:current-layer="svg20954"
   width="48px"
   height="48px" />
	
	
<g
   id="g22311"
   transform="matrix(1.079869,0,0,1.079869,-1.412202,-1.412203)"
   inkscape:export-filename="/home/test/g22311.png"
   inkscape:export-xdpi="72"
   inkscape:export-ydpi="72"><g
   style="fill-rule:nonzero;stroke:black;stroke-miterlimit:4"
   id="Layer_x0020_2">
		<path
   id="path20957"
   d="M 43.8,39 L 0,39 L 0,0 L 43.8,0 L 43.8,39 z "
   style="fill:none;stroke:none" />
	</g><path
   style="fill-rule:nonzero;stroke:none;stroke-miterlimit:4"
   d="M 6.654663,1.3190476 C 4.3443273,1.3190476 2.4190476,3.1480633 2.4190476,5.458399 L 2.4190476,33.374954 C 2.4190476,35.685289 4.2480633,37.514305 6.558399,37.514305 L 36.303969,37.514305 C 38.614305,37.514305 40.443321,35.685289 40.443321,33.374954 L 40.443321,5.458399 C 40.443321,3.1480633 38.614305,1.3190476 36.303969,1.3190476 L 6.654663,1.3190476 L 6.654663,1.3190476 z "
   id="path20960" /><path
   style="fill:url(#linearGradient22339);fill-rule:nonzero;stroke:none;stroke-miterlimit:4"
   d="M 39.1,33.3 C 39.1,34.9 37.8,36.2 36.2,36.2 L 6.9,36.2 C 5.3,36.2 4,34.9 4,33.3 L 4,5.7 C 4,4.1 5.3,2.8 6.9,2.8 L 36.2,2.8 C 37.8,2.8 39.1,4.1 39.1,5.7 L 39.1,33.3 L 39.1,33.3 z "
   id="path20967" /><path
   style="fill:url(#linearGradient22341);fill-rule:nonzero;stroke:none;stroke-miterlimit:4"
   d="M 36.187302,27.330159 L 6.8873016,27.330159 L 6.8873016,7.4301588 L 36.187302,7.4301588 L 36.187302,27.330159 L 36.187302,27.330159 z "
   id="path20974" /><path
   style="fill:#fcfcfc;fill-rule:nonzero;stroke:none;stroke-miterlimit:4"
   d="M 5.2,6.5063492 L 4.6,35.306349 C 4.2,34.806349 4,33.906349 4,33.906349 L 4,5.5063492 C 4,5.5063492 4,4.8063492 4.6,3.9063492 C 5.3,3.0063492 6.4,3.0063492 6.4,3.0063492 L 31.9,3.0063492 L 7.4,4.2063492 C 6.4,4.2063492 5.9,4.7063492 5.7,4.9063492 C 5.5,5.2063492 5.2,5.8063492 5.2,6.5063492 z "
   id="path20976" /><path
   style="fill:#bebebe;fill-rule:nonzero;stroke:none;stroke-miterlimit:4"
   d="M 37.9,32.6 L 38.6,4 C 39,4.4 39.2,5.4 39.2,5.4 L 39.2,33.7 C 39.2,33.7 39.2,34.4 38.6,35.3 C 37.9,36.2 36.7,36.3 36.7,36.3 L 11.4,36.3 L 35.9,34.9 C 36.9,34.9 37.4,34.4 37.6,34.2 C 37.8,34 38.1,33.3 38.1,32.7 L 37.9,32.6 z "
   id="path20978" /><path
   style="fill:#bebebe;fill-rule:nonzero;stroke:none;stroke-miterlimit:4"
   d="M 36.187302,7.4301588 L 36.787302,6.7301588 L 6.1873016,6.6301588 L 6.1873016,28.030159 L 6.8873016,27.230159 L 6.8873016,7.4301588 L 36.187302,7.4301588 z "
   id="path20980" /><path
   style="fill:white;fill-rule:nonzero;stroke:none;stroke-miterlimit:4"
   d="M 6.1873016,28.030159 L 36.787302,27.930159 L 36.787302,6.7301588 L 36.087302,7.4301588 L 36.087302,27.330159 L 6.8873016,27.330159 L 6.1873016,28.130159 L 6.1873016,28.030159 z "
   id="path20982" /><path
   style="fill:url(#linearGradient22343);fill-rule:nonzero;stroke:none;stroke-miterlimit:4"
   d="M 7.1873016,7.6301588 L 35.887302,7.6301588 L 35.887302,19.730159 L 7.1873016,19.730159 L 7.1873016,7.6301588 z "
   id="path20989" /><g
   transform="translate(-0.412698,-2.269841)"
   id="g20991"
   style="fill-rule:nonzero;stroke:black;stroke-miterlimit:4">
			<g
   id="g20993">
				<path
   d="M 18.4,15.4 C 18.4,17.6 16.6,19.5 14.3,19.5 C 12.1,19.5 10.2,17.7 10.2,15.4 C 10.2,13.2 12,11.3 14.3,11.3 C 16.5,11.3 18.4,13.1 18.4,15.4 z "
   id="path20995" />
				<path
   style="opacity:0.2083;fill:#ecf751;stroke:none"
   d="M 18,15.4 C 18,17.4 16.4,19.1 14.3,19.1 C 12.3,19.1 10.6,17.5 10.6,15.4 C 10.6,13.4 12.2,11.7 14.3,11.7 C 16.3,11.7 18,13.3 18,15.4 L 18,15.4 z "
   id="path20997" />
				<path
   style="opacity:0.3667;fill:#f0f972;stroke:none"
   d="M 17.6,15.4 C 17.6,17.2 16.1,18.7 14.3,18.7 C 12.5,18.7 11,17.2 11,15.4 C 11,13.6 12.5,12.1 14.3,12.1 C 16.1,12.1 17.6,13.6 17.6,15.4 L 17.6,15.4 z "
   id="path20999" />
				<path
   style="opacity:0.525;fill:#f4fa95;stroke:none"
   d="M 17.2,15.4 C 17.2,17 15.9,18.3 14.3,18.3 C 12.7,18.3 11.4,17 11.4,15.4 C 11.4,13.8 12.7,12.5 14.3,12.5 C 15.9,12.5 17.2,13.8 17.2,15.4 z "
   id="path21001" />
				<path
   style="opacity:0.6833;fill:#f7fcb7;stroke:none"
   d="M 16.8,15.4 C 16.8,16.8 15.7,17.9 14.3,17.9 C 12.9,17.9 11.8,16.8 11.8,15.4 C 11.8,14 12.9,12.9 14.3,12.9 C 15.7,12.9 16.8,14 16.8,15.4 L 16.8,15.4 z "
   id="path21003" />
				<path
   style="opacity:0.8417;fill:#fbfddb;stroke:none"
   d="M 16.4,15.4 C 16.4,16.6 15.4,17.5 14.3,17.5 C 13.2,17.5 12.2,16.5 12.2,15.4 C 12.2,14.3 13.2,13.3 14.3,13.3 C 15.4,13.3 16.4,14.3 16.4,15.4 z "
   id="path21005" />
				<path
   style="fill:white;stroke:none"
   d="M 16,15.4 C 16,16.4 15.2,17.2 14.2,17.2 C 13.2,17.2 12.4,16.4 12.4,15.4 C 12.4,14.4 13.2,13.6 14.2,13.6 C 15.2,13.6 16,14.4 16,15.4 L 16,15.4 z "
   id="path21007" />
			</g>
		</g><path
   style="opacity:0.3;fill-rule:nonzero;stroke:none;stroke-miterlimit:4"
   d="M 23.587302,21.430159 L 30.887302,21.430159 L 32.287302,21.830159 L 29.887302,21.830159 C 29.887302,21.830159 32.287302,22.030159 33.487302,23.530159 C 34.687302,24.930159 32.087302,26.630159 32.087302,26.630159 C 32.087302,26.630159 32.087302,26.630159 32.087302,26.630159 C 31.987302,26.330159 31.387302,23.930159 30.187302,22.930159 C 29.287302,22.130159 28.287302,21.930159 28.287302,21.930159 L 23.587302,21.930159 L 23.587302,21.530159 L 23.587302,21.430159 z "
   id="path21009" /><path
   style="opacity:0.3;fill-rule:nonzero;stroke:none;stroke-miterlimit:4"
   d="M 28.387302,22.030159 L 24.187302,22.030159 L 31.987302,26.430159 L 28.387302,22.030159 L 28.387302,22.030159 z "
   id="path21011" /><path
   style="fill:#515151;fill-rule:nonzero;stroke:none;stroke-miterlimit:4"
   d="M 23.587302,21.530159 L 30.887302,21.530159 L 31.987302,20.830159 L 29.587302,20.830159 C 29.587302,20.830159 31.787302,20.430159 32.087302,17.930159 C 32.387302,15.430159 28.687302,12.630159 28.687302,12.630159 C 28.687302,12.630159 28.687302,12.630159 28.687302,12.730159 C 28.787302,13.330159 29.787302,17.530159 29.087302,19.130159 C 28.787302,20.530159 27.887302,20.830159 27.887302,20.830159 L 23.287302,20.830159 L 23.487302,21.530159 L 23.587302,21.530159 z "
   id="path21013" /><path
   style="fill:#515151;fill-rule:nonzero;stroke:none;stroke-miterlimit:4"
   d="M 27.987302,20.430159 L 23.787302,20.430159 L 28.787302,12.830159 L 27.987302,20.430159 z "
   id="path21015" /><path
   style="fill-rule:nonzero;stroke:none;stroke-miterlimit:4"
   d="M 6.8873016,7.4301588 L 6.8873016,27.330159 L 36.187302,27.330159 L 36.187302,7.4301588 L 6.8873016,7.4301588 z M 35.587302,26.730159 L 7.5873016,26.730159 L 7.5873016,8.0301588 L 35.587302,8.0301588 L 35.587302,26.730159 z "
   id="path21017" /><text
   transform="scale(1.331742,0.750896)"
   sodipodi:linespacing="125%"
   id="text3004"
   y="46.409023"
   x="8.5390234"
   style="font-size:11.41712856px;font-style:normal;font-weight:normal;line-height:125%;fill:#000004;fill-opacity:1;stroke:none;stroke-width:1px;stroke-linecap:butt;stroke-linejoin:miter;stroke-opacity:1;font-family:Bitstream Vera Sans"
   xml:space="preserve"><tspan
     style="font-size:11.41712856px;font-style:normal;font-variant:normal;font-weight:normal;font-stretch:normal;text-align:start;line-height:125%;writing-mode:lr-tb;text-anchor:start;fill:#000004;fill-opacity:1;font-family:Staccato222 BT"
     y="46.409023"
     x="8.5390234"
     id="tspan3006"
     sodipodi:role="line">XFI</tspan></text>

</g></svg>