/* XPM */
static char * xfi_xpm[] = {
"48 48 255 2",
"  	c None",
". 	c #000200",
"+ 	c #010400",
"@ 	c #060208",
"# 	c #020501",
"$ 	c #000509",
"% 	c #050804",
"& 	c #0A0900",
"* 	c #0C090E",
"= 	c #070E10",
"- 	c #110F13",
"; 	c #10120F",
"> 	c #131209",
", 	c #0E1409",
"' 	c #10171D",
") 	c #0A172F",
"! 	c #131722",
"~ 	c #111B25",
"{ 	c #1C1A1E",
"] 	c #1F1D20",
"^ 	c #212109",
"/ 	c #24240E",
"( 	c #182438",
"_ 	c #232709",
": 	c #272528",
"< 	c #172941",
"[ 	c #272826",
"} 	c #1B2A39",
"| 	c #2E310F",
"1 	c #232F44",
"2 	c #2F2E31",
"3 	c #2E2F2D",
"4 	c #21304F",
"5 	c #1C3155",
"6 	c #253146",
"7 	c #2F333F",
"8 	c #333532",
"9 	c #373539",
"0 	c #363917",
"a 	c #3A3B0D",
"b 	c #373936",
"c 	c #2B3B56",
"d 	c #393A38",
"e 	c #1C3F6E",
"f 	c #3D3B3E",
"g 	c #2A3D63",
"h 	c #3B3D3B",
"i 	c #3F4018",
"j 	c #3D3D46",
"k 	c #383F46",
"l 	c #3E403D",
"m 	c #424315",
"n 	c #413F42",
"o 	c #3F3F48",
"p 	c #37414D",
"q 	c #29436D",
"r 	c #40423F",
"s 	c #2F4464",
"t 	c #41424A",
"u 	c #424441",
"v 	c #3A4550",
"w 	c #2E4576",
"x 	c #434542",
"y 	c #464447",
"z 	c #444643",
"A 	c #214A85",
"B 	c #204B7F",
"C 	c #35486E",
"D 	c #3E4854",
"E 	c #314975",
"F 	c #224D7C",
"G 	c #464845",
"H 	c #2D4B81",
"I 	c #4A484B",
"J 	c #354A7C",
"K 	c #434B52",
"L 	c #324D72",
"M 	c #464D54",
"N 	c #4E4D45",
"O 	c #4D4E4C",
"P 	c #525223",
"Q 	c #485057",
"R 	c #4F504E",
"S 	c #395379",
"T 	c #4D5153",
"U 	c #525054",
"V 	c #51561F",
"W 	c #4C535A",
"X 	c #415576",
"Y 	c #4B5662",
"Z 	c #2B5B96",
"` 	c #235E9E",
" .	c #3B598A",
"..	c #43578A",
"+.	c #565855",
"@.	c #54585B",
"#.	c #2F5D99",
"$.	c #465A7B",
"%.	c #3D5B8C",
"&.	c #415B81",
"*.	c #2761A1",
"=.	c #4A5E7F",
"-.	c #42628D",
";.	c #49608D",
">.	c #55606C",
",.	c #586067",
"'.	c #5E605D",
").	c #556078",
"!.	c #51617D",
"~.	c #615F63",
"{.	c #41659C",
"].	c #566476",
"^.	c #5A6571",
"/.	c #516687",
"(.	c #4E678E",
"_.	c #576683",
":.	c #64656E",
"<.	c #446A9B",
"[.	c #4669A1",
"}.	c #4C689B",
"|.	c #4E6A8B",
"1.	c #686669",
"2.	c #64696B",
"3.	c #5F6A76",
"4.	c #626A71",
"5.	c #6D6E2B",
"6.	c #686A67",
"7.	c #506C9F",
"8.	c #676B6E",
"9.	c #646C73",
"0.	c #5C6E85",
"a.	c #536EA2",
"b.	c #6E6C70",
"c.	c #52719E",
"d.	c #72732F",
"e.	c #587198",
"f.	c #6B6F7D",
"g.	c #6E706D",
"h.	c #5574A1",
"i.	c #5F7396",
"j.	c #70726F",
"k.	c #5F7693",
"l.	c #69748C",
"m.	c #6A7581",
"n.	c #5478AB",
"o.	c #737572",
"p.	c #64778E",
"q.	c #5A78A5",
"r.	c #687789",
"s.	c #7D7C31",
"t.	c #5D7BA8",
"u.	c #527DB5",
"v.	c #587CAF",
"w.	c #6C7B8D",
"x.	c #737A8E",
"y.	c #657DA6",
"z.	c #7D7B7F",
"A.	c #6381AF",
"B.	c #7A7F82",
"C.	c #81863A",
"D.	c #7A8195",
"E.	c #6785B3",
"F.	c #858387",
"G.	c #6A88B6",
"H.	c #7588A0",
"I.	c #7088B1",
"J.	c #89878B",
"K.	c #7D89A2",
"L.	c #788BA2",
"M.	c #718DAF",
"N.	c #748DB6",
"O.	c #7D8CAB",
"P.	c #878B9A",
"Q.	c #8F9346",
"R.	c #7E91B5",
"S.	c #928F94",
"T.	c #7794C3",
"U.	c #8194B8",
"V.	c #7D95BF",
"W.	c #909597",
"X.	c #8B96B0",
"Y.	c #8599BD",
"Z.	c #889CC1",
"`.	c #9C9E9B",
" +	c #969EB2",
".+	c #8DA4C2",
"++	c #A0A29F",
"@+	c #8FA3C8",
"#+	c #A6A853",
"$+	c #98A3BD",
"%+	c #A2A4A1",
"&+	c #8BA7CA",
"*+	c #96A5C4",
"=+	c #A1A6A9",
"-+	c #A4A6A3",
";+	c #8AABD4",
">+	c #99A8C8",
",+	c #8FABCE",
"'+	c #ADAF5A",
")+	c #A6ABAE",
"!+	c #9FABC5",
"~+	c #9DACCC",
"{+	c #A0AFCF",
"]+	c #A1B1D1",
"^+	c #A4B3D4",
"/+	c #B2B4B1",
"(+	c #ABB6D1",
"_+	c #B2B7B9",
":+	c #BCBD67",
"<+	c #ADB8D3",
"[+	c #BEBF69",
"}+	c #AFBBD5",
"|+	c #B8BDC0",
"1+	c #BEC1BD",
"2+	c #BFC4C6",
"3+	c #C3C5C2",
"4+	c #C1C6C9",
"5+	c #CBCE7D",
"6+	c #C9CBC7",
"7+	c #C7CCCF",
"8+	c #CCCECB",
"9+	c #CACFD1",
"0+	c #CED0CC",
"a+	c #CFD1CE",
"b+	c #D1D3D0",
"c+	c #D3D5D2",
"d+	c #D5D7D4",
"e+	c #D6D8D5",
"f+	c #DBDE8C",
"g+	c #D8DAD6",
"h+	c #D9DBD8",
"i+	c #DAE19B",
"j+	c #DBDDDA",
"k+	c #DDDFDC",
"l+	c #DEE0DD",
"m+	c #E0E2DF",
"n+	c #E3E5E1",
"o+	c #ECEBA7",
"p+	c #E5E7E4",
"q+	c #E7E9E6",
"r+	c #E8EAE7",
"s+	c #E9EBE8",
"t+	c #EBEDEA",
"u+	c #EDEFEB",
"v+	c #EEF4C1",
"w+	c #EFF1EE",
"x+	c #F5F5CB",
"y+	c #F1F3F0",
"z+	c #F3F5F2",
"A+	c #F8FBD6",
"B+	c #F7FAF6",
"C+	c #FEFCDF",
"D+	c #FAFCF9",
"E+	c #FFFEF5",
"F+	c #FDFFFC",
"                                                                                                ",
"                                                                                                ",
"                                                                                                ",
"                                                                                                ",
"                                                                                                ",
"                                                                                                ",
"                # . . . . . . . . . . . . . . . . . . . . . . . . . # . # . #                   ",
"              . . 8 u r r r r u u u u u x x x x x x x x x z z z x b d d d 8 . . #               ",
"            . +.F+F+F+F+F+F+F+D+B+B+z+y+w+u+u+u+q+r+n+n+n+l+l+l+k+k+k+k+l+l+b+'..               ",
"          . . B+y+g+b+0+0+0+0+0+0+0+0+b+b+b+b+b+c+c+c+c+c+g+g+g+g+g+g+g+g+g+g+l+d .             ",
"          # 3 F+g+0+b+b+b+b+b+b+b+c+c+c+c+c+c+c+c+d+d+d+g+g+g+g+g+g+g+g+g+g+g+j+`..             ",
"          . r F+0+6+8+8+8+8+8+8+8+8+8+8+8+8+8+8+8+8+0+8+8+b+b+b+b+b+b+b+b+b+l+g+++.             ",
"          . l F+0+B.} 1 1 1 1 6 6 1 1 1 1 1 1 1 1 1 1 1 1 1 1 1 1 1 1 1 1 Y u+g+++.             ",
"          . l F+0+4.e ` ` *.B < ) 4 Z ` ` #.#.#.#.#.#.#.#.#.#.#.#.#.#.#.` p u+g+++.             ",
"          . l F+c+4.q {.[.( % | m / . F {.{.{.{.{.{.{.{.{.{.{.{.{.{.{.{.{.p u+g+++.             ",
"          . l F+c+4.L a.s > s.:+f+#+P . <.a.7.7.7.7.7.7.7.7.7.7.7.7.7.7.a.p u+g+++.             ",
"          . l F+c+4.S u.$ V f+E+F+A+'+_ c n.n.n.n.n.n.n.n.n.n.n.n.n.n.n.n.v u+g+++.             ",
"          . l F+d+4.$.v.. C.A+F+F+E+i+m ~ E.A.A.A.A.A.A.A.A.i.A.A.A.A.A.A.v u+g+++.             ",
"          . l F+d+2.!.N.. d.v+F+F+E+5+a } N.I.I.I.I.I.I.I.I.].>.I.I.I.I.N.v u+g+++.             ",
"          . l F+d+2._.Y.! 0 [+x+C+o+Q., ).U.R.R.R.R.R.R.U.>.r.O 3.U.R.R.U.D u+g+++.             ",
"          . r D+g+9.0.Z.O.. i C.#+5.^ ' @+Y.Z.Z.Z.Z.Z.Z.H.N L.R O L.Z.Z.Z.D u+g+++.             ",
"          . r B+g+8.l.*+*+L.= & ; . 7 *+*+*+*+*+*+*+*+.+U O X.O R m.*+*+>+D w+g+++.             ",
"          . r B+g+8.x.{+~+~+^+$+K.!+]+~+~+~+~+~+~+~+{+f.R O $+O R :.{+~+{+M u+g+++.             ",
"          . r B+g+8.D.<+(+(+(+(+<+(+(+(+(+(+(+(+(+(+ +O R R (+O O P.<+(+}+M w+g+++.             ",
"          . r B+g+8.k.&+&+&+&+&+&+&+&+&+&+&+&+&+&+;+,.@.@.,.w.O 3.,+&+&+,+W w+g+++.             ",
"          . r B+j+8.|.V.T.T.T.T.T.T.T.V.V.V.V.V.V.p.^.^.^.^.T @.^.M.V.V.V.W w+g+++.             ",
"          . r B+j+2.=.G.E.E.E.E.E.E.E.E.E.E.E.E.E.A.e././././.=./.y.G.G.G.M y+c+%+.             ",
"          . r B+j+2.X q.q.q.q.q.q.q.q.q.q.q.q.q.q.q.q.c.&.X X h.X X (.q.t.Q z+c+%+.             ",
"          . r B+j+8.C }.}.}.}.}.}.}.}.}.}.}.}.}.}.}.}.}.}.;.L L -.C C ;.7.K z+c+%+.             ",
"          . u B+j+8.g ............%.%.%.%.%.%.%.%.........%.%.E E E g  .%.M z+b+%+.             ",
"          . u z+j+:.5 A A A A A A A A A A A A A H H H H H H H H J q w H A t z+b+%+.             ",
"          . u z+g+W.j j j j j j j j j j j j j o k k o o o o o o o o o o j z.z+b+%+.             ",
"          . u z+k+s+u+u+u+u+u+z+w+u+u+y+z+u+w+y+z+B+z+w+w+y+B+y+y+y+y+y+z+y+s+b+%+.             ",
"          . u z+k+k+k+k+l+l+c+n )+n+l+J.n q+q+F.9 ] I u+q+2+2 k+q+q+q+q+q+q+r+0+%+.             ",
"          . u y+k+k+k+l+l+n+=+. S.s+S.. J.t+I { g+t+l+n+u+- ] w+q+q+r+q+q+s+s+0+%+.             ",
"          . u z+k+l+l+l+n+m+t+: 2 _+* _+q+u+. S.m+|+7+r+n+@ z.t+q+r+q+s+r+r+t+0+%+.             ",
"          . u z+l+l+n+n+m+m+n+7+. { g+n+s+W.. y U ~.~.u+w+. |+s+q+q+s+r+t+t+t+0+-+.             ",
"          . b z+m+n+m+m+m+m+t+b.f @ 4+r+q+|+- z+u+t+u+q+9+. r+r+s+r+r+t+s+s+t+8+`..             ",
"            . 8+n+m+m+m+m+q+1.~.w+)+- 2+s+|+9 u+q+q+q+s+4+. w+t+t+t+t+t+t+t+l+1+R .             ",
"            . 3 1+s+q+q+r+g+F.z+t+u+u+j+t+c+1.q+n+j+j+j+g+_+b+0+8+6+6+3+1+1+1+/+.               ",
"              . . [ l h h h z G R +.'.6.g.g.o.g.g.g.g.g.g.o.j.j.j.j.j.j.o.o.b .                 ",
"                  # # # # # . . . # . . . . . . . . . . . . . . . . . . . .                     ",
"                                                                                                ",
"                                                                                                ",
"                                                                                                ",
"                                                                                                ",
"                                                                                                ",
"                                                                                                "};
