/* XPM */
static char * xfp_xpm[] = {
"48 48 256 2",
"  	c None",
". 	c #000100",
"+ 	c #070000",
"@ 	c #000306",
"# 	c #030602",
"$ 	c #02080C",
"% 	c #090800",
"& 	c #070905",
"* 	c #0E0806",
"= 	c #0E100D",
"- 	c #101118",
"; 	c #14130A",
"> 	c #171312",
", 	c #151614",
"' 	c #1B1D1A",
") 	c #1F1D12",
"! 	c #151F29",
"~ 	c #1E1F1D",
"{ 	c #201F19",
"] 	c #212320",
"^ 	c #232413",
"/ 	c #242226",
"( 	c #272826",
"_ 	c #242B19",
": 	c #292B1A",
"< 	c #2E2B20",
"[ 	c #2B2C2A",
"} 	c #2D2C26",
"| 	c #313029",
"1 	c #2F312E",
"2 	c #323033",
"3 	c #2D3421",
"4 	c #303327",
"5 	c #343523",
"6 	c #313537",
"7 	c #333A27",
"8 	c #383A38",
"9 	c #313C47",
"0 	c #3B3C2A",
"a 	c #3E3D36",
"b 	c #3E403D",
"c 	c #3E4134",
"d 	c #40412F",
"e 	c #3A4550",
"f 	c #434930",
"g 	c #484740",
"h 	c #484937",
"i 	c #474A3D",
"j 	c #3F4D5D",
"k 	c #504D40",
"l 	c #4D4F4C",
"m 	c #504F48",
"n 	c #47515D",
"o 	c #4E5244",
"p 	c #515340",
"q 	c #54533B",
"r 	c #515844",
"s 	c #545653",
"t 	c #58573F",
"u 	c #58574F",
"v 	c #5A5B48",
"w 	c #5D5A4D",
"x 	c #595C4E",
"y 	c #495F6F",
"z 	c #5E5F4C",
"A 	c #5E5E56",
"B 	c #5D5F5C",
"C 	c #5D6349",
"D 	c #63624A",
"E 	c #606455",
"F 	c #64645C",
"G 	c #656653",
"H 	c #616853",
"I 	c #696659",
"J 	c #6C6D59",
"K 	c #6A6D5F",
"L 	c #676F59",
"M 	c #557085",
"N 	c #706F56",
"O 	c #5E7087",
"P 	c #70715D",
"Q 	c #716F73",
"R 	c #6E7359",
"S 	c #72726A",
"T 	c #6F7661",
"U 	c #71775C",
"V 	c #747757",
"W 	c #747661",
"X 	c #77765C",
"Y 	c #787567",
"Z 	c #747673",
"` 	c #727A64",
" .	c #747A5F",
"..	c #787965",
"+.	c #7C7B61",
"@.	c #7A7B67",
"#.	c #757D67",
"$.	c #7C7B73",
"%.	c #7A7D6E",
"&.	c #7C7D69",
"*.	c #7F7C6E",
"=.	c #797F64",
"-.	c #7C7F5E",
";.	c #718092",
">.	c #7F806B",
",.	c #7E8368",
"'.	c #848369",
").	c #82836F",
"!.	c #7E8385",
"~.	c #83837A",
"{.	c #86856B",
"].	c #82886C",
"^.	c #73899A",
"/.	c #878873",
"(.	c #858B6F",
"_.	c #8B8A6F",
":.	c #8E8D73",
"<.	c #8A8F73",
"[.	c #828E9B",
"}.	c #8E9270",
"|.	c #8D9181",
"1.	c #929177",
"2.	c #909087",
"3.	c #8E908D",
"4.	c #8E9377",
"5.	c #96957B",
"6.	c #979486",
"7.	c #8F968C",
"8.	c #92977B",
"9.	c #959876",
"0.	c #959A7E",
"a.	c #999890",
"b.	c #9A9B86",
"c.	c #989D81",
"d.	c #9B9E7C",
"e.	c #9D9C94",
"f.	c #8F9FB1",
"g.	c #9BA084",
"h.	c #83A3BF",
"i.	c #9D9F9C",
"j.	c #8BA2C0",
"k.	c #87A3C6",
"l.	c #9EA387",
"m.	c #90A3BB",
"n.	c #9FA393",
"o.	c #A2A299",
"p.	c #83A7C9",
"q.	c #95A5AB",
"r.	c #93A6BF",
"s.	c #A8A496",
"t.	c #90A7C5",
"u.	c #85AACB",
"v.	c #A5A886",
"w.	c #A1A6A9",
"x.	c #8EAACD",
"y.	c #A4AA8D",
"z.	c #97AAC3",
"A.	c #A6AA9A",
"B.	c #ABAA8F",
"C.	c #AAAB96",
"D.	c #95ADCB",
"E.	c #ACAF8C",
"F.	c #AFAE92",
"G.	c #ABADAA",
"H.	c #AAB093",
"I.	c #ABAF9F",
"J.	c #AEAF99",
"K.	c #A0B0C3",
"L.	c #9DB1C9",
"M.	c #9CB4D2",
"N.	c #B7B3A5",
"O.	c #A5B5C8",
"P.	c #B3B5B2",
"Q.	c #B3B7A7",
"R.	c #B7B7AE",
"S.	c #A5B9D1",
"T.	c #A7BAC6",
"U.	c #A3BAD9",
"V.	c #AABACD",
"W.	c #B9BC99",
"X.	c #A7BFDD",
"Y.	c #AFBED2",
"Z.	c #C1BDAF",
"`.	c #ACC0D9",
" +	c #B3C2D6",
".+	c #BFC3B2",
"++	c #B7C3D1",
"@+	c #C1C3BF",
"#+	c #B3C7E0",
"$+	c #C4C7B7",
"%+	c #BACADD",
"&+	c #BECAD8",
"*+	c #C8CCBC",
"=+	c #CDCCC3",
"-+	c #D0CBC9",
";+	c #C1D0E4",
">+	c #C5D1DF",
",+	c #CED2C1",
"'+	c #D4D3CA",
")+	c #D2D6C5",
"!+	c #D8D5C6",
"~+	c #CED7DF",
"{+	c #CAD9ED",
"]+	c #D7DACA",
"^+	c #DDDACB",
"/+	c #D1DDEB",
"(+	c #DADECD",
"_+	c #DBDDDA",
":+	c #DEDDD4",
"<+	c #D9DEE1",
"[+	c #DCE0CF",
"}+	c #DEE0DD",
"|+	c #D8E1E9",
"1+	c #E4E0D1",
"2+	c #DEE2D1",
"3+	c #E5E1D2",
"4+	c #E5E0DE",
"5+	c #DFE3D2",
"6+	c #E4E3DA",
"7+	c #E2E5D5",
"8+	c #D9E5F3",
"9+	c #D6E6FA",
"0+	c #E5E6D0",
"a+	c #E3E7D6",
"b+	c #DEE6EF",
"c+	c #E4E8D7",
"d+	c #EAE9E0",
"e+	c #E7EBDA",
"f+	c #E9EBE7",
"g+	c #E6ECEE",
"h+	c #E4ECF5",
"i+	c #EDEED7",
"j+	c #E2EEFC",
"k+	c #F1EDDE",
"l+	c #EBEFDE",
"m+	c #F4EEED",
"n+	c #EEF2E1",
"o+	c #E9F1FA",
"p+	c #E6F2FF",
"q+	c #F2F3DC",
"r+	c #F1F5E4",
"s+	c #F5F4EB",
"t+	c #EFF5F7",
"u+	c #F3F5F2",
"v+	c #F3F7E6",
"w+	c #F7F4F9",
"x+	c #EFF8FF",
"y+	c #FBF7E8",
"z+	c #F7FBEA",
"A+	c #F9FBF8",
"B+	c #FCFDE6",
"C+	c #F7FCFF",
"D+	c #FFFEEF",
"E+	c #FCFFEE",
"F+	c #FFFEF5",
"G+	c #FEFFFC",
"                                                                                                ",
"                                                                                                ",
"                                                                                                ",
"                                                            . .                                 ",
"                                                        . . { & .                               ",
"                                                    . . ~ W 4.(.# .                             ",
"                                      . . . . . . . , $.<.].(.4.>.. .                           ",
"                                  . . . & & ~ ] l n.b.>.>.,.'._.8.=.. .                         ",
"                            . . . * 2.G+G+G+G+n+Q.` ..@.&.&.,.].<.c.T . .                       ",
"                        . . . s =+G+G+G+G+d+.+W J P W ..@.=.>.{.<.8.g.G . .                     ",
"                    . . @ i.D+G+G+G+G+6+'+%.z G J P W ` #.>.,.]._.4.c.y.x .                     ",
"              . . . s '+G+G+G+G+G+6+_+7.r z G J P T ` @.>.,.'.{._.<.0.l.H.i .                   ",
"          . . . G.G+G+G+F+F+G+6+_+R.p r z G J P T ..&.&.,.'.{._.<.4.0.l.H.W.| .                 ",
"      . . b f+G+G+G+G+G+G+G+:+w+z h r z H J P T ..@.>.).{.{.(.<.1.8.c.l.H.<.+.. .               ",
"    . G.G+G+G+G+G+G+G+G+G+G+G+G+|.p z H J P W ..&.,.'./.(.<.<.1.0.c.g.).G &.<.& .               ",
"  . c+G+[+e.a.P.@+@+-+<+t+w+~.4 A+n.z G J W ..&.,.{.(.<.4.4.0.c.g./.E J W ,.<.. .               ",
"  . Z.D+E+E+e+A.h _ _ _ 3 3 7 0 p A+n.G P W &.,.].(.<.}.}.9.d.1.J L N P ` ,.4.. .               ",
"  . s.E+n+c+a+l+y+e+I.z q q t r v G s+n.J  .=.,.=.5 . . . . . % d R X  .=.].8.. .               ",
"  . 2.B+l+a+5+7+a+e+r+E+k+N.#.U U U =.s+C. .=.5 . $ ^.Y.#+`.r.e . . C =.,._.c.. .               ",
"  . ~.E+l+a+2+2+5+7+a+c+l+y+D+l+Q.<.}.9.n+F.& . T.9+{+;+%+#+`.X.U.9 . q ].4.l.. .               ",
"    S E+l+a+[+(+[+2+5+5+7+a+c+e+v+E+l+Q.d.k . p+j+/+;+%+ +Y.S.S.M.M.O . R 9.y.. .               ",
"    F E+l+a+[+(+(+(+(+[+[+2+5+5+a+e+n+E+$+. o+x+8+>+%+ +V.V.O.L.D.D.x.j # 9.y.. .               ",
"    u E+n+a+[+(+(+(+(+(+(+(+(+[+5+c+l+q+. q.G+o+|+>+++Y.V.O.K.z.z.t.t.x.. D H.. .               ",
"    8 F+n+a+[+(+(+(+(+(+(+(+(+(+5+a+i+.+. G+C+h+~+&+++Y.V.O.K.z.r.m.j.k.M ; B.. .               ",
"    = F+r+a+[+(+(+(+(+(+(+(+(+[+5+c+l+w 6 G+C+b+~+&+++Y.V.O.K.z.r.m.j.k.p.. y..                 ",
"    . G+v+c+2+(+(+(+(+(+(+(+(+[+5+c+i+} !.G+x+b+~+&+++Y.V.O.K.z.r.m.j.k.x.. :..                 ",
"    . F+z+e+7+2+[+[+(+(+(+(+(+[+7+e+i+; w.G+x+b+~+&+++Y.V.O.K.z.r.m.j.k.x.. )..                 ",
"    . E+E+n+c+a+7+5+2+2+[+[+[+2+5+a+e+| !.G+x+b+~+&+++Y.V.O.K.z.r.m.j.k.u.. 5..                 ",
"    . n+D+$+n+l+e+a+a+7+5+2+[+(+[+7+c+I / G+C+b+~+&+++Y.V.O.K.z.r.m.j.k.h.. F..                 ",
"    . a+o.. ,+r+n+l+e+c+a+5+2+(+(+5+a+$+. G+C+h+~+&+++Y.V.O.K.z.r.m.j.k.y ^ J..                 ",
"    . (+,+. E+Q.. a n+l+e+a+5+[+(+5+7+0+{ !.G+o+/+>+++Y.V.O.K.z.z.t.t.u.. t J..                 ",
"    . ,+B+. ' ( $.1+Q.8 8 |.2+7+5+5+7+0+.+. |+x+8+>+%+ +Y.V.L.L.L.D.x.! * > K .                 ",
"    . 8 g , 2.B+z+a+. A *+A o.[+A.7+a+a+a+*.. /+j+/+;+%+ +`.S.S.M.M.9 + G+G+~ .                 ",
"    . n.G+(+~ z+v+~ . g ~.3+l+]+. * $+a+5+i+Y . [.9+{+;+%+#+`.X.M.- . 4+G+G+G+~                 ",
"    . 2.G+F+Z.q+n+. (+e+2.S l+m . e.. ,+[+c+z+f . . n f.K.r.;.- . : + i.m+A+G+G+1               ",
"      . $.e+F+E+*+S n+l+e+e+I.. $+l+] m (+7+v+V -.t ) . . . ; q d.}.< . 3.g+u+G+G+b .           ",
"        . . [ n.B+B+v+n+l+7+. a F u . F ]+^+v+U ,.(.}.9.d.v.E.v.c . .   . !.f+u+G+G+l .         ",
"            . . . A ,+z+v+(+[ l+c+[+,+]+,+!+v+ .,.<.0.g.v.E.G . . .       . Q f+u+G+G+B .       ",
"                  . . ~ 6.n+v+n+e+5+(+)+,+,+n+=.(.8.g.y.,.= . .             . B f+u+G+G+Z .     ",
"                      . . . s $+n+e+5+]+)+)+r+].}.g.0.| . .                   . l f+w+G+G+3.&   ",
"                            . . , ~.(+7+2+7+G+9.d.o . . .                       . 8 f+G+G+u+.   ",
"                                . . . g Q.F+^+@.# . .                             . 2 u+}+&     ",
"                                      . . ' { . .                                     ' &       ",
"                                          . .                                                   ",
"                                                                                                ",
"                                                                                                ",
"                                                                                                ",
"                                                                                                "};
