<?xml version="1.0" encoding="UTF-8" standalone="no"?>
<!-- Generator: Adobe Illustrator 9.0, SVG Export Plug-In  -->
<svg
   xmlns:dc="http://purl.org/dc/elements/1.1/"
   xmlns:cc="http://web.resource.org/cc/"
   xmlns:rdf="http://www.w3.org/1999/02/22-rdf-syntax-ns#"
   xmlns:svg="http://www.w3.org/2000/svg"
   xmlns="http://www.w3.org/2000/svg"
   xmlns:xlink="http://www.w3.org/1999/xlink"
   xmlns:sodipodi="http://sodipodi.sourceforge.net/DTD/sodipodi-0.dtd"
   xmlns:inkscape="http://www.inkscape.org/namespaces/inkscape"
   width="48"
   height="48"
   viewBox="0 0 52 48"
   xml:space="preserve"
   id="svg2183"
   sodipodi:version="0.32"
   inkscape:version="0.44.1"
   sodipodi:docname="xfp.svg"
   sodipodi:docbase="/home/test/xfe"
   inkscape:export-filename="/home/test/xfq.png"
   inkscape:export-xdpi="72"
   inkscape:export-ydpi="72"
   version="1.0"><metadata
   id="metadata2271"><rdf:RDF><cc:Work
       rdf:about=""><dc:format>image/svg+xml</dc:format><dc:type
         rdf:resource="http://purl.org/dc/dcmitype/StillImage" /></cc:Work></rdf:RDF></metadata><defs
   id="defs2269"><radialGradient
   id="radialGradient189"
   cx="218.9404"
   cy="219.7715"
   r="150.7063"
   fx="218.9404"
   fy="219.7715"
   gradientUnits="userSpaceOnUse"
   style="stroke:#000000;stroke-opacity:0.986014;stroke-width:0.981612;"><stop
     offset="0.000000"
     style="stop-color:#3e9ea6;stop-opacity:1;"
     id="stop190" /><stop
     offset="1.000000"
     style="stop-color:#c7edf7;stop-opacity:1;"
     id="stop191" /></radialGradient><linearGradient
   id="linearGradient843"><stop
     style="stop-color:white;stop-opacity:1;"
     offset="0"
     id="stop844" /><stop
     id="stop6325"
     offset="1"
     style="stop-color:#adaead;stop-opacity:1;" /><stop
     style="stop-color:#5c5d5c;stop-opacity:1;"
     offset="1"
     id="stop6331" /></linearGradient><linearGradient
   id="linearGradient832"><stop
     style="stop-color:#ffffff;stop-opacity:1.0000000;"
     offset="0.0000000"
     id="stop833" /><stop
     style="stop-color:#bac7d6;stop-opacity:1.0000000;"
     offset="0.33189783"
     id="stop850" /><stop
     style="stop-color:#7590ae;stop-opacity:1.0000000;"
     offset="1.0000000"
     id="stop834" /></linearGradient><linearGradient
   xlink:href="#linearGradient832"
   id="linearGradient839"
   x1="11.505464"
   y1="48.553692"
   x2="13.573926"
   y2="50.744305"
   spreadMethod="reflect"
   gradientTransform="matrix(-1.024955,0,0,0.975653,60.00915,0)"
   gradientUnits="userSpaceOnUse" /><linearGradient
   id="linearGradient842"><stop
     style="stop-color:#ffffff;stop-opacity:1.0000000;"
     offset="0.0000000"
     id="stop843" /><stop
     style="stop-color:#585858;stop-opacity:0.0000000;"
     offset="1.0000000"
     id="stop845" /></linearGradient><radialGradient
   xlink:href="#linearGradient842"
   id="radialGradient841"
   cx="34.320042"
   cy="15.739014"
   r="13.458489"
   fx="34.320042"
   fy="15.504011"
   spreadMethod="pad"
   gradientTransform="matrix(-0.998525,0,0,1.001478,60.00915,0)"
   gradientUnits="userSpaceOnUse" />
		
		
		<linearGradient
   y2="12.4975"
   x2="21.814899"
   y1="19.791"
   x1="21.814899"
   gradientUnits="userSpaceOnUse"
   id="aigrd1">
			<stop
   id="stop2191"
   style="stop-color:#989C80"
   offset="0" />
			<stop
   id="stop2193"
   style="stop-color:#000000"
   offset="1" />
		</linearGradient>
		
		<linearGradient
   y2="41.396801"
   x2="19.254801"
   y1="28.6201"
   x1="14.271"
   gradientUnits="userSpaceOnUse"
   id="aigrd2">
			<stop
   id="stop2198"
   style="stop-color:#DEDFCE"
   offset="0" />
			<stop
   id="stop2200"
   style="stop-color:#C2C4B5"
   offset="1" />
		</linearGradient>
		
		<linearGradient
   y2="11.1823"
   x2="14.9041"
   y1="37.626999"
   x1="41.348598"
   gradientUnits="userSpaceOnUse"
   id="aigrd3">
			<stop
   id="stop2205"
   style="stop-color:#989C80"
   offset="0" />
			<stop
   id="stop2207"
   style="stop-color:#91957A"
   offset="0.1523" />
			<stop
   id="stop2209"
   style="stop-color:#7D8169"
   offset="0.3784" />
			<stop
   id="stop2211"
   style="stop-color:#5D604E"
   offset="0.6506" />
			<stop
   id="stop2213"
   style="stop-color:#313229"
   offset="0.9562" />
			<stop
   id="stop2215"
   style="stop-color:#2A2B23"
   offset="1" />
		</linearGradient>
		
		<linearGradient
   y2="14.5714"
   x2="17.9305"
   y1="12.0313"
   x1="17.2153"
   gradientUnits="userSpaceOnUse"
   id="aigrd4">
			<stop
   id="stop2220"
   style="stop-color:#EFEFE0"
   offset="0" />
			<stop
   id="stop2222"
   style="stop-color:#FFFFFF"
   offset="1" />
		</linearGradient>
		
		<linearGradient
   y2="12.6152"
   x2="38.482899"
   y1="13.7388"
   x1="39.6064"
   gradientUnits="userSpaceOnUse"
   id="aigrd5">
			<stop
   id="stop2227"
   style="stop-color:#989C80"
   offset="0" />
			<stop
   id="stop2229"
   style="stop-color:#000000"
   offset="1" />
		</linearGradient>
		
		<linearGradient
   y2="-9.9314003"
   x2="2.1250999"
   y1="18.679199"
   x1="33.547901"
   gradientUnits="userSpaceOnUse"
   id="aigrd6">
			<stop
   id="stop2234"
   style="stop-color:#989C80"
   offset="0" />
			<stop
   id="stop2236"
   style="stop-color:#000000"
   offset="1" />
		</linearGradient>
		
		<linearGradient
   y2="8.4816999"
   x2="22.3922"
   y1="16.075701"
   x1="29.2852"
   gradientUnits="userSpaceOnUse"
   id="aigrd7">
			<stop
   id="stop2241"
   style="stop-color:#F2F2E1"
   offset="0" />
			<stop
   id="stop2243"
   style="stop-color:#FFFFFF"
   offset="1" />
		</linearGradient>
		
		<linearGradient
   y2="23.115999"
   x2="24.393299"
   y1="18.5991"
   x1="33.619099"
   gradientUnits="userSpaceOnUse"
   id="aigrd8">
			<stop
   id="stop2248"
   style="stop-color:#919186"
   offset="0" />
			<stop
   id="stop2250"
   style="stop-color:#F3F4E4"
   offset="1" />
		</linearGradient>
		
		
		
		<linearGradient
   y2="41.0667"
   x2="23.0389"
   y1="42.209"
   x1="23.730499"
   gradientUnits="userSpaceOnUse"
   id="aigrd9">
			<stop
   id="stop2259"
   style="stop-color:#63635C"
   offset="0" />
			<stop
   id="stop2261"
   style="stop-color:#F3F4E4"
   offset="1" />
		</linearGradient>
		
	<linearGradient
   inkscape:collect="always"
   xlink:href="#aigrd9"
   id="linearGradient9210"
   gradientUnits="userSpaceOnUse"
   x1="23.730499"
   y1="42.209"
   x2="23.0389"
   y2="41.0667" /><linearGradient
   inkscape:collect="always"
   xlink:href="#aigrd8"
   id="linearGradient9215"
   gradientUnits="userSpaceOnUse"
   x1="33.619099"
   y1="18.5991"
   x2="24.393299"
   y2="23.115999" /><linearGradient
   inkscape:collect="always"
   xlink:href="#aigrd7"
   id="linearGradient9218"
   gradientUnits="userSpaceOnUse"
   x1="29.2852"
   y1="16.075701"
   x2="22.3922"
   y2="8.4816999" /><linearGradient
   inkscape:collect="always"
   xlink:href="#aigrd6"
   id="linearGradient9221"
   gradientUnits="userSpaceOnUse"
   x1="33.547901"
   y1="18.679199"
   x2="2.1250999"
   y2="-9.9314003" /><linearGradient
   inkscape:collect="always"
   xlink:href="#aigrd5"
   id="linearGradient9224"
   gradientUnits="userSpaceOnUse"
   x1="39.6064"
   y1="13.7388"
   x2="38.482899"
   y2="12.6152" /><linearGradient
   inkscape:collect="always"
   xlink:href="#aigrd4"
   id="linearGradient9227"
   gradientUnits="userSpaceOnUse"
   x1="17.2153"
   y1="12.0313"
   x2="17.9305"
   y2="14.5714" /><linearGradient
   inkscape:collect="always"
   xlink:href="#aigrd3"
   id="linearGradient9230"
   gradientUnits="userSpaceOnUse"
   x1="41.348598"
   y1="37.626999"
   x2="14.9041"
   y2="11.1823" /><linearGradient
   inkscape:collect="always"
   xlink:href="#aigrd2"
   id="linearGradient9233"
   gradientUnits="userSpaceOnUse"
   x1="14.271"
   y1="28.6201"
   x2="19.254801"
   y2="41.396801" /><linearGradient
   inkscape:collect="always"
   xlink:href="#aigrd1"
   id="linearGradient9236"
   gradientUnits="userSpaceOnUse"
   x1="21.814899"
   y1="19.791"
   x2="21.814899"
   y2="12.4975" /><radialGradient
   inkscape:collect="always"
   xlink:href="#linearGradient843"
   id="radialGradient9243"
   gradientUnits="userSpaceOnUse"
   cx="53.184635"
   cy="54.527164"
   fx="52.710709"
   fy="54.527157"
   r="82.948898" /><linearGradient
   inkscape:collect="always"
   xlink:href="#linearGradient832"
   id="linearGradient9249"
   gradientUnits="userSpaceOnUse"
   gradientTransform="matrix(-0.484868,0,0,0.461545,44.58824,13.50091)"
   spreadMethod="reflect"
   x1="11.505464"
   y1="48.553692"
   x2="13.573926"
   y2="50.744305" /><linearGradient
   inkscape:collect="always"
   xlink:href="#linearGradient832"
   id="linearGradient11954"
   gradientUnits="userSpaceOnUse"
   gradientTransform="matrix(-0.504995,0,0,0.480704,46.33275,13.90517)"
   spreadMethod="reflect"
   x1="11.505464"
   y1="48.553692"
   x2="13.573926"
   y2="50.744305" /><linearGradient
   inkscape:collect="always"
   xlink:href="#aigrd9"
   id="linearGradient11958"
   gradientUnits="userSpaceOnUse"
   x1="23.730499"
   y1="42.209"
   x2="23.0389"
   y2="41.0667"
   gradientTransform="matrix(1.04151,0,0,1.04151,-0.106346,-0.156158)" /><linearGradient
   inkscape:collect="always"
   xlink:href="#aigrd8"
   id="linearGradient11963"
   gradientUnits="userSpaceOnUse"
   x1="33.619099"
   y1="18.5991"
   x2="24.393299"
   y2="23.115999"
   gradientTransform="matrix(1.04151,0,0,1.04151,-0.106346,-0.156158)" /><linearGradient
   inkscape:collect="always"
   xlink:href="#aigrd7"
   id="linearGradient11966"
   gradientUnits="userSpaceOnUse"
   x1="29.2852"
   y1="16.075701"
   x2="22.3922"
   y2="8.4816999"
   gradientTransform="matrix(1.04151,0,0,1.04151,-0.106346,-0.156158)" /><linearGradient
   inkscape:collect="always"
   xlink:href="#aigrd6"
   id="linearGradient11969"
   gradientUnits="userSpaceOnUse"
   x1="33.547901"
   y1="18.679199"
   x2="2.1250999"
   y2="-9.9314003"
   gradientTransform="matrix(1.04151,0,0,1.04151,-0.106346,-0.156158)" /><linearGradient
   inkscape:collect="always"
   xlink:href="#aigrd5"
   id="linearGradient11972"
   gradientUnits="userSpaceOnUse"
   x1="39.6064"
   y1="13.7388"
   x2="38.482899"
   y2="12.6152"
   gradientTransform="matrix(1.04151,0,0,1.04151,-0.106346,-0.156158)" /><linearGradient
   inkscape:collect="always"
   xlink:href="#aigrd4"
   id="linearGradient11975"
   gradientUnits="userSpaceOnUse"
   x1="17.2153"
   y1="12.0313"
   x2="17.9305"
   y2="14.5714"
   gradientTransform="matrix(1.04151,0,0,1.04151,-0.106346,-0.156158)" /><linearGradient
   inkscape:collect="always"
   xlink:href="#aigrd3"
   id="linearGradient11978"
   gradientUnits="userSpaceOnUse"
   x1="41.348598"
   y1="37.626999"
   x2="14.9041"
   y2="11.1823"
   gradientTransform="matrix(1.04151,0,0,1.04151,-0.106346,-0.156158)" /><linearGradient
   inkscape:collect="always"
   xlink:href="#aigrd2"
   id="linearGradient11981"
   gradientUnits="userSpaceOnUse"
   x1="14.271"
   y1="28.6201"
   x2="19.254801"
   y2="41.396801"
   gradientTransform="matrix(1.04151,0,0,1.04151,-0.106346,-0.156158)" /><linearGradient
   inkscape:collect="always"
   xlink:href="#aigrd1"
   id="linearGradient11984"
   gradientUnits="userSpaceOnUse"
   x1="21.814899"
   y1="19.791"
   x2="21.814899"
   y2="12.4975"
   gradientTransform="matrix(1.04151,0,0,1.04151,-0.106346,-0.156158)" /><linearGradient
   inkscape:collect="always"
   xlink:href="#aigrd1"
   id="linearGradient12892"
   gradientUnits="userSpaceOnUse"
   gradientTransform="matrix(1.04151,0,0,1.04151,-0.106346,-0.156158)"
   x1="21.814899"
   y1="19.791"
   x2="21.814899"
   y2="12.4975" /><linearGradient
   inkscape:collect="always"
   xlink:href="#aigrd2"
   id="linearGradient12894"
   gradientUnits="userSpaceOnUse"
   gradientTransform="matrix(1.04151,0,0,1.04151,-0.106346,-0.156158)"
   x1="14.271"
   y1="28.6201"
   x2="19.254801"
   y2="41.396801" /><linearGradient
   inkscape:collect="always"
   xlink:href="#aigrd3"
   id="linearGradient12896"
   gradientUnits="userSpaceOnUse"
   gradientTransform="matrix(1.04151,0,0,1.04151,-0.106346,-0.156158)"
   x1="41.348598"
   y1="37.626999"
   x2="14.9041"
   y2="11.1823" /><linearGradient
   inkscape:collect="always"
   xlink:href="#aigrd4"
   id="linearGradient12898"
   gradientUnits="userSpaceOnUse"
   gradientTransform="matrix(1.04151,0,0,1.04151,-0.106346,-0.156158)"
   x1="17.2153"
   y1="12.0313"
   x2="17.9305"
   y2="14.5714" /><linearGradient
   inkscape:collect="always"
   xlink:href="#aigrd5"
   id="linearGradient12900"
   gradientUnits="userSpaceOnUse"
   gradientTransform="matrix(1.04151,0,0,1.04151,-0.106346,-0.156158)"
   x1="39.6064"
   y1="13.7388"
   x2="38.482899"
   y2="12.6152" /><linearGradient
   inkscape:collect="always"
   xlink:href="#aigrd6"
   id="linearGradient12902"
   gradientUnits="userSpaceOnUse"
   gradientTransform="matrix(1.04151,0,0,1.04151,-0.106346,-0.156158)"
   x1="33.547901"
   y1="18.679199"
   x2="2.1250999"
   y2="-9.9314003" /><linearGradient
   inkscape:collect="always"
   xlink:href="#aigrd7"
   id="linearGradient12904"
   gradientUnits="userSpaceOnUse"
   gradientTransform="matrix(1.04151,0,0,1.04151,-0.106346,-0.156158)"
   x1="29.2852"
   y1="16.075701"
   x2="22.3922"
   y2="8.4816999" /><linearGradient
   inkscape:collect="always"
   xlink:href="#aigrd8"
   id="linearGradient12906"
   gradientUnits="userSpaceOnUse"
   gradientTransform="matrix(1.04151,0,0,1.04151,-0.106346,-0.156158)"
   x1="33.619099"
   y1="18.5991"
   x2="24.393299"
   y2="23.115999" /><linearGradient
   inkscape:collect="always"
   xlink:href="#aigrd9"
   id="linearGradient12908"
   gradientUnits="userSpaceOnUse"
   gradientTransform="matrix(1.04151,0,0,1.04151,-0.106346,-0.156158)"
   x1="23.730499"
   y1="42.209"
   x2="23.0389"
   y2="41.0667" /><linearGradient
   inkscape:collect="always"
   xlink:href="#linearGradient832"
   id="linearGradient12910"
   gradientUnits="userSpaceOnUse"
   gradientTransform="matrix(-0.504995,0,0,0.480704,46.33275,13.90517)"
   spreadMethod="reflect"
   x1="11.505464"
   y1="48.553692"
   x2="13.573926"
   y2="50.744305" />
<linearGradient
   inkscape:collect="always"
   xlink:href="#aigrd1"
   id="linearGradient21744"
   gradientUnits="userSpaceOnUse"
   gradientTransform="matrix(1.028738,0,0,1.028738,-7.36243e-2,-0.108109)"
   x1="21.814899"
   y1="19.791"
   x2="21.814899"
   y2="12.4975" /><linearGradient
   inkscape:collect="always"
   xlink:href="#aigrd2"
   id="linearGradient21746"
   gradientUnits="userSpaceOnUse"
   gradientTransform="matrix(1.028738,0,0,1.028738,-7.36243e-2,-0.108109)"
   x1="14.271"
   y1="28.6201"
   x2="19.254801"
   y2="41.396801" /><linearGradient
   inkscape:collect="always"
   xlink:href="#aigrd3"
   id="linearGradient21748"
   gradientUnits="userSpaceOnUse"
   gradientTransform="matrix(1.028738,0,0,1.028738,-7.36243e-2,-0.108109)"
   x1="41.348598"
   y1="37.626999"
   x2="14.9041"
   y2="11.1823" /><linearGradient
   inkscape:collect="always"
   xlink:href="#aigrd4"
   id="linearGradient21750"
   gradientUnits="userSpaceOnUse"
   gradientTransform="matrix(1.028738,0,0,1.028738,-7.36243e-2,-0.108109)"
   x1="17.2153"
   y1="12.0313"
   x2="17.9305"
   y2="14.5714" /><linearGradient
   inkscape:collect="always"
   xlink:href="#aigrd5"
   id="linearGradient21752"
   gradientUnits="userSpaceOnUse"
   gradientTransform="matrix(1.028738,0,0,1.028738,-7.36243e-2,-0.108109)"
   x1="39.6064"
   y1="13.7388"
   x2="38.482899"
   y2="12.6152" /><linearGradient
   inkscape:collect="always"
   xlink:href="#aigrd6"
   id="linearGradient21754"
   gradientUnits="userSpaceOnUse"
   gradientTransform="matrix(1.028738,0,0,1.028738,-7.36243e-2,-0.108109)"
   x1="33.547901"
   y1="18.679199"
   x2="2.1250999"
   y2="-9.9314003" /><linearGradient
   inkscape:collect="always"
   xlink:href="#aigrd7"
   id="linearGradient21756"
   gradientUnits="userSpaceOnUse"
   gradientTransform="matrix(1.028738,0,0,1.028738,-7.36243e-2,-0.108109)"
   x1="29.2852"
   y1="16.075701"
   x2="22.3922"
   y2="8.4816999" /><linearGradient
   inkscape:collect="always"
   xlink:href="#aigrd8"
   id="linearGradient21758"
   gradientUnits="userSpaceOnUse"
   gradientTransform="matrix(1.028738,0,0,1.028738,-7.36243e-2,-0.108109)"
   x1="33.619099"
   y1="18.5991"
   x2="24.393299"
   y2="23.115999" /><linearGradient
   inkscape:collect="always"
   xlink:href="#aigrd9"
   id="linearGradient21760"
   gradientUnits="userSpaceOnUse"
   gradientTransform="matrix(1.028738,0,0,1.028738,-7.36243e-2,-0.108109)"
   x1="23.730499"
   y1="42.209"
   x2="23.0389"
   y2="41.0667" /><radialGradient
   inkscape:collect="always"
   xlink:href="#radialGradient189"
   id="radialGradient21762"
   gradientUnits="userSpaceOnUse"
   gradientTransform="matrix(8.615935e-2,0,0,8.615963e-2,-35.76195,-37.37975)"
   spreadMethod="pad"
   cx="146.26581"
   cy="156.24411"
   fx="146.26581"
   fy="156.24411"
   r="106.33679" /><linearGradient
   inkscape:collect="always"
   xlink:href="#linearGradient843"
   id="linearGradient21764"
   gradientUnits="userSpaceOnUse"
   gradientTransform="matrix(2.420955e-2,-2.578132e-2,7.372246e-2,6.922793e-2,-35.62772,-1.89473)"
   spreadMethod="pad"
   x1="759.28833"
   y1="226.44621"
   x2="623.75806"
   y2="228.71227" /><linearGradient
   inkscape:collect="always"
   xlink:href="#linearGradient832"
   id="linearGradient21766"
   gradientUnits="userSpaceOnUse"
   gradientTransform="matrix(0.221689,0,0,0.221689,-43.43686,-41.81968)"
   x1="94.739082"
   y1="122.59224"
   x2="171.04437"
   y2="122.59224" />
<linearGradient
   inkscape:collect="always"
   xlink:href="#aigrd9"
   id="linearGradient2145"
   gradientUnits="userSpaceOnUse"
   gradientTransform="matrix(1.097752,0,0,1.097752,-1.466356,-2.556397)"
   x1="23.730499"
   y1="42.209"
   x2="23.0389"
   y2="41.0667" /><linearGradient
   inkscape:collect="always"
   xlink:href="#aigrd8"
   id="linearGradient2150"
   gradientUnits="userSpaceOnUse"
   gradientTransform="matrix(1.097752,0,0,1.097752,-1.466356,-2.556397)"
   x1="33.619099"
   y1="18.5991"
   x2="24.393299"
   y2="23.115999" /><linearGradient
   inkscape:collect="always"
   xlink:href="#aigrd7"
   id="linearGradient2153"
   gradientUnits="userSpaceOnUse"
   gradientTransform="matrix(1.097752,0,0,1.097752,-1.466356,-2.556397)"
   x1="29.2852"
   y1="16.075701"
   x2="22.3922"
   y2="8.4816999" /><linearGradient
   inkscape:collect="always"
   xlink:href="#aigrd6"
   id="linearGradient2156"
   gradientUnits="userSpaceOnUse"
   gradientTransform="matrix(1.097752,0,0,1.097752,-1.466356,-2.556397)"
   x1="33.547901"
   y1="18.679199"
   x2="2.1250999"
   y2="-9.9314003" /><linearGradient
   inkscape:collect="always"
   xlink:href="#aigrd5"
   id="linearGradient2159"
   gradientUnits="userSpaceOnUse"
   gradientTransform="matrix(1.097752,0,0,1.097752,-1.466356,-2.556397)"
   x1="39.6064"
   y1="13.7388"
   x2="38.482899"
   y2="12.6152" /><linearGradient
   inkscape:collect="always"
   xlink:href="#aigrd4"
   id="linearGradient2162"
   gradientUnits="userSpaceOnUse"
   gradientTransform="matrix(1.097752,0,0,1.097752,-1.466356,-2.556397)"
   x1="17.2153"
   y1="12.0313"
   x2="17.9305"
   y2="14.5714" /><linearGradient
   inkscape:collect="always"
   xlink:href="#aigrd3"
   id="linearGradient2165"
   gradientUnits="userSpaceOnUse"
   gradientTransform="matrix(1.097752,0,0,1.097752,-1.466356,-2.556397)"
   x1="41.348598"
   y1="37.626999"
   x2="14.9041"
   y2="11.1823" /><linearGradient
   inkscape:collect="always"
   xlink:href="#aigrd2"
   id="linearGradient2168"
   gradientUnits="userSpaceOnUse"
   gradientTransform="matrix(1.097752,0,0,1.097752,-1.466356,-2.556397)"
   x1="14.271"
   y1="28.6201"
   x2="19.254801"
   y2="41.396801" /><linearGradient
   inkscape:collect="always"
   xlink:href="#aigrd1"
   id="linearGradient2171"
   gradientUnits="userSpaceOnUse"
   gradientTransform="matrix(1.097752,0,0,1.097752,-1.466356,-2.556397)"
   x1="21.814899"
   y1="19.791"
   x2="21.814899"
   y2="12.4975" /></defs><sodipodi:namedview
   inkscape:window-height="1116"
   inkscape:window-width="1551"
   inkscape:pageshadow="2"
   inkscape:pageopacity="0.0"
   guidetolerance="10.0"
   gridtolerance="10.0"
   objecttolerance="10.0"
   borderopacity="1.0"
   bordercolor="#666666"
   pagecolor="#ffffff"
   id="base"
   inkscape:zoom="8.9095454"
   inkscape:cx="32.5"
   inkscape:cy="16.802579"
   inkscape:window-x="5"
   inkscape:window-y="0"
   inkscape:current-layer="svg2183"
   width="48px"
   height="48px" />
	
	
<g
   id="g2174"><g
     style="fill-rule:nonzero;stroke:black;stroke-miterlimit:4"
     id="Layer_x0020_3">
		<path
   id="path2266"
   d="M 52,48 L 0,48 L 0,0 L 52,0 L 52,48 z "
   style="fill:none;stroke:none" />
	</g><path
     style="fill-rule:nonzero;stroke:none;stroke-miterlimit:4"
     d="M 31.737849,1.9909987 L 31.737849,1.9909987 C 31.737849,1.9909987 27.246954,4.3931052 26.620318,4.7064234 C 26.411438,4.7064234 21.398347,4.810863 21.398347,4.810863 L 3.1214495,12.434941 L 3.1214495,12.434941 C 2.494813,12.64382 1.3459794,13.479333 1.3459794,15.568123 L 1.3459794,15.881441 C 1.3459794,15.881441 2.494813,34.262778 2.494813,34.367217 C 2.494813,34.889415 2.5992524,35.829369 3.2258887,36.664885 C 3.8525253,37.500401 4.6880406,37.918157 5.0013588,38.022597 C 11.581043,40.633583 21.607226,44.60228 22.129422,44.811159 C 22.964937,45.228917 23.904893,45.228917 24.218212,45.228917 L 24.218212,45.228917 L 24.322651,45.228917 C 24.635969,45.228917 25.471484,45.124478 26.411438,44.60228 L 41.241836,35.829369 C 41.764034,35.516051 42.808427,34.889415 43.226185,33.84502 C 43.539504,33.009504 43.643943,32.27843 43.643943,31.965111 L 43.643943,31.965111 L 44.166139,13.688213 L 44.166139,13.688213 C 44.166139,12.330501 43.643943,11.390547 43.121746,10.972789 C 43.121746,10.972789 42.599549,10.346152 42.599549,10.346152 L 42.599549,10.346152 C 42.599549,10.346152 42.599549,10.346152 42.495108,10.241712 L 42.495108,10.241712 L 35.497669,2.6176351 C 34.975471,1.9909987 34.139955,1.5732411 33.304441,1.5732411 C 32.573365,1.5732411 31.946729,1.8865593 31.737849,1.9909987 z "
     id="path2188" /><path
     style="fill:url(#linearGradient2171);fill-rule:nonzero;stroke:none;stroke-miterlimit:4"
     d="M 2.9246511,14.239206 L 24.221037,21.374594 L 42.114393,12.153478 L 41.785067,12.043703 L 21.696208,6.4451684 L 2.9246511,14.239206 z "
     id="path2195" /><path
     style="fill:url(#linearGradient2168);fill-rule:nonzero;stroke:none;stroke-miterlimit:4"
     d="M 4.7908293,36.413794 C 4.7908293,36.413794 22.354859,43.329631 22.903735,43.549182 C 23.452611,43.768733 24.111262,43.768733 24.111262,43.768733 L 24.111262,21.374594 L 2.9246511,14.239206 C 2.9246511,14.239206 2.4855503,14.348982 2.5953255,15.446734 L 3.8028525,34.876942 C 3.8028525,34.876942 3.8028525,35.425818 4.0224029,35.864918 C 4.3517285,36.304019 4.7908293,36.413794 4.7908293,36.413794 L 4.7908293,36.413794 z "
     id="path2202" /><path
     style="fill:url(#linearGradient2165);fill-rule:nonzero;stroke:none;stroke-miterlimit:4"
     d="M 42.114393,12.153478 C 42.114393,12.153478 42.443718,12.373029 42.443718,13.25123 L 41.894842,32.352113 C 41.894842,32.352113 41.894842,32.900989 41.675293,33.340089 C 41.455742,33.77919 40.687315,34.218291 40.687315,34.218291 L 25.099239,43.439406 C 24.660138,43.768733 24.111262,43.768733 24.111262,43.768733 L 24.111262,21.374594 L 42.004618,12.153478 L 42.114393,12.153478 z "
     id="path2217" /><path
     style="fill:url(#linearGradient2162);fill-rule:nonzero;stroke:none;stroke-miterlimit:4"
     d="M 2.9246511,14.239206 L 14.670596,15.227184 L 31.68575,6.225618 L 21.586433,6.5549436 L 2.9246511,14.239206 z "
     id="path2224" /><path
     style="fill:url(#linearGradient2159);fill-rule:nonzero;stroke:none;stroke-miterlimit:4"
     d="M 41.455742,11.494828 L 41.345967,12.482804 L 42.004618,12.153478 L 41.455742,11.494828 z "
     id="path2231" /><path
     style="fill:url(#linearGradient2156);fill-rule:nonzero;stroke:none;stroke-miterlimit:4"
     d="M 41.345967,12.482804 L 25.318789,20.715942 C 25.318789,20.715942 24.660138,21.045269 24.221037,20.935493 C 23.781937,20.935493 23.452611,20.496393 23.452611,20.496393 L 15.878124,13.03168 C 15.878124,13.03168 15.768348,12.921905 15.768348,12.592578 C 15.768348,12.263253 16.207449,12.153478 16.207449,12.153478 L 33.112828,3.0421375 C 33.112828,3.0421375 33.332378,2.9323623 33.661704,2.9323623 C 33.881254,2.9323623 33.991029,3.1519127 33.991029,3.1519127 L 41.345967,11.275277 C 41.345967,11.275277 41.675293,11.604602 41.675293,11.933928 C 41.675293,12.153478 41.345967,12.373029 41.345967,12.373029 L 41.345967,12.482804 z "
     id="path2238" /><path
     style="fill:url(#linearGradient2153);fill-rule:nonzero;stroke:none;stroke-miterlimit:4"
     d="M 25.648115,20.496393 C 25.648115,20.496393 24.989464,21.045269 24.440588,20.496393 L 17.08565,13.141454 C 16.8661,12.921905 16.8661,12.702354 17.195425,12.592578 L 33.003053,3.2616879 C 33.003053,3.2616879 16.426999,12.043703 16.207449,12.263253 C 15.768348,12.482804 15.658573,12.921905 15.987898,13.361005 C 16.207449,13.580556 21.696208,18.95954 23.672161,20.825718 C 24.111262,21.264818 23.233061,21.155044 23.233061,21.155044 C 23.233061,21.155044 25.318789,21.813694 25.75789,20.606168 L 25.648115,20.496393 z "
     id="path2245" /><path
     style="fill:url(#linearGradient2150);fill-rule:nonzero;stroke:none;stroke-miterlimit:4"
     d="M 24.660138,42.45143 C 24.879689,37.182221 24.769913,24.338524 24.769913,23.899424 C 24.769913,23.350548 24.660138,21.594145 26.087216,20.715942 L 41.675293,12.153478 L 24.879689,20.935493 C 23.672161,21.484369 22.684185,20.825718 20.598457,20.167066 C 20.708232,20.276842 3.3637518,14.239206 3.3637518,14.239206 C 3.3637518,14.239206 2.3757751,13.800106 2.4855503,15.117408 L 3.8028525,35.096493 C 3.8028525,35.645369 4.2419533,36.194245 4.7908293,36.413794 C 4.3517285,36.084469 4.1321781,35.535593 4.0224029,35.206268 L 2.8148759,15.336958 C 2.8148759,15.007633 2.9246511,14.897858 3.1442014,15.007633 C 3.1442014,15.007633 21.696208,21.374594 22.245084,21.484369 C 23.452611,21.92347 23.233061,23.460322 23.342836,23.899424 C 23.342836,24.228749 23.891712,42.670981 23.891712,42.670981 C 23.891712,42.670981 24.660138,44.098058 24.769913,42.45143 L 24.660138,42.45143 z "
     id="path2252" /><path
     style="fill:white;fill-rule:nonzero;stroke:none;stroke-miterlimit:4"
     d="M 5.4494804,13.800106 L 21.586433,6.5549436 L 2.9246511,14.239206 L 4.3517285,14.348982 L 14.670596,15.227184 L 5.5592556,13.800106 L 5.4494804,13.800106 z "
     id="path2254" /><path
     style="fill:#a6a698;fill-rule:nonzero;stroke:none;stroke-miterlimit:4"
     d="M 41.894842,32.352113 L 42.333943,16.105385 L 41.236191,32.461888 C 41.236191,32.791213 41.126417,33.010764 40.906866,33.120539 L 36.186533,36.96267 C 36.186533,36.96267 40.797091,34.218291 41.126417,33.998741 C 41.455742,33.77919 41.894842,33.340089 41.894842,32.352113 L 41.894842,32.352113 z "
     id="path2256" /><path
     style="fill:url(#linearGradient2145);fill-rule:nonzero;stroke:none;stroke-miterlimit:4"
     d="M 22.684185,43.439406 C 23.891712,44.098058 24.660138,43.768733 25.867665,43.110081 C 25.867665,43.110081 24.660138,43.000306 24.660138,41.792779 C 24.550363,41.683004 23.781937,41.902554 23.781937,41.792779 C 23.781937,42.89053 23.233061,43.549182 22.684185,43.549182 L 22.684185,43.439406 z "
     id="path2263" /><text
     transform="matrix(1.244572,0.473905,-0.267208,0.701742,0,0)"
     sodipodi:linespacing="125%"
     id="text3004"
     y="41.327259"
     x="12.387321"
     style="font-size:9.90615749px;font-style:normal;font-weight:normal;line-height:125%;fill:black;fill-opacity:1;stroke:none;stroke-width:1px;stroke-linecap:butt;stroke-linejoin:miter;stroke-opacity:1;font-family:Bitstream Vera Sans"
     xml:space="preserve"><tspan
       style="font-size:9.90615749px;font-style:normal;font-variant:normal;font-weight:normal;font-stretch:normal;text-align:start;line-height:125%;writing-mode:lr-tb;text-anchor:start;fill:black;fill-opacity:1;font-family:Staccato222 BT"
       y="41.327259"
       x="12.387321"
       id="tspan3006"
       sodipodi:role="line">XFP</tspan></text>
<g
     transform="matrix(1.067086,0,0,1.067086,46.03825,42.27495)"
     id="g21675"><path
       style="font-size:12px;fill:url(#radialGradient21762);fill-opacity:0.98999999;fill-rule:evenodd;stroke:black;stroke-width:1.41991735;stroke-miterlimit:4;stroke-dasharray:none;stroke-opacity:1"
       d="M -5.0337611,-14.688264 C -5.0337611,-9.7748469 -9.0169141,-5.7916916 -13.930247,-5.7916916 C -18.843664,-5.7916916 -22.826733,-9.7747582 -22.826733,-14.688264 C -22.826733,-19.601682 -18.843664,-23.58475 -13.930247,-23.58475 C -9.0170006,-23.58475 -5.0337611,-19.601682 -5.0337611,-14.688264 z "
       id="path56" /><path
       style="font-size:12px;fill:url(#linearGradient21764);fill-opacity:1;fill-rule:evenodd;stroke:black;stroke-width:0.79675031;stroke-linejoin:round;stroke-miterlimit:4;stroke-dasharray:none;stroke-opacity:0.99215698"
       d="M -8.6615192,-7.0953983 L 0.76864755,1.7598557 C 1.1402736,2.1003257 1.5325524,2.180014 1.8562582,1.9149781 C 2.5457287,1.1807442 3.2352015,0.44651026 3.924672,-0.28772368 C 4.10287,-0.62785228 4.0481328,-1.018455 3.766089,-1.2862952 L -5.6739696,-10.276913 L -8.6615192,-7.0953983 z "
       id="path354"
       sodipodi:nodetypes="ccccccc" /><path
       style="font-size:12px;fill:url(#linearGradient21766);fill-opacity:1;fill-rule:evenodd;stroke-width:7.73106003;stroke-opacity:0.98823499"
       d="M -5.5182024,-14.642366 C -5.5182024,-9.971104 -9.3050452,-6.184261 -13.976225,-6.184261 C -18.647487,-6.184261 -22.434248,-9.971022 -22.434248,-14.642366 C -22.434248,-19.313626 -18.647487,-23.10039 -13.976225,-23.10039 C -9.3051294,-23.10039 -5.5182024,-19.313626 -5.5182024,-14.642366 z "
       id="path188" /></g></g></svg>