/* XPM */
static char * xfv_xpm[] = {
"48 48 255 2",
"  	c None",
". 	c #040006",
"+ 	c #000200",
"@ 	c #010400",
"# 	c #060309",
"$ 	c #030601",
"% 	c #060905",
"& 	c #0B070D",
"* 	c #050B0E",
"= 	c #080B07",
"- 	c #0A0C08",
"; 	c #0C0F0B",
"> 	c #0A1012",
", 	c #0D1214",
"' 	c #10120F",
") 	c #0B1319",
"! 	c #111310",
"~ 	c #151714",
"{ 	c #181619",
"] 	c #14181A",
"^ 	c #161815",
"/ 	c #161A1C",
"( 	c #191B18",
"_ 	c #1A1C19",
": 	c #1B1C1A",
"< 	c #1E201E",
"[ 	c #1B2228",
"} 	c #202220",
"| 	c #1C2329",
"1 	c #232422",
"2 	c #212527",
"3 	c #282423",
"4 	c #222628",
"5 	c #242623",
"6 	c #28262A",
"7 	c #282927",
"8 	c #282C2E",
"9 	c #2A2C29",
"0 	c #232D38",
"a 	c #2D2B2F",
"b 	c #2C2D2B",
"c 	c #272E34",
"d 	c #2E2F2D",
"e 	c #2E302D",
"f 	c #30322F",
"g 	c #333432",
"h 	c #323638",
"i 	c #363836",
"j 	c #383937",
"k 	c #393B38",
"l 	c #383F46",
"m 	c #40413F",
"n 	c #414240",
"o 	c #434442",
"p 	c #454644",
"q 	c #43484A",
"r 	c #464845",
"s 	c #474946",
"t 	c #484947",
"u 	c #494A48",
"v 	c #4A4B49",
"w 	c #4A4C4A",
"x 	c #4C4E4B",
"y 	c #4F514E",
"z 	c #48525E",
"A 	c #50524F",
"B 	c #515350",
"C 	c #525451",
"D 	c #555654",
"E 	c #565755",
"F 	c #565855",
"G 	c #575956",
"H 	c #595B58",
"I 	c #5A5C59",
"J 	c #5C5E5B",
"K 	c #5D5F5C",
"L 	c #626461",
"M 	c #5A6571",
"N 	c #636562",
"O 	c #686A67",
"P 	c #696B68",
"Q 	c #6B6D6A",
"R 	c #6D6F6C",
"S 	c #65707C",
"T 	c #6E706D",
"U 	c #6D7174",
"V 	c #70726F",
"W 	c #727471",
"X 	c #747673",
"Y 	c #777976",
"Z 	c #787A77",
"` 	c #677D8E",
" .	c #707B88",
"..	c #797B78",
"+.	c #7E807D",
"@.	c #828481",
"#.	c #868488",
"$.	c #878986",
"%.	c #8B8D8A",
"&.	c #8F8D91",
"*.	c #829197",
"=.	c #84909D",
"-.	c #8F918E",
";.	c #90928F",
">.	c #7B96AC",
",.	c #979290",
"'.	c #929491",
").	c #7F97B4",
"!.	c #939592",
"~.	c #8198B5",
"{.	c #8498AF",
"].	c #8299B6",
"^.	c #959794",
"/.	c #969895",
"(.	c #979996",
"_.	c #899CA7",
":.	c #929AA2",
"<.	c #999B98",
"[.	c #9C9A9E",
"}.	c #889FBD",
"|.	c #9B9D99",
"1.	c #8C9FB7",
"2.	c #9E9CA0",
"3.	c #9F9DA1",
"4.	c #8CA3C1",
"5.	c #8DA4B5",
"6.	c #9FA19E",
"7.	c #90A3BB",
"8.	c #A0A29F",
"9.	c #A1A3A0",
"0.	c #92A5BD",
"a.	c #93A6BE",
"b.	c #A3A5A2",
"c.	c #94A7C0",
"d.	c #A4A6A3",
"e.	c #A5A7A4",
"f.	c #A8A6AA",
"g.	c #A6A8A5",
"h.	c #97AAC3",
"i.	c #A8AAA7",
"j.	c #A9ABA8",
"k.	c #9AADC5",
"l.	c #ACAAAE",
"m.	c #94AFC6",
"n.	c #AAACA9",
"o.	c #ABADAA",
"p.	c #ACAEAB",
"q.	c #9CB0C8",
"r.	c #A1B0C3",
"s.	c #ADAFAC",
"t.	c #A2B1C5",
"u.	c #9FB3BF",
"v.	c #B0B2AE",
"w.	c #A4B4C7",
"x.	c #B1B3AF",
"y.	c #B3B5B2",
"z.	c #B4B6B3",
"A.	c #A8B8CB",
"B.	c #B6B8B5",
"C.	c #ACBBCE",
"D.	c #B8BAB7",
"E.	c #B9BBB8",
"F.	c #AEBDD1",
"G.	c #BABCB9",
"H.	c #AFBED2",
"I.	c #BBBDBA",
"J.	c #BEBCC0",
"K.	c #BCBEBB",
"L.	c #BFBDC1",
"M.	c #B1C0D4",
"N.	c #BDBFBC",
"O.	c #BEC1BD",
"P.	c #C3C0C4",
"Q.	c #C0C2BE",
"R.	c #B8C3D1",
"S.	c #C1C3BF",
"T.	c #C2C4C1",
"U.	c #C3C5C2",
"V.	c #BAC6D3",
"W.	c #C4C6C3",
"X.	c #C5C7C4",
"Y.	c #BCC8D6",
"Z.	c #C6C8C5",
"`.	c #C7C9C6",
" +	c #C8CAC7",
".+	c #C9CBC8",
"++	c #CACCC9",
"@+	c #C1CDDB",
"#+	c #C4CDD5",
"$+	c #CBCECA",
"%+	c #CDCFCB",
"&+	c #CED0CC",
"*+	c #CFD1CE",
"=+	c #D0D2CF",
"-+	c #D1D3D0",
";+	c #C8D4E2",
">+	c #D2D4D1",
",+	c #D3D5D2",
"'+	c #D4D6D3",
")+	c #D5D7D4",
"!+	c #D6D8D5",
"~+	c #D0D9E1",
"{+	c #D8DAD6",
"]+	c #DED9D8",
"^+	c #D9DBD7",
"/+	c #DADCD9",
"(+	c #D5DDE6",
"_+	c #E1DBDA",
":+	c #DBDDDA",
"<+	c #DCDEDB",
"[+	c #DDDFDC",
"}+	c #E4DEDD",
"|+	c #DEE0DD",
"1+	c #DFE1DE",
"2+	c #D9E2EA",
"3+	c #E0E2DF",
"4+	c #E1E4E0",
"5+	c #E6E3E8",
"6+	c #E3E5E1",
"7+	c #DEE6EF",
"8+	c #E4E6E3",
"9+	c #DFE7F0",
"0+	c #E8E5EA",
"a+	c #E5E7E4",
"b+	c #E6E8E5",
"c+	c #E7E9E6",
"d+	c #E8EAE7",
"e+	c #E9EBE8",
"f+	c #EFEAE8",
"g+	c #EAECE9",
"h+	c #E4EDF5",
"i+	c #EBEEEA",
"j+	c #EAEFF2",
"k+	c #EDEFEB",
"l+	c #E8F0F9",
"m+	c #EEF0ED",
"n+	c #EFF1EE",
"o+	c #F6F0EF",
"p+	c #F0F2EF",
"q+	c #F1F3F0",
"r+	c #F2F4F1",
"s+	c #F3F5F2",
"t+	c #F4F7F3",
"u+	c #F2F7F9",
"v+	c #F3F8FB",
"w+	c #F6F8F4",
"x+	c #F7F9F6",
"y+	c #F8FAF7",
"z+	c #F6FBFE",
"A+	c #F9FBF8",
"B+	c #FAFCF9",
"C+	c #F7FDFF",
"D+	c #FBFDFA",
"E+	c #FCFFFB",
"F+	c #FEFFFC",
"                                                                                                ",
"                                                                                                ",
"                                                                                                ",
"          - + + + + + + + + + + + + + + + + + + + + + + + + + + + + + + - ~                     ",
"          + O.^+^+^+{+{+,+,+,+>+-+&+%+$+$+ +`.Z.X.U.S.Q.O.O.N.K.I.E.D.G.#.. (                   ",
"          + <+F+F+F+F+F+F+F+F+F+F+F+F+F+F+F+F+F+F+F+F+F+F+F+F+F+F+D+D+F+P.)++ <                 ",
"          + ^+F+e+4+4+4+4+4+4+4+4+4+4+4+4+4+4+|+|+|+|+[+[+[+[+[+b+A+x+B+J.F+^+. 6               ",
"          + ^+F+[+-+>+>+>+>+>+>+>+>+-+-+-+-+&+&+&+&+$+%+%+%+%+$+^+A+x+B+J.B+A+_+& a             ",
"          + ^+F+b+|+|+|+|+|+[+[+[+<+<+<+<+^+^+^+^+^+^+^+^+^+^+^+c+y+y+A+J.y+r+r+}+; 3           ",
"          + ^+F+4+{+{+{+{+{+{+{+'+'+'+'+,+,+,+,+>+>+>+>+>+>+-+-+4+y+x+w+L.o+f+5+0+]+{ _         ",
"          + ^+F+[+<+<+<+{+^+^+^+^+^+^+^+^+^+^+{+{+{+{+{+{+{+'+'+b+x+x+r+[.l.2.&.,.f.3.+         ",
"          + ^+F+<+^+^+{+{+{+{+{+{+{+{+{+{+{+{+{+{+{+{+{+{+,+,+,+b+x+x+A+j.i.z.O.x.(.P +         ",
"          + ^+F+F+F+F+F+F+F+F+F+F+D+D+D+B+B+B+B+B+B+B+B+A+A+A+y+x+w+x+t+y+y+y+w+x+B+i.+         ",
"          + ^+F+F+F+F+F+F+F+F+F+D+D+D+B+B+B+B+B+B+B+B+A+A+A+y+y+x+x+t+w+t+w+s+s+t+t+g.+         ",
"          + ^+F+)+-+>+-+-+-+-+-+-+-+&+&+&+&+&+&+&+&+++$+$+$+$+++c+w+w+t+w+s+s+t+r+t+g.+         ",
"          + ^+F+4+1+|+|+|+|+|+|+1+[+[+[+[+^+^+^+[+<+|+<+^+{+{+{+i+w+t+w+s+s+t+r+s+t+g.+         ",
"          + ^+F+)+&+&+&+-+&+&+&+$+$+$+$+{+D+F+s+G.@.G $.N.s+F+w+w+w+w+s+s+t+r+s+r+w+d.+         ",
"          + ^+F+b+6+6+6+6+6+6+6+6+6+6+|+b+F+$.+ l  ._.S c + (.F+w+s+s+s+t+r+s+r+s+s+e.+         ",
"          + ^+F+&+$+$+++++++.+.+.+.+Z.r+s+4 q ;+V.M.A.w.q.m.| k s+s+s+t+r+s+r+s+q+s+d.+         ",
"          + ^+F+d+d+6+6+6+6+6+6+6+4+1+F+n *.2+@+R.F.A.r.h.0.c.z E F+s+r+s+r+s+q+q+s+d.+         ",
"          + ^+F+++`. + +Z.Z.Z.`.W.|+F+8.h l+~+@+R.F.A.r.h.a.1.4.* s.t+s+r+s+q+q+r+s+e.+         ",
"          + ^+F+b+b+b+b+b+b+b+6+4+m+F+> j+9+~+@+R.F.A.r.h.a.1.].>.8 B+r+s+q+q+r+p+s+e.+         ",
"          + ^+D+D+D+B+B+B+B+B+B+B+A+r+- C+7+~+@+R.F.A.r.h.a.1.].].+ D+s+q+q+r+p+q+s+e.+         ",
"          + ^+D+p+m+m+m+m+k+k+i+r+B+E.G v+9+~+@+R.F.A.r.h.a.1.].~.) $+s+q+r+p+q+p+s+e.+         ",
"          + ^+F+T.N.N.N.N.N.N.I.^+F+p.R u+9+~+@+R.F.A.r.h.a.1.].~.[ N.s+r+p+q+p+p+s+e.+         ",
"          + {+B+n+i+i+g+g+g+g+i+A+y+d+: z+9+~+@+R.F.A.r.h.a.1.].].+ w+r+p+q+p+p+q+r+e.+         ",
"          + {+F+U.Q.Q.Q.Q.O.O.T.B+w+F+- z+7+~+@+R.F.A.r.h.a.1.].{.1 A+p+q+p+p+q+n+r+e.+         ",
"          + {+B+i+e+e+e+e+e+e+e+b+x+D+Z U h+~+@+R.F.A.r.h.a.1.}.0 V x+p+p+p+q+n+p+r+e.+         ",
"          + {+F+Z.W.X.X.X.X.W.W.T.A+w+F+/ #+(+@+R.F.A.r.h.0.7.` ] o O.t+p+q+n+p+n+r+e.+         ",
"          + {+D+|+[+^+^+^+^+^+^+^+c+w+x+^+$ :.;+V.H.A.r.k.k.M + o.^+m B.t+n+p+n+n+r+e.+         ",
"          + {+D+-+++$+$+$+$+$+$+++4+w+w+w+p+t 2 =.u.C.5. ., - L <.y.{+p g.w+n+n+n+r+e.+         ",
"          + {+B+D+D+D+D+B+B+B+B+A+y+y+t+s+t+F+N...o _ u +.`.x+d G /.v.{+y /.x+n+p+q+e.+         ",
"          + {+D+G.z.z.z.z.y.y.y.y.y.x.4+t+t+r+t+x+A+A+x+w+r+p+A+k C ^.s.'+G $.y+m+q+e.+         ",
"          + ,+A+r+r+t+r+q+q+q+r+s+p+p+r+w+t+w+w+r+q+s+y+p+p+p+p+F+t s '.o.>+N ..y+q+e.+         ",
"          + ,+A+x+A+O.w+x+w+F+b+N.w+t+D+4+n.6.e.s+t+n.A s+q+q+n+r+F+I m ;.i.&+W Y w+e.+         ",
"          + ,+A+F+v + j.A+i+H + r D+b+r $ x F A A+4++ $ A+q+n+m+9.,+F+T i -.g.-+9 x+e.+         ",
"          + '+y+F+L + <.D+^+- j e+B+B + 1+B+A+A+q+x++ 5 y+n+s+!.+ 6+p+A+@.e -.j j.s+e.+         ",
"          + '+y+x+c++ 5 .++ @.F+t+F+! g y+&+z.S.r+y+( ~ x+n+A+7 O t+p+m+w+|.5 |.s+p+d.+         ",
"          + '+y+t+A+b.+ + O.B+s+t+i.+ ^ f v D n s+w+B + w+y+Q } s+n+m+n+m+r+t+q+k+n+d.+         ",
"          + '+x+t+F+Y - + ++y+r+s+X.+ %+B+x+w+x+p+s+p.+ D.(.+ [+q+m+m+n+n+k+k+m+i+n+d.+         ",
"          + '+w+F+J k F+X + &+s+s+&++ r+r+p+q+p+q+n+A+b < + X.r+m+m+n+k+k+k+m+i+k+n+d.+         ",
"          + '+D+V F F+s+D+x.K r+s+{++ B+p+q+p+q+n+n+s+V ' <.t+m+m+n+k+m+k+m+i+k+i+n+d.+         ",
"          + {+D+G.F+x+y+t+y+D+s+t+w+;.x+s+s+s+r+s+r+r+w+D+w+q+q+r+p+p+p+p+n+n+n+n+q+b.+         ",
"          + %.9.b.8.8.8.8.8.8.8.8.8.d.8.8.8.8.8.8.8.8.8.8.8.8.8.8.8.8.8.8.8.8.8.8.9.8.+         ",
"          + + + + + + + + + + + + + + + + + + + + + + + + + + + + + + + + + + + + + $ $         ",
"                                                                                                ",
"                                                                                                ",
"                                                                                                "};
