/* XPM */
static char * xfw_xpm[] = {
"48 48 255 2",
"  	c None",
". 	c #000100",
"+ 	c #040006",
"@ 	c #000306",
"# 	c #060309",
"$ 	c #0D0A0F",
"% 	c #0F0D11",
"& 	c #0C0F0B",
"* 	c #10120F",
"= 	c #121411",
"- 	c #151317",
"; 	c #161A12",
"> 	c #1F181C",
", 	c #1D1B1E",
"' 	c #1C1D1B",
") 	c #1E1F1D",
"! 	c #201E22",
"~ 	c #1F1F27",
"{ 	c #212229",
"] 	c #25241D",
"^ 	c #262427",
"/ 	c #28262A",
"( 	c #2B2726",
"_ 	c #2A282B",
": 	c #322A2F",
"< 	c #352D32",
"[ 	c #333135",
"} 	c #393237",
"| 	c #3C3233",
"1 	c #393A38",
"2 	c #3B393D",
"3 	c #473A1C",
"4 	c #403D32",
"5 	c #3F3D41",
"6 	c #3B3F42",
"7 	c #433F3E",
"8 	c #454130",
"9 	c #3C4440",
"0 	c #4A4247",
"a 	c #434638",
"b 	c #464447",
"c 	c #474549",
"d 	c #4A484C",
"e 	c #4A4B49",
"f 	c #4C4A4E",
"g 	c #484F56",
"h 	c #505038",
"i 	c #584F2E",
"j 	c #50524F",
"k 	c #535441",
"l 	c #535452",
"m 	c #5B5734",
"n 	c #675D3C",
"o 	c #5C5E5B",
"p 	c #5C646B",
"q 	c #67616B",
"r 	c #646563",
"s 	c #766D39",
"t 	c #706E72",
"u 	c #7B7344",
"v 	c #767478",
"w 	c #787A77",
"x 	c #7B797D",
"y 	c #907B2F",
"z 	c #767B7E",
"A 	c #947E2B",
"B 	c #777E86",
"C 	c #958034",
"D 	c #798088",
"E 	c #9B7F2E",
"F 	c #8D834D",
"G 	c #8C8353",
"H 	c #7F8487",
"I 	c #858387",
"J 	c #838582",
"K 	c #9F8835",
"L 	c #8E858B",
"M 	c #9C8848",
"N 	c #818C7B",
"O 	c #A4883E",
"P 	c #908882",
"Q 	c #878C8F",
"R 	c #8B8D8A",
"S 	c #9C8F4D",
"T 	c #8F8D91",
"U 	c #9E9256",
"V 	c #939095",
"W 	c #A29452",
"X 	c #929491",
"Y 	c #AA944E",
"Z 	c #98969A",
"` 	c #94999B",
" .	c #979996",
"..	c #A99B59",
"+.	c #9A9B98",
"@.	c #979C9F",
"#.	c #9A9EAD",
"$.	c #9CA1A3",
"%.	c #A5A193",
"&.	c #A0A29F",
"*.	c #C5A233",
"=.	c #A4A1A6",
"-.	c #C4A343",
";.	c #A2A4A1",
">.	c #C0A543",
",.	c #B4A662",
"'.	c #A3A5A2",
").	c #C2A745",
"!.	c #A5A7A4",
"~.	c #C4A846",
"{.	c #A6A8A5",
"].	c #A7A9A6",
"^.	c #BDAB54",
"/.	c #AAA8AC",
"(.	c #A5AAAD",
"_.	c #BAAD55",
":.	c #C7AB4A",
"<.	c #A9ABA8",
"[.	c #C7AC51",
"}.	c #AAACA9",
"|.	c #C9AD4B",
"1.	c #A8ADAF",
"2.	c #ABADAA",
"3.	c #C2AF58",
"4.	c #ACAEAB",
"5.	c #CBAF4D",
"6.	c #AEB0AD",
"7.	c #B0B0BA",
"8.	c #B0B2AF",
"9.	c #D0B351",
"0.	c #B2B4B1",
"a.	c #B6B3B8",
"b.	c #B3B5B2",
"c.	c #CCB75A",
"d.	c #C3B77E",
"e.	c #B8B5BA",
"f.	c #B7B7AE",
"g.	c #B5B7B4",
"h.	c #C9B96E",
"i.	c #B6B8B5",
"j.	c #B7B9B6",
"k.	c #D1BB5E",
"l.	c #BCBB9F",
"m.	c #B8BAB7",
"n.	c #B6BBBD",
"o.	c #B9BBB8",
"p.	c #BABCB9",
"q.	c #BDBBBF",
"r.	c #BBBDBA",
"s.	c #CEC067",
"t.	c #C1BEC3",
"u.	c #BBC0C2",
"v.	c #BEC0BD",
"w.	c #CFC183",
"x.	c #E2C251",
"y.	c #C0C2BE",
"z.	c #C1C3BF",
"A.	c #C2C4C1",
"B.	c #D3C586",
"C.	c #D9C675",
"D.	c #C3C5C2",
"E.	c #C4C6C3",
"F.	c #C4C5CF",
"G.	c #C5C7C4",
"H.	c #C6C8C5",
"I.	c #C7C9C6",
"J.	c #DACA85",
"K.	c #C8CAC7",
"L.	c #C9CBC8",
"M.	c #DECE6E",
"N.	c #CACCC9",
"O.	c #C7CDCF",
"P.	c #CBCECA",
"Q.	c #CDCFCB",
"R.	c #DAD09C",
"S.	c #CED0CC",
"T.	c #CFD1CE",
"U.	c #D0D2CF",
"V.	c #D1D3D0",
"W.	c #CCD5DD",
"X.	c #D3D5D2",
"Y.	c #D4D6D3",
"Z.	c #D1D7D9",
"`.	c #D5D7D4",
" +	c #D2D8DA",
".+	c #EEDB6D",
"++	c #D6D8D5",
"@+	c #D8DAD6",
"#+	c #E4DBAD",
"$+	c #D6DBDD",
"%+	c #D9DBD7",
"&+	c #E9DCA2",
"*+	c #D7DCDF",
"=+	c #DCDCD3",
"-+	c #DADCD9",
";+	c #DBDDDA",
">+	c #DCDEDB",
",+	c #DDDFDC",
"'+	c #DEE0DD",
")+	c #DFE1DE",
"!+	c #ECE4A2",
"~+	c #E0E2DF",
"{+	c #E3E4CD",
"]+	c #E1E4E0",
"^+	c #FEE872",
"/+	c #E3E5E1",
"(+	c #E4E6E3",
"_+	c #E8E5EA",
":+	c #E5E7E4",
"<+	c #E2E8EA",
"[+	c #E6E8E5",
"}+	c #DEEBEC",
"|+	c #E7E9E6",
"1+	c #F6ECA3",
"2+	c #E8EAE7",
"3+	c #E8E9F3",
"4+	c #E9EBE8",
"5+	c #E6ECEE",
"6+	c #EAECE9",
"7+	c #FEF09A",
"8+	c #EBEEEA",
"9+	c #F3EDEC",
"0+	c #EDEFEB",
"a+	c #FFF76E",
"b+	c #EEF0ED",
"c+	c #EFF1EE",
"d+	c #FFFB68",
"e+	c #F0F2EF",
"f+	c #F1F3F0",
"g+	c #FDFC7F",
"h+	c #F2F4F1",
"i+	c #FFFD72",
"j+	c #FFFD79",
"k+	c #F3F5F2",
"l+	c #F0F6F8",
"m+	c #F7F6ED",
"n+	c #F1F9E1",
"o+	c #F4F7F3",
"p+	c #FCFF97",
"q+	c #F6F8F4",
"r+	c #F7F9F6",
"s+	c #F5FAFD",
"t+	c #F8FAF7",
"u+	c #FBFAF1",
"v+	c #FEF9F7",
"w+	c #F9FBF8",
"x+	c #FAFCF9",
"y+	c #FBFDFA",
"z+	c #F5FFFA",
"A+	c #FFFEEF",
"B+	c #FCFFEF",
"C+	c #F9FFFF",
"D+	c #FCFFFB",
"E+	c #FFFFF5",
"F+	c #FEFFFC",
"                                                                                                ",
"                                                                                                ",
"                                                                                                ",
"          & . . . . . . . . . . . . . . . . . . . . . . . . . . . . . . . =                     ",
"          . `.4+/+/+]+]+,+'+'+>+%+@+@+`.Y.V.S.S.S.N.L.K.G.G.E.D.A.v.v.G.V . ;                   ",
"          . 6+F+F+F+F+F+F+F+F+F+F+F+F+F+F+F+F+F+F+F+F+F+F+F+F+F+F+F+F+F+t.q+. '                 ",
"          . [+F+|+]+]+]+]+]+]+]+)+)+)+)+]+]+]+,+,+,+'+>+>+>+>+>+/+y+r+F+a.F+r+. {               ",
"          . [+F+%+S.S.S.S.S.S.S.S.S.S.S.S.S.S.S.S.S.N.N.N.N.N.L.@+y+r+F+e.F+F+v+. _             ",
"          . [+F+|+'+)+)+)+)+'+'+)+,+,+,+'+%+%+%+%+%+%+%+%+%+%+%+2+w+t+F+e.y+h+q+F+. (           ",
"          . [+F+]+`.@+@+@+@+@+@+X.X.X.Y.V.X.V.X.V.V.V.V.V.V.S.S.]+x+q+t+q.v+9+_+3+y+. ]         ",
"          . [+F+%+>+>+,+@+%+%+%+%+%+%+%+%+%+%+@+@+@+@+@+@+%+Y.X.[+t+t+r+V /.Z I P =.q..         ",
"          . [+F+@+@+%+Y.`.`.`.`.`.`.`.`.`.Y.Y.Y.Y.Y.Y.Y.`.S.V.S./+w+o+F+8.(.G.E.6.X r .         ",
"          . [+F+F+F+F+F+F+F+F+F+F+F+F+F+F+F+F+F+F+F+F+F+x+y+y+x+t+q+y+O.k G j <+F+F+8..         ",
"          . [+F+F+F+F+F+F+F+F+F+F+F+F+F+F+F+F+F+F+F+F+y+F+F+r+q+q+o+F+i p+[.x.m C+x+2..         ",
"          . [+F+S.Q.S.Q.Q.Q.Q.Q.Q.S.P.P.P.Q.P.P.P.Q.K.K.K.E.6+t+r+F+#.^+&+:.c...Q F+2..         ",
"          . [+F+]+]+]+]+]+]+]+]+]+)+)+)+)+'+'+'+)+%+%+%+%+@+0+t+k+F+h g+^.:.B.O p F+2..         ",
"          . [+F+V.S.S.S.S.Q.S.S.L.N.N.N.N.N.N.N.N.N.N.N.L.`.F+o+y+7..+!+~.5.W u 5+y+<..         ",
"          . [+F+2+[+[+|+[+[+[+[+[+[+[+]+]+]+]+]+]+]+]+]+'+/+r+k+F+a j+3.:.J.E 6 F+t+}..         ",
"          . [+F+L.K.N.K.K.K.I.I.I.I.E.G.G.G.G.G.H.E.E.A.`.y+o+x+F.M.1+).|.,.U n.q+x+}..         ",
"          . /+F+6+8+|+|+|+|+|+|+2+[+[+[+[+[+[+|+/+/+/+/+[+r+o+F+9 i+h.:.C.y 8 F+e+x+}..         ",
"          . /+F+D.D.E.E.D.D.D.E.A.A.A.A.A.A.D.z.A.z.z.v.6+r+q+W.s.7+-.|.d.Y B F+h+t+}..         ",
"          . /+F+[+[+[+[+|+|+|+]+/+/+/+/+/+/+]+]+]+]+]+]+f+k+F+7 d+w.:.k.C n F+e+e+t+}..         ",
"          . /+F+F+F+y+F+F+F+F+F+F+F+y+y+y+x+x+x+x+w+w+w+k+o+<+_.7+>.:.B.K g F+e+f+t+}..         ",
"          . /+F+k+c+e+e+e+b+b+c+c+8+8+0+6+6+6+8+6+6+6+e+k+F+e a+#+*.9.M F *+h+f+e+t+}..         ",
"          . /+F+m.j.m.m.m.m.m.j.j.j.m.i.i.i.j.b.b.b.8.X.x+l+s E+E+F+R.A 4 F+c+e+e+w+}..         ",
"          . /+y+o+f+h+e+e+f+c+c+c+e+b+b+b+b+b+c+c+0+c+t+t+Y.N E+y+E+{+S $.t+e+e+f+r+}..         ",
"          . /+F+p.p.r.r.r.p.p.p.p.o.o.o.o.m.m.m.j.i.b.F+r+A.%.E+F+m+A+3 F+b+e+f+c+r+}..         ",
"          . /+F+f+0+0+0+0+0+b+b+8+8+8+0+0+0+0+4+4+b+F+e+t+0.f.F+u+B+l.z y+e+f+c+e+r+}..         ",
"          . /+F+v.z.A.z.z.A.y.y.y.y.z.v.v.v.v.v.v.L.r+k+x++.=+F+m+n+^ F+b+f+c+e+c+r+}..         ",
"          . /+F+)+)+%+%+%+%+>+>+>+>+%+>+>+>+>+>+%+q+h+h+F+ .l X F+@ F+0+c+c+e+c+c+r+}..         ",
"          . ]+F+P.I.K.K.K.K.K.K.K.K.K.K.K.K.K.L.A.h+k+k+y+X . | * F+e+c+e+c+c+c+c+t+}..         ",
"          . ]+x+F+F+F+F+F+F+F+F+F+F+F+F+F+F+F+F+q+h+k+f+F+w q ) ]+o+c+e+c+c+c+c+e+q+}..         ",
"          . ]+F+4.2.4.4.4.2.4.2.4.4.4.4.4.4.}.{.F+k+f+f+F+o 1 8.F+b+e+c+c+c+c+e+b+q+}..         ",
"          . '+y+o+q+q+q+k+o+o+o+o+k+k+k+k+h+k+k+h+f+f+h+k+L.R F+0+e+c+c+c+c+e+b+c+q+}..         ",
"          . '+y+w+r+o+y+F+k+q+o+t+F+q+k+f+F+F+F+F+8+0+F+F+e+F+8+e+c+c+b+t+b+b+c+b+q+}..         ",
"          . '+F+q+q+t+%+f k+o+F+<+6 @+k+F+&.5 < ~ F+F+d - F+e+6+F+F+4+y+n.f+c+b+c+o+}..         ",
"          . '+x+q+r+F++ . c+F+$+. . z+F++ + n.P.g.k+F+. . F+b+F+} 6 F+H.$ F+b+c+0+o+}..         ",
"          . '+y+r+o+F+` . =.F++ [ F+y+'..  +F+F+F+b+|+. $ F+q+u.. T F+< V t+c+0+0+o+<..         ",
"          . '+y+o+q+k+F+! % + D F+e+F+t . v : $ + F+F+> . F+F+_ . )+`.. F+0+0+0+b+k+<..         ",
"          . '+w+q+o+k+F+t.. b F+6+r+/++ 2 P.0+F+6+e+t+@.. F+@.. . F+. {.t+0+0+b+8+k+<..         ",
"          . '+x+o+k+F+1.. }+. v F+b+F+[ H F+h+e+k+c+e+F+. x . h+. 0 / F+6+0+b+8+0+k+<..         ",
"          . '+x+q+F+1.. F+t+F+% H F+F+, 1.t+e+f+c+e+c+F+c . s+F+5 c F+6+0+b+8+0+8+k+<..         ",
"          . |+F+F+F+J F+w+x+x+F+F+r+F+L Z.F+w+r+t+t+t+k+F+F+q+f+F+F+k+o+q+k+k+k+o+F+]..         ",
"          .  .].!.;.b.'.!.!.!.!.!.!.;.b.].'.!.!.!.!.!.!.{.{.!.!.!.!.!.!.!.!.!.!.!.!.o..         ",
"          . . . . . . . . . . . . . . . . . . . . . . . . . . . . . . . . . . . . . . .         ",
"                                                                                                ",
"                                                                                                ",
"                                                                                                "};
