STARTFONT 2.1
COMMENT AUTOMATICALLY GENERATED FILE. DO NOT EDIT!
COMMENT Generated with 'ucs2any UTB___18.bdf /usr/local/share/fonts/X11/util/map-ISO8859-2 ISO8859-2'
COMMENT from an ISO10646-1 encoded source BDF font.
COMMENT ucs2any by Ben Collver <collver1@attbi.com>, 2003, based on
COMMENT ucs2any.pl by Markus Kuhn <http://www.cl.cam.ac.uk/~mgk25/>, 2000.
FONT -Adobe-Utopia-Bold-R-Normal--19-180-75-75-P-105-ISO8859-2
SIZE 18 75 75
FONTBOUNDINGBOX 19 22 -1 -4
COMMENT ISO10646-1 extension by Markus Kuhn <mkuhn@acm.org>, 2001-03-20
STARTPROPERTIES 28
FOUNDRY "Adobe"
FAMILY_NAME "Utopia"
WEIGHT_NAME "Bold"
SLANT "R"
SETWIDTH_NAME "Normal"
ADD_STYLE_NAME ""
PIXEL_SIZE 19
POINT_SIZE 180
RESOLUTION_X 75
RESOLUTION_Y 75
SPACING "P"
AVERAGE_WIDTH 105
CHARSET_REGISTRY "ISO8859"
CHARSET_ENCODING "2"
CAP_HEIGHT 13
X_HEIGHT 9
RELATIVE_SETWIDTH 50
RELATIVE_WEIGHT 70
WEIGHT 218
FACE_NAME "Utopia Bold"
COPYRIGHT "Copyright (c) 1989, 1991 Adobe Systems Incorporated.  All rights reserved."
NOTICE "Utopia is a registered trademark of Adobe Systems Incorporated."
DESTINATION 0
FONT_ASCENT 14
FONT_DESCENT 4
DEFAULT_CHAR 0
_ADOBE_PSFONT "Utopia-Bold"
_DEC_DEVICE_FONTNAMES "PS=Utopia-Bold"
ENDPROPERTIES
CHARS 192
STARTCHAR defaultchar
ENCODING 0
SWIDTH 807 0
DWIDTH 15 0
BBX 13 13 0 0
BITMAP
AAA8
0000
8008
0000
8008
0000
8008
0000
8008
0000
8008
0000
AAA8
ENDCHAR
STARTCHAR space
ENCODING 32
SWIDTH 210 0
DWIDTH 4 0
BBX 0 0 0 0
BITMAP
ENDCHAR
STARTCHAR exclam
ENCODING 33
SWIDTH 278 0
DWIDTH 5 0
BBX 4 13 0 0
BITMAP
60
F0
F0
F0
F0
60
60
60
60
00
60
F0
60
ENDCHAR
STARTCHAR quotedbl
ENCODING 34
SWIDTH 473 0
DWIDTH 9 0
BBX 5 6 2 7
BITMAP
D8
D8
D8
D8
D8
D8
ENDCHAR
STARTCHAR numbersign
ENCODING 35
SWIDTH 560 0
DWIDTH 11 0
BBX 10 12 0 1
BITMAP
1980
1980
1980
7FC0
3300
3300
3300
3300
FF80
6600
6600
6600
ENDCHAR
STARTCHAR dollar
ENCODING 36
SWIDTH 560 0
DWIDTH 11 0
BBX 10 15 0 -1
BITMAP
0400
3F80
77C0
E5C0
F400
FC00
7E00
3F80
0FC0
0BC0
09C0
E9C0
FB80
7F00
0800
ENDCHAR
STARTCHAR percent
ENCODING 37
SWIDTH 887 0
DWIDTH 17 0
BBX 16 13 0 0
BITMAP
7810
EFF0
CC20
CC40
CCC0
DC80
791E
023B
0633
0433
0833
1837
101E
ENDCHAR
STARTCHAR ampersand
ENCODING 38
SWIDTH 748 0
DWIDTH 14 0
BBX 13 13 0 0
BITMAP
0F80
1DC0
38C0
38C0
1D80
1F18
3E38
7738
E3B0
E3E0
E1E0
71F0
3F78
ENDCHAR
STARTCHAR quotesingle
ENCODING 39
SWIDTH 252 0
DWIDTH 5 0
BBX 2 6 1 7
BITMAP
C0
C0
C0
C0
C0
C0
ENDCHAR
STARTCHAR parenleft
ENCODING 40
SWIDTH 365 0
DWIDTH 7 0
BBX 5 16 1 -3
BITMAP
18
38
70
70
E0
E0
E0
E0
E0
E0
E0
E0
70
70
38
18
ENDCHAR
STARTCHAR parenright
ENCODING 41
SWIDTH 365 0
DWIDTH 7 0
BBX 5 16 0 -3
BITMAP
C0
E0
70
70
38
38
38
38
38
38
38
38
70
70
E0
C0
ENDCHAR
STARTCHAR asterisk
ENCODING 42
SWIDTH 442 0
DWIDTH 8 0
BBX 7 7 0 6
BITMAP
10
D6
7C
38
7C
D6
10
ENDCHAR
STARTCHAR plus
ENCODING 43
SWIDTH 600 0
DWIDTH 11 0
BBX 10 10 0 0
BITMAP
0C00
0C00
0C00
0C00
FFC0
FFC0
0C00
0C00
0C00
0C00
ENDCHAR
STARTCHAR comma
ENCODING 44
SWIDTH 280 0
DWIDTH 5 0
BBX 4 6 0 -3
BITMAP
60
F0
70
60
C0
80
ENDCHAR
STARTCHAR hyphen
ENCODING 45
SWIDTH 392 0
DWIDTH 7 0
BBX 5 2 1 4
BITMAP
F8
F8
ENDCHAR
STARTCHAR period
ENCODING 46
SWIDTH 280 0
DWIDTH 5 0
BBX 4 3 0 0
BITMAP
60
F0
60
ENDCHAR
STARTCHAR slash
ENCODING 47
SWIDTH 378 0
DWIDTH 7 0
BBX 4 13 1 0
BITMAP
30
30
30
30
60
60
60
60
60
C0
C0
C0
C0
ENDCHAR
STARTCHAR zero
ENCODING 48
SWIDTH 560 0
DWIDTH 11 0
BBX 10 13 0 0
BITMAP
1E00
7380
7380
F3C0
F3C0
F3C0
F3C0
F3C0
F3C0
F3C0
7380
7380
1E00
ENDCHAR
STARTCHAR one
ENCODING 49
SWIDTH 560 0
DWIDTH 11 0
BBX 8 13 1 0
BITMAP
3C
FC
3C
3C
3C
3C
3C
3C
3C
3C
3C
3C
FF
ENDCHAR
STARTCHAR two
ENCODING 50
SWIDTH 560 0
DWIDTH 11 0
BBX 10 13 0 0
BITMAP
1F00
7380
F3C0
63C0
03C0
03C0
0380
0600
1800
7000
F040
FFC0
FFC0
ENDCHAR
STARTCHAR three
ENCODING 51
SWIDTH 560 0
DWIDTH 11 0
BBX 10 13 0 0
BITMAP
3F00
7380
F3C0
63C0
03C0
0780
3E00
0780
03C0
63C0
F3C0
7380
3F00
ENDCHAR
STARTCHAR four
ENCODING 52
SWIDTH 560 0
DWIDTH 11 0
BBX 10 14 0 0
BITMAP
0600
0F00
0F00
1E00
1C80
3980
3B80
7780
6780
C780
FFC0
0780
0780
1FC0
ENDCHAR
STARTCHAR five
ENCODING 53
SWIDTH 560 0
DWIDTH 11 0
BBX 10 13 0 0
BITMAP
7F80
7F80
7F00
4000
4000
7F00
4380
03C0
03C0
63C0
F3C0
7380
3F00
ENDCHAR
STARTCHAR six
ENCODING 54
SWIDTH 560 0
DWIDTH 11 0
BBX 10 13 0 0
BITMAP
1F80
7BC0
71C0
F080
F000
F700
FB80
F3C0
F3C0
F3C0
73C0
7B80
1F00
ENDCHAR
STARTCHAR seven
ENCODING 55
SWIDTH 560 0
DWIDTH 11 0
BBX 10 13 0 0
BITMAP
7FC0
7FC0
FFC0
8380
0300
0600
0600
0C00
1C00
1C00
3C00
3C00
1800
ENDCHAR
STARTCHAR eight
ENCODING 56
SWIDTH 560 0
DWIDTH 11 0
BBX 10 13 0 0
BITMAP
3F00
7380
F3C0
F3C0
F3C0
7380
3F00
7380
F3C0
F3C0
F3C0
7380
3F00
ENDCHAR
STARTCHAR nine
ENCODING 57
SWIDTH 560 0
DWIDTH 11 0
BBX 10 13 0 0
BITMAP
3E00
7780
F380
F3C0
F3C0
F3C0
77C0
3BC0
03C0
43C0
E380
F780
7E00
ENDCHAR
STARTCHAR colon
ENCODING 58
SWIDTH 280 0
DWIDTH 5 0
BBX 4 9 0 0
BITMAP
60
F0
60
00
00
00
60
F0
60
ENDCHAR
STARTCHAR semicolon
ENCODING 59
SWIDTH 280 0
DWIDTH 5 0
BBX 4 12 0 -3
BITMAP
60
F0
60
00
00
00
60
F0
70
60
C0
80
ENDCHAR
STARTCHAR less
ENCODING 60
SWIDTH 600 0
DWIDTH 11 0
BBX 10 10 0 0
BITMAP
00C0
03C0
0F00
3C00
F000
F000
3C00
0F00
03C0
00C0
ENDCHAR
STARTCHAR equal
ENCODING 61
SWIDTH 600 0
DWIDTH 11 0
BBX 10 6 0 2
BITMAP
FFC0
FFC0
0000
0000
FFC0
FFC0
ENDCHAR
STARTCHAR greater
ENCODING 62
SWIDTH 600 0
DWIDTH 11 0
BBX 10 10 0 0
BITMAP
C000
F000
3C00
0F00
03C0
03C0
0F00
3C00
F000
C000
ENDCHAR
STARTCHAR question
ENCODING 63
SWIDTH 456 0
DWIDTH 8 0
BBX 7 13 0 0
BITMAP
7C
EE
CE
0E
1C
38
70
60
38
00
30
78
30
ENDCHAR
STARTCHAR at
ENCODING 64
SWIDTH 833 0
DWIDTH 16 0
BBX 15 13 0 0
BITMAP
07F0
1C1C
3004
63F6
6732
C672
CE62
CCE6
CD6C
CE78
6000
3830
0FE0
ENDCHAR
STARTCHAR A
ENCODING 65
SWIDTH 644 0
DWIDTH 12 0
BBX 12 13 0 0
BITMAP
0F00
0F00
0F00
1780
1780
1780
23C0
23C0
3FC0
41E0
41E0
41E0
E3F0
ENDCHAR
STARTCHAR B
ENCODING 66
SWIDTH 683 0
DWIDTH 13 0
BBX 12 13 0 0
BITMAP
FFC0
79E0
78F0
78F0
78F0
79E0
7FC0
79E0
78F0
78F0
78F0
79E0
FFC0
ENDCHAR
STARTCHAR C
ENCODING 67
SWIDTH 689 0
DWIDTH 13 0
BBX 12 13 0 0
BITMAP
0FE0
3870
7830
7010
F000
F000
F000
F000
F000
7010
7830
3870
0FE0
ENDCHAR
STARTCHAR D
ENCODING 68
SWIDTH 777 0
DWIDTH 14 0
BBX 13 13 0 0
BITMAP
FF80
78E0
7870
7870
7878
7878
7878
7878
7878
7870
7870
78E0
FF80
ENDCHAR
STARTCHAR E
ENCODING 69
SWIDTH 629 0
DWIDTH 12 0
BBX 11 13 0 0
BITMAP
FFC0
78C0
7840
7800
7880
7980
7F80
7980
7880
7820
7820
7860
FFE0
ENDCHAR
STARTCHAR F
ENCODING 70
SWIDTH 593 0
DWIDTH 11 0
BBX 10 13 0 0
BITMAP
FFC0
78C0
7840
7800
7880
7980
7F80
7980
7880
7800
7800
7800
FC00
ENDCHAR
STARTCHAR G
ENCODING 71
SWIDTH 726 0
DWIDTH 14 0
BBX 13 13 0 0
BITMAP
0FE0
3870
7830
7010
F000
F000
F000
F1F8
F0F0
70F0
78F0
38F0
0FE0
ENDCHAR
STARTCHAR H
ENCODING 72
SWIDTH 807 0
DWIDTH 15 0
BBX 14 13 0 0
BITMAP
FCFC
7878
7878
7878
7878
7878
7FF8
7878
7878
7878
7878
7878
FCFC
ENDCHAR
STARTCHAR I
ENCODING 73
SWIDTH 384 0
DWIDTH 7 0
BBX 6 13 0 0
BITMAP
FC
78
78
78
78
78
78
78
78
78
78
78
FC
ENDCHAR
STARTCHAR J
ENCODING 74
SWIDTH 386 0
DWIDTH 7 0
BBX 7 15 -1 -2
BITMAP
7E
3C
3C
3C
3C
3C
3C
3C
3C
3C
3C
3C
3C
38
E0
ENDCHAR
STARTCHAR K
ENCODING 75
SWIDTH 707 0
DWIDTH 13 0
BBX 14 13 0 0
BITMAP
FCF8
7860
78C0
7880
7900
7B00
7F80
7FC0
7BC0
79E0
78F0
78F8
FC7C
ENDCHAR
STARTCHAR L
ENCODING 76
SWIDTH 585 0
DWIDTH 11 0
BBX 10 13 0 0
BITMAP
FC00
7800
7800
7800
7800
7800
7800
7800
7800
7840
7840
78C0
FFC0
ENDCHAR
STARTCHAR M
ENCODING 77
SWIDTH 918 0
DWIDTH 17 0
BBX 16 13 0 0
BITMAP
F80F
780E
7C1E
7C1E
5E2E
5E2E
4F4E
4FCE
478E
478E
430E
430E
E01F
ENDCHAR
STARTCHAR N
ENCODING 78
SWIDTH 739 0
DWIDTH 14 0
BBX 13 13 0 0
BITMAP
F038
7810
7C10
7C10
5E10
4F10
4F90
4790
43D0
41F0
41F0
40F0
E070
ENDCHAR
STARTCHAR O
ENCODING 79
SWIDTH 768 0
DWIDTH 14 0
BBX 13 13 0 0
BITMAP
0F80
38E0
78F0
7070
F078
F078
F078
F078
F078
7070
78F0
38E0
0F80
ENDCHAR
STARTCHAR P
ENCODING 80
SWIDTH 650 0
DWIDTH 12 0
BBX 12 13 0 0
BITMAP
FFC0
79E0
78F0
78F0
78F0
78F0
79E0
7FC0
7800
7800
7800
7800
FC00
ENDCHAR
STARTCHAR Q
ENCODING 81
SWIDTH 768 0
DWIDTH 14 0
BBX 13 17 0 -4
BITMAP
0F80
38E0
78F0
7070
F078
F078
F078
F078
F078
7070
78F0
38E0
0F80
0380
03C0
01E0
0078
ENDCHAR
STARTCHAR R
ENCODING 82
SWIDTH 684 0
DWIDTH 13 0
BBX 13 13 0 0
BITMAP
FFC0
79E0
78F0
78F0
78F0
79E0
7F80
7BC0
79C0
79E0
79E0
78F0
FC78
ENDCHAR
STARTCHAR S
ENCODING 83
SWIDTH 561 0
DWIDTH 11 0
BBX 10 13 0 0
BITMAP
3F00
7380
E180
E080
F800
FE00
7F80
1FC0
07C0
81C0
C1C0
E380
7F00
ENDCHAR
STARTCHAR T
ENCODING 84
SWIDTH 624 0
DWIDTH 12 0
BBX 10 13 1 0
BITMAP
FFC0
DEC0
9E40
1E00
1E00
1E00
1E00
1E00
1E00
1E00
1E00
1E00
7F80
ENDCHAR
STARTCHAR U
ENCODING 85
SWIDTH 786 0
DWIDTH 14 0
BBX 13 13 0 0
BITMAP
FDF8
78F0
78F0
78F0
78F0
78F0
78F0
78F0
78F0
78F0
78F0
38E0
1FC0
ENDCHAR
STARTCHAR V
ENCODING 86
SWIDTH 645 0
DWIDTH 12 0
BBX 12 13 0 0
BITMAP
FC70
7820
7820
7820
3C40
3C40
3C40
1E80
1E80
1E80
0F00
0F00
0F00
ENDCHAR
STARTCHAR W
ENCODING 87
SWIDTH 933 0
DWIDTH 18 0
BBX 19 13 -1 0
BITMAP
FC78E0
787840
787840
78F880
3CBC80
3CBC80
3CBC80
3D3D00
1D1D00
1F1F00
1F1F00
1E1E00
0E0E00
ENDCHAR
STARTCHAR X
ENCODING 88
SWIDTH 634 0
DWIDTH 12 0
BBX 11 13 0 0
BITMAP
FDE0
78C0
3C80
3D00
1F00
1E00
0F00
0F00
1780
1780
23C0
63C0
F7E0
ENDCHAR
STARTCHAR Y
ENCODING 89
SWIDTH 617 0
DWIDTH 12 0
BBX 13 13 -1 0
BITMAP
FC78
7830
7820
3C40
3C40
1E80
1E80
0F00
0F00
0F00
0F00
0F00
1F80
ENDCHAR
STARTCHAR Z
ENCODING 90
SWIDTH 614 0
DWIDTH 12 0
BBX 11 13 0 0
BITMAP
FFC0
C3C0
8780
8780
0F00
0F00
1E00
3C00
3C00
7800
7820
F060
FFE0
ENDCHAR
STARTCHAR bracketleft
ENCODING 91
SWIDTH 335 0
DWIDTH 6 0
BBX 4 16 1 -3
BITMAP
F0
E0
E0
E0
E0
E0
E0
E0
E0
E0
E0
E0
E0
E0
E0
F0
ENDCHAR
STARTCHAR backslash
ENCODING 92
SWIDTH 379 0
DWIDTH 7 0
BBX 4 13 1 0
BITMAP
C0
C0
C0
C0
60
60
60
60
60
30
30
30
30
ENDCHAR
STARTCHAR bracketright
ENCODING 93
SWIDTH 335 0
DWIDTH 6 0
BBX 4 16 1 -3
BITMAP
F0
70
70
70
70
70
70
70
70
70
70
70
70
70
70
F0
ENDCHAR
STARTCHAR asciicircum
ENCODING 94
SWIDTH 600 0
DWIDTH 11 0
BBX 10 10 0 3
BITMAP
0C00
0C00
1E00
1E00
3300
3300
6180
6180
C0C0
C0C0
ENDCHAR
STARTCHAR underscore
ENCODING 95
SWIDTH 500 0
DWIDTH 9 0
BBX 9 1 0 -3
BITMAP
FF80
ENDCHAR
STARTCHAR grave
ENCODING 96
SWIDTH 430 0
DWIDTH 8 0
BBX 5 3 1 10
BITMAP
E0
70
18
ENDCHAR
STARTCHAR a
ENCODING 97
SWIDTH 544 0
DWIDTH 10 0
BBX 9 9 0 0
BITMAP
7E00
EF00
C700
0F00
7700
E700
E700
EF00
7780
ENDCHAR
STARTCHAR b
ENCODING 98
SWIDTH 605 0
DWIDTH 11 0
BBX 11 14 -1 0
BITMAP
F000
7000
7000
7000
7000
7780
79C0
71E0
70E0
70E0
70E0
71E0
79C0
6F80
ENDCHAR
STARTCHAR c
ENCODING 99
SWIDTH 494 0
DWIDTH 9 0
BBX 8 9 0 0
BITMAP
1E
77
F3
E0
E0
E0
F1
73
1E
ENDCHAR
STARTCHAR d
ENCODING 100
SWIDTH 605 0
DWIDTH 11 0
BBX 11 14 0 0
BITMAP
03C0
01C0
01C0
01C0
01C0
3FC0
73C0
F1C0
E1C0
E1C0
E1C0
F1C0
73C0
3DE0
ENDCHAR
STARTCHAR e
ENCODING 101
SWIDTH 519 0
DWIDTH 10 0
BBX 9 9 0 0
BITMAP
1E00
7380
F380
FF80
E000
E000
F080
7180
1F00
ENDCHAR
STARTCHAR f
ENCODING 102
SWIDTH 342 0
DWIDTH 7 0
BBX 7 14 0 0
BITMAP
3C
6E
66
70
70
FC
70
70
70
70
70
70
70
F8
ENDCHAR
STARTCHAR g
ENCODING 103
SWIDTH 533 0
DWIDTH 10 0
BBX 10 13 0 -4
BITMAP
3F80
7700
E380
E380
7700
3E00
7000
FE00
7F80
67C0
C1C0
E380
7F00
ENDCHAR
STARTCHAR h
ENCODING 104
SWIDTH 631 0
DWIDTH 12 0
BBX 11 14 0 0
BITMAP
F000
7000
7000
7000
7000
7780
7BC0
71C0
71C0
71C0
71C0
71C0
71C0
FBE0
ENDCHAR
STARTCHAR i
ENCODING 105
SWIDTH 316 0
DWIDTH 6 0
BBX 5 14 0 0
BITMAP
60
F0
60
00
00
F0
70
70
70
70
70
70
70
F8
ENDCHAR
STARTCHAR j
ENCODING 106
SWIDTH 316 0
DWIDTH 6 0
BBX 5 18 -1 -4
BITMAP
30
78
30
00
00
78
38
38
38
38
38
38
38
38
38
38
70
E0
ENDCHAR
STARTCHAR k
ENCODING 107
SWIDTH 582 0
DWIDTH 11 0
BBX 11 14 0 0
BITMAP
F000
7000
7000
7000
7000
71E0
7180
7300
7600
7F00
7700
7380
73C0
F9E0
ENDCHAR
STARTCHAR l
ENCODING 108
SWIDTH 309 0
DWIDTH 6 0
BBX 5 14 0 0
BITMAP
F0
70
70
70
70
70
70
70
70
70
70
70
70
F8
ENDCHAR
STARTCHAR m
ENCODING 109
SWIDTH 948 0
DWIDTH 18 0
BBX 17 9 0 0
BITMAP
F79E00
7BEF00
71C700
71C700
71C700
71C700
71C700
71C700
FBEF80
ENDCHAR
STARTCHAR n
ENCODING 110
SWIDTH 638 0
DWIDTH 12 0
BBX 11 9 0 0
BITMAP
F780
7BC0
71C0
71C0
71C0
71C0
71C0
71C0
FBE0
ENDCHAR
STARTCHAR o
ENCODING 111
SWIDTH 585 0
DWIDTH 11 0
BBX 10 9 0 0
BITMAP
1E00
7380
F3C0
E1C0
E1C0
E1C0
F3C0
7380
1E00
ENDCHAR
STARTCHAR p
ENCODING 112
SWIDTH 615 0
DWIDTH 12 0
BBX 11 13 0 -4
BITMAP
F780
79C0
71E0
70E0
70E0
70E0
71E0
79C0
7F80
7000
7000
7000
F800
ENDCHAR
STARTCHAR q
ENCODING 113
SWIDTH 597 0
DWIDTH 11 0
BBX 11 14 0 -4
BITMAP
0040
3EC0
73C0
F1C0
E1C0
E1C0
E1C0
F1C0
73C0
3DC0
01C0
01C0
01C0
07E0
ENDCHAR
STARTCHAR r
ENCODING 114
SWIDTH 440 0
DWIDTH 8 0
BBX 8 9 0 0
BITMAP
EE
7F
76
70
70
70
70
70
F8
ENDCHAR
STARTCHAR s
ENCODING 115
SWIDTH 446 0
DWIDTH 8 0
BBX 8 9 0 0
BITMAP
3E
66
E2
F8
7E
1F
87
C6
FC
ENDCHAR
STARTCHAR t
ENCODING 116
SWIDTH 370 0
DWIDTH 7 0
BBX 7 11 0 0
BITMAP
30
70
FC
70
70
70
70
70
70
7A
3C
ENDCHAR
STARTCHAR u
ENCODING 117
SWIDTH 629 0
DWIDTH 12 0
BBX 11 9 0 0
BITMAP
F3C0
71C0
71C0
71C0
71C0
71C0
71C0
7BC0
3DE0
ENDCHAR
STARTCHAR v
ENCODING 118
SWIDTH 520 0
DWIDTH 10 0
BBX 9 9 0 0
BITMAP
FB80
7100
7100
7A00
3A00
3A00
1C00
1C00
1C00
ENDCHAR
STARTCHAR w
ENCODING 119
SWIDTH 774 0
DWIDTH 15 0
BBX 15 9 0 0
BITMAP
F9CE
71C4
71C4
3AE8
3AE8
3AE8
1C70
1C70
1C70
ENDCHAR
STARTCHAR x
ENCODING 120
SWIDTH 522 0
DWIDTH 10 0
BBX 9 9 0 0
BITMAP
FB80
7300
3A00
3C00
1C00
1E00
2E00
6700
EF80
ENDCHAR
STARTCHAR y
ENCODING 121
SWIDTH 524 0
DWIDTH 10 0
BBX 9 13 0 -4
BITMAP
FB80
7100
7100
3A00
3A00
1E00
1C00
1C00
0C00
0800
7000
F000
6000
ENDCHAR
STARTCHAR z
ENCODING 122
SWIDTH 483 0
DWIDTH 9 0
BBX 8 9 0 0
BITMAP
FF
CF
8E
1C
3C
38
71
F1
FF
ENDCHAR
STARTCHAR braceleft
ENCODING 123
SWIDTH 365 0
DWIDTH 7 0
BBX 6 16 0 -3
BITMAP
1C
38
38
38
38
38
30
E0
30
38
38
38
38
38
38
1C
ENDCHAR
STARTCHAR bar
ENCODING 124
SWIDTH 284 0
DWIDTH 5 0
BBX 2 13 1 0
BITMAP
C0
C0
C0
C0
C0
C0
C0
C0
C0
C0
C0
C0
C0
ENDCHAR
STARTCHAR braceright
ENCODING 125
SWIDTH 365 0
DWIDTH 7 0
BBX 6 16 0 -3
BITMAP
E0
70
70
70
70
70
30
1C
30
70
70
70
70
70
70
E0
ENDCHAR
STARTCHAR asciitilde
ENCODING 126
SWIDTH 600 0
DWIDTH 11 0
BBX 10 3 0 4
BITMAP
38C0
7F80
C700
ENDCHAR
STARTCHAR space
ENCODING 160
SWIDTH 210 0
DWIDTH 4 0
BBX 0 0 0 0
BITMAP
ENDCHAR
STARTCHAR Aogonek
ENCODING 161
SWIDTH 644 0
DWIDTH 12 0
BBX 12 17 0 -4
BITMAP
0F00
0F00
0F00
1780
1780
1780
23C0
23C0
3FC0
41E0
41E0
41E0
E3F0
0300
0600
0600
0380
ENDCHAR
STARTCHAR breve
ENCODING 162
SWIDTH 430 0
DWIDTH 8 0
BBX 6 3 1 10
BITMAP
84
CC
78
ENDCHAR
STARTCHAR Lslash
ENCODING 163
SWIDTH 591 0
DWIDTH 11 0
BBX 10 13 0 0
BITMAP
FC00
7800
7800
7800
7B00
7C00
7800
F800
7800
7840
7840
78C0
FFC0
ENDCHAR
STARTCHAR currency
ENCODING 164
SWIDTH 560 0
DWIDTH 11 0
BBX 9 10 1 2
BITMAP
DD80
FF80
6300
C180
C180
C180
C180
6300
FF80
DD80
ENDCHAR
STARTCHAR Lcaron
ENCODING 165
SWIDTH 808 0
DWIDTH 15 0
BBX 14 13 0 0
BITMAP
FC18
783C
781C
7818
7830
7820
7800
7800
7800
7840
7840
78C0
FFC0
ENDCHAR
STARTCHAR Sacute
ENCODING 166
SWIDTH 561 0
DWIDTH 11 0
BBX 10 17 0 0
BITMAP
0700
0E00
1800
0000
3F00
7380
E180
E080
F800
FE00
7F80
1FC0
07C0
81C0
C1C0
E380
7F00
ENDCHAR
STARTCHAR section
ENCODING 167
SWIDTH 566 0
DWIDTH 11 0
BBX 9 15 1 -2
BITMAP
1E00
2300
3000
7800
9E00
8F00
C380
E180
7880
3C80
0F00
0700
2200
7200
3C00
ENDCHAR
STARTCHAR dieresis
ENCODING 168
SWIDTH 430 0
DWIDTH 8 0
BBX 6 2 1 10
BITMAP
CC
CC
ENDCHAR
STARTCHAR Scaron
ENCODING 169
SWIDTH 561 0
DWIDTH 11 0
BBX 10 14 0 0
BITMAP
6600
3C00
1800
0000
3F00
7380
F180
FC00
7F00
1F80
07C0
C3C0
E380
7F00
ENDCHAR
STARTCHAR Scedilla
ENCODING 170
SWIDTH 561 0
DWIDTH 11 0
BBX 10 17 0 -4
BITMAP
3F00
7380
E180
E080
F800
FE00
7F80
1FC0
07C0
81C0
C1C0
E380
7F00
0400
0E00
0600
1C00
ENDCHAR
STARTCHAR Tcaron
ENCODING 171
SWIDTH 624 0
DWIDTH 12 0
BBX 10 17 1 0
BITMAP
3300
1E00
0C00
0000
FFC0
DEC0
9E40
1E00
1E00
1E00
1E00
1E00
1E00
1E00
1E00
1E00
7F80
ENDCHAR
STARTCHAR Zacute
ENCODING 172
SWIDTH 614 0
DWIDTH 12 0
BBX 11 17 0 0
BITMAP
0380
0700
0C00
0000
FFC0
C3C0
8780
8780
0F00
0F00
1E00
3C00
3C00
7800
7820
F060
FFE0
ENDCHAR
STARTCHAR hyphen
ENCODING 173
SWIDTH 392 0
DWIDTH 7 0
BBX 5 2 1 4
BITMAP
F8
F8
ENDCHAR
STARTCHAR Zcaron
ENCODING 174
SWIDTH 614 0
DWIDTH 12 0
BBX 11 14 0 0
BITMAP
3300
1E00
0C00
0000
FFC0
C780
8F80
0F00
1E00
3C00
7C00
7820
F060
FFE0
ENDCHAR
STARTCHAR Zdotaccent
ENCODING 175
SWIDTH 614 0
DWIDTH 12 0
BBX 11 16 0 0
BITMAP
0C00
0C00
0000
FFC0
C3C0
8780
8780
0F00
0F00
1E00
3C00
3C00
7800
7820
F060
FFE0
ENDCHAR
STARTCHAR degree
ENCODING 176
SWIDTH 396 0
DWIDTH 8 0
BBX 6 6 1 7
BITMAP
78
CC
84
84
CC
78
ENDCHAR
STARTCHAR aogonek
ENCODING 177
SWIDTH 544 0
DWIDTH 10 0
BBX 9 13 0 -4
BITMAP
7E00
EF00
C700
0F00
7700
E700
E700
EF00
7780
0C00
1800
1800
0E00
ENDCHAR
STARTCHAR ogonek
ENCODING 178
SWIDTH 430 0
DWIDTH 8 0
BBX 4 4 2 -4
BITMAP
60
C0
C0
70
ENDCHAR
STARTCHAR lslash
ENCODING 179
SWIDTH 321 0
DWIDTH 6 0
BBX 6 14 0 0
BITMAP
F0
70
70
70
74
78
70
70
F0
70
70
70
70
F8
ENDCHAR
STARTCHAR acute
ENCODING 180
SWIDTH 430 0
DWIDTH 8 0
BBX 5 3 1 10
BITMAP
38
70
C0
ENDCHAR
STARTCHAR lcaron
ENCODING 181
SWIDTH 546 0
DWIDTH 11 0
BBX 10 14 0 0
BITMAP
F000
7180
73C0
71C0
7180
7300
7200
7000
7000
7000
7000
7000
7000
F800
ENDCHAR
STARTCHAR sacute
ENCODING 182
SWIDTH 446 0
DWIDTH 8 0
BBX 8 13 0 0
BITMAP
0E
1C
30
00
3E
66
E2
F8
7E
1F
87
C6
FC
ENDCHAR
STARTCHAR caron
ENCODING 183
SWIDTH 430 0
DWIDTH 8 0
BBX 6 3 1 10
BITMAP
CC
78
30
ENDCHAR
STARTCHAR cedilla
ENCODING 184
SWIDTH 430 0
DWIDTH 8 0
BBX 4 4 2 -4
BITMAP
20
70
30
E0
ENDCHAR
STARTCHAR scaron
ENCODING 185
SWIDTH 446 0
DWIDTH 8 0
BBX 8 13 0 0
BITMAP
66
3C
18
00
3E
66
E2
F8
7E
1F
87
C6
FC
ENDCHAR
STARTCHAR scedilla
ENCODING 186
SWIDTH 446 0
DWIDTH 8 0
BBX 8 13 0 -4
BITMAP
3E
66
E2
F8
7E
1F
87
C6
FC
10
38
18
70
ENDCHAR
STARTCHAR tcaron
ENCODING 187
SWIDTH 604 0
DWIDTH 12 0
BBX 11 13 0 0
BITMAP
00C0
01E0
30E0
70C0
FD80
7100
7000
7000
7000
7000
7000
7A00
3C00
ENDCHAR
STARTCHAR zacute
ENCODING 188
SWIDTH 483 0
DWIDTH 9 0
BBX 8 13 0 0
BITMAP
07
0E
18
00
FF
CF
8E
1C
3C
38
71
F1
FF
ENDCHAR
STARTCHAR hungarumlaut
ENCODING 189
SWIDTH 430 0
DWIDTH 8 0
BBX 7 3 0 10
BITMAP
36
6C
D8
ENDCHAR
STARTCHAR zcaron
ENCODING 190
SWIDTH 483 0
DWIDTH 9 0
BBX 8 13 0 0
BITMAP
66
3C
18
00
FF
CF
8E
1C
3C
38
71
F1
FF
ENDCHAR
STARTCHAR zdotaccent
ENCODING 191
SWIDTH 483 0
DWIDTH 9 0
BBX 8 12 0 0
BITMAP
18
18
00
FF
CF
8E
1C
3C
38
71
F1
FF
ENDCHAR
STARTCHAR Racute
ENCODING 192
SWIDTH 684 0
DWIDTH 13 0
BBX 13 17 0 0
BITMAP
01C0
0380
0600
0000
FFC0
79E0
78F0
78F0
78F0
79E0
7F80
7BC0
79C0
79E0
79E0
78F0
FC78
ENDCHAR
STARTCHAR Aacute
ENCODING 193
SWIDTH 644 0
DWIDTH 12 0
BBX 12 14 0 0
BITMAP
0380
0700
0C00
0000
0F00
0F00
1780
1780
23C0
3FC0
23C0
41E0
41E0
E3F0
ENDCHAR
STARTCHAR Acircumflex
ENCODING 194
SWIDTH 644 0
DWIDTH 12 0
BBX 12 14 0 0
BITMAP
0600
0F00
1980
0000
0F00
0F00
1780
1780
23C0
3FC0
23C0
41E0
41E0
E3F0
ENDCHAR
STARTCHAR Abreve
ENCODING 195
SWIDTH 644 0
DWIDTH 12 0
BBX 12 17 0 0
BITMAP
1080
1980
0F00
0000
0F00
0F00
0F00
1780
1780
1780
23C0
23C0
3FC0
41E0
41E0
41E0
E3F0
ENDCHAR
STARTCHAR Adieresis
ENCODING 196
SWIDTH 644 0
DWIDTH 12 0
BBX 12 13 0 0
BITMAP
1980
1980
0000
0F00
0F00
1780
1780
23C0
3FC0
23C0
41E0
41E0
E3F0
ENDCHAR
STARTCHAR Lacute
ENCODING 197
SWIDTH 585 0
DWIDTH 11 0
BBX 10 17 0 0
BITMAP
0E00
1C00
3000
0000
FC00
7800
7800
7800
7800
7800
7800
7800
7800
7840
7840
78C0
FFC0
ENDCHAR
STARTCHAR Cacute
ENCODING 198
SWIDTH 689 0
DWIDTH 13 0
BBX 12 17 0 0
BITMAP
01C0
0380
0600
0000
0FE0
3870
7830
7010
F000
F000
F000
F000
F000
7010
7830
3870
0FE0
ENDCHAR
STARTCHAR Ccedilla
ENCODING 199
SWIDTH 689 0
DWIDTH 13 0
BBX 12 17 0 -4
BITMAP
0FE0
3870
7830
7010
F000
F000
F000
F000
F000
7010
7830
3870
0FE0
0200
0700
0300
0E00
ENDCHAR
STARTCHAR Ccaron
ENCODING 200
SWIDTH 689 0
DWIDTH 13 0
BBX 12 17 0 0
BITMAP
1980
0F00
0600
0000
0FE0
3870
7830
7010
F000
F000
F000
F000
F000
7010
7830
3870
0FE0
ENDCHAR
STARTCHAR Eacute
ENCODING 201
SWIDTH 629 0
DWIDTH 12 0
BBX 11 14 0 0
BITMAP
0700
0E00
1800
0000
FFC0
7840
7800
7880
7F80
7880
7800
7820
7860
FFE0
ENDCHAR
STARTCHAR Eogonek
ENCODING 202
SWIDTH 629 0
DWIDTH 12 0
BBX 11 17 0 -4
BITMAP
FFC0
78C0
7840
7800
7880
7980
7F80
7980
7880
7820
7820
7860
FFE0
0600
0C00
0C00
0700
ENDCHAR
STARTCHAR Edieresis
ENCODING 203
SWIDTH 629 0
DWIDTH 12 0
BBX 11 13 0 0
BITMAP
3300
3300
0000
FFC0
7840
7800
7880
7F80
7880
7800
7820
7860
FFE0
ENDCHAR
STARTCHAR Ecaron
ENCODING 204
SWIDTH 629 0
DWIDTH 12 0
BBX 11 17 0 0
BITMAP
3300
1E00
0C00
0000
FFC0
78C0
7840
7800
7880
7980
7F80
7980
7880
7820
7820
7860
FFE0
ENDCHAR
STARTCHAR Iacute
ENCODING 205
SWIDTH 384 0
DWIDTH 7 0
BBX 6 14 0 0
BITMAP
1C
38
60
00
FC
78
78
78
78
78
78
78
78
FC
ENDCHAR
STARTCHAR Icircumflex
ENCODING 206
SWIDTH 384 0
DWIDTH 7 0
BBX 6 14 0 0
BITMAP
30
78
CC
00
FC
78
78
78
78
78
78
78
78
FC
ENDCHAR
STARTCHAR Dcaron
ENCODING 207
SWIDTH 777 0
DWIDTH 14 0
BBX 13 17 0 0
BITMAP
1980
0F00
0600
0000
FF80
78E0
7870
7870
7878
7878
7878
7878
7878
7870
7870
78E0
FF80
ENDCHAR
STARTCHAR Dcroat
ENCODING 208
SWIDTH 783 0
DWIDTH 14 0
BBX 13 13 0 0
BITMAP
FF80
78E0
7870
7870
7878
7878
FE78
7878
7878
7870
7870
78E0
FF80
ENDCHAR
STARTCHAR Nacute
ENCODING 209
SWIDTH 739 0
DWIDTH 14 0
BBX 13 17 0 0
BITMAP
0380
0700
0C00
0000
F038
7810
7C10
7C10
5E10
4F10
4F90
4790
43D0
41F0
41F0
40F0
E070
ENDCHAR
STARTCHAR Ncaron
ENCODING 210
SWIDTH 739 0
DWIDTH 14 0
BBX 13 17 0 0
BITMAP
1980
0F00
0600
0000
F038
7810
7C10
7C10
5E10
4F10
4F90
4790
43D0
41F0
41F0
40F0
E070
ENDCHAR
STARTCHAR Oacute
ENCODING 211
SWIDTH 768 0
DWIDTH 14 0
BBX 13 14 0 0
BITMAP
0380
0700
0C00
0000
0F80
38E0
78F0
7070
F078
F078
7070
78F0
38E0
0F80
ENDCHAR
STARTCHAR Ocircumflex
ENCODING 212
SWIDTH 768 0
DWIDTH 14 0
BBX 13 14 0 0
BITMAP
0600
0F00
1980
0000
0F80
38E0
78F0
7070
F078
F078
7070
78F0
38E0
0F80
ENDCHAR
STARTCHAR Ohungarumlaut
ENCODING 213
SWIDTH 768 0
DWIDTH 14 0
BBX 13 17 0 0
BITMAP
0360
06C0
0D80
0000
0F80
38E0
78F0
7070
F078
F078
F078
F078
F078
7070
78F0
38E0
0F80
ENDCHAR
STARTCHAR Odieresis
ENCODING 214
SWIDTH 768 0
DWIDTH 14 0
BBX 13 13 0 0
BITMAP
1980
1980
0000
0F80
38E0
78F0
7070
F078
F078
7070
78F0
38E0
0F80
ENDCHAR
STARTCHAR multiply
ENCODING 215
SWIDTH 600 0
DWIDTH 11 0
BBX 9 9 1 0
BITMAP
4100
E380
7700
3E00
1C00
3E00
7700
E380
4100
ENDCHAR
STARTCHAR Rcaron
ENCODING 216
SWIDTH 684 0
DWIDTH 13 0
BBX 13 17 0 0
BITMAP
1980
0F00
0600
0000
FFC0
79E0
78F0
78F0
78F0
79E0
7F80
7BC0
79C0
79E0
79E0
78F0
FC78
ENDCHAR
STARTCHAR Uring
ENCODING 217
SWIDTH 786 0
DWIDTH 14 0
BBX 13 18 0 0
BITMAP
0300
0480
0480
0300
0000
FDF8
78F0
78F0
78F0
78F0
78F0
78F0
78F0
78F0
78F0
78F0
38E0
1FC0
ENDCHAR
STARTCHAR Uacute
ENCODING 218
SWIDTH 786 0
DWIDTH 14 0
BBX 13 14 0 0
BITMAP
0380
0700
0C00
0000
FDF8
78F0
78F0
78F0
78F0
78F0
78F0
78F0
38E0
1FC0
ENDCHAR
STARTCHAR Uhungarumlaut
ENCODING 219
SWIDTH 786 0
DWIDTH 14 0
BBX 13 17 0 0
BITMAP
0360
06C0
0D80
0000
FDF8
78F0
78F0
78F0
78F0
78F0
78F0
78F0
78F0
78F0
78F0
38E0
1FC0
ENDCHAR
STARTCHAR Udieresis
ENCODING 220
SWIDTH 786 0
DWIDTH 14 0
BBX 13 13 0 0
BITMAP
0CC0
0CC0
0000
FDF8
78F0
78F0
78F0
78F0
78F0
78F0
78F0
38E0
1FC0
ENDCHAR
STARTCHAR Yacute
ENCODING 221
SWIDTH 617 0
DWIDTH 12 0
BBX 13 14 -1 0
BITMAP
00E0
01C0
0300
0000
FC78
7830
7820
3C40
1E80
1E80
0F00
0F00
0F00
1F80
ENDCHAR
STARTCHAR Tcommaaccent
ENCODING 222
SWIDTH 624 0
DWIDTH 12 0
BBX 10 17 1 -4
BITMAP
FFC0
DEC0
9E40
1E00
1E00
1E00
1E00
1E00
1E00
1E00
1E00
1E00
7F80
0400
0E00
0600
1C00
ENDCHAR
STARTCHAR germandbls
ENCODING 223
SWIDTH 662 0
DWIDTH 12 0
BBX 12 14 0 0
BITMAP
1F00
3980
71C0
71C0
7180
7300
7700
7780
77C0
73E0
71F0
70F0
76E0
F3C0
ENDCHAR
STARTCHAR racute
ENCODING 224
SWIDTH 440 0
DWIDTH 8 0
BBX 8 13 0 0
BITMAP
07
0E
18
00
EE
7F
76
70
70
70
70
70
F8
ENDCHAR
STARTCHAR aacute
ENCODING 225
SWIDTH 544 0
DWIDTH 10 0
BBX 9 13 0 0
BITMAP
0E00
1C00
3000
0000
7E00
EF00
C700
0F00
7700
E700
E700
EF00
7780
ENDCHAR
STARTCHAR acircumflex
ENCODING 226
SWIDTH 544 0
DWIDTH 10 0
BBX 9 13 0 0
BITMAP
1800
3C00
6600
0000
7E00
EF00
C700
0F00
7700
E700
E700
EF00
7780
ENDCHAR
STARTCHAR abreve
ENCODING 227
SWIDTH 544 0
DWIDTH 10 0
BBX 9 13 0 0
BITMAP
4200
6600
3C00
0000
7E00
EF00
C700
0F00
7700
E700
E700
EF00
7780
ENDCHAR
STARTCHAR adieresis
ENCODING 228
SWIDTH 544 0
DWIDTH 10 0
BBX 9 12 0 0
BITMAP
6600
6600
0000
7E00
EF00
C700
0F00
7700
E700
E700
EF00
7780
ENDCHAR
STARTCHAR lacute
ENCODING 229
SWIDTH 309 0
DWIDTH 6 0
BBX 6 18 0 0
BITMAP
1C
38
60
00
F0
70
70
70
70
70
70
70
70
70
70
70
70
F8
ENDCHAR
STARTCHAR cacute
ENCODING 230
SWIDTH 494 0
DWIDTH 9 0
BBX 8 13 0 0
BITMAP
07
0E
18
00
1E
77
F3
E0
E0
E0
F1
73
1E
ENDCHAR
STARTCHAR ccedilla
ENCODING 231
SWIDTH 494 0
DWIDTH 9 0
BBX 8 13 0 -4
BITMAP
1E
77
F3
E0
E0
E0
F1
73
1E
08
1C
0C
38
ENDCHAR
STARTCHAR ccaron
ENCODING 232
SWIDTH 494 0
DWIDTH 9 0
BBX 8 13 0 0
BITMAP
66
3C
18
00
1E
77
F3
E0
E0
E0
F1
73
1E
ENDCHAR
STARTCHAR eacute
ENCODING 233
SWIDTH 519 0
DWIDTH 10 0
BBX 9 13 0 0
BITMAP
0E00
1C00
3000
0000
1E00
7380
F380
FF80
E000
E000
F080
7180
1F00
ENDCHAR
STARTCHAR eogonek
ENCODING 234
SWIDTH 519 0
DWIDTH 10 0
BBX 9 13 0 -4
BITMAP
1E00
7380
F380
FF80
E000
E000
F080
7180
1F00
0C00
1800
1800
0E00
ENDCHAR
STARTCHAR edieresis
ENCODING 235
SWIDTH 519 0
DWIDTH 10 0
BBX 9 12 0 0
BITMAP
6600
6600
0000
1E00
7380
F380
FF80
E000
E000
F080
7180
1F00
ENDCHAR
STARTCHAR ecaron
ENCODING 236
SWIDTH 519 0
DWIDTH 10 0
BBX 9 13 0 0
BITMAP
3300
1E00
0C00
0000
1E00
7380
F380
FF80
E000
E000
F080
7180
1F00
ENDCHAR
STARTCHAR iacute
ENCODING 237
SWIDTH 316 0
DWIDTH 6 0
BBX 5 13 0 0
BITMAP
38
70
C0
00
F0
70
70
70
70
70
70
70
F8
ENDCHAR
STARTCHAR icircumflex
ENCODING 238
SWIDTH 316 0
DWIDTH 6 0
BBX 6 13 -1 0
BITMAP
30
78
CC
00
78
38
38
38
38
38
38
38
7C
ENDCHAR
STARTCHAR dcaron
ENCODING 239
SWIDTH 827 0
DWIDTH 15 0
BBX 14 14 0 0
BITMAP
03C0
01D8
01FC
01DC
01D8
3FF0
73E0
F1C0
E1C0
E1C0
E1C0
F1C0
73C0
3DE0
ENDCHAR
STARTCHAR dcroat
ENCODING 240
SWIDTH 605 0
DWIDTH 11 0
BBX 11 14 0 0
BITMAP
03C0
01C0
01C0
07E0
01C0
3FC0
73C0
F1C0
E1C0
E1C0
E1C0
F1C0
73C0
3DE0
ENDCHAR
STARTCHAR nacute
ENCODING 241
SWIDTH 638 0
DWIDTH 12 0
BBX 11 13 0 0
BITMAP
0380
0700
0C00
0000
F780
7BC0
71C0
71C0
71C0
71C0
71C0
71C0
FBE0
ENDCHAR
STARTCHAR ncaron
ENCODING 242
SWIDTH 638 0
DWIDTH 12 0
BBX 11 13 0 0
BITMAP
3300
1E00
0C00
0000
F780
7BC0
71C0
71C0
71C0
71C0
71C0
71C0
FBE0
ENDCHAR
STARTCHAR oacute
ENCODING 243
SWIDTH 585 0
DWIDTH 11 0
BBX 10 13 0 0
BITMAP
0E00
1C00
3000
0000
1E00
7380
F3C0
E1C0
E1C0
E1C0
F3C0
7380
1E00
ENDCHAR
STARTCHAR ocircumflex
ENCODING 244
SWIDTH 585 0
DWIDTH 11 0
BBX 10 13 0 0
BITMAP
0C00
1E00
3300
0000
1E00
7380
F3C0
E1C0
E1C0
E1C0
F3C0
7380
1E00
ENDCHAR
STARTCHAR ohungarumlaut
ENCODING 245
SWIDTH 585 0
DWIDTH 11 0
BBX 10 13 0 0
BITMAP
0D80
1B00
3600
0000
1E00
7380
F3C0
E1C0
E1C0
E1C0
F3C0
7380
1E00
ENDCHAR
STARTCHAR odieresis
ENCODING 246
SWIDTH 585 0
DWIDTH 11 0
BBX 10 12 0 0
BITMAP
3300
3300
0000
1E00
7380
F3C0
E1C0
E1C0
E1C0
F3C0
7380
1E00
ENDCHAR
STARTCHAR divide
ENCODING 247
SWIDTH 600 0
DWIDTH 11 0
BBX 10 8 0 1
BITMAP
0C00
0C00
0000
FFC0
FFC0
0000
0C00
0C00
ENDCHAR
STARTCHAR rcaron
ENCODING 248
SWIDTH 440 0
DWIDTH 8 0
BBX 8 13 0 0
BITMAP
66
3C
18
00
EE
7F
76
70
70
70
70
70
F8
ENDCHAR
STARTCHAR uring
ENCODING 249
SWIDTH 629 0
DWIDTH 12 0
BBX 11 14 0 0
BITMAP
0C00
1200
1200
0C00
0000
F3C0
71C0
71C0
71C0
71C0
71C0
71C0
7BC0
3DE0
ENDCHAR
STARTCHAR uacute
ENCODING 250
SWIDTH 629 0
DWIDTH 12 0
BBX 11 13 0 0
BITMAP
0700
0E00
1800
0000
F3C0
71C0
71C0
71C0
71C0
71C0
71C0
7BC0
3DE0
ENDCHAR
STARTCHAR uhungarumlaut
ENCODING 251
SWIDTH 629 0
DWIDTH 12 0
BBX 11 13 0 0
BITMAP
06C0
0D80
1B00
0000
F3C0
71C0
71C0
71C0
71C0
71C0
71C0
7BC0
3DE0
ENDCHAR
STARTCHAR udieresis
ENCODING 252
SWIDTH 629 0
DWIDTH 12 0
BBX 11 12 0 0
BITMAP
3300
3300
0000
F3C0
71C0
71C0
71C0
71C0
71C0
71C0
7BC0
3DE0
ENDCHAR
STARTCHAR yacute
ENCODING 253
SWIDTH 524 0
DWIDTH 10 0
BBX 9 17 0 -4
BITMAP
0700
0E00
1800
0000
FB80
7100
7100
3A00
3A00
1E00
1C00
1C00
0C00
0800
7000
F000
6000
ENDCHAR
STARTCHAR tcommaaccent
ENCODING 254
SWIDTH 370 0
DWIDTH 7 0
BBX 7 15 0 -4
BITMAP
30
70
FC
70
70
70
70
70
70
7A
3C
10
38
18
70
ENDCHAR
STARTCHAR dotaccent
ENCODING 255
SWIDTH 430 0
DWIDTH 8 0
BBX 2 2 3 10
BITMAP
C0
C0
ENDCHAR
ENDFONT
