STARTFONT 2.1
COMMENT AUTOMATICALLY GENERATED FILE. DO NOT EDIT!
COMMENT Generated with 'ucs2any UTB___12.bdf /usr/local/share/fonts/X11/util/map-ISO8859-2 ISO8859-2'
COMMENT from an ISO10646-1 encoded source BDF font.
COMMENT ucs2any by Ben Collver <collver1@attbi.com>, 2003, based on
COMMENT ucs2any.pl by Markus Kuhn <http://www.cl.cam.ac.uk/~mgk25/>, 2000.
FONT -Adobe-Utopia-Bold-R-Normal--12-120-75-75-P-70-ISO8859-2
SIZE 12 75 75
FONTBOUNDINGBOX 13 16 -1 -3
COMMENT ISO10646-1 extension by Markus Kuhn <mkuhn@acm.org>, 2001-03-20
STARTPROPERTIES 28
FOUNDRY "Adobe"
FAMILY_NAME "Utopia"
WEIGHT_NAME "Bold"
SLANT "R"
SETWIDTH_NAME "Normal"
ADD_STYLE_NAME ""
PIXEL_SIZE 12
POINT_SIZE 120
RESOLUTION_X 75
RESOLUTION_Y 75
SPACING "P"
AVERAGE_WIDTH 70
CHARSET_REGISTRY "ISO8859"
CHARSET_ENCODING "2"
CAP_HEIGHT 9
X_HEIGHT 6
RELATIVE_SETWIDTH 50
RELATIVE_WEIGHT 70
WEIGHT 218
FACE_NAME "Utopia Bold"
COPYRIGHT "Copyright (c) 1989, 1991 Adobe Systems Incorporated.  All rights reserved."
NOTICE "Utopia is a registered trademark of Adobe Systems Incorporated."
DESTINATION 0
FONT_ASCENT 10
FONT_DESCENT 3
DEFAULT_CHAR 0
_ADOBE_PSFONT "Utopia-Bold"
_DEC_DEVICE_FONTNAMES "PS=Utopia-Bold"
ENDPROPERTIES
CHARS 192
STARTCHAR defaultchar
ENCODING 0
SWIDTH 807 0
DWIDTH 10 0
BBX 9 9 0 0
BITMAP
AA80
0000
8080
0000
8080
0000
8080
0000
AA80
ENDCHAR
STARTCHAR space
ENCODING 32
SWIDTH 210 0
DWIDTH 3 0
BBX 0 0 0 0
BITMAP
ENDCHAR
STARTCHAR exclam
ENCODING 33
SWIDTH 278 0
DWIDTH 3 0
BBX 2 9 0 0
BITMAP
C0
C0
C0
C0
C0
C0
00
C0
C0
ENDCHAR
STARTCHAR quotedbl
ENCODING 34
SWIDTH 473 0
DWIDTH 6 0
BBX 3 4 1 5
BITMAP
A0
A0
A0
A0
ENDCHAR
STARTCHAR numbersign
ENCODING 35
SWIDTH 560 0
DWIDTH 7 0
BBX 7 8 0 1
BITMAP
14
14
7E
28
28
FC
50
50
ENDCHAR
STARTCHAR dollar
ENCODING 36
SWIDTH 560 0
DWIDTH 7 0
BBX 6 11 0 -1
BITMAP
10
78
DC
D4
F0
78
3C
AC
EC
78
20
ENDCHAR
STARTCHAR percent
ENCODING 37
SWIDTH 887 0
DWIDTH 11 0
BBX 10 9 0 0
BITMAP
6100
9E00
9200
9400
6980
0A40
1240
2240
2180
ENDCHAR
STARTCHAR ampersand
ENCODING 38
SWIDTH 748 0
DWIDTH 9 0
BBX 8 9 0 0
BITMAP
18
34
34
18
39
6D
C6
E6
7B
ENDCHAR
STARTCHAR quotesingle
ENCODING 39
SWIDTH 252 0
DWIDTH 3 0
BBX 1 4 0 5
BITMAP
80
80
80
80
ENDCHAR
STARTCHAR parenleft
ENCODING 40
SWIDTH 365 0
DWIDTH 5 0
BBX 4 11 0 -2
BITMAP
30
60
60
C0
C0
C0
C0
C0
60
60
30
ENDCHAR
STARTCHAR parenright
ENCODING 41
SWIDTH 365 0
DWIDTH 5 0
BBX 4 11 0 -2
BITMAP
C0
60
60
30
30
30
30
30
60
60
C0
ENDCHAR
STARTCHAR asterisk
ENCODING 42
SWIDTH 442 0
DWIDTH 6 0
BBX 5 5 0 4
BITMAP
20
A8
70
A8
20
ENDCHAR
STARTCHAR plus
ENCODING 43
SWIDTH 600 0
DWIDTH 7 0
BBX 6 5 0 1
BITMAP
30
30
FC
30
30
ENDCHAR
STARTCHAR comma
ENCODING 44
SWIDTH 280 0
DWIDTH 3 0
BBX 2 4 0 -2
BITMAP
C0
C0
40
80
ENDCHAR
STARTCHAR hyphen
ENCODING 45
SWIDTH 392 0
DWIDTH 5 0
BBX 3 1 1 3
BITMAP
E0
ENDCHAR
STARTCHAR period
ENCODING 46
SWIDTH 280 0
DWIDTH 3 0
BBX 2 2 0 0
BITMAP
C0
C0
ENDCHAR
STARTCHAR slash
ENCODING 47
SWIDTH 378 0
DWIDTH 5 0
BBX 4 9 0 0
BITMAP
30
30
30
60
60
60
C0
C0
C0
ENDCHAR
STARTCHAR zero
ENCODING 48
SWIDTH 560 0
DWIDTH 7 0
BBX 6 9 0 0
BITMAP
78
CC
CC
CC
CC
CC
CC
CC
78
ENDCHAR
STARTCHAR one
ENCODING 49
SWIDTH 560 0
DWIDTH 7 0
BBX 6 9 0 0
BITMAP
30
F0
30
30
30
30
30
30
FC
ENDCHAR
STARTCHAR two
ENCODING 50
SWIDTH 560 0
DWIDTH 7 0
BBX 6 9 0 0
BITMAP
78
CC
CC
0C
18
60
C4
FC
FC
ENDCHAR
STARTCHAR three
ENCODING 51
SWIDTH 560 0
DWIDTH 7 0
BBX 6 9 0 0
BITMAP
78
CC
CC
0C
38
0C
CC
CC
78
ENDCHAR
STARTCHAR four
ENCODING 52
SWIDTH 560 0
DWIDTH 7 0
BBX 6 9 0 0
BITMAP
30
30
70
68
58
98
FC
18
3C
ENDCHAR
STARTCHAR five
ENCODING 53
SWIDTH 560 0
DWIDTH 7 0
BBX 6 9 0 0
BITMAP
FC
F8
80
F8
9C
0C
CC
CC
78
ENDCHAR
STARTCHAR six
ENCODING 54
SWIDTH 560 0
DWIDTH 7 0
BBX 6 9 0 0
BITMAP
78
CC
CC
C0
F8
CC
CC
CC
78
ENDCHAR
STARTCHAR seven
ENCODING 55
SWIDTH 560 0
DWIDTH 7 0
BBX 6 9 0 0
BITMAP
FC
FC
88
08
10
10
30
30
30
ENDCHAR
STARTCHAR eight
ENCODING 56
SWIDTH 560 0
DWIDTH 7 0
BBX 6 9 0 0
BITMAP
78
CC
CC
CC
78
CC
CC
CC
78
ENDCHAR
STARTCHAR nine
ENCODING 57
SWIDTH 560 0
DWIDTH 7 0
BBX 6 9 0 0
BITMAP
78
CC
CC
CC
7C
0C
CC
CC
78
ENDCHAR
STARTCHAR colon
ENCODING 58
SWIDTH 280 0
DWIDTH 3 0
BBX 2 6 0 0
BITMAP
C0
C0
00
00
C0
C0
ENDCHAR
STARTCHAR semicolon
ENCODING 59
SWIDTH 280 0
DWIDTH 3 0
BBX 2 8 0 -2
BITMAP
C0
C0
00
00
C0
C0
40
80
ENDCHAR
STARTCHAR less
ENCODING 60
SWIDTH 600 0
DWIDTH 7 0
BBX 6 5 0 1
BITMAP
0C
30
C0
30
0C
ENDCHAR
STARTCHAR equal
ENCODING 61
SWIDTH 600 0
DWIDTH 7 0
BBX 6 3 0 2
BITMAP
FC
00
FC
ENDCHAR
STARTCHAR greater
ENCODING 62
SWIDTH 600 0
DWIDTH 7 0
BBX 6 5 0 1
BITMAP
C0
30
0C
30
C0
ENDCHAR
STARTCHAR question
ENCODING 63
SWIDTH 456 0
DWIDTH 6 0
BBX 5 9 0 0
BITMAP
70
D8
58
30
60
70
00
60
60
ENDCHAR
STARTCHAR at
ENCODING 64
SWIDTH 833 0
DWIDTH 10 0
BBX 10 9 0 0
BITMAP
1F00
2080
4F40
9B40
B640
B680
BB00
4000
3F00
ENDCHAR
STARTCHAR A
ENCODING 65
SWIDTH 644 0
DWIDTH 8 0
BBX 9 9 -1 0
BITMAP
0800
1C00
1C00
2E00
2600
3E00
4700
4300
E780
ENDCHAR
STARTCHAR B
ENCODING 66
SWIDTH 683 0
DWIDTH 9 0
BBX 8 9 0 0
BITMAP
FE
63
63
66
7E
63
63
67
FE
ENDCHAR
STARTCHAR C
ENCODING 67
SWIDTH 689 0
DWIDTH 9 0
BBX 8 9 0 0
BITMAP
3E
63
E0
C0
C0
C0
E0
63
3E
ENDCHAR
STARTCHAR D
ENCODING 68
SWIDTH 777 0
DWIDTH 10 0
BBX 9 9 0 0
BITMAP
FE00
6300
6380
6180
6180
6180
6380
6300
FE00
ENDCHAR
STARTCHAR E
ENCODING 69
SWIDTH 629 0
DWIDTH 8 0
BBX 7 9 0 0
BITMAP
FE
62
60
64
7C
64
60
62
FE
ENDCHAR
STARTCHAR F
ENCODING 70
SWIDTH 593 0
DWIDTH 8 0
BBX 7 9 0 0
BITMAP
FE
62
60
64
7C
64
60
60
F0
ENDCHAR
STARTCHAR G
ENCODING 71
SWIDTH 726 0
DWIDTH 9 0
BBX 9 9 0 0
BITMAP
3E00
6300
E000
C000
C000
C780
E300
6300
3E00
ENDCHAR
STARTCHAR H
ENCODING 72
SWIDTH 807 0
DWIDTH 10 0
BBX 9 9 0 0
BITMAP
F780
6300
6300
6300
7F00
6300
6300
6300
F780
ENDCHAR
STARTCHAR I
ENCODING 73
SWIDTH 384 0
DWIDTH 5 0
BBX 4 9 0 0
BITMAP
F0
60
60
60
60
60
60
60
F0
ENDCHAR
STARTCHAR J
ENCODING 74
SWIDTH 386 0
DWIDTH 5 0
BBX 4 11 0 -2
BITMAP
F0
60
60
60
60
60
60
60
60
60
C0
ENDCHAR
STARTCHAR K
ENCODING 75
SWIDTH 707 0
DWIDTH 9 0
BBX 9 9 0 0
BITMAP
F700
6600
6400
6800
7C00
6C00
6600
6700
F380
ENDCHAR
STARTCHAR L
ENCODING 76
SWIDTH 585 0
DWIDTH 7 0
BBX 7 9 0 0
BITMAP
F0
60
60
60
60
60
62
66
FE
ENDCHAR
STARTCHAR M
ENCODING 77
SWIDTH 918 0
DWIDTH 12 0
BBX 11 9 0 0
BITMAP
F1E0
71C0
71C0
5AC0
5AC0
5AC0
4CC0
4CC0
EDE0
ENDCHAR
STARTCHAR N
ENCODING 78
SWIDTH 739 0
DWIDTH 9 0
BBX 9 9 0 0
BITMAP
E380
7100
7100
5900
5D00
4D00
4700
4700
E300
ENDCHAR
STARTCHAR O
ENCODING 79
SWIDTH 768 0
DWIDTH 10 0
BBX 9 9 0 0
BITMAP
3E00
6300
E380
C180
C180
C180
E380
6300
3E00
ENDCHAR
STARTCHAR P
ENCODING 80
SWIDTH 650 0
DWIDTH 8 0
BBX 8 9 0 0
BITMAP
FE
63
63
63
7E
60
60
60
F0
ENDCHAR
STARTCHAR Q
ENCODING 81
SWIDTH 768 0
DWIDTH 10 0
BBX 9 11 0 -2
BITMAP
3E00
6300
E380
C180
C180
C180
E380
6300
3E00
0E00
0780
ENDCHAR
STARTCHAR R
ENCODING 82
SWIDTH 684 0
DWIDTH 9 0
BBX 9 9 0 0
BITMAP
FE00
6300
6300
6600
7E00
6600
6300
6300
F380
ENDCHAR
STARTCHAR S
ENCODING 83
SWIDTH 561 0
DWIDTH 7 0
BBX 6 9 0 0
BITMAP
78
CC
C0
F0
78
1C
0C
CC
78
ENDCHAR
STARTCHAR T
ENCODING 84
SWIDTH 624 0
DWIDTH 8 0
BBX 8 9 0 0
BITMAP
FF
99
18
18
18
18
18
18
3C
ENDCHAR
STARTCHAR U
ENCODING 85
SWIDTH 786 0
DWIDTH 10 0
BBX 9 9 0 0
BITMAP
F780
6300
6300
6300
6300
6300
6300
7700
3E00
ENDCHAR
STARTCHAR V
ENCODING 86
SWIDTH 645 0
DWIDTH 8 0
BBX 9 9 -1 0
BITMAP
F380
6100
7100
3200
3200
3A00
1C00
1C00
0800
ENDCHAR
STARTCHAR W
ENCODING 87
SWIDTH 933 0
DWIDTH 12 0
BBX 13 9 -1 0
BITMAP
F338
6310
6310
35A0
35A0
35A0
3DE0
18C0
18C0
ENDCHAR
STARTCHAR X
ENCODING 88
SWIDTH 634 0
DWIDTH 8 0
BBX 7 9 0 0
BITMAP
F6
64
64
38
38
38
4C
4C
DE
ENDCHAR
STARTCHAR Y
ENCODING 89
SWIDTH 617 0
DWIDTH 8 0
BBX 8 9 0 0
BITMAP
F7
62
62
34
34
18
18
18
3C
ENDCHAR
STARTCHAR Z
ENCODING 90
SWIDTH 614 0
DWIDTH 8 0
BBX 7 9 0 0
BITMAP
FE
8E
0C
18
38
30
60
E2
FE
ENDCHAR
STARTCHAR bracketleft
ENCODING 91
SWIDTH 335 0
DWIDTH 4 0
BBX 3 11 0 -2
BITMAP
E0
C0
C0
C0
C0
C0
C0
C0
C0
C0
E0
ENDCHAR
STARTCHAR backslash
ENCODING 92
SWIDTH 379 0
DWIDTH 5 0
BBX 4 9 0 0
BITMAP
C0
C0
C0
60
60
60
30
30
30
ENDCHAR
STARTCHAR bracketright
ENCODING 93
SWIDTH 335 0
DWIDTH 4 0
BBX 3 11 0 -2
BITMAP
E0
60
60
60
60
60
60
60
60
60
E0
ENDCHAR
STARTCHAR asciicircum
ENCODING 94
SWIDTH 600 0
DWIDTH 7 0
BBX 5 6 1 3
BITMAP
20
20
50
50
88
88
ENDCHAR
STARTCHAR underscore
ENCODING 95
SWIDTH 500 0
DWIDTH 6 0
BBX 6 1 0 -2
BITMAP
FC
ENDCHAR
STARTCHAR grave
ENCODING 96
SWIDTH 430 0
DWIDTH 5 0
BBX 3 2 0 7
BITMAP
C0
60
ENDCHAR
STARTCHAR a
ENCODING 97
SWIDTH 544 0
DWIDTH 7 0
BBX 6 6 1 0
BITMAP
70
D8
38
D8
D8
EC
ENDCHAR
STARTCHAR b
ENCODING 98
SWIDTH 605 0
DWIDTH 7 0
BBX 7 10 -1 0
BITMAP
60
E0
60
60
7C
6E
66
66
66
7C
ENDCHAR
STARTCHAR c
ENCODING 99
SWIDTH 494 0
DWIDTH 6 0
BBX 5 6 0 0
BITMAP
70
D8
C0
C0
E8
70
ENDCHAR
STARTCHAR d
ENCODING 100
SWIDTH 605 0
DWIDTH 8 0
BBX 7 10 0 0
BITMAP
0C
1C
0C
0C
7C
CC
CC
CC
EC
7E
ENDCHAR
STARTCHAR e
ENCODING 101
SWIDTH 519 0
DWIDTH 6 0
BBX 5 6 0 0
BITMAP
70
D8
F8
C0
E8
70
ENDCHAR
STARTCHAR f
ENCODING 102
SWIDTH 342 0
DWIDTH 4 0
BBX 5 10 0 0
BITMAP
30
58
60
60
F0
60
60
60
60
F0
ENDCHAR
STARTCHAR g
ENCODING 103
SWIDTH 533 0
DWIDTH 7 0
BBX 6 9 0 -3
BITMAP
7C
D8
D8
D8
60
78
9C
CC
78
ENDCHAR
STARTCHAR h
ENCODING 104
SWIDTH 631 0
DWIDTH 8 0
BBX 8 10 0 0
BITMAP
60
E0
60
60
6C
7E
66
66
66
F7
ENDCHAR
STARTCHAR i
ENCODING 105
SWIDTH 316 0
DWIDTH 4 0
BBX 4 9 0 0
BITMAP
60
60
00
E0
60
60
60
60
F0
ENDCHAR
STARTCHAR j
ENCODING 106
SWIDTH 316 0
DWIDTH 4 0
BBX 4 12 -1 -3
BITMAP
30
30
00
70
30
30
30
30
30
30
70
E0
ENDCHAR
STARTCHAR k
ENCODING 107
SWIDTH 582 0
DWIDTH 7 0
BBX 7 10 0 0
BITMAP
60
E0
60
60
6E
6C
78
78
6C
EE
ENDCHAR
STARTCHAR l
ENCODING 108
SWIDTH 309 0
DWIDTH 4 0
BBX 4 10 0 0
BITMAP
60
E0
60
60
60
60
60
60
60
F0
ENDCHAR
STARTCHAR m
ENCODING 109
SWIDTH 948 0
DWIDTH 12 0
BBX 12 6 0 0
BITMAP
FDC0
6EE0
6660
6660
6660
F770
ENDCHAR
STARTCHAR n
ENCODING 110
SWIDTH 638 0
DWIDTH 8 0
BBX 8 6 0 0
BITMAP
FC
6E
66
66
66
F7
ENDCHAR
STARTCHAR o
ENCODING 111
SWIDTH 585 0
DWIDTH 7 0
BBX 6 6 0 0
BITMAP
78
DC
CC
CC
EC
78
ENDCHAR
STARTCHAR p
ENCODING 112
SWIDTH 615 0
DWIDTH 8 0
BBX 7 9 0 -3
BITMAP
FC
6E
66
66
66
7C
60
60
F0
ENDCHAR
STARTCHAR q
ENCODING 113
SWIDTH 597 0
DWIDTH 7 0
BBX 7 9 0 -3
BITMAP
7C
CC
CC
CC
EC
7C
0C
0C
1E
ENDCHAR
STARTCHAR r
ENCODING 114
SWIDTH 440 0
DWIDTH 6 0
BBX 5 6 0 0
BITMAP
D8
78
60
60
60
F0
ENDCHAR
STARTCHAR s
ENCODING 115
SWIDTH 446 0
DWIDTH 6 0
BBX 5 6 0 0
BITMAP
78
C8
F0
78
98
F0
ENDCHAR
STARTCHAR t
ENCODING 116
SWIDTH 370 0
DWIDTH 4 0
BBX 5 8 -1 0
BITMAP
20
60
F8
60
60
60
60
38
ENDCHAR
STARTCHAR u
ENCODING 117
SWIDTH 629 0
DWIDTH 8 0
BBX 8 6 0 0
BITMAP
EE
66
66
66
76
3F
ENDCHAR
STARTCHAR v
ENCODING 118
SWIDTH 520 0
DWIDTH 6 0
BBX 7 6 -1 0
BITMAP
EE
64
74
38
38
10
ENDCHAR
STARTCHAR w
ENCODING 119
SWIDTH 774 0
DWIDTH 10 0
BBX 11 6 -1 0
BITMAP
E4E0
6640
7640
3B80
3B80
1100
ENDCHAR
STARTCHAR x
ENCODING 120
SWIDTH 522 0
DWIDTH 7 0
BBX 6 6 0 0
BITMAP
EC
68
70
38
58
DC
ENDCHAR
STARTCHAR y
ENCODING 121
SWIDTH 524 0
DWIDTH 6 0
BBX 7 9 -1 -3
BITMAP
EE
64
74
38
38
10
10
60
60
ENDCHAR
STARTCHAR z
ENCODING 122
SWIDTH 483 0
DWIDTH 6 0
BBX 5 6 0 0
BITMAP
F8
B8
30
60
E8
F8
ENDCHAR
STARTCHAR braceleft
ENCODING 123
SWIDTH 365 0
DWIDTH 4 0
BBX 4 11 -1 -2
BITMAP
30
60
60
60
60
C0
60
60
60
60
30
ENDCHAR
STARTCHAR bar
ENCODING 124
SWIDTH 284 0
DWIDTH 3 0
BBX 2 9 0 0
BITMAP
C0
C0
C0
C0
C0
C0
C0
C0
C0
ENDCHAR
STARTCHAR braceright
ENCODING 125
SWIDTH 365 0
DWIDTH 4 0
BBX 4 11 0 -2
BITMAP
C0
60
60
60
60
30
60
60
60
60
C0
ENDCHAR
STARTCHAR asciitilde
ENCODING 126
SWIDTH 600 0
DWIDTH 7 0
BBX 6 2 0 3
BITMAP
74
B8
ENDCHAR
STARTCHAR space
ENCODING 160
SWIDTH 210 0
DWIDTH 3 0
BBX 0 0 0 0
BITMAP
ENDCHAR
STARTCHAR Aogonek
ENCODING 161
SWIDTH 644 0
DWIDTH 8 0
BBX 9 12 -1 -3
BITMAP
0800
1C00
1C00
2E00
2600
3E00
4700
4300
E780
0800
1000
1C00
ENDCHAR
STARTCHAR breve
ENCODING 162
SWIDTH 430 0
DWIDTH 5 0
BBX 4 2 0 7
BITMAP
90
60
ENDCHAR
STARTCHAR Lslash
ENCODING 163
SWIDTH 591 0
DWIDTH 7 0
BBX 7 9 0 0
BITMAP
F0
60
68
70
60
E0
62
66
FE
ENDCHAR
STARTCHAR currency
ENCODING 164
SWIDTH 560 0
DWIDTH 7 0
BBX 6 7 0 1
BITMAP
CC
78
CC
84
CC
78
CC
ENDCHAR
STARTCHAR Lcaron
ENCODING 165
SWIDTH 808 0
DWIDTH 10 0
BBX 9 9 0 0
BITMAP
F180
6180
6080
6100
6000
6000
6200
6600
FE00
ENDCHAR
STARTCHAR Sacute
ENCODING 166
SWIDTH 561 0
DWIDTH 7 0
BBX 6 12 0 0
BITMAP
18
30
00
78
CC
C0
F0
78
1C
0C
CC
78
ENDCHAR
STARTCHAR section
ENCODING 167
SWIDTH 566 0
DWIDTH 7 0
BBX 6 11 0 -2
BITMAP
78
CC
E0
78
9C
E4
78
1C
0C
C8
70
ENDCHAR
STARTCHAR dieresis
ENCODING 168
SWIDTH 430 0
DWIDTH 6 0
BBX 5 2 0 7
BITMAP
D8
D8
ENDCHAR
STARTCHAR Scaron
ENCODING 169
SWIDTH 561 0
DWIDTH 7 0
BBX 6 10 0 0
BITMAP
68
30
00
78
CC
E0
78
1C
CC
78
ENDCHAR
STARTCHAR Scedilla
ENCODING 170
SWIDTH 561 0
DWIDTH 7 0
BBX 6 12 0 -3
BITMAP
78
CC
C0
F0
78
1C
0C
CC
78
10
08
18
ENDCHAR
STARTCHAR Tcaron
ENCODING 171
SWIDTH 624 0
DWIDTH 8 0
BBX 8 12 0 0
BITMAP
34
18
00
FF
99
18
18
18
18
18
18
3C
ENDCHAR
STARTCHAR Zacute
ENCODING 172
SWIDTH 614 0
DWIDTH 8 0
BBX 7 12 0 0
BITMAP
0C
18
00
FE
8E
0C
18
38
30
60
E2
FE
ENDCHAR
STARTCHAR hyphen
ENCODING 173
SWIDTH 392 0
DWIDTH 5 0
BBX 3 1 1 3
BITMAP
E0
ENDCHAR
STARTCHAR Zcaron
ENCODING 174
SWIDTH 614 0
DWIDTH 8 0
BBX 7 10 0 0
BITMAP
68
30
00
FE
8C
18
38
30
62
FE
ENDCHAR
STARTCHAR Zdotaccent
ENCODING 175
SWIDTH 614 0
DWIDTH 8 0
BBX 7 12 0 0
BITMAP
18
18
00
FE
8E
0C
18
38
30
60
E2
FE
ENDCHAR
STARTCHAR degree
ENCODING 176
SWIDTH 396 0
DWIDTH 5 0
BBX 4 4 0 5
BITMAP
60
90
90
60
ENDCHAR
STARTCHAR aogonek
ENCODING 177
SWIDTH 544 0
DWIDTH 7 0
BBX 6 9 1 -3
BITMAP
70
D8
38
D8
D8
EC
20
40
70
ENDCHAR
STARTCHAR ogonek
ENCODING 178
SWIDTH 430 0
DWIDTH 5 0
BBX 3 3 1 -3
BITMAP
40
80
E0
ENDCHAR
STARTCHAR lslash
ENCODING 179
SWIDTH 321 0
DWIDTH 4 0
BBX 4 10 0 0
BITMAP
60
E0
60
60
70
E0
60
60
60
F0
ENDCHAR
STARTCHAR acute
ENCODING 180
SWIDTH 430 0
DWIDTH 5 0
BBX 3 2 0 7
BITMAP
60
C0
ENDCHAR
STARTCHAR lcaron
ENCODING 181
SWIDTH 546 0
DWIDTH 7 0
BBX 6 10 0 0
BITMAP
60
EC
6C
64
68
60
60
60
60
F0
ENDCHAR
STARTCHAR sacute
ENCODING 182
SWIDTH 446 0
DWIDTH 6 0
BBX 5 9 0 0
BITMAP
30
60
00
78
C8
F0
78
98
F0
ENDCHAR
STARTCHAR caron
ENCODING 183
SWIDTH 430 0
DWIDTH 5 0
BBX 4 2 0 7
BITMAP
D0
60
ENDCHAR
STARTCHAR cedilla
ENCODING 184
SWIDTH 430 0
DWIDTH 5 0
BBX 2 3 1 -3
BITMAP
80
40
C0
ENDCHAR
STARTCHAR scaron
ENCODING 185
SWIDTH 446 0
DWIDTH 6 0
BBX 5 9 0 0
BITMAP
D0
60
00
78
C8
F0
78
98
F0
ENDCHAR
STARTCHAR scedilla
ENCODING 186
SWIDTH 446 0
DWIDTH 6 0
BBX 5 9 0 -3
BITMAP
78
C8
F0
78
98
F0
20
10
30
ENDCHAR
STARTCHAR tcaron
ENCODING 187
SWIDTH 604 0
DWIDTH 7 0
BBX 7 9 -1 0
BITMAP
06
26
62
FC
60
60
60
60
38
ENDCHAR
STARTCHAR zacute
ENCODING 188
SWIDTH 483 0
DWIDTH 6 0
BBX 5 9 0 0
BITMAP
30
60
00
F8
B8
30
60
E8
F8
ENDCHAR
STARTCHAR hungarumlaut
ENCODING 189
SWIDTH 430 0
DWIDTH 5 0
BBX 4 2 0 7
BITMAP
50
A0
ENDCHAR
STARTCHAR zcaron
ENCODING 190
SWIDTH 483 0
DWIDTH 6 0
BBX 5 9 0 0
BITMAP
D0
60
00
F8
B8
30
60
E8
F8
ENDCHAR
STARTCHAR zdotaccent
ENCODING 191
SWIDTH 483 0
DWIDTH 6 0
BBX 5 9 0 0
BITMAP
30
30
00
F8
B8
30
60
E8
F8
ENDCHAR
STARTCHAR Racute
ENCODING 192
SWIDTH 684 0
DWIDTH 9 0
BBX 9 12 0 0
BITMAP
0C00
1800
0000
FE00
6300
6300
6600
7E00
6600
6300
6300
F380
ENDCHAR
STARTCHAR Aacute
ENCODING 193
SWIDTH 644 0
DWIDTH 8 0
BBX 9 10 -1 0
BITMAP
0C00
1800
0000
0800
1C00
1C00
2600
3E00
4300
E780
ENDCHAR
STARTCHAR Acircumflex
ENCODING 194
SWIDTH 644 0
DWIDTH 8 0
BBX 9 10 -1 0
BITMAP
1800
2C00
0000
0800
1C00
1C00
2600
3E00
4300
E780
ENDCHAR
STARTCHAR Abreve
ENCODING 195
SWIDTH 644 0
DWIDTH 8 0
BBX 9 12 -1 0
BITMAP
1200
0C00
0000
0800
1C00
1C00
2E00
2600
3E00
4700
4300
E780
ENDCHAR
STARTCHAR Adieresis
ENCODING 196
SWIDTH 644 0
DWIDTH 8 0
BBX 9 10 -1 0
BITMAP
3600
3600
0000
0800
1C00
1C00
2600
3E00
4300
E780
ENDCHAR
STARTCHAR Lacute
ENCODING 197
SWIDTH 585 0
DWIDTH 7 0
BBX 7 12 0 0
BITMAP
30
60
00
F0
60
60
60
60
60
62
66
FE
ENDCHAR
STARTCHAR Cacute
ENCODING 198
SWIDTH 689 0
DWIDTH 9 0
BBX 8 12 0 0
BITMAP
0C
18
00
3E
63
E0
C0
C0
C0
E0
63
3E
ENDCHAR
STARTCHAR Ccedilla
ENCODING 199
SWIDTH 689 0
DWIDTH 9 0
BBX 8 12 0 -3
BITMAP
3E
63
E0
C0
C0
C0
E0
63
3E
10
08
18
ENDCHAR
STARTCHAR Ccaron
ENCODING 200
SWIDTH 689 0
DWIDTH 9 0
BBX 8 12 0 0
BITMAP
34
18
00
3E
63
E0
C0
C0
C0
E0
63
3E
ENDCHAR
STARTCHAR Eacute
ENCODING 201
SWIDTH 629 0
DWIDTH 8 0
BBX 7 10 0 0
BITMAP
18
30
00
FE
62
60
7C
60
62
FE
ENDCHAR
STARTCHAR Eogonek
ENCODING 202
SWIDTH 629 0
DWIDTH 8 0
BBX 7 12 0 -3
BITMAP
FE
62
60
64
7C
64
60
62
FE
10
20
38
ENDCHAR
STARTCHAR Edieresis
ENCODING 203
SWIDTH 629 0
DWIDTH 8 0
BBX 7 10 0 0
BITMAP
6C
6C
00
FE
62
60
7C
60
62
FE
ENDCHAR
STARTCHAR Ecaron
ENCODING 204
SWIDTH 629 0
DWIDTH 8 0
BBX 7 12 0 0
BITMAP
68
30
00
FE
62
60
64
7C
64
60
62
FE
ENDCHAR
STARTCHAR Iacute
ENCODING 205
SWIDTH 384 0
DWIDTH 5 0
BBX 4 10 0 0
BITMAP
60
C0
00
F0
60
60
60
60
60
F0
ENDCHAR
STARTCHAR Icircumflex
ENCODING 206
SWIDTH 384 0
DWIDTH 5 0
BBX 4 10 0 0
BITMAP
60
B0
00
F0
60
60
60
60
60
F0
ENDCHAR
STARTCHAR Dcaron
ENCODING 207
SWIDTH 777 0
DWIDTH 10 0
BBX 9 12 0 0
BITMAP
3400
1800
0000
FE00
6300
6380
6180
6180
6180
6380
6300
FE00
ENDCHAR
STARTCHAR Dcroat
ENCODING 208
SWIDTH 783 0
DWIDTH 10 0
BBX 9 9 0 0
BITMAP
FE00
6300
6380
6180
F180
6180
6380
6300
FE00
ENDCHAR
STARTCHAR Nacute
ENCODING 209
SWIDTH 739 0
DWIDTH 9 0
BBX 9 12 0 0
BITMAP
0C00
1800
0000
E380
7100
7100
5900
5D00
4D00
4700
4700
E300
ENDCHAR
STARTCHAR Ncaron
ENCODING 210
SWIDTH 739 0
DWIDTH 9 0
BBX 9 12 0 0
BITMAP
3400
1800
0000
E380
7100
7100
5900
5D00
4D00
4700
4700
E300
ENDCHAR
STARTCHAR Oacute
ENCODING 211
SWIDTH 768 0
DWIDTH 10 0
BBX 9 10 0 0
BITMAP
0C00
1800
0000
3E00
6300
C180
C180
C180
6300
3E00
ENDCHAR
STARTCHAR Ocircumflex
ENCODING 212
SWIDTH 768 0
DWIDTH 10 0
BBX 9 10 0 0
BITMAP
1800
2C00
0000
3E00
6300
C180
C180
C180
6300
3E00
ENDCHAR
STARTCHAR Ohungarumlaut
ENCODING 213
SWIDTH 768 0
DWIDTH 10 0
BBX 9 12 0 0
BITMAP
0A00
1400
0000
3E00
6300
E380
C180
C180
C180
E380
6300
3E00
ENDCHAR
STARTCHAR Odieresis
ENCODING 214
SWIDTH 768 0
DWIDTH 10 0
BBX 9 10 0 0
BITMAP
3600
3600
0000
3E00
6300
C180
C180
C180
6300
3E00
ENDCHAR
STARTCHAR multiply
ENCODING 215
SWIDTH 600 0
DWIDTH 7 0
BBX 6 5 0 1
BITMAP
CC
78
30
78
CC
ENDCHAR
STARTCHAR Rcaron
ENCODING 216
SWIDTH 684 0
DWIDTH 9 0
BBX 9 12 0 0
BITMAP
3400
1800
0000
FE00
6300
6300
6600
7E00
6600
6300
6300
F380
ENDCHAR
STARTCHAR Uring
ENCODING 217
SWIDTH 786 0
DWIDTH 10 0
BBX 9 13 0 0
BITMAP
0C00
1200
0C00
0000
F780
6300
6300
6300
6300
6300
6300
7700
3E00
ENDCHAR
STARTCHAR Uacute
ENCODING 218
SWIDTH 786 0
DWIDTH 10 0
BBX 9 10 0 0
BITMAP
0C00
1800
0000
F780
6300
6300
6300
6300
7700
3E00
ENDCHAR
STARTCHAR Uhungarumlaut
ENCODING 219
SWIDTH 786 0
DWIDTH 10 0
BBX 9 12 0 0
BITMAP
0A00
1400
0000
F780
6300
6300
6300
6300
6300
6300
7700
3E00
ENDCHAR
STARTCHAR Udieresis
ENCODING 220
SWIDTH 786 0
DWIDTH 10 0
BBX 9 10 0 0
BITMAP
3600
3600
0000
F780
6300
6300
6300
6300
7700
3E00
ENDCHAR
STARTCHAR Yacute
ENCODING 221
SWIDTH 617 0
DWIDTH 8 0
BBX 8 10 0 0
BITMAP
0C
18
00
F7
62
34
34
18
18
3C
ENDCHAR
STARTCHAR Tcommaaccent
ENCODING 222
SWIDTH 624 0
DWIDTH 8 0
BBX 8 12 0 -3
BITMAP
FF
99
18
18
18
18
18
18
3C
10
08
18
ENDCHAR
STARTCHAR germandbls
ENCODING 223
SWIDTH 662 0
DWIDTH 8 0
BBX 8 10 0 0
BITMAP
3C
66
66
64
6C
6E
67
63
6B
EE
ENDCHAR
STARTCHAR racute
ENCODING 224
SWIDTH 440 0
DWIDTH 6 0
BBX 5 9 0 0
BITMAP
18
30
00
D8
78
60
60
60
F0
ENDCHAR
STARTCHAR aacute
ENCODING 225
SWIDTH 544 0
DWIDTH 7 0
BBX 6 9 0 0
BITMAP
30
60
00
70
D8
38
D8
D8
EC
ENDCHAR
STARTCHAR acircumflex
ENCODING 226
SWIDTH 544 0
DWIDTH 7 0
BBX 6 9 0 0
BITMAP
60
B0
00
70
D8
38
D8
D8
EC
ENDCHAR
STARTCHAR abreve
ENCODING 227
SWIDTH 544 0
DWIDTH 7 0
BBX 6 9 1 0
BITMAP
48
30
00
70
D8
38
D8
D8
EC
ENDCHAR
STARTCHAR adieresis
ENCODING 228
SWIDTH 544 0
DWIDTH 7 0
BBX 6 9 0 0
BITMAP
D8
D8
00
70
D8
38
D8
D8
EC
ENDCHAR
STARTCHAR lacute
ENCODING 229
SWIDTH 309 0
DWIDTH 4 0
BBX 4 13 0 0
BITMAP
30
60
00
60
E0
60
60
60
60
60
60
60
F0
ENDCHAR
STARTCHAR cacute
ENCODING 230
SWIDTH 494 0
DWIDTH 6 0
BBX 5 9 0 0
BITMAP
30
60
00
70
D8
C0
C0
E8
70
ENDCHAR
STARTCHAR ccedilla
ENCODING 231
SWIDTH 494 0
DWIDTH 6 0
BBX 5 9 0 -3
BITMAP
70
D8
C0
C0
E8
70
40
20
60
ENDCHAR
STARTCHAR ccaron
ENCODING 232
SWIDTH 494 0
DWIDTH 6 0
BBX 5 9 0 0
BITMAP
68
30
00
70
D8
C0
C0
E8
70
ENDCHAR
STARTCHAR eacute
ENCODING 233
SWIDTH 519 0
DWIDTH 6 0
BBX 5 9 0 0
BITMAP
30
60
00
70
D8
F8
C0
E8
70
ENDCHAR
STARTCHAR eogonek
ENCODING 234
SWIDTH 519 0
DWIDTH 6 0
BBX 5 9 0 -3
BITMAP
70
D8
F8
C0
E8
70
20
40
70
ENDCHAR
STARTCHAR edieresis
ENCODING 235
SWIDTH 519 0
DWIDTH 6 0
BBX 5 9 0 0
BITMAP
D8
D8
00
70
D8
F8
C0
E8
70
ENDCHAR
STARTCHAR ecaron
ENCODING 236
SWIDTH 519 0
DWIDTH 6 0
BBX 5 9 0 0
BITMAP
68
30
00
70
D8
F8
C0
E8
70
ENDCHAR
STARTCHAR iacute
ENCODING 237
SWIDTH 316 0
DWIDTH 4 0
BBX 4 9 0 0
BITMAP
60
C0
00
E0
60
60
60
60
F0
ENDCHAR
STARTCHAR icircumflex
ENCODING 238
SWIDTH 316 0
DWIDTH 4 0
BBX 4 9 0 0
BITMAP
60
B0
00
E0
60
60
60
60
F0
ENDCHAR
STARTCHAR dcaron
ENCODING 239
SWIDTH 827 0
DWIDTH 11 0
BBX 10 10 0 0
BITMAP
0C00
1CC0
0CC0
0C40
7C80
CC00
CC00
CC00
EC00
7E00
ENDCHAR
STARTCHAR dcroat
ENCODING 240
SWIDTH 605 0
DWIDTH 8 0
BBX 7 10 0 0
BITMAP
0C
1C
1E
0C
7C
CC
CC
CC
EC
7E
ENDCHAR
STARTCHAR nacute
ENCODING 241
SWIDTH 638 0
DWIDTH 8 0
BBX 8 9 0 0
BITMAP
0C
18
00
FC
6E
66
66
66
F7
ENDCHAR
STARTCHAR ncaron
ENCODING 242
SWIDTH 638 0
DWIDTH 8 0
BBX 8 9 0 0
BITMAP
34
18
00
FC
6E
66
66
66
F7
ENDCHAR
STARTCHAR oacute
ENCODING 243
SWIDTH 585 0
DWIDTH 7 0
BBX 6 9 0 0
BITMAP
30
60
00
78
DC
CC
CC
EC
78
ENDCHAR
STARTCHAR ocircumflex
ENCODING 244
SWIDTH 585 0
DWIDTH 7 0
BBX 6 9 0 0
BITMAP
30
58
00
78
DC
CC
CC
EC
78
ENDCHAR
STARTCHAR ohungarumlaut
ENCODING 245
SWIDTH 585 0
DWIDTH 7 0
BBX 6 9 0 0
BITMAP
28
50
00
78
DC
CC
CC
EC
78
ENDCHAR
STARTCHAR odieresis
ENCODING 246
SWIDTH 585 0
DWIDTH 7 0
BBX 6 9 0 0
BITMAP
D8
D8
00
78
DC
CC
CC
EC
78
ENDCHAR
STARTCHAR divide
ENCODING 247
SWIDTH 600 0
DWIDTH 7 0
BBX 6 7 0 0
BITMAP
30
30
00
FC
00
30
30
ENDCHAR
STARTCHAR rcaron
ENCODING 248
SWIDTH 440 0
DWIDTH 6 0
BBX 5 9 0 0
BITMAP
68
30
00
D8
78
60
60
60
F0
ENDCHAR
STARTCHAR uring
ENCODING 249
SWIDTH 629 0
DWIDTH 8 0
BBX 8 10 0 0
BITMAP
18
24
18
00
EE
66
66
66
76
3F
ENDCHAR
STARTCHAR uacute
ENCODING 250
SWIDTH 629 0
DWIDTH 8 0
BBX 8 9 0 0
BITMAP
18
30
00
EE
66
66
66
76
3F
ENDCHAR
STARTCHAR uhungarumlaut
ENCODING 251
SWIDTH 629 0
DWIDTH 8 0
BBX 8 9 0 0
BITMAP
14
28
00
EE
66
66
66
76
3F
ENDCHAR
STARTCHAR udieresis
ENCODING 252
SWIDTH 629 0
DWIDTH 8 0
BBX 8 9 0 0
BITMAP
6C
6C
00
EE
66
66
66
76
3F
ENDCHAR
STARTCHAR yacute
ENCODING 253
SWIDTH 524 0
DWIDTH 6 0
BBX 7 12 -1 -3
BITMAP
18
30
00
EE
64
74
38
38
10
10
60
60
ENDCHAR
STARTCHAR tcommaaccent
ENCODING 254
SWIDTH 370 0
DWIDTH 4 0
BBX 5 11 -1 -3
BITMAP
20
60
F8
60
60
60
60
38
20
10
30
ENDCHAR
STARTCHAR dotaccent
ENCODING 255
SWIDTH 430 0
DWIDTH 5 0
BBX 2 2 1 7
BITMAP
C0
C0
ENDCHAR
ENDFONT
