STARTFONT 2.1
COMMENT AUTOMATICALLY GENERATED FILE. DO NOT EDIT!
COMMENT Generated with 'ucs2any UTB___10.bdf /usr/local/share/fonts/X11/util/map-ISO8859-2 ISO8859-2'
COMMENT from an ISO10646-1 encoded source BDF font.
COMMENT ucs2any by Ben Collver <collver1@attbi.com>, 2003, based on
COMMENT ucs2any.pl by Markus Kuhn <http://www.cl.cam.ac.uk/~mgk25/>, 2000.
FONT -Adobe-Utopia-Bold-R-Normal--10-100-75-75-P-59-ISO8859-2
SIZE 10 75 75
FONTBOUNDINGBOX 11 13 -1 -2
COMMENT ISO10646-1 extension by Markus Kuhn <mkuhn@acm.org>, 2001-03-20
STARTPROPERTIES 28
FOUNDRY "Adobe"
FAMILY_NAME "Utopia"
WEIGHT_NAME "Bold"
SLANT "R"
SETWIDTH_NAME "Normal"
ADD_STYLE_NAME ""
PIXEL_SIZE 10
POINT_SIZE 100
RESOLUTION_X 75
RESOLUTION_Y 75
SPACING "P"
AVERAGE_WIDTH 59
CHARSET_REGISTRY "ISO8859"
CHARSET_ENCODING "2"
CAP_HEIGHT 7
X_HEIGHT 5
RELATIVE_SETWIDTH 50
RELATIVE_WEIGHT 70
WEIGHT 218
FACE_NAME "Utopia Bold"
COPYRIGHT "Copyright (c) 1989, 1991 Adobe Systems Incorporated.  All rights reserved."
NOTICE "Utopia is a registered trademark of Adobe Systems Incorporated."
DESTINATION 0
FONT_ASCENT 9
FONT_DESCENT 2
DEFAULT_CHAR 0
_ADOBE_PSFONT "Utopia-Bold"
_DEC_DEVICE_FONTNAMES "PS=Utopia-Bold"
ENDPROPERTIES
CHARS 192
STARTCHAR defaultchar
ENCODING 0
SWIDTH 807 0
DWIDTH 9 0
BBX 7 7 0 0
BITMAP
AA
00
82
00
82
00
AA
ENDCHAR
STARTCHAR space
ENCODING 32
SWIDTH 210 0
DWIDTH 2 0
BBX 0 0 0 0
BITMAP
ENDCHAR
STARTCHAR exclam
ENCODING 33
SWIDTH 278 0
DWIDTH 3 0
BBX 2 7 0 0
BITMAP
C0
C0
C0
C0
00
C0
C0
ENDCHAR
STARTCHAR quotedbl
ENCODING 34
SWIDTH 473 0
DWIDTH 5 0
BBX 3 3 1 4
BITMAP
A0
A0
A0
ENDCHAR
STARTCHAR numbersign
ENCODING 35
SWIDTH 560 0
DWIDTH 6 0
BBX 6 6 0 1
BITMAP
28
7C
28
50
F8
50
ENDCHAR
STARTCHAR dollar
ENCODING 36
SWIDTH 560 0
DWIDTH 6 0
BBX 5 9 0 -1
BITMAP
20
70
D8
C0
70
18
D8
70
20
ENDCHAR
STARTCHAR percent
ENCODING 37
SWIDTH 887 0
DWIDTH 9 0
BBX 8 7 0 0
BITMAP
64
D8
D8
76
2D
2D
46
ENDCHAR
STARTCHAR ampersand
ENCODING 38
SWIDTH 748 0
DWIDTH 8 0
BBX 7 7 0 0
BITMAP
30
48
6A
72
DC
CC
76
ENDCHAR
STARTCHAR quotesingle
ENCODING 39
SWIDTH 252 0
DWIDTH 3 0
BBX 1 3 1 4
BITMAP
80
80
80
ENDCHAR
STARTCHAR parenleft
ENCODING 40
SWIDTH 365 0
DWIDTH 4 0
BBX 3 9 0 -2
BITMAP
20
40
80
80
80
80
80
40
20
ENDCHAR
STARTCHAR parenright
ENCODING 41
SWIDTH 365 0
DWIDTH 4 0
BBX 3 9 0 -2
BITMAP
80
40
20
20
20
20
20
40
80
ENDCHAR
STARTCHAR asterisk
ENCODING 42
SWIDTH 442 0
DWIDTH 5 0
BBX 5 5 0 2
BITMAP
20
A8
70
A8
20
ENDCHAR
STARTCHAR plus
ENCODING 43
SWIDTH 600 0
DWIDTH 6 0
BBX 5 5 0 0
BITMAP
20
20
F8
20
20
ENDCHAR
STARTCHAR comma
ENCODING 44
SWIDTH 280 0
DWIDTH 3 0
BBX 2 4 0 -2
BITMAP
C0
C0
40
80
ENDCHAR
STARTCHAR hyphen
ENCODING 45
SWIDTH 392 0
DWIDTH 4 0
BBX 3 1 0 2
BITMAP
E0
ENDCHAR
STARTCHAR period
ENCODING 46
SWIDTH 280 0
DWIDTH 3 0
BBX 2 2 0 0
BITMAP
C0
C0
ENDCHAR
STARTCHAR slash
ENCODING 47
SWIDTH 378 0
DWIDTH 4 0
BBX 3 7 0 0
BITMAP
20
20
40
40
40
80
80
ENDCHAR
STARTCHAR zero
ENCODING 48
SWIDTH 560 0
DWIDTH 6 0
BBX 5 7 0 0
BITMAP
70
D8
D8
D8
D8
D8
70
ENDCHAR
STARTCHAR one
ENCODING 49
SWIDTH 560 0
DWIDTH 6 0
BBX 4 7 1 0
BITMAP
60
E0
60
60
60
60
F0
ENDCHAR
STARTCHAR two
ENCODING 50
SWIDTH 560 0
DWIDTH 6 0
BBX 5 7 0 0
BITMAP
70
D8
18
30
60
F8
F8
ENDCHAR
STARTCHAR three
ENCODING 51
SWIDTH 560 0
DWIDTH 6 0
BBX 5 7 0 0
BITMAP
70
D8
18
70
18
D8
70
ENDCHAR
STARTCHAR four
ENCODING 52
SWIDTH 560 0
DWIDTH 6 0
BBX 5 7 0 0
BITMAP
60
60
50
B0
F8
30
78
ENDCHAR
STARTCHAR five
ENCODING 53
SWIDTH 560 0
DWIDTH 6 0
BBX 6 7 -1 0
BITMAP
78
78
40
78
0C
CC
78
ENDCHAR
STARTCHAR six
ENCODING 54
SWIDTH 560 0
DWIDTH 6 0
BBX 5 7 0 0
BITMAP
70
D8
C0
F0
D8
D8
70
ENDCHAR
STARTCHAR seven
ENCODING 55
SWIDTH 560 0
DWIDTH 6 0
BBX 5 7 0 0
BITMAP
F8
F8
10
30
20
60
60
ENDCHAR
STARTCHAR eight
ENCODING 56
SWIDTH 560 0
DWIDTH 6 0
BBX 5 7 0 0
BITMAP
70
D8
D8
70
D8
D8
70
ENDCHAR
STARTCHAR nine
ENCODING 57
SWIDTH 560 0
DWIDTH 6 0
BBX 5 7 0 0
BITMAP
70
D8
D8
78
18
D8
70
ENDCHAR
STARTCHAR colon
ENCODING 58
SWIDTH 280 0
DWIDTH 3 0
BBX 2 5 0 0
BITMAP
C0
C0
00
C0
C0
ENDCHAR
STARTCHAR semicolon
ENCODING 59
SWIDTH 280 0
DWIDTH 3 0
BBX 2 7 0 -2
BITMAP
C0
C0
00
C0
C0
40
80
ENDCHAR
STARTCHAR less
ENCODING 60
SWIDTH 600 0
DWIDTH 6 0
BBX 5 5 0 0
BITMAP
18
70
C0
70
18
ENDCHAR
STARTCHAR equal
ENCODING 61
SWIDTH 600 0
DWIDTH 6 0
BBX 5 3 0 1
BITMAP
F8
00
F8
ENDCHAR
STARTCHAR greater
ENCODING 62
SWIDTH 600 0
DWIDTH 6 0
BBX 5 5 0 0
BITMAP
C0
70
18
70
C0
ENDCHAR
STARTCHAR question
ENCODING 63
SWIDTH 456 0
DWIDTH 5 0
BBX 5 7 0 0
BITMAP
70
D8
30
60
00
60
60
ENDCHAR
STARTCHAR at
ENCODING 64
SWIDTH 833 0
DWIDTH 9 0
BBX 8 7 0 0
BITMAP
3C
42
9D
A9
BE
40
3E
ENDCHAR
STARTCHAR A
ENCODING 65
SWIDTH 644 0
DWIDTH 7 0
BBX 7 7 0 0
BITMAP
10
38
38
28
7C
4C
EE
ENDCHAR
STARTCHAR B
ENCODING 66
SWIDTH 683 0
DWIDTH 7 0
BBX 6 7 0 0
BITMAP
F8
6C
6C
78
6C
6C
F8
ENDCHAR
STARTCHAR C
ENCODING 67
SWIDTH 689 0
DWIDTH 7 0
BBX 6 7 0 0
BITMAP
7C
C4
C0
C0
C0
C4
7C
ENDCHAR
STARTCHAR D
ENCODING 68
SWIDTH 777 0
DWIDTH 8 0
BBX 7 7 0 0
BITMAP
FC
66
66
66
66
66
FC
ENDCHAR
STARTCHAR E
ENCODING 69
SWIDTH 629 0
DWIDTH 7 0
BBX 6 7 0 0
BITMAP
FC
64
60
78
60
64
FC
ENDCHAR
STARTCHAR F
ENCODING 70
SWIDTH 593 0
DWIDTH 6 0
BBX 6 7 0 0
BITMAP
FC
64
60
78
60
60
F0
ENDCHAR
STARTCHAR G
ENCODING 71
SWIDTH 726 0
DWIDTH 7 0
BBX 7 7 0 0
BITMAP
7C
C4
C0
C0
CE
CC
7C
ENDCHAR
STARTCHAR H
ENCODING 72
SWIDTH 807 0
DWIDTH 9 0
BBX 8 7 0 0
BITMAP
EF
66
66
7E
66
66
F7
ENDCHAR
STARTCHAR I
ENCODING 73
SWIDTH 384 0
DWIDTH 4 0
BBX 4 7 0 0
BITMAP
F0
60
60
60
60
60
F0
ENDCHAR
STARTCHAR J
ENCODING 74
SWIDTH 386 0
DWIDTH 4 0
BBX 4 9 0 -2
BITMAP
F0
60
60
60
60
60
60
60
C0
ENDCHAR
STARTCHAR K
ENCODING 75
SWIDTH 707 0
DWIDTH 7 0
BBX 7 7 0 0
BITMAP
F6
64
68
78
6C
6C
EE
ENDCHAR
STARTCHAR L
ENCODING 76
SWIDTH 585 0
DWIDTH 6 0
BBX 6 7 0 0
BITMAP
F0
60
60
60
60
64
FC
ENDCHAR
STARTCHAR M
ENCODING 77
SWIDTH 918 0
DWIDTH 10 0
BBX 9 7 0 0
BITMAP
E380
7700
7700
5B00
5B00
4300
E380
ENDCHAR
STARTCHAR N
ENCODING 78
SWIDTH 739 0
DWIDTH 8 0
BBX 7 7 0 0
BITMAP
EE
74
74
5C
5C
4C
EC
ENDCHAR
STARTCHAR O
ENCODING 79
SWIDTH 768 0
DWIDTH 8 0
BBX 7 7 0 0
BITMAP
7C
C6
C6
C6
C6
C6
7C
ENDCHAR
STARTCHAR P
ENCODING 80
SWIDTH 650 0
DWIDTH 7 0
BBX 6 7 0 0
BITMAP
F8
6C
6C
78
60
60
F0
ENDCHAR
STARTCHAR Q
ENCODING 81
SWIDTH 768 0
DWIDTH 8 0
BBX 7 9 0 -2
BITMAP
7C
C6
C6
C6
C6
C6
7C
18
0E
ENDCHAR
STARTCHAR R
ENCODING 82
SWIDTH 684 0
DWIDTH 7 0
BBX 7 7 0 0
BITMAP
F8
6C
6C
78
6C
6C
F6
ENDCHAR
STARTCHAR S
ENCODING 83
SWIDTH 561 0
DWIDTH 6 0
BBX 5 7 0 0
BITMAP
78
C8
E0
70
38
98
F0
ENDCHAR
STARTCHAR T
ENCODING 84
SWIDTH 624 0
DWIDTH 7 0
BBX 6 7 0 0
BITMAP
FC
B4
30
30
30
30
78
ENDCHAR
STARTCHAR U
ENCODING 85
SWIDTH 786 0
DWIDTH 8 0
BBX 8 7 0 0
BITMAP
EF
66
66
66
66
66
3C
ENDCHAR
STARTCHAR V
ENCODING 86
SWIDTH 645 0
DWIDTH 7 0
BBX 7 7 0 0
BITMAP
E6
64
64
38
38
38
10
ENDCHAR
STARTCHAR W
ENCODING 87
SWIDTH 933 0
DWIDTH 10 0
BBX 10 7 0 0
BITMAP
E4C0
6480
6E80
6E80
3300
3300
3300
ENDCHAR
STARTCHAR X
ENCODING 88
SWIDTH 634 0
DWIDTH 7 0
BBX 7 7 0 0
BITMAP
EE
64
38
38
38
4C
EE
ENDCHAR
STARTCHAR Y
ENCODING 89
SWIDTH 617 0
DWIDTH 6 0
BBX 8 7 -1 0
BITMAP
F7
62
34
3C
18
18
3C
ENDCHAR
STARTCHAR Z
ENCODING 90
SWIDTH 614 0
DWIDTH 6 0
BBX 5 7 0 0
BITMAP
F8
98
30
70
60
C8
F8
ENDCHAR
STARTCHAR bracketleft
ENCODING 91
SWIDTH 335 0
DWIDTH 3 0
BBX 2 9 0 -2
BITMAP
C0
80
80
80
80
80
80
80
C0
ENDCHAR
STARTCHAR backslash
ENCODING 92
SWIDTH 379 0
DWIDTH 4 0
BBX 3 7 0 0
BITMAP
80
80
40
40
40
20
20
ENDCHAR
STARTCHAR bracketright
ENCODING 93
SWIDTH 335 0
DWIDTH 3 0
BBX 2 9 0 -2
BITMAP
C0
40
40
40
40
40
40
40
C0
ENDCHAR
STARTCHAR asciicircum
ENCODING 94
SWIDTH 600 0
DWIDTH 6 0
BBX 5 5 0 2
BITMAP
20
70
50
D8
88
ENDCHAR
STARTCHAR underscore
ENCODING 95
SWIDTH 500 0
DWIDTH 5 0
BBX 5 1 0 -2
BITMAP
F8
ENDCHAR
STARTCHAR grave
ENCODING 96
SWIDTH 430 0
DWIDTH 4 0
BBX 3 2 0 6
BITMAP
C0
60
ENDCHAR
STARTCHAR a
ENCODING 97
SWIDTH 544 0
DWIDTH 6 0
BBX 6 5 0 0
BITMAP
70
D8
78
D8
7C
ENDCHAR
STARTCHAR b
ENCODING 98
SWIDTH 605 0
DWIDTH 6 0
BBX 6 8 0 0
BITMAP
E0
60
60
78
6C
6C
6C
78
ENDCHAR
STARTCHAR c
ENCODING 99
SWIDTH 494 0
DWIDTH 5 0
BBX 5 5 0 0
BITMAP
70
D8
C0
E0
78
ENDCHAR
STARTCHAR d
ENCODING 100
SWIDTH 605 0
DWIDTH 6 0
BBX 6 8 0 0
BITMAP
38
18
18
78
D8
D8
D8
7C
ENDCHAR
STARTCHAR e
ENCODING 101
SWIDTH 519 0
DWIDTH 5 0
BBX 5 5 0 0
BITMAP
70
D8
F8
C0
78
ENDCHAR
STARTCHAR f
ENCODING 102
SWIDTH 342 0
DWIDTH 4 0
BBX 5 8 0 0
BITMAP
30
58
60
F0
60
60
60
F0
ENDCHAR
STARTCHAR g
ENCODING 103
SWIDTH 533 0
DWIDTH 6 0
BBX 6 7 0 -2
BITMAP
7C
D8
D0
60
78
9C
F8
ENDCHAR
STARTCHAR h
ENCODING 104
SWIDTH 631 0
DWIDTH 7 0
BBX 7 8 0 0
BITMAP
E0
60
60
78
7C
6C
6C
EE
ENDCHAR
STARTCHAR i
ENCODING 105
SWIDTH 316 0
DWIDTH 4 0
BBX 4 8 0 0
BITMAP
60
60
00
E0
60
60
60
F0
ENDCHAR
STARTCHAR j
ENCODING 106
SWIDTH 316 0
DWIDTH 4 0
BBX 3 10 0 -2
BITMAP
60
60
00
E0
60
60
60
60
60
C0
ENDCHAR
STARTCHAR k
ENCODING 107
SWIDTH 582 0
DWIDTH 7 0
BBX 7 8 0 0
BITMAP
E0
60
60
6C
68
78
6C
EE
ENDCHAR
STARTCHAR l
ENCODING 108
SWIDTH 309 0
DWIDTH 4 0
BBX 4 8 0 0
BITMAP
E0
60
60
60
60
60
60
F0
ENDCHAR
STARTCHAR m
ENCODING 109
SWIDTH 948 0
DWIDTH 10 0
BBX 10 5 0 0
BITMAP
FB00
6D80
6D80
6D80
EDC0
ENDCHAR
STARTCHAR n
ENCODING 110
SWIDTH 638 0
DWIDTH 7 0
BBX 7 5 0 0
BITMAP
F8
6C
6C
6C
EE
ENDCHAR
STARTCHAR o
ENCODING 111
SWIDTH 585 0
DWIDTH 6 0
BBX 6 5 0 0
BITMAP
78
DC
CC
EC
78
ENDCHAR
STARTCHAR p
ENCODING 112
SWIDTH 615 0
DWIDTH 6 0
BBX 6 7 0 -2
BITMAP
F8
6C
6C
6C
78
60
F0
ENDCHAR
STARTCHAR q
ENCODING 113
SWIDTH 597 0
DWIDTH 6 0
BBX 6 8 0 -2
BITMAP
08
78
D8
D8
D8
78
18
3C
ENDCHAR
STARTCHAR r
ENCODING 114
SWIDTH 440 0
DWIDTH 5 0
BBX 5 5 0 0
BITMAP
E8
78
60
60
F0
ENDCHAR
STARTCHAR s
ENCODING 115
SWIDTH 446 0
DWIDTH 5 0
BBX 5 5 0 0
BITMAP
78
E0
70
38
F0
ENDCHAR
STARTCHAR t
ENCODING 116
SWIDTH 370 0
DWIDTH 4 0
BBX 4 7 0 0
BITMAP
20
60
F0
60
60
60
30
ENDCHAR
STARTCHAR u
ENCODING 117
SWIDTH 629 0
DWIDTH 7 0
BBX 7 5 0 0
BITMAP
EC
6C
6C
6C
3E
ENDCHAR
STARTCHAR v
ENCODING 118
SWIDTH 520 0
DWIDTH 5 0
BBX 5 5 0 0
BITMAP
D8
D8
70
70
20
ENDCHAR
STARTCHAR w
ENCODING 119
SWIDTH 774 0
DWIDTH 8 0
BBX 8 5 0 0
BITMAP
DB
DB
DB
7E
66
ENDCHAR
STARTCHAR x
ENCODING 120
SWIDTH 522 0
DWIDTH 5 0
BBX 5 5 0 0
BITMAP
D8
70
20
70
D8
ENDCHAR
STARTCHAR y
ENCODING 121
SWIDTH 524 0
DWIDTH 5 0
BBX 5 7 0 -2
BITMAP
D8
D8
70
70
20
E0
C0
ENDCHAR
STARTCHAR z
ENCODING 122
SWIDTH 483 0
DWIDTH 5 0
BBX 5 5 0 0
BITMAP
F8
30
70
60
F8
ENDCHAR
STARTCHAR braceleft
ENCODING 123
SWIDTH 365 0
DWIDTH 4 0
BBX 3 9 0 -2
BITMAP
20
40
40
40
80
40
40
40
20
ENDCHAR
STARTCHAR bar
ENCODING 124
SWIDTH 284 0
DWIDTH 3 0
BBX 1 7 1 0
BITMAP
80
80
80
80
80
80
80
ENDCHAR
STARTCHAR braceright
ENCODING 125
SWIDTH 365 0
DWIDTH 4 0
BBX 3 9 0 -2
BITMAP
80
40
40
40
20
40
40
40
80
ENDCHAR
STARTCHAR asciitilde
ENCODING 126
SWIDTH 600 0
DWIDTH 6 0
BBX 5 2 0 2
BITMAP
68
B0
ENDCHAR
STARTCHAR space
ENCODING 160
SWIDTH 210 0
DWIDTH 2 0
BBX 0 0 0 0
BITMAP
ENDCHAR
STARTCHAR Aogonek
ENCODING 161
SWIDTH 644 0
DWIDTH 7 0
BBX 7 9 0 -2
BITMAP
10
38
38
28
7C
4C
EE
10
18
ENDCHAR
STARTCHAR breve
ENCODING 162
SWIDTH 430 0
DWIDTH 5 0
BBX 4 2 0 6
BITMAP
90
60
ENDCHAR
STARTCHAR Lslash
ENCODING 163
SWIDTH 591 0
DWIDTH 6 0
BBX 6 7 0 0
BITMAP
F0
60
70
E0
60
64
FC
ENDCHAR
STARTCHAR currency
ENCODING 164
SWIDTH 560 0
DWIDTH 6 0
BBX 5 7 0 0
BITMAP
88
70
D8
88
D8
70
88
ENDCHAR
STARTCHAR Lcaron
ENCODING 165
SWIDTH 808 0
DWIDTH 9 0
BBX 8 7 0 0
BITMAP
F3
63
61
62
60
64
FC
ENDCHAR
STARTCHAR Sacute
ENCODING 166
SWIDTH 561 0
DWIDTH 6 0
BBX 5 10 0 0
BITMAP
30
60
00
78
C8
E0
70
38
98
F0
ENDCHAR
STARTCHAR section
ENCODING 167
SWIDTH 566 0
DWIDTH 6 0
BBX 6 9 0 -2
BITMAP
38
48
60
B8
CC
74
18
48
70
ENDCHAR
STARTCHAR dieresis
ENCODING 168
SWIDTH 430 0
DWIDTH 4 0
BBX 3 2 0 6
BITMAP
A0
A0
ENDCHAR
STARTCHAR Scaron
ENCODING 169
SWIDTH 561 0
DWIDTH 6 0
BBX 5 9 0 0
BITMAP
68
30
00
78
C8
E0
38
98
F0
ENDCHAR
STARTCHAR Scedilla
ENCODING 170
SWIDTH 561 0
DWIDTH 6 0
BBX 5 9 0 -2
BITMAP
78
C8
E0
70
38
98
F0
20
60
ENDCHAR
STARTCHAR Tcaron
ENCODING 171
SWIDTH 624 0
DWIDTH 7 0
BBX 6 10 0 0
BITMAP
68
30
00
FC
B4
30
30
30
30
78
ENDCHAR
STARTCHAR Zacute
ENCODING 172
SWIDTH 614 0
DWIDTH 6 0
BBX 5 10 0 0
BITMAP
30
60
00
F8
98
30
70
60
C8
F8
ENDCHAR
STARTCHAR hyphen
ENCODING 173
SWIDTH 392 0
DWIDTH 4 0
BBX 3 1 0 2
BITMAP
E0
ENDCHAR
STARTCHAR Zcaron
ENCODING 174
SWIDTH 614 0
DWIDTH 6 0
BBX 5 9 0 0
BITMAP
D0
60
00
F8
98
30
60
C8
F8
ENDCHAR
STARTCHAR Zdotaccent
ENCODING 175
SWIDTH 614 0
DWIDTH 6 0
BBX 5 10 0 0
BITMAP
20
20
00
F8
98
30
70
60
C8
F8
ENDCHAR
STARTCHAR degree
ENCODING 176
SWIDTH 396 0
DWIDTH 4 0
BBX 3 4 0 3
BITMAP
40
A0
A0
40
ENDCHAR
STARTCHAR aogonek
ENCODING 177
SWIDTH 544 0
DWIDTH 6 0
BBX 6 7 0 -2
BITMAP
70
D8
78
D8
7C
20
30
ENDCHAR
STARTCHAR ogonek
ENCODING 178
SWIDTH 430 0
DWIDTH 4 0
BBX 2 2 1 -2
BITMAP
80
C0
ENDCHAR
STARTCHAR lslash
ENCODING 179
SWIDTH 321 0
DWIDTH 4 0
BBX 4 8 0 0
BITMAP
E0
60
60
70
E0
60
60
F0
ENDCHAR
STARTCHAR acute
ENCODING 180
SWIDTH 430 0
DWIDTH 4 0
BBX 3 2 0 6
BITMAP
60
C0
ENDCHAR
STARTCHAR lcaron
ENCODING 181
SWIDTH 546 0
DWIDTH 7 0
BBX 6 8 0 0
BITMAP
E0
6C
6C
64
68
60
60
F0
ENDCHAR
STARTCHAR sacute
ENCODING 182
SWIDTH 446 0
DWIDTH 5 0
BBX 5 8 0 0
BITMAP
30
60
00
78
E0
70
38
F0
ENDCHAR
STARTCHAR caron
ENCODING 183
SWIDTH 430 0
DWIDTH 5 0
BBX 4 2 0 6
BITMAP
D0
60
ENDCHAR
STARTCHAR cedilla
ENCODING 184
SWIDTH 430 0
DWIDTH 4 0
BBX 2 2 1 -2
BITMAP
40
C0
ENDCHAR
STARTCHAR scaron
ENCODING 185
SWIDTH 446 0
DWIDTH 5 0
BBX 5 8 0 0
BITMAP
D0
60
00
78
E0
70
38
F0
ENDCHAR
STARTCHAR scedilla
ENCODING 186
SWIDTH 446 0
DWIDTH 5 0
BBX 5 7 0 -2
BITMAP
78
E0
70
38
F0
20
60
ENDCHAR
STARTCHAR tcaron
ENCODING 187
SWIDTH 604 0
DWIDTH 7 0
BBX 6 7 0 0
BITMAP
2C
6C
F4
68
60
60
30
ENDCHAR
STARTCHAR zacute
ENCODING 188
SWIDTH 483 0
DWIDTH 5 0
BBX 5 8 0 0
BITMAP
30
60
00
F8
30
70
60
F8
ENDCHAR
STARTCHAR hungarumlaut
ENCODING 189
SWIDTH 430 0
DWIDTH 4 0
BBX 4 2 0 6
BITMAP
50
A0
ENDCHAR
STARTCHAR zcaron
ENCODING 190
SWIDTH 483 0
DWIDTH 5 0
BBX 5 8 0 0
BITMAP
D0
60
00
F8
30
70
60
F8
ENDCHAR
STARTCHAR zdotaccent
ENCODING 191
SWIDTH 483 0
DWIDTH 5 0
BBX 5 8 0 0
BITMAP
20
20
00
F8
30
70
60
F8
ENDCHAR
STARTCHAR Racute
ENCODING 192
SWIDTH 684 0
DWIDTH 7 0
BBX 7 10 0 0
BITMAP
18
30
00
F8
6C
6C
78
6C
6C
F6
ENDCHAR
STARTCHAR Aacute
ENCODING 193
SWIDTH 644 0
DWIDTH 7 0
BBX 7 9 0 0
BITMAP
18
30
00
10
38
28
7C
4C
EE
ENDCHAR
STARTCHAR Acircumflex
ENCODING 194
SWIDTH 644 0
DWIDTH 7 0
BBX 7 9 0 0
BITMAP
30
58
00
10
38
28
7C
4C
EE
ENDCHAR
STARTCHAR Abreve
ENCODING 195
SWIDTH 644 0
DWIDTH 7 0
BBX 7 10 0 0
BITMAP
24
18
00
10
38
38
28
7C
4C
EE
ENDCHAR
STARTCHAR Adieresis
ENCODING 196
SWIDTH 644 0
DWIDTH 7 0
BBX 7 9 0 0
BITMAP
28
28
00
10
38
28
7C
4C
EE
ENDCHAR
STARTCHAR Lacute
ENCODING 197
SWIDTH 585 0
DWIDTH 6 0
BBX 6 10 0 0
BITMAP
30
60
00
F0
60
60
60
60
64
FC
ENDCHAR
STARTCHAR Cacute
ENCODING 198
SWIDTH 689 0
DWIDTH 7 0
BBX 6 10 0 0
BITMAP
18
30
00
7C
C4
C0
C0
C0
C4
7C
ENDCHAR
STARTCHAR Ccedilla
ENCODING 199
SWIDTH 689 0
DWIDTH 7 0
BBX 6 9 0 -2
BITMAP
7C
C4
C0
C0
C0
C4
7C
10
30
ENDCHAR
STARTCHAR Ccaron
ENCODING 200
SWIDTH 689 0
DWIDTH 7 0
BBX 6 10 0 0
BITMAP
68
30
00
7C
C4
C0
C0
C0
C4
7C
ENDCHAR
STARTCHAR Eacute
ENCODING 201
SWIDTH 629 0
DWIDTH 7 0
BBX 6 9 0 0
BITMAP
18
30
00
FC
64
78
60
64
FC
ENDCHAR
STARTCHAR Eogonek
ENCODING 202
SWIDTH 629 0
DWIDTH 7 0
BBX 6 9 0 -2
BITMAP
FC
64
60
78
60
64
FC
20
30
ENDCHAR
STARTCHAR Edieresis
ENCODING 203
SWIDTH 629 0
DWIDTH 7 0
BBX 6 9 0 0
BITMAP
50
50
00
FC
64
78
60
64
FC
ENDCHAR
STARTCHAR Ecaron
ENCODING 204
SWIDTH 629 0
DWIDTH 7 0
BBX 6 10 0 0
BITMAP
68
30
00
FC
64
60
78
60
64
FC
ENDCHAR
STARTCHAR Iacute
ENCODING 205
SWIDTH 384 0
DWIDTH 4 0
BBX 4 9 0 0
BITMAP
60
C0
00
F0
60
60
60
60
F0
ENDCHAR
STARTCHAR Icircumflex
ENCODING 206
SWIDTH 384 0
DWIDTH 4 0
BBX 4 9 0 0
BITMAP
60
B0
00
F0
60
60
60
60
F0
ENDCHAR
STARTCHAR Dcaron
ENCODING 207
SWIDTH 777 0
DWIDTH 8 0
BBX 7 10 0 0
BITMAP
68
30
00
FC
66
66
66
66
66
FC
ENDCHAR
STARTCHAR Dcroat
ENCODING 208
SWIDTH 783 0
DWIDTH 8 0
BBX 7 7 0 0
BITMAP
FC
66
66
F6
66
66
FC
ENDCHAR
STARTCHAR Nacute
ENCODING 209
SWIDTH 739 0
DWIDTH 8 0
BBX 7 10 0 0
BITMAP
18
30
00
EE
74
74
5C
5C
4C
EC
ENDCHAR
STARTCHAR Ncaron
ENCODING 210
SWIDTH 739 0
DWIDTH 8 0
BBX 7 10 0 0
BITMAP
68
30
00
EE
74
74
5C
5C
4C
EC
ENDCHAR
STARTCHAR Oacute
ENCODING 211
SWIDTH 768 0
DWIDTH 8 0
BBX 7 9 0 0
BITMAP
0C
18
00
7C
C6
C6
C6
C6
7C
ENDCHAR
STARTCHAR Ocircumflex
ENCODING 212
SWIDTH 768 0
DWIDTH 8 0
BBX 7 9 0 0
BITMAP
30
58
00
7C
C6
C6
C6
C6
7C
ENDCHAR
STARTCHAR Ohungarumlaut
ENCODING 213
SWIDTH 768 0
DWIDTH 8 0
BBX 7 10 0 0
BITMAP
14
28
00
7C
C6
C6
C6
C6
C6
7C
ENDCHAR
STARTCHAR Odieresis
ENCODING 214
SWIDTH 768 0
DWIDTH 8 0
BBX 7 9 0 0
BITMAP
28
28
00
7C
C6
C6
C6
C6
7C
ENDCHAR
STARTCHAR multiply
ENCODING 215
SWIDTH 600 0
DWIDTH 6 0
BBX 5 5 0 0
BITMAP
88
50
20
50
88
ENDCHAR
STARTCHAR Rcaron
ENCODING 216
SWIDTH 684 0
DWIDTH 7 0
BBX 7 10 0 0
BITMAP
68
30
00
F8
6C
6C
78
6C
6C
F6
ENDCHAR
STARTCHAR Uring
ENCODING 217
SWIDTH 786 0
DWIDTH 8 0
BBX 8 11 0 0
BITMAP
18
24
18
00
EF
66
66
66
66
66
3C
ENDCHAR
STARTCHAR Uacute
ENCODING 218
SWIDTH 786 0
DWIDTH 8 0
BBX 8 9 0 0
BITMAP
18
30
00
EF
66
66
66
66
3C
ENDCHAR
STARTCHAR Uhungarumlaut
ENCODING 219
SWIDTH 786 0
DWIDTH 8 0
BBX 8 10 0 0
BITMAP
14
28
00
EF
66
66
66
66
66
3C
ENDCHAR
STARTCHAR Udieresis
ENCODING 220
SWIDTH 786 0
DWIDTH 8 0
BBX 8 9 0 0
BITMAP
28
28
00
EF
66
66
66
66
3C
ENDCHAR
STARTCHAR Yacute
ENCODING 221
SWIDTH 617 0
DWIDTH 7 0
BBX 8 9 -1 0
BITMAP
0C
18
00
F7
62
34
18
18
3C
ENDCHAR
STARTCHAR Tcommaaccent
ENCODING 222
SWIDTH 624 0
DWIDTH 7 0
BBX 6 9 0 -2
BITMAP
FC
B4
30
30
30
30
78
10
30
ENDCHAR
STARTCHAR germandbls
ENCODING 223
SWIDTH 662 0
DWIDTH 7 0
BBX 7 8 0 0
BITMAP
38
6C
6C
68
6C
66
66
EC
ENDCHAR
STARTCHAR racute
ENCODING 224
SWIDTH 440 0
DWIDTH 5 0
BBX 5 8 0 0
BITMAP
30
60
00
E8
78
60
60
F0
ENDCHAR
STARTCHAR aacute
ENCODING 225
SWIDTH 544 0
DWIDTH 6 0
BBX 6 8 0 0
BITMAP
30
60
00
70
D8
78
D8
7C
ENDCHAR
STARTCHAR acircumflex
ENCODING 226
SWIDTH 544 0
DWIDTH 6 0
BBX 6 8 0 0
BITMAP
30
58
00
70
D8
78
D8
7C
ENDCHAR
STARTCHAR abreve
ENCODING 227
SWIDTH 544 0
DWIDTH 6 0
BBX 6 8 0 0
BITMAP
48
30
00
70
D8
78
D8
7C
ENDCHAR
STARTCHAR adieresis
ENCODING 228
SWIDTH 544 0
DWIDTH 6 0
BBX 6 8 0 0
BITMAP
50
50
00
70
D8
78
D8
7C
ENDCHAR
STARTCHAR lacute
ENCODING 229
SWIDTH 309 0
DWIDTH 4 0
BBX 4 11 0 0
BITMAP
30
60
00
E0
60
60
60
60
60
60
F0
ENDCHAR
STARTCHAR cacute
ENCODING 230
SWIDTH 494 0
DWIDTH 5 0
BBX 5 8 0 0
BITMAP
30
60
00
70
D8
C0
E0
78
ENDCHAR
STARTCHAR ccedilla
ENCODING 231
SWIDTH 494 0
DWIDTH 5 0
BBX 5 7 0 -2
BITMAP
70
D8
C0
E0
78
20
60
ENDCHAR
STARTCHAR ccaron
ENCODING 232
SWIDTH 494 0
DWIDTH 5 0
BBX 5 8 0 0
BITMAP
68
30
00
70
D8
C0
E0
78
ENDCHAR
STARTCHAR eacute
ENCODING 233
SWIDTH 519 0
DWIDTH 5 0
BBX 5 8 0 0
BITMAP
30
60
00
70
D8
F8
C0
78
ENDCHAR
STARTCHAR eogonek
ENCODING 234
SWIDTH 519 0
DWIDTH 5 0
BBX 5 7 0 -2
BITMAP
70
D8
F8
C0
78
20
30
ENDCHAR
STARTCHAR edieresis
ENCODING 235
SWIDTH 519 0
DWIDTH 5 0
BBX 5 8 0 0
BITMAP
50
50
00
70
D8
F8
C0
78
ENDCHAR
STARTCHAR ecaron
ENCODING 236
SWIDTH 519 0
DWIDTH 5 0
BBX 5 8 0 0
BITMAP
68
30
00
70
D8
F8
C0
78
ENDCHAR
STARTCHAR iacute
ENCODING 237
SWIDTH 316 0
DWIDTH 4 0
BBX 4 8 0 0
BITMAP
30
60
00
E0
60
60
60
F0
ENDCHAR
STARTCHAR icircumflex
ENCODING 238
SWIDTH 316 0
DWIDTH 4 0
BBX 4 8 0 0
BITMAP
60
B0
00
E0
60
60
60
F0
ENDCHAR
STARTCHAR dcaron
ENCODING 239
SWIDTH 827 0
DWIDTH 9 0
BBX 8 8 0 0
BITMAP
38
1B
1B
79
DA
D8
D8
7C
ENDCHAR
STARTCHAR dcroat
ENCODING 240
SWIDTH 605 0
DWIDTH 6 0
BBX 6 8 0 0
BITMAP
38
18
3C
78
D8
D8
D8
7C
ENDCHAR
STARTCHAR nacute
ENCODING 241
SWIDTH 638 0
DWIDTH 7 0
BBX 7 8 0 0
BITMAP
18
30
00
F8
6C
6C
6C
EE
ENDCHAR
STARTCHAR ncaron
ENCODING 242
SWIDTH 638 0
DWIDTH 7 0
BBX 7 8 0 0
BITMAP
68
30
00
F8
6C
6C
6C
EE
ENDCHAR
STARTCHAR oacute
ENCODING 243
SWIDTH 585 0
DWIDTH 6 0
BBX 6 8 0 0
BITMAP
18
30
00
78
DC
CC
EC
78
ENDCHAR
STARTCHAR ocircumflex
ENCODING 244
SWIDTH 585 0
DWIDTH 6 0
BBX 6 8 0 0
BITMAP
30
58
00
78
DC
CC
EC
78
ENDCHAR
STARTCHAR ohungarumlaut
ENCODING 245
SWIDTH 585 0
DWIDTH 6 0
BBX 6 8 0 0
BITMAP
28
50
00
78
DC
CC
EC
78
ENDCHAR
STARTCHAR odieresis
ENCODING 246
SWIDTH 585 0
DWIDTH 6 0
BBX 6 8 0 0
BITMAP
50
50
00
78
DC
CC
EC
78
ENDCHAR
STARTCHAR divide
ENCODING 247
SWIDTH 600 0
DWIDTH 6 0
BBX 5 5 0 0
BITMAP
20
00
F8
00
20
ENDCHAR
STARTCHAR rcaron
ENCODING 248
SWIDTH 440 0
DWIDTH 5 0
BBX 5 8 0 0
BITMAP
68
30
00
E8
78
60
60
F0
ENDCHAR
STARTCHAR uring
ENCODING 249
SWIDTH 629 0
DWIDTH 7 0
BBX 7 9 0 0
BITMAP
30
48
30
00
EC
6C
6C
6C
3E
ENDCHAR
STARTCHAR uacute
ENCODING 250
SWIDTH 629 0
DWIDTH 7 0
BBX 7 8 0 0
BITMAP
0C
18
00
EC
6C
6C
6C
3E
ENDCHAR
STARTCHAR uhungarumlaut
ENCODING 251
SWIDTH 629 0
DWIDTH 7 0
BBX 7 8 0 0
BITMAP
14
28
00
EC
6C
6C
6C
3E
ENDCHAR
STARTCHAR udieresis
ENCODING 252
SWIDTH 629 0
DWIDTH 7 0
BBX 7 8 0 0
BITMAP
28
28
00
EC
6C
6C
6C
3E
ENDCHAR
STARTCHAR yacute
ENCODING 253
SWIDTH 524 0
DWIDTH 5 0
BBX 5 10 0 -2
BITMAP
60
30
00
D8
D8
70
70
20
E0
C0
ENDCHAR
STARTCHAR tcommaaccent
ENCODING 254
SWIDTH 370 0
DWIDTH 4 0
BBX 4 9 0 -2
BITMAP
20
60
F0
60
60
60
30
20
60
ENDCHAR
STARTCHAR dotaccent
ENCODING 255
SWIDTH 430 0
DWIDTH 4 0
BBX 1 2 1 6
BITMAP
80
80
ENDCHAR
ENDFONT
