STARTFONT 2.1
COMMENT AUTOMATICALLY GENERATED FILE. DO NOT EDIT!
COMMENT Generated with 'ucs2any UTRG__14.bdf /usr/local/share/fonts/X11/util/map-ISO8859-2 ISO8859-2'
COMMENT from an ISO10646-1 encoded source BDF font.
COMMENT ucs2any by Ben Collver <collver1@attbi.com>, 2003, based on
COMMENT ucs2any.pl by Markus Kuhn <http://www.cl.cam.ac.uk/~mgk25/>, 2000.
FONT -Adobe-Utopia-Regular-R-Normal--15-140-75-75-P-79-ISO8859-2
SIZE 14 75 75
FONTBOUNDINGBOX 16 17 -1 -3
COMMENT ISO10646-1 extension by Markus Kuhn <mkuhn@acm.org>, 2001-03-20
STARTPROPERTIES 28
FOUNDRY "Adobe"
FAMILY_NAME "Utopia"
WEIGHT_NAME "Regular"
SLANT "R"
SETWIDTH_NAME "Normal"
ADD_STYLE_NAME ""
PIXEL_SIZE 15
POINT_SIZE 140
RESOLUTION_X 75
RESOLUTION_Y 75
SPACING "P"
AVERAGE_WIDTH 79
CHARSET_REGISTRY "ISO8859"
CHARSET_ENCODING "2"
CAP_HEIGHT 10
X_HEIGHT 7
RELATIVE_SETWIDTH 50
RELATIVE_WEIGHT 50
WEIGHT 136
FACE_NAME "Utopia Regular"
COPYRIGHT "Copyright (c) 1989, 1991 Adobe Systems Incorporated.  All rights reserved."
NOTICE "Utopia is a registered trademark of Adobe Systems Incorporated."
DESTINATION 0
FONT_ASCENT 12
FONT_DESCENT 3
DEFAULT_CHAR 0
_ADOBE_PSFONT "Utopia-Regular"
_DEC_DEVICE_FONTNAMES "PS=Utopia-Regular"
ENDPROPERTIES
CHARS 192
STARTCHAR defaultchar
ENCODING 0
SWIDTH 798 0
DWIDTH 11 0
BBX 9 9 1 0
BITMAP
AA80
0000
8080
0000
8080
0000
8080
0000
AA80
ENDCHAR
STARTCHAR space
ENCODING 32
SWIDTH 225 0
DWIDTH 3 0
BBX 0 0 0 0
BITMAP
ENDCHAR
STARTCHAR exclam
ENCODING 33
SWIDTH 242 0
DWIDTH 3 0
BBX 1 10 1 0
BITMAP
80
80
80
80
80
80
80
00
80
80
ENDCHAR
STARTCHAR quotedbl
ENCODING 34
SWIDTH 458 0
DWIDTH 6 0
BBX 3 4 1 6
BITMAP
A0
A0
A0
A0
ENDCHAR
STARTCHAR numbersign
ENCODING 35
SWIDTH 530 0
DWIDTH 8 0
BBX 7 9 0 1
BITMAP
14
14
7E
28
28
28
FC
50
50
ENDCHAR
STARTCHAR dollar
ENCODING 36
SWIDTH 530 0
DWIDTH 8 0
BBX 6 12 1 -1
BITMAP
10
7C
D4
90
D0
78
2C
24
24
AC
F8
20
ENDCHAR
STARTCHAR percent
ENCODING 37
SWIDTH 838 0
DWIDTH 12 0
BBX 11 10 0 0
BITMAP
6080
9F00
9100
9200
6400
04C0
0920
1120
1120
20C0
ENDCHAR
STARTCHAR ampersand
ENCODING 38
SWIDTH 706 0
DWIDTH 10 0
BBX 9 10 1 0
BITMAP
3800
4400
4400
2800
7000
D900
8900
8600
C600
7980
ENDCHAR
STARTCHAR quotesingle
ENCODING 39
SWIDTH 278 0
DWIDTH 4 0
BBX 1 4 1 6
BITMAP
80
80
80
80
ENDCHAR
STARTCHAR parenleft
ENCODING 40
SWIDTH 350 0
DWIDTH 5 0
BBX 3 12 1 -2
BITMAP
20
40
80
80
80
80
80
80
80
80
40
20
ENDCHAR
STARTCHAR parenright
ENCODING 41
SWIDTH 350 0
DWIDTH 5 0
BBX 3 12 0 -2
BITMAP
80
40
20
20
20
20
20
20
20
20
40
80
ENDCHAR
STARTCHAR asterisk
ENCODING 42
SWIDTH 412 0
DWIDTH 6 0
BBX 5 5 0 5
BITMAP
20
A8
70
A8
20
ENDCHAR
STARTCHAR plus
ENCODING 43
SWIDTH 570 0
DWIDTH 8 0
BBX 7 7 0 0
BITMAP
10
10
10
FE
10
10
10
ENDCHAR
STARTCHAR comma
ENCODING 44
SWIDTH 265 0
DWIDTH 4 0
BBX 2 4 1 -2
BITMAP
C0
40
40
80
ENDCHAR
STARTCHAR hyphen
ENCODING 45
SWIDTH 392 0
DWIDTH 5 0
BBX 3 1 1 3
BITMAP
E0
ENDCHAR
STARTCHAR period
ENCODING 46
SWIDTH 265 0
DWIDTH 4 0
BBX 1 2 1 0
BITMAP
80
80
ENDCHAR
STARTCHAR slash
ENCODING 47
SWIDTH 460 0
DWIDTH 7 0
BBX 4 10 1 0
BITMAP
10
10
20
20
20
40
40
80
80
80
ENDCHAR
STARTCHAR zero
ENCODING 48
SWIDTH 530 0
DWIDTH 8 0
BBX 6 10 1 0
BITMAP
78
CC
84
84
84
84
84
84
CC
78
ENDCHAR
STARTCHAR one
ENCODING 49
SWIDTH 530 0
DWIDTH 8 0
BBX 5 10 1 0
BITMAP
20
E0
20
20
20
20
20
20
20
F8
ENDCHAR
STARTCHAR two
ENCODING 50
SWIDTH 530 0
DWIDTH 8 0
BBX 6 10 1 0
BITMAP
78
CC
04
0C
18
10
20
60
C4
FC
ENDCHAR
STARTCHAR three
ENCODING 51
SWIDTH 530 0
DWIDTH 8 0
BBX 6 10 1 0
BITMAP
78
CC
04
08
38
0C
04
04
CC
78
ENDCHAR
STARTCHAR four
ENCODING 52
SWIDTH 530 0
DWIDTH 8 0
BBX 6 10 1 0
BITMAP
30
30
20
68
48
C8
88
FC
08
1C
ENDCHAR
STARTCHAR five
ENCODING 53
SWIDTH 530 0
DWIDTH 8 0
BBX 6 10 1 0
BITMAP
FC
80
80
B8
CC
84
04
04
CC
78
ENDCHAR
STARTCHAR six
ENCODING 54
SWIDTH 530 0
DWIDTH 8 0
BBX 6 10 1 0
BITMAP
78
CC
80
80
B8
CC
84
84
CC
78
ENDCHAR
STARTCHAR seven
ENCODING 55
SWIDTH 530 0
DWIDTH 8 0
BBX 6 10 1 0
BITMAP
FC
84
08
08
18
10
10
30
30
20
ENDCHAR
STARTCHAR eight
ENCODING 56
SWIDTH 530 0
DWIDTH 8 0
BBX 6 10 1 0
BITMAP
78
CC
84
CC
78
CC
84
84
CC
78
ENDCHAR
STARTCHAR nine
ENCODING 57
SWIDTH 530 0
DWIDTH 8 0
BBX 6 10 1 0
BITMAP
78
CC
84
84
CC
74
04
04
CC
78
ENDCHAR
STARTCHAR colon
ENCODING 58
SWIDTH 265 0
DWIDTH 4 0
BBX 1 7 1 0
BITMAP
80
80
00
00
00
80
80
ENDCHAR
STARTCHAR semicolon
ENCODING 59
SWIDTH 265 0
DWIDTH 4 0
BBX 2 9 1 -2
BITMAP
40
40
00
00
00
C0
40
40
80
ENDCHAR
STARTCHAR less
ENCODING 60
SWIDTH 570 0
DWIDTH 8 0
BBX 7 7 0 0
BITMAP
02
0C
30
C0
30
0C
02
ENDCHAR
STARTCHAR equal
ENCODING 61
SWIDTH 570 0
DWIDTH 8 0
BBX 7 4 0 1
BITMAP
FE
00
00
FE
ENDCHAR
STARTCHAR greater
ENCODING 62
SWIDTH 570 0
DWIDTH 8 0
BBX 7 7 0 0
BITMAP
80
60
18
06
18
60
80
ENDCHAR
STARTCHAR question
ENCODING 63
SWIDTH 389 0
DWIDTH 6 0
BBX 5 10 0 0
BITMAP
70
C8
18
30
60
40
30
00
20
20
ENDCHAR
STARTCHAR at
ENCODING 64
SWIDTH 793 0
DWIDTH 11 0
BBX 10 10 1 0
BITMAP
1F00
2080
4E40
9240
A240
A440
AC80
9700
4000
3F00
ENDCHAR
STARTCHAR A
ENCODING 65
SWIDTH 635 0
DWIDTH 9 0
BBX 9 10 0 0
BITMAP
0800
0800
1400
1400
2200
2200
3E00
4100
4100
E380
ENDCHAR
STARTCHAR B
ENCODING 66
SWIDTH 646 0
DWIDTH 9 0
BBX 7 10 1 0
BITMAP
FC
46
42
44
7C
46
42
42
46
FC
ENDCHAR
STARTCHAR C
ENCODING 67
SWIDTH 684 0
DWIDTH 10 0
BBX 8 10 1 0
BITMAP
3E
43
C1
80
80
80
80
C1
43
3E
ENDCHAR
STARTCHAR D
ENCODING 68
SWIDTH 779 0
DWIDTH 11 0
BBX 9 10 1 0
BITMAP
FE00
4100
4180
4080
4080
4080
4080
4180
4100
FE00
ENDCHAR
STARTCHAR E
ENCODING 69
SWIDTH 606 0
DWIDTH 9 0
BBX 7 10 1 0
BITMAP
FE
42
40
44
7C
44
40
42
42
FE
ENDCHAR
STARTCHAR F
ENCODING 70
SWIDTH 580 0
DWIDTH 9 0
BBX 7 10 1 0
BITMAP
FE
42
40
44
7C
44
40
40
40
E0
ENDCHAR
STARTCHAR G
ENCODING 71
SWIDTH 734 0
DWIDTH 11 0
BBX 9 10 1 0
BITMAP
3E00
4300
C100
8000
8000
8780
8100
C100
4100
3E00
ENDCHAR
STARTCHAR H
ENCODING 72
SWIDTH 798 0
DWIDTH 11 0
BBX 9 10 1 0
BITMAP
E380
4100
4100
4100
7F00
4100
4100
4100
4100
E380
ENDCHAR
STARTCHAR I
ENCODING 73
SWIDTH 349 0
DWIDTH 5 0
BBX 3 10 1 0
BITMAP
E0
40
40
40
40
40
40
40
40
E0
ENDCHAR
STARTCHAR J
ENCODING 74
SWIDTH 350 0
DWIDTH 5 0
BBX 4 12 0 -2
BITMAP
70
20
20
20
20
20
20
20
20
20
40
80
ENDCHAR
STARTCHAR K
ENCODING 75
SWIDTH 658 0
DWIDTH 10 0
BBX 9 10 1 0
BITMAP
E700
4200
4400
4800
5000
7800
4C00
4600
4300
E180
ENDCHAR
STARTCHAR L
ENCODING 76
SWIDTH 568 0
DWIDTH 8 0
BBX 7 10 1 0
BITMAP
E0
40
40
40
40
40
40
42
42
FE
ENDCHAR
STARTCHAR M
ENCODING 77
SWIDTH 944 0
DWIDTH 14 0
BBX 12 10 1 0
BITMAP
E070
6060
70A0
50A0
5920
4920
4E20
4620
4420
E070
ENDCHAR
STARTCHAR N
ENCODING 78
SWIDTH 780 0
DWIDTH 12 0
BBX 10 10 1 0
BITMAP
C1C0
6080
7080
5880
4880
4480
4680
4380
4180
E080
ENDCHAR
STARTCHAR O
ENCODING 79
SWIDTH 762 0
DWIDTH 11 0
BBX 9 10 1 0
BITMAP
3E00
4100
C180
8080
8080
8080
8080
C180
4100
3E00
ENDCHAR
STARTCHAR P
ENCODING 80
SWIDTH 600 0
DWIDTH 9 0
BBX 7 10 1 0
BITMAP
FC
46
42
42
46
7C
40
40
40
E0
ENDCHAR
STARTCHAR Q
ENCODING 81
SWIDTH 762 0
DWIDTH 11 0
BBX 9 13 1 -3
BITMAP
3E00
4100
C180
8080
8080
8080
8080
C180
4100
3E00
0C00
0600
0180
ENDCHAR
STARTCHAR R
ENCODING 82
SWIDTH 644 0
DWIDTH 9 0
BBX 8 10 1 0
BITMAP
FC
46
42
42
44
7C
46
42
42
E3
ENDCHAR
STARTCHAR S
ENCODING 83
SWIDTH 541 0
DWIDTH 8 0
BBX 6 10 1 0
BITMAP
78
CC
84
C0
60
18
0C
84
CC
78
ENDCHAR
STARTCHAR T
ENCODING 84
SWIDTH 621 0
DWIDTH 9 0
BBX 9 10 0 0
BITMAP
FF80
8880
0800
0800
0800
0800
0800
0800
0800
1C00
ENDCHAR
STARTCHAR U
ENCODING 85
SWIDTH 791 0
DWIDTH 11 0
BBX 9 10 1 0
BITMAP
E380
4100
4100
4100
4100
4100
4100
4100
6300
3E00
ENDCHAR
STARTCHAR V
ENCODING 86
SWIDTH 634 0
DWIDTH 9 0
BBX 9 10 0 0
BITMAP
E380
4100
6100
2200
2200
3200
1400
1C00
0800
0800
ENDCHAR
STARTCHAR W
ENCODING 87
SWIDTH 940 0
DWIDTH 15 0
BBX 15 10 0 0
BITMAP
E10E
4104
6388
2288
2288
34D0
1450
1450
1860
0820
ENDCHAR
STARTCHAR X
ENCODING 88
SWIDTH 624 0
DWIDTH 10 0
BBX 8 10 1 0
BITMAP
E7
42
24
34
18
18
2C
24
42
E7
ENDCHAR
STARTCHAR Y
ENCODING 89
SWIDTH 588 0
DWIDTH 9 0
BBX 9 10 0 0
BITMAP
E380
6100
2200
3200
1400
1C00
0800
0800
0800
1C00
ENDCHAR
STARTCHAR Z
ENCODING 90
SWIDTH 610 0
DWIDTH 9 0
BBX 7 10 1 0
BITMAP
FE
86
0C
08
18
30
20
62
C2
FE
ENDCHAR
STARTCHAR bracketleft
ENCODING 91
SWIDTH 330 0
DWIDTH 5 0
BBX 3 12 1 -2
BITMAP
E0
80
80
80
80
80
80
80
80
80
80
E0
ENDCHAR
STARTCHAR backslash
ENCODING 92
SWIDTH 460 0
DWIDTH 7 0
BBX 4 10 1 0
BITMAP
80
80
40
40
40
20
20
10
10
10
ENDCHAR
STARTCHAR bracketright
ENCODING 93
SWIDTH 330 0
DWIDTH 5 0
BBX 3 12 1 -2
BITMAP
E0
20
20
20
20
20
20
20
20
20
20
E0
ENDCHAR
STARTCHAR asciicircum
ENCODING 94
SWIDTH 570 0
DWIDTH 8 0
BBX 7 7 0 3
BITMAP
10
10
28
28
44
44
82
ENDCHAR
STARTCHAR underscore
ENCODING 95
SWIDTH 500 0
DWIDTH 7 0
BBX 7 1 0 -2
BITMAP
FE
ENDCHAR
STARTCHAR grave
ENCODING 96
SWIDTH 400 0
DWIDTH 6 0
BBX 3 2 1 8
BITMAP
C0
20
ENDCHAR
STARTCHAR a
ENCODING 97
SWIDTH 523 0
DWIDTH 8 0
BBX 6 7 1 0
BITMAP
70
D8
08
78
88
D8
6C
ENDCHAR
STARTCHAR b
ENCODING 98
SWIDTH 598 0
DWIDTH 8 0
BBX 7 11 0 0
BITMAP
C0
40
40
40
5C
66
42
42
42
66
5C
ENDCHAR
STARTCHAR c
ENCODING 99
SWIDTH 496 0
DWIDTH 7 0
BBX 5 7 1 0
BITMAP
70
D8
80
80
80
C8
70
ENDCHAR
STARTCHAR d
ENCODING 100
SWIDTH 598 0
DWIDTH 9 0
BBX 7 11 1 0
BITMAP
0C
04
04
04
74
CC
84
84
84
CC
76
ENDCHAR
STARTCHAR e
ENCODING 101
SWIDTH 514 0
DWIDTH 8 0
BBX 6 7 1 0
BITMAP
78
CC
84
FC
80
C4
78
ENDCHAR
STARTCHAR f
ENCODING 102
SWIDTH 319 0
DWIDTH 5 0
BBX 5 11 1 0
BITMAP
30
58
40
40
F0
40
40
40
40
40
E0
ENDCHAR
STARTCHAR g
ENCODING 103
SWIDTH 520 0
DWIDTH 8 0
BBX 7 10 1 -3
BITMAP
7E
C8
84
CC
78
40
7C
86
C2
7C
ENDCHAR
STARTCHAR h
ENCODING 104
SWIDTH 607 0
DWIDTH 9 0
BBX 7 11 1 0
BITMAP
C0
40
40
40
58
6C
44
44
44
44
EE
ENDCHAR
STARTCHAR i
ENCODING 105
SWIDTH 291 0
DWIDTH 5 0
BBX 3 10 1 0
BITMAP
40
40
00
C0
40
40
40
40
40
E0
ENDCHAR
STARTCHAR j
ENCODING 106
SWIDTH 280 0
DWIDTH 3 0
BBX 3 13 -1 -3
BITMAP
20
20
00
60
20
20
20
20
20
20
20
40
80
ENDCHAR
STARTCHAR k
ENCODING 107
SWIDTH 524 0
DWIDTH 8 0
BBX 7 11 1 0
BITMAP
C0
40
40
40
4C
48
50
70
58
4C
E6
ENDCHAR
STARTCHAR l
ENCODING 108
SWIDTH 279 0
DWIDTH 5 0
BBX 3 11 1 0
BITMAP
C0
40
40
40
40
40
40
40
40
40
E0
ENDCHAR
STARTCHAR m
ENCODING 109
SWIDTH 923 0
DWIDTH 13 0
BBX 11 7 1 0
BITMAP
D980
6EC0
4440
4440
4440
4440
EEE0
ENDCHAR
STARTCHAR n
ENCODING 110
SWIDTH 619 0
DWIDTH 9 0
BBX 7 7 1 0
BITMAP
D8
6C
44
44
44
44
EE
ENDCHAR
STARTCHAR o
ENCODING 111
SWIDTH 577 0
DWIDTH 8 0
BBX 6 7 1 0
BITMAP
78
CC
84
84
84
CC
78
ENDCHAR
STARTCHAR p
ENCODING 112
SWIDTH 608 0
DWIDTH 8 0
BBX 7 10 0 -3
BITMAP
DC
66
42
42
42
66
5C
40
40
E0
ENDCHAR
STARTCHAR q
ENCODING 113
SWIDTH 591 0
DWIDTH 8 0
BBX 7 10 1 -3
BITMAP
74
CC
84
84
84
CC
74
04
04
0E
ENDCHAR
STARTCHAR r
ENCODING 114
SWIDTH 389 0
DWIDTH 6 0
BBX 5 7 1 0
BITMAP
D8
68
40
40
40
40
E0
ENDCHAR
STARTCHAR s
ENCODING 115
SWIDTH 436 0
DWIDTH 7 0
BBX 5 7 1 0
BITMAP
70
98
C0
70
18
88
F0
ENDCHAR
STARTCHAR t
ENCODING 116
SWIDTH 344 0
DWIDTH 4 0
BBX 4 9 0 0
BITMAP
40
40
F0
40
40
40
40
40
30
ENDCHAR
STARTCHAR u
ENCODING 117
SWIDTH 606 0
DWIDTH 9 0
BBX 7 7 1 0
BITMAP
CC
44
44
44
44
6C
36
ENDCHAR
STARTCHAR v
ENCODING 118
SWIDTH 504 0
DWIDTH 7 0
BBX 7 7 0 0
BITMAP
EE
44
64
28
38
10
10
ENDCHAR
STARTCHAR w
ENCODING 119
SWIDTH 768 0
DWIDTH 11 0
BBX 11 7 0 0
BITMAP
E4E0
4440
6640
2A80
3B80
1100
1100
ENDCHAR
STARTCHAR x
ENCODING 120
SWIDTH 486 0
DWIDTH 7 0
BBX 7 7 0 0
BITMAP
EE
44
28
10
28
44
EE
ENDCHAR
STARTCHAR y
ENCODING 121
SWIDTH 506 0
DWIDTH 7 0
BBX 7 10 0 -3
BITMAP
EE
44
64
28
38
10
10
20
A0
C0
ENDCHAR
STARTCHAR z
ENCODING 122
SWIDTH 480 0
DWIDTH 6 0
BBX 6 7 0 0
BITMAP
FC
88
10
20
40
84
FC
ENDCHAR
STARTCHAR braceleft
ENCODING 123
SWIDTH 340 0
DWIDTH 5 0
BBX 3 12 1 -2
BITMAP
20
40
40
40
40
80
40
40
40
40
40
20
ENDCHAR
STARTCHAR bar
ENCODING 124
SWIDTH 228 0
DWIDTH 3 0
BBX 1 10 1 0
BITMAP
80
80
80
80
80
80
80
80
80
80
ENDCHAR
STARTCHAR braceright
ENCODING 125
SWIDTH 340 0
DWIDTH 5 0
BBX 3 12 1 -2
BITMAP
80
40
40
40
40
20
40
40
40
40
40
80
ENDCHAR
STARTCHAR asciitilde
ENCODING 126
SWIDTH 570 0
DWIDTH 8 0
BBX 7 2 0 3
BITMAP
72
9C
ENDCHAR
STARTCHAR space
ENCODING 160
SWIDTH 225 0
DWIDTH 3 0
BBX 0 0 0 0
BITMAP
ENDCHAR
STARTCHAR Aogonek
ENCODING 161
SWIDTH 635 0
DWIDTH 9 0
BBX 9 13 0 -3
BITMAP
0800
0800
1400
1400
2200
2200
3E00
4100
4100
E380
0800
1000
1800
ENDCHAR
STARTCHAR breve
ENCODING 162
SWIDTH 400 0
DWIDTH 6 0
BBX 5 2 0 8
BITMAP
88
70
ENDCHAR
STARTCHAR Lslash
ENCODING 163
SWIDTH 574 0
DWIDTH 8 0
BBX 7 10 1 0
BITMAP
E0
40
40
50
60
40
C0
42
42
FE
ENDCHAR
STARTCHAR currency
ENCODING 164
SWIDTH 530 0
DWIDTH 8 0
BBX 6 8 1 1
BITMAP
84
78
CC
84
84
CC
78
84
ENDCHAR
STARTCHAR Lcaron
ENCODING 165
SWIDTH 818 0
DWIDTH 12 0
BBX 10 10 1 0
BITMAP
E0C0
4040
4040
4080
4000
4000
4000
4200
4200
FE00
ENDCHAR
STARTCHAR Sacute
ENCODING 166
SWIDTH 541 0
DWIDTH 8 0
BBX 6 13 1 0
BITMAP
18
20
00
78
CC
84
C0
60
18
0C
84
CC
78
ENDCHAR
STARTCHAR section
ENCODING 167
SWIDTH 554 0
DWIDTH 8 0
BBX 7 12 0 -2
BITMAP
38
4C
60
B0
8C
C6
62
1A
0C
04
64
38
ENDCHAR
STARTCHAR dieresis
ENCODING 168
SWIDTH 400 0
DWIDTH 6 0
BBX 3 2 1 8
BITMAP
A0
A0
ENDCHAR
STARTCHAR Scaron
ENCODING 169
SWIDTH 541 0
DWIDTH 8 0
BBX 6 12 1 0
BITMAP
50
20
00
78
CC
84
C0
78
0C
84
CC
78
ENDCHAR
STARTCHAR Scedilla
ENCODING 170
SWIDTH 541 0
DWIDTH 8 0
BBX 6 13 1 -3
BITMAP
78
CC
84
C0
60
18
0C
84
CC
78
20
10
30
ENDCHAR
STARTCHAR Tcaron
ENCODING 171
SWIDTH 621 0
DWIDTH 9 0
BBX 9 13 0 0
BITMAP
1400
0800
0000
FF80
8880
0800
0800
0800
0800
0800
0800
0800
1C00
ENDCHAR
STARTCHAR Zacute
ENCODING 172
SWIDTH 610 0
DWIDTH 9 0
BBX 7 13 1 0
BITMAP
0C
10
00
FE
86
0C
08
18
30
20
62
C2
FE
ENDCHAR
STARTCHAR hyphen
ENCODING 173
SWIDTH 392 0
DWIDTH 5 0
BBX 3 1 1 3
BITMAP
E0
ENDCHAR
STARTCHAR Zcaron
ENCODING 174
SWIDTH 610 0
DWIDTH 9 0
BBX 7 12 1 0
BITMAP
50
20
00
FE
84
08
10
10
20
42
82
FE
ENDCHAR
STARTCHAR Zdotaccent
ENCODING 175
SWIDTH 610 0
DWIDTH 9 0
BBX 7 13 1 0
BITMAP
10
10
00
FE
86
0C
08
18
30
20
62
C2
FE
ENDCHAR
STARTCHAR degree
ENCODING 176
SWIDTH 350 0
DWIDTH 5 0
BBX 4 4 0 6
BITMAP
60
90
90
60
ENDCHAR
STARTCHAR aogonek
ENCODING 177
SWIDTH 523 0
DWIDTH 8 0
BBX 6 10 1 -3
BITMAP
70
D8
08
78
88
D8
6C
10
20
30
ENDCHAR
STARTCHAR ogonek
ENCODING 178
SWIDTH 400 0
DWIDTH 6 0
BBX 2 3 1 -3
BITMAP
40
80
C0
ENDCHAR
STARTCHAR lslash
ENCODING 179
SWIDTH 294 0
DWIDTH 5 0
BBX 3 11 1 0
BITMAP
C0
40
40
40
60
40
C0
40
40
40
E0
ENDCHAR
STARTCHAR acute
ENCODING 180
SWIDTH 400 0
DWIDTH 6 0
BBX 3 2 1 8
BITMAP
60
80
ENDCHAR
STARTCHAR lcaron
ENCODING 181
SWIDTH 543 0
DWIDTH 9 0
BBX 7 11 1 0
BITMAP
C0
46
42
42
44
40
40
40
40
40
E0
ENDCHAR
STARTCHAR sacute
ENCODING 182
SWIDTH 436 0
DWIDTH 7 0
BBX 5 10 1 0
BITMAP
18
20
00
70
98
C0
70
18
88
F0
ENDCHAR
STARTCHAR caron
ENCODING 183
SWIDTH 400 0
DWIDTH 6 0
BBX 3 2 1 8
BITMAP
A0
40
ENDCHAR
STARTCHAR cedilla
ENCODING 184
SWIDTH 400 0
DWIDTH 6 0
BBX 2 3 2 -3
BITMAP
80
40
C0
ENDCHAR
STARTCHAR scaron
ENCODING 185
SWIDTH 436 0
DWIDTH 7 0
BBX 5 10 1 0
BITMAP
50
20
00
70
98
C0
70
18
88
F0
ENDCHAR
STARTCHAR scedilla
ENCODING 186
SWIDTH 436 0
DWIDTH 7 0
BBX 5 10 1 -3
BITMAP
70
98
C0
70
18
88
F0
20
10
30
ENDCHAR
STARTCHAR tcaron
ENCODING 187
SWIDTH 605 0
DWIDTH 8 0
BBX 7 10 0 0
BITMAP
06
42
42
F4
40
40
40
40
40
30
ENDCHAR
STARTCHAR zacute
ENCODING 188
SWIDTH 480 0
DWIDTH 6 0
BBX 6 10 0 0
BITMAP
18
20
00
FC
88
10
20
40
84
FC
ENDCHAR
STARTCHAR hungarumlaut
ENCODING 189
SWIDTH 400 0
DWIDTH 6 0
BBX 6 3 0 8
BITMAP
24
48
90
ENDCHAR
STARTCHAR zcaron
ENCODING 190
SWIDTH 480 0
DWIDTH 6 0
BBX 6 10 0 0
BITMAP
50
20
00
FC
88
10
20
40
84
FC
ENDCHAR
STARTCHAR zdotaccent
ENCODING 191
SWIDTH 480 0
DWIDTH 6 0
BBX 6 10 0 0
BITMAP
20
20
00
FC
88
10
20
40
84
FC
ENDCHAR
STARTCHAR Racute
ENCODING 192
SWIDTH 644 0
DWIDTH 9 0
BBX 8 13 1 0
BITMAP
0C
10
00
FC
46
42
42
44
7C
46
42
42
E3
ENDCHAR
STARTCHAR Aacute
ENCODING 193
SWIDTH 635 0
DWIDTH 9 0
BBX 9 12 0 0
BITMAP
0C00
1000
0000
0800
0800
1400
1400
2200
3E00
4100
4100
E380
ENDCHAR
STARTCHAR Acircumflex
ENCODING 194
SWIDTH 635 0
DWIDTH 9 0
BBX 9 12 0 0
BITMAP
0800
1400
0000
0800
0800
1400
1400
2200
3E00
4100
4100
E380
ENDCHAR
STARTCHAR Abreve
ENCODING 195
SWIDTH 635 0
DWIDTH 9 0
BBX 9 13 0 0
BITMAP
2200
1C00
0000
0800
0800
1400
1400
2200
2200
3E00
4100
4100
E380
ENDCHAR
STARTCHAR Adieresis
ENCODING 196
SWIDTH 635 0
DWIDTH 9 0
BBX 9 12 0 0
BITMAP
1400
1400
0000
0800
0800
1400
1400
2200
3E00
4100
4100
E380
ENDCHAR
STARTCHAR Lacute
ENCODING 197
SWIDTH 568 0
DWIDTH 8 0
BBX 7 13 1 0
BITMAP
30
40
00
E0
40
40
40
40
40
40
42
42
FE
ENDCHAR
STARTCHAR Cacute
ENCODING 198
SWIDTH 684 0
DWIDTH 10 0
BBX 8 13 1 0
BITMAP
0C
10
00
3E
43
C1
80
80
80
80
C1
43
3E
ENDCHAR
STARTCHAR Ccedilla
ENCODING 199
SWIDTH 680 0
DWIDTH 10 0
BBX 8 13 1 -3
BITMAP
3E
43
C1
80
80
80
80
C1
43
3E
10
08
18
ENDCHAR
STARTCHAR Ccaron
ENCODING 200
SWIDTH 684 0
DWIDTH 10 0
BBX 8 13 1 0
BITMAP
14
08
00
3E
43
C1
80
80
80
80
C1
43
3E
ENDCHAR
STARTCHAR Eacute
ENCODING 201
SWIDTH 606 0
DWIDTH 9 0
BBX 7 12 1 0
BITMAP
18
20
00
FE
42
40
44
7C
44
40
42
FE
ENDCHAR
STARTCHAR Eogonek
ENCODING 202
SWIDTH 606 0
DWIDTH 9 0
BBX 7 13 1 -3
BITMAP
FE
42
40
44
7C
44
40
42
42
FE
10
20
30
ENDCHAR
STARTCHAR Edieresis
ENCODING 203
SWIDTH 606 0
DWIDTH 9 0
BBX 7 12 1 0
BITMAP
50
50
00
FE
42
40
44
7C
44
40
42
FE
ENDCHAR
STARTCHAR Ecaron
ENCODING 204
SWIDTH 606 0
DWIDTH 9 0
BBX 7 13 1 0
BITMAP
28
10
00
FE
42
40
44
7C
44
40
42
42
FE
ENDCHAR
STARTCHAR Iacute
ENCODING 205
SWIDTH 349 0
DWIDTH 5 0
BBX 3 12 1 0
BITMAP
60
80
00
E0
40
40
40
40
40
40
40
E0
ENDCHAR
STARTCHAR Icircumflex
ENCODING 206
SWIDTH 349 0
DWIDTH 5 0
BBX 3 12 1 0
BITMAP
40
A0
00
E0
40
40
40
40
40
40
40
E0
ENDCHAR
STARTCHAR Dcaron
ENCODING 207
SWIDTH 779 0
DWIDTH 11 0
BBX 9 13 1 0
BITMAP
1400
0800
0000
FE00
4100
4180
4080
4080
4080
4080
4180
4100
FE00
ENDCHAR
STARTCHAR Dcroat
ENCODING 208
SWIDTH 785 0
DWIDTH 11 0
BBX 9 10 1 0
BITMAP
FE00
4100
4180
4080
F080
4080
4080
4180
4100
FE00
ENDCHAR
STARTCHAR Nacute
ENCODING 209
SWIDTH 780 0
DWIDTH 12 0
BBX 10 13 1 0
BITMAP
0600
0800
0000
C1C0
6080
7080
5880
4880
4480
4680
4380
4180
E080
ENDCHAR
STARTCHAR Ncaron
ENCODING 210
SWIDTH 780 0
DWIDTH 12 0
BBX 10 13 1 0
BITMAP
1400
0800
0000
C1C0
6080
7080
5880
4880
4480
4680
4380
4180
E080
ENDCHAR
STARTCHAR Oacute
ENCODING 211
SWIDTH 762 0
DWIDTH 11 0
BBX 9 12 1 0
BITMAP
0C00
1000
0000
3E00
4100
C180
8080
8080
8080
C180
4100
3E00
ENDCHAR
STARTCHAR Ocircumflex
ENCODING 212
SWIDTH 762 0
DWIDTH 11 0
BBX 9 12 1 0
BITMAP
0800
1400
0000
3E00
4100
C180
8080
8080
8080
C180
4100
3E00
ENDCHAR
STARTCHAR Ohungarumlaut
ENCODING 213
SWIDTH 762 0
DWIDTH 11 0
BBX 9 14 1 0
BITMAP
0900
1200
2400
0000
3E00
4100
C180
8080
8080
8080
8080
C180
4100
3E00
ENDCHAR
STARTCHAR Odieresis
ENCODING 214
SWIDTH 762 0
DWIDTH 11 0
BBX 9 12 1 0
BITMAP
1400
1400
0000
3E00
4100
C180
8080
8080
8080
C180
4100
3E00
ENDCHAR
STARTCHAR multiply
ENCODING 215
SWIDTH 570 0
DWIDTH 8 0
BBX 7 7 0 0
BITMAP
82
44
28
10
28
44
82
ENDCHAR
STARTCHAR Rcaron
ENCODING 216
SWIDTH 644 0
DWIDTH 9 0
BBX 8 13 1 0
BITMAP
28
10
00
FC
46
42
42
44
7C
46
42
42
E3
ENDCHAR
STARTCHAR Uring
ENCODING 217
SWIDTH 791 0
DWIDTH 11 0
BBX 9 14 1 0
BITMAP
0C00
1200
0C00
0000
E380
4100
4100
4100
4100
4100
4100
4100
6300
3E00
ENDCHAR
STARTCHAR Uacute
ENCODING 218
SWIDTH 791 0
DWIDTH 11 0
BBX 9 12 1 0
BITMAP
0C00
1000
0000
E380
4100
4100
4100
4100
4100
4100
6300
3E00
ENDCHAR
STARTCHAR Uhungarumlaut
ENCODING 219
SWIDTH 791 0
DWIDTH 11 0
BBX 9 14 1 0
BITMAP
0900
1200
2400
0000
E380
4100
4100
4100
4100
4100
4100
4100
6300
3E00
ENDCHAR
STARTCHAR Udieresis
ENCODING 220
SWIDTH 791 0
DWIDTH 11 0
BBX 9 12 1 0
BITMAP
1400
1400
0000
E380
4100
4100
4100
4100
4100
4100
6300
3E00
ENDCHAR
STARTCHAR Yacute
ENCODING 221
SWIDTH 588 0
DWIDTH 9 0
BBX 9 12 0 0
BITMAP
0600
0800
0000
E380
4100
2200
1400
1400
0800
0800
0800
1C00
ENDCHAR
STARTCHAR Tcommaaccent
ENCODING 222
SWIDTH 621 0
DWIDTH 9 0
BBX 9 13 0 -3
BITMAP
FF80
8880
0800
0800
0800
0800
0800
0800
0800
1C00
0800
0400
0C00
ENDCHAR
STARTCHAR germandbls
ENCODING 223
SWIDTH 601 0
DWIDTH 9 0
BBX 7 11 1 0
BITMAP
38
44
44
48
50
58
4C
46
42
52
DC
ENDCHAR
STARTCHAR racute
ENCODING 224
SWIDTH 389 0
DWIDTH 6 0
BBX 5 10 1 0
BITMAP
18
20
00
D8
68
40
40
40
40
E0
ENDCHAR
STARTCHAR aacute
ENCODING 225
SWIDTH 523 0
DWIDTH 8 0
BBX 6 10 1 0
BITMAP
18
20
00
70
D8
08
78
88
D8
6C
ENDCHAR
STARTCHAR acircumflex
ENCODING 226
SWIDTH 523 0
DWIDTH 8 0
BBX 6 10 1 0
BITMAP
20
50
00
70
D8
08
78
88
D8
6C
ENDCHAR
STARTCHAR abreve
ENCODING 227
SWIDTH 523 0
DWIDTH 8 0
BBX 6 10 1 0
BITMAP
88
70
00
70
D8
08
78
88
D8
6C
ENDCHAR
STARTCHAR adieresis
ENCODING 228
SWIDTH 523 0
DWIDTH 8 0
BBX 6 10 1 0
BITMAP
50
50
00
70
D8
08
78
88
D8
6C
ENDCHAR
STARTCHAR lacute
ENCODING 229
SWIDTH 279 0
DWIDTH 5 0
BBX 4 14 1 0
BITMAP
30
40
00
C0
40
40
40
40
40
40
40
40
40
E0
ENDCHAR
STARTCHAR cacute
ENCODING 230
SWIDTH 496 0
DWIDTH 7 0
BBX 5 10 1 0
BITMAP
18
20
00
70
D8
80
80
80
C8
70
ENDCHAR
STARTCHAR ccedilla
ENCODING 231
SWIDTH 496 0
DWIDTH 7 0
BBX 5 10 1 -3
BITMAP
70
D8
80
80
80
C8
70
20
10
30
ENDCHAR
STARTCHAR ccaron
ENCODING 232
SWIDTH 496 0
DWIDTH 7 0
BBX 5 10 1 0
BITMAP
50
20
00
70
D8
80
80
80
C8
70
ENDCHAR
STARTCHAR eacute
ENCODING 233
SWIDTH 514 0
DWIDTH 8 0
BBX 6 10 1 0
BITMAP
18
20
00
78
CC
84
FC
80
C4
78
ENDCHAR
STARTCHAR eogonek
ENCODING 234
SWIDTH 514 0
DWIDTH 8 0
BBX 6 10 1 -3
BITMAP
78
CC
84
FC
80
C4
78
10
20
30
ENDCHAR
STARTCHAR edieresis
ENCODING 235
SWIDTH 514 0
DWIDTH 8 0
BBX 6 10 1 0
BITMAP
50
50
00
78
CC
84
FC
80
C4
78
ENDCHAR
STARTCHAR ecaron
ENCODING 236
SWIDTH 514 0
DWIDTH 8 0
BBX 6 10 1 0
BITMAP
28
10
00
78
CC
84
FC
80
C4
78
ENDCHAR
STARTCHAR iacute
ENCODING 237
SWIDTH 291 0
DWIDTH 5 0
BBX 3 10 1 0
BITMAP
60
80
00
C0
40
40
40
40
40
E0
ENDCHAR
STARTCHAR icircumflex
ENCODING 238
SWIDTH 291 0
DWIDTH 5 0
BBX 3 10 1 0
BITMAP
40
A0
00
C0
40
40
40
40
40
E0
ENDCHAR
STARTCHAR dcaron
ENCODING 239
SWIDTH 846 0
DWIDTH 13 0
BBX 11 11 1 0
BITMAP
0C00
0460
0420
0420
7440
CC00
8400
8400
8400
CC00
7600
ENDCHAR
STARTCHAR dcroat
ENCODING 240
SWIDTH 598 0
DWIDTH 9 0
BBX 7 11 1 0
BITMAP
0C
04
0E
04
74
CC
84
84
84
CC
76
ENDCHAR
STARTCHAR nacute
ENCODING 241
SWIDTH 619 0
DWIDTH 9 0
BBX 7 10 1 0
BITMAP
18
20
00
D8
6C
44
44
44
44
EE
ENDCHAR
STARTCHAR ncaron
ENCODING 242
SWIDTH 619 0
DWIDTH 9 0
BBX 7 10 1 0
BITMAP
28
10
00
D8
6C
44
44
44
44
EE
ENDCHAR
STARTCHAR oacute
ENCODING 243
SWIDTH 577 0
DWIDTH 8 0
BBX 6 10 1 0
BITMAP
18
20
00
78
CC
84
84
84
CC
78
ENDCHAR
STARTCHAR ocircumflex
ENCODING 244
SWIDTH 577 0
DWIDTH 8 0
BBX 6 10 1 0
BITMAP
20
50
00
78
CC
84
84
84
CC
78
ENDCHAR
STARTCHAR ohungarumlaut
ENCODING 245
SWIDTH 577 0
DWIDTH 8 0
BBX 7 11 1 0
BITMAP
12
24
48
00
78
CC
84
84
84
CC
78
ENDCHAR
STARTCHAR odieresis
ENCODING 246
SWIDTH 577 0
DWIDTH 8 0
BBX 6 10 1 0
BITMAP
50
50
00
78
CC
84
84
84
CC
78
ENDCHAR
STARTCHAR divide
ENCODING 247
SWIDTH 570 0
DWIDTH 8 0
BBX 7 7 0 0
BITMAP
10
10
00
FE
00
10
10
ENDCHAR
STARTCHAR rcaron
ENCODING 248
SWIDTH 389 0
DWIDTH 6 0
BBX 5 10 1 0
BITMAP
50
20
00
D8
68
40
40
40
40
E0
ENDCHAR
STARTCHAR uring
ENCODING 249
SWIDTH 606 0
DWIDTH 9 0
BBX 7 11 1 0
BITMAP
30
48
30
00
CC
44
44
44
44
6C
36
ENDCHAR
STARTCHAR uacute
ENCODING 250
SWIDTH 606 0
DWIDTH 9 0
BBX 7 10 1 0
BITMAP
18
20
00
CC
44
44
44
44
6C
36
ENDCHAR
STARTCHAR uhungarumlaut
ENCODING 251
SWIDTH 606 0
DWIDTH 9 0
BBX 7 11 1 0
BITMAP
12
24
48
00
CC
44
44
44
44
6C
36
ENDCHAR
STARTCHAR udieresis
ENCODING 252
SWIDTH 606 0
DWIDTH 9 0
BBX 7 10 1 0
BITMAP
28
28
00
CC
44
44
44
44
6C
36
ENDCHAR
STARTCHAR yacute
ENCODING 253
SWIDTH 506 0
DWIDTH 7 0
BBX 7 13 0 -3
BITMAP
0C
10
00
EE
44
64
28
38
10
10
20
A0
C0
ENDCHAR
STARTCHAR tcommaaccent
ENCODING 254
SWIDTH 344 0
DWIDTH 4 0
BBX 4 12 0 -3
BITMAP
40
40
F0
40
40
40
40
40
30
20
10
30
ENDCHAR
STARTCHAR dotaccent
ENCODING 255
SWIDTH 400 0
DWIDTH 6 0
BBX 1 2 2 8
BITMAP
80
80
ENDCHAR
ENDFONT
