/* XPM */
static char * minibreak_xpm[] = {
"12 12 4 1",
" 	c None",
".	c #000000",
"X	c #FF0000",
"o	c #FFFFFF",
"   ......   ",
"  .oooooo.  ",
" .ooXXXXoo. ",
".ooXXXXXXoo.",
".oXXXXXXXXo.",
".oXXXXXXXXo.",
".oXXXXXXXXo.",
".oXXXXXXXXo.",
".ooXXXXXXoo.",
" .ooXXXXoo. ",
"  .oooooo.  ",
"   ......   "};
