/* XPM */
static char *return[] = {
/* width height num_colors chars_per_pixel */
"    20    22        5            1",
/* colors */
". c None",
"# c #999999",
"a c #666666",
"b c #333333",
"c c #000000",
/* pixels */
"....................",
"..............c.....",
"..............cc....",
".........#bcccccc...",
".....#bccccccccccc..",
"..#bccccccccccccccc.",
".acccccccccccccccccc",
"#cccccccccccccccccc.",
"bccccccccccccccccc..",
"ccccccccccccccccc...",
"cccccccccb#...cc....",
"ccccccb#......c.....",
"cccb#..b............",
"cc..bbbbbb..........",
"c.bbbbbbbb.a........",
"bbbbbbbbbbb#........",
".bbbbbbbbb.a........",
"..bbbbbbbbb#........",
"...bbbbbbb.a........",
".....bbbbbb#........",
"........bb.a........",
"...................."
};

