/* XPM */
static char *magick[] = {
/* columns rows colors chars-per-pixel */
"70 46 256 2",
"   c #2b2f1e",
".  c #2d2b2b",
"X  c #2a2927",
"o  c #2d2e31",
"O  c #2d322c",
"+  c #2d362a",
"@  c #2e3430",
"#  c #332d2b",
"$  c #372c2a",
"%  c #312a30",
"&  c #33332d",
"*  c #333c2c",
"=  c #3a332d",
"-  c #3a3929",
";  c #363b33",
":  c #3b3532",
">  c #3b3b33",
",  c #363733",
"<  c #38354c",
"1  c #38422b",
"2  c #394435",
"3  c #3c464c",
"4  c #592b1f",
"5  c #44392d",
"6  c #433b32",
"7  c #463b34",
"8  c #583b36",
"9  c #4f302a",
"0  c #69362c",
"q  c #6a3a33",
"w  c #7c3a2d",
"e  c #75372c",
"r  c #793b32",
"t  c #602e24",
"y  c #433f4e",
"u  c #493e75",
"i  c #45472c",
"p  c #484637",
"a  c #485738",
"s  c #53442e",
"d  c #5c4d3c",
"f  c #574a38",
"g  c #58543b",
"h  c #43572d",
"j  c #4a6539",
"k  c #556a3c",
"l  c #654638",
"z  c #63553b",
"x  c #764337",
"c  c #79412d",
"v  c #607c3c",
"b  c #4d4b48",
"n  c #4b5844",
"m  c #594d45",
"M  c #5a5746",
"N  c #555155",
"B  c #5c5869",
"V  c #4e4d69",
"C  c #596847",
"Z  c #5a6853",
"A  c #597845",
"S  c #597350",
"D  c #655b48",
"F  c #685e55",
"G  c #77584a",
"H  c #73544d",
"J  c #6b5a6b",
"K  c #68654b",
"L  c #6a6354",
"P  c #696657",
"I  c #647b47",
"U  c #677857",
"Y  c #716655",
"T  c #756d52",
"R  c #6a6667",
"E  c #7b7969",
"W  c #6d6f73",
"Q  c #58588f",
"!  c #5c5ea3",
"~  c #665c9e",
"^  c #727196",
"/  c #7977a6",
"(  c #6e73b2",
")  c #5d66af",
"_  c #7478cd",
"`  c #5d843e",
"'  c #5e8447",
"]  c #65884a",
"[  c #6b944b",
"{  c #6d9554",
"}  c #719b4d",
"|  c #739957",
" . c #6e8759",
".. c #748967",
"X. c #778575",
"o. c #7b9b68",
"O. c #779877",
"+. c #6b8e68",
"@. c #78a658",
"#. c #7ca567",
"$. c #7ea871",
"%. c #7c8d84",
"&. c #7f83b0",
"*. c #7baf88",
"=. c #7d87cb",
"-. c #91341d",
";. c #873b2b",
":. c #853b34",
">. c #933d2c",
",. c #993b2a",
"<. c #983d34",
"1. c #a83a29",
"2. c #aa3c31",
"3. c #b43b2c",
"4. c #bb3b2b",
"5. c #b93826",
"6. c #b73b33",
"7. c #b63d45",
"8. c #884336",
"9. c #984537",
"0. c #98402c",
"q. c #a7412b",
"w. c #a74435",
"e. c #b94437",
"r. c #864a44",
"t. c #87574a",
"y. c #994447",
"u. c #95544c",
"i. c #925855",
"p. c #936b5a",
"a. c #876652",
"s. c #946c67",
"d. c #a94845",
"f. c #b3524c",
"g. c #ba5d7b",
"h. c #b16d59",
"j. c #b0746d",
"k. c #c43a2b",
"l. c #cb3a2b",
"z. c #c93727",
"x. c #c73c33",
"c. c #d3392b",
"v. c #d83629",
"b. c #d43c33",
"n. c #dd3b34",
"m. c #d93837",
"M. c #da2e27",
"N. c #ff1b38",
"B. c #e72d29",
"V. c #ec2c37",
"C. c #e5342b",
"Z. c #ec363a",
"A. c #e73936",
"S. c #f7292b",
"D. c #f92a37",
"F. c #f3312d",
"G. c #f63439",
"H. c #da3d43",
"J. c #c03e40",
"K. c #e93d45",
"L. c #fc2b48",
"P. c #f83b43",
"I. c #fa3b58",
"U. c #f03654",
"Y. c #ff3b66",
"T. c #fb3e71",
"R. c #c84239",
"E. c #d6443c",
"W. c #e4423b",
"Q. c #c64b47",
"!. c #c94a57",
"~. c #d84644",
"^. c #d54954",
"/. c #d75348",
"(. c #cc5754",
"). c #cc5969",
"_. c #d6655b",
"`. c #d56f71",
"'. c #e74546",
"]. c #e95657",
"[. c #f6454a",
"{. c #f94956",
"}. c #ec5055",
"|. c #fb4667",
" X c #fe4877",
".X c #fb5668",
"XX c #fd5776",
"oX c #e75a64",
"OX c #e8645c",
"+X c #f8686b",
"@X c #fa6774",
"#X c #f9737a",
"$X c #e96f6f",
"%X c #847597",
"&X c #8c7dae",
"*X c #b37498",
"=X c #837ec8",
"-X c #fd7985",
";X c #e97b84",
":X c #c56995",
">X c #82865e",
",X c #879172",
"<X c #8aa877",
"1X c #97a57c",
"2X c #89b06e",
"3X c #a2917c",
"4X c #a5b979",
"5X c #f9827c",
"6X c #8e968e",
"7X c #8785bc",
"8X c #8483a9",
"9X c #89a889",
"0X c #93af92",
"qX c #af84aa",
"wX c #acad91",
"eX c #b0b1b0",
"rX c #8fa5a3",
"tX c #8988c8",
"yX c #8886d8",
"uX c #969bdb",
"iX c #9691cc",
"pX c #8d8feb",
"aX c #9ca2ea",
"sX c #a09bd6",
"dX c #a9a7d9",
"fX c #a6abfa",
"gX c #b4b9ff",
"hX c #a8aff3",
"jX c #9dc393",
"kX c #aace93",
"lX c #a8c9af",
"zX c #bbc5c9",
"xX c #c2879b",
"cX c #cfae96",
"vX c #c4bcb8",
"bX c #c9b9a7",
"nX c #ff8a8e",
"mX c #e1aaa4",
"MX c #d1ceb3",
"NX c #ede9ac",
"BX c #e8d4bc",
"VX c #d8cac4",
"CX c #d1d1ce",
"ZX c #c1c4e7",
"AX c #d2e5c6",
"SX c #d9e2e8",
"DX c #ebd9d0",
"FX c #e9ebd9",
"GX c #f1ead5",
"HX c #e7e4e6",
"JX c #f4e7e8",
"KX c #fafae9",
"LX c #fefefd",
"PX c #fcfaf5",
"IX c #f1f2f2",
"UX c #e6d6f0",
/* pixels */
"# & & = = = = = = = $ # # # # # # & = = > 7 p s p s x 9.e.R.~.[.P.K.E.4.e.1.q.0.>.>.>.>.>.9.e.e.9.8 : & : & & . & # $ 8 H s.&X/ V V W 6XE N ",
". # & & = = $ $ & = $ # # $ & # # & & , 5 i 7 7 7 s l 8.2.e.~.'.[.G.E.q.3.q.q.0.>.>.>.>.>.<.e.R.9.5 : : : & & O o $ % 7 :.i.&X) u V B ,XE N ",
". . & # # # # # # # # # # $ # & & & & = = = 5 5 5 p s e ;.9.R.~.G.W.e.1.q.2.0.>.8.;.;.;.;.9.x.Q.t.> : = & o & @ @ o & # 9 H 7X_ u < < 3 b M ",
"o o . . . X . . . . . . . . # # # # # # : 5 = 5 7 7 8 8 w >.w.e.'.'.q.0.q.<.>.;.;.;.:.:.8.w.d.h.,XZ p = & O O @ @ & @ % X R sX=.~ B W 6X%.Z ",
"o o @ . . X . X . . . . . . o . # X # # & : : 5 5 6 6 7 0 ;.<.9.w.e.9.>.>.>.>.;.;.;.w 8.r.9.f.6X0XE n 2 & . # # # X # % # K rXrXlXlX0X0X9XC ",
"O & o & & & # . . . . . . X . . # X $ $ : : = $ $ = , = 9 q 8.0.>.9.<.>.>.:.;.;.w w r 8.r.i.s.0X9X%.U n : $ X . # % % %   C <X<XkXjX*.9XO.n ",
"& & = : : = = # o o % % . # & & @ $ = 5 5 5 : = 5 9 9 9 # 9 0 :.:.:.8.8.;.;.;.w e e x 8.t.a.O.9X9X$.+.+.Z * X X X . o X X M ,Xo.$.$.$.$...n ",
"; , ; > > 7 7 : > : $ $ = & & , : : 6 7 7 7 5 7 : : 7 5 = 5 q :.r.8.r 8.r w r e f.h.x H Y a.h.`.0X9X<XO.+.C 5 X X . $ $ f U  .{ | +.O.O.+.n ",
"; ; 7 b 7 b 7 b 7 7 7 7 6 > = : : 6 7 s s 7 7 6 : 7 r.y.8.d.w.2.w.w.w.7.y.x r J.'.Q.D K a.].L.L.{.{.oX`.`.).).!.y.9 5 5 z  . . .+.O.9X%.U C ",
": , > > b 7 b p p 7 7 6 6 6 : - 5 7 7 s 8 7 6 6 ; x |.x.,.R.2.6.e.1.6.b.K.A.E.K.M.R.a.a.OXP.~.{.L.L.L.Y.Y.T. X XXX).q i s.rX6XrXeXCXCXeXW C ",
"& , ; > p b p p p b p 5 5 6 > : > 6 p s 5 7 7 ; 6 d.1.1.1.1.,.2.w.e.e.l.B.S.F.C.v.k.Q.].[.'.2.R.'.P.{.I.Y.T. X|.XX-X).s.MXHXUXJXLXPXJXCX6X..",
"o . , > > p p f N 8X/ B y : $ = ; i 7 s 5 = o 5 :.2.1.1.3.l.6.1.3.x.z.v.n.F.B.v.v.c.E.E.E.x.1.3.~.{.P.{.Y.T.-XXX XY.;Xa.DXLXLXLXLXLXLXIXeXeX",
"> = # = ; p f f R aXgXaXiX^ b y > 5 i 2 3 V n m 9.1.q.3.5.b.b.b.b.b.n.B.F.S.F.z.z.v.E./.x.5.4.R.~.~.[..X{. X X XXX.XXX^.mXLXLXLXPXPXPXDXJXJX",
"p 6 = & : 7 f f B uXgXgXgXaX=X~ V < : N %XqXg.!.5.1.3.k.b.A.m.A.A.C.W.W.S.S.C.v.z.c.c.'.~.5.5.x./.Q./.}..X.X XXX.X.X.X!.j.JXLXLXPXPXPXVXKXKX",
"p f p > : 7 p s N tXfXgXgXfXaXyX( ^ H !.|.^.m.W.x.4.R.b.n.M.n.n.v.z.z.W.F.G.M.n.F.C.E./.~.b.k.4.e.4.R.Q.oX@X.XXX#X@X#Xs.n VXLXLXLXPXLXGXKXKX",
"d m f p 6 p p s N &.fXfXfXhXgXfXdX*X'.K.A.R.E.K.A.R.R.5.z.n.v.v.v.z.z.v.v.C.A.V.S.C.z.W.^.'.k.k.5.4.3.e.OX+X@X$X$X#X-X<Xi VXLXLXLXIXLXPXKXKX",
"m m d f f p f f N &.uXpXaXuXtXtX:XK.'.K.'.6.~.'.m.R.R.5.l.A.C.C.c.5.x.A.z.z.z.v.l.z.z.E.W.].E.l.4.2.2.3./.$XoX@X@X+XXX..C GXLXLXIXAXFXKXGXGX",
"d d d d d m d d m J ^ 7XtX( ( J H.P.W.[.~.e.R.c.R.5.5.k.c.C.G.D.D.F.L.S.v.z.A.A.R.k.z.A.V.v.c.E.6.1.1.1.e.$X#X#X#X.X|.1Xo.MXAXlX9XjXkXMXDXVX",
"d d d f d d d d m m B ~ tX&X*X7.l.A.P.'.6.1.R.m.E.5.k.z.v.F.C.B.S.S.N.D.K.Z.D.F.A.'.m.n.v.k.k./.x.b.b.4.3.$XnX-X#X|.{.>X] ..I { #.$.2X0XbXvX",
"d d d d d d d d z m m J %XxX@XL.'.~.[.~.6.1.R.Z.'.E.k.c.C.F.G.D.D.L.U..X.XU.m.5.E./.~.l.z.1.1.~.n.F.S.A.z.(.nX-X#X|.I.g  .>Xo.$.2X2X2X2XwXvX",
"f f f f d d l d d z m J &.qX#X{.[.K.m.x.1.6.b.v.W.W.E.c.Z.G.D.N.S.V.I.XX}.l.1.-.1.x.~.x.k.5.k.~.C.D.F.F.z.Q.nX-XXX|.^.h | <X2X#.#.$.$.2XjX0X",
"d z l z f z d m F J R ( pXiXj.OX{.P.n.R.2.e.R.z.v.C.W.v.G.[.[.B.M.C.H.H.A.l.Q.^.Q.].~.E.n.G.P.Z.v.F.D.F.c.e.nX-X|.Y.y.j { #.o.#.#.#.@.2X<X..",
"l m d l z z f B / 7X( tXiXeXbXh.Q.[.A.b.4.f._.R.v.C.W.C.F.G.}.}.}.].H.K.V.{.#X@X}.m.E.E.C.D.P.A.C.F.G.F.c.6.nX@XY.|.8 a o.| { | @.@.@.@.2XU ",
"d d D m D m F / ( ( _ dXNXNXNXwXj.`.].Z.m.4.e./.z.A.W.C.B.M.b.}..X@X+XD.D.{.+X{.n.A.C.b.A.Z.Z.v.C.F.F.S.n.6.-XXXY.!.- i U | [ { | @.} ] j j ",
"f d m D z J / / ) _ uXZXSXVXMX6XP s.$X+X[.A.R.R.c.'.~.C.C.l.4.x.H.oX].A.[.K.Z.G.F.F.n.A.A.Z.A.v.C.F.G.F.v.~.@XY.Y.G g i a ] ] [ { ] ' ' k A ",
"p p d d F ^ / ! _ yXuXdXsXsX=XW N t.f.#X5X].z.5.l.b.l.n.n.k.R.x.x./.~.z.V.D.L.N.D.F.n.n.A.F.A.v.v.C.F.F.v.].|.Y.^.$ i - g I ' ] [ ] ] ] ] I ",
"= > f d R ^ Q ! _ yXyXtXyXtX&Xs.M G (.$X5X5Xk.5.z.c.l.z.c.z.k.k.x.b.x.M.G.D.D.D.L.G.m.A.Z.Z.C.c.v.v.c.c.E..XY.|.q X   g 4X..` [ } [ ] ] I ] ",
"+ o , p B Q ! _ pXyXtX=XyX7X^ H M K f.oX$XE.z.R.c.v.l.k.E.l.l.z.c.c.n.Z.P.V.Z.G.Z.A.m.A.Z.G.A.v.R.z.5.R.'.Y.T.7., $ h 4XkX| ` } { ] ] ] ] [ ",
"+ X O ; b B ^ pXpX=XyXiXtX%XY D K D t.].W.C.v.v.C.z.4.k.E.l.k.l.c.v.A.G.V.[.}.W.A.m.A.A.Z.Z.n.5.5.k.5.5.{.|.!.7 O 9 ,XkX1Xj v [ ] ] [ { ] } ",
"6 > > i a M B &XuX( / &XW Y D F D a.w.v.B.C.v.z.c.4.5.E.W.3.4.k.b.A.A.A.[.].E.n.n.A.Z.K.Z.Z.E.4.1.q.-.Q..X^.t.- h | 2X2Xa 1 ] [ ] ] { [ } @.",
"d m g d m D D J ^ J F N D D G K t.f.2.c.n.v.v.c.c.4.1.k.n.E.E.m.A.Z.A.R.5.6.b.Z.Z.A.A.A.Z.A.R.1.,.-.;.(.f.i.a.v 4X| g - = 2 I } [ { [ } @.@.",
"D D D F D K D K D D M f p g M F p.^.c.3.c.v.c.v.c.4.-.1.k.l.Z.K.Z.Z.m.1.1.5.E.Z.G.A.A.A.H.R.1.,.>.w w f.u.p.p.<Xj   ; = ; 1 ] } } } } @.@.' ",
"F L L F D L L L K K K D p p 2 p f f.[.k.z.c.c.c.c.e.-.-.4.m.'.m.6.6.1.,.q.1.5.b.A.W.W.R.6.,.;.;.w e 8.u.u.u.t.i + ; b - > 1 ] | } } @.@.[ ' ",
"F K F L L F R L F Y L K M p 2 2 1 u.].}.l.l.l.E.c.E.e.e.~.'.~.2.8.8.c ;.;.;.>.2.4.R.3.1.;.;.;.w e e 8.9.u.i.s.I a Z a - - 1  .} } } #.{ ] ] ",
"L F F L L Y F Y K Y F Y L m i 1 8.Q./.+X/.E.E.~.~.'./.'.[.W.R.<.8.;.:.r :.w w w ;.;.,.;.;.w e e e e 8.a.u.i.g k A h 1 > * > v } @.@.{ ' ] ' ",
"F K L L F L Y F Y F Y Y F K M i x y.d.!.Q.~.E.R.~.'.'.'.W.'.E.,.;.:.:.:.;.w w w r w w w e e e e 0 x t.u.u.T S C a 1 - > ; - k | @.| ' ' ] ' ",
"L L L L K L L L L Y F F R wXeXE 1 * - 6 f d.~.m.~.~.~.~.E.E.E.6.:.c ;.;.w ;.w w w r e r r e 0 0 t r u.i.a.M a 1 2 p 2 * , * a | @.] A ] ' A ",
"L L L L L L L Y L F F ,XCXLXLXDX3Xi 1 ; . f :X(.n.'.K.~.~.E.E.e.;.;.w ;.w w r r r e 0 e 0 0 0 0 t e i.G p 2 & o + 1 2 ; O = i | { A A ' ' A ",
"L L L L L L L Y L Y R dXLXLXLXPXGX1Xa 5 b 6XKXGX`.x.R.H.m.E.E.R.<.w w w w w r r r q 0 0 q q 0 t 4 q G p * * ; ; ; + 2 2 * X i o.' A A A ] C ",
"L L L L L L L Y L K R eXIXLXKXKXKXDXT p 6XJXLXLXLXmXd.3.Q.R.~.e.:.8.r :.w r r r 0 q 0 q 0 0 0 q 0 H ; & & = * + * + * 2 2 + a +.n j j S ' a ",
"P P P P P P P Y L R eXSXLXLXPXPXKXBXU E CXLXLXLXLXLXGXh.3.x.R.w.8.:.:.w r e e 0 q 0 q 0 q 0 q l a.P O & * + & O O O O O 2 ; 2 n a A j S S 2 ",
"P P P P P P P P P X.SXLXLXPXFXFXKXMXwXCXIXLXLXLXLXLXLXPXcXw.6.6.<.H x q x q q q r 0 0 q q l l f ,Xn O * O * O O & O O O + @ 1 1 2 2 a S S @ ",
"P P P P P P P Y P W CXLXLXPXFXFXAXDXHXLXLXLXLXLXLXLXLXLXLXBXh.2.>.;.q r x H r q q q q 8 5 g g z U 1 & * ; * O O O O O O O + + 2 2 1 2 Z Z O ",
"P P P P P L R P U W zXLXLXPXKXAXBXHXPXLXLXLXLXLXLXLXLXLXLXLXKXMXp.c 0 0 0 q q q l l f K i 1 i T C * ; ; ; ; > > ; ; O O X O o @ 2 2 1 a b @ ",
"L P P P P L Y Y P W zXLXLXPXKXMXMXHXLXLXLXLXLXLXLXLXLXPXLXLXLXLXLXKXDXbXz s d d f f a K i 1 h K D p > 2 > 2 2 3 > 2 > ; @ O O o + 2 2 2 2 1 ",
"Z Z P P P Y P R S %.SXPXPXGXAXbXvXHXLXLXLXLXLXLXLXLXLXLXPXJXLXLXLXLXKXGXK s g s f a a i a k K g g g p p > 2 2 > 2 2 2 3 2 2 ; 1 j j 2 2 n 2 "
};
