/* XPM */
static char * default_xpm[] = {
"32 32 4 1",
" 	c None",
".	c #000000",
"+	c #007BFF",
"@	c #FFFFFF",
"                                ",
"                                ",
"                                ",
"                                ",
"   ..........................   ",
"   .++++++++++++++++++++++++.   ",
"   .+.+++++++++++++++++.+..+.   ",
"   .++++++++++++++++++++++++.   ",
"   ..........................   ",
"   .@@@@@@@@@@@@@@@@@@@@@@@@.   ",
"   .@@@@@@@@@@@@@@@@@@@@@@@@.   ",
"   .@@@@@@@@@@@@@@@@@@@@@@@@.   ",
"   .@@@@@@@@@@@@@@@@@@@@@@@@.   ",
"   .@@@@@@@@@@@@@@@@@@@@@@@@.   ",
"   .@@@@@@@@@@@@@@@@@@@@@@@@.   ",
"   .@@@@@@@@@@@@@@@@@@@@@@@@.   ",
"   .@@@@@@@@@@@@@@@@@@@@@@@@.   ",
"   .@@@@@@@@@@@@@@@@@@@@@@@@.   ",
"   .@@@@@@@@@@@@@@@@@@@@@@@@.   ",
"   .@@@@@@@@@@@@@@@@@@@@@@@@.   ",
"   .@@@@@@@@@@@@@@@@@@@@@@@@.   ",
"   .@@@@@@@@@@@@@@@@@@@@@@@@.   ",
"   .@@@@@@@@@@@@@@@@@@@@@@@@.   ",
"   .@@@@@@@@@@@@@@@@@@@@@@@@.   ",
"   .@@@@@@@@@@@@@@@@@@@@@@@@.   ",
"   .@@@@@@@@@@@@@@@@@@@@@@@@.   ",
"   .@@@@@@@@@@@@@@@@@@@@@@@@.   ",
"   .@@@@@@@@@@@@@@@@@@@@@@@@.   ",
"   ..........................   ",
"                                ",
"                                ",
"                                "};
