<?xml version="1.0" encoding="UTF-8" standalone="no"?>
<!-- Created with Inkscape (http://www.inkscape.org/) -->
<svg
   xmlns:dc="http://purl.org/dc/elements/1.1/"
   xmlns:cc="http://web.resource.org/cc/"
   xmlns:rdf="http://www.w3.org/1999/02/22-rdf-syntax-ns#"
   xmlns:svg="http://www.w3.org/2000/svg"
   xmlns="http://www.w3.org/2000/svg"
   xmlns:xlink="http://www.w3.org/1999/xlink"
   xmlns:sodipodi="http://sodipodi.sourceforge.net/DTD/sodipodi-0.dtd"
   xmlns:inkscape="http://www.inkscape.org/namespaces/inkscape"
   version="1.0"
   x="0.0000000"
   y="0.0000000"
   width="32"
   height="32"
   id="svg1"
   sodipodi:version="0.32"
   inkscape:version="0.44+devel"
   sodipodi:docname="plugins32.svg"
   sodipodi:docbase="/home/lapo/Icone/gimp/preferences"
   inkscape:output_extension="org.inkscape.output.svg.inkscape"
   sodipodi:modified="true">
  <metadata
     id="metadata162">
    <rdf:RDF>
      <cc:Work
         rdf:about="">
        <dc:format>image/svg+xml</dc:format>
        <dc:type
           rdf:resource="http://purl.org/dc/dcmitype/StillImage" />
        <dc:title>Folder</dc:title>
        <dc:creator>
          <cc:Agent>
            <dc:title>Jakub Steiner</dc:title>
          </cc:Agent>
        </dc:creator>
        <dc:date>2005-02-01</dc:date>
        <cc:license
           rdf:resource="http://creativecommons.org/licenses/GPL/2.0/" />
        <dc:identifier>http://jimmac.musichall.cz/</dc:identifier>
        <dc:subject>
          <rdf:Bag>
            <rdf:li>folder</rdf:li>
            <rdf:li>directory</rdf:li>
            <rdf:li>storage</rdf:li>
          </rdf:Bag>
        </dc:subject>
      </cc:Work>
      <cc:License
         rdf:about="http://creativecommons.org/licenses/GPL/2.0/">
        <cc:permits
           rdf:resource="http://web.resource.org/cc/Reproduction" />
        <cc:permits
           rdf:resource="http://web.resource.org/cc/Distribution" />
        <cc:requires
           rdf:resource="http://web.resource.org/cc/Notice" />
        <cc:permits
           rdf:resource="http://web.resource.org/cc/DerivativeWorks" />
        <cc:requires
           rdf:resource="http://web.resource.org/cc/ShareAlike" />
        <cc:requires
           rdf:resource="http://web.resource.org/cc/SourceCode" />
      </cc:License>
    </rdf:RDF>
  </metadata>
  <sodipodi:namedview
     id="base"
     pagecolor="#ffffff"
     bordercolor="#666"
     borderopacity="1"
     inkscape:pageopacity="0.0"
     inkscape:pageshadow="2"
     inkscape:window-width="1085"
     inkscape:window-height="655"
     inkscape:cy="2.5783622"
     inkscape:cx="22.609947"
     inkscape:zoom="1"
     inkscape:document-units="px"
     showgrid="false"
     inkscape:window-x="234"
     inkscape:window-y="315"
     inkscape:current-layer="layer2"
     inkscape:showpageshadow="false"
     showborder="true"
     inkscape:grid-points="true"
     inkscape:grid-bbox="true"
     inkscape:guide-bbox="true"
     gridspacingx="0.5px"
     gridspacingy="0.5px"
     gridempspacing="2"
     width="32px"
     height="32px" />
  <defs
     id="defs3">
    <linearGradient
       inkscape:collect="always"
       id="linearGradient3782">
      <stop
         style="stop-color:black;stop-opacity:1;"
         offset="0"
         id="stop3784" />
      <stop
         style="stop-color:black;stop-opacity:0;"
         offset="1"
         id="stop3786" />
    </linearGradient>
    <linearGradient
       id="linearGradient3772">
      <stop
         style="stop-color:black;stop-opacity:0;"
         offset="0"
         id="stop3774" />
      <stop
         id="stop3780"
         offset="0.5"
         style="stop-color:black;stop-opacity:1;" />
      <stop
         style="stop-color:black;stop-opacity:0;"
         offset="1"
         id="stop3776" />
    </linearGradient>
    <linearGradient
       id="linearGradient2864">
      <stop
         style="stop-color:#8ae234;stop-opacity:1"
         offset="0"
         id="stop2866" />
      <stop
         style="stop-color:#4e9a06;stop-opacity:1"
         offset="1"
         id="stop2868" />
    </linearGradient>
    <linearGradient
       inkscape:collect="always"
       id="linearGradient2854">
      <stop
         style="stop-color:white;stop-opacity:1;"
         offset="0"
         id="stop2856" />
      <stop
         style="stop-color:white;stop-opacity:0;"
         offset="1"
         id="stop2858" />
    </linearGradient>
    <linearGradient
       id="linearGradient3025">
      <stop
         style="stop-color:#8ae234;stop-opacity:1;"
         offset="0"
         id="stop3027" />
      <stop
         style="stop-color:#73d216;stop-opacity:1;"
         offset="1"
         id="stop3029" />
    </linearGradient>
    <linearGradient
       id="linearGradient4734">
      <stop
         style="stop-color:#cccdbc;stop-opacity:1;"
         offset="0"
         id="stop4736" />
      <stop
         style="stop-color:#b9baa4;stop-opacity:1;"
         offset="1"
         id="stop4738" />
    </linearGradient>
    <linearGradient
       id="linearGradient356">
      <stop
         style="stop-color:#fffff3;stop-opacity:1.0000000;"
         offset="0.0000000"
         id="stop357" />
      <stop
         style="stop-color:#fffff3;stop-opacity:0.0000000;"
         offset="1.0000000"
         id="stop358" />
    </linearGradient>
    <linearGradient
       id="linearGradient311">
      <stop
         style="stop-color:#cfcfc4;stop-opacity:1.0000000;"
         offset="0.0000000"
         id="stop312" />
      <stop
         style="stop-color:#cfcfc4;stop-opacity:1.0000000;"
         offset="0.32673267"
         id="stop335" />
      <stop
         style="stop-color:#cfcfc4;stop-opacity:0;"
         offset="1"
         id="stop313" />
    </linearGradient>
    <linearGradient
       id="linearGradient235">
      <stop
         style="stop-color:#59594a;stop-opacity:1.0000000;"
         offset="0.0000000"
         id="stop236" />
      <stop
         style="stop-color:#a2a491;stop-opacity:1.0000000;"
         offset="1.0000000"
         id="stop237" />
    </linearGradient>
    <linearGradient
       inkscape:collect="always"
       xlink:href="#linearGradient3025"
       id="linearGradient3031"
       x1="28.284271"
       y1="41.724426"
       x2="28.284271"
       y2="23.766773"
       gradientUnits="userSpaceOnUse"
       gradientTransform="matrix(1.224127,0,0,1.233884,94.35394,25.10826)" />
    <linearGradient
       inkscape:collect="always"
       xlink:href="#linearGradient2854"
       id="linearGradient2860"
       x1="17.536978"
       y1="4.823194"
       x2="44.375"
       y2="57.75"
       gradientUnits="userSpaceOnUse" />
    <linearGradient
       inkscape:collect="always"
       xlink:href="#linearGradient2864"
       id="linearGradient2870"
       x1="30.935923"
       y1="44.293907"
       x2="30.935923"
       y2="-11.761294"
       gradientUnits="userSpaceOnUse"
       gradientTransform="translate(-18,-15)" />
    <linearGradient
       inkscape:collect="always"
       xlink:href="#linearGradient3772"
       id="linearGradient3778"
       x1="30.992197"
       y1="46.986557"
       x2="30.992197"
       y2="43.494534"
       gradientUnits="userSpaceOnUse"
       gradientTransform="matrix(0.833333,0,0,1.142857,4.666667,-6.714286)" />
    <radialGradient
       inkscape:collect="always"
       xlink:href="#linearGradient3782"
       id="radialGradient3788"
       cx="34"
       cy="45"
       fx="34"
       fy="45"
       r="1.5"
       gradientTransform="matrix(2,0,0,1.333333,-35,-15)"
       gradientUnits="userSpaceOnUse" />
    <radialGradient
       inkscape:collect="always"
       xlink:href="#linearGradient3782"
       id="radialGradient3792"
       gradientUnits="userSpaceOnUse"
       gradientTransform="matrix(2,0,0,1.333333,-96,-105)"
       cx="34"
       cy="45"
       fx="34"
       fy="45"
       r="1.5" />
    <linearGradient
       inkscape:collect="always"
       xlink:href="#linearGradient3772"
       id="linearGradient3799"
       gradientUnits="userSpaceOnUse"
       gradientTransform="matrix(0.833333,0,0,1.142857,4.666667,-6.714286)"
       x1="30.992197"
       y1="46.986557"
       x2="30.992197"
       y2="43.494534" />
    <radialGradient
       inkscape:collect="always"
       xlink:href="#linearGradient3782"
       id="radialGradient3801"
       gradientUnits="userSpaceOnUse"
       gradientTransform="matrix(2,0,0,1.333333,-35,-15)"
       cx="34"
       cy="45"
       fx="34"
       fy="45"
       r="1.5" />
    <radialGradient
       inkscape:collect="always"
       xlink:href="#linearGradient3782"
       id="radialGradient3803"
       gradientUnits="userSpaceOnUse"
       gradientTransform="matrix(2,0,0,1.333333,-96,-105)"
       cx="34"
       cy="45"
       fx="34"
       fy="45"
       r="1.5" />
    <radialGradient
       inkscape:collect="always"
       xlink:href="#linearGradient3782"
       id="radialGradient3806"
       gradientUnits="userSpaceOnUse"
       gradientTransform="matrix(2,0,0,1.333333,-97.5,-105)"
       cx="34"
       cy="45"
       fx="34"
       fy="45"
       r="1.5" />
    <radialGradient
       inkscape:collect="always"
       xlink:href="#linearGradient3782"
       id="radialGradient3809"
       gradientUnits="userSpaceOnUse"
       gradientTransform="matrix(2,0,0,1.333333,-35,-15)"
       cx="34"
       cy="45"
       fx="34"
       fy="45"
       r="1.5" />
    <linearGradient
       inkscape:collect="always"
       xlink:href="#linearGradient3772"
       id="linearGradient3812"
       gradientUnits="userSpaceOnUse"
       gradientTransform="matrix(0.583333,0,0,1.142857,13.16666,-6.714286)"
       x1="30.992197"
       y1="46.986557"
       x2="30.992197"
       y2="43.494534" />
    <linearGradient
       inkscape:collect="always"
       xlink:href="#linearGradient3772"
       id="linearGradient3820"
       gradientUnits="userSpaceOnUse"
       gradientTransform="matrix(0.749999,0,0,1.142857,19.49999,-6.714286)"
       x1="30.992197"
       y1="46.986557"
       x2="30.992197"
       y2="43.494534" />
    <radialGradient
       inkscape:collect="always"
       xlink:href="#linearGradient3782"
       id="radialGradient3822"
       gradientUnits="userSpaceOnUse"
       gradientTransform="matrix(2,0,0,1.333333,-23,-15)"
       cx="34"
       cy="45"
       fx="34"
       fy="45"
       r="1.5" />
    <radialGradient
       inkscape:collect="always"
       xlink:href="#linearGradient3782"
       id="radialGradient3824"
       gradientUnits="userSpaceOnUse"
       gradientTransform="matrix(2,0,0,1.333333,-108.5,-105)"
       cx="34"
       cy="45"
       fx="34"
       fy="45"
       r="1.5" />
    <linearGradient
       inkscape:collect="always"
       xlink:href="#linearGradient3772"
       id="linearGradient3836"
       gradientUnits="userSpaceOnUse"
       gradientTransform="matrix(0.583333,0,0,1.142857,13.16666,-6.714286)"
       x1="30.992197"
       y1="46.986557"
       x2="30.992197"
       y2="43.494534" />
    <radialGradient
       inkscape:collect="always"
       xlink:href="#linearGradient3782"
       id="radialGradient3838"
       gradientUnits="userSpaceOnUse"
       gradientTransform="matrix(2,0,0,1.333333,-35,-15)"
       cx="34"
       cy="45"
       fx="34"
       fy="45"
       r="1.5" />
    <radialGradient
       inkscape:collect="always"
       xlink:href="#linearGradient3782"
       id="radialGradient3840"
       gradientUnits="userSpaceOnUse"
       gradientTransform="matrix(2,0,0,1.333333,-97.5,-105)"
       cx="34"
       cy="45"
       fx="34"
       fy="45"
       r="1.5" />
    <linearGradient
       inkscape:collect="always"
       xlink:href="#linearGradient3772"
       id="linearGradient3842"
       gradientUnits="userSpaceOnUse"
       gradientTransform="matrix(0.749999,0,0,1.142857,19.49999,-6.714286)"
       x1="30.992197"
       y1="46.986557"
       x2="30.992197"
       y2="43.494534" />
    <radialGradient
       inkscape:collect="always"
       xlink:href="#linearGradient3782"
       id="radialGradient3844"
       gradientUnits="userSpaceOnUse"
       gradientTransform="matrix(2,0,0,1.333333,-23,-15)"
       cx="34"
       cy="45"
       fx="34"
       fy="45"
       r="1.5" />
    <radialGradient
       inkscape:collect="always"
       xlink:href="#linearGradient3782"
       id="radialGradient3846"
       gradientUnits="userSpaceOnUse"
       gradientTransform="matrix(2,0,0,1.333333,-108.5,-105)"
       cx="34"
       cy="45"
       fx="34"
       fy="45"
       r="1.5" />
  </defs>
  <g
     inkscape:groupmode="layer"
     id="layer1"
     inkscape:label="pixmap"
     style="display:inline" />
  <g
     inkscape:groupmode="layer"
     id="layer2"
     inkscape:label="vectors"
     style="display:inline">
    <g
       id="g891"
       transform="matrix(0.186703,0,0,0.186703,-21.1073,57.62299)" />
    <path
       style="opacity:1;color:black;fill:url(#linearGradient3031);fill-opacity:1;fill-rule:evenodd;stroke:#4e9a06;stroke-width:0.99999964;stroke-linecap:round;stroke-linejoin:round;marker:none;marker-start:none;marker-mid:none;marker-end:none;stroke-miterlimit:4;stroke-dasharray:none;stroke-dashoffset:0;stroke-opacity:1;visibility:visible;display:inline;overflow:visible"
       d="M 134.13807,57.806199 C 132.11092,57.806199 130.46569,59.464537 130.46569,61.507852 C 130.46569,62.598622 130.94432,63.567881 131.68982,64.245533 L 131.68982,65.209505 L 125.56918,65.209505 L 125.56918,72.612811 L 124.68934,72.612811 C 124.01562,71.811079 123.01338,71.30181 121.8968,71.30181 C 119.86965,71.30181 118.22442,72.977422 118.22442,75.042021 C 118.22442,77.106618 119.86965,78.782232 121.8968,78.782233 C 122.9763,78.782233 123.94072,78.304388 124.61283,77.548349 L 125.56918,77.548349 L 125.56918,81.250002 L 132.91395,81.250002 L 132.91395,80.28603 C 132.16845,79.608378 131.68982,78.639119 131.68982,77.548349 C 131.68982,75.505034 133.33505,73.846696 135.3622,73.846696 C 137.38936,73.846696 139.03458,75.505034 139.03458,77.548349 C 139.03458,78.639119 138.55595,79.608378 137.81046,80.28603 L 137.81046,81.250002 L 145.15522,81.250002 L 145.15522,73.846696 L 146.11157,73.846696 C 146.78369,74.602735 147.7481,75.08058 148.8276,75.08058 C 150.85476,75.08058 152.49998,73.404965 152.49998,71.340368 C 152.49998,69.275771 150.85476,67.600157 148.8276,67.600156 C 147.71102,67.600156 146.70878,68.109426 146.03506,68.911158 L 145.15522,68.911158 L 145.15522,65.209505 L 136.58633,65.209505 L 136.58633,64.245533 C 137.33183,63.567881 137.81046,62.598622 137.81046,61.507852 C 137.81046,59.464537 136.16523,57.806199 134.13807,57.806199 z "
       id="rect1933" />
    <path
       style="color:black;fill:#8ae234;fill-opacity:1;fill-rule:nonzero;stroke:#4e9a06;stroke-width:0.99999988;stroke-linecap:square;stroke-linejoin:miter;marker:none;marker-start:none;marker-mid:none;marker-end:none;stroke-miterlimit:4;stroke-dashoffset:1.5;stroke-opacity:1;visibility:visible;display:inline;overflow:visible"
       d="M 133.5,93 C 135.48874,92.977903 139.5,94.5 139.5,94.5 L 139.5,98.5 C 139.5,98.5 135.4805,99.977903 134,100 C 132.06832,100.03504 131,98 131,95 C 131,94 131.56806,93.014845 133.5,93 z "
       id="path2829"
       sodipodi:nodetypes="ccccsc" />
    <path
       style="opacity:1;color:black;fill:#8ae234;fill-opacity:1;fill-rule:nonzero;stroke:#4e9a06;stroke-width:1;stroke-linecap:square;stroke-linejoin:miter;marker:none;marker-start:none;marker-mid:none;marker-end:none;stroke-miterlimit:4;stroke-dasharray:none;stroke-dashoffset:1.5;stroke-opacity:1;visibility:visible;display:inline;overflow:visible"
       d="M 136.5,19.5 C 133.5,19.5 131.50807,20.568017 131.5,22.5 C 131.5,23.90625 132.53125,25.03125 132.5,27.5 L 123.5,27.5 L 123.5,34.5 C 121.65625,34.609375 120.22965,33.486337 119,33.5 C 117.06806,33.514845 116.5,34.5 116.5,35.5 C 116.5,38.500001 117.56832,40.535041 119.5,40.5 C 120.47439,40.485457 120.98438,39.53125 123.5,39.5 L 123.5,46.5 L 132.5,46.5 C 132.5,43.441942 131.51704,42.642007 131.5,41.5 C 131.46496,39.56832 133.5,38.5 136.5,38.5 C 137.5,38.5 139.5,39.068003 139.5,41 C 139.5,43 137.5,42.940844 137.5,46.5 L 146.5,46.5 L 146.5,38.5 C 148.95278,38.464308 149.9974,40.513864 151.5,40.5 C 153.43171,40.466763 153.5,38.5 153.5,37 C 153.5,36 152.932,33.5 151,33.5 C 149.98353,33.5 148.48874,34.522097 146.5,34.5 L 146.5,27.5 L 137.5,27.5 C 137.46875,25.46875 139.53125,23.03125 139.5,22 C 139.43965,20.068943 137.5,19.5 136.5,19.5 z "
       id="path2841"
       sodipodi:nodetypes="cccccssscccsssccccsscccsc" />
    <path
       style="opacity:1;color:black;fill:#8ae234;fill-opacity:1;fill-rule:nonzero;stroke:#4e9a06;stroke-width:1;stroke-linecap:square;stroke-linejoin:miter;marker:none;marker-start:none;marker-mid:none;marker-end:none;stroke-miterlimit:4;stroke-dasharray:none;stroke-dashoffset:1.5;stroke-opacity:1;visibility:visible;display:inline;overflow:visible"
       d="M 137,-21.5 C 136,-21.5 133.5,-20.932 133.5,-19 C 133.5,-17.98353 134.5221,-16.48874 134.5,-14.5 L 127.5,-14.5 L 127.5,-5.5 C 125.46875,-5.46875 123.03125,-7.53125 122,-7.5 C 120.06894,-7.439654 119.5,-5.5 119.5,-4.5 C 119.5,-1.499999 120.56802,0.491928 122.5,0.5 C 123.90625,0.5 125.03125,-0.53125 127.5,-0.5 L 127.5,8.5 L 134.5,8.5 C 134.5,6 132.5,5.500976 132.5,3.5 C 132.5,2 133.5,1.5 135,1.5 C 137.4383,1.5 139.5,1.999024 139.5,4 C 139.5,5.229726 138.5,6.5 138.5,8.5 L 146.5,8.5 L 146.5,-3.5 C 143.44194,-3.5 142.64201,-2.517045 141.5,-2.5 C 139.56832,-2.464959 138.5,-3.5 138.5,-6.5 C 138.5,-7.499999 139.068,-9.5 141,-9.5 C 143,-9.5 142.94084,-7.5 146.5,-7.5 L 146.5,-14.5 L 138.5,-14.5 C 138.46431,-16.95278 140.51386,-17.9974 140.5,-19.5 C 140.46676,-21.43171 138.5,-21.5 137,-21.5 z "
       id="path2843"
       sodipodi:nodetypes="cscccssccccssscccsssccccc" />
    <g
       id="g3826"
       transform="matrix(1.105262,0,0,1,-21.28944,-15)"
       style="opacity:0.5">
      <rect
         y="43"
         x="29.5"
         height="4"
         width="3.5"
         id="rect2872"
         style="color:black;fill:url(#linearGradient3836);fill-opacity:1;fill-rule:nonzero;stroke:none;stroke-width:1;stroke-linecap:square;stroke-linejoin:miter;marker:none;marker-start:none;marker-mid:none;marker-end:none;stroke-miterlimit:4;stroke-dasharray:none;stroke-dashoffset:1.5;stroke-opacity:1;visibility:visible;display:inline;overflow:visible" />
      <rect
         y="43"
         x="33"
         height="4"
         width="3"
         id="rect3762"
         style="color:black;fill:url(#radialGradient3838);fill-opacity:1;fill-rule:nonzero;stroke:none;stroke-width:1;stroke-linecap:square;stroke-linejoin:miter;marker:none;marker-start:none;marker-mid:none;marker-end:none;stroke-miterlimit:4;stroke-dasharray:none;stroke-dashoffset:1.5;stroke-opacity:1;visibility:visible;display:inline;overflow:visible" />
      <rect
         transform="scale(-1,-1)"
         y="-47"
         x="-29.5"
         height="4"
         width="3"
         id="rect3790"
         style="color:black;fill:url(#radialGradient3840);fill-opacity:1;fill-rule:nonzero;stroke:none;stroke-width:1;stroke-linecap:square;stroke-linejoin:miter;marker:none;marker-start:none;marker-mid:none;marker-end:none;stroke-miterlimit:4;stroke-dasharray:none;stroke-dashoffset:1.5;stroke-opacity:1;visibility:visible;display:inline;overflow:visible" />
    </g>
    <g
       id="g3831"
       transform="matrix(1.095238,0,0,1,-22.07144,-15)"
       style="opacity:0.5">
      <rect
         y="43"
         x="40.5"
         height="4"
         width="4.5"
         id="rect3814"
         style="color:black;fill:url(#linearGradient3842);fill-opacity:1;fill-rule:nonzero;stroke:none;stroke-width:1;stroke-linecap:square;stroke-linejoin:miter;marker:none;marker-start:none;marker-mid:none;marker-end:none;stroke-miterlimit:4;stroke-dasharray:none;stroke-dashoffset:1.5;stroke-opacity:1;visibility:visible;display:inline;overflow:visible" />
      <rect
         y="43"
         x="45"
         height="4"
         width="3"
         id="rect3816"
         style="color:black;fill:url(#radialGradient3844);fill-opacity:1;fill-rule:nonzero;stroke:none;stroke-width:1;stroke-linecap:square;stroke-linejoin:miter;marker:none;marker-start:none;marker-mid:none;marker-end:none;stroke-miterlimit:4;stroke-dasharray:none;stroke-dashoffset:1.5;stroke-opacity:1;visibility:visible;display:inline;overflow:visible" />
      <rect
         transform="scale(-1,-1)"
         y="-47"
         x="-40.5"
         height="4"
         width="3"
         id="rect3818"
         style="color:black;fill:url(#radialGradient3846);fill-opacity:1;fill-rule:nonzero;stroke:none;stroke-width:1;stroke-linecap:square;stroke-linejoin:miter;marker:none;marker-start:none;marker-mid:none;marker-end:none;stroke-miterlimit:4;stroke-dasharray:none;stroke-dashoffset:1.5;stroke-opacity:1;visibility:visible;display:inline;overflow:visible" />
    </g>
    <path
       style="opacity:1;color:black;fill:url(#linearGradient2870);fill-opacity:1;fill-rule:nonzero;stroke:#4e9a06;stroke-width:1;stroke-linecap:square;stroke-linejoin:miter;marker:none;marker-start:none;marker-mid:none;marker-end:none;stroke-miterlimit:4;stroke-dasharray:none;stroke-dashoffset:1.5;stroke-opacity:1;visibility:visible;display:inline;overflow:visible"
       d="M 19,0.5 C 18,0.5 15.5,1.068 15.5,3 C 15.5,4.01647 16.522097,5.51126 16.5,7.5 L 9.5,7.5 L 9.5,16.5 C 7.46875,16.53125 6.03125,14.46875 5,14.5 C 3.068943,14.560346 2.5,16.5 2.5,17.5 C 2.5,20.500001 3.568017,21.491928 5.5,21.5 C 6.90625,21.5 7.03125,20.46875 9.5,20.5 L 9.5,30.5 L 16.5,30.5 C 16.5,28 14.5,27.500976 14.5,25.5 C 14.5,24 15.5,23.5 17,23.5 C 19.438301,23.5 21.5,23.999024 21.5,26 C 21.5,27.229726 20.5,28.5 20.5,30.5 L 28.5,30.5 L 28.5,18.5 C 25.441942,18.5 24.642007,19.482955 23.5,19.5 C 21.56832,19.535041 20.5,18.5 20.5,15.5 C 20.5,14.500001 21.068003,12.5 23,12.5 C 25,12.5 24.940844,14.5 28.5,14.5 L 28.5,7.5 L 20.5,7.5 C 20.464308,5.04722 22.513864,4.0026 22.5,2.5 C 22.466763,0.56829 20.5,0.5 19,0.5 z "
       id="path2848"
       sodipodi:nodetypes="cscccssccccssscccsssccccc" />
    <path
       sodipodi:type="inkscape:offset"
       inkscape:radius="-1.0004594"
       inkscape:original="M 37 15.5 C 36 15.5 33.5 16.068 33.5 18 C 33.5 19.01647 34.522097 20.51126 34.5 22.5 L 27.5 22.5 L 27.5 31.5 C 25.46875 31.53125 24.03125 29.46875 23 29.5 C 21.068943 29.560346 20.5 31.5 20.5 32.5 C 20.5 35.500001 21.568017 36.491928 23.5 36.5 C 24.90625 36.5 25.03125 35.46875 27.5 35.5 L 27.5 45.5 L 34.5 45.5 C 34.5 43 32.5 42.500976 32.5 40.5 C 32.5 39 33.5 38.5 35 38.5 C 37.438301 38.5 39.5 38.999024 39.5 41 C 39.5 42.229726 38.5 43.5 38.5 45.5 L 46.5 45.5 L 46.5 33.5 C 43.441942 33.5 42.642007 34.482955 41.5 34.5 C 39.56832 34.535041 38.5 33.5 38.5 30.5 C 38.5 29.500001 39.068003 27.5 41 27.5 C 43 27.5 42.940844 29.5 46.5 29.5 L 46.5 22.5 L 38.5 22.5 C 38.464308 20.04722 40.513864 19.0026 40.5 17.5 C 40.466763 15.56829 38.5 15.5 37 15.5 z "
       style="opacity:1;color:black;fill:none;fill-opacity:1;fill-rule:nonzero;stroke:url(#linearGradient2860);stroke-width:1;stroke-linecap:square;stroke-linejoin:miter;marker:none;marker-start:none;marker-mid:none;marker-end:none;stroke-miterlimit:4;stroke-dasharray:none;stroke-dashoffset:1.5;stroke-opacity:1;visibility:visible;display:inline;overflow:visible"
       id="path2852"
       d="M 37,16.5 C 36.68942,16.5 35.902047,16.620774 35.34375,16.90625 C 34.785453,17.191726 34.5,17.46553 34.5,18 C 34.5,18.172902 34.704812,18.780018 34.96875,19.5625 C 35.232688,20.344982 35.512983,21.331484 35.5,22.5 C 35.499691,23.052157 35.052157,23.499691 34.5,23.5 L 28.5,23.5 L 28.5,31.5 C 28.499691,32.052157 28.052157,32.499691 27.5,32.5 C 26.142249,32.520888 25.097893,31.849874 24.3125,31.3125 C 23.919803,31.043813 23.59051,30.805544 23.34375,30.65625 C 23.09699,30.506956 22.949001,30.502492 23.03125,30.5 C 22.397137,30.519816 22.129326,30.778147 21.875,31.1875 C 21.620674,31.596853 21.5,32.189735 21.5,32.5 C 21.5,33.881277 21.775657,34.648011 22.0625,35 C 22.349343,35.351989 22.704454,35.496676 23.5,35.5 C 23.958568,35.5 24.075894,35.379531 24.65625,35.09375 C 25.236606,34.807969 26.12614,34.482609 27.5,34.5 C 28.052157,34.500309 28.499691,34.947843 28.5,35.5 L 28.5,44.5 L 33.3125,44.5 C 33.170541,44.123896 32.961735,43.783257 32.6875,43.40625 C 32.204437,42.742156 31.5,41.833812 31.5,40.5 C 31.5,39.527676 31.892215,38.626096 32.59375,38.125 C 33.295285,37.623904 34.138838,37.5 35,37.5 C 36.287402,37.5 37.535293,37.609982 38.59375,38.09375 C 39.652207,38.577518 40.5,39.655905 40.5,41 C 40.5,41.886051 40.178478,42.585996 39.9375,43.28125 C 39.804932,43.663726 39.769838,44.097966 39.6875,44.5 L 45.5,44.5 L 45.5,34.65625 C 44.807179,34.737235 44.026141,34.789669 43.59375,34.9375 C 42.93424,35.162982 42.354463,35.487247 41.5,35.5 C 40.352214,35.520821 39.229356,35.183917 38.5,34.28125 C 37.770644,33.378583 37.5,32.118757 37.5,30.5 C 37.5,29.810579 37.674983,28.929012 38.1875,28.09375 C 38.700017,27.258488 39.688777,26.5 41,26.5 C 42.333486,26.5 43.143386,27.241529 43.75,27.6875 C 44.182971,28.005811 44.727135,28.212779 45.5,28.34375 L 45.5,23.5 L 38.5,23.5 C 37.947843,23.499691 37.500309,23.052157 37.5,22.5 C 37.47807,20.992969 38.122147,19.890986 38.65625,19.09375 C 39.190353,18.296514 39.502716,17.794342 39.5,17.5 C 39.489218,16.873329 39.372622,16.883374 38.9375,16.71875 C 38.502378,16.554126 37.734817,16.5 37,16.5 z "
       transform="translate(-18,-15)" />
  </g>
</svg>
