#define close_term_width 22
#define close_term_height 18
static unsigned char close_term_bits[] = {
   0x00, 0x00, 0x00, 0x00, 0x00, 0x00, 0x00, 0x00, 0x00, 0x00, 0x00, 0x00,
   0x80, 0x30, 0x00, 0x80, 0x79, 0x00, 0x00, 0x3b, 0x00, 0x00, 0x1f, 0x00,
   0x00, 0x0e, 0x00, 0x00, 0x1e, 0x00, 0x00, 0x3f, 0x00, 0x00, 0x7b, 0x00,
   0x80, 0xf1, 0x00, 0x80, 0x60, 0x00, 0x00, 0x00, 0x00, 0x00, 0x00, 0x00,
   0x00, 0x00, 0x00, 0x00, 0x00, 0x00 };
