/* XPM */
static char * left_d_xpm[] = {
"18 18 3 1",
" 	c None",
".	c #D3D3DD s background",
"+	c #8585F8",
"..................",
"..................",
"..................",
"............+.....",
"...........++.....",
"..........+++.....",
".........++++.....",
"........+++++.....",
".......++++++.....",
"......+++++++.....",
".......++++++.....",
"........+++++.....",
".........++++.....",
"..........+++.....",
"...........++.....",
"............+.....",
"..................",
".................."};
