#define right_width 22
#define right_height 18
static unsigned char right_bits[] = {
   0x00, 0x00, 0x00, 0x00, 0x00, 0x00, 0x00, 0x00, 0x00, 0x00, 0x01, 0x00,
   0x00, 0x03, 0x00, 0x00, 0x07, 0x00, 0x00, 0x0f, 0x00, 0x00, 0x1f, 0x00,
   0x00, 0x3f, 0x00, 0x00, 0x7f, 0x00, 0x00, 0x3f, 0x00, 0x00, 0x1f, 0x00,
   0x00, 0x0f, 0x00, 0x00, 0x07, 0x00, 0x00, 0x03, 0x00, 0x00, 0x01, 0x00,
   0x00, 0x00, 0x00, 0x00, 0x00, 0x00 };
