#define term_width 22
#define term_height 18
static unsigned char term_bits[] = {
   0x00, 0x00, 0x00, 0xf8, 0xff, 0x07, 0xf8, 0xff, 0x07, 0xf8, 0xff, 0x07,
   0xf8, 0xff, 0x07, 0x08, 0x00, 0x04, 0x28, 0x00, 0x04, 0x48, 0x00, 0x04,
   0x48, 0x00, 0x04, 0x28, 0x00, 0x04, 0x08, 0x00, 0x04, 0x08, 0x00, 0x04,
   0x08, 0x00, 0x04, 0x08, 0x00, 0x04, 0x08, 0x00, 0x04, 0x08, 0x00, 0x04,
   0xf8, 0xff, 0x07, 0x00, 0x00, 0x00 };
