/* XPM */
static char * term_d_xpm[] = {
"18 18 17 1",
" 	c None",
".	c #D3D3DD s background",
"+	c #9B9797",
"@	c #7676FD",
"#	c #BABABA",
"$	c #C0C0C0",
"%	c #CBCBCB",
"&	c #D3D3D3",
"*	c #D8D8D7",
"=	c #DBDBDB",
"-	c #E4E3E3",
";	c #EBEBEB",
">	c #F3F3F3",
",	c #E0DFDF",
"'	c #F8F8F7",
")	c #FDFDFD",
"!	c #F0EFF0",
"..................",
".++++++++++++++++.",
".+@@@@@@@@@@@@@@+.",
".+@@@@@@@@@@@@@@+.",
".++++++++++++++++.",
".+#########$$$$%+.",
".+#+####$$$$%%&&+.",
".+##+##$$$%&&&**+.",
".+##+$%%%&&**==-+.",
".+$+%%%&&*==--;;+.",
".+%%&&*==---;;>>+.",
".+&**=,---;>>'')+.",
".+=,---!>>>'))))+.",
".+--;!!>''))))))+.",
".+;>>>')))))))))+.",
".+>'))))))))))))+.",
".++++++++++++++++.",
".................."};
