/* XPM */
static char *galculator[] = {
/* columns rows colors chars-per-pixel */
"48 48 15 1",
"  c #4B79BA",
". c #4A79BB",
"X c #4B79BB",
"o c #4B7ABA",
"O c #4B7BBA",
"+ c #4A7ABB",
"@ c #4B7ABB",
"# c #4B7BBB",
"$ c #4C7ABB",
"% c #4C7BBB",
"& c #4A7ABC",
"* c #4B7ABC",
"= c #4B7BBC",
"- c #4C7ABC",
"; c None",
/* pixels */
";;;;;;;;;;;;;;;;;;;;;;;;;;;;;;;;;;;;;;;;;;;;;;;;",
";;;;;;;;;;;;;;;;;;;;;;;;;;;;;;;;;;;;;;;;;;;;;;;;",
";;;X@@@@@@@@@@@@@@@@@@@@@@@@@@@@@@@@@@@@@@@@X;;;",
";;X@@@@@@@@@@@@@@@@@@@@@@@@@@@@@@@@@@@@@@@@@@X;;",
";;@@@@@@@@@@@@@@@@@@@@@@@@@@@@@@@@@@@@@@@@@@@@;;",
";;@@@O;;;;;;;;;;;;;;;;;;;;;;;;;;;;;;;;;;;;O@@@;;",
";;@@@;;;;;;;;;;;;;;;;;;;;;;;;;;;;;;;;;;;;;;@@@;;",
";;@@@;;;@@@@@@@@@@@@@@@@@@@@@@@@@@@@@@@@;;;@@@;;",
";;@@@;;;@@@@@@@@@@@@@@@@@@@@@@@@@@@@@@@@;;;@@@;;",
";;@@@;;;@@-;;;;;;;;;;;;;;;;;;;;;;;;;;-@@;;;@@@;;",
";;@@@;;;@@;;;;;;;;;;;;;;;;;;;;;;;;;;;;@@;;;@@@;;",
";;@@@;;;@@;;;;;;;;;;;;;;;;;;;;;;;;;;;;@@;;;@@@;;",
";;@@@;;;@@;;;;;;;;;;;;;;;;;;;;;;;;;;;;@@;;;@@@;;",
";;@@@;;;@@;;;;;;;;;;;;;;;;;;;;;;;;;;;;@@;;;@@@;;",
";;@@@;;;@@;;;;;;;;;;;;;;;;;;;;;;;;;;;;@@;;;@@@;;",
";;@@@;;;@@;;;;;;;;;;;;;;;;;;;;;;;;;;;;@@;;;@@@;;",
";;@@@;;;@@#;;;;;;;;;;;;;;;;;;;;;;;;;;#@@;;;@@@;;",
";;@@@;;;@@@@@@@@@@@@@@@@@@@@@@@@@@@@@@@@;;;@@@;;",
";;@@@;;;@@@@@@@@@@@@@@@@@@@@@@@@@@@@@@@@;;;@@@;;",
";;@@@;;;;;;;;;;;;;;;;;;;;;;;;;;;;;;;;;;;;;;@@@;;",
";;@@@;;;;;oooo;;;;oooo;;;;oooo;;;;oooo;;;;;@@@;;",
";;@@@;;;;@@@@@@;;@@@@@+;;+@@@@@;;@@@@@@;;;;@@@;;",
";;@@@;;;;@*;;o@;;@*;;&@;;@&;;*@;;@o;;*@;;;;@@@;;",
";;@@@;;;;@O;;@@;;@.;;@@;;@@;;.@;;@@;;O@;;;;@@@;;",
";;@@@;;;;@@;;%@;;@@;;o@;;@o;;@@;;@%;;@@;;;;@@@;;",
";;@@@;;;;@@@@@@;;=@@@@@;;@@@@@=;;@@@@@@;;;;@@@;;",
";;@@@;;;;;;;;;;;;;;;;;;;;;;;;;;;;;;;;;;;;;;@@@;;",
";;@@@;;;;;;;;;;;;;;;;;;;;;;;;;;;;;;;;;;;;;;@@@;;",
";;@@@;;;;X@@@@o;;#@@@@@;;@@@@@#;;;====;;;;;@@@;;",
";;@@@;;;;@=$$@@;;@ $$$@;;@$$$ @;;@@@@@@;;;;@@@;;",
";;@@@;;;;@O;;@@;;@.;;@@;;@@;;.@;;@@;;O@;;;;@@@;;",
";;@@@;;;;@O;;@@;;@.;;@@;;@@;;.@;;@@;;O@;;;;@@@;;",
";;@@@;;;;@@$$@#;;@@$$@#;;#@$$@@;;@@;;O@;;;;@@@;;",
";;@@@;;;;;++++;;;;++++;;;;++++;;;@@;;O@;;;;@@@;;",
";;@@@;;;;;;;;;;;;;;;;;;;;;;;;;;;;@@;;O@;;;;@@@;;",
";;@@@;;;;;....;;;;....;;;;....;;;@@;;O@;;;;@@@;;",
";;@@@;;;;@@@@@@;;@@@@@@;;@@@@@@;;@@;;O@;;;;@@@;;",
";;@@@;;;;@O;;@@;;@.;;@@;;@@;;.@;;@@;;O@;;;;@@@;;",
";;@@@;;;;@O;;@@;;@.;;@@;;@@;;.@;;@@;;O@;;;;@@@;;",
";;@@@;;;;@@;;@@;;@o;;%@;;@%;;o@;;@@;;@@;;;;@@@;;",
";;@@@;;;;+@@@@o;;@@@@@@;;@@@@@@;;o@@@@+;;;;@@@;;",
";;@@@;;;;;;;;;;;;;;;;;;;;;;;;;;;;;;;;;;;;;;@@@;;",
";;@@@O;;;;;;;;;;;;;;;;;;;;;;;;;;;;;;;;;;;;O@@@;;",
";;@@@@@@@@@@@@@@@@@@@@@@@@@@@@@@@@@@@@@@@@@@@@;;",
";;X@@@@@@@@@@@@@@@@@@@@@@@@@@@@@@@@@@@@@@@@@@X;;",
";;;X@@@@@@@@@@@@@@@@@@@@@@@@@@@@@@@@@@@@@@@@X;;;",
";;;;;;;;;;;;;;;;;;;;;;;;;;;;;;;;;;;;;;;;;;;;;;;;",
";;;;;;;;;;;;;;;;;;;;;;;;;;;;;;;;;;;;;;;;;;;;;;;;"
};
