/* XPM */
static char * address_xpm[] = {
"24 24 63 1",
" 	c None",
".	c #000000",
"+	c #FDFDFD",
"@	c #FCFCFC",
"#	c #BDBDBD",
"$	c #9D9C9A",
"%	c #999896",
"&	c #A4A4A3",
"*	c #FAFAFA",
"=	c #F9F9F9",
"-	c #F8F8F8",
";	c #F7F7F7",
">	c #E3E3E3",
",	c #391414",
"'	c #B1B1B1",
")	c #D4D4D4",
"!	c #E2E2E2",
"~	c #DCD4C7",
"{	c #C1B8A6",
"]	c #878682",
"^	c #7C7C7C",
"/	c #909090",
"(	c #747474",
"_	c #818181",
":	c #A8A8A8",
"<	c #B6B6B6",
"[	c #F6F6F6",
"}	c #7F742E",
"|	c #E1E1E1",
"1	c #959FA4",
"2	c #678690",
"3	c #9A9891",
"4	c #959490",
"5	c #F5F5F5",
"6	c #2B6776",
"7	c #294E70",
"8	c #294770",
"9	c #284D6F",
"0	c #232362",
"a	c #B1B3B4",
"b	c #979797",
"c	c #B0B0B0",
"d	c #AFAFAF",
"e	c #D3D3D3",
"f	c #E0E0E0",
"g	c #27276C",
"h	c #28286D",
"i	c #282A6F",
"j	c #2A5A73",
"k	c #DFDFDF",
"l	c #B5B5B5",
"m	c #A2A2A2",
"n	c #727272",
"o	c #BCBCBC",
"p	c #F4F4F4",
"q	c #DEDEDE",
"r	c #D5D5D5",
"s	c #DDDDDD",
"t	c #E7E7E7",
"u	c #E6E6E6",
"v	c #E5E5E5",
"w	c #E4E4E4",
"x	c #DCDCDC",
"                        ",
"                        ",
"                        ",
"                        ",
"                        ",
"   ..................   ",
"  .++++++++++++++++@+.  ",
"  .+##$%&#*====--;;;>.  ",
"  .+##,..$=='-)-#;;;!.  ",
"  .+##~{.]==^/(/_:<[!.  ",
"  .+##~}.%==)-;;;;[[|.  ",
"  .+#123.4==-;;;;[[5|.  ",
"  .+67890a-=/b)cde<5f.  ",
"  .+7gghij-=;;;[[[55k.  ",
"  .+====---=c:lemnopq.  ",
"  .+rrr-<#;=;[[[555ps.  ",
"  .>tuvvw>!!||fkkqsx>.  ",
"   ..................   ",
"                        ",
"                        ",
"                        ",
"                        ",
"                        ",
"                        "};
