/* XPM */
static char * book_xpm[] = {
"16 16 116 2",
"  	c None",
". 	c #000000",
"+ 	c #717171",
"@ 	c #787878",
"# 	c #E7D4BD",
"$ 	c #E1C9AC",
"% 	c #BBA285",
"& 	c #636363",
"* 	c #A2978A",
"= 	c #E0C6A6",
"- 	c #DDC09D",
"; 	c #DBBE9A",
"> 	c #9F8A70",
", 	c #6F6F6F",
"' 	c #D0BEA6",
") 	c #E7DDCF",
"! 	c #E3D9CB",
"~ 	c #E3D8CA",
"{ 	c #E2D7C9",
"] 	c #ECE5DC",
"^ 	c #EAE3DA",
"/ 	c #DFD4C7",
"( 	c #E1D5C8",
"_ 	c #E4D8CA",
": 	c #E5DACC",
"< 	c #D3BA9B",
"[ 	c #201B15",
"} 	c #E2CEB6",
"| 	c #FFFFFF",
"1 	c #FEFEFE",
"2 	c #FBFBFB",
"3 	c #FCFCFC",
"4 	c #EDEDED",
"5 	c #F2F2F2",
"6 	c #F6F6F6",
"7 	c #F1F1F1",
"8 	c #CEB99F",
"9 	c #E1CDB5",
"0 	c #929292",
"a 	c #949494",
"b 	c #969696",
"c 	c #B6B6B6",
"d 	c #DCDCDC",
"e 	c #F4F4F4",
"f 	c #E5E5E5",
"g 	c #CFBDA7",
"h 	c #1F1A14",
"i 	c #D7D7D7",
"j 	c #D9D9D9",
"k 	c #DEDEDE",
"l 	c #E0E0E0",
"m 	c #FAFAFA",
"n 	c #C4C4C4",
"o 	c #D8D8D8",
"p 	c #CABBA9",
"q 	c #E1CDB3",
"r 	c #989898",
"s 	c #B9B9B9",
"t 	c #E1E1E1",
"u 	c #F3F3F3",
"v 	c #F9F9F9",
"w 	c #C0C0C0",
"x 	c #D2D2D2",
"y 	c #C7B8A6",
"z 	c #E0CBB2",
"A 	c #DFDFDF",
"B 	c #E2E2E2",
"C 	c #E3E3E3",
"D 	c #F8F8F8",
"E 	c #BFBFBF",
"F 	c #C7C7C7",
"G 	c #C0B2A0",
"H 	c #1E1913",
"I 	c #DFCBB1",
"J 	c #999999",
"K 	c #BBBBBB",
"L 	c #F5F5F5",
"M 	c #BEBEBE",
"N 	c #BDBDBD",
"O 	c #BBAC99",
"P 	c #DECAB0",
"Q 	c #E4E4E4",
"R 	c #E7E7E7",
"S 	c #B5B5B5",
"T 	c #B5A694",
"U 	c #1E1912",
"V 	c #DDC9AF",
"W 	c #E6E6E6",
"X 	c #E9E9E9",
"Y 	c #ACACAC",
"Z 	c #B0A08E",
"` 	c #1E1812",
" .	c #C8B296",
"..	c #AE9B85",
"+.	c #AD9B84",
"@.	c #AE9B84",
"#.	c #B2A18C",
"$.	c #F2EEE9",
"%.	c #A6A6A6",
"&.	c #A5937E",
"*.	c #1D1812",
"=.	c #141414",
"-.	c #6F6962",
";.	c #C7C4C0",
">.	c #EEEDED",
",.	c #C3C3C3",
"'.	c #9A9A9A",
").	c #52473A",
"!.	c #6E6E6E",
"~.	c #646464",
"{.	c #A0A0A0",
"].	c #3A3A3A",
"^.	c #878787",
"/.	c #939393",
"(.	c #505050",
"_.	c #747474",
"  . . . . . +                   ",
"@ . # $ $ % . &                 ",
". * = - - ; > . . . . . . . . , ",
". ' ) ! ! ~ ~ { ] ^ / ( _ : < [ ",
". } | | | | 1 2 3 1 4 5 6 7 8 [ ",
". 9 | 0 a b c d 7 | 1 4 e f g h ",
". 9 | i j d k l 5 | | m n o p h ",
". q | a b r s t u | | v w x y h ",
". z | j d A B C u | | D E F G H ",
". I | b r J K f L | | D M N O H ",
". P | d A B Q R L | | v E S T U ",
". V | k l C W X 6 | | v w Y Z ` ",
".  ...+.+.@...#.$.| | m n %.&.*.",
", . . . . . . =.-.;.>.m ,.'.)., ",
"                !.~.{.Q Y ].^.  ",
"                    /.(._.      "};
