/* XPM */
static char *check_spelling_xpm[] = {
/* columns rows colors chars-per-pixel */
"24 24 65 1",
"  c #1D171B",
". c #0E1611",
"X c #0A130D",
"o c #1A291F",
"O c #1B2A20",
"+ c #40614B",
"@ c #15251A",
"# c #5D926D",
"$ c #84CD9A",
"% c #75B689",
"& c #67A078",
"* c #639A74",
"= c #90DFA8",
"- c #6BA67D",
"; c #69A27A",
": c #375540",
"> c #7EC293",
", c #6FAB81",
"< c #6DA87F",
"1 c #679E78",
"2 c #6CA57E",
"3 c #486E54",
"4 c #66A077",
"5 c #609670",
"6 c #253A2B",
"7 c #72B184",
"8 c #588866",
"9 c #121D15",
"0 c #070B08",
"q c #162219",
"w c #0A0F0B",
"e c #020402",
"r c #050705",
"t c #060806",
"y c #878887",
"u c red",
"i c #040303",
"p c #0C0B0B",
"a c #3E3D3D",
"s c #5B5A5A",
"d c #FDFDFD",
"f c gray94",
"g c gray90",
"h c #D8D8D8",
"j c #C6C6C6",
"k c #A5A5A5",
"l c gray44",
"z c gray32",
"x c #4B4B4B",
"c c gray26",
"v c gray22",
"b c gray20",
"n c gray17",
"m c #232323",
"M c #1E1E1E",
"N c #1B1B1B",
"B c #181818",
"V c #131313",
"C c gray5",
"Z c gray3",
"A c #070707",
"S c #040404",
"D c gray1",
"F c black",
"G c None",
/* pixels */
"GGGGGGGGGGGGGGGGGGGGGGGG",
"GGGGGGGGGGGGGGGGGGGGGGGG",
"GGGGGGGGGGGGGGGGGGGGGGGG",
"GGGGSMBVpMvMCspMcBbGGGGG",
"GGGGmdhFVfjgyFyfgyMGGGGG",
"GGGaljhvAdakkcdbSZsx0.CG",
"GGGZjyjyFfhdzyhDyycX,$6v",
"GGGVfhgjpdnlgldMVpt&$=+m",
"GGxsfDadagjgkFjfhlX$$2rl",
"GGvmbSZaBvsvAnScs 9$%.xk",
"GGGGGGGGGGGGGGGF@:,>OnlG",
"GGvmzGGGGGGGGGm6>$$6VsGG",
"Gmo3qNGGGGGGGbq7%>:SsGGG",
"GF8<5qNGGGGGxw1%>3FsGGGG",
"Gp:455qNGGGle87%8FsGGGGG",
"GGF+&55qBGlF37,*wsGGGGGG",
"GGGF+&55qBC:,;;9vGGGGGGG",
"GGGGF+&5596-*<@aGGGGGGGG",
"GGGGGi+&5##*-6BGGGGGGGGG",
"GGGGGGF+&##;:FGGGGGGGGGG",
"GGGGGGGF+;-3FGGGGGGGGGGG",
"GGGGGGGGF::rGGGGGGGGGGGG",
"GGGGGGGGGMBGGGGGGGGGGGGG",
"GGGGGGGGGGGGGGGGGGGGGGGG"
};
