/* XPM */
static char * claws_mail_xpm[] = {
"50 50 65 1",
" 	c None",
".	c #757474",
"+	c #6F6E6E",
"@	c #676666",
"#	c #605E5D",
"$	c #595857",
"%	c #525050",
"&	c #4A4848",
"*	c #424040",
"=	c #383636",
"-	c #C6C6C6",
";	c #C0BFBF",
">	c #B6B6B6",
",	c #AFAEAD",
"'	c #A7A6A6",
")	c #A09E9C",
"!	c #979695",
"~	c #8F8E8E",
"{	c #888888",
"]	c #828282",
"^	c #C3AFA3",
"/	c #D4B59C",
"(	c #DBC3AE",
"_	c #EDD1A6",
":	c #F6DCAC",
"<	c #7D7C7C",
"[	c #FEE7B1",
"}	c #B6A49A",
"|	c #C7A389",
"1	c #EAC68F",
"2	c #FEE09A",
"3	c #FEDD8D",
"4	c #FDD780",
"5	c #FED36C",
"6	c #A8968A",
"7	c #8B817B",
"8	c #272626",
"9	c #BE977F",
"0	c #FACC6A",
"a	c #E9B961",
"b	c #C18C58",
"c	c #89715B",
"d	c #B57E53",
"e	c #B07448",
"f	c #F0C26B",
"g	c #9D6443",
"h	c #6A5449",
"i	c #8C5C40",
"j	c #A66C47",
"k	c #7F5A43",
"l	c #604A3F",
"m	c #FAD587",
"n	c #E5B25C",
"o	c #D9A75E",
"p	c #8D634C",
"q	c #7A655B",
"r	c #FED57A",
"s	c #CA9963",
"t	c #9C8C82",
"u	c #E0B576",
"v	c #A87D65",
"w	c #927464",
"x	c #9D725A",
"y	c #1B1A1A",
"z	c #0E0E0E",
".....++++++@@@@@@@#####$$$$$$%$%%%%%&%&&&&&*&*****",
".$$$$$$$$%%$$$%%%%$%%%%$%%%%%%%%%%&&%&&%&&&&&&&&&=",
".$-----;;-;;>;>>>>,>,,',''')))))!)!!!!~~~~~{~{{]&*",
".$----;-;>;>>>>>>,,,,,,',')')))!)!!!!~!~~~~{{{]]&=",
"+#---;;;;;>;>>>,>,,,^//(//'')))!)!!!!~~~~{{{{{{]&=",
"+$-;-;;;>;>>>>,>^>^(/(_:_//^)))!!!!~~~~~{{{{]]]<&=",
"+$-;-;;;>>>>>>>>/((((:[[[_//})!!!!~!~~~~{{{{]]]<&=",
"+%-;;;>;>;>>^>/(((_[[[[[[[_//})!!!~~~~{{{{]]]<]<&=",
"+$-;;;>>>>>;((((:[[[[[[[[[:_^|)!~!~~~~{{{{]]]<]<&=",
"+%;;>>;>>>>/(_[[[[[[[[[[[[[:1/}!~~~~{{{{]]{<]<<<*=",
"+%;;;>>>>,>(_[[[[[[[[[[[[[[2:1|)~~~~{{{{]]]<]<<<*=",
"@$;>>>>>>>>^(-[[[[[:_[[[2234441)~~~{{{{]]]<]<<..*=",
"@%;;>>>>,,>^((_[[[[:/(:223455516{{{{{]{]7]<<<<<<*8",
"@$>>>>,>,,,'/-:[[[[:/9|145500abc.{{{{{]]<<<<....&=",
"@$>>>>>,,,,'^(_[[[[19debf050abgh#.]]]7]]<<<<<...*8",
"@%>>>,,,,',',(_[[2:fdgijbf0abgkl%#+<]<<<<<......&8",
"@$>>>,,,,''',/_[[[madkkgdaabggkllh@+<<<<<<<....+&8",
"@%>,,,,,',''};_[[23aeiien0odeddejpiq.<<<<.....+.&8",
"#%>>,,,''''''/_[[[2fdgeo5r00aaanosbdt7<<<<...++@&8",
"@%,,',',''''}/_[[[2fees04334555005fu|b{.....++++*8",
"#%,,,''''')'^/_[[[:fbsf5r32345555r431|9<...+++@+&8",
"#$,,',,')''}/^_[2[2fnf0543[23455533331|v.++++@+@*8",
"$%,''''''))}^/_[[2240505532[345r433333us7.+++@@@*8",
"#%',''''))'//_[[2[2555fnoa11fff5r44434m|v+++@+@@*8",
"$%,''')')))^/_:[2[245fsdeb99bbbof5r5rrrod++@@@@@*8",
"#%''')'))!)}|/(12225fbjgwvbdssejba05505odq#+@@@@=8",
"$%'')'))))!))9}^(13fsggkqxdof0odjbf5505aek#@@@#@*8",
"$%')')))))!!!)6||/mfbjgkkjsf000seen0050neh%$#@@#*y",
"$%')))))!)!!!6}|11m5aobegjbf550sjgo0550ajl&%$###*y",
"%%)')!)!!!!!}|/_:3r5000nsjjsf5adgjo0055nel*%$###*y",
"%%)))!))!!!6|/m2224450500nbbou9cweo0555ne&**%$##*y",
"$%))))!!!!6|(:22[2335550050usbtwwen5455nj***%$$$*y",
"%%))!!!!!~)/m[22mmm234555r431sbvxdarrr5si***&$$$*y",
"%%)!!!!!~6}12:1/^o^u0445544m:u9vdo0544adl***&%$$*y",
"%%!)!!!!~!^:_/||99999of555rr44uonf555abq****&%$%=y",
"&%!!!!~~~~|1||96t{7wxebn0555rrm5r550obeh&=**&%%$*y",
"&%!!~!!~~!}|96t{<+#hhigdo055055445asbwq%****&%%%=y",
"%%!!!~~~~{t~~{77.@%**lkgeo0050550o9vx+$&****&%$%*z",
"&%!~~~~~~{{{7]<.@%&&&%hijeo0500obeecq#%&*=**&%%%*z",
"%&~!~~~{{{{]]]<+$%%$##@#qjdo0nbjgk#$$%&***&&&%%%=y",
"&%~~~~{{{{{{]]<@$$@+.+.+@qqppkhl&**&%&****&%%%&%=z",
"&&!~~{~{{]]]]<<.@@+...+++@@#%&**********&&%&%%%&*z",
"&&~~~{{{{]]<]<.<.......++@@@$%***=******%%%%&&&&*z",
"&&~{{{{7]]<]<<<.<..+.+++++@@#$%*******%&%%%%%%&&=z",
"&%~{{{{{]]<]<<<.<..+.++@+@@@##$&&**&&%%%%%&%&&&&=z",
"*&{{{{]]]]]<<<.<+..++@++@@@@#@$$&&&&%%$%%%%&&&&&=z",
"*%{{{]]]]<<<<<...+.++@@+@@@@##$$$%%$%%%%%&&%&&*&=z",
"*&{]]{]<<<<......+++++@@@@@####$$$$$$%%%%%&&&&&*=z",
"*&&&&&&&&&&&&&&*&*&**&************=*=*===*=======z",
"****=========88=8=8888888888yyyyyyyyyyyyzzzzzzzzzz"};
