/* XPM */
static char * clip_gpg_signed_xpm[] = {
"11 12 21 1",
" 	c None",
".	c #000000",
"+	c #D39C0A",
"@	c #E4AB0B",
"#	c #DA7D25",
"$	c #E4B600",
"%	c #E96B00",
"&	c #DA2D01",
"*	c #E9AD00",
"=	c #E94500",
"-	c #B11E04",
";	c #E99400",
">	c #E02F00",
",	c #E97800",
"'	c #CA2B04",
")	c #E55902",
"!	c #E9CE07",
"~	c #D64707",
"{	c #E9CF16",
"]	c #C86B37",
"^	c #E6CF8D",
"           ",
"    ...    ",
"   .   .+@#",
"   .   .$%&",
"  ..  ..*=-",
"  ..  ..;> ",
"  ..  ..,' ",
"  ..  ..)  ",
"  . ..!.~  ",
"  .   {.]  ",
"  .   ^.   ",
"   ....    "};
