/* XPM */
static char * clipkey_xpm[] = {
"11 12 3 1",
"o      c #040204",
".      c #fcfe04",
"       c None",
"    ooo    ",
"   o   o   ",
"   o   o   ",
"  oo  oo   ",
"  oo  oo   ",
"  oo  oooo ",
"  oo  o...o",
" ooooo....o",
"o.......o.o",
" o.o.o....o",
"  ooooo...o",
"       ooo "};
