/* XPM */
static char *continue_xpm[] = {
/* columns rows colors chars-per-pixel */
"13 13 65 1",
"  c #4A494A",
". c #ECEBEC",
"X c #B2B1B2",
"o c #F2F2F3",
"O c #EFEFF0",
"+ c #D2D2D3",
"@ c #B5B6B6",
"# c #EDEEED",
"$ c #E7E8E7",
"% c #F5F5F4",
"& c #EEEEED",
"* c #EDEDEC",
"= c #171001",
"- c #F4DDAC",
"; c #1D1401",
": c #3D2E0F",
"> c #30240C",
", c #CB9934",
"< c #BB8D30",
"1 c #664D1A",
"2 c #EBB13D",
"3 c #977839",
"4 c #EFC36B",
"5 c #D3B270",
"6 c #F0CC81",
"7 c #2A1F0B",
"8 c red",
"9 c #FAF9F9",
"0 c #EEEDED",
"q c #B8B7B7",
"w c gray100",
"e c #FBFBFB",
"r c #F9F9F9",
"t c #F6F6F6",
"y c #F1F1F1",
"u c gray94",
"i c #EFEFEF",
"p c gray92",
"a c #E7E7E7",
"s c #CECECE",
"d c gray80",
"f c gray79",
"g c gray76",
"h c #B4B4B4",
"j c gray68",
"k c gray62",
"l c #989898",
"z c #868686",
"x c #747474",
"c c #6D6D6D",
"v c #676767",
"b c #656565",
"n c gray36",
"m c gray34",
"M c #535353",
"N c #494949",
"B c #464646",
"V c gray27",
"C c gray24",
"Z c #323232",
"A c #161616",
"S c gray8",
"D c black",
"F c black",
"G c None",
/* pixels */
"GGGGMADAMGGGG",
"GGvNd.,23ZvGG",
"Gvzoto:465xnG",
"G %ttt722-5CG",
"Mstre9>2226<M",
"Autewe;2224<S",
"Dob9er=1223<D",
"A0%tttjZk#*XA",
"MfyooougV&slM",
"GN+ii&#p*ahVG",
"Gvz+pycO$hbvG",
"GGvBj@qhlmvGG",
"GGGGMADAMGGGG"
};
