/* XPM */
static char * copied_xpm[] = {
"10 10 6 1",
" 	c #020601",
".	c #0A2307",
"+	c #0A2407",
"@	c #3CD52C",
"#	c #FFFFFF",
"$	c #57DB49",
" .+....+. ",
".@@@@@@@@+",
".@@@@@@@@.",
".@@@@@@@@+",
"+@##$$##@+",
".@##$$##@.",
"+@@@@@@@@+",
".@@@@@@@@+",
".@@@@@@@@.",
" ++++++++ "};
