/* XPM */
static char * deleted_xpm[] = {
"10 10 50 1",
" 	c None",
".	c #000000",
"+	c #E95C13",
"@	c #F2671F",
"#	c #EE621A",
"$	c #E55913",
"%	c #DB5412",
"&	c #D25317",
"*	c #CA521B",
"=	c #BE440F",
"-	c #EB611B",
";	c #FEF2EB",
">	c #FCE6DB",
",	c #E86B2C",
"'	c #DF6529",
")	c #F8E2D8",
"!	c #FBF1ED",
"~	c #C04B18",
"{	c #E55B16",
"]	c #FADFD2",
"^	c #FFFFFF",
"/	c #FAE6DC",
"(	c #FAE4D9",
"_	c #F4DCD2",
":	c #BD4713",
"<	c #DD5512",
"[	c #E26425",
"}	c #F7E1D7",
"|	c #C75522",
"1	c #D34F11",
"2	c #DA6129",
"3	c #F6E4DB",
"4	c #C45728",
"5	c #B33E0D",
"6	c #CA4E13",
"7	c #F4DDD3",
"8	c #F4E2DA",
"9	c #B24213",
"0	c #C24B16",
"a	c #F7EBE7",
"b	c #C45322",
"c	c #C05222",
"d	c #F1DAD0",
"e	c #AD4115",
"f	c #B9420E",
"g	c #BA4513",
"h	c #B84311",
"i	c #B03E10",
"j	c #AB3F13",
"k	c #A4370C",
"..........",
".+@#$%&*=.",
".-;>,')!~.",
".{]^/(^_:.",
".<[}^^_|=.",
".12)^^345.",
".6}^77^89.",
".0a_bcdae.",
".fgh55ijk.",
".........."};
