/* XPM */
static char * dir_open_xpm[] = {
"16 16 69 1",
" 	c None",
".	c #000000",
"+	c #5695E8",
"@	c #6FAAF5",
"#	c #74AEF6",
"$	c #4C89E6",
"%	c #4B89E7",
"&	c #5A98F0",
"*	c #68A7F5",
"=	c #67A6F4",
"-	c #5593EE",
";	c #4681E6",
">	c #79AEF8",
",	c #5F9DF4",
"'	c #65A2F6",
")	c #609DF4",
"!	c #63A0F4",
"~	c #5591F1",
"{	c #67A2F4",
"]	c #538FEF",
"^	c #4780EC",
"/	c #4C88ED",
"(	c #5792F1",
"_	c #224AA4",
":	c #2957BE",
"<	c #346ADB",
"[	c #D2EAFD",
"}	c #CFEAFD",
"|	c #C6E6FD",
"1	c #C4E5FD",
"2	c #C4E4FD",
"3	c #C2E3FD",
"4	c #B8DDFB",
"5	c #80BBF1",
"6	c #1D3E8C",
"7	c #2650B0",
"8	c #AAD4F8",
"9	c #AAD3F9",
"0	c #ACD7FB",
"a	c #A8D5FB",
"b	c #A7D4FA",
"c	c #9ECEF9",
"d	c #67A7EB",
"e	c #1C3A80",
"f	c #204396",
"g	c #9BCCF9",
"h	c #98CBF9",
"i	c #92C7F8",
"j	c #71AEEF",
"k	c #3470CA",
"l	c #1D3D88",
"m	c #94C9F9",
"n	c #93C8F8",
"o	c #80BDF5",
"p	c #6BACEB",
"q	c #1B3781",
"r	c #88BFF7",
"s	c #86BEF7",
"t	c #84BEF7",
"u	c #7FBAF6",
"v	c #5E9EEA",
"w	c #3064BF",
"x	c #76B1F4",
"y	c #75B1F5",
"z	c #70AEF4",
"A	c #6FADF4",
"B	c #67A7F1",
"C	c #64A4EF",
"D	c #498BE7",
"                ",
"                ",
"    ....        ",
"   .+@#$.       ",
"  .%&*=-;...... ",
"  .>,')!~{]^^/(.",
" ..........._:<.",
".[}|11212345.67.",
".890abababcd.ef.",
" .8gghhhhhijk.l.",
" .8mmnnnnniop.q.",
"  .grssssstuvw..",
"  .xyzzzAzABCD..",
"   ............ ",
"                ",
"                "};
