/* XPM */
static char * dir_close_hrm_xpm[] = {
"16 16 43 1",
" 	c None",
".	c #000000",
"+	c #DD4E73",
"@	c #DD4D73",
"#	c #DB4A71",
"$	c #DF5175",
"%	c #D9466F",
"&	c #EB6C8D",
"*	c #EE7895",
"=	c #EC7190",
"-	c #F07D98",
";	c #DC4E76",
">	c #E35D7E",
",	c #E05479",
"'	c #E0567A",
")	c #E35B7D",
"!	c #DD4F77",
"~	c #E66281",
"{	c #DA4873",
"]	c #DE5177",
"^	c #DB4971",
"/	c #E15577",
"(	c #D54074",
"_	c #E05376",
":	c #DC4B72",
"<	c #D8446E",
"[	c #E35979",
"}	c #D43C6A",
"|	c #E35E85",
"1	c #E25A87",
"2	c #D03E68",
"3	c #CE4067",
"4	c #CC4266",
"5	c #D23C69",
"6	c #CA4465",
"7	c #DC4B82",
"8	c #C83561",
"9	c #BE315A",
"0	c #C0315B",
"a	c #C63460",
"b	c #B82E55",
"c	c #CE3865",
"d	c #B02A50",
"                ",
"                ",
"    ....        ",
"   .+@#$.       ",
"  .++@#$%...... ",
"  .&&&&&&*=-&-&.",
"  .;>;>,')!~{~{.",
"  .@@@@@@@@@@@@.",
"  .]^]^+@#$%/%/.",
"  .(_(_#:$<[}[}.",
"  .|^|^+@#$%/%/.",
"  .121233245656.",
"  .787890abcdcd.",
"   ............ ",
"                ",
"                "};
