/* XPM */
static char * dir_noselect_xpm[] = {
"16 16 75 1",
" 	c None",
".	c #7F7F7F",
"+	c #BCCFE9",
"@	c #C8DBF1",
"#	c #BACCE8",
"$	c #C5D9EF",
"%	c #C4D7EF",
"&	c #CDDEF2",
"*	c #C9DBF1",
"=	c #C5D8EF",
"-	c #BBCEEB",
";	c #F2F8FC",
">	c #F0F7FC",
",	c #EFF6FC",
"'	c #EFF6FB",
")	c #ECF4FA",
"!	c #E5EFF9",
"~	c #E3EEF9",
"{	c #DFEBF8",
"]	c #D7E5F6",
"^	c #EDF5FB",
"/	c #E8F2FA",
"(	c #E5F0F9",
"_	c #E4EFF9",
":	c #DFEBF7",
"<	c #D8E7F6",
"[	c #D5E4F6",
"}	c #CFE1F4",
"|	c #C4D6EF",
"1	c #E0ECF7",
"2	c #DFECF7",
"3	c #DDEBF7",
"4	c #DAE8F6",
"5	c #D5E4F5",
"6	c #D0E1F4",
"7	c #CEDEF3",
"8	c #C5D7EF",
"9	c #B9CBE9",
"0	c #EBF4FA",
"a	c #DDEAF7",
"b	c #D7E7F6",
"c	c #D3E3F5",
"d	c #CFDFF3",
"e	c #CADCF2",
"f	c #C0D2ED",
"g	c #B3C3E5",
"h	c #CBDDF2",
"i	c #C5D7F0",
"j	c #BCCEEB",
"k	c #B1C1E1",
"l	c #E2EDF8",
"m	c #DBE9F6",
"n	c #D6E6F5",
"o	c #D2E3F4",
"p	c #CDDEF3",
"q	c #BFD1EE",
"r	c #B7CAE8",
"s	c #AEBEDE",
"t	c #CFE0F3",
"u	c #CBDCF2",
"v	c #C8D9F1",
"w	c #C4D6F0",
"x	c #C1D2EE",
"y	c #B7C8E8",
"z	c #B1C1E3",
"A	c #ABB9D9",
"B	c #DFECF8",
"C	c #BECFEC",
"D	c #BDCEEB",
"E	c #BDCFEC",
"F	c #BBCDEB",
"G	c #B9CBEA",
"H	c #B6C6E7",
"I	c #B2C2E3",
"J	c #A9B5D1",
"                ",
"                ",
"    ....        ",
"   .+@@#.       ",
"  .$%&*=-...... ",
"  .;>,',',)!~{].",
"  .^/((((_:<[}|.",
"  .)(1223456789.",
"  .0_23abc6defg.",
"  .0_:abc6dhijk.",
"  .0lmno}peiqrs.",
"  ./4tu*vwxjyzA.",
"  .B*CDEFGHIsAJ.",
"   ............ ",
"                ",
"                "};
