/* XPM */
static char * dir_open_hrm_mark_xpm[] = {
"16 16 32 1",
" 	c None",
".	c #FFFFFF",
"+	c #000000",
"@	c #DE4D7D",
"#	c #CB326F",
"$	c #CE3B76",
"%	c #A93262",
"&	c #D64385",
"*	c #BB326C",
"=	c #A63160",
"-	c #8B283D",
";	c #752637",
">	c #5A151D",
",	c #AB3265",
"'	c #EF7A95",
")	c #F1809B",
"!	c #EB6C8D",
"~	c #6C212F",
"{	c #7A293C",
"]	c #F1869D",
"^	c #E76486",
"/	c #D43B6A",
"(	c #E65F7C",
"_	c #712434",
":	c #EE719A",
"<	c #972E4C",
"[	c #D13872",
"}	c #6C1F30",
"|	c #EE7595",
"1	c #852C3F",
"2	c #DF5089",
"3	c #AF2A4F",
"             .. ",
"            .+. ",
"    ++++   .++. ",
"   +@..#+ .+++. ",
"  +$%.+.%.+++.+ ",
"  +&*.++.+++.=-+",
" ++++.+++++.;>,+",
"+')!)!.+++.!+~{+",
"+]^/(/(.+.(/+~_+",
" +:(/(/(.(/(<+_+",
" +)[(/(/(/(/(+}+",
"  +|/(/(/(/(/1++",
"  +2/3/3/3/3/3++",
"   ++++++++++++ ",
"                ",
"                "};
