/* XPM */
static char * forwarded_xpm[] = {
"9 9 8 1",
" 	c None",
".	c #000000",
"+	c #FFFFFF",
"@	c #BBC2CC",
"#	c #576E87",
"$	c #EFEFEF",
"%	c #CCCCCC",
"&	c #314E6C",
".........",
".+++++++.",
".+@#$$$%.",
".+#&&$&%.",
".+$&&&&%.",
".+$$&&&%.",
".+$&&&&%.",
".+%%%%%%.",
"........."};
