/* XPM */
static char * group_xpm[] = {
"15 13 48 1",
" 	c None",
".	c #030003",
"+	c #5A405A",
"@	c #1F2C61",
"#	c #41518B",
"$	c #848E64",
"%	c #24326C",
"&	c #152254",
"*	c #162661",
"=	c #000000",
"-	c #FFF1E6",
";	c #FEDFB9",
">	c #DD9C73",
",	c #B1693F",
"'	c #B07147",
")	c #0C163F",
"!	c #FDD17B",
"~	c #BF8270",
"{	c #FFE6C1",
"]	c #B16637",
"^	c #C37B43",
"/	c #B16E49",
"(	c #0D173F",
"_	c #F0B66B",
":	c #512311",
"<	c #FFF0DE",
"[	c #2E1307",
"}	c #AE6535",
"|	c #CD8C5E",
"1	c #C07D4D",
"2	c #FFEDD9",
"3	c #B46E3B",
"4	c #DC9956",
"5	c #E4A159",
"6	c #D18C4E",
"7	c #96532B",
"8	c #FFE7C8",
"9	c #EEBF9B",
"0	c #EEB164",
"a	c #D08A4C",
"b	c #1D1A1D",
"c	c #F3B86A",
"d	c #CD8A64",
"e	c #BC753F",
"f	c #D0874A",
"g	c #B36D39",
"h	c #2B292B",
"i	c #434343",
"               ",
"       .....+  ",
"      .@#$%&*. ",
" =.....-;>,'). ",
" .!!!!.~{]^/(. ",
" .-;>_.:<[}|1. ",
" .~{]^.234567. ",
" .:<[}.8940a.b ",
" .2345c.defgh  ",
" .8940......=  ",
" i.def.        ",
"  .....        ",
"               "};
