/* XPM */
static char * ham_btn_xpm[] = {
"24 24 47 1",
" 	c None",
".	c #999999",
"+	c #000000",
"@	c #929292",
"#	c #535353",
"$	c #FFFFFF",
"%	c #FEFEFE",
"&	c #FDFDFD",
"*	c #FCFCFC",
"=	c #FBFBFB",
"-	c #F9F9F9",
";	c #F8F8F8",
">	c #F7F7F7",
",	c #F6F6F6",
"'	c #F5F5F5",
")	c #F4F4F4",
"!	c #E3E3E3",
"~	c #EEEEEE",
"{	c #4F4F4F",
"]	c #F3F3F3",
"^	c #F2F2F2",
"/	c #F1F1F1",
"(	c #F0F0F0",
"_	c #EFEFEF",
":	c #EDEDED",
"<	c #AEAEAE",
"[	c #E4E4E4",
"}	c #434343",
"|	c #ACACAC",
"1	c #C8C8C8",
"2	c #A0A0A0",
"3	c #D4D4D4",
"4	c #ECECEC",
"5	c #959595",
"6	c #3E3E3E",
"7	c #4D4D4D",
"8	c #818181",
"9	c #C6C6C6",
"0	c #6A6A6A",
"a	c #A7A7A7",
"b	c #636363",
"c	c #B9B9B9",
"d	c #606060",
"e	c #FFD10D",
"f	c #737373",
"g	c #7C7C7C",
"h	c #BCBCBC",
"                        ",
"                        ",
"                        ",
"                        ",
"                        ",
"  .+++++++++++++++++@   ",
"  +#$$$$%&*=-;>,')!#+   ",
"  +~{$')]^^/((_~:!{<+   ",
"  +$[}&]^^/(_~~:!{|1+   ",
"  +$'[{=/((_~::!}231+   ",
"  +$='[};(_~:4!{53[1+   ",
"  +$'''[6'~:4!789[[1+   ",
"  +$=''[0}]447a++++++   ",
"  +$''[b$c{(7ddeeeeedd  ",
"  +$=[b$'[3{adeeeeeeeda ",
"  +$[f$'''''+ee+eee+ee+ ",
"  +$g$[[[[[[+eeeeeeeee+ ",
"  +fhhhhhhhh+eeeeeeeee+ ",
"  @++++++++++eeeeeeeee+ ",
"            +ee+eee+ee+ ",
"            adee+++eeda ",
"             ddeeeeedd  ",
"              a+++++a   ",
"                        "};
