/* XPM */
static char * inbox_close_hrm_mark_xpm[] = {
"16 16 8 1",
" 	c None",
".	c #9B0007",
"+	c #FFFFFF",
"@	c #050000",
"#	c #000000",
"$	c #FD5484",
"%	c #FEC9D8",
"&	c #B41133",
"  .           ++",
" ...    @    +#+",
"  ... @@$@  +##+",
"   ...++$%@+###+",
"  @@..+#+%+###+ ",
"@@$$$.+##+###+  ",
"@%@$..+#####+@  ",
"@%%@$$%+###+%%@ ",
"@%%%@$$%+#+%&%$@",
" @%%%@$$$+%%%&%@",
"  @%%%@$$%%%%$&@",
"   @%%%@$$%$$$$@",
"    @%%$&$$$$@@ ",
"     @%%@$$@@   ",
"      @%@@@     ",
"       @@       "};
