/* XPM */
static char * interface_xpm[] = {
"16 16 51 1",
" 	c None",
".	c #000000",
"+	c #E9EEEA",
"@	c #F0F3F1",
"#	c #C5D2C8",
"$	c #FAD4D3",
"%	c #FADAD9",
"&	c #F7C5C4",
"*	c #F39F9E",
"=	c #EC6B69",
"-	c #B31816",
";	c #A51614",
">	c #180303",
",	c #F3AEAD",
"'	c #EB8786",
")	c #D4100F",
"!	c #D0100E",
"~	c #CD1110",
"{	c #D01312",
"]	c #C51110",
"^	c #D01715",
"/	c #F3AAA9",
"(	c #E46B6A",
"_	c #DF3938",
":	c #D61816",
"<	c #D41715",
"[	c #BE1917",
"}	c #9F5216",
"|	c #F08987",
"1	c #E4A1A0",
"2	c #C24645",
"3	c #C7514F",
"4	c #C83937",
"5	c #C7302E",
"6	c #A96124",
"7	c #AC6E1D",
"8	c #8E3837",
"9	c #EEB4B3",
"0	c #D46D6B",
"a	c #C75553",
"b	c #BD613E",
"c	c #AE591C",
"d	c #98881A",
"e	c #410808",
"f	c #DF4341",
"g	c #D47371",
"h	c #9F6816",
"i	c #8F8316",
"j	c #010000",
"k	c #DE8C8A",
"l	c #A66817",
"                ",
"     .    .     ",
"    .+.  .@.    ",
"    .#.  .#.    ",
"    .#.  .#.    ",
"   ..........   ",
"  .$$$%&**=-;>  ",
"  .,')))!~{]^>  ",
"   ./(_:<[[}>   ",
"   .|1234567>   ",
"    890abcde    ",
"     .fghi>     ",
"      .ghj      ",
"      .kl.      ",
"      .kl.      ",
"      .kl.      "};
