/* XPM */
static char * jpilot_xpm[] = {
"15 18 154 2",
"  	c None",
". 	c #000000",
"+ 	c #393939",
"@ 	c #ABABAB",
"# 	c #ACACAC",
"$ 	c #ADADAD",
"% 	c #A9A9A9",
"& 	c #A7A7A7",
"* 	c #A4A4A4",
"= 	c #A0A0A0",
"- 	c #9D9D9D",
"; 	c #9A9A9A",
"> 	c #898989",
", 	c #353535",
"' 	c #282828",
") 	c #EDEDED",
"! 	c #B2B2B2",
"~ 	c #878787",
"{ 	c #868686",
"] 	c #848484",
"^ 	c #828282",
"/ 	c #7F7F7F",
"( 	c #7D7D7D",
"_ 	c #7A7A7A",
": 	c #171717",
"< 	c #EEEEEE",
"[ 	c #3D4A3D",
"} 	c #437943",
"| 	c #467B46",
"1 	c #457B45",
"2 	c #457A45",
"3 	c #447643",
"4 	c #4C584C",
"5 	c #161616",
"6 	c #ECECEC",
"7 	c #314231",
"8 	c #70AE70",
"9 	c #83BC83",
"0 	c #81BB82",
"a 	c #80BB80",
"b 	c #7AB87A",
"c 	c #78B778",
"d 	c #6CAE6C",
"e 	c #415341",
"f 	c #A2A2A2",
"g 	c #EAEAEA",
"h 	c #304230",
"i 	c #6EAC6E",
"j 	c #80BB81",
"k 	c #7EB97F",
"l 	c #71B371",
"m 	c #6BAF6B",
"n 	c #67AE67",
"o 	c #62AA62",
"p 	c #9F9F9F",
"q 	c #272727",
"r 	c #E6E6E6",
"s 	c #304130",
"t 	c #6BAB6B",
"u 	c #77B677",
"v 	c #6AAC6A",
"w 	c #5FA45E",
"x 	c #50A150",
"y 	c #4DA14D",
"z 	c #52A352",
"A 	c #9C9C9C",
"B 	c #262626",
"C 	c #E1E1E1",
"D 	c #69AA69",
"E 	c #5FA95F",
"F 	c #4EA04E",
"G 	c #4DA04D",
"H 	c #4BA04C",
"I 	c #469D46",
"J 	c #50A351",
"K 	c #415342",
"L 	c #999999",
"M 	c #DCDCDC",
"N 	c #2F402F",
"O 	c #57A158",
"P 	c #4CA14D",
"Q 	c #4B9F4B",
"R 	c #4DA04C",
"S 	c #4EA24E",
"T 	c #469E46",
"U 	c #425342",
"V 	c #979797",
"W 	c #252525",
"X 	c #D7D7D7",
"Y 	c #4C9B4C",
"Z 	c #4A9F4A",
"` 	c #499E49",
" .	c #58A658",
"..	c #939393",
"+.	c #242424",
"@.	c #D1D1D1",
"#.	c #2E3F2E",
"$.	c #509E50",
"%.	c #5CA95C",
"&.	c #435343",
"*.	c #919191",
"=.	c #232323",
"-.	c #CACACA",
";.	c #2D3E2D",
">.	c #54A054",
",.	c #54A554",
"'.	c #62AC62",
").	c #445344",
"!.	c #8F8F8F",
"~.	c #222222",
"{.	c #C3C3C3",
"].	c #334033",
"^.	c #558F55",
"/.	c #5D975D",
"(.	c #649B64",
"_.	c #4B574B",
":.	c #8D8D8D",
"<.	c #212121",
"[.	c #BDBDBD",
"}.	c #818181",
"|.	c #5F5F5F",
"1.	c #5C5C5C",
"2.	c #575757",
"3.	c #565656",
"4.	c #545454",
"5.	c #535353",
"6.	c #525252",
"7.	c #8C8C8C",
"8.	c #1F1F1F",
"9.	c #B3B3B3",
"0.	c #9B9B9B",
"a.	c #6C829B",
"b.	c #657E9B",
"c.	c #79899A",
"d.	c #949494",
"e.	c #151515",
"f.	c #2E2E2E",
"g.	c #464646",
"h.	c #686868",
"i.	c #6D6D6D",
"j.	c #6B6B6B",
"k.	c #666666",
"l.	c #656565",
"m.	c #636363",
"n.	c #626262",
"o.	c #555555",
"p.	c #363636",
"q.	c #3E3E3E",
"r.	c #494949",
"s.	c #5A5A5A",
"t.	c #585858",
"u.	c #515151",
"v.	c #505050",
"w.	c #373737",
"    . . . . . . . . . . .     ",
"  + @ # $ # % & * = - ; > ,   ",
"  ' ) ! ~ { ] ^ / ( _ = % :   ",
"  ' < [ } | | 1 2 2 3 4 * 5   ",
"  ' 6 7 8 9 0 a b c d e f 5   ",
"  ' g h i j k l m n o e p 5   ",
"  q r s t u v w x y z e A 5   ",
"  B C s D E F G H I J K L 5   ",
"  B M N O P Q R S T z U V 5   ",
"  W X N Y Z Q Q Q `  .U ..5   ",
"  +.@.#.$.S S S S S %.&.*.5   ",
"  =.-.;.>.,.,.,.,.,.'.).!.5   ",
"  ~.{.].^./././././.(._.:.5   ",
"  <.[.}.|.1.2.3.4.5.6.{ 7.5   ",
"  8.9.@ # & - 0.a.b.c.d.> e.  ",
"  f.g.h.i.j.k.l.m.n.|.o.p.p.  ",
"    q.r.3.s.s.t.5.u.v.g.w.    ",
"                              "};
