/* XPM */
static char * key_xpm[] = {
"11 12 3 1",
"o      c #040204",
".      c #fcfe04",
"       c None",
"           ",
"           ",
"           ",
"           ",
"           ",
"       ooo ",
"      o...o",
" ooooo....o",
"o.......o.o",
" o.o.o....o",
"  o o o...o",
"       ooo "};
