/* XPM */
static char * ldap_xpm[] = {
"18 18 63 1",
" 	c None",
".	c #000000",
"+	c #BDBDBD",
"@	c #FFFFFF",
"#	c #A3A3A3",
"$	c #F8F8F8",
"%	c #C9B49B",
"&	c #8E7151",
"*	c #876E51",
"=	c #BAB1A5",
"-	c #FCFCFC",
";	c #FBFBFB",
">	c #EAE8E3",
",	c #F3F3F3",
"'	c #A88D6E",
")	c #DFD0BF",
"!	c #5E432B",
"~	c #7E6C5B",
"{	c #313131",
"]	c #575757",
"^	c #555555",
"/	c #EEDFCC",
"(	c #F4EEE6",
"_	c #765E45",
":	c #736251",
"<	c #7590AE",
"[	c #C1665A",
"}	c #445B71",
"|	c #D7D6D3",
"1	c #ADADAD",
"2	c #9B9B9B",
"3	c #4C6A85",
"4	c #9DB8D2",
"5	c #486481",
"6	c #314E6C",
"7	c #667A8D",
"8	c #5E7B96",
"9	c #3B556D",
"0	c #344A60",
"a	c #999999",
"b	c #EDEDED",
"c	c #C7C7C7",
"d	c #5D5D5D",
"e	c #787878",
"f	c #E0DDD6",
"g	c #CECECE",
"h	c #1A1A1A",
"i	c #918E85",
"j	c #828282",
"k	c #383838",
"l	c #D6D6D6",
"m	c #858585",
"n	c #414141",
"o	c #888888",
"p	c #8E8E8E",
"q	c #161616",
"r	c #191919",
"s	c #202020",
"t	c #C9C9C9",
"u	c #A9A9A9",
"v	c #070707",
"w	c #151515",
"x	c #242424",
"                  ",
"  ..............  ",
" .+@@@@@@@@@@@@#. ",
" .@$%&*=@-@;@@@>. ",
" .@,')!~@{]-^-@>. ",
" .@,/(_:@@@@@@@>. ",
" .@;<[}|@1@21@@>. ",
" .@34567@@@@@@@>. ",
" .@88390@a2bc@@>. ",
" .@@@@@@--@@@@@>. ",
" .@@d@d@e$2@c@@f. ",
" .#>>>>>gh>>>>fi. ",
"  ......jh......  ",
"        hh        ",
"  jjjjjklmnopjjjj ",
" qrrrrstupjvshqqw ",
"       xwwx       ",
"                  "};
