/* XPM */
static char * linewrap_xpm[] = {
"25 25 49 1",
" 	c None",
".	c #6B6B6B",
"+	c #000000",
"@	c #656565",
"#	c #E2E2E2",
"$	c #F2F2F2",
"%	c #F3F3F3",
"&	c #F4F4F4",
"*	c #F5F5F5",
"=	c #F6F6F6",
"-	c #F7F7F7",
";	c #DBDBDB",
">	c #5C5C5C",
",	c #F0F0F0",
"'	c #E0E0E0",
")	c #E1E1E1",
"!	c #E3E3E3",
"~	c #E4E4E4",
"{	c #E5E5E5",
"]	c #E6E6E6",
"^	c #E7E7E7",
"/	c #E8E8E8",
"(	c #E9E9E9",
"_	c #EAEAEA",
":	c #EBEBEB",
"<	c #ECECEC",
"[	c #EDEDED",
"}	c #EEEEEE",
"|	c #EFEFEF",
"1	c #D6D6D6",
"2	c #F1F1F1",
"3	c #C7C7C7",
"4	c #C2C2C2",
"5	c #F8F8F8",
"6	c #F9F9F9",
"7	c #FAFAFA",
"8	c #FBFBFB",
"9	c #FCFCFC",
"0	c #FDFDFD",
"a	c #FEFEFE",
"b	c #FFFFFF",
"c	c #C9C9C9",
"d	c #BDBDBD",
"e	c #2B2B2B",
"f	c #C5C5C5",
"g	c #A6A6A6",
"h	c #D2D2D2",
"i	c #C3C3C3",
"j	c #C6C6C6",
"                         ",
"  .++++++++++++++++++@   ",
" .#$$$$%%%&&&***==--&;>  ",
" +,'')#!~{]^//(_:<[}|[+1 ",
" +$)++++++++++_:<[}|,2+3 ",
" +$#!!~{]^/(_:<<[}|,2$+4 ",
" +%!++++++++++++++,2$%+4 ",
" +%~{]^^/(_:<[}||,2$%&+4 ",
" +%{+++++++<[}|,22$%&*+4 ",
" +&]^/(__:<[}|,2$%%&*=+4 ",
" +&^+++++++++++$%&**=-+4 ",
" +*/(_:<[}}|,2$%&*=--5+4 ",
" +*(+++++++++++++=-556+4 ",
" +*_:<[}|,2$$%&*=-5677+4 ",
" +=:+++++++%&&*=-56789+4 ",
" +-[[}|,2$%&**=-567890+4 ",
" +-}+++++%&*=--567890a+4 ",
" +5,2$$%&*=-5678890abb+4 ",
" +52+++++++++++900abbb+4 ",
" +$$%&*==-567890abbbb<+4 ",
" @c[5*=-5567890abbbb}def ",
"  >++++++++++++++++++egh ",
"   13i444444444444444jh  ",
"                         ",
"                         "};
