/* XPM */
static char * linewrapcurrent_xpm[] = {
"25 25 48 1",
" 	c None",
".	c #6B6B6B",
"+	c #000000",
"@	c #656565",
"#	c #E2E2E2",
"$	c #F2F2F2",
"%	c #F3F3F3",
"&	c #F4F4F4",
"*	c #F5F5F5",
"=	c #F6F6F6",
"-	c #F7F7F7",
";	c #DBDBDB",
">	c #5C5C5C",
",	c #F0F0F0",
"'	c #E0E0E0",
")	c #E1E1E1",
"!	c #E3E3E3",
"~	c #E4E4E4",
"{	c #E5E5E5",
"]	c #E6E6E6",
"^	c #E7E7E7",
"/	c #E8E8E8",
"(	c #E9E9E9",
"_	c #EAEAEA",
":	c #EBEBEB",
"<	c #ECECEC",
"[	c #EDEDED",
"}	c #EEEEEE",
"|	c #EFEFEF",
"1	c #F1F1F1",
"2	c #C7C7C7",
"3	c #C2C2C2",
"4	c #F8F8F8",
"5	c #F9F9F9",
"6	c #FAFAFA",
"7	c #FBFBFB",
"8	c #FCFCFC",
"9	c #FDFDFD",
"0	c #FEFEFE",
"a	c #FFFFFF",
"b	c #C9C9C9",
"c	c #BDBDBD",
"d	c #2B2B2B",
"e	c #C5C5C5",
"f	c #A6A6A6",
"g	c #D2D2D2",
"h	c #C3C3C3",
"i	c #C6C6C6",
"                         ",
"  .++++++++++++++++++@   ",
" .#$$$$%%%&&&***==--&;>  ",
" +,'')#!~{]^//(_:<[}|[+  ",
" +$))#!~{]^/(__:<[}|,1+2 ",
" +$#!!~{]^/(_:<<[}|,1$+3 ",
" +%!~{{]^/(_:<[[}|,1$%+3 ",
" +%~{]^^/(_:<[}||,1$%&+3 ",
" +%{]^/((_:<[}|,11$%&*+3 ",
" +&]^++++++++++++**&*=+3 ",
" +&^/(_:<<[}|,1$%&**=-+3 ",
" +*/(+++++++++******-4+3 ",
" +*(_:<[}|,,1$%&*=-445+3 ",
" +*_:++++++++++++++566+3 ",
" +=:<[}|,1$%&&*=-45678+3 ",
" +-[[}|,1$%&**=-456789+3 ",
" +-}||,1$%&*=--4567890+3 ",
" +4,1$$%&*=-45677890aa+3 ",
" +41$%&&*=-45678990aaa+3 ",
" +$$%&*==-4567890aaaa<+3 ",
" @b[4*=-44567890aaaa}cde ",
"  >++++++++++++++++++dfg ",
"    2h333333333333333ig  ",
"                         ",
"                         "};
