/* XPM */
static char * locked_xpm[] = {
"9 10 35 1",
" 	c None",
".	c #000000",
"+	c #F3EFE0",
"@	c #F4E5B3",
"#	c #CDB86D",
"$	c #F4F0E4",
"%	c #F2E1A5",
"&	c #EED680",
"*	c #F9F9F9",
"=	c #E5EAF1",
"-	c #DCE3EB",
";	c #DAE1E8",
">	c #D7DEE6",
",	c #D1D9E1",
"'	c #8F99A2",
")	c #E3EAF1",
"!	c #B7C8DA",
"~	c #8CA7C3",
"{	c #87A2BE",
"]	c #829DBA",
"^	c #7D98B6",
"/	c #465766",
"(	c #E7EDF3",
"_	c #B6C7D9",
":	c #8AA5C1",
"<	c #85A0BC",
"[	c #809BB8",
"}	c #7B96B4",
"|	c #445462",
"1	c #ECF1F5",
"2	c #AEC0D4",
"3	c #88A3BF",
"4	c #839EBB",
"5	c #7E99B6",
"6	c #7994B2",
"   ...   ",
"  .+@#.  ",
" .$.. #. ",
" .%. .&. ",
"..#...#..",
".*=-;>,'.",
".)!~{]^/.",
".(_:<[}|.",
".123456|.",
"........."};
