/* XPM */
static char * mail_send_queue_xpm[] = {
"24 24 141 2",
"  	c None",
". 	c #4F3F0A",
"+ 	c #000000",
"@ 	c #F4E6B5",
"# 	c #F4E5B3",
"$ 	c #EDD684",
"% 	c #755F10",
"& 	c #EDD580",
"* 	c #EED685",
"= 	c #AF8D18",
"- 	c #EFD98C",
"; 	c #EED88B",
"> 	c #EDD582",
", 	c #EED889",
"' 	c #EFDA92",
") 	c #999999",
"! 	c #F0DB93",
"~ 	c #735D10",
"{ 	c #929292",
"] 	c #535353",
"^ 	c #FFFFFF",
"/ 	c #F0DC97",
"( 	c #F6F6F6",
"_ 	c #F5F5F5",
": 	c #F4F4F4",
"< 	c #E3E3E3",
"[ 	c #EEEEEE",
"} 	c #4F4F4F",
"| 	c #EDD37C",
"1 	c #EDEDED",
"2 	c #AEAEAE",
"3 	c #E4E4E4",
"4 	c #434343",
"5 	c #FDFDFD",
"6 	c #F3F3F3",
"7 	c #E4BF3D",
"8 	c #CBA41C",
"9 	c #D1A81C",
"0 	c #907413",
"a 	c #7C6411",
"b 	c #ACACAC",
"c 	c #C8C8C8",
"d 	c #B5B5B5",
"e 	c #131313",
"f 	c #151515",
"g 	c #A0A0A0",
"h 	c #D4D4D4",
"i 	c #494949",
"j 	c #CCCCCC",
"k 	c #ECEBEC",
"l 	c #CB9934",
"m 	c #EBB13D",
"n 	c #A77E2A",
"o 	c #323232",
"p 	c #606060",
"q 	c #ECECEC",
"r 	c #959595",
"s 	c #666666",
"t 	c #888888",
"u 	c #F2F2F2",
"v 	c #F2F3F2",
"w 	c #3D2E0F",
"x 	c #EEC063",
"y 	c #F0CC81",
"z 	c #DDB96F",
"A 	c #747474",
"B 	c #555555",
"C 	c #4D4D4D",
"D 	c #818181",
"E 	c #C6C6C6",
"F 	c #4A494A",
"G 	c #F5F5F4",
"H 	c #F7F7F7",
"I 	c #2A1F0B",
"J 	c #F4DDAC",
"K 	c #C8AB70",
"L 	c #3D3D3D",
"M 	c #A1A1A1",
"N 	c #6A6A6A",
"O 	c #CECECD",
"P 	c #F9F9F9",
"Q 	c #FBFBFB",
"R 	c #FAF9F9",
"S 	c #30240C",
"T 	c #BB8D30",
"U 	c #191919",
"V 	c #737373",
"W 	c #161616",
"X 	c #F0F0EF",
"Y 	c #F7F6F7",
"Z 	c #1D1401",
"` 	c #EFC673",
" .	c #0D0D0D",
"..	c #7C7C7C",
"+.	c #656565",
"@.	c #171001",
"#.	c #664D1A",
"$.	c #877248",
"%.	c #EEEDED",
"&.	c #9E9E9E",
"*.	c #EDEEED",
"=.	c #ECEDEC",
"-.	c #B2B1B2",
";.	c #C9C9C9",
">.	c #F1F1F0",
",.	c #F2F2F3",
"'.	c #F0F0F0",
").	c #C2C2C2",
"!.	c #454545",
"~.	c #EEEEED",
"{.	c #CECECE",
"].	c #989898",
"^.	c #BCBCBC",
"/.	c #636363",
"(.	c #484848",
"_.	c #D3D3D3",
":.	c #EEEFEF",
"<.	c #EFEFEF",
"[.	c #EFEEEE",
"}.	c #EBEAEB",
"|.	c #EDEDEC",
"1.	c #E7E7E7",
"2.	c #B4B4B4",
"3.	c #444444",
"4.	c #787878",
"5.	c #676767",
"6.	c #838383",
"7.	c #D1D1D2",
"8.	c #EBEBEB",
"9.	c #F1F1F1",
"0.	c #6D6D6D",
"a.	c #EFEFF0",
"b.	c #E7E8E7",
"c.	c #B5B4B4",
"d.	c #646464",
"e.	c #464646",
"f.	c #B5B6B6",
"g.	c #B8B7B7",
"h.	c #B3B4B4",
"i.	c #575757",
"j.	c #525252",
"                                                ",
"                      .                         ",
"                    + @ +                       ",
"                  + # $ % +                     ",
"                + # & * = % +                   ",
"              + # - ; > = = % +                 ",
"            + # , ' , > = = = % +               ",
"    ) + + + + + + ! $ & = ~ + + + + + + {       ",
"    + ] ^ ^ ^ ^ + / $ $ = ~ + ( _ : < ] +       ",
"    + [ } ^ _ : + , | $ = ~ + [ 1 < } 2 +       ",
"    + ^ 3 4 5 6 + 7 8 9 0 a + 1 < } b c +       ",
"    + d } e + f + + + + + + + < 4 g h c +       ",
"    + i j k l m n o p h 1 q < } r h 3 c +       ",
"  s t u ( v w x y z A B q < C D E 3 3 c +       ",
"d F G ( H ( I m m J K L M } N E E _ 3 c +       ",
"] O ( P Q R S m m m y T U r E V E _ 3 c +       ",
"W X Y Q ^ Q Z m m m ` T  .E 3 3 ..3 3 c +       ",
"+ u +.R Q P @.#.m m $.T + _ _ _ 3 ..3 c +       ",
"W %.: ( H ( b o &.*.=.-.e 3 3 3 3 3 ..c +       ",
"] ;.>.,.6 ,.'.).!.~.{.].L ^.^.^.^.^.^./.+       ",
"d (._.:.<.[.1 }.|.1.2.3.+ + + + + + + + 4.      ",
"  5.6.7.8.9.0.a.b.c.d.B                         ",
"    s e.2 f.g.h.].i.p                           ",
"      < j.W + W j.2.                            "};
