/* XPM */
static char * mail_attach_xpm[] = {
"24 24 152 2",
"  	c None",
". 	c #000000",
"+ 	c #090909",
"@ 	c #E7D07C",
"# 	c #EED680",
"$ 	c #857746",
"% 	c #F5F5F5",
"& 	c #4F482A",
"* 	c #635A35",
"= 	c #9C8D53",
"- 	c #CFCFCF",
"; 	c #E4E4E4",
"> 	c #F4F4F4",
", 	c #FCFCFC",
"' 	c #E0E0E0",
") 	c #C1C1C1",
"! 	c #F1F1F1",
"~ 	c #D1D1D1",
"{ 	c #F8F8F8",
"] 	c #FBFBFB",
"^ 	c #C3C3C3",
"/ 	c #A8A8A8",
"( 	c #F0F0F0",
"_ 	c #A5A5A5",
": 	c #CBCBCA",
"< 	c #F7F7F7",
"[ 	c #ADADAD",
"} 	c #767676",
"| 	c #5D5D5D",
"1 	c #404040",
"2 	c #929292",
"3 	c #D6D6D6",
"4 	c #9E9E9E",
"5 	c #D2D2D0",
"6 	c #E2E2E2",
"7 	c #858585",
"8 	c #4B4B49",
"9 	c #818181",
"0 	c #646464",
"a 	c #575757",
"b 	c #3E3E3E",
"c 	c #EFEFEF",
"d 	c #D5D5D5",
"e 	c #A9A9A9",
"f 	c #717171",
"g 	c #464644",
"h 	c #151515",
"i 	c #DFDFDF",
"j 	c #EBEBEB",
"k 	c #9F8F54",
"l 	c #B3B3B3",
"m 	c #CBCBCB",
"n 	c #E9E9E7",
"o 	c #E0E0DE",
"p 	c #BFBFBF",
"q 	c #8D7F4A",
"r 	c #A79758",
"s 	c #B2B2B2",
"t 	c #DEDEDE",
"u 	c #C0C0C0",
"v 	c #D6D6D4",
"w 	c #E5E5E4",
"x 	c #D7D7D5",
"y 	c #BABABA",
"z 	c #898989",
"A 	c #868686",
"B 	c #837746",
"C 	c #CCCCCC",
"D 	c #DDDDDD",
"E 	c #E2E2E0",
"F 	c #D3D3D1",
"G 	c #645A35",
"H 	c #91844E",
"I 	c #CACACA",
"J 	c #BDBDBD",
"K 	c #DEDEDB",
"L 	c #DEDEDC",
"M 	c #D9D9D7",
"N 	c #BDBDBC",
"O 	c #CECECE",
"P 	c #847847",
"Q 	c #9D8E54",
"R 	c #A6A6A6",
"S 	c #DBDBD9",
"T 	c #D5D5D3",
"U 	c #BCBCBC",
"V 	c #D4D4D4",
"W 	c #B4B4B4",
"X 	c #C6C6C6",
"Y 	c #C8C8C7",
"Z 	c #D8D8D8",
"` 	c #B0B0B0",
" .	c #AEAEAE",
"..	c #B8B8B8",
"+.	c #C4C4C4",
"@.	c #D2D2D2",
"#.	c #DCDCDC",
"$.	c #D5D5D1",
"%.	c #D7D7D3",
"&.	c #D0D0CE",
"*.	c #BABAB8",
"=.	c #FEFEFE",
"-.	c #DADAD8",
";.	c #C9C9C9",
">.	c #C8C8C8",
",.	c #CDCDCD",
"'.	c #E3E3E3",
").	c #D1D1D0",
"!.	c #D3D3D0",
"~.	c #FFFFFF",
"{.	c #DBDBDA",
"].	c #F6F6F6",
"^.	c #DADADA",
"/.	c #BBBBBB",
"(.	c #D0D0CC",
"_.	c #CACAC8",
":.	c #B6B6B6",
"<.	c #B9B9B9",
"[.	c #A0A0A0",
"}.	c #191918",
"|.	c #B4B4B2",
"1.	c #D1D1CE",
"2.	c #C5C5C1",
"3.	c #9E9E9C",
"4.	c #868684",
"5.	c #CECECA",
"6.	c #CECEC9",
"7.	c #BFBFB9",
"8.	c #BCBCB9",
"9.	c #BCBCB8",
"0.	c #B9B9B4",
"a.	c #B8B8B2",
"b.	c #B4B4AF",
"c.	c #B2B2AF",
"d.	c #B2B2AD",
"e.	c #CCCCC8",
"f.	c #B8B8B6",
"g.	c #CECECC",
"h.	c #CCCCCA",
"i.	c #CACAC7",
"j.	c #C1C1BD",
"k.	c #C8C8C5",
"l.	c #C7C7C3",
"m.	c #B1B1AF",
"n.	c #B4B4B3",
"o.	c #B4B4B1",
"p.	c #B3B3B1",
"q.	c #B3B3AF",
"r.	c #B1B1AD",
"s.	c #AFAFAD",
"t.	c #B6B6B4",
"u.	c #929290",
"        . . . . . . .                           ",
"  . . + @ # # # # # $ . . . . . . . .           ",
"  . % . . & * * * = # . - ; > , . ' ) .         ",
"  . ! . # # # # # * # . . . ~ { ] ^ ] / .       ",
"  . ( . # * * * # * # . / _ . : < [ } | 1 .     ",
"  . ( . # * # * # * # . 2 3 4 . 5 6 7 8 . .     ",
"  . ( . # * # * # * # . 9 0 a b . ( c d [ .     ",
"  . ( . # * # * # * # . e f g h . i j 6 ) .     ",
"  . ( . # * # k # * # . l m i ) . n n o p .     ",
"  . ( . # * q # r * # . s m t u . v w x y .     ",
"  . ( . # * z * A B # . l C D p . o E F y .     ",
"  . ! . G # * * * # H . l I D J . K L M N .     ",
"  . > O . P # # # Q . R y - D J . S S T U .     ",
"  . { V . . . . . . R W X d ' J . x M Y W .     ",
"  . , M . Z y `  .` ..+.@.#.6 J . $.%.&.*..     ",
"  . =.-.. j O ;.X >.,.V #.' '.J . ).!.&.*..     ",
"  . ~.{.. ].#.Z Z Z ^.D ' 6 './.. (.)._.:..     ",
"  . ~.S . u y y y <.<.<.y /./.[.}.|.1.2.W .     ",
"  . ~.d 3.. . . . . . . . . . . 4.5.(.5....     ",
"  . ~.F 6.7.8.9.9.0.a.a.b.b.b.c.c.d.5.e.f..     ",
"  . ~.T !.!.).&.(.g.5.5.h.e.e.e.i.i.e.j.l .     ",
"  . ~.).1.&.g.5.5.5.5.e.e.e.i.i.k.k.e.l.W .     ",
"  . ~.m.n.o.o.o.p.p.q.q.q.m.r.r.s.s.q.t.u..     ",
"  . . . . . . . . . . . . . . . . . . . . .     "};
