/* XPM */
static char * mark_xpm[] = {
"10 10 3 1",
" 	c None",
".	c #FFFFFF",
"+	c #000000",
"        ..",
"       .+.",
"      .++.",
"..   .+++.",
".+. .+++. ",
".++.+++.  ",
".+++++.   ",
" .+++.    ",
"  .+.     ",
"   .      "};
