/* XPM */
static char *mime_text_html_xpm[] = {
/* columns rows colors chars-per-pixel */
"16 16 65 1",
"  c #2A599C",
". c #030508",
"X c #3369AB",
"o c #3D71A9",
"O c #050A0F",
"+ c #010203",
"@ c #445B71",
"# c #75A6CF",
"$ c #3E5569",
"% c #87B9DE",
"& c #D5E4F0",
"* c #6FB2E1",
"= c #74A7CA",
"- c #8DC3E7",
"; c #82AFCD",
": c #B0DBF3",
"> c #C4E4F7",
", c #C6E3F4",
"< c #D0EAF8",
"1 c #D6EEF9",
"2 c #070808",
"3 c #4B4B49",
"4 c red",
"5 c #FEFEFE",
"6 c #FDFDFD",
"7 c #FBFBFB",
"8 c #F1F1F1",
"9 c #EEEEEE",
"0 c gray93",
"q c gray92",
"w c gray91",
"e c #E7E7E7",
"r c gray90",
"t c gray88",
"y c LightGray",
"u c #CACACA",
"i c #C8C8C8",
"p c gray78",
"a c #C5C5C5",
"s c #C3C3C3",
"d c #C1C1C1",
"f c gray",
"g c gray74",
"h c #BBBBBB",
"j c gray71",
"k c gray70",
"l c gray68",
"z c gray66",
"x c #A0A0A0",
"c c gray52",
"v c #818181",
"b c #767676",
"n c #5D5D5D",
"m c gray25",
"M c gray17",
"N c #161616",
"B c black",
"V c black",
"C c black",
"Z c black",
"A c black",
"S c black",
"D c black",
"F c black",
"G c None",
/* pixels */
"GGGBBBBBBBBBGGGG",
"GGB5555556tdBGGG",
"GGB5888888s7zBGG",
"GGB5oooooolbnmBG",
"GGB5o<>:-*=c3NBG",
"GGB5o%1,#X;o9aBG",
"GGB5o+2&@ $ovaBG",
"GGB6o.OoooooqsBG",
"GGB60fjfufjfwdBG",
"GGB6q8888888wdBG",
"GGB6qkitkgikwfBG",
"GGB6wt99999twfBG",
"GGB6eppggkyk0gBG",
"GGB6ewrwww000hBG",
"GGBsggggghhhhxMG",
"GGGBBBBBBBBBBBGG"
};
