/* XPM */
static char * mime_image_xpm[] = {
"16 16 94 2",
"  	c None",
". 	c #000000",
"+ 	c #FEFEFE",
"@ 	c #FDFDFD",
"# 	c #E0E0E0",
"$ 	c #C1C1C1",
"% 	c #F1F1F1",
"& 	c #C3C3C3",
"* 	c #FBFBFB",
"= 	c #A8A8A8",
"- 	c #404040",
"; 	c #7396B9",
"> 	c #8FAABD",
", 	c #DCE4C4",
"' 	c #7B9CB9",
") 	c #161616",
"! 	c #7E9EBE",
"~ 	c #EBEEC7",
"{ 	c #FEFEDF",
"] 	c #DAE2D0",
"^ 	c #C5C5C5",
"/ 	c #88A6C3",
"( 	c #83A0BC",
"_ 	c #435261",
": 	c #99B1C0",
"< 	c #EAEFC8",
"[ 	c #A3BACB",
"} 	c #C4C4C4",
"| 	c #93AEC9",
"1 	c #2F2414",
"2 	c #5E8858",
"3 	c #1F1C12",
"4 	c #8FA9C4",
"5 	c #90ADC9",
"6 	c #8DABC9",
"7 	c #6687A6",
"8 	c #1B2126",
"9 	c #72869C",
"0 	c #6D757C",
"a 	c #587650",
"b 	c #668C60",
"c 	c #5E8658",
"d 	c #2D2720",
"e 	c #9EB6CE",
"f 	c #54779A",
"g 	c #212110",
"h 	c #557549",
"i 	c #0B0D0E",
"j 	c #8195A8",
"k 	c #4E5048",
"l 	c #658D5D",
"m 	c #658E5F",
"n 	c #669663",
"o 	c #648756",
"p 	c #222713",
"q 	c #413309",
"r 	c #607346",
"s 	c #64905E",
"t 	c #5F8454",
"u 	c #090807",
"v 	c #C0C0C0",
"w 	c #608356",
"x 	c #66905F",
"y 	c #638E5D",
"z 	c #649562",
"A 	c #678E5C",
"B 	c #668C59",
"C 	c #649260",
"D 	c #678C5C",
"E 	c #688C5C",
"F 	c #66915E",
"G 	c #4F7547",
"H 	c #BFBFBF",
"I 	c #638B56",
"J 	c #639461",
"K 	c #62915D",
"L 	c #668B58",
"M 	c #668552",
"N 	c #648B56",
"O 	c #678A56",
"P 	c #6A8653",
"Q 	c #697E4F",
"R 	c #668252",
"S 	c #5F8653",
"T 	c #BEBEBE",
"U 	c #BDBDBD",
"V 	c #E6E6E6",
"W 	c #E5E5E5",
"X 	c #E4E4E4",
"Y 	c #E3E3E3",
"Z 	c #BBBBBB",
"` 	c #C2C2C2",
" .	c #BCBCBC",
"..	c #A0A0A0",
"      . . . . . . . . .         ",
"    . + + + + + + @ # $ .       ",
"    . + % % % % % % & * = .     ",
". . . . . . . . . . . . . - .   ",
". ; ; ; ; ; > , ' ; ; ; . ) .   ",
". ! ! ! ! ! ~ { ] ! ! ! . ^ .   ",
". / ( _ ( / : < [ / / / . } .   ",
". | 1 2 3 4 5 6 7 8 9 | . & .   ",
". 0 a b c d e f g h i j . $ .   ",
". k l m n o p q r s t u . v .   ",
". w x y z A B C D E F G . H .   ",
". I J K L M N O P Q R S . T .   ",
". . . . . . . . . . . . . U .   ",
"    . @ V W W W X X Y Y Y Z .   ",
"    . ` U U U  . .Z Z Z Z ...   ",
"      . . . . . . . . . . .     "};
