/* XPM */
static char *mime_message_xpm[] = {
/* columns rows colors chars-per-pixel */
"16 16 65 1",
"  c #4B4B49",
". c red",
"X c #FEFEFE",
"o c #FDFDFD",
"O c #FBFBFB",
"+ c #F1F1F1",
"@ c #EEEEEE",
"# c #ECECEC",
"$ c gray92",
"% c gray91",
"& c #E6E6E6",
"* c gray90",
"= c gray89",
"- c gray88",
"; c #DDDDDD",
": c gray85",
"> c gray83",
", c LightGray",
"< c #D0D0D0",
"1 c #CECECE",
"2 c #CACACA",
"3 c #C8C8C8",
"4 c #C5C5C5",
"5 c #C3C3C3",
"6 c #C1C1C1",
"7 c gray75",
"8 c gray74",
"9 c #BBBBBB",
"0 c gray72",
"q c #B6B6B6",
"w c gray71",
"e c gray68",
"r c gray67",
"t c gray66",
"y c #A0A0A0",
"u c #989898",
"i c #959595",
"p c #929292",
"a c #909090",
"s c gray56",
"d c #888888",
"f c gray52",
"g c gray50",
"h c gray48",
"j c #797979",
"k c #767676",
"l c #747474",
"z c gray45",
"x c #717171",
"c c #6F6F6F",
"v c #6C6C6C",
"b c gray42",
"n c #5D5D5D",
"m c gray25",
"M c #161616",
"N c black",
"B c black",
"V c black",
"C c black",
"Z c black",
"A c black",
"S c black",
"D c black",
"F c black",
"G c None",
/* pixels */
"GGNNNNNNNNNGGGGG",
"GNXXXXXXo-6NGGGG",
"GNX++++++5OtNGGG",
"GNX++++++eknmNGG",
"GNX+;ukls5f MNGG",
"GNX;jq*$3g2@4NGG",
"GNXi04hjc1d#4NGG",
"GNoz*j,%c$x$5NGG",
"GNoz*k>-v:f$6NGG",
"GNop0wxjxbr%6NGG",
"GNo,kq-%%%%%7NGG",
"GNo%<axvk&&*7NGG",
"GNo%%&&&****8NGG",
"GNo&*****===9NGG",
"GN5888889999yNGG",
"GGNNNNNNNNNNNGGG"
};
