/* XPM */
static char * mime_pgpsig_xpm[] = {
"16 16 41 1",
" 	c None",
".	c #000000",
"+	c #FEFEFE",
"@	c #FDFDFD",
"#	c #E0E0E0",
"$	c #C1C1C1",
"%	c #F1F1F1",
"&	c #C3C3C3",
"*	c #FBFBFB",
"=	c #A8A8A8",
"-	c #ADADAD",
";	c #767676",
">	c #5D5D5D",
",	c #404040",
"'	c #F0F0F0",
")	c #E2E2E2",
"!	c #858585",
"~	c #4B4B49",
"{	c #161616",
"]	c #EFEFEF",
"^	c #040204",
"/	c #EEEEEE",
"(	c #C5C5C5",
"_	c #FCFE04",
":	c #C4C4C4",
"<	c #C0C0C0",
"[	c #EAEAEA",
"}	c #E9E9E9",
"|	c #E8E8E8",
"1	c #BFBFBF",
"2	c #E6E6E6",
"3	c #E5E5E5",
"4	c #BEBEBE",
"5	c #E7E7E7",
"6	c #E4E4E4",
"7	c #BDBDBD",
"8	c #E3E3E3",
"9	c #BBBBBB",
"0	c #C2C2C2",
"a	c #BCBCBC",
"b	c #A0A0A0",
"   .........    ",
"  .++++++@#$.   ",
"  .+%%%%%%&*=.  ",
"  .+%%%%%%-;>,. ",
"  .+%%%%%')!~{. ",
"  .+%]]]]]^^/(. ",
"  .+]]]//^__^:. ",
"  .@^^^^^___^&. ",
"  .%^_____^_^$. ",
"  .@^_^_^___^<. ",
"  .@[^}^|^__^1. ",
"  .@|22222^^34. ",
"  .@5522233667. ",
"  .@2333668889. ",
"  .0777aa9999b. ",
"   ...........  "};
