/* XPM */
static char * mime_audio_xpm[] = {
"16 16 69 1",
" 	c None",
".	c #000000",
"+	c #FEFEFE",
"@	c #FDFDFD",
"#	c #E0E0E0",
"$	c #C1C1C1",
"%	c #F1F1F1",
"&	c #EBEBEB",
"*	c #C3C3C3",
"=	c #FBFBFB",
"-	c #A8A8A8",
";	c #AEAB9F",
">	c #5E5E5E",
",	c #ADADAD",
"'	c #767676",
")	c #5D5D5D",
"!	c #404040",
"~	c #DCD9D3",
"{	c #B9B9B9",
"]	c #F0F0F0",
"^	c #E2E2E2",
"/	c #858585",
"(	c #4B4B49",
"_	c #161616",
":	c #9B988A",
"<	c #807E72",
"[	c #E2E1DC",
"}	c #F2F2F0",
"|	c #EFEFEF",
"1	c #EEEEEE",
"2	c #C5C5C5",
"3	c #E3E2DD",
"4	c #B6B6B1",
"5	c #EEEDEA",
"6	c #EAEAE6",
"7	c #C5C1B7",
"8	c #B8B8B8",
"9	c #ECECEC",
"0	c #C4C4C4",
"a	c #B0AC9C",
"b	c #928E81",
"c	c #CDCAC1",
"d	c #B8B4A6",
"e	c #BFBBAF",
"f	c #090909",
"g	c #9E9A8C",
"h	c #B1B1B1",
"i	c #EAEAEA",
"j	c #79766C",
"k	c #646259",
"l	c #080808",
"m	c #E8E8E8",
"n	c #C0C0C0",
"o	c #8D8A7D",
"p	c #B0B0B0",
"q	c #E7E7E7",
"r	c #BFBFBF",
"s	c #7E7B70",
"t	c #656565",
"u	c #E6E6E6",
"v	c #E5E5E5",
"w	c #BEBEBE",
"x	c #E4E4E4",
"y	c #BDBDBD",
"z	c #E3E3E3",
"A	c #BBBBBB",
"B	c #C2C2C2",
"C	c #BCBCBC",
"D	c #A0A0A0",
"   .........    ",
"  .++++.@@#$.   ",
"  .+%%..&%*=-.  ",
"  .+%.;.>%,')!. ",
"...+.;~.{]^/(_. ",
".:<.;[}._||112. ",
".34.567.811190. ",
".ab.cde.f111&*. ",
".:<.gaa.h&iii$. ",
".jk.ggg.lmmmmn. ",
"...@.og.pmmqqr. ",
"  .@m.s.tuuuvw. ",
"  .@qq..uvvxxy. ",
"  .@uvv.xxzzzA. ",
"  .ByyyCCAAAAD. ",
"   ...........  "};
