/* XPM */
static char * mime_ps_xpm[] = {
"16 16 75 1",
" 	c None",
".	c #000000",
"+	c #FEFEFE",
"@	c #FDFDFD",
"#	c #E0E0E0",
"$	c #C1C1C1",
"%	c #F1F1F1",
"&	c #C3C3C3",
"*	c #FBFBFB",
"=	c #A8A8A8",
"-	c #ADADAD",
";	c #767676",
">	c #5D5D5D",
",	c #404040",
"'	c #F0F0F0",
")	c #E9849A",
"!	c #F0E6E8",
"~	c #E2E2E2",
"{	c #858585",
"]	c #4B4B49",
"^	c #161616",
"/	c #EA96A9",
"(	c #E55273",
"_	c #E54F71",
":	c #EDD6DB",
"<	c #E8849A",
"[	c #EFEFEF",
"}	c #E45272",
"|	c #E99DAE",
"1	c #C5C5C5",
"2	c #E11240",
"3	c #E00A3A",
"4	c #EBBDC7",
"5	c #EEEEEE",
"6	c #EDDEE1",
"7	c #E00D3C",
"8	c #E00032",
"9	c #E1204B",
"0	c #C4C4C4",
"a	c #E99AAB",
"b	c #E7849A",
"c	c #E11845",
"d	c #E1234D",
"e	c #E67C93",
"f	c #E9BEC8",
"g	c #ECECEC",
"h	c #EAE7E8",
"i	c #E11B47",
"j	c #E00133",
"k	c #E597A8",
"l	c #E599AA",
"m	c #E01240",
"n	c #C0C0C0",
"o	c #E00A39",
"p	c #E34F70",
"q	c #E13057",
"r	c #E01B47",
"s	c #BFBFBF",
"t	c #E25474",
"u	c #E01945",
"v	c #E12E56",
"w	c #E25272",
"x	c #E01643",
"y	c #E26682",
"z	c #BEBEBE",
"A	c #E7E7E7",
"B	c #E6E6E6",
"C	c #E5E5E5",
"D	c #E4E4E4",
"E	c #BDBDBD",
"F	c #E3E3E3",
"G	c #BBBBBB",
"H	c #C2C2C2",
"I	c #BCBCBC",
"J	c #A0A0A0",
"   .........    ",
"  .++++++@#$.   ",
"  .+%%%%%%&*=.  ",
"  .+%%%%%%-;>,. ",
"  .+%%')!'~{]^. ",
"  .+/(_:<[<}|1. ",
"  .+2345<67890. ",
"  .@8a5<5b88c&. ",
"  .@defghi888$. ",
"  .@88jkl888mn. ",
"  .@o88pq888rs. ",
"  .@tuvw888xyz. ",
"  .@AABBBCCDDE. ",
"  .@BCCCDDFFFG. ",
"  .HEEEIIGGGGJ. ",
"   ...........  "};
