/* XPM */
static char * mime_text_plain_xpm[] = {
"16 16 45 1",
" 	c None",
".	c #000000",
"+	c #FEFEFE",
"@	c #FDFDFD",
"#	c #E0E0E0",
"$	c #C1C1C1",
"%	c #F1F1F1",
"&	c #C3C3C3",
"*	c #FBFBFB",
"=	c #A8A8A8",
"-	c #CCCCCC",
";	c #C9C9C9",
">	c #ADADAD",
",	c #767676",
"'	c #5D5D5D",
")	c #404040",
"!	c #F0F0F0",
"~	c #E2E2E2",
"{	c #858585",
"]	c #4B4B49",
"^	c #161616",
"/	c #CACACA",
"(	c #EFEFEF",
"_	c #EEEEEE",
":	c #C5C5C5",
"<	c #ECECEC",
"[	c #C4C4C4",
"}	c #EBEBEB",
"|	c #EDEDED",
"1	c #EAEAEA",
"2	c #E8E8E8",
"3	c #C0C0C0",
"4	c #E9E9E9",
"5	c #E7E7E7",
"6	c #BFBFBF",
"7	c #C2C2C2",
"8	c #E6E6E6",
"9	c #E5E5E5",
"0	c #BEBEBE",
"a	c #E4E4E4",
"b	c #BDBDBD",
"c	c #E3E3E3",
"d	c #BBBBBB",
"e	c #BCBCBC",
"f	c #A0A0A0",
"   .........    ",
"  .++++++@#$.   ",
"  .+%%%%%%&*=.  ",
"  .+%---%;>,'). ",
"  .+%%%%%!~{]^. ",
"  .+%////(;;_:. ",
"  .+(((_____<[. ",
"  .@_;;_;;_;}&. ",
"  .@|<<<}}111$. ",
"  .@}[[[2;;;23. ",
"  .@1144222556. ",
"  .@27878;8;90. ",
"  .@5588899aab. ",
"  .@8999aacccd. ",
"  .7bbbeeddddf. ",
"   ...........  "};
