/* XPM */
static char * news_compose_xpm[] = {
"24 24 171 2",
"  	c None",
". 	c #000000",
"+ 	c #BAA88F",
"@ 	c #836B4E",
"# 	c #C5A985",
"$ 	c #DC9E55",
"% 	c #9E6233",
"& 	c #C3A783",
"* 	c #DD9D53",
"= 	c #A76631",
"- 	c #C5AA88",
"; 	c #A86631",
"> 	c #C3A47A",
", 	c #DD9D52",
"' 	c #A66430",
") 	c #9F9F9F",
"! 	c #404040",
"~ 	c #C2A174",
"{ 	c #DC9B4E",
"] 	c #A96630",
"^ 	c #9C9C9C",
"/ 	c #4D4D4D",
"( 	c #A1A1A1",
"_ 	c #F5F5F5",
": 	c #F9F9F9",
"< 	c #F7F7F7",
"[ 	c #F8F8F8",
"} 	c #BEA686",
"| 	c #DD9D51",
"1 	c #AA682F",
"2 	c #B3B3B3",
"3 	c #4F4F4F",
"4 	c #E3E3E3",
"5 	c #AFAFAF",
"6 	c #494949",
"7 	c #DBDBDB",
"8 	c #525252",
"9 	c #838383",
"0 	c #484848",
"a 	c #6F6F6F",
"b 	c #626262",
"c 	c #8D8D8D",
"d 	c #606060",
"e 	c #B2B2B2",
"f 	c #BCAC9B",
"g 	c #A86E3F",
"h 	c #9D9D9D",
"i 	c #D3D3D3",
"j 	c #535353",
"k 	c #AEAEAE",
"l 	c #565656",
"m 	c #7C7C7C",
"n 	c #EBEBEB",
"o 	c #6E6E6E",
"p 	c #474747",
"q 	c #8A8A8A",
"r 	c #3F3F3F",
"s 	c #4E4E4E",
"t 	c #808080",
"u 	c #C0C0C0",
"v 	c #8C8C8C",
"w 	c #D6D6D6",
"x 	c #7E7E7E",
"y 	c #343434",
"z 	c #969696",
"A 	c #818181",
"B 	c #CDCDCD",
"C 	c #989898",
"D 	c #747474",
"E 	c #D0D0D0",
"F 	c #9E9E9E",
"G 	c #959595",
"H 	c #E2E2E2",
"I 	c #DFDFDF",
"J 	c #9B9B9B",
"K 	c #E0E0E0",
"L 	c #B1B1B1",
"M 	c #434343",
"N 	c #E9E9E9",
"O 	c #3C3C3C",
"P 	c #C6C6C6",
"Q 	c #EAEAEA",
"R 	c #F2F2F2",
"S 	c #ECECEC",
"T 	c #E7E7E7",
"U 	c #F4F4F4",
"V 	c #F3F3F3",
"W 	c #EFEFEF",
"X 	c #EEEEEE",
"Y 	c #F6F6F6",
"Z 	c #C9C9C9",
"` 	c #ACACAC",
" .	c #7A7A7A",
"..	c #696969",
"+.	c #6D6D6D",
"@.	c #6B6B6B",
"#.	c #656565",
"$.	c #6C6C6C",
"%.	c #757575",
"&.	c #A8A8A8",
"*.	c #EDEDED",
"=.	c #8B8B8B",
"-.	c #848484",
";.	c #898989",
">.	c #858585",
",.	c #A3A3A3",
"'.	c #DDDDDD",
").	c #5F5F5F",
"!.	c #ADADAD",
"~.	c #616161",
"{.	c #878787",
"].	c #979797",
"^.	c #A9A9A9",
"/.	c #DADADA",
"(.	c #CCCCCC",
"_.	c #CBCBCB",
":.	c #CACACA",
"<.	c #D9D9D9",
"[.	c #929292",
"}.	c #727272",
"|.	c #C1C1C1",
"1.	c #A0A0A0",
"2.	c #5A5A5A",
"3.	c #D4D4D4",
"4.	c #8F8F8F",
"5.	c #464646",
"6.	c #A4A4A4",
"7.	c #AAAAAA",
"8.	c #7B7B7B",
"9.	c #888888",
"0.	c #7D7D7D",
"a.	c #5C5C5C",
"b.	c #D1D1D1",
"c.	c #E4E4E4",
"d.	c #424242",
"e.	c #393939",
"f.	c #B6B5B6",
"g.	c #515151",
"h.	c #737373",
"i.	c #707070",
"j.	c #676767",
"k.	c #636363",
"l.	c #4A4A4A",
"m.	c #A2A2A2",
"n.	c #828182",
"o.	c #686868",
"p.	c #979798",
"q.	c #454545",
"r.	c #6A6A6A",
"s.	c #505050",
"t.	c #D5D5D5",
"u.	c #C2C2C2",
"v.	c #B5B5B5",
"w.	c #BEBEBE",
"x.	c #444444",
"y.	c #CECECE",
"z.	c #3E3E3E",
"A.	c #4C4C4C",
"B.	c #4B4B4B",
"C.	c #7C7D7C",
"D.	c #BFC0BF",
"E.	c #989899",
"F.	c #949494",
"G.	c #8E8E8E",
"H.	c #B1B1B2",
"I.	c #A6A6A6",
"J.	c #A3A3A4",
"K.	c #A1A0A0",
"L.	c #B0B0B0",
"M.	c #303030",
"N.	c #3B3B3B",
"                                                ",
"                                          . .   ",
"                                        . + @ . ",
"                                      . # $ % . ",
"                                    . & * = .   ",
"                                  . - * ; .     ",
"                                . > , ' .       ",
"      ) ! . . . . . . . . . . . ~ { ] . ^       ",
"      / ( _ : _ _ < < [ < _ . } | 1 . 2 3 4     ",
"    5 6 7 8 9 6 0 a b c d e . f g . h i j k     ",
"    l m n 8 o p q q r s t . . . . u v w x a     ",
"    y z < A B C D E F G H . . I H J G K L M N   ",
"  i O P _ Q R R R S I T < < U V W X Y Y 7 s Z   ",
"  ` 3 I 5  ...+.@.#.$.%.&.*.=.A -.;.>.,.'.).!.  ",
"  G ~.I {.].L 5 5 ^.5 ` +.T /.(.Z _.:.<.W +.[.  ",
"  }.q |.}.A c 1.h ^ z G 2.3.;.A 4.|.G G Q C +.  ",
"  5.6.7.~.8.-.-.9.-.0.;.a.3.<.3.(.:.i b.c.B d.  ",
"  e.f.#.g.h.i.o $.o j.k.l.7 }.P m.n.o.p.P Q /   ",
"  q.P l $.i.i.o.@.r.b ~.s.t.u.|.u.v.L w.:.Q x.  ",
"  q.y.h./ x.z.q.0 A.l.B.C.D.0.%.h.A A ;.5 (.0   ",
"  q.9.( E.F.z G.v c [.4.m.H.I.J.K.J.L.e L.-.r   ",
"  _.M.. . . . . . . . . . . . . . . . . . N.    ",
"                                                ",
"                                                "};
