/* XPM */
static char * notice_error_xpm[] = {
"25 24 217 2",
"  	c None",
". 	c #8D584C",
"+ 	c #9C5E50",
"@ 	c #A66052",
"# 	c #A05A4C",
"$ 	c #915145",
"% 	c #996457",
"& 	c #C66C56",
"* 	c #DB5D42",
"= 	c #DA4A2C",
"- 	c #D74021",
"; 	c #D43C1E",
"> 	c #D03C21",
", 	c #C83F27",
"' 	c #A03523",
") 	c #83453B",
"! 	c #A5857D",
"~ 	c #BC6D5A",
"{ 	c #DD5637",
"] 	c #DC4220",
"^ 	c #D93C1B",
"/ 	c #D63A1A",
"( 	c #D43719",
"_ 	c #D13518",
": 	c #CF3216",
"< 	c #CC3015",
"[ 	c #C92D15",
"} 	c #BC2A14",
"| 	c #821D0E",
"1 	c #A6867F",
"2 	c #C56B55",
"3 	c #DE4927",
"4 	c #DB3F1C",
"5 	c #D33719",
"6 	c #D13418",
"7 	c #CE3216",
"8 	c #CB3015",
"9 	c #C92D14",
"0 	c #C62A13",
"a 	c #C32812",
"b 	c #BB2410",
"c 	c #84180B",
"d 	c #BE6C58",
"e 	c #DE4826",
"f 	c #DB3E1C",
"g 	c #D83C1B",
"h 	c #D6391A",
"i 	c #D03417",
"j 	c #CB2F15",
"k 	c #C82D14",
"l 	c #C02511",
"m 	c #BE230F",
"n 	c #B51F0E",
"o 	c #974D45",
"p 	c #CBB0AA",
"q 	c #DB4C2C",
"r 	c #D5391A",
"s 	c #CD3116",
"t 	c #C82C14",
"u 	c #C52A13",
"v 	c #C32712",
"w 	c #C02510",
"x 	c #BE220F",
"y 	c #BB200E",
"z 	c #B81D0D",
"A 	c #A1170A",
"B 	c #C7614B",
"C 	c #DB3F1D",
"D 	c #D83B1B",
"E 	c #D33618",
"F 	c #CA2F15",
"G 	c #C52A12",
"H 	c #C22712",
"I 	c #BD220F",
"J 	c #BA1F0E",
"K 	c #B51A0C",
"L 	c #B0170A",
"M 	c #770E06",
"N 	c #936960",
"O 	c #D54628",
"P 	c #D83B1A",
"Q 	c #C94328",
"R 	c #CC6652",
"S 	c #CD6654",
"T 	c #CB6453",
"U 	c #C96251",
"V 	c #C76050",
"W 	c #C55E4F",
"X 	c #C35C4E",
"Y 	c #C05A4D",
"Z 	c #BF594C",
"` 	c #BC574B",
" .	c #BA544A",
"..	c #B94439",
"+.	c #B1180B",
"@.	c #AF1509",
"#.	c #8E0F06",
"$.	c #9D5F52",
"%.	c #D53E1F",
"&.	c #D53819",
"*.	c #CF6753",
"=.	c #EFEFEF",
"-.	c #F5F5F5",
";.	c #F4F4F4",
">.	c #F3F3F3",
",.	c #F1F1F1",
"'.	c #F0F0F0",
").	c #EEEEEE",
"!.	c #EDEDED",
"~.	c #ECECEC",
"{.	c #EBEBEB",
"].	c #E0B8B5",
"^.	c #B21E13",
"/.	c #AD1208",
"(.	c #980D05",
"_.	c #A15141",
":.	c #D4391A",
"<.	c #D23518",
"[.	c #CF6653",
"}.	c #F6F6F6",
"|.	c #F2F2F2",
"1.	c #E3BFBD",
"2.	c #B11F16",
"3.	c #A91007",
"4.	c #970C05",
"5.	c #974433",
"6.	c #D03518",
"7.	c #CF3317",
"8.	c #E1BCB9",
"9.	c #AD1B13",
"0.	c #A50C05",
"a.	c #890803",
"b.	c #AC7A70",
"c.	c #C93217",
"d.	c #CC3016",
"e.	c #CD4631",
"f.	c #DA8073",
"g.	c #DC897D",
"h.	c #DA877D",
"i.	c #D9867C",
"j.	c #D78278",
"k.	c #D47F76",
"l.	c #D37E75",
"m.	c #D17C75",
"n.	c #CF7972",
"o.	c #CD756F",
"p.	c #CA716C",
"q.	c #BD4D47",
"r.	c #A70F08",
"s.	c #9F0A04",
"t.	c #740501",
"u.	c #B92C15",
"v.	c #C62B13",
"w.	c #C12511",
"x.	c #B91E0D",
"y.	c #B61B0C",
"z.	c #B3190B",
"A.	c #B1160A",
"B.	c #AE1409",
"C.	c #AB1108",
"D.	c #A90F06",
"E.	c #A60C05",
"F.	c #A30A04",
"G.	c #930602",
"H.	c #580200",
"I.	c #8C2111",
"J.	c #C42A13",
"K.	c #B81E0D",
"L.	c #B0160A",
"M.	c #AE1309",
"N.	c #A80E06",
"O.	c #A30904",
"P.	c #9D0702",
"Q.	c #7D0301",
"R.	c #AA220F",
"S.	c #B51B0C",
"T.	c #B3180B",
"U.	c #AD1308",
"V.	c #AB1107",
"W.	c #9F0703",
"X.	c #8C0301",
"Y.	c #530100",
"Z.	c #6A1409",
"`.	c #AC1F0E",
" +	c #B2180B",
".+	c #AA1107",
"++	c #A50B05",
"@+	c #9F0603",
"#+	c #8E0301",
"$+	c #600000",
"%+	c #671107",
"&+	c #A1190B",
"*+	c #B31A0B",
"=+	c #AA1007",
"-+	c #A70E06",
";+	c #A20904",
">+	c #9D0602",
",+	c #870201",
"'+	c #5A0000",
")+	c #530B05",
"!+	c #821107",
"~+	c #A21308",
"{+	c #AA1208",
"]+	c #A70D06",
"^+	c #A30B04",
"/+	c #9E0803",
"(+	c #8D0501",
"_+	c #6E0200",
":+	c #3F0000",
"<+	c #490702",
"[+	c #630803",
"}+	c #700803",
"|+	c #770703",
"1+	c #6C0501",
"2+	c #530200",
"3+	c #380100",
"4+	c #160000",
"                                                  ",
"                                                  ",
"                . + @ # $                         ",
"            % & * = - ; > , ' )                   ",
"        ! ~ { ] ^ / ( _ : < [ } |                 ",
"      1 2 3 4 ^ / 5 6 7 8 9 0 a b c               ",
"      d e f g h 5 i 7 j k 0 a l m n o             ",
"    p q f g r 5 i s j t u v w x y z A             ",
"    B C D r E i s F t G H w I J z K L M           ",
"  N O P Q R S T U V W X Y Z `  ...+.@.#.          ",
"  $.%.&.*.=.-.;.>.,.'.=.).!.~.{.].^./.(.          ",
"  _.:.<.[.,.}.-.;.>.|.,.=.).!.~.1.2.3.4.          ",
"  5.6.7.S =.;.>.|.,.'.=.).!.~.{.8.9.0.a.          ",
"  b.c.d.e.f.g.h.i.j.k.l.m.n.o.p.q.r.s.t.          ",
"    u.9 v.a w.m y x.y.z.A.B.C.D.E.F.G.H.          ",
"    I.J.a l m y K.y.z.L.M.C.N.E.O.P.Q.            ",
"      R.w I y z S.T.L.U.V.N.0.O.W.X.Y.            ",
"      Z.`.J z K  +L.U..+N.++O.@+#+$+              ",
"        %+&+*+ +@.U.=+-+++;+>+,+'+                ",
"          )+!+~+{+3.]+^+/+(+_+:+                  ",
"              <+[+}+|+1+2+3+4+                    ",
"                                                  ",
"                                                  ",
"                                                  "};
