/* XPM */
static char * notice_note_xpm[] = {
"24 24 196 2",
"  	c None",
". 	c #ACACB1",
"+ 	c #A3A3AA",
"@ 	c #CDCDD6",
"# 	c #E2E2EE",
"$ 	c #E3E3F1",
"% 	c #D2D2E0",
"& 	c #A9A9B5",
"* 	c #5A5A60",
"= 	c #E0E0E7",
"- 	c #F4F4F9",
"; 	c #F3F3F9",
"> 	c #EDEDF6",
", 	c #E8E8F3",
"' 	c #E4E4F2",
") 	c #DFE0F0",
"! 	c #DCDDEF",
"~ 	c #9697A3",
"{ 	c #EDEDF4",
"] 	c #F8F8FC",
"^ 	c #FCFCFD",
"/ 	c #F6F6FA",
"( 	c #EEEEF6",
"_ 	c #EAEAF5",
": 	c #E6E6F3",
"< 	c #E0E1F1",
"[ 	c #DCDEEF",
"} 	c #DADBEE",
"| 	c #A5A7B5",
"1 	c #E3E3EA",
"2 	c #F7F7FA",
"3 	c #FBFBFD",
"4 	c #F4F4FA",
"5 	c #F0F0F8",
"6 	c #ECECF6",
"7 	c #E7E7F4",
"8 	c #E2E2F2",
"9 	c #DCDEF0",
"0 	c #D9DCEE",
"a 	c #D8DBEE",
"b 	c #747580",
"c 	c #FBFBFC",
"d 	c #FAFAFC",
"e 	c #F2F2F8",
"f 	c #EEEEF7",
"g 	c #E9E9F5",
"h 	c #E4E4F3",
"i 	c #DDDFF0",
"j 	c #D8DBED",
"k 	c #D6DAEC",
"l 	c #CBCEE1",
"m 	c #D5D5DB",
"n 	c #FCFCFE",
"o 	c #F8F8FB",
"p 	c #F5F5FA",
"q 	c #F2F2F9",
"r 	c #E0E2F1",
"s 	c #D8DDED",
"t 	c #D6DCEC",
"u 	c #D5DBEE",
"v 	c #56585F",
"w 	c #EAEAF2",
"x 	c #F7F7FB",
"y 	c #F9F9FB",
"z 	c #F5F6FA",
"A 	c #EFEFF8",
"B 	c #E6E8F4",
"C 	c #DAE0EE",
"D 	c #D5DEEB",
"E 	c #D4DBED",
"F 	c #6F717C",
"G 	c #ECECF5",
"H 	c #EFEFF4",
"I 	c #E8E9F5",
"J 	c #DCE2EE",
"K 	c #D5E0EA",
"L 	c #D4DCED",
"M 	c #72747F",
"N 	c #DCDCE5",
"O 	c #F1F1F8",
"P 	c #F2F0F0",
"Q 	c #ECECF0",
"R 	c #E5E7F2",
"S 	c #DAE5EC",
"T 	c #D4E5EA",
"U 	c #D3DEEC",
"V 	c #656871",
"W 	c #B5B6BE",
"X 	c #E8E9F3",
"Y 	c #EBEDF4",
"Z 	c #EEEFF6",
"` 	c #DDDDE0",
" .	c #F0F1F7",
"..	c #EFF0F7",
"+.	c #EDEEF6",
"@.	c #EBECF6",
"#.	c #E0E2E6",
"$.	c #DDE5ED",
"%.	c #D7E7EA",
"&.	c #D4E8EA",
"*.	c #2F3034",
"=.	c #6D6D72",
"-.	c #E4E6F1",
";.	c #E2EAEE",
">.	c #E4EAF0",
",.	c #E3E8ED",
"'.	c #E0E5E8",
").	c #E4E8F2",
"!.	c #E1E6F2",
"~.	c #DFE5EF",
"{.	c #BEC4CA",
"].	c #D6E6E9",
"^.	c #D4ECE9",
"/.	c #D3E6EA",
"(.	c #A4ABB7",
"_.	c #A2A4AC",
":.	c #E0E5EE",
"<.	c #DCE8EB",
"[.	c #BEC8C9",
"}.	c #D8E2EA",
"|.	c #D7DFE9",
"1.	c #D1D7D5",
"2.	c #D3DFE1",
"3.	c #D4EAE9",
"4.	c #D3EAE9",
"5.	c #CDD8E5",
"6.	c #2B2D30",
"7.	c #ACADBA",
"8.	c #DCDFEE",
"9.	c #D9E1E9",
"0.	c #C2CAC4",
"a.	c #D4DDDE",
"b.	c #D3DCDC",
"c.	c #B8C3C2",
"d.	c #D4E4E7",
"e.	c #D3E4E8",
"f.	c #CDD9E6",
"g.	c #47494F",
"h.	c #7A7A84",
"i.	c #C5C1C1",
"j.	c #B9B8B5",
"k.	c #BFBFB9",
"l.	c #CBC9BA",
"m.	c #CCCAB9",
"n.	c #CACABD",
"o.	c #A5AAA9",
"p.	c #2C2E31",
"q.	c #E8DDB4",
"r.	c #E3DECE",
"s.	c #DEDBD1",
"t.	c #DCD7C6",
"u.	c #DDD4B8",
"v.	c #D0C394",
"w.	c #474026",
"x.	c #F2E7C0",
"y.	c #E8D9A2",
"z.	c #E0D098",
"A.	c #D4C078",
"B.	c #C9B670",
"C.	c #C1B178",
"D.	c #51492B",
"E.	c #EFE0AA",
"F.	c #F7EFD1",
"G.	c #F6ECC8",
"H.	c #EADBA2",
"I.	c #DFD098",
"J.	c #C0B178",
"K.	c #4B452F",
"L.	c #F2E5BA",
"M.	c #ECE3C7",
"N.	c #E5DDC1",
"O.	c #D8CB9D",
"P.	c #CEC08F",
"Q.	c #C9BA8A",
"R.	c #4D4529",
"S.	c #EEE4C0",
"T.	c #E5DAB0",
"U.	c #D8CA96",
"V.	c #C7B470",
"W.	c #BAA763",
"X.	c #BAAB76",
"Y.	c #463F25",
"Z.	c #9F9469",
"`.	c #EAE1BC",
" +	c #E8DEB8",
".+	c #DACC99",
"++	c #D0C28E",
"@+	c #928453",
"#+	c #070704",
"$+	c #464234",
"%+	c #817C68",
"&+	c #6C664D",
"*+	c #302C1F",
"=+	c #0E0D07",
"-+	c #2A2A2A",
";+	c #282828",
"                                                ",
"              . + @ # $ % & *                   ",
"            . = - ; > , ' ) ! ~                 ",
"          . { ] ^ / ( _ : < [ } |               ",
"        . 1 2 3 3 4 5 6 7 8 9 0 a b             ",
"        . 4 ] c d / e f g h i j k l             ",
"        m 4 ] n c o p q f g r s t u v           ",
"        w ; x d d y x z ; A B C D E F           ",
"        G 5 4 2 c c c d c H I J K L M           ",
"        N ( O - P o o x q Q R S T U V           ",
"        W X Y Z `  ...+.@.#.$.%.&.U *.          ",
"        =.-.;.>.,.'.).!.~.{.].^./.(.            ",
"          _.:.<.<.[.}.|.1.2.3.4.5.6.            ",
"            7.8.9.0.a.b.c.d.e.f.g.              ",
"              h.i.j.k.l.m.n.o.p.                ",
"                q.r.s.t.u.v.w.                  ",
"                x.y.z.A.B.C.D.                  ",
"                E.F.G.H.I.J.K.                  ",
"                L.M.N.O.P.Q.R.                  ",
"                S.T.U.V.W.X.Y.                  ",
"                Z.`. +.+++@+#+                  ",
"                  $+%+&+*+=+                    ",
"                    -+;+                        ",
"                                                "};
