/* XPM */
static char * printer_xpm[] = {
"24 24 109 2",
"  	c None",
". 	c #AFB0AE",
"+ 	c #FFFFFF",
"@ 	c #FDFDFD",
"# 	c #E1E1E1",
"$ 	c #CBCBCB",
"% 	c #CCCCCC",
"& 	c #CDCDCD",
"* 	c #CECECE",
"= 	c #E8E8E8",
"- 	c #E2E2E2",
"; 	c #E4E4E4",
"> 	c #E5E5E5",
", 	c #E7E7E7",
"' 	c #EAEAEA",
") 	c #CFCFCF",
"! 	c #EBEBEB",
"~ 	c #E9E9E9",
"{ 	c #ECECEC",
"] 	c #EEEEEE",
"^ 	c #7D7E7B",
"/ 	c #EDEDED",
"( 	c #F0F0F0",
"_ 	c #F2F2F2",
": 	c #A3A3A0",
"< 	c #F1F0EE",
"[ 	c #6E6E6C",
"} 	c #6C6C69",
"| 	c #878683",
"1 	c #ACABA8",
"2 	c #E4E4E3",
"3 	c #CBCBC9",
"4 	c #F7F7F7",
"5 	c #D3D3D3",
"6 	c #F0EFEE",
"7 	c #B0B0B0",
"8 	c #E7E7E6",
"9 	c #FBFBFB",
"0 	c #C3C3C3",
"a 	c #E9E9E8",
"b 	c #E8E7E7",
"c 	c #8B8B88",
"d 	c #BEBEBC",
"e 	c #959595",
"f 	c #F3F3F2",
"g 	c #BFBFBF",
"h 	c #E0E0DF",
"i 	c #F9F9F8",
"j 	c #F9F9F9",
"k 	c #FAFAFA",
"l 	c #F8F7F7",
"m 	c #F7F6F5",
"n 	c #F1F0F0",
"o 	c #7A7A77",
"p 	c #B8B8B8",
"q 	c #D4D4D4",
"r 	c #949494",
"s 	c #767574",
"t 	c #71716E",
"u 	c #6D6D6B",
"v 	c #6E6D6C",
"w 	c #6C6B69",
"x 	c #6B6968",
"y 	c #777775",
"z 	c #B4B4B4",
"A 	c #C4C4C4",
"B 	c #BABAB9",
"C 	c #ACABAA",
"D 	c #9C9C9A",
"E 	c #9E9C9A",
"F 	c #9D9C9B",
"G 	c #9C9B9A",
"H 	c #979795",
"I 	c #8B8A88",
"J 	c #81807F",
"K 	c #838380",
"L 	c #848481",
"M 	c #858583",
"N 	c #878785",
"O 	c #8E8D8A",
"P 	c #C0C0C0",
"Q 	c #B9BAB8",
"R 	c #B8B7B5",
"S 	c #B3B3B1",
"T 	c #ABABA9",
"U 	c #ABAAA9",
"V 	c #A8A8A7",
"W 	c #A6A5A4",
"X 	c #A7A7A7",
"Y 	c #A6A6A6",
"Z 	c #A5A4A3",
"` 	c #A3A3A1",
" .	c #A2A2A0",
"..	c #A1A19F",
"+.	c #9F9F9D",
"@.	c #9E9E9E",
"#.	c #ADADAD",
"$.	c #C5C5C5",
"%.	c #9F9F9F",
"&.	c #8A8B88",
"*.	c #767774",
"=.	c #B7B7B5",
"-.	c #BCBCBC",
";.	c #BDBDBD",
">.	c #BCBCBB",
",.	c #BABAB8",
"'.	c #B5B5B4",
").	c #ABABAB",
"!.	c #787977",
"                                                ",
"                                                ",
"            . . . . . . . . . . . .             ",
"            . + @ @ @ @ @ @ @ @ + .             ",
"            . + # $ $ $ % & * = + .             ",
"            . + # # - ; > , = ' + .             ",
"            . + # % & & * ) ) ! + .             ",
"            . + - ; > , = ~ ! { + .             ",
"            . + ; & * ) ' ! { ] + .             ",
"          ^ . + > , = ' ! / ] ( + . ^           ",
"        ^ + . _ > > > > > > > > _ . : ^         ",
"      ^ + < . [ } } } } } } } } | 1 2 3 ^       ",
"    ^ + + 4 + + + + + + + + + + + + ~ ~ 5 ^     ",
"    ^ 6 7 8 9 0 / { ] ] ! a a b a a a c d ^     ",
"    ^ 5 e f g h i j 9 k 9 9 l l l m n o p ^     ",
"    ^ q r s t [ u [ v u u } } w x t [ y z ^     ",
"    ^ A B C D E F F G H I J K L M M N O z ^     ",
"    ^ P Q R S T U V V W X Y Z `  ...+.@.#.^     ",
"    ^ ^ $.^ ^ ^ ^ ^ ^ ^ ^ ^ ^ ^ ^ ^ ^ %.&.*.    ",
"      ^ =.-.;.g g g g >.-.-.>.,.,.,.'.).^       ",
"      ^ ^ ^ ^ ^ ^ ^ ^ ^ ^ ^ ^ ^ ^ ^ ^ ^ !.      ",
"                                                ",
"                                                ",
"                                                "};
