/* XPM */
static char * privacy_passed_xpm[] = {
"24 24 61 1",
" 	c None",
".	c #515151",
"+	c #161616",
"@	c #000000",
"#	c #696969",
"$	c #183317",
"%	c #599659",
"&	c #75AE74",
"*	c #386637",
"=	c #90BE90",
"-	c #519A4F",
";	c #419541",
">	c #5EA65D",
",	c #101010",
"'	c #263125",
")	c #62AB62",
"!	c #3F903F",
"~	c #469F44",
"{	c #439841",
"]	c #459A43",
"^	c #B6B6B6",
"/	c #EAEAEA",
"(	c #E0E0E0",
"_	c #CACACA",
":	c #639863",
"<	c #FFFFFF",
"[	c #3B893B",
"}	c #48A046",
"|	c #9A9795",
"1	c #DBDBDB",
"2	c #469A45",
"3	c #49A447",
"4	c #D7D7D7",
"5	c #4BA649",
"6	c #C59A63",
"7	c #C19257",
"8	c #4E774E",
"9	c #4C3B27",
"0	c #BB8645",
"a	c #B37A37",
"b	c #995E1B",
"c	c #BC8E53",
"d	c #7F6441",
"e	c #6B5334",
"f	c #18130C",
"g	c #9E7D55",
"h	c #CDA36D",
"i	c #21190E",
"j	c #0C0905",
"k	c #D3B084",
"l	c #EED8BA",
"m	c #E1C199",
"n	c #D1A977",
"o	c #080604",
"p	c #826B4C",
"q	c #BC8A4C",
"r	c #B8823F",
"s	c #2E2316",
"t	c #A08C72",
"u	c #A56E33",
"v	c #88521A",
"                        ",
"     .+@+.              ",
"   #$%&&&%$#            ",
"  #*=&-&;>>*,@@@'#      ",
"  '=)!&~{{]>$^/(_.@     ",
" .:&<<<~<~<~[@@@(_.@    ",
" +=%<;<~<~<}}, |@1^.|   ",
" @=2<~<~<<~33@   @4#.   ",
" +=;<~<~<~<33+   @/^@   ",
" .&2<<<~<~<5!.   @/^@   ",
"  $)22}~~555$@@@@@67@@| ",
"  #8>}})355*96666670ab@ ",
"   #$[}33!$9cde66670ab@ ",
"     .@@f9ghdij9k670ab@ ",
"      @lmknhe@@ok7c0ab@ ",
"      @lmknhdfopn7qrab@ ",
"      @lmnnhgs@k67qrab@ ",
"      @lmknhpf@t67qrau@ ",
"      @lmnh69f@dkc0aau@ ",
"      @lmnnhe99ek7qraa@ ",
"      @lmnh6kkkk67q0qa@ ",
"      @kn7cqrrr0q0q0av@ ",
"       @@@@@@@@@@@@@@@  ",
"                        "};
