/* XPM */
static char * privacy_signed_xpm[] = {
"24 24 64 1",
" 	c None",
".	c #4E4E4E",
"+	c #303030",
"@	c #000000",
"#	c #6E6E6E",
"$	c #ABA8A7",
"%	c #EBEBEB",
"&	c #E5E5E5",
"*	c #CFCFCF",
"=	c #BABABA",
"-	c #DDDDDD",
";	c #868686",
">	c #A19C99",
",	c #D2A06E",
"'	c #A7896A",
")	c #C99560",
"!	c #C48F5A",
"~	c #EFDABF",
"{	c #E5C7A0",
"]	c #D4B48A",
"^	c #D2AB7A",
"/	c #D1A874",
"(	c #CBA16B",
"_	c #C79C65",
":	c #C3985F",
"<	c #C19256",
"[	c #BB8544",
"}	c #B67C39",
"|	c #995E1B",
"1	c #D6AF7F",
"2	c #D0A671",
"3	c #B48D59",
"4	c #81643E",
"5	c #6B5334",
"6	c #BC9A6D",
"7	c #EED8BB",
"8	c #E3C39C",
"9	c #CEA46E",
"0	c #21190E",
"a	c #0C0905",
"b	c #493923",
"c	c #D1AF83",
"d	c #C39861",
"e	c #C19459",
"f	c #080604",
"g	c #BE8C4F",
"h	c #B37834",
"i	c #19130B",
"j	c #78664D",
"k	c #BA813E",
"l	c #E0C098",
"m	c #A58152",
"n	c #2E2316",
"o	c #CDAD82",
"p	c #876943",
"q	c #B17632",
"r	c #A36B2F",
"s	c #EED6B8",
"t	c #E1BD94",
"u	c #A9753B",
"v	c #BB894A",
"w	c #B68241",
"x	c #BA8649",
"y	c #88521A",
"                        ",
"                        ",
"                        ",
"           .+@@@+#      ",
"          @$%%&&*.@     ",
"         @*%=@@@-*.@    ",
"        #$%;@  >@-=.;   ",
"        +%=@     @-#.   ",
"        @&;@     @&$@   ",
"        @-#@     @&=@   ",
"      $@@,'@@@@@@@)!@@> ",
"      @~{]^/(____:<[}|@ ",
"      @~{1^23456_:<[}|@ ",
"      @781^940abcde[}|@ ",
"      @781^95@@f]eg[h|@ ",
"      @~81^94ifj^egkh|@ ",
"      @7l^/(mn@od<gkh|@ ",
"      @781^9pi@':<gkqr@ ",
"      @st/9_bi@jcg[}qu@ ",
"      @7l^/(5bb5c<gk}u@ ",
"      @sl/9_o]]]_<v[gu@ ",
"      @12<gvwww[vxxx}y@ ",
"       @@@@@@@@@@@@@@@  ",
"                        "};
