/* XPM */
static char * privacy_emblem_encrypted_xpm[] = {
"9 11 50 1",
" 	c None",
".	c #000000",
"+	c #2B2B2B",
"@	c #F3EFE0",
"#	c #F4E5B3",
"$	c #CDB86D",
"%	c #F4F0E4",
"&	c #8F99A2",
"*	c #5C5C5C",
"=	c #828282",
"-	c #F2E1A5",
";	c #454545",
">	c #363636",
",	c #EED680",
"'	c #343434",
")	c #313131",
"!	c #2C2C2C",
"~	c #F9F9F9",
"{	c #E5EAF1",
"]	c #DCE3EB",
"^	c #DAE1E8",
"/	c #D7DEE6",
"(	c #D1D9E1",
"_	c #E3EAF1",
":	c #B7C8DA",
"<	c #8CA7C3",
"[	c #87A2BE",
"}	c #829DBA",
"|	c #7D98B6",
"1	c #465766",
"2	c #E7EDF3",
"3	c #B6C7D9",
"4	c #8AA5C1",
"5	c #85A0BC",
"6	c #809BB8",
"7	c #7B96B4",
"8	c #445462",
"9	c #ECF1F5",
"0	c #AEC0D4",
"a	c #88A3BF",
"b	c #839EBB",
"c	c #7E99B6",
"d	c #7994B2",
"e	c #D3D7DB",
"f	c #7B848D",
"g	c #43525F",
"h	c #435260",
"i	c #404F5D",
"j	c #3F4E5C",
"k	c #232C34",
"   ...   ",
"  +@#$.  ",
" .%&*=$. ",
" .-; >,. ",
".'$)!'$..",
".~{]^/(&.",
"._:<[}|1.",
".2345678.",
".90abcd8.",
".efghijk.",
"........."};
