/* XPM */
static char * privacy_failed_xpm[] = {
"24 24 58 1",
" 	c None",
".	c #4A4A4A",
"+	c #141413",
"@	c #2F2F2F",
"#	c #C45C57",
"$	c #C04940",
"%	c #A00703",
"&	c #A90F06",
"*	c #B01509",
"=	c #000000",
"-	c #666666",
";	c #B31B0B",
">	c #242424",
",	c #ECCECB",
"'	c #ECECEC",
")	c #E5E5E5",
"!	c #CACACA",
"~	c #B81E0D",
"{	c #DFDFDF",
"]	c #9C1B09",
"^	c #ACA9A7",
"/	c #949494",
"(	c #DBDBDB",
"_	c #BCBCBC",
":	c #FFFFFF",
"<	c #BC210F",
"[	c #D7D7D7",
"}	c #A81D0E",
"|	c #BE392E",
"1	c #C59A64",
"2	c #C19257",
"3	c #473825",
"4	c #D2B084",
"5	c #CDA36D",
"6	c #BB8544",
"7	c #B37A37",
"8	c #995E1B",
"9	c #D1A773",
"0	c #BC8E53",
"a	c #846740",
"b	c #6B5334",
"c	c #EBD3BB",
"d	c #E2C19A",
"e	c #D3AB7B",
"f	c #21190E",
"g	c #0C0905",
"h	c #080604",
"i	c #19130B",
"j	c #78664D",
"k	c #BD8B4D",
"l	c #BA813E",
"m	c #A58152",
"n	c #2E2316",
"o	c #A08C72",
"p	c #A56E33",
"q	c #BA8749",
"r	c #B68241",
"s	c #88521A",
"                        ",
"     .++.               ",
"   .@####@.             ",
"  .$#%&&*$#+@===@-      ",
"  @#%%&&*;$>,'))!.=     ",
" .#%%%&&*;~;@==={!-=    ",
" @#%)'''''~]=^ /=(_./   ",
" @#&':::::<]+    =[-.   ",
" .#}&***;~~].    =)^=   ",
"  @$**;;~<}=     =)_=   ",
"  -||;~~;]}=======12==/ ",
"   .+;]]]=345111112678= ",
"     .=+31490ab1112678= ",
"      =cd4e5afg3412678= ",
"      =cdee5b==h420678= ",
"      =cd4e5aihje2kl78= ",
"      =cde95mn=412kl78= ",
"      =cdee5ai=o12kl7p= ",
"      =cd9513i=j40677p= ",
"      =cde95b33b42kl77= ",
"      =cd951444412k6k7= ",
"      =e920qrrr6qqqq7s= ",
"       ===============  ",
"                        "};
