/* XPM */
static char * privacy_unknown_xpm[] = {
"24 24 60 1",
" 	c None",
".	c #575757",
"+	c #1B1B1B",
"@	c #040303",
"#	c #2E2D2C",
"$	c #827153",
"%	c #DED6B9",
"&	c #F6F2E3",
"*	c #F9F6EC",
"=	c #F8F4E7",
"-	c #F6F0DF",
";	c #EAE2C8",
">	c #FAF8F0",
",	c #17140F",
"'	c #000000",
")	c #F3EDDA",
"!	c #F9F8F6",
"~	c #050505",
"{	c #918F8B",
"]	c #F4EFDD",
"^	c #656565",
"/	c #CCB993",
"(	c #FDFCF8",
"_	c #D8D8D7",
":	c #454545",
"<	c #080808",
"[	c #F2EBD3",
"}	c #CACACA",
"|	c #E0E0DF",
"1	c #FEFEFE",
"2	c #EAEAEA",
"3	c #DBDBDB",
"4	c #BBBBBB",
"5	c #D6D6D5",
"6	c #777777",
"7	c #DCD9CD",
"8	c #F1EEE2",
"9	c #A8A6A5",
"0	c #FFFFFF",
"a	c #C59A63",
"b	c #C19257",
"c	c #BF8E51",
"d	c #BB8544",
"e	c #B57B38",
"f	c #995E1B",
"g	c #EED8BB",
"h	c #E2C19A",
"i	c #D2AD7F",
"j	c #A88D6D",
"k	c #6F583A",
"l	c #CEA570",
"m	c #080604",
"n	c #BD8B4D",
"o	c #B8823F",
"p	c #A58152",
"q	c #2E2316",
"r	c #AC7436",
"s	c #4B3B25",
"t	c #BA8749",
"u	c #88521A",
"     .+@@+.             ",
"   #$%&*=-%$#           ",
"  +;*>>>**&-%,          ",
" ')*>!#~,{=-];''#^      ",
"^/=*>({_:<>&][/.}:'     ",
"+)=*>!(|+:1-][;'|}.'    ",
"'-&**>>##2(-)[[''34.{   ",
"+)&&***{5(&])[;+ '56:   ",
"^/]&&==78=])[[/# '29'   ",
" '8]--&'{-)[[;'  '24'   ",
"  ,%)]]]0=[[;;''''ab''  ",
"   #$%[[[[;;;;'aaacdef' ",
"     .'@@,+:;;'aaabdef' ",
"      'ghijk''''iabdef' ",
"      'ghiilk''mibcdef' ",
"      'ghiil$,m$ibnoef' ",
"      'ghillpq'iabnoef' ",
"      'ghiil$,'jabnoer' ",
"      'ghllas,'kicderr' ",
"      'ghillksskibnoer' ",
"      'ghllai///abndnr' ",
"      'ilbctooodtttteu' ",
"       '''''''''''''''  ",
"                        "};
