/* XPM */
static char * queue_close_mark_xpm[] = {
"16 16 96 2",
"  	c None",
". 	c #FFFFFF",
"+ 	c #000000",
"@ 	c #686868",
"# 	c #3E3931",
"$ 	c #3E3118",
"% 	c #575040",
"& 	c #0F0F0F",
"* 	c #707070",
"= 	c #8D8D8D",
"- 	c #DCDCDC",
"; 	c #C8BAA1",
"> 	c #786D58",
", 	c #494949",
"' 	c #8E8E8E",
") 	c #EAEAEA",
"! 	c #F6F6F6",
"~ 	c #A9A49C",
"{ 	c #7A6F5A",
"] 	c #DEDEDE",
"^ 	c #F8F8F8",
"/ 	c #FBFBFB",
"( 	c #ABA69D",
"_ 	c #AAD3FC",
": 	c #94C4FA",
"< 	c #424242",
"[ 	c #D9D9DA",
"} 	c #E8E8E8",
"| 	c #FDFDFD",
"1 	c #A4A19A",
"2 	c #90C2FA",
"3 	c #80B9F8",
"4 	c #639EF1",
"5 	c #D8D8D8",
"6 	c #E6E5E5",
"7 	c #C4C3C1",
"8 	c #575042",
"9 	c #83BBF9",
"0 	c #7CB4F8",
"a 	c #66A0F2",
"b 	c #4680E5",
"c 	c #676767",
"d 	c #F1F1F2",
"e 	c #F2F2F3",
"f 	c #EDEDEE",
"g 	c #C4C4C4",
"h 	c #777777",
"i 	c #7DB5F8",
"j 	c #71ACF6",
"k 	c #5895EE",
"l 	c #386FDE",
"m 	c #828283",
"n 	c #D9D9D9",
"o 	c #EDEDED",
"p 	c #DFDFDF",
"q 	c #DDDEDE",
"r 	c #EAEAE9",
"s 	c #C5C5C5",
"t 	c #76A2D1",
"u 	c #74AEF7",
"v 	c #65A1F4",
"w 	c #4D88EA",
"x 	c #3468D5",
"y 	c #818182",
"z 	c #C6C6C6",
"A 	c #BABABA",
"B 	c #B9B9B9",
"C 	c #BBBBBB",
"D 	c #797979",
"E 	c #6D7E90",
"F 	c #77AAE8",
"G 	c #5691F0",
"H 	c #427EE5",
"I 	c #2F61CC",
"J 	c #121212",
"K 	c #656769",
"L 	c #343535",
"M 	c #343434",
"N 	c #5D6065",
"O 	c #6A97D1",
"P 	c #6A9EE5",
"Q 	c #639FF3",
"R 	c #5A94F0",
"S 	c #417CE4",
"T 	c #3469D8",
"U 	c #2957BE",
"V 	c #AAD4FB",
"W 	c #70AAF3",
"X 	c #538EEC",
"Y 	c #4F89EA",
"Z 	c #4F8AEC",
"` 	c #4B87EA",
" .	c #4683E8",
"..	c #4076E1",
"+.	c #356AD8",
"@.	c #254EAB",
"                          . .   ",
"                        . + .   ",
"      @ # $ % &       . + + .   ",
"  * = - ; . . > ,   . + + + .   ",
"  ' ) ! ~ . + . { . + + + . +   ",
"@ ] ^ / ( . + + . + + + . _ : + ",
"< [ } | 1 . + + + + + . 2 3 4 + ",
"< 5 6 ^ 7 8 . + + + . 9 0 a b + ",
"c 5 d e f g h . + . 9 i j k l + ",
"  m n o p q r s . t i u v w x + ",
"  * y z A B C D E F j v G H I + ",
"    J K L M N O P Q R w S T U + ",
"    + V W X Y Z `  ...+.I U @.+ ",
"      + + + + + + + + + + + +   ",
"                                ",
"                                "};
