/* XPM */
static char * queue_close_xpm[] = {
"16 16 124 2",
"  	c None",
". 	c #686868",
"+ 	c #3E3931",
"@ 	c #3E3118",
"# 	c #575040",
"$ 	c #0F0F0F",
"% 	c #707070",
"& 	c #8D8D8D",
"* 	c #DCDCDC",
"= 	c #C8BAA1",
"- 	c #C79A40",
"; 	c #C29F58",
"> 	c #786D58",
", 	c #494949",
"' 	c #8E8E8E",
") 	c #EAEAEA",
"! 	c #F6F6F6",
"~ 	c #A9A49C",
"{ 	c #A47E33",
"] 	c #ECBB56",
"^ 	c #DAC18D",
"/ 	c #7A6F5A",
"( 	c #101010",
"_ 	c #000000",
": 	c #DEDEDE",
"< 	c #F8F8F8",
"[ 	c #FBFBFB",
"} 	c #ABA69D",
"| 	c #A27A29",
"1 	c #EBB13E",
"2 	c #CDA554",
"3 	c #68604E",
"4 	c #CDE6FD",
"5 	c #B9DBFD",
"6 	c #B4D8FC",
"7 	c #AAD3FC",
"8 	c #94C4FA",
"9 	c #424242",
"0 	c #D9D9DA",
"a 	c #E8E8E8",
"b 	c #FDFDFD",
"c 	c #A4A19A",
"d 	c #7B5C1E",
"e 	c #E3AB3B",
"f 	c #E2AE45",
"g 	c #C39942",
"h 	c #352A15",
"i 	c #A9D2FB",
"j 	c #98C9FA",
"k 	c #90C2FA",
"l 	c #80B9F8",
"m 	c #639EF1",
"n 	c #D8D8D8",
"o 	c #E6E5E5",
"p 	c #C4C3C1",
"q 	c #575042",
"r 	c #AD9970",
"s 	c #E2D0A9",
"t 	c #C0B092",
"u 	c #343028",
"v 	c #8EC0F9",
"w 	c #83BBF9",
"x 	c #7CB4F8",
"y 	c #66A0F2",
"z 	c #4680E5",
"A 	c #676767",
"B 	c #F1F1F2",
"C 	c #F2F2F3",
"D 	c #EDEDEE",
"E 	c #C4C4C4",
"F 	c #777777",
"G 	c #E5E5E4",
"H 	c #B1B1B1",
"I 	c #5E6165",
"J 	c #7DB5F8",
"K 	c #71ACF6",
"L 	c #5895EE",
"M 	c #386FDE",
"N 	c #828283",
"O 	c #D9D9D9",
"P 	c #EDEDED",
"Q 	c #DFDFDF",
"R 	c #DDDEDE",
"S 	c #EAEAE9",
"T 	c #C5C5C5",
"U 	c #737373",
"V 	c #76A2D1",
"W 	c #74AEF7",
"X 	c #65A1F4",
"Y 	c #4D88EA",
"Z 	c #3468D5",
"` 	c #818182",
" .	c #C6C6C6",
"..	c #BABABA",
"+.	c #B9B9B9",
"@.	c #BBBBBB",
"#.	c #797979",
"$.	c #6D7E90",
"%.	c #77AAE8",
"&.	c #5691F0",
"*.	c #427EE5",
"=.	c #2F61CC",
"-.	c #121212",
";.	c #656769",
">.	c #343535",
",.	c #343434",
"'.	c #5D6065",
").	c #6A97D1",
"!.	c #6A9EE5",
"~.	c #639FF3",
"{.	c #5A94F0",
"].	c #417CE4",
"^.	c #3469D8",
"/.	c #2957BE",
"(.	c #AAD4FB",
"_.	c #70AAF3",
":.	c #538EEC",
"<.	c #4F89EA",
"[.	c #4F8AEC",
"}.	c #4B87EA",
"|.	c #4683E8",
"1.	c #4076E1",
"2.	c #356AD8",
"3.	c #254EAB",
"                                ",
"                                ",
"      . + @ # $                 ",
"  % & * = - ; > ,               ",
"  ' ) ! ~ { ] ^ / ( _ _ _ _ _   ",
". : < [ } | 1 ] 2 3 4 5 6 7 8 _ ",
"9 0 a b c d e f g h i j k l m _ ",
"9 n o < p q r s t u v w x y z _ ",
"A n B C D E F G H I w J K L M _ ",
"  N O P Q R S T U V J W X Y Z _ ",
"  % `  ...+.@.#.$.%.K X &.*.=._ ",
"    -.;.>.,.'.).!.~.{.Y ].^./._ ",
"    _ (._.:.<.[.}.|.1.2.=./.3._ ",
"      _ _ _ _ _ _ _ _ _ _ _ _   ",
"                                ",
"                                "};
