/* XPM */
static char * queue_close_hrm_mark_xpm[] = {
"16 16 84 1",
" 	c None",
".	c #FFFFFF",
"+	c #000000",
"@	c #686868",
"#	c #3E3931",
"$	c #3E3118",
"%	c #575040",
"&	c #0F0F0F",
"*	c #707070",
"=	c #8D8D8D",
"-	c #DCDCDC",
";	c #C8BAA1",
">	c #786D58",
",	c #494949",
"'	c #8E8E8E",
")	c #EAEAEA",
"!	c #F6F6F6",
"~	c #A9A49C",
"{	c #7A6F5A",
"]	c #DEDEDE",
"^	c #F8F8F8",
"/	c #FBFBFB",
"(	c #ABA69D",
"_	c #F07D98",
":	c #EB6C8D",
"<	c #424242",
"[	c #D9D9DA",
"}	c #E8E8E8",
"|	c #FDFDFD",
"1	c #A4A19A",
"2	c #DA4873",
"3	c #E66281",
"4	c #D8D8D8",
"5	c #E6E5E5",
"6	c #C4C3C1",
"7	c #575042",
"8	c #DD4D73",
"9	c #676767",
"0	c #F1F1F2",
"a	c #F2F2F3",
"b	c #EDEDEE",
"c	c #C4C4C4",
"d	c #777777",
"e	c #DF5175",
"f	c #D9466F",
"g	c #E15577",
"h	c #828283",
"i	c #D9D9D9",
"j	c #EDEDED",
"k	c #DFDFDF",
"l	c #DDDEDE",
"m	c #EAEAE9",
"n	c #C5C5C5",
"o	c #BD506C",
"p	c #D8446E",
"q	c #E35979",
"r	c #D43C6A",
"s	c #818182",
"t	c #C6C6C6",
"u	c #BABABA",
"v	c #B9B9B9",
"w	c #BBBBBB",
"x	c #797979",
"y	c #885E69",
"z	c #CE4D6F",
"A	c #121212",
"B	c #675F62",
"C	c #343535",
"D	c #343434",
"E	c #625A5C",
"F	c #B34664",
"G	c #C34467",
"H	c #D03E68",
"I	c #CC4266",
"J	c #D23C69",
"K	c #CA4465",
"L	c #DC4B82",
"M	c #C83561",
"N	c #BE315A",
"O	c #C0315B",
"P	c #C63460",
"Q	c #B82E55",
"R	c #CE3865",
"S	c #B02A50",
"             .. ",
"            .+. ",
"   @#$%&   .++. ",
" *=-;..>, .+++. ",
" ')!~.+.{.+++.+ ",
"@]^/(.++.+++._:+",
"<[}|1.+++++.232+",
"<45^67.+++.8888+",
"940abcd.+.efgfg+",
" hijklmn.opqrqr+",
" *stuvwxyzefgfg+",
"  ABCDEFGHIJKJK+",
"  +LMLMNOPQRSRS+",
"   ++++++++++++ ",
"                ",
"                "};
