/* XPM */
static char * replied_and_forwarded_xpm[] = {
"9 9 8 1",
" 	c None",
".	c #000000",
"+	c #FFFFFF",
"@	c #990000",
"#	c #EFEFEF",
"$	c #CCCCCC",
"%	c #990085",
"&	c #314E6C",
".........",
".+++++++.",
".+@@@@#$.",
".+@@%#&$.",
".+@%%%&$.",
".+@#%&&$.",
".+#&&&&$.",
".+$$$$$$.",
"........."};
