/* XPM */
static char * selection_xpm[] = {
"12 12 52 1",
" 	c #1C1C1C",
".	c #535353",
"+	c #525252",
"@	c #4E4E4E",
"#	c #171717",
"$	c #DFDFDF",
"%	c #D3D3D3",
"&	c #D2D2D2",
"*	c #C3C3C3",
"=	c #363636",
"-	c #515151",
";	c #C6C6C6",
">	c #B1B1B1",
",	c #AFAFAF",
"'	c #9F9F9F",
")	c #2A2A2A",
"!	c #D8D8D8",
"~	c #CACACA",
"{	c #C9C9C9",
"]	c #BDBDBD",
"^	c #373737",
"/	c #888FEA",
"(	c #515CE4",
"_	c #6970CB",
":	c #333333",
"<	c #4F4F4F",
"[	c #A3A5C3",
"}	c #7F83B0",
"|	c #7E81AF",
"1	c #7D7F9D",
"2	c #292929",
"3	c #CED0EE",
"4	c #BABDEB",
"5	c #B9BBDA",
"6	c #3E3E3E",
"7	c #8990EB",
"8	c #525DE5",
"9	c #6D74CF",
"0	c #4D4D4D",
"a	c #BBBBBB",
"b	c #AAAAAA",
"c	c #2E2E2E",
"d	c #E9E9E9",
"e	c #E2E2E2",
"f	c #CDCDCD",
"g	c #D9D9D9",
"h	c #CBCBCB",
"i	c #1A1A1A",
"j	c #3F3F3F",
"k	c #383838",
"l	c #353535",
"m	c #101010",
" .++++++++@#",
".$%&&%%%%%*=",
"-;>,,,,,,,')",
"+!~{{{{{{{]^",
"+/((((((((_:",
"<[}|||||||12",
".34444444456",
".7888888889=",
"0{aaaaaaaabc",
".deeeeeeeef^",
"+ghhhhhhhha:",
"ijkkkkkkkklm"};
