/* XPM */
static char * spam_xpm[] = {
"10 10 7 1",
" 	c None",
".	c #606060",
"+	c #130303",
"@	c #454343",
"#	c #000000",
"$	c #0A0A0A",
"%	c #FFD10D",
"  .++++.  ",
" @#####$@ ",
".########.",
"+##%##%##+",
"+########+",
"+########+",
"+###%%###+",
".##%##%##.",
" @######@ ",
"  .++++.  "};
