/* XPM */
static char * trash_hrm_mark_xpm[] = {
"16 16 11 1",
" 	c None",
".	c #FFFFFF",
"+	c #000000",
"@	c #EB6C8D",
"#	c #E65F7C",
"$	c #852C3F",
"%	c #D43B6A",
"&	c #F1809B",
"*	c #752637",
"=	c #6C1F30",
"-	c #A93262",
"             .. ",
"   ++++++   .+. ",
" ++@@#$##++.++. ",
"+#@@@..###.+++. ",
"+%@&&.+.#.+++.  ",
"+*%##.++.+++.   ",
" +$%*.+++++.    ",
" +*===.+++.     ",
" +*@-#-.+.++++  ",
" +*@-#-%.*+++++ ",
" +*@-#-%-*+++++ ",
" +%@-#-%-*++++  ",
"  +%%%*%*+++    ",
"   +++++++      ",
"                ",
"                "};
