/* XPM */
static char * trash_mark_xpm[] = {
"16 16 11 1",
" 	c None",
".	c #FFFFFF",
"+	c #000000",
"@	c #A1B7E7",
"#	c #7B92CE",
"$	c #3B4766",
"%	c #272A42",
"&	c #5D6CAD",
"*	c #D2DEFB",
"=	c #52617C",
"-	c #1B1C2E",
"              ..",
"   ++++++    .+.",
" ++@@#$##++ .++.",
"+#@@@%..##&.+++.",
"+&@**#.+.&.+++. ",
"+=&##&.++.+++.  ",
" +-&==.+++++.   ",
" +=----.+++.    ",
" +=@$#$&.+.+++  ",
" +=@$#$&$.+++++ ",
" +=@$#$&$=+++++ ",
" +&@$#$&$=++++  ",
"  +&&&=&=+++    ",
"   +++++++      ",
"                ",
"                "};
