/* XPM */
static char * tray_nomail_xpm[] = {
"16 16 7 1",
" 	c None",
".	c #585858",
"+	c #A0A0A0",
"@	c #C3C3C3",
"#	c #DCDCDC",
"$	c #FFFFFF",
"%	c #808080",
"                ",
"                ",
"                ",
"    ........    ",
"   .+@######.   ",
"  .++@@@@@@@+.  ",
" .++@@@@@@@@@+. ",
"....@@@@@@@@....",
".$@+.@@@@@@.++%.",
".$@+.@@@@@@.++%.",
".$@+.@@@@@@.++%.",
".$@++......+++%.",
".$@+++++++++++%.",
".$@+++++++++++%.",
" .@+++++++++++. ",
"  ............  "};
