/* XPM */
static char * tray_nomail_offline_xpm[] = {
"16 16 9 1",
" 	c None",
".	c #818181",
"+	c #B7B7B7",
"@	c #D1D1D1",
"#	c #E4E4E4",
"$	c #000000",
"%	c #FFFFFF",
"&	c #6666CC",
"*	c #9F9F9F",
"                ",
"                ",
"                ",
"    ........    ",
"   .+@######.   ",
"  .++@@@@@@@+.  ",
" .++@@@@@@@@@+. ",
"....$$@@@@$$....",
".%@$&$$$@@$&$+*.",
"$$$&&$@@@@$&&$$$",
"&&&&&$$$@@$&&&&&",
"$$$&&$....$&&$$$",
".%@$&$$$++$&$+*.",
".%@+$$++++$$++*.",
" .@+++++++++++. ",
"  ............  "};
