/* XPM */
static char * tray_newmail_xpm[] = {
"16 16 8 1",
" 	c None",
".	c #000000",
"+	c #FFFFFF",
"@	c #FF0000",
"#	c #A0A0A0",
"$	c #585858",
"%	c #C3C3C3",
"&	c #808080",
"        .       ",
"       .+.      ",
"      .+@+.     ",
"     .+@@@+.    ",
"    .+++@+++.   ",
"   .+++++++++.  ",
"  .++++#++#+++. ",
"$$$$++#++#++$$$$",
"$+%#$+++#++$##&$",
"$+%#$++#+++$##&$",
"$+%#$+#+++.$##&$",
"$+%##$$$$$$###&$",
"$+%###########&$",
"$+%###########&$",
" $%###########$ ",
"  $$$$$$$$$$$$  "};
