/* XPM */
static char * tray_unreadmarkedmail_offline_xpm[] = {
"16 16 9 1",
" 	c None",
".	c #CF6F6F",
"+	c #FFFFFF",
"@	c #9F9F9F",
"#	c #C68686",
"$	c #000000",
"%	c #D1D1D1",
"&	c #6666CC",
"*	c #B7B7B7",
"                ",
"                ",
" .............. ",
" .++++++++++++. ",
" .+@@@@++++..+. ",
" .+++++++++..+. ",
" .++++++++++++. ",
"####$$@@@@$$####",
"#+%$&$$$++$&$*@#",
"$$$&&$++@@$&&$$$",
"&&&&&$$$++$&&&&&",
"$$$&&$####$&&$$$",
"#+%$&$$$**$&$*@#",
"#+%*$$****$$**@#",
" #%***********# ",
"  ############  "};
