/* XPM */
static char * tray_unreadmarkedmail_xpm[] = {
"16 16 7 1",
" 	c None",
".	c #FF0000",
"+	c #FFFFFF",
"@	c #808080",
"#	c #DE3636",
"$	c #C3C3C3",
"%	c #A0A0A0",
"                ",
"                ",
" .............. ",
" .++++++++++++. ",
" .+@@@@++++..+. ",
" .+++++++++..+. ",
" .++++++++++++. ",
"####++@@@@++####",
"#+$%#++++++#%%@#",
"#+$%#+++@@+#%%@#",
"#+$%#++++++#%%@#",
"#+$%%######%%%@#",
"#+$%%%%%%%%%%%@#",
"#+$%%%%%%%%%%%@#",
" #$%%%%%%%%%%%# ",
"  ############  "};
