/* XPM */
static char * unread_xpm[] = {
"15 12 42 1",
" 	c None",
".	c #000000",
"+	c #615DBD",
"@	c #DDDCF2",
"#	c #26219A",
"$	c #04006E",
"%	c #D2D1EE",
"&	c #CAC8EB",
"*	c #DAD9F1",
"=	c #B8B6E4",
"-	c #03004F",
";	c #6965C1",
">	c #050070",
",	c #D7D6F0",
"'	c #CDCBEC",
")	c #B0AEE1",
"!	c #030057",
"~	c #5753B8",
"{	c #040069",
"]	c #DFDFF3",
"^	c #C0BEE7",
"/	c #9F9DDA",
"(	c #C5C3E9",
"_	c #0B0684",
":	c #05007A",
"<	c #9896D7",
"[	c #C7C6EA",
"}	c #050078",
"|	c #827FCD",
"1	c #06007F",
"2	c #A7A4DD",
"3	c #C2C0E8",
"4	c #A9A7DE",
"5	c #7976C9",
"6	c #0E0987",
"7	c #635FBE",
"8	c #716DC5",
"9	c #4D48B2",
"0	c #4E4AB3",
"a	c #504CB4",
"b	c #6B67C2",
"c	c #423EAC",
"               ",
"  ...........  ",
" .+@@@@@@@@@#. ",
" .@$%&@&*&=-;. ",
" .@&>,'@&)!)~. ",
" .@&&{]&^!&/~. ",
" .@&(_!@!:=<~. ",
" .@[:&&$^^}|~. ",
" .@1&23)^4567. ",
" .89999900abc. ",
"  ...........  ",
"               "};
