/* XPM */
static char * up_arrow_xpm[] = {
"16 16 25 1",
" 	c None",
".	c #000000",
"+	c #4C79A3",
"@	c #080D11",
"#	c #5F8BB4",
"$	c #95B2CE",
"%	c #2A435B",
"&	c #5080AD",
"*	c #97B3CE",
"=	c #A0BAD3",
"-	c #3F6588",
";	c #9CB7D1",
">	c #5B88B2",
",	c #9EB8D1",
"'	c #A4BDD5",
")	c #B6CADD",
"!	c #9AB5CF",
"~	c #375978",
"{	c #9BB6D0",
"]	c #B2C7DB",
"^	c #AFC5DA",
"/	c #B5C9DC",
"(	c #91B0CC",
"_	c #49749C",
":	c #456F96",
"                ",
"        .       ",
"       .+.      ",
"      @#$%.     ",
"     .&*=-%.    ",
"    .&;;;--%.   ",
"   .>,'=;---%.  ",
"  ....)!;-~.... ",
"     .){{-~.    ",
"     .);!-~.    ",
"     .];!-~.    ",
"     .^=,-~.    ",
"     ./{(_:.    ",
"     .......    ",
"                ",
"                "};
