/* XPM */
static char * vcard_xpm[] = {
"24 24 71 1",
" 	c None",
".	c #959595",
"+	c #000000",
"@	c #919191",
"#	c #FDFDFD",
"$	c #FCFCFC",
"%	c #FBFBFB",
"&	c #FAFAFA",
"*	c #F9F9F9",
"=	c #F8F8F8",
"-	c #F7F7F7",
";	c #E3E3E3",
">	c #BDBDBD",
",	c #9D9C9A",
"'	c #999896",
")	c #A4A4A3",
"!	c #391414",
"~	c #B1B1B1",
"{	c #D4D4D4",
"]	c #E2E2E2",
"^	c #DCD4C7",
"/	c #C1B8A6",
"(	c #878682",
"_	c #7C7C7C",
":	c #909090",
"<	c #747474",
"[	c #818181",
"}	c #A8A8A8",
"|	c #B6B6B6",
"1	c #F6F6F6",
"2	c #7F742E",
"3	c #E1E1E1",
"4	c #959FA4",
"5	c #678690",
"6	c #9A9891",
"7	c #959490",
"8	c #F5F5F5",
"9	c #2B6776",
"0	c #294E70",
"a	c #294770",
"b	c #284D6F",
"c	c #232362",
"d	c #B1B3B4",
"e	c #979797",
"f	c #B0B0B0",
"g	c #AFAFAF",
"h	c #D3D3D3",
"i	c #D1D1D1",
"j	c #E0E0E0",
"k	c #27276C",
"l	c #28286D",
"m	c #282A6F",
"n	c #2A5A73",
"o	c #DFDFDF",
"p	c #B5B5B5",
"q	c #A2A2A2",
"r	c #727272",
"s	c #BCBCBC",
"t	c #F4F4F4",
"u	c #DEDEDE",
"v	c #D5D5D5",
"w	c #DDDDDD",
"x	c #BEBEBE",
"y	c #F3F3F3",
"z	c #DCDCDC",
"A	c #E7E7E7",
"B	c #E6E6E6",
"C	c #E5E5E5",
"D	c #E4E4E4",
"E	c #848484",
"F	c #656565",
"                        ",
"                        ",
"                        ",
"                        ",
" .++++++++++++++++++++@ ",
" +##################$#+ ",
" +#%%%%%&&&*****===--;+ ",
" +#%>>,')>&****==----;+ ",
" +#%>>!++,**~={=>----]+ ",
" +#%>>^/+(**_:<:[}||1]+ ",
" +#%>>^2+'**{=----1113+ ",
" +#&>456+7**=----11183+ ",
" +#&90abcd=*:e{fgh|i8j+ ",
" +#&0kklmn=*---111888o+ ",
" +#*****===*f}phqrsitu+ ",
" +#*vvv=|>-*-111888ttw+ ",
" +#*vxe=q--*h1g.siiiyw+ ",
" +#*===----11888tttyyz+ ",
" +;AABCCD;]]33joouwwz;+ ",
" E++++++++++++++++++++F ",
"                        ",
"                        ",
"                        ",
"                        "};
