STARTFONT 2.1
COMMENT AUTOMATICALLY GENERATED FILE. DO NOT EDIT!
COMMENT Generated with 'ucs2any lubBI14.bdf /usr/local/lib/X11/fonts/util/map-ISO8859-13 ISO8859-13'
COMMENT from an ISO10646-1 encoded source BDF font.
COMMENT ucs2any by Ben Collver <collver1@attbi.com>, 2003, based on
COMMENT ucs2any.pl by Markus Kuhn <http://www.cl.cam.ac.uk/~mgk25/>, 2000.
COMMENT $Xorg: $
COMMENT ISO10646-1 extension by Markus Kuhn <mkuhn@acm.org>, 2001-03-20
COMMENT  (c) Copyright Bigelow & Holmes 1986, 1985. Lucida is a registered
COMMENT  trademark of Bigelow & Holmes. See LEGAL NOTICE file for terms
COMMENT  of the license.
FONT -B&H-LucidaBright-DemiBold-I-Normal--14-140-75-75-P-84-ISO8859-13
SIZE 14 72 72
FONTBOUNDINGBOX 23 19 -8 -6
STARTPROPERTIES 22
COMMENT Begin LogicalFontDescription
FONTNAME_REGISTRY ""
FOUNDRY "B&H"
FAMILY_NAME "LucidaBright"
WEIGHT_NAME "DemiBold"
SLANT "I"
SETWIDTH_NAME "Normal"
ADD_STYLE_NAME ""
PIXEL_SIZE 14
POINT_SIZE 140
RESOLUTION_X 75
RESOLUTION_Y 75
SPACING "P"
AVERAGE_WIDTH 84
CHARSET_REGISTRY "ISO8859"
CHARSET_ENCODING "13"
COMMENT END LogicalFontDescription
FONT_ASCENT 13
FONT_DESCENT 3
DEFAULT_CHAR 0
COPYRIGHT "Copyright Bigelow & Holmes 1986, 1985."
FACE_NAME "Lucida Bright Demibold Italic"
X_HEIGHT 7
CAP_HEIGHT 10
ENDPROPERTIES
CHARS 192
STARTCHAR defaultchar
ENCODING 0
SWIDTH 827 0
DWIDTH 12 0
BBX 13 9 0 0
BITMAP
AAA8
0000
8008
0000
8008
0000
8008
0000
AAA8
ENDCHAR
STARTCHAR space
ENCODING 32
SWIDTH 333 0
DWIDTH 4 0
BBX 1 1 0 0
BITMAP
00
ENDCHAR
STARTCHAR exclam
ENCODING 33
SWIDTH 265 0
DWIDTH 4 0
BBX 4 10 1 0
BITMAP
30
30
20
60
60
60
40
00
C0
C0
ENDCHAR
STARTCHAR quotedbl
ENCODING 34
SWIDTH 451 0
DWIDTH 6 0
BBX 5 4 2 6
BITMAP
D8
D8
D8
90
ENDCHAR
STARTCHAR numbersign
ENCODING 35
SWIDTH 636 0
DWIDTH 9 0
BBX 9 10 1 0
BITMAP
0480
0900
0900
7F80
1200
2400
FF00
4800
4800
9000
ENDCHAR
STARTCHAR dollar
ENCODING 36
SWIDTH 636 0
DWIDTH 9 0
BBX 8 13 2 -2
BITMAP
04
1F
39
29
38
18
0C
16
96
9C
F8
20
20
ENDCHAR
STARTCHAR percent
ENCODING 37
SWIDTH 772 0
DWIDTH 11 0
BBX 10 10 1 0
BITMAP
7840
4880
C900
DA00
7400
0BC0
1A40
3640
66C0
C380
ENDCHAR
STARTCHAR ampersand
ENCODING 38
SWIDTH 773 0
DWIDTH 11 0
BBX 11 10 1 0
BITMAP
0F00
1900
1900
1E00
2DE0
CCC0
C680
C700
E300
7FC0
ENDCHAR
STARTCHAR quotesingle
ENCODING 39
SWIDTH 247 0
DWIDTH 3 0
BBX 2 4 2 6
BITMAP
C0
C0
C0
40
ENDCHAR
STARTCHAR parenleft
ENCODING 40
SWIDTH 336 0
DWIDTH 5 0
BBX 5 13 1 -3
BITMAP
08
10
20
60
60
C0
C0
C0
C0
C0
C0
40
20
ENDCHAR
STARTCHAR parenright
ENCODING 41
SWIDTH 336 0
DWIDTH 5 0
BBX 5 13 0 -3
BITMAP
10
10
18
18
18
18
18
18
10
30
20
40
80
ENDCHAR
STARTCHAR asterisk
ENCODING 42
SWIDTH 434 0
DWIDTH 6 0
BBX 5 5 2 5
BITMAP
30
A8
D0
F0
90
ENDCHAR
STARTCHAR plus
ENCODING 43
SWIDTH 636 0
DWIDTH 9 0
BBX 8 8 1 0
BITMAP
08
08
08
08
FF
10
10
10
ENDCHAR
STARTCHAR comma
ENCODING 44
SWIDTH 265 0
DWIDTH 4 0
BBX 3 5 0 -3
BITMAP
60
60
E0
40
C0
ENDCHAR
STARTCHAR hyphen
ENCODING 45
SWIDTH 289 0
DWIDTH 4 0
BBX 3 1 1 4
BITMAP
E0
ENDCHAR
STARTCHAR period
ENCODING 46
SWIDTH 265 0
DWIDTH 4 0
BBX 3 2 1 0
BITMAP
E0
E0
ENDCHAR
STARTCHAR slash
ENCODING 47
SWIDTH 515 0
DWIDTH 7 0
BBX 10 13 0 -3
BITMAP
00C0
0080
0100
0300
0200
0400
0C00
0800
1000
3000
2000
4000
C000
ENDCHAR
STARTCHAR zero
ENCODING 48
SWIDTH 623 0
DWIDTH 9 0
BBX 8 10 1 0
BITMAP
1E
33
63
63
C3
C3
C3
C6
CC
78
ENDCHAR
STARTCHAR one
ENCODING 49
SWIDTH 636 0
DWIDTH 9 0
BBX 6 10 2 0
BITMAP
3C
0C
18
18
18
18
18
30
30
FC
ENDCHAR
STARTCHAR two
ENCODING 50
SWIDTH 636 0
DWIDTH 9 0
BBX 8 10 1 0
BITMAP
1E
27
23
03
0E
18
20
40
FE
FC
ENDCHAR
STARTCHAR three
ENCODING 51
SWIDTH 636 0
DWIDTH 9 0
BBX 8 10 1 0
BITMAP
3E
23
23
06
38
06
06
86
8E
F8
ENDCHAR
STARTCHAR four
ENCODING 52
SWIDTH 636 0
DWIDTH 9 0
BBX 8 10 1 0
BITMAP
03
07
0A
16
26
46
FF
0C
0C
1E
ENDCHAR
STARTCHAR five
ENCODING 53
SWIDTH 636 0
DWIDTH 9 0
BBX 8 10 2 0
BITMAP
3F
20
20
78
0C
06
06
86
8C
F8
ENDCHAR
STARTCHAR six
ENCODING 54
SWIDTH 636 0
DWIDTH 9 0
BBX 8 10 2 0
BITMAP
0F
31
61
60
FE
E6
C3
C6
46
38
ENDCHAR
STARTCHAR seven
ENCODING 55
SWIDTH 636 0
DWIDTH 9 0
BBX 8 10 2 0
BITMAP
7F
7F
02
04
08
10
30
60
C0
C0
ENDCHAR
STARTCHAR eight
ENCODING 56
SWIDTH 636 0
DWIDTH 9 0
BBX 8 10 1 0
BITMAP
1E
33
33
32
1C
6E
C3
C3
E6
7C
ENDCHAR
STARTCHAR nine
ENCODING 57
SWIDTH 636 0
DWIDTH 9 0
BBX 8 10 1 0
BITMAP
1E
33
63
63
67
3B
07
86
8C
F8
ENDCHAR
STARTCHAR colon
ENCODING 58
SWIDTH 265 0
DWIDTH 4 0
BBX 4 7 1 0
BITMAP
30
70
00
00
00
E0
C0
ENDCHAR
STARTCHAR semicolon
ENCODING 59
SWIDTH 265 0
DWIDTH 4 0
BBX 4 10 0 -3
BITMAP
30
30
00
00
00
60
60
E0
40
C0
ENDCHAR
STARTCHAR less
ENCODING 60
SWIDTH 636 0
DWIDTH 9 0
BBX 9 8 1 0
BITMAP
0080
0300
1C00
E000
6000
1800
0600
0300
ENDCHAR
STARTCHAR equal
ENCODING 61
SWIDTH 636 0
DWIDTH 9 0
BBX 9 4 1 2
BITMAP
FF80
0000
0000
FF80
ENDCHAR
STARTCHAR greater
ENCODING 62
SWIDTH 636 0
DWIDTH 9 0
BBX 9 8 0 0
BITMAP
6000
3000
0C00
0300
0380
1C00
6000
8000
ENDCHAR
STARTCHAR question
ENCODING 63
SWIDTH 493 0
DWIDTH 7 0
BBX 6 10 2 0
BITMAP
78
CC
8C
08
10
20
60
00
C0
C0
ENDCHAR
STARTCHAR at
ENCODING 64
SWIDTH 861 0
DWIDTH 12 0
BBX 11 10 1 0
BITMAP
0F80
3060
4620
49A0
9120
9320
9720
9DC0
4200
3C00
ENDCHAR
STARTCHAR A
ENCODING 65
SWIDTH 765 0
DWIDTH 11 0
BBX 11 10 0 0
BITMAP
0100
0300
0580
0580
0980
1180
1FC0
20C0
40C0
E1E0
ENDCHAR
STARTCHAR B
ENCODING 66
SWIDTH 651 0
DWIDTH 9 0
BBX 9 10 1 0
BITMAP
3F80
1980
1180
3300
3E00
3200
3300
2300
6700
FE00
ENDCHAR
STARTCHAR C
ENCODING 67
SWIDTH 740 0
DWIDTH 10 0
BBX 10 10 1 0
BITMAP
0FC0
38C0
60C0
6000
E000
C000
C000
E000
6100
3E00
ENDCHAR
STARTCHAR D
ENCODING 68
SWIDTH 822 0
DWIDTH 11 0
BBX 11 10 1 0
BITMAP
3F80
18C0
1860
3060
3060
3060
30C0
30C0
6380
FE00
ENDCHAR
STARTCHAR E
ENCODING 69
SWIDTH 630 0
DWIDTH 9 0
BBX 9 10 1 0
BITMAP
3F80
1880
1800
3200
3E00
3200
3000
6000
6100
FE00
ENDCHAR
STARTCHAR F
ENCODING 70
SWIDTH 602 0
DWIDTH 8 0
BBX 9 10 1 0
BITMAP
3F80
1880
1000
3200
3E00
3200
3000
2000
6000
F000
ENDCHAR
STARTCHAR G
ENCODING 71
SWIDTH 780 0
DWIDTH 11 0
BBX 10 10 1 0
BITMAP
0FC0
38C0
7040
6000
E000
C7C0
C180
C380
6300
3F00
ENDCHAR
STARTCHAR H
ENCODING 72
SWIDTH 827 0
DWIDTH 12 0
BBX 13 10 0 0
BITMAP
3EF8
1870
1860
1860
3FE0
3060
30C0
30C0
70C0
FBE0
ENDCHAR
STARTCHAR I
ENCODING 73
SWIDTH 372 0
DWIDTH 5 0
BBX 6 10 1 0
BITMAP
3C
18
38
30
30
30
30
60
60
F0
ENDCHAR
STARTCHAR J
ENCODING 74
SWIDTH 478 0
DWIDTH 7 0
BBX 9 13 0 -3
BITMAP
0F80
0700
0600
0600
0600
0600
0E00
0C00
0C00
0C00
DC00
9800
F000
ENDCHAR
STARTCHAR K
ENCODING 75
SWIDTH 746 0
DWIDTH 10 0
BBX 11 10 0 0
BITMAP
3CE0
18C0
1900
3A00
3C00
3E00
3700
3300
6180
F3C0
ENDCHAR
STARTCHAR L
ENCODING 76
SWIDTH 611 0
DWIDTH 9 0
BBX 8 10 1 0
BITMAP
3C
18
18
30
30
30
30
31
61
FF
ENDCHAR
STARTCHAR M
ENCODING 77
SWIDTH 926 0
DWIDTH 13 0
BBX 14 10 0 0
BITMAP
381C
1838
1C70
2CB0
2CB0
2F30
2630
2660
4060
E0F0
ENDCHAR
STARTCHAR N
ENCODING 78
SWIDTH 797 0
DWIDTH 11 0
BBX 12 10 1 0
BITMAP
3870
1820
1C60
2C40
2640
2640
2340
2380
4180
E080
ENDCHAR
STARTCHAR O
ENCODING 79
SWIDTH 831 0
DWIDTH 12 0
BBX 11 10 2 0
BITMAP
0F80
38C0
70C0
60E0
E0E0
C0C0
C0C0
C180
6300
3C00
ENDCHAR
STARTCHAR P
ENCODING 80
SWIDTH 628 0
DWIDTH 9 0
BBX 9 10 1 0
BITMAP
3F00
1980
1180
3180
3300
3E00
3000
6000
6000
F000
ENDCHAR
STARTCHAR Q
ENCODING 81
SWIDTH 835 0
DWIDTH 12 0
BBX 12 13 2 -3
BITMAP
0F80
38C0
70C0
60E0
E0E0
C0C0
C0C0
C1C0
6380
3F00
0400
0300
00F0
ENDCHAR
STARTCHAR R
ENCODING 82
SWIDTH 711 0
DWIDTH 10 0
BBX 10 10 0 0
BITMAP
3FC0
18C0
18C0
1980
3F00
3600
3300
3300
7180
F1C0
ENDCHAR
STARTCHAR S
ENCODING 83
SWIDTH 587 0
DWIDTH 8 0
BBX 8 10 1 0
BITMAP
1F
31
71
30
38
1E
06
86
8E
F8
ENDCHAR
STARTCHAR T
ENCODING 84
SWIDTH 716 0
DWIDTH 10 0
BBX 10 10 2 0
BITMAP
FFC0
8C40
0C00
1C00
1800
1800
1800
1800
3800
7C00
ENDCHAR
STARTCHAR U
ENCODING 85
SWIDTH 775 0
DWIDTH 11 0
BBX 10 10 2 0
BITMAP
F9C0
6080
6080
6080
E100
C100
C100
C100
E200
7C00
ENDCHAR
STARTCHAR V
ENCODING 86
SWIDTH 741 0
DWIDTH 10 0
BBX 11 10 2 0
BITMAP
F0E0
6040
6080
7180
3100
3200
3600
3C00
1800
1800
ENDCHAR
STARTCHAR W
ENCODING 87
SWIDTH 922 0
DWIDTH 13 0
BBX 13 10 2 0
BITMAP
F238
6310
6720
6720
6B40
6B40
7380
7380
6300
6300
ENDCHAR
STARTCHAR X
ENCODING 88
SWIDTH 672 0
DWIDTH 9 0
BBX 11 10 0 0
BITMAP
3CE0
1840
0C80
0D00
0E00
0E00
1700
2300
4380
E780
ENDCHAR
STARTCHAR Y
ENCODING 89
SWIDTH 669 0
DWIDTH 9 0
BBX 10 10 2 0
BITMAP
F1C0
6080
7100
3200
3C00
1800
1800
3000
3000
7800
ENDCHAR
STARTCHAR Z
ENCODING 90
SWIDTH 684 0
DWIDTH 10 0
BBX 10 10 1 0
BITMAP
3FC0
2180
0300
0700
0E00
1C00
3800
3000
6180
FF00
ENDCHAR
STARTCHAR bracketleft
ENCODING 91
SWIDTH 336 0
DWIDTH 5 0
BBX 6 13 0 -3
BITMAP
1C
30
30
30
30
20
60
60
60
40
40
C0
E0
ENDCHAR
STARTCHAR backslash
ENCODING 92
SWIDTH 515 0
DWIDTH 7 0
BBX 4 13 2 -3
BITMAP
80
80
40
40
40
40
60
20
20
20
20
10
10
ENDCHAR
STARTCHAR bracketright
ENCODING 93
SWIDTH 336 0
DWIDTH 5 0
BBX 6 13 0 -3
BITMAP
1C
0C
08
18
18
18
18
10
30
30
30
30
E0
ENDCHAR
STARTCHAR asciicircum
ENCODING 94
SWIDTH 636 0
DWIDTH 9 0
BBX 8 8 1 2
BITMAP
04
04
0C
12
32
22
43
81
ENDCHAR
STARTCHAR underscore
ENCODING 95
SWIDTH 500 0
DWIDTH 7 0
BBX 6 1 0 -2
BITMAP
FC
ENDCHAR
STARTCHAR grave
ENCODING 96
SWIDTH 599 0
DWIDTH 8 0
BBX 3 2 4 8
BITMAP
C0
20
ENDCHAR
STARTCHAR a
ENCODING 97
SWIDTH 634 0
DWIDTH 9 0
BBX 8 7 1 0
BITMAP
1F
23
62
C6
CE
D6
E7
ENDCHAR
STARTCHAR b
ENCODING 98
SWIDTH 633 0
DWIDTH 9 0
BBX 8 10 1 0
BITMAP
70
30
30
67
7B
73
63
46
C4
F8
ENDCHAR
STARTCHAR c
ENCODING 99
SWIDTH 524 0
DWIDTH 7 0
BBX 7 7 1 0
BITMAP
1E
22
62
C0
C0
C4
78
ENDCHAR
STARTCHAR d
ENCODING 100
SWIDTH 634 0
DWIDTH 9 0
BBX 9 10 1 0
BITMAP
0380
0180
0300
1F00
2300
6300
C700
CE00
DE00
F700
ENDCHAR
STARTCHAR e
ENCODING 101
SWIDTH 548 0
DWIDTH 8 0
BBX 7 7 1 0
BITMAP
1C
66
4C
F8
C0
C6
7C
ENDCHAR
STARTCHAR f
ENCODING 102
SWIDTH 415 0
DWIDTH 6 0
BBX 8 14 1 -3
BITMAP
0F
19
19
30
7C
30
30
70
60
60
60
60
C0
C0
ENDCHAR
STARTCHAR g
ENCODING 103
SWIDTH 628 0
DWIDTH 9 0
BBX 9 10 0 -3
BITMAP
0F80
3180
2300
6300
E700
6B00
7700
8600
C600
F800
ENDCHAR
STARTCHAR h
ENCODING 104
SWIDTH 656 0
DWIDTH 9 0
BBX 8 10 1 0
BITMAP
70
30
30
67
6B
73
67
66
C6
C7
ENDCHAR
STARTCHAR i
ENCODING 105
SWIDTH 319 0
DWIDTH 4 0
BBX 4 10 1 0
BITMAP
30
30
00
E0
60
60
60
E0
C0
E0
ENDCHAR
STARTCHAR j
ENCODING 106
SWIDTH 381 0
DWIDTH 5 0
BBX 8 13 0 -3
BITMAP
03
03
00
0E
06
06
0E
0C
0C
0C
98
98
F0
ENDCHAR
STARTCHAR k
ENCODING 107
SWIDTH 626 0
DWIDTH 9 0
BBX 8 10 1 0
BITMAP
70
30
30
73
66
6C
78
6C
CE
C7
ENDCHAR
STARTCHAR l
ENCODING 108
SWIDTH 319 0
DWIDTH 4 0
BBX 4 10 1 0
BITMAP
70
30
70
60
60
60
60
E0
C0
E0
ENDCHAR
STARTCHAR m
ENCODING 109
SWIDTH 969 0
DWIDTH 14 0
BBX 12 7 1 0
BITMAP
E670
6FF0
77B0
6730
4660
C660
CE70
ENDCHAR
STARTCHAR n
ENCODING 110
SWIDTH 656 0
DWIDTH 9 0
BBX 8 7 1 0
BITMAP
F7
6B
73
67
66
C6
C7
ENDCHAR
STARTCHAR o
ENCODING 111
SWIDTH 599 0
DWIDTH 8 0
BBX 8 7 1 0
BITMAP
1E
23
63
C3
C6
CC
78
ENDCHAR
STARTCHAR p
ENCODING 112
SWIDTH 639 0
DWIDTH 9 0
BBX 9 10 1 -3
BITMAP
7780
3D80
3980
7180
6300
6200
7C00
6000
C000
C000
ENDCHAR
STARTCHAR q
ENCODING 113
SWIDTH 630 0
DWIDTH 9 0
BBX 8 10 1 -3
BITMAP
1F
23
63
C6
CE
DE
E6
0E
0C
0C
ENDCHAR
STARTCHAR r
ENCODING 114
SWIDTH 496 0
DWIDTH 7 0
BBX 7 7 1 0
BITMAP
E6
6C
70
60
60
C0
C0
ENDCHAR
STARTCHAR s
ENCODING 115
SWIDTH 479 0
DWIDTH 7 0
BBX 7 7 1 0
BITMAP
3E
64
70
38
9C
8C
F8
ENDCHAR
STARTCHAR t
ENCODING 116
SWIDTH 375 0
DWIDTH 5 0
BBX 5 9 1 0
BITMAP
70
60
F8
60
60
60
C0
C0
70
ENDCHAR
STARTCHAR u
ENCODING 117
SWIDTH 655 0
DWIDTH 9 0
BBX 8 7 1 0
BITMAP
E7
63
66
E6
CE
D6
EF
ENDCHAR
STARTCHAR v
ENCODING 118
SWIDTH 584 0
DWIDTH 8 0
BBX 8 7 1 0
BITMAP
E3
63
62
34
38
30
20
ENDCHAR
STARTCHAR w
ENCODING 119
SWIDTH 822 0
DWIDTH 12 0
BBX 11 7 1 0
BITMAP
E460
6660
6640
2E80
3380
3300
2200
ENDCHAR
STARTCHAR x
ENCODING 120
SWIDTH 534 0
DWIDTH 7 0
BBX 7 7 1 0
BITMAP
66
36
3C
18
38
CC
CE
ENDCHAR
STARTCHAR y
ENCODING 121
SWIDTH 586 0
DWIDTH 8 0
BBX 10 10 0 -3
BITMAP
79C0
38C0
1880
1900
1A00
0C00
0C00
0800
1000
E000
ENDCHAR
STARTCHAR z
ENCODING 122
SWIDTH 567 0
DWIDTH 8 0
BBX 8 7 1 0
BITMAP
3F
46
0C
18
30
62
FE
ENDCHAR
STARTCHAR braceleft
ENCODING 123
SWIDTH 361 0
DWIDTH 5 0
BBX 5 13 1 -3
BITMAP
38
30
30
30
30
60
C0
40
60
60
C0
C0
60
ENDCHAR
STARTCHAR bar
ENCODING 124
SWIDTH 253 0
DWIDTH 4 0
BBX 4 13 1 -3
BITMAP
10
10
20
20
20
20
60
40
40
40
40
80
80
ENDCHAR
STARTCHAR braceright
ENCODING 125
SWIDTH 361 0
DWIDTH 5 0
BBX 5 13 0 -3
BITMAP
30
18
18
30
30
10
18
30
60
60
60
60
E0
ENDCHAR
STARTCHAR asciitilde
ENCODING 126
SWIDTH 636 0
DWIDTH 9 0
BBX 8 3 1 2
BITMAP
71
99
8E
ENDCHAR
STARTCHAR space
ENCODING 160
SWIDTH 333 0
DWIDTH 4 0
BBX 1 1 0 0
BITMAP
00
ENDCHAR
STARTCHAR quotedblright
ENCODING 161
SWIDTH 464 0
DWIDTH 6 0
BBX 6 4 2 6
BITMAP
EC
6C
48
D8
ENDCHAR
STARTCHAR cent
ENCODING 162
SWIDTH 636 0
DWIDTH 9 0
BBX 7 10 2 0
BITMAP
04
1E
3A
6A
C8
C8
D0
D0
7C
20
ENDCHAR
STARTCHAR sterling
ENCODING 163
SWIDTH 636 0
DWIDTH 9 0
BBX 8 10 2 0
BITMAP
0F
19
18
30
7C
30
30
60
FC
FC
ENDCHAR
STARTCHAR currency
ENCODING 164
SWIDTH 636 0
DWIDTH 9 0
BBX 10 10 1 0
BITMAP
6040
2080
1F00
1100
2100
2100
3300
3E00
4100
8080
ENDCHAR
STARTCHAR quotedblbase
ENCODING 165
SWIDTH 464 0
DWIDTH 6 0
BBX 6 5 0 -3
BITMAP
6C
6C
EC
48
D8
ENDCHAR
STARTCHAR brokenbar
ENCODING 166
SWIDTH 253 0
DWIDTH 4 0
BBX 4 13 1 -3
BITMAP
10
10
20
20
20
20
00
40
40
40
40
80
80
ENDCHAR
STARTCHAR section
ENCODING 167
SWIDTH 636 0
DWIDTH 9 0
BBX 8 13 1 -3
BITMAP
1F
31
31
30
3C
6E
62
72
3C
0E
86
8C
F8
ENDCHAR
STARTCHAR Oslash
ENCODING 168
SWIDTH 831 0
DWIDTH 12 0
BBX 13 10 1 0
BITMAP
07D8
1860
3060
31E0
6370
6460
6860
70C0
7180
DE00
ENDCHAR
STARTCHAR copyright
ENCODING 169
SWIDTH 853 0
DWIDTH 12 0
BBX 12 10 1 0
BITMAP
1F00
20C0
4FA0
98A0
9020
9030
9020
4F20
20C0
1F00
ENDCHAR
STARTCHAR Rcommaaccent
ENCODING 170
SWIDTH 711 0
DWIDTH 10 0
BBX 10 16 0 -6
BITMAP
3FC0
18C0
18C0
1980
3F00
3600
3300
3300
7180
F1C0
0000
0C00
0C00
1C00
0800
1800
ENDCHAR
STARTCHAR guillemotleft
ENCODING 171
SWIDTH 527 0
DWIDTH 7 0
BBX 7 7 1 0
BITMAP
12
34
6C
D8
48
6C
24
ENDCHAR
STARTCHAR logicalnot
ENCODING 172
SWIDTH 636 0
DWIDTH 9 0
BBX 8 4 1 2
BITMAP
FF
01
01
02
ENDCHAR
STARTCHAR hyphen
ENCODING 173
SWIDTH 289 0
DWIDTH 4 0
BBX 3 1 1 4
BITMAP
E0
ENDCHAR
STARTCHAR registered
ENCODING 174
SWIDTH 636 0
DWIDTH 9 0
BBX 7 7 2 3
BITMAP
38
44
BA
AA
BA
44
38
ENDCHAR
STARTCHAR AE
ENCODING 175
SWIDTH 958 0
DWIDTH 13 0
BBX 15 10 0 0
BITMAP
00FE
01C2
02C0
04C8
04F8
0980
1F80
2180
418C
E7F8
ENDCHAR
STARTCHAR degree
ENCODING 176
SWIDTH 259 0
DWIDTH 4 0
BBX 2 2 3 8
BITMAP
C0
C0
ENDCHAR
STARTCHAR plusminus
ENCODING 177
SWIDTH 636 0
DWIDTH 9 0
BBX 9 8 0 0
BITMAP
0400
0400
0400
7F80
0800
0800
0000
FF00
ENDCHAR
STARTCHAR twosuperior
ENCODING 178
SWIDTH 381 0
DWIDTH 5 0
BBX 5 6 -8 4
BITMAP
78
48
18
30
40
F0
ENDCHAR
STARTCHAR threesuperior
ENCODING 179
SWIDTH 381 0
DWIDTH 5 0
BBX 5 6 -8 4
BITMAP
70
58
70
10
90
E0
ENDCHAR
STARTCHAR quotedblleft
ENCODING 180
SWIDTH 464 0
DWIDTH 6 0
BBX 6 4 2 6
BITMAP
6C
48
DC
D8
ENDCHAR
STARTCHAR mu
ENCODING 181
SWIDTH 687 0
DWIDTH 10 0
BBX 9 10 1 -3
BITMAP
7380
3180
3300
6300
6700
6B00
7780
4000
C000
C000
ENDCHAR
STARTCHAR paragraph
ENCODING 182
SWIDTH 636 0
DWIDTH 9 0
BBX 6 13 2 -3
BITMAP
7C
F4
E4
E8
68
28
28
28
48
48
48
50
50
ENDCHAR
STARTCHAR periodcentered
ENCODING 183
SWIDTH 636 0
DWIDTH 9 0
BBX 2 2 4 3
BITMAP
C0
C0
ENDCHAR
STARTCHAR oslash
ENCODING 184
SWIDTH 599 0
DWIDTH 8 0
BBX 9 7 1 0
BITMAP
0E80
3300
6700
6B00
7300
6600
F800
ENDCHAR
STARTCHAR onesuperior
ENCODING 185
SWIDTH 381 0
DWIDTH 5 0
BBX 3 6 -8 4
BITMAP
60
20
20
40
40
E0
ENDCHAR
STARTCHAR rcommaaccent
ENCODING 186
SWIDTH 496 0
DWIDTH 7 0
BBX 7 13 1 -6
BITMAP
E6
6C
70
60
60
C0
C0
00
60
60
E0
40
C0
ENDCHAR
STARTCHAR guillemotright
ENCODING 187
SWIDTH 527 0
DWIDTH 7 0
BBX 7 7 1 0
BITMAP
48
6C
24
36
6C
58
90
ENDCHAR
STARTCHAR onequarter
ENCODING 188
SWIDTH 818 0
DWIDTH 11 0
BBX 11 10 2 0
BITMAP
6060
20C0
2180
4300
46C0
EDC0
1A80
37C0
6080
C1C0
ENDCHAR
STARTCHAR onehalf
ENCODING 189
SWIDTH 818 0
DWIDTH 11 0
BBX 11 10 2 0
BITMAP
6060
20C0
2180
4300
47C0
EE40
18C0
3180
6200
C780
ENDCHAR
STARTCHAR threequarters
ENCODING 190
SWIDTH 818 0
DWIDTH 11 0
BBX 12 10 3 0
BITMAP
7030
5860
70C0
1180
9360
E6E0
0D40
1BE0
3040
60E0
ENDCHAR
STARTCHAR ae
ENCODING 191
SWIDTH 905 0
DWIDTH 13 0
BBX 12 7 1 0
BITMAP
1FF0
2330
6330
C7C0
CE00
D310
E3E0
ENDCHAR
STARTCHAR Aogonek
ENCODING 192
SWIDTH 765 0
DWIDTH 11 0
BBX 11 13 0 -3
BITMAP
0100
0300
0580
0580
0980
1180
1FC0
20C0
40C0
E1E0
0000
0400
0E00
ENDCHAR
STARTCHAR Iogonek
ENCODING 193
SWIDTH 372 0
DWIDTH 5 0
BBX 6 13 1 -3
BITMAP
3C
18
38
30
30
30
30
60
60
F0
00
20
70
ENDCHAR
STARTCHAR Amacron
ENCODING 194
SWIDTH 765 0
DWIDTH 11 0
BBX 11 12 0 0
BITMAP
0780
0000
0100
0300
0580
0580
0980
1180
1FC0
20C0
40C0
E1E0
ENDCHAR
STARTCHAR Cacute
ENCODING 195
SWIDTH 740 0
DWIDTH 10 0
BBX 10 13 1 0
BITMAP
0700
0C00
0000
0FC0
38C0
60C0
6000
E000
C000
C000
E000
6100
3E00
ENDCHAR
STARTCHAR Adieresis
ENCODING 196
SWIDTH 765 0
DWIDTH 11 0
BBX 11 12 0 0
BITMAP
06C0
0000
0100
0300
0580
0580
0980
1180
1FC0
20C0
40C0
E1E0
ENDCHAR
STARTCHAR Aring
ENCODING 197
SWIDTH 765 0
DWIDTH 11 0
BBX 11 13 0 0
BITMAP
0180
0180
0000
0100
0300
0580
0580
0980
1180
1FC0
20C0
40C0
E1E0
ENDCHAR
STARTCHAR Eogonek
ENCODING 198
SWIDTH 630 0
DWIDTH 9 0
BBX 9 13 1 -3
BITMAP
3F80
1880
1800
3200
3E00
3200
3000
6000
6100
FE00
0000
1000
3800
ENDCHAR
STARTCHAR Emacron
ENCODING 199
SWIDTH 630 0
DWIDTH 9 0
BBX 9 12 1 0
BITMAP
1E00
0000
3F80
1880
1800
3200
3E00
3200
3000
6000
6100
FE00
ENDCHAR
STARTCHAR Ccaron
ENCODING 200
SWIDTH 740 0
DWIDTH 10 0
BBX 10 13 1 0
BITMAP
0980
0600
0000
0FC0
38C0
60C0
6000
E000
C000
C000
E000
6100
3E00
ENDCHAR
STARTCHAR Eacute
ENCODING 201
SWIDTH 630 0
DWIDTH 9 0
BBX 9 13 1 0
BITMAP
0380
0600
0000
3F80
1880
1800
3200
3E00
3200
3000
6000
6100
FE00
ENDCHAR
STARTCHAR Zacute
ENCODING 202
SWIDTH 684 0
DWIDTH 10 0
BBX 10 13 1 0
BITMAP
0700
0C00
0000
3FC0
2180
0300
0700
0E00
1C00
3800
3000
6180
FF00
ENDCHAR
STARTCHAR Edotaccent
ENCODING 203
SWIDTH 630 0
DWIDTH 9 0
BBX 9 13 1 0
BITMAP
0C00
0C00
0000
3F80
1880
1800
3200
3E00
3200
3000
6000
6100
FE00
ENDCHAR
STARTCHAR Gcommaaccent
ENCODING 204
SWIDTH 780 0
DWIDTH 11 0
BBX 10 16 1 -6
BITMAP
0FC0
38C0
7040
6000
E000
C7C0
C180
C380
6300
3F00
0000
0C00
0C00
1C00
0800
1800
ENDCHAR
STARTCHAR Kcommaaccent
ENCODING 205
SWIDTH 746 0
DWIDTH 10 0
BBX 11 16 0 -6
BITMAP
3CE0
18C0
1900
3A00
3C00
3E00
3700
3300
6180
F3C0
0000
0C00
0C00
1C00
0800
1800
ENDCHAR
STARTCHAR Imacron
ENCODING 206
SWIDTH 372 0
DWIDTH 5 0
BBX 6 12 1 0
BITMAP
3C
00
3C
18
38
30
30
30
30
60
60
F0
ENDCHAR
STARTCHAR Lcommaaccent
ENCODING 207
SWIDTH 611 0
DWIDTH 9 0
BBX 8 16 1 -6
BITMAP
3C
18
18
30
30
30
30
31
61
FF
00
18
18
38
10
30
ENDCHAR
STARTCHAR Scaron
ENCODING 208
SWIDTH 587 0
DWIDTH 8 0
BBX 8 13 1 0
BITMAP
13
0C
00
1F
31
71
30
38
1E
06
86
8E
F8
ENDCHAR
STARTCHAR Nacute
ENCODING 209
SWIDTH 797 0
DWIDTH 11 0
BBX 12 13 1 0
BITMAP
0380
0600
0000
3870
1820
1C60
2C40
2640
2640
2340
2380
4180
E080
ENDCHAR
STARTCHAR Ncommaaccent
ENCODING 210
SWIDTH 797 0
DWIDTH 11 0
BBX 12 16 1 -6
BITMAP
3870
1820
1C60
2C40
2640
2640
2340
2380
4180
E080
0000
0600
0600
0E00
0400
0C00
ENDCHAR
STARTCHAR Oacute
ENCODING 211
SWIDTH 831 0
DWIDTH 12 0
BBX 11 13 2 0
BITMAP
0380
0600
0000
0F80
38C0
70C0
60E0
E0E0
C0C0
C0C0
C180
6300
3C00
ENDCHAR
STARTCHAR Omacron
ENCODING 212
SWIDTH 831 0
DWIDTH 12 0
BBX 11 12 2 0
BITMAP
0F00
0000
0F80
38C0
70C0
60E0
E0E0
C0C0
C0C0
C180
6300
3C00
ENDCHAR
STARTCHAR Otilde
ENCODING 213
SWIDTH 831 0
DWIDTH 12 0
BBX 11 13 2 0
BITMAP
0680
0B00
0000
0F80
38C0
70C0
60E0
E0E0
C0C0
C0C0
C180
6300
3C00
ENDCHAR
STARTCHAR Odieresis
ENCODING 214
SWIDTH 831 0
DWIDTH 12 0
BBX 11 12 2 0
BITMAP
0D80
0000
0F80
38C0
70C0
60E0
E0E0
C0C0
C0C0
C180
6300
3C00
ENDCHAR
STARTCHAR multiply
ENCODING 215
SWIDTH 636 0
DWIDTH 9 0
BBX 9 8 1 0
BITMAP
6080
2100
1200
1C00
1C00
2400
4200
8300
ENDCHAR
STARTCHAR Uogonek
ENCODING 216
SWIDTH 775 0
DWIDTH 11 0
BBX 10 13 2 -3
BITMAP
F9C0
6080
6080
6080
E100
C100
C100
C100
E200
7C00
0000
1000
3800
ENDCHAR
STARTCHAR Lslash
ENCODING 217
SWIDTH 611 0
DWIDTH 9 0
BBX 8 10 1 0
BITMAP
3C
18
18
30
7C
B0
30
31
61
FF
ENDCHAR
STARTCHAR Sacute
ENCODING 218
SWIDTH 587 0
DWIDTH 8 0
BBX 8 13 1 0
BITMAP
0E
18
00
1F
31
71
30
38
1E
06
86
8E
F8
ENDCHAR
STARTCHAR Umacron
ENCODING 219
SWIDTH 775 0
DWIDTH 11 0
BBX 10 12 2 0
BITMAP
1E00
0000
F9C0
6080
6080
6080
E100
C100
C100
C100
E200
7C00
ENDCHAR
STARTCHAR Udieresis
ENCODING 220
SWIDTH 775 0
DWIDTH 11 0
BBX 10 12 2 0
BITMAP
1B00
0000
F9C0
6080
6080
6080
E100
C100
C100
C100
E200
7C00
ENDCHAR
STARTCHAR Zdotaccent
ENCODING 221
SWIDTH 684 0
DWIDTH 10 0
BBX 10 13 1 0
BITMAP
0600
0600
0000
3FC0
2180
0300
0700
0E00
1C00
3800
3000
6180
FF00
ENDCHAR
STARTCHAR Zcaron
ENCODING 222
SWIDTH 684 0
DWIDTH 10 0
BBX 10 13 1 0
BITMAP
0980
0600
0000
3FC0
2180
0300
0700
0E00
1C00
3800
3000
6180
FF00
ENDCHAR
STARTCHAR germandbls
ENCODING 223
SWIDTH 656 0
DWIDTH 9 0
BBX 8 14 1 -3
BITMAP
1E
13
32
34
34
3C
66
67
63
6B
7E
C0
C0
C0
ENDCHAR
STARTCHAR aogonek
ENCODING 224
SWIDTH 634 0
DWIDTH 9 0
BBX 8 10 1 -3
BITMAP
1F
23
62
C6
CE
D6
E7
00
10
38
ENDCHAR
STARTCHAR iogonek
ENCODING 225
SWIDTH 319 0
DWIDTH 4 0
BBX 4 13 1 -3
BITMAP
30
30
00
E0
60
60
60
E0
C0
E0
00
40
E0
ENDCHAR
STARTCHAR amacron
ENCODING 226
SWIDTH 634 0
DWIDTH 9 0
BBX 8 9 1 0
BITMAP
1E
00
1F
23
62
C6
CE
D6
E7
ENDCHAR
STARTCHAR cacute
ENCODING 227
SWIDTH 524 0
DWIDTH 7 0
BBX 7 10 1 0
BITMAP
0E
18
00
1E
22
62
C0
C0
C4
78
ENDCHAR
STARTCHAR adieresis
ENCODING 228
SWIDTH 634 0
DWIDTH 9 0
BBX 8 9 1 0
BITMAP
1B
00
1F
23
62
C6
CE
D6
E7
ENDCHAR
STARTCHAR aring
ENCODING 229
SWIDTH 634 0
DWIDTH 9 0
BBX 8 10 1 0
BITMAP
06
06
00
1F
23
62
C6
CE
D6
E7
ENDCHAR
STARTCHAR eogonek
ENCODING 230
SWIDTH 548 0
DWIDTH 8 0
BBX 7 10 1 -3
BITMAP
1C
66
4C
F8
C0
C6
7C
00
10
38
ENDCHAR
STARTCHAR emacron
ENCODING 231
SWIDTH 548 0
DWIDTH 8 0
BBX 7 9 1 0
BITMAP
3C
00
1C
66
4C
F8
C0
C6
7C
ENDCHAR
STARTCHAR ccaron
ENCODING 232
SWIDTH 524 0
DWIDTH 7 0
BBX 7 10 1 0
BITMAP
26
18
00
1E
22
62
C0
C0
C4
78
ENDCHAR
STARTCHAR eacute
ENCODING 233
SWIDTH 548 0
DWIDTH 8 0
BBX 7 10 1 0
BITMAP
0E
18
00
1C
66
4C
F8
C0
C6
7C
ENDCHAR
STARTCHAR zacute
ENCODING 234
SWIDTH 567 0
DWIDTH 8 0
BBX 8 10 1 0
BITMAP
0E
18
00
3F
46
0C
18
30
62
FE
ENDCHAR
STARTCHAR edotaccent
ENCODING 235
SWIDTH 548 0
DWIDTH 8 0
BBX 7 10 1 0
BITMAP
18
18
00
1C
66
4C
F8
C0
C6
7C
ENDCHAR
STARTCHAR gcommaaccent
ENCODING 236
SWIDTH 628 0
DWIDTH 9 0
BBX 9 15 0 -3
BITMAP
0600
0400
0E00
0C00
0000
0F80
3180
2300
6300
E700
6B00
7700
8600
C600
F800
ENDCHAR
STARTCHAR kcommaaccent
ENCODING 237
SWIDTH 626 0
DWIDTH 9 0
BBX 8 16 1 -6
BITMAP
70
30
30
73
66
6C
78
6C
CE
C7
00
18
18
38
10
30
ENDCHAR
STARTCHAR imacron
ENCODING 238
SWIDTH 319 0
DWIDTH 4 0
BBX 4 9 1 0
BITMAP
F0
00
F0
70
60
60
60
E0
F0
ENDCHAR
STARTCHAR lcommaaccent
ENCODING 239
SWIDTH 319 0
DWIDTH 4 0
BBX 4 16 1 -6
BITMAP
70
30
70
60
60
60
60
E0
C0
E0
00
60
60
E0
40
C0
ENDCHAR
STARTCHAR scaron
ENCODING 240
SWIDTH 479 0
DWIDTH 7 0
BBX 8 10 1 0
BITMAP
13
0C
00
3E
64
70
38
9C
8C
F8
ENDCHAR
STARTCHAR nacute
ENCODING 241
SWIDTH 656 0
DWIDTH 9 0
BBX 8 10 1 0
BITMAP
0E
18
00
F7
6B
73
67
66
C6
C7
ENDCHAR
STARTCHAR ncommaaccent
ENCODING 242
SWIDTH 656 0
DWIDTH 9 0
BBX 8 13 1 -6
BITMAP
F7
6B
73
67
66
C6
C7
00
18
18
38
10
30
ENDCHAR
STARTCHAR oacute
ENCODING 243
SWIDTH 599 0
DWIDTH 8 0
BBX 8 10 1 0
BITMAP
07
0C
00
1E
23
63
C3
C6
CC
78
ENDCHAR
STARTCHAR omacron
ENCODING 244
SWIDTH 599 0
DWIDTH 8 0
BBX 8 9 1 0
BITMAP
1E
00
1E
23
63
C3
C6
CC
78
ENDCHAR
STARTCHAR otilde
ENCODING 245
SWIDTH 599 0
DWIDTH 8 0
BBX 8 10 1 0
BITMAP
0D
16
00
1E
23
63
C3
C6
CC
78
ENDCHAR
STARTCHAR odieresis
ENCODING 246
SWIDTH 599 0
DWIDTH 8 0
BBX 8 9 1 0
BITMAP
1B
00
1E
23
63
C3
C6
CC
78
ENDCHAR
STARTCHAR divide
ENCODING 247
SWIDTH 636 0
DWIDTH 9 0
BBX 8 7 1 0
BITMAP
08
00
00
FF
00
00
10
ENDCHAR
STARTCHAR uogonek
ENCODING 248
SWIDTH 655 0
DWIDTH 9 0
BBX 8 10 1 -3
BITMAP
E7
63
66
E6
CE
D6
EF
00
10
38
ENDCHAR
STARTCHAR lslash
ENCODING 249
SWIDTH 319 0
DWIDTH 4 0
BBX 5 10 1 0
BITMAP
70
30
30
30
38
E0
60
60
60
F0
ENDCHAR
STARTCHAR sacute
ENCODING 250
SWIDTH 479 0
DWIDTH 7 0
BBX 7 10 1 0
BITMAP
0E
18
00
3E
64
70
38
9C
8C
F8
ENDCHAR
STARTCHAR umacron
ENCODING 251
SWIDTH 655 0
DWIDTH 9 0
BBX 8 9 1 0
BITMAP
3C
00
E7
63
66
E6
CE
D6
EF
ENDCHAR
STARTCHAR udieresis
ENCODING 252
SWIDTH 655 0
DWIDTH 9 0
BBX 8 9 1 0
BITMAP
1B
00
E7
63
66
E6
CE
D6
EF
ENDCHAR
STARTCHAR zdotaccent
ENCODING 253
SWIDTH 567 0
DWIDTH 8 0
BBX 8 10 1 0
BITMAP
0C
0C
00
3F
46
0C
18
30
62
FE
ENDCHAR
STARTCHAR zcaron
ENCODING 254
SWIDTH 567 0
DWIDTH 8 0
BBX 8 10 1 0
BITMAP
13
0C
00
3F
46
0C
18
30
62
FE
ENDCHAR
STARTCHAR quoteright
ENCODING 255
SWIDTH 265 0
DWIDTH 4 0
BBX 3 4 2 6
BITMAP
60
E0
40
C0
ENDCHAR
ENDFONT
