STARTFONT 2.1
COMMENT AUTOMATICALLY GENERATED FILE. DO NOT EDIT!
COMMENT Generated with 'ucs2any lubB10.bdf /usr/local/lib/X11/fonts/util/map-ISO8859-4 ISO8859-4'
COMMENT from an ISO10646-1 encoded source BDF font.
COMMENT ucs2any by Ben Collver <collver1@attbi.com>, 2003, based on
COMMENT ucs2any.pl by Markus Kuhn <http://www.cl.cam.ac.uk/~mgk25/>, 2000.
COMMENT $Xorg: $
COMMENT ISO10646-1 extension by Markus Kuhn <mkuhn@acm.org>, 2001-03-20
COMMENT  (c) Copyright Bigelow & Holmes 1986, 1985. Lucida is a registered
COMMENT  trademark of Bigelow & Holmes. See LEGAL NOTICE file for terms
COMMENT  of the license.
FONT -B&H-LucidaBright-DemiBold-R-Normal--10-100-75-75-P-59-ISO8859-4
SIZE 10 72 72
FONTBOUNDINGBOX 10 15 0 -5
STARTPROPERTIES 22
COMMENT Begin LogicalFontDescription
FONTNAME_REGISTRY ""
FOUNDRY "B&H"
FAMILY_NAME "LucidaBright"
WEIGHT_NAME "DemiBold"
SLANT "R"
SETWIDTH_NAME "Normal"
ADD_STYLE_NAME ""
PIXEL_SIZE 10
POINT_SIZE 100
RESOLUTION_X 75
RESOLUTION_Y 75
SPACING "P"
AVERAGE_WIDTH 59
CHARSET_REGISTRY "ISO8859"
CHARSET_ENCODING "4"
COMMENT END LogicalFontDescription
FONT_ASCENT 9
FONT_DESCENT 3
DEFAULT_CHAR 0
COPYRIGHT "Copyright Bigelow & Holmes 1986, 1985."
FACE_NAME "Lucida Bright Demibold"
X_HEIGHT 5
CAP_HEIGHT 8
ENDPROPERTIES
CHARS 192
STARTCHAR defaultchar
ENCODING 0
SWIDTH 798 0
DWIDTH 8 0
BBX 7 7 0 0
BITMAP
AA
00
82
00
82
00
AA
ENDCHAR
STARTCHAR space
ENCODING 32
SWIDTH 333 0
DWIDTH 3 0
BBX 1 1 0 0
BITMAP
00
ENDCHAR
STARTCHAR exclam
ENCODING 33
SWIDTH 265 0
DWIDTH 3 0
BBX 1 8 1 0
BITMAP
80
80
80
80
80
80
00
80
ENDCHAR
STARTCHAR quotedbl
ENCODING 34
SWIDTH 461 0
DWIDTH 5 0
BBX 3 4 1 4
BITMAP
A0
A0
A0
A0
ENDCHAR
STARTCHAR numbersign
ENCODING 35
SWIDTH 663 0
DWIDTH 7 0
BBX 6 8 0 0
BITMAP
28
28
FC
28
50
FC
50
50
ENDCHAR
STARTCHAR dollar
ENCODING 36
SWIDTH 623 0
DWIDTH 6 0
BBX 4 9 1 -1
BITMAP
70
B0
A0
60
30
30
B0
F0
20
ENDCHAR
STARTCHAR percent
ENCODING 37
SWIDTH 759 0
DWIDTH 8 0
BBX 6 8 1 0
BITMAP
44
A8
B8
50
28
74
54
88
ENDCHAR
STARTCHAR ampersand
ENCODING 38
SWIDTH 765 0
DWIDTH 8 0
BBX 7 8 0 0
BITMAP
30
48
78
B6
94
9C
CC
76
ENDCHAR
STARTCHAR quotesingle
ENCODING 39
SWIDTH 253 0
DWIDTH 3 0
BBX 3 4 0 4
BITMAP
E0
E0
40
40
ENDCHAR
STARTCHAR parenleft
ENCODING 40
SWIDTH 327 0
DWIDTH 3 0
BBX 2 10 1 -2
BITMAP
40
80
80
80
80
80
80
80
80
40
ENDCHAR
STARTCHAR parenright
ENCODING 41
SWIDTH 327 0
DWIDTH 3 0
BBX 2 10 1 -2
BITMAP
80
40
40
40
40
40
40
40
40
80
ENDCHAR
STARTCHAR asterisk
ENCODING 42
SWIDTH 434 0
DWIDTH 4 0
BBX 4 3 0 5
BITMAP
60
F0
F0
ENDCHAR
STARTCHAR plus
ENCODING 43
SWIDTH 623 0
DWIDTH 6 0
BBX 7 7 0 0
BITMAP
10
10
10
FE
10
10
10
ENDCHAR
STARTCHAR comma
ENCODING 44
SWIDTH 265 0
DWIDTH 3 0
BBX 2 4 0 -2
BITMAP
C0
C0
40
C0
ENDCHAR
STARTCHAR hyphen
ENCODING 45
SWIDTH 289 0
DWIDTH 3 0
BBX 2 1 0 2
BITMAP
C0
ENDCHAR
STARTCHAR period
ENCODING 46
SWIDTH 265 0
DWIDTH 3 0
BBX 2 1 0 0
BITMAP
C0
ENDCHAR
STARTCHAR slash
ENCODING 47
SWIDTH 527 0
DWIDTH 5 0
BBX 5 10 0 -2
BITMAP
08
18
10
10
20
20
40
40
C0
80
ENDCHAR
STARTCHAR zero
ENCODING 48
SWIDTH 623 0
DWIDTH 6 0
BBX 6 8 0 0
BITMAP
78
48
84
84
84
84
48
78
ENDCHAR
STARTCHAR one
ENCODING 49
SWIDTH 623 0
DWIDTH 6 0
BBX 3 8 2 0
BITMAP
C0
40
40
40
40
40
40
E0
ENDCHAR
STARTCHAR two
ENCODING 50
SWIDTH 623 0
DWIDTH 6 0
BBX 4 8 1 0
BITMAP
E0
90
10
10
20
40
80
F0
ENDCHAR
STARTCHAR three
ENCODING 51
SWIDTH 623 0
DWIDTH 6 0
BBX 4 8 1 0
BITMAP
E0
90
10
60
10
10
90
E0
ENDCHAR
STARTCHAR four
ENCODING 52
SWIDTH 623 0
DWIDTH 6 0
BBX 5 8 0 0
BITMAP
30
30
50
90
F8
10
10
38
ENDCHAR
STARTCHAR five
ENCODING 53
SWIDTH 623 0
DWIDTH 6 0
BBX 4 8 1 0
BITMAP
F0
80
80
E0
30
10
90
E0
ENDCHAR
STARTCHAR six
ENCODING 54
SWIDTH 623 0
DWIDTH 6 0
BBX 5 8 1 0
BITMAP
38
48
80
F0
88
88
88
70
ENDCHAR
STARTCHAR seven
ENCODING 55
SWIDTH 623 0
DWIDTH 6 0
BBX 5 8 1 0
BITMAP
F8
08
10
20
60
40
C0
80
ENDCHAR
STARTCHAR eight
ENCODING 56
SWIDTH 623 0
DWIDTH 6 0
BBX 5 8 1 0
BITMAP
70
88
88
70
98
88
88
70
ENDCHAR
STARTCHAR nine
ENCODING 57
SWIDTH 623 0
DWIDTH 6 0
BBX 5 8 1 0
BITMAP
70
98
88
88
78
08
90
E0
ENDCHAR
STARTCHAR colon
ENCODING 58
SWIDTH 265 0
DWIDTH 3 0
BBX 1 5 1 0
BITMAP
80
00
00
00
80
ENDCHAR
STARTCHAR semicolon
ENCODING 59
SWIDTH 265 0
DWIDTH 3 0
BBX 1 7 1 -2
BITMAP
80
00
00
00
80
80
80
ENDCHAR
STARTCHAR less
ENCODING 60
SWIDTH 623 0
DWIDTH 6 0
BBX 6 7 0 0
BITMAP
04
18
30
C0
30
18
04
ENDCHAR
STARTCHAR equal
ENCODING 61
SWIDTH 623 0
DWIDTH 6 0
BBX 6 3 0 1
BITMAP
FC
00
FC
ENDCHAR
STARTCHAR greater
ENCODING 62
SWIDTH 623 0
DWIDTH 6 0
BBX 6 7 0 0
BITMAP
80
60
30
0C
30
60
80
ENDCHAR
STARTCHAR question
ENCODING 63
SWIDTH 505 0
DWIDTH 5 0
BBX 4 8 1 0
BITMAP
E0
90
10
30
40
40
00
40
ENDCHAR
STARTCHAR at
ENCODING 64
SWIDTH 861 0
DWIDTH 9 0
BBX 8 8 1 0
BITMAP
1E
63
59
AD
AD
B6
C0
78
ENDCHAR
STARTCHAR A
ENCODING 65
SWIDTH 795 0
DWIDTH 8 0
BBX 8 8 0 0
BITMAP
10
18
38
24
7C
46
C2
C7
ENDCHAR
STARTCHAR B
ENCODING 66
SWIDTH 639 0
DWIDTH 6 0
BBX 6 8 0 0
BITMAP
F8
44
44
78
48
44
44
F8
ENDCHAR
STARTCHAR C
ENCODING 67
SWIDTH 711 0
DWIDTH 7 0
BBX 6 8 1 0
BITMAP
3C
44
80
80
80
80
44
3C
ENDCHAR
STARTCHAR D
ENCODING 68
SWIDTH 794 0
DWIDTH 8 0
BBX 8 8 0 0
BITMAP
FC
42
41
41
41
41
42
FC
ENDCHAR
STARTCHAR E
ENCODING 69
SWIDTH 601 0
DWIDTH 6 0
BBX 6 8 0 0
BITMAP
FC
44
48
78
48
40
44
FC
ENDCHAR
STARTCHAR F
ENCODING 70
SWIDTH 584 0
DWIDTH 6 0
BBX 6 8 0 0
BITMAP
FC
44
48
78
48
40
40
E0
ENDCHAR
STARTCHAR G
ENCODING 71
SWIDTH 753 0
DWIDTH 8 0
BBX 7 8 0 0
BITMAP
3C
44
80
80
8E
84
44
3C
ENDCHAR
STARTCHAR H
ENCODING 72
SWIDTH 798 0
DWIDTH 8 0
BBX 8 8 0 0
BITMAP
E7
42
42
7E
42
42
42
E7
ENDCHAR
STARTCHAR I
ENCODING 73
SWIDTH 349 0
DWIDTH 3 0
BBX 3 8 0 0
BITMAP
E0
40
40
40
40
40
40
E0
ENDCHAR
STARTCHAR J
ENCODING 74
SWIDTH 452 0
DWIDTH 5 0
BBX 4 10 0 -2
BITMAP
70
20
20
20
20
20
20
20
A0
E0
ENDCHAR
STARTCHAR K
ENCODING 75
SWIDTH 747 0
DWIDTH 7 0
BBX 7 8 0 0
BITMAP
EC
4C
58
60
50
58
4C
EE
ENDCHAR
STARTCHAR L
ENCODING 76
SWIDTH 584 0
DWIDTH 6 0
BBX 5 8 0 0
BITMAP
E0
40
40
40
40
40
48
F8
ENDCHAR
STARTCHAR M
ENCODING 77
SWIDTH 904 0
DWIDTH 9 0
BBX 9 8 0 0
BITMAP
E380
6300
7300
5500
5500
4900
4900
E380
ENDCHAR
STARTCHAR N
ENCODING 78
SWIDTH 788 0
DWIDTH 8 0
BBX 8 8 0 0
BITMAP
C7
62
62
52
4A
4E
46
E2
ENDCHAR
STARTCHAR O
ENCODING 79
SWIDTH 810 0
DWIDTH 8 0
BBX 7 8 1 0
BITMAP
38
44
82
82
82
82
44
38
ENDCHAR
STARTCHAR P
ENCODING 80
SWIDTH 614 0
DWIDTH 6 0
BBX 6 8 0 0
BITMAP
F8
44
44
44
78
40
40
E0
ENDCHAR
STARTCHAR Q
ENCODING 81
SWIDTH 810 0
DWIDTH 8 0
BBX 8 10 1 -2
BITMAP
38
44
82
82
82
82
46
3C
06
03
ENDCHAR
STARTCHAR R
ENCODING 82
SWIDTH 720 0
DWIDTH 7 0
BBX 7 8 0 0
BITMAP
F8
44
44
48
78
48
4C
E6
ENDCHAR
STARTCHAR S
ENCODING 83
SWIDTH 556 0
DWIDTH 6 0
BBX 4 8 1 0
BITMAP
70
90
80
40
30
10
90
E0
ENDCHAR
STARTCHAR T
ENCODING 84
SWIDTH 714 0
DWIDTH 7 0
BBX 7 8 0 0
BITMAP
FE
10
10
10
10
10
10
38
ENDCHAR
STARTCHAR U
ENCODING 85
SWIDTH 747 0
DWIDTH 7 0
BBX 8 8 0 0
BITMAP
E7
42
42
42
42
42
42
3C
ENDCHAR
STARTCHAR V
ENCODING 86
SWIDTH 753 0
DWIDTH 8 0
BBX 8 8 0 0
BITMAP
E3
62
22
26
14
14
18
08
ENDCHAR
STARTCHAR W
ENCODING 87
SWIDTH 955 0
DWIDTH 10 0
BBX 10 8 0 0
BITMAP
E4C0
4C80
4C80
2C80
3B00
3300
3300
1200
ENDCHAR
STARTCHAR X
ENCODING 88
SWIDTH 702 0
DWIDTH 7 0
BBX 7 8 0 0
BITMAP
E6
64
2C
18
38
68
44
CE
ENDCHAR
STARTCHAR Y
ENCODING 89
SWIDTH 717 0
DWIDTH 7 0
BBX 7 8 0 0
BITMAP
E6
66
24
18
10
10
10
38
ENDCHAR
STARTCHAR Z
ENCODING 90
SWIDTH 639 0
DWIDTH 6 0
BBX 5 8 1 0
BITMAP
F8
90
10
20
20
40
48
F8
ENDCHAR
STARTCHAR bracketleft
ENCODING 91
SWIDTH 327 0
DWIDTH 3 0
BBX 2 10 1 -2
BITMAP
C0
80
80
80
80
80
80
80
80
C0
ENDCHAR
STARTCHAR backslash
ENCODING 92
SWIDTH 527 0
DWIDTH 5 0
BBX 5 10 0 -2
BITMAP
80
C0
40
40
20
20
10
10
18
08
ENDCHAR
STARTCHAR bracketright
ENCODING 93
SWIDTH 327 0
DWIDTH 3 0
BBX 2 10 0 -2
BITMAP
C0
40
40
40
40
40
40
40
40
C0
ENDCHAR
STARTCHAR asciicircum
ENCODING 94
SWIDTH 623 0
DWIDTH 6 0
BBX 6 7 0 1
BITMAP
10
30
30
48
48
48
84
ENDCHAR
STARTCHAR underscore
ENCODING 95
SWIDTH 500 0
DWIDTH 5 0
BBX 4 1 1 -1
BITMAP
F0
ENDCHAR
STARTCHAR grave
ENCODING 96
SWIDTH 617 0
DWIDTH 6 0
BBX 2 1 2 7
BITMAP
C0
ENDCHAR
STARTCHAR a
ENCODING 97
SWIDTH 556 0
DWIDTH 6 0
BBX 5 5 0 0
BITMAP
F0
10
F0
90
F8
ENDCHAR
STARTCHAR b
ENCODING 98
SWIDTH 640 0
DWIDTH 6 0
BBX 6 8 0 0
BITMAP
C0
40
40
78
44
44
44
78
ENDCHAR
STARTCHAR c
ENCODING 99
SWIDTH 541 0
DWIDTH 5 0
BBX 5 5 0 0
BITMAP
78
88
80
C0
78
ENDCHAR
STARTCHAR d
ENCODING 100
SWIDTH 652 0
DWIDTH 7 0
BBX 6 8 0 0
BITMAP
18
08
08
78
88
88
88
7C
ENDCHAR
STARTCHAR e
ENCODING 101
SWIDTH 568 0
DWIDTH 6 0
BBX 5 5 0 0
BITMAP
70
88
F8
80
78
ENDCHAR
STARTCHAR f
ENCODING 102
SWIDTH 416 0
DWIDTH 4 0
BBX 4 8 0 0
BITMAP
70
50
40
E0
40
40
40
E0
ENDCHAR
STARTCHAR g
ENCODING 103
SWIDTH 599 0
DWIDTH 6 0
BBX 5 7 1 -2
BITMAP
78
90
90
60
F8
88
F0
ENDCHAR
STARTCHAR h
ENCODING 104
SWIDTH 654 0
DWIDTH 7 0
BBX 7 8 0 0
BITMAP
C0
40
40
7C
44
44
44
EE
ENDCHAR
STARTCHAR i
ENCODING 105
SWIDTH 325 0
DWIDTH 3 0
BBX 3 8 0 0
BITMAP
40
00
00
C0
40
40
40
E0
ENDCHAR
STARTCHAR j
ENCODING 106
SWIDTH 355 0
DWIDTH 4 0
BBX 3 10 0 -2
BITMAP
20
00
00
60
20
20
20
20
A0
E0
ENDCHAR
STARTCHAR k
ENCODING 107
SWIDTH 654 0
DWIDTH 6 0
BBX 6 8 0 0
BITMAP
C0
40
40
5C
58
60
50
EC
ENDCHAR
STARTCHAR l
ENCODING 108
SWIDTH 325 0
DWIDTH 3 0
BBX 3 8 0 0
BITMAP
C0
40
40
40
40
40
40
E0
ENDCHAR
STARTCHAR m
ENCODING 109
SWIDTH 967 0
DWIDTH 10 0
BBX 9 5 0 0
BITMAP
FF00
4900
4900
4900
FF80
ENDCHAR
STARTCHAR n
ENCODING 110
SWIDTH 654 0
DWIDTH 7 0
BBX 7 5 0 0
BITMAP
FC
44
44
44
EE
ENDCHAR
STARTCHAR o
ENCODING 111
SWIDTH 617 0
DWIDTH 6 0
BBX 6 5 0 0
BITMAP
78
CC
84
CC
78
ENDCHAR
STARTCHAR p
ENCODING 112
SWIDTH 652 0
DWIDTH 7 0
BBX 6 7 0 -2
BITMAP
F8
44
44
44
78
40
E0
ENDCHAR
STARTCHAR q
ENCODING 113
SWIDTH 640 0
DWIDTH 6 0
BBX 6 7 0 -2
BITMAP
78
88
88
88
78
08
1C
ENDCHAR
STARTCHAR r
ENCODING 114
SWIDTH 462 0
DWIDTH 5 0
BBX 4 5 0 0
BITMAP
F0
50
40
40
E0
ENDCHAR
STARTCHAR s
ENCODING 115
SWIDTH 525 0
DWIDTH 5 0
BBX 4 5 1 0
BITMAP
F0
90
60
90
F0
ENDCHAR
STARTCHAR t
ENCODING 116
SWIDTH 389 0
DWIDTH 4 0
BBX 3 8 0 0
BITMAP
40
40
40
E0
40
40
40
60
ENDCHAR
STARTCHAR u
ENCODING 117
SWIDTH 654 0
DWIDTH 7 0
BBX 7 5 0 0
BITMAP
CC
44
44
44
7E
ENDCHAR
STARTCHAR v
ENCODING 118
SWIDTH 657 0
DWIDTH 7 0
BBX 7 5 0 0
BITMAP
E6
64
2C
18
10
ENDCHAR
STARTCHAR w
ENCODING 119
SWIDTH 880 0
DWIDTH 9 0
BBX 9 5 0 0
BITMAP
E980
4D00
7500
3600
2200
ENDCHAR
STARTCHAR x
ENCODING 120
SWIDTH 608 0
DWIDTH 6 0
BBX 6 5 0 0
BITMAP
EC
68
30
58
DC
ENDCHAR
STARTCHAR y
ENCODING 121
SWIDTH 654 0
DWIDTH 7 0
BBX 7 7 0 -2
BITMAP
E6
64
2C
28
10
10
60
ENDCHAR
STARTCHAR z
ENCODING 122
SWIDTH 584 0
DWIDTH 6 0
BBX 5 5 0 0
BITMAP
F8
90
20
48
F8
ENDCHAR
STARTCHAR braceleft
ENCODING 123
SWIDTH 366 0
DWIDTH 4 0
BBX 3 10 0 -2
BITMAP
60
40
40
40
C0
40
40
40
40
60
ENDCHAR
STARTCHAR bar
ENCODING 124
SWIDTH 259 0
DWIDTH 3 0
BBX 1 10 1 -2
BITMAP
80
80
80
80
80
80
80
80
80
80
ENDCHAR
STARTCHAR braceright
ENCODING 125
SWIDTH 366 0
DWIDTH 4 0
BBX 3 10 0 -2
BITMAP
C0
40
40
40
60
40
40
40
40
C0
ENDCHAR
STARTCHAR asciitilde
ENCODING 126
SWIDTH 623 0
DWIDTH 6 0
BBX 6 2 0 2
BITMAP
E4
9C
ENDCHAR
STARTCHAR space
ENCODING 160
SWIDTH 333 0
DWIDTH 3 0
BBX 1 1 0 0
BITMAP
00
ENDCHAR
STARTCHAR Aogonek
ENCODING 161
SWIDTH 795 0
DWIDTH 8 0
BBX 8 10 0 -2
BITMAP
10
18
38
24
7C
46
C2
C7
00
18
ENDCHAR
STARTCHAR kgreenlandic
ENCODING 162
SWIDTH 654 0
DWIDTH 6 0
BBX 6 5 0 0
BITMAP
5C
58
60
50
EC
ENDCHAR
STARTCHAR Rcommaaccent
ENCODING 163
SWIDTH 720 0
DWIDTH 7 0
BBX 7 13 0 -5
BITMAP
F8
44
44
48
78
48
4C
E6
00
30
30
10
30
ENDCHAR
STARTCHAR currency
ENCODING 164
SWIDTH 623 0
DWIDTH 6 0
BBX 6 8 0 0
BITMAP
84
78
48
48
48
48
78
84
ENDCHAR
STARTCHAR Itilde
ENCODING 165
SWIDTH 349 0
DWIDTH 3 0
BBX 3 10 0 0
BITMAP
E0
00
E0
40
40
40
40
40
40
E0
ENDCHAR
STARTCHAR Lcommaaccent
ENCODING 166
SWIDTH 584 0
DWIDTH 6 0
BBX 5 13 0 -5
BITMAP
E0
40
40
40
40
40
48
F8
00
30
30
10
30
ENDCHAR
STARTCHAR section
ENCODING 167
SWIDTH 623 0
DWIDTH 6 0
BBX 5 10 1 -2
BITMAP
78
88
80
60
98
C8
30
08
88
F0
ENDCHAR
STARTCHAR dieresis
ENCODING 168
SWIDTH 617 0
DWIDTH 6 0
BBX 3 1 2 7
BITMAP
A0
ENDCHAR
STARTCHAR Scaron
ENCODING 169
SWIDTH 556 0
DWIDTH 6 0
BBX 4 9 1 0
BITMAP
E0
70
90
80
40
30
10
90
E0
ENDCHAR
STARTCHAR Emacron
ENCODING 170
SWIDTH 601 0
DWIDTH 6 0
BBX 6 10 0 0
BITMAP
38
00
FC
44
48
78
48
40
44
FC
ENDCHAR
STARTCHAR Gcommaaccent
ENCODING 171
SWIDTH 753 0
DWIDTH 8 0
BBX 7 13 0 -5
BITMAP
3C
44
80
80
8E
84
44
3C
00
18
18
08
18
ENDCHAR
STARTCHAR Tbar
ENCODING 172
SWIDTH 714 0
DWIDTH 7 0
BBX 7 8 0 0
BITMAP
FE
10
10
38
10
10
10
38
ENDCHAR
STARTCHAR hyphen
ENCODING 173
SWIDTH 289 0
DWIDTH 3 0
BBX 2 1 0 2
BITMAP
C0
ENDCHAR
STARTCHAR Zcaron
ENCODING 174
SWIDTH 639 0
DWIDTH 6 0
BBX 5 9 1 0
BITMAP
50
F8
90
10
20
20
40
48
F8
ENDCHAR
STARTCHAR macron
ENCODING 175
SWIDTH 617 0
DWIDTH 6 0
BBX 3 1 2 7
BITMAP
E0
ENDCHAR
STARTCHAR degree
ENCODING 176
SWIDTH 259 0
DWIDTH 3 0
BBX 2 3 0 5
BITMAP
C0
C0
C0
ENDCHAR
STARTCHAR aogonek
ENCODING 177
SWIDTH 556 0
DWIDTH 6 0
BBX 5 7 0 -2
BITMAP
F0
10
F0
90
F8
00
60
ENDCHAR
STARTCHAR ogonek
ENCODING 178
SWIDTH 617 0
DWIDTH 6 0
BBX 2 1 2 -2
BITMAP
C0
ENDCHAR
STARTCHAR rcommaaccent
ENCODING 179
SWIDTH 462 0
DWIDTH 5 0
BBX 4 10 0 -5
BITMAP
F0
50
40
40
E0
00
60
60
20
60
ENDCHAR
STARTCHAR acute
ENCODING 180
SWIDTH 617 0
DWIDTH 6 0
BBX 2 1 2 7
BITMAP
C0
ENDCHAR
STARTCHAR itilde
ENCODING 181
SWIDTH 325 0
DWIDTH 3 0
BBX 3 7 0 0
BITMAP
E0
00
C0
40
40
40
E0
ENDCHAR
STARTCHAR lcommaaccent
ENCODING 182
SWIDTH 325 0
DWIDTH 3 0
BBX 3 13 0 -5
BITMAP
C0
40
40
40
40
40
40
E0
00
60
60
20
60
ENDCHAR
STARTCHAR caron
ENCODING 183
SWIDTH 617 0
DWIDTH 6 0
BBX 3 1 2 7
BITMAP
E0
ENDCHAR
STARTCHAR cedilla
ENCODING 184
SWIDTH 617 0
DWIDTH 6 0
BBX 2 2 2 -2
BITMAP
80
C0
ENDCHAR
STARTCHAR scaron
ENCODING 185
SWIDTH 525 0
DWIDTH 5 0
BBX 4 6 1 0
BITMAP
A0
F0
90
60
90
F0
ENDCHAR
STARTCHAR emacron
ENCODING 186
SWIDTH 568 0
DWIDTH 6 0
BBX 5 7 0 0
BITMAP
70
00
70
88
F8
80
78
ENDCHAR
STARTCHAR gcommaaccent
ENCODING 187
SWIDTH 599 0
DWIDTH 6 0
BBX 5 12 1 -2
BITMAP
30
20
30
30
00
78
90
90
60
F8
88
F0
ENDCHAR
STARTCHAR tbar
ENCODING 188
SWIDTH 389 0
DWIDTH 4 0
BBX 3 8 0 0
BITMAP
40
40
40
E0
40
E0
40
60
ENDCHAR
STARTCHAR Eng
ENCODING 189
SWIDTH 788 0
DWIDTH 8 0
BBX 8 10 0 -2
BITMAP
C7
62
62
52
4A
4E
46
E2
0A
0E
ENDCHAR
STARTCHAR zcaron
ENCODING 190
SWIDTH 584 0
DWIDTH 6 0
BBX 5 6 0 0
BITMAP
50
F8
90
20
48
F8
ENDCHAR
STARTCHAR eng
ENCODING 191
SWIDTH 654 0
DWIDTH 7 0
BBX 6 7 0 -2
BITMAP
FC
44
44
44
E4
14
1C
ENDCHAR
STARTCHAR Amacron
ENCODING 192
SWIDTH 795 0
DWIDTH 8 0
BBX 8 10 0 0
BITMAP
38
00
10
18
38
24
7C
46
C2
C7
ENDCHAR
STARTCHAR Aacute
ENCODING 193
SWIDTH 795 0
DWIDTH 8 0
BBX 8 9 0 0
BITMAP
18
10
18
38
24
7C
46
C2
C7
ENDCHAR
STARTCHAR Acircumflex
ENCODING 194
SWIDTH 795 0
DWIDTH 8 0
BBX 8 9 0 0
BITMAP
1C
10
18
38
24
7C
46
C2
C7
ENDCHAR
STARTCHAR Atilde
ENCODING 195
SWIDTH 795 0
DWIDTH 8 0
BBX 8 9 0 0
BITMAP
1C
10
18
38
24
7C
46
C2
C7
ENDCHAR
STARTCHAR Adieresis
ENCODING 196
SWIDTH 795 0
DWIDTH 8 0
BBX 8 9 0 0
BITMAP
14
10
18
38
24
7C
46
C2
C7
ENDCHAR
STARTCHAR Aring
ENCODING 197
SWIDTH 795 0
DWIDTH 8 0
BBX 8 9 0 0
BITMAP
18
10
18
38
24
7C
46
C2
C7
ENDCHAR
STARTCHAR AE
ENCODING 198
SWIDTH 959 0
DWIDTH 10 0
BBX 9 8 0 0
BITMAP
0F80
0880
1900
3F00
2900
7800
4880
DF80
ENDCHAR
STARTCHAR Iogonek
ENCODING 199
SWIDTH 349 0
DWIDTH 3 0
BBX 3 10 0 -2
BITMAP
E0
40
40
40
40
40
40
E0
00
60
ENDCHAR
STARTCHAR Ccaron
ENCODING 200
SWIDTH 711 0
DWIDTH 7 0
BBX 6 10 1 0
BITMAP
38
00
3C
44
80
80
80
80
44
3C
ENDCHAR
STARTCHAR Eacute
ENCODING 201
SWIDTH 601 0
DWIDTH 6 0
BBX 6 9 0 0
BITMAP
20
FC
44
48
78
48
40
44
FC
ENDCHAR
STARTCHAR Eogonek
ENCODING 202
SWIDTH 601 0
DWIDTH 6 0
BBX 6 10 0 -2
BITMAP
FC
44
48
78
48
40
44
FC
00
30
ENDCHAR
STARTCHAR Edieresis
ENCODING 203
SWIDTH 601 0
DWIDTH 6 0
BBX 6 9 0 0
BITMAP
28
FC
44
48
78
48
40
44
FC
ENDCHAR
STARTCHAR Edotaccent
ENCODING 204
SWIDTH 601 0
DWIDTH 6 0
BBX 6 10 0 0
BITMAP
10
00
FC
44
48
78
48
40
44
FC
ENDCHAR
STARTCHAR Iacute
ENCODING 205
SWIDTH 349 0
DWIDTH 3 0
BBX 3 9 0 0
BITMAP
40
E0
40
40
40
40
40
40
E0
ENDCHAR
STARTCHAR Icircumflex
ENCODING 206
SWIDTH 349 0
DWIDTH 3 0
BBX 3 9 0 0
BITMAP
E0
E0
40
40
40
40
40
40
E0
ENDCHAR
STARTCHAR Imacron
ENCODING 207
SWIDTH 349 0
DWIDTH 3 0
BBX 3 10 0 0
BITMAP
E0
00
E0
40
40
40
40
40
40
E0
ENDCHAR
STARTCHAR Dcroat
ENCODING 208
SWIDTH 794 0
DWIDTH 8 0
BBX 8 8 0 0
BITMAP
FC
42
41
F1
41
41
42
FC
ENDCHAR
STARTCHAR Ncommaaccent
ENCODING 209
SWIDTH 788 0
DWIDTH 8 0
BBX 8 13 0 -5
BITMAP
C7
62
62
52
4A
4E
46
E2
00
18
18
08
18
ENDCHAR
STARTCHAR Omacron
ENCODING 210
SWIDTH 810 0
DWIDTH 8 0
BBX 7 10 1 0
BITMAP
38
00
38
44
82
82
82
82
44
38
ENDCHAR
STARTCHAR Kcommaaccent
ENCODING 211
SWIDTH 747 0
DWIDTH 7 0
BBX 7 13 0 -5
BITMAP
EC
4C
58
60
50
58
4C
EE
00
18
18
08
18
ENDCHAR
STARTCHAR Ocircumflex
ENCODING 212
SWIDTH 810 0
DWIDTH 8 0
BBX 7 9 1 0
BITMAP
38
38
44
82
82
82
82
44
38
ENDCHAR
STARTCHAR Otilde
ENCODING 213
SWIDTH 810 0
DWIDTH 8 0
BBX 7 9 1 0
BITMAP
38
38
44
82
82
82
82
44
38
ENDCHAR
STARTCHAR Odieresis
ENCODING 214
SWIDTH 810 0
DWIDTH 8 0
BBX 7 9 1 0
BITMAP
28
38
44
82
82
82
82
44
38
ENDCHAR
STARTCHAR multiply
ENCODING 215
SWIDTH 623 0
DWIDTH 6 0
BBX 6 7 0 0
BITMAP
84
48
78
30
78
48
84
ENDCHAR
STARTCHAR Oslash
ENCODING 216
SWIDTH 810 0
DWIDTH 8 0
BBX 7 8 1 0
BITMAP
3A
46
8E
9A
B2
C2
C4
B8
ENDCHAR
STARTCHAR Uogonek
ENCODING 217
SWIDTH 747 0
DWIDTH 7 0
BBX 8 10 0 -2
BITMAP
E7
42
42
42
42
42
42
3C
00
18
ENDCHAR
STARTCHAR Uacute
ENCODING 218
SWIDTH 747 0
DWIDTH 7 0
BBX 8 9 0 0
BITMAP
18
E7
42
42
42
42
42
42
3C
ENDCHAR
STARTCHAR Ucircumflex
ENCODING 219
SWIDTH 747 0
DWIDTH 7 0
BBX 8 9 0 0
BITMAP
38
E7
42
42
42
42
42
42
3C
ENDCHAR
STARTCHAR Udieresis
ENCODING 220
SWIDTH 747 0
DWIDTH 7 0
BBX 8 9 0 0
BITMAP
28
E7
42
42
42
42
42
42
3C
ENDCHAR
STARTCHAR Utilde
ENCODING 221
SWIDTH 747 0
DWIDTH 7 0
BBX 8 10 0 0
BITMAP
1C
00
E7
42
42
42
42
42
42
3C
ENDCHAR
STARTCHAR Umacron
ENCODING 222
SWIDTH 747 0
DWIDTH 7 0
BBX 8 10 0 0
BITMAP
1C
00
E7
42
42
42
42
42
42
3C
ENDCHAR
STARTCHAR germandbls
ENCODING 223
SWIDTH 700 0
DWIDTH 7 0
BBX 6 8 1 0
BITMAP
78
48
50
50
58
44
54
F8
ENDCHAR
STARTCHAR amacron
ENCODING 224
SWIDTH 556 0
DWIDTH 6 0
BBX 5 7 0 0
BITMAP
70
00
F0
10
F0
90
F8
ENDCHAR
STARTCHAR aacute
ENCODING 225
SWIDTH 556 0
DWIDTH 6 0
BBX 5 6 0 0
BITMAP
20
F0
10
F0
90
F8
ENDCHAR
STARTCHAR acircumflex
ENCODING 226
SWIDTH 556 0
DWIDTH 6 0
BBX 5 6 0 0
BITMAP
50
F0
10
F0
90
F8
ENDCHAR
STARTCHAR atilde
ENCODING 227
SWIDTH 556 0
DWIDTH 6 0
BBX 5 6 0 0
BITMAP
70
F0
10
F0
90
F8
ENDCHAR
STARTCHAR adieresis
ENCODING 228
SWIDTH 556 0
DWIDTH 6 0
BBX 5 6 0 0
BITMAP
50
F0
10
F0
90
F8
ENDCHAR
STARTCHAR aring
ENCODING 229
SWIDTH 556 0
DWIDTH 6 0
BBX 5 6 0 0
BITMAP
60
F0
10
F0
90
F8
ENDCHAR
STARTCHAR ae
ENCODING 230
SWIDTH 858 0
DWIDTH 9 0
BBX 8 5 0 0
BITMAP
7E
11
FF
90
EF
ENDCHAR
STARTCHAR iogonek
ENCODING 231
SWIDTH 325 0
DWIDTH 3 0
BBX 3 10 0 -2
BITMAP
40
00
00
C0
40
40
40
E0
00
60
ENDCHAR
STARTCHAR ccaron
ENCODING 232
SWIDTH 541 0
DWIDTH 5 0
BBX 5 7 0 0
BITMAP
70
00
78
88
80
C0
78
ENDCHAR
STARTCHAR eacute
ENCODING 233
SWIDTH 568 0
DWIDTH 6 0
BBX 5 6 0 0
BITMAP
20
70
88
F8
80
78
ENDCHAR
STARTCHAR eogonek
ENCODING 234
SWIDTH 568 0
DWIDTH 6 0
BBX 5 7 0 -2
BITMAP
70
88
F8
80
78
00
30
ENDCHAR
STARTCHAR edieresis
ENCODING 235
SWIDTH 568 0
DWIDTH 6 0
BBX 5 6 0 0
BITMAP
50
70
88
F8
80
78
ENDCHAR
STARTCHAR edotaccent
ENCODING 236
SWIDTH 568 0
DWIDTH 6 0
BBX 5 7 0 0
BITMAP
20
00
70
88
F8
80
78
ENDCHAR
STARTCHAR iacute
ENCODING 237
SWIDTH 325 0
DWIDTH 3 0
BBX 3 6 0 0
BITMAP
60
C0
40
40
40
E0
ENDCHAR
STARTCHAR icircumflex
ENCODING 238
SWIDTH 325 0
DWIDTH 3 0
BBX 3 6 0 0
BITMAP
E0
C0
40
40
40
E0
ENDCHAR
STARTCHAR imacron
ENCODING 239
SWIDTH 325 0
DWIDTH 3 0
BBX 3 7 0 0
BITMAP
E0
00
C0
40
40
40
E0
ENDCHAR
STARTCHAR dcroat
ENCODING 240
SWIDTH 652 0
DWIDTH 7 0
BBX 6 8 0 0
BITMAP
18
08
1C
78
88
88
88
7C
ENDCHAR
STARTCHAR ncommaaccent
ENCODING 241
SWIDTH 654 0
DWIDTH 7 0
BBX 7 10 0 -5
BITMAP
FC
44
44
44
EE
00
18
18
08
18
ENDCHAR
STARTCHAR omacron
ENCODING 242
SWIDTH 617 0
DWIDTH 6 0
BBX 6 7 0 0
BITMAP
38
00
78
CC
84
CC
78
ENDCHAR
STARTCHAR kcommaaccent
ENCODING 243
SWIDTH 654 0
DWIDTH 6 0
BBX 6 13 0 -5
BITMAP
C0
40
40
5C
58
60
50
EC
00
30
30
10
30
ENDCHAR
STARTCHAR ocircumflex
ENCODING 244
SWIDTH 617 0
DWIDTH 6 0
BBX 6 6 0 0
BITMAP
50
78
CC
84
CC
78
ENDCHAR
STARTCHAR otilde
ENCODING 245
SWIDTH 617 0
DWIDTH 6 0
BBX 6 6 0 0
BITMAP
70
78
CC
84
CC
78
ENDCHAR
STARTCHAR odieresis
ENCODING 246
SWIDTH 617 0
DWIDTH 6 0
BBX 6 6 0 0
BITMAP
50
78
CC
84
CC
78
ENDCHAR
STARTCHAR divide
ENCODING 247
SWIDTH 623 0
DWIDTH 6 0
BBX 5 5 1 0
BITMAP
20
00
F8
00
20
ENDCHAR
STARTCHAR oslash
ENCODING 248
SWIDTH 617 0
DWIDTH 6 0
BBX 6 5 0 0
BITMAP
7C
CC
F4
CC
F8
ENDCHAR
STARTCHAR uogonek
ENCODING 249
SWIDTH 654 0
DWIDTH 7 0
BBX 7 7 0 -2
BITMAP
CC
44
44
44
7E
00
18
ENDCHAR
STARTCHAR uacute
ENCODING 250
SWIDTH 654 0
DWIDTH 7 0
BBX 7 6 0 0
BITMAP
18
CC
44
44
44
7E
ENDCHAR
STARTCHAR ucircumflex
ENCODING 251
SWIDTH 654 0
DWIDTH 7 0
BBX 7 6 0 0
BITMAP
38
CC
44
44
44
7E
ENDCHAR
STARTCHAR udieresis
ENCODING 252
SWIDTH 654 0
DWIDTH 7 0
BBX 7 6 0 0
BITMAP
28
CC
44
44
44
7E
ENDCHAR
STARTCHAR utilde
ENCODING 253
SWIDTH 654 0
DWIDTH 7 0
BBX 7 7 0 0
BITMAP
38
00
CC
44
44
44
7E
ENDCHAR
STARTCHAR umacron
ENCODING 254
SWIDTH 654 0
DWIDTH 7 0
BBX 7 7 0 0
BITMAP
38
00
CC
44
44
44
7E
ENDCHAR
STARTCHAR dotaccent
ENCODING 255
SWIDTH 617 0
DWIDTH 6 0
BBX 1 1 3 7
BITMAP
80
ENDCHAR
ENDFONT
