STARTFONT 2.1
COMMENT AUTOMATICALLY GENERATED FILE. DO NOT EDIT!
COMMENT Generated with 'ucs2any lubR18.bdf /usr/local/lib/X11/fonts/util/map-ISO8859-4 ISO8859-4'
COMMENT from an ISO10646-1 encoded source BDF font.
COMMENT ucs2any by Ben Collver <collver1@attbi.com>, 2003, based on
COMMENT ucs2any.pl by Markus Kuhn <http://www.cl.cam.ac.uk/~mgk25/>, 2000.
COMMENT $Xorg: $
COMMENT ISO10646-1 extension by Markus Kuhn <mkuhn@acm.org>, 2001-03-20
COMMENT  (c) Copyright Bigelow & Holmes 1986, 1985. Lucida is a registered
COMMENT  trademark of Bigelow & Holmes. See LEGAL NOTICE file for terms
COMMENT  of the license.
FONT -B&H-LucidaBright-Medium-R-Normal--18-180-75-75-P-103-ISO8859-4
SIZE 18 72 72
FONTBOUNDINGBOX 18 23 0 -6
STARTPROPERTIES 22
COMMENT Begin LogicalFontDescription
FONTNAME_REGISTRY ""
FOUNDRY "B&H"
FAMILY_NAME "LucidaBright"
WEIGHT_NAME "Medium"
SLANT "R"
SETWIDTH_NAME "Normal"
ADD_STYLE_NAME ""
PIXEL_SIZE 18
POINT_SIZE 180
RESOLUTION_X 75
RESOLUTION_Y 75
SPACING "P"
AVERAGE_WIDTH 103
CHARSET_REGISTRY "ISO8859"
CHARSET_ENCODING "4"
COMMENT END LogicalFontDescription
FONT_ASCENT 16
FONT_DESCENT 4
DEFAULT_CHAR 0
COPYRIGHT "Copyright Bigelow & Holmes 1986, 1985."
FACE_NAME "Lucida Bright"
X_HEIGHT 9
CAP_HEIGHT 13
ENDPROPERTIES
CHARS 192
STARTCHAR defaultchar
ENCODING 0
SWIDTH 771 0
DWIDTH 14 0
BBX 13 13 0 0
BITMAP
AAA8
0000
8008
0000
8008
0000
8008
0000
8008
0000
8008
0000
AAA8
ENDCHAR
STARTCHAR space
ENCODING 32
SWIDTH 333 0
DWIDTH 6 0
BBX 1 1 0 0
BITMAP
00
ENDCHAR
STARTCHAR exclam
ENCODING 33
SWIDTH 265 0
DWIDTH 5 0
BBX 2 13 1 0
BITMAP
C0
C0
C0
C0
C0
C0
80
80
80
80
00
C0
C0
ENDCHAR
STARTCHAR quotedbl
ENCODING 34
SWIDTH 386 0
DWIDTH 7 0
BBX 6 4 0 9
BITMAP
CC
CC
48
48
ENDCHAR
STARTCHAR numbersign
ENCODING 35
SWIDTH 608 0
DWIDTH 11 0
BBX 11 13 0 0
BITMAP
0480
0C80
0880
0900
7FE0
0900
1100
1200
FFC0
1200
2200
2600
2400
ENDCHAR
STARTCHAR dollar
ENCODING 36
SWIDTH 608 0
DWIDTH 11 0
BBX 7 15 2 -1
BITMAP
10
3E
D2
D2
D0
D0
70
38
1C
16
16
96
94
F8
10
ENDCHAR
STARTCHAR percent
ENCODING 37
SWIDTH 675 0
DWIDTH 12 0
BBX 13 13 0 0
BITMAP
7818
C430
8460
84C0
8480
7900
02F0
0588
0908
1908
3108
6108
C0F0
ENDCHAR
STARTCHAR ampersand
ENCODING 38
SWIDTH 690 0
DWIDTH 12 0
BBX 11 13 1 0
BITMAP
1E00
3300
3300
3300
1E00
3800
4CE0
CC40
C640
C740
C380
6380
3CE0
ENDCHAR
STARTCHAR quotesingle
ENCODING 39
SWIDTH 241 0
DWIDTH 4 0
BBX 3 4 1 9
BITMAP
E0
E0
40
40
ENDCHAR
STARTCHAR parenleft
ENCODING 40
SWIDTH 316 0
DWIDTH 6 0
BBX 4 16 1 -3
BITMAP
10
20
20
40
40
C0
C0
C0
C0
C0
C0
40
40
20
20
10
ENDCHAR
STARTCHAR parenright
ENCODING 41
SWIDTH 316 0
DWIDTH 6 0
BBX 4 16 1 -3
BITMAP
80
40
40
20
20
30
30
30
30
30
30
20
20
40
40
80
ENDCHAR
STARTCHAR asterisk
ENCODING 42
SWIDTH 470 0
DWIDTH 8 0
BBX 7 7 1 6
BITMAP
10
10
D6
28
28
28
44
ENDCHAR
STARTCHAR plus
ENCODING 43
SWIDTH 608 0
DWIDTH 11 0
BBX 11 11 0 0
BITMAP
0400
0400
0400
0400
0400
FFE0
0400
0400
0400
0400
0400
ENDCHAR
STARTCHAR comma
ENCODING 44
SWIDTH 265 0
DWIDTH 5 0
BBX 2 5 1 -3
BITMAP
C0
C0
40
40
80
ENDCHAR
STARTCHAR hyphen
ENCODING 45
SWIDTH 325 0
DWIDTH 6 0
BBX 4 1 1 5
BITMAP
F0
ENDCHAR
STARTCHAR period
ENCODING 46
SWIDTH 265 0
DWIDTH 5 0
BBX 2 2 1 0
BITMAP
C0
C0
ENDCHAR
STARTCHAR slash
ENCODING 47
SWIDTH 512 0
DWIDTH 9 0
BBX 9 16 0 -3
BITMAP
0080
0100
0100
0200
0200
0400
0400
0800
0800
1000
1000
2000
2000
4000
4000
8000
ENDCHAR
STARTCHAR zero
ENCODING 48
SWIDTH 608 0
DWIDTH 11 0
BBX 9 13 1 0
BITMAP
1C00
6300
4100
C180
C180
C180
C180
C180
C180
C180
4100
6300
1C00
ENDCHAR
STARTCHAR one
ENCODING 49
SWIDTH 608 0
DWIDTH 11 0
BBX 6 13 2 0
BITMAP
F0
30
30
30
30
30
30
30
30
30
30
30
FC
ENDCHAR
STARTCHAR two
ENCODING 50
SWIDTH 608 0
DWIDTH 11 0
BBX 8 13 1 0
BITMAP
7C
C6
83
83
03
06
0C
18
20
40
40
FF
FF
ENDCHAR
STARTCHAR three
ENCODING 51
SWIDTH 608 0
DWIDTH 11 0
BBX 8 13 1 0
BITMAP
FC
87
83
03
03
04
7C
07
03
03
83
C6
FC
ENDCHAR
STARTCHAR four
ENCODING 52
SWIDTH 608 0
DWIDTH 11 0
BBX 10 13 0 0
BITMAP
0300
0700
0F00
0B00
1300
2300
6300
C300
FFC0
0300
0300
0300
0FC0
ENDCHAR
STARTCHAR five
ENCODING 53
SWIDTH 608 0
DWIDTH 11 0
BBX 7 13 2 0
BITMAP
FE
FE
80
80
80
F0
0C
06
06
06
86
8C
F8
ENDCHAR
STARTCHAR six
ENCODING 54
SWIDTH 608 0
DWIDTH 11 0
BBX 9 13 1 0
BITMAP
1F00
2100
6100
C000
C000
DE00
E300
C180
C180
C180
4180
6300
1E00
ENDCHAR
STARTCHAR seven
ENCODING 55
SWIDTH 608 0
DWIDTH 11 0
BBX 8 13 2 0
BITMAP
FF
FF
02
02
04
0C
08
10
30
30
20
60
60
ENDCHAR
STARTCHAR eight
ENCODING 56
SWIDTH 608 0
DWIDTH 11 0
BBX 9 13 1 0
BITMAP
3E00
6380
C180
C180
E300
3A00
3E00
4700
C180
C180
C180
6300
3E00
ENDCHAR
STARTCHAR nine
ENCODING 57
SWIDTH 608 0
DWIDTH 11 0
BBX 9 13 1 0
BITMAP
3C00
6300
C100
C180
C180
C180
6380
3D80
0180
0180
4300
4200
7C00
ENDCHAR
STARTCHAR colon
ENCODING 58
SWIDTH 265 0
DWIDTH 5 0
BBX 2 9 1 0
BITMAP
C0
C0
00
00
00
00
00
C0
C0
ENDCHAR
STARTCHAR semicolon
ENCODING 59
SWIDTH 265 0
DWIDTH 5 0
BBX 2 12 1 -3
BITMAP
C0
C0
00
00
00
00
00
C0
C0
40
40
80
ENDCHAR
STARTCHAR less
ENCODING 60
SWIDTH 608 0
DWIDTH 11 0
BBX 10 11 0 0
BITMAP
0040
0180
0600
0C00
3000
C000
3000
0C00
0700
0180
0040
ENDCHAR
STARTCHAR equal
ENCODING 61
SWIDTH 608 0
DWIDTH 11 0
BBX 10 4 0 3
BITMAP
FFC0
0000
0000
FFC0
ENDCHAR
STARTCHAR greater
ENCODING 62
SWIDTH 608 0
DWIDTH 11 0
BBX 10 11 0 0
BITMAP
8000
6000
3800
0C00
0300
00C0
0300
0C00
1800
6000
8000
ENDCHAR
STARTCHAR question
ENCODING 63
SWIDTH 480 0
DWIDTH 9 0
BBX 7 13 1 0
BITMAP
F8
8E
86
06
04
0C
18
30
30
30
00
30
30
ENDCHAR
STARTCHAR at
ENCODING 64
SWIDTH 873 0
DWIDTH 16 0
BBX 15 13 0 0
BITMAP
03F0
0C18
1004
23E2
4442
8442
88C2
88C6
894C
8678
4000
3080
1F00
ENDCHAR
STARTCHAR A
ENCODING 65
SWIDTH 744 0
DWIDTH 13 0
BBX 13 13 0 0
BITMAP
0200
0600
0700
0700
0980
0980
11C0
10C0
3FC0
2060
2060
4030
E0F8
ENDCHAR
STARTCHAR B
ENCODING 66
SWIDTH 609 0
DWIDTH 11 0
BBX 10 13 0 0
BITMAP
FF00
3380
3180
3180
3180
3200
3F00
3380
30C0
30C0
30C0
31C0
FF00
ENDCHAR
STARTCHAR C
ENCODING 67
SWIDTH 695 0
DWIDTH 12 0
BBX 10 13 1 0
BITMAP
1F80
30C0
6040
E040
C000
C000
C000
C000
C000
6000
6000
3040
1F80
ENDCHAR
STARTCHAR D
ENCODING 68
SWIDTH 768 0
DWIDTH 14 0
BBX 13 13 0 0
BITMAP
FF80
3060
3030
3018
3018
3018
3018
3018
3018
3010
3030
3060
FF80
ENDCHAR
STARTCHAR E
ENCODING 69
SWIDTH 566 0
DWIDTH 10 0
BBX 10 13 0 0
BITMAP
FFC0
3040
3040
3000
3000
3100
3F00
3100
3000
3000
3040
3040
FFC0
ENDCHAR
STARTCHAR F
ENCODING 70
SWIDTH 548 0
DWIDTH 10 0
BBX 9 13 0 0
BITMAP
FF80
3080
3080
3000
3000
3100
3F00
3100
3000
3000
3000
3000
F800
ENDCHAR
STARTCHAR G
ENCODING 71
SWIDTH 732 0
DWIDTH 13 0
BBX 13 13 1 0
BITMAP
0FC0
3860
6020
6000
C000
C000
C000
C1F8
C060
6060
6060
3860
0FC0
ENDCHAR
STARTCHAR H
ENCODING 72
SWIDTH 771 0
DWIDTH 14 0
BBX 14 13 0 0
BITMAP
FCFC
3030
3030
3030
3030
3030
3FF0
3030
3030
3030
3030
3030
FCFC
ENDCHAR
STARTCHAR I
ENCODING 73
SWIDTH 325 0
DWIDTH 6 0
BBX 6 13 0 0
BITMAP
FC
30
30
30
30
30
30
30
30
30
30
30
FC
ENDCHAR
STARTCHAR J
ENCODING 74
SWIDTH 422 0
DWIDTH 8 0
BBX 8 16 0 -3
BITMAP
3F
0C
0C
0C
0C
0C
0C
0C
0C
0C
0C
0C
0C
8C
98
F0
ENDCHAR
STARTCHAR K
ENCODING 75
SWIDTH 708 0
DWIDTH 13 0
BBX 12 13 1 0
BITMAP
FCE0
30C0
3180
3300
3600
3400
3C00
3600
3700
3380
31C0
30E0
F9F0
ENDCHAR
STARTCHAR L
ENCODING 76
SWIDTH 557 0
DWIDTH 10 0
BBX 10 13 0 0
BITMAP
FC00
3000
3000
3000
3000
3000
3000
3000
3000
3000
3040
3040
FFC0
ENDCHAR
STARTCHAR M
ENCODING 77
SWIDTH 860 0
DWIDTH 15 0
BBX 15 13 0 0
BITMAP
F01E
3818
3838
3838
2C58
2C58
2658
2698
2798
2318
2318
2318
F87E
ENDCHAR
STARTCHAR N
ENCODING 78
SWIDTH 751 0
DWIDTH 14 0
BBX 14 13 0 0
BITMAP
F07C
3010
3810
2C10
2E10
2710
2390
2190
20D0
20F0
2070
2030
F810
ENDCHAR
STARTCHAR O
ENCODING 79
SWIDTH 777 0
DWIDTH 14 0
BBX 12 13 1 0
BITMAP
1F80
30C0
6060
6060
C030
C030
C030
C030
C030
6060
6060
30C0
1F80
ENDCHAR
STARTCHAR P
ENCODING 80
SWIDTH 573 0
DWIDTH 10 0
BBX 10 13 0 0
BITMAP
FF00
3180
30C0
30C0
30C0
30C0
3380
3F00
3000
3000
3000
3000
FC00
ENDCHAR
STARTCHAR Q
ENCODING 81
SWIDTH 778 0
DWIDTH 14 0
BBX 14 16 1 -3
BITMAP
1F80
30C0
6060
6060
C030
C030
C030
C030
C030
6070
6060
30C0
1F80
0180
0070
001C
ENDCHAR
STARTCHAR R
ENCODING 82
SWIDTH 679 0
DWIDTH 12 0
BBX 12 13 0 0
BITMAP
FF00
3180
30C0
30C0
30C0
3180
3F00
3300
3300
3180
31C0
30E0
F870
ENDCHAR
STARTCHAR S
ENCODING 83
SWIDTH 542 0
DWIDTH 10 0
BBX 8 13 1 0
BITMAP
3E
62
C2
C0
E0
78
3C
0E
03
03
83
86
FC
ENDCHAR
STARTCHAR T
ENCODING 84
SWIDTH 663 0
DWIDTH 12 0
BBX 12 13 0 0
BITMAP
FFF0
8610
0600
0600
0600
0600
0600
0600
0600
0600
0600
0600
1F80
ENDCHAR
STARTCHAR U
ENCODING 85
SWIDTH 719 0
DWIDTH 13 0
BBX 13 13 0 0
BITMAP
FCF8
3020
3020
3020
3020
3020
3020
3020
3020
3020
3020
1840
0F80
ENDCHAR
STARTCHAR V
ENCODING 86
SWIDTH 699 0
DWIDTH 13 0
BBX 13 13 0 0
BITMAP
F838
6010
3030
3020
1820
1840
1C40
0C80
0C80
0680
0700
0300
0200
ENDCHAR
STARTCHAR W
ENCODING 87
SWIDTH 925 0
DWIDTH 17 0
BBX 17 13 0 0
BITMAP
F88780
60C100
70C200
31C200
31E200
316400
1A6400
1A6400
1A3C00
1C3800
0C3800
0C1800
081000
ENDCHAR
STARTCHAR X
ENCODING 88
SWIDTH 657 0
DWIDTH 12 0
BBX 12 13 0 0
BITMAP
F8F0
7060
3840
1880
0D00
0F00
0700
0B00
1B80
1180
20C0
40E0
F1F0
ENDCHAR
STARTCHAR Y
ENCODING 89
SWIDTH 678 0
DWIDTH 12 0
BBX 12 13 0 0
BITMAP
F870
7020
3040
38C0
1C80
0D00
0F00
0600
0600
0600
0600
0600
1F80
ENDCHAR
STARTCHAR Z
ENCODING 90
SWIDTH 633 0
DWIDTH 11 0
BBX 9 13 1 0
BITMAP
FF80
8380
8300
0600
0E00
0C00
1C00
1800
3000
7000
6080
C080
FF80
ENDCHAR
STARTCHAR bracketleft
ENCODING 91
SWIDTH 316 0
DWIDTH 6 0
BBX 4 16 1 -3
BITMAP
F0
C0
C0
C0
C0
C0
C0
C0
C0
C0
C0
C0
C0
C0
C0
F0
ENDCHAR
STARTCHAR backslash
ENCODING 92
SWIDTH 512 0
DWIDTH 9 0
BBX 9 16 0 -3
BITMAP
8000
4000
4000
2000
2000
1000
1000
0800
0800
0400
0400
0200
0200
0100
0100
0080
ENDCHAR
STARTCHAR bracketright
ENCODING 93
SWIDTH 316 0
DWIDTH 6 0
BBX 4 16 0 -3
BITMAP
F0
30
30
30
30
30
30
30
30
30
30
30
30
30
30
F0
ENDCHAR
STARTCHAR asciicircum
ENCODING 94
SWIDTH 608 0
DWIDTH 11 0
BBX 11 11 0 2
BITMAP
0400
0400
0A00
0A00
1100
1100
2080
2080
4040
4040
8020
ENDCHAR
STARTCHAR underscore
ENCODING 95
SWIDTH 500 0
DWIDTH 9 0
BBX 7 1 1 -1
BITMAP
FE
ENDCHAR
STARTCHAR grave
ENCODING 96
SWIDTH 602 0
DWIDTH 11 0
BBX 4 3 3 10
BITMAP
C0
20
10
ENDCHAR
STARTCHAR a
ENCODING 97
SWIDTH 543 0
DWIDTH 10 0
BBX 8 9 1 0
BITMAP
7C
46
46
06
3E
E6
C6
C6
7B
ENDCHAR
STARTCHAR b
ENCODING 98
SWIDTH 611 0
DWIDTH 11 0
BBX 11 13 0 0
BITMAP
F000
3000
3000
3000
3780
38C0
3060
3060
3060
3060
3060
38C0
2780
ENDCHAR
STARTCHAR c
ENCODING 99
SWIDTH 509 0
DWIDTH 9 0
BBX 7 9 1 0
BITMAP
3E
62
C2
C0
C0
C0
C0
60
3E
ENDCHAR
STARTCHAR d
ENCODING 100
SWIDTH 642 0
DWIDTH 12 0
BBX 11 13 1 0
BITMAP
0780
0180
0180
0180
3D80
6380
C180
C180
C180
C180
C180
6380
3DE0
ENDCHAR
STARTCHAR e
ENCODING 101
SWIDTH 530 0
DWIDTH 10 0
BBX 8 9 1 0
BITMAP
3C
62
C3
C3
FF
C0
C0
61
3E
ENDCHAR
STARTCHAR f
ENCODING 102
SWIDTH 404 0
DWIDTH 7 0
BBX 7 14 1 0
BITMAP
1E
32
32
30
30
FC
30
30
30
30
30
30
30
F8
ENDCHAR
STARTCHAR g
ENCODING 103
SWIDTH 571 0
DWIDTH 10 0
BBX 10 12 0 -3
BITMAP
3FC0
7600
6300
6300
2300
1700
7E00
6000
3F80
C180
C180
7E00
ENDCHAR
STARTCHAR h
ENCODING 104
SWIDTH 633 0
DWIDTH 11 0
BBX 12 13 0 0
BITMAP
F000
3000
3000
3000
3780
38C0
30C0
30C0
30C0
30C0
30C0
30C0
FFF0
ENDCHAR
STARTCHAR i
ENCODING 105
SWIDTH 307 0
DWIDTH 6 0
BBX 6 13 0 0
BITMAP
30
30
00
00
F0
30
30
30
30
30
30
30
FC
ENDCHAR
STARTCHAR j
ENCODING 106
SWIDTH 346 0
DWIDTH 6 0
BBX 5 16 0 -3
BITMAP
18
18
00
00
38
18
18
18
18
18
18
18
18
98
98
F0
ENDCHAR
STARTCHAR k
ENCODING 107
SWIDTH 599 0
DWIDTH 11 0
BBX 10 13 1 0
BITMAP
F000
3000
3000
3000
3180
3100
3200
3400
3C00
3600
3700
3380
F9C0
ENDCHAR
STARTCHAR l
ENCODING 108
SWIDTH 313 0
DWIDTH 6 0
BBX 6 13 0 0
BITMAP
F0
30
30
30
30
30
30
30
30
30
30
30
FC
ENDCHAR
STARTCHAR m
ENCODING 109
SWIDTH 946 0
DWIDTH 17 0
BBX 18 9 0 0
BITMAP
F79E00
38E300
30C300
30C300
30C300
30C300
30C300
30C300
FFFFC0
ENDCHAR
STARTCHAR n
ENCODING 110
SWIDTH 633 0
DWIDTH 11 0
BBX 12 9 0 0
BITMAP
F780
38C0
30C0
30C0
30C0
30C0
30C0
30C0
FFF0
ENDCHAR
STARTCHAR o
ENCODING 111
SWIDTH 602 0
DWIDTH 11 0
BBX 9 9 1 0
BITMAP
3E00
6300
C180
C180
C180
C180
C180
6300
3E00
ENDCHAR
STARTCHAR p
ENCODING 112
SWIDTH 642 0
DWIDTH 12 0
BBX 11 12 0 -3
BITMAP
F780
38C0
3060
3060
3060
3060
3060
38C0
3780
3000
3000
FC00
ENDCHAR
STARTCHAR q
ENCODING 113
SWIDTH 617 0
DWIDTH 11 0
BBX 11 12 1 -3
BITMAP
3D80
6380
C180
C180
C180
C180
C180
6380
3D80
0180
0180
07E0
ENDCHAR
STARTCHAR r
ENCODING 114
SWIDTH 440 0
DWIDTH 8 0
BBX 8 9 0 0
BITMAP
F7
39
31
30
30
30
30
30
FC
ENDCHAR
STARTCHAR s
ENCODING 115
SWIDTH 504 0
DWIDTH 9 0
BBX 7 9 1 0
BITMAP
7C
C4
C4
F0
7C
9E
86
C6
7C
ENDCHAR
STARTCHAR t
ENCODING 116
SWIDTH 392 0
DWIDTH 7 0
BBX 6 12 1 0
BITMAP
60
60
60
FC
60
60
60
60
60
60
60
3C
ENDCHAR
STARTCHAR u
ENCODING 117
SWIDTH 633 0
DWIDTH 11 0
BBX 12 9 0 0
BITMAP
F3C0
30C0
30C0
30C0
30C0
30C0
30C0
31C0
1EF0
ENDCHAR
STARTCHAR v
ENCODING 118
SWIDTH 545 0
DWIDTH 10 0
BBX 10 9 0 0
BITMAP
F1C0
6080
6080
3100
3100
1A00
1E00
0C00
0C00
ENDCHAR
STARTCHAR w
ENCODING 119
SWIDTH 795 0
DWIDTH 14 0
BBX 14 9 0 0
BITMAP
F11C
6308
6388
7398
35D0
34D0
38E0
1860
1060
ENDCHAR
STARTCHAR x
ENCODING 120
SWIDTH 557 0
DWIDTH 10 0
BBX 10 9 0 0
BITMAP
F1C0
7180
3300
1A00
0C00
1600
2700
4380
E3C0
ENDCHAR
STARTCHAR y
ENCODING 121
SWIDTH 551 0
DWIDTH 10 0
BBX 10 12 0 -3
BITMAP
F1C0
6080
7080
3100
3900
1A00
1E00
0C00
0C00
0800
1800
7000
ENDCHAR
STARTCHAR z
ENCODING 122
SWIDTH 595 0
DWIDTH 11 0
BBX 8 9 1 0
BITMAP
FF
86
8E
1C
18
30
71
E1
FF
ENDCHAR
STARTCHAR braceleft
ENCODING 123
SWIDTH 343 0
DWIDTH 6 0
BBX 5 16 0 -3
BITMAP
18
20
20
20
20
20
20
20
C0
20
20
20
20
20
20
18
ENDCHAR
STARTCHAR bar
ENCODING 124
SWIDTH 241 0
DWIDTH 4 0
BBX 1 16 2 -3
BITMAP
80
80
80
80
80
80
80
80
80
80
80
80
80
80
80
80
ENDCHAR
STARTCHAR braceright
ENCODING 125
SWIDTH 343 0
DWIDTH 6 0
BBX 5 16 1 -3
BITMAP
C0
20
20
20
20
20
20
20
18
20
20
20
20
20
20
C0
ENDCHAR
STARTCHAR asciitilde
ENCODING 126
SWIDTH 608 0
DWIDTH 11 0
BBX 11 4 0 3
BITMAP
7020
8C20
8620
81C0
ENDCHAR
STARTCHAR space
ENCODING 160
SWIDTH 333 0
DWIDTH 6 0
BBX 1 1 0 0
BITMAP
00
ENDCHAR
STARTCHAR Aogonek
ENCODING 161
SWIDTH 744 0
DWIDTH 13 0
BBX 13 16 0 -3
BITMAP
0200
0600
0700
0700
0980
0980
11C0
10C0
3FC0
2060
2060
4030
E0F8
0100
0200
0380
ENDCHAR
STARTCHAR kgreenlandic
ENCODING 162
SWIDTH 599 0
DWIDTH 11 0
BBX 10 9 1 0
BITMAP
3180
3100
3200
3400
3C00
3600
3700
3380
F9C0
ENDCHAR
STARTCHAR Rcommaaccent
ENCODING 163
SWIDTH 679 0
DWIDTH 12 0
BBX 12 19 0 -6
BITMAP
FF00
3180
30C0
30C0
30C0
3180
3F00
3300
3300
3180
31C0
30E0
F870
0000
0600
0600
0200
0200
0400
ENDCHAR
STARTCHAR currency
ENCODING 164
SWIDTH 608 0
DWIDTH 11 0
BBX 10 11 0 1
BITMAP
8040
5E80
6180
6180
4080
4080
4080
6180
3300
5E80
8040
ENDCHAR
STARTCHAR Itilde
ENCODING 165
SWIDTH 325 0
DWIDTH 6 0
BBX 6 16 0 0
BITMAP
64
98
00
FC
30
30
30
30
30
30
30
30
30
30
30
FC
ENDCHAR
STARTCHAR Lcommaaccent
ENCODING 166
SWIDTH 557 0
DWIDTH 10 0
BBX 10 19 0 -6
BITMAP
FC00
3000
3000
3000
3000
3000
3000
3000
3000
3000
3040
3040
FFC0
0000
0C00
0C00
0400
0400
0800
ENDCHAR
STARTCHAR section
ENCODING 167
SWIDTH 608 0
DWIDTH 11 0
BBX 8 16 1 -3
BITMAP
3E
E2
C2
C0
60
38
DE
C6
E2
7A
3C
0E
03
83
C7
7C
ENDCHAR
STARTCHAR dieresis
ENCODING 168
SWIDTH 602 0
DWIDTH 11 0
BBX 5 2 3 11
BITMAP
D8
D8
ENDCHAR
STARTCHAR Scaron
ENCODING 169
SWIDTH 542 0
DWIDTH 10 0
BBX 8 17 1 0
BITMAP
42
24
18
00
3E
62
C2
C0
E0
78
3C
0E
03
03
83
86
FC
ENDCHAR
STARTCHAR Emacron
ENCODING 170
SWIDTH 566 0
DWIDTH 10 0
BBX 10 15 0 0
BITMAP
3E00
0000
FFC0
3040
3040
3000
3000
3100
3F00
3100
3000
3000
3040
3040
FFC0
ENDCHAR
STARTCHAR Gcommaaccent
ENCODING 171
SWIDTH 732 0
DWIDTH 13 0
BBX 13 19 1 -6
BITMAP
0FC0
3860
6020
6000
C000
C000
C000
C1F8
C060
6060
6060
3860
0FC0
0000
0600
0600
0200
0200
0400
ENDCHAR
STARTCHAR Tbar
ENCODING 172
SWIDTH 663 0
DWIDTH 12 0
BBX 12 13 0 0
BITMAP
FFF0
8610
0600
0600
0600
0600
1F80
0600
0600
0600
0600
0600
1F80
ENDCHAR
STARTCHAR hyphen
ENCODING 173
SWIDTH 325 0
DWIDTH 6 0
BBX 4 1 1 5
BITMAP
F0
ENDCHAR
STARTCHAR Zcaron
ENCODING 174
SWIDTH 633 0
DWIDTH 11 0
BBX 9 17 1 0
BITMAP
2100
1200
0C00
0000
FF80
8380
8300
0600
0E00
0C00
1C00
1800
3000
7000
6080
C080
FF80
ENDCHAR
STARTCHAR macron
ENCODING 175
SWIDTH 602 0
DWIDTH 11 0
BBX 5 1 3 12
BITMAP
F8
ENDCHAR
STARTCHAR degree
ENCODING 176
SWIDTH 259 0
DWIDTH 5 0
BBX 3 3 1 10
BITMAP
E0
A0
E0
ENDCHAR
STARTCHAR aogonek
ENCODING 177
SWIDTH 543 0
DWIDTH 10 0
BBX 8 12 1 -3
BITMAP
7C
46
46
06
3E
E6
C6
C6
7B
10
20
38
ENDCHAR
STARTCHAR ogonek
ENCODING 178
SWIDTH 602 0
DWIDTH 11 0
BBX 3 3 4 -3
BITMAP
40
80
E0
ENDCHAR
STARTCHAR rcommaaccent
ENCODING 179
SWIDTH 440 0
DWIDTH 8 0
BBX 8 15 0 -6
BITMAP
F7
39
31
30
30
30
30
30
FC
00
30
30
10
10
20
ENDCHAR
STARTCHAR acute
ENCODING 180
SWIDTH 602 0
DWIDTH 11 0
BBX 4 3 4 10
BITMAP
30
40
80
ENDCHAR
STARTCHAR itilde
ENCODING 181
SWIDTH 307 0
DWIDTH 6 0
BBX 6 12 0 0
BITMAP
64
98
00
F0
30
30
30
30
30
30
30
FC
ENDCHAR
STARTCHAR lcommaaccent
ENCODING 182
SWIDTH 313 0
DWIDTH 6 0
BBX 6 19 0 -6
BITMAP
F0
30
30
30
30
30
30
30
30
30
30
30
FC
00
30
30
10
10
20
ENDCHAR
STARTCHAR caron
ENCODING 183
SWIDTH 602 0
DWIDTH 11 0
BBX 6 3 2 10
BITMAP
84
48
30
ENDCHAR
STARTCHAR cedilla
ENCODING 184
SWIDTH 602 0
DWIDTH 11 0
BBX 3 3 4 -3
BITMAP
C0
60
E0
ENDCHAR
STARTCHAR scaron
ENCODING 185
SWIDTH 504 0
DWIDTH 9 0
BBX 7 13 1 0
BITMAP
84
48
30
00
7C
C4
C4
F0
7C
9E
86
C6
7C
ENDCHAR
STARTCHAR emacron
ENCODING 186
SWIDTH 530 0
DWIDTH 10 0
BBX 8 11 1 0
BITMAP
7C
00
3C
62
C3
C3
FF
C0
C0
61
3E
ENDCHAR
STARTCHAR gcommaaccent
ENCODING 187
SWIDTH 571 0
DWIDTH 10 0
BBX 10 18 0 -3
BITMAP
0400
0800
0800
0C00
0C00
0000
3FC0
7600
6300
6300
2300
1700
7E00
6000
3F80
C180
C180
7E00
ENDCHAR
STARTCHAR tbar
ENCODING 188
SWIDTH 392 0
DWIDTH 7 0
BBX 6 12 1 0
BITMAP
60
60
60
FC
60
60
60
FC
60
60
60
3C
ENDCHAR
STARTCHAR Eng
ENCODING 189
SWIDTH 751 0
DWIDTH 14 0
BBX 14 16 0 -3
BITMAP
F07C
3010
3810
2C10
2E10
2710
2390
2190
20D0
20F0
2070
2030
F830
0130
0130
01E0
ENDCHAR
STARTCHAR zcaron
ENCODING 190
SWIDTH 595 0
DWIDTH 11 0
BBX 8 13 1 0
BITMAP
42
24
18
00
FF
86
8E
1C
18
30
71
E1
FF
ENDCHAR
STARTCHAR eng
ENCODING 191
SWIDTH 633 0
DWIDTH 11 0
BBX 10 12 0 -3
BITMAP
F780
38C0
30C0
30C0
30C0
30C0
30C0
30C0
FCC0
04C0
04C0
0780
ENDCHAR
STARTCHAR Amacron
ENCODING 192
SWIDTH 744 0
DWIDTH 13 0
BBX 13 15 0 0
BITMAP
0F80
0000
0200
0600
0700
0700
0980
0980
11C0
10C0
3FC0
2060
2060
4030
E0F8
ENDCHAR
STARTCHAR Aacute
ENCODING 193
SWIDTH 744 0
DWIDTH 13 0
BBX 13 17 0 0
BITMAP
0180
0200
0400
0000
0200
0600
0700
0700
0980
0980
11C0
10C0
3FC0
2060
2060
4030
E0F8
ENDCHAR
STARTCHAR Acircumflex
ENCODING 194
SWIDTH 744 0
DWIDTH 13 0
BBX 13 17 0 0
BITMAP
0600
0900
1080
0000
0200
0600
0700
0700
0980
0980
11C0
10C0
3FC0
2060
2060
4030
E0F8
ENDCHAR
STARTCHAR Atilde
ENCODING 195
SWIDTH 744 0
DWIDTH 13 0
BBX 13 16 0 0
BITMAP
0640
0980
0000
0200
0600
0700
0700
0980
0980
11C0
10C0
3FC0
2060
2060
4030
E0F8
ENDCHAR
STARTCHAR Adieresis
ENCODING 196
SWIDTH 744 0
DWIDTH 13 0
BBX 13 16 0 0
BITMAP
0D80
0D80
0000
0200
0600
0700
0700
0980
0980
11C0
10C0
3FC0
2060
2060
4030
E0F8
ENDCHAR
STARTCHAR Aring
ENCODING 197
SWIDTH 744 0
DWIDTH 13 0
BBX 13 17 0 0
BITMAP
0700
0500
0700
0000
0200
0600
0700
0700
0980
0980
11C0
10C0
3FC0
2060
2060
4030
E0F8
ENDCHAR
STARTCHAR AE
ENCODING 198
SWIDTH 919 0
DWIDTH 17 0
BBX 16 13 0 0
BITMAP
00FF
01E1
0161
0360
0660
0462
087E
0860
1FE0
2060
2060
4061
E1FF
ENDCHAR
STARTCHAR Iogonek
ENCODING 199
SWIDTH 325 0
DWIDTH 6 0
BBX 6 16 0 -3
BITMAP
FC
30
30
30
30
30
30
30
30
30
30
30
FC
10
20
38
ENDCHAR
STARTCHAR Ccaron
ENCODING 200
SWIDTH 695 0
DWIDTH 12 0
BBX 10 17 1 0
BITMAP
2100
1200
0C00
0000
1F80
30C0
6040
E040
C000
C000
C000
C000
C000
6000
6000
3040
1F80
ENDCHAR
STARTCHAR Eacute
ENCODING 201
SWIDTH 566 0
DWIDTH 10 0
BBX 10 17 0 0
BITMAP
0600
0800
1000
0000
FFC0
3040
3040
3000
3000
3100
3F00
3100
3000
3000
3040
3040
FFC0
ENDCHAR
STARTCHAR Eogonek
ENCODING 202
SWIDTH 566 0
DWIDTH 10 0
BBX 10 16 0 -3
BITMAP
FFC0
3040
3040
3000
3000
3100
3F00
3100
3000
3000
3040
3040
FFC0
0800
1000
1C00
ENDCHAR
STARTCHAR Edieresis
ENCODING 203
SWIDTH 566 0
DWIDTH 10 0
BBX 10 16 0 0
BITMAP
1B00
1B00
0000
FFC0
3040
3040
3000
3000
3100
3F00
3100
3000
3000
3040
3040
FFC0
ENDCHAR
STARTCHAR Edotaccent
ENCODING 204
SWIDTH 566 0
DWIDTH 10 0
BBX 10 16 0 0
BITMAP
0C00
0C00
0000
FFC0
3040
3040
3000
3000
3100
3F00
3100
3000
3000
3040
3040
FFC0
ENDCHAR
STARTCHAR Iacute
ENCODING 205
SWIDTH 325 0
DWIDTH 6 0
BBX 6 17 0 0
BITMAP
18
20
40
00
FC
30
30
30
30
30
30
30
30
30
30
30
FC
ENDCHAR
STARTCHAR Icircumflex
ENCODING 206
SWIDTH 325 0
DWIDTH 6 0
BBX 6 17 0 0
BITMAP
30
48
84
00
FC
30
30
30
30
30
30
30
30
30
30
30
FC
ENDCHAR
STARTCHAR Imacron
ENCODING 207
SWIDTH 325 0
DWIDTH 6 0
BBX 6 15 0 0
BITMAP
7C
00
FC
30
30
30
30
30
30
30
30
30
30
30
FC
ENDCHAR
STARTCHAR Dcroat
ENCODING 208
SWIDTH 768 0
DWIDTH 14 0
BBX 13 13 0 0
BITMAP
FFC0
3060
3030
3018
3018
3018
FE18
3018
3018
3010
3030
3060
FF80
ENDCHAR
STARTCHAR Ncommaaccent
ENCODING 209
SWIDTH 751 0
DWIDTH 14 0
BBX 14 19 0 -6
BITMAP
F07C
3010
3810
2C10
2E10
2710
2390
2190
20D0
20F0
2070
2030
F810
0000
0300
0300
0100
0100
0200
ENDCHAR
STARTCHAR Omacron
ENCODING 210
SWIDTH 777 0
DWIDTH 14 0
BBX 12 15 1 0
BITMAP
0F80
0000
1F80
30C0
6060
6060
C030
C030
C030
C030
C030
6060
6060
30C0
1F80
ENDCHAR
STARTCHAR Kcommaaccent
ENCODING 211
SWIDTH 708 0
DWIDTH 13 0
BBX 12 19 1 -6
BITMAP
FCE0
30C0
3180
3300
3600
3400
3C00
3600
3700
3380
31C0
30E0
F9F0
0000
0600
0600
0200
0200
0400
ENDCHAR
STARTCHAR Ocircumflex
ENCODING 212
SWIDTH 777 0
DWIDTH 14 0
BBX 12 17 1 0
BITMAP
0600
0900
1080
0000
1F80
30C0
6060
6060
C030
C030
C030
C030
C030
6060
6060
30C0
1F80
ENDCHAR
STARTCHAR Otilde
ENCODING 213
SWIDTH 777 0
DWIDTH 14 0
BBX 12 16 1 0
BITMAP
0C80
1300
0000
1F80
30C0
6060
6060
C030
C030
C030
C030
C030
6060
6060
30C0
1F80
ENDCHAR
STARTCHAR Odieresis
ENCODING 214
SWIDTH 777 0
DWIDTH 14 0
BBX 12 16 1 0
BITMAP
1B00
1B00
0000
1F80
30C0
6060
6060
C030
C030
C030
C030
C030
6060
6060
30C0
1F80
ENDCHAR
STARTCHAR multiply
ENCODING 215
SWIDTH 608 0
DWIDTH 11 0
BBX 10 11 0 0
BITMAP
8040
4080
2100
3300
1E00
0C00
1E00
1200
2100
4080
8040
ENDCHAR
STARTCHAR Oslash
ENCODING 216
SWIDTH 777 0
DWIDTH 14 0
BBX 12 13 1 0
BITMAP
1F10
30E0
6060
60F0
C1B0
C330
C630
CC30
C830
F060
6060
70C0
CF80
ENDCHAR
STARTCHAR Uogonek
ENCODING 217
SWIDTH 719 0
DWIDTH 13 0
BBX 13 16 0 -3
BITMAP
FCF8
3020
3020
3020
3020
3020
3020
3020
3020
3020
3020
1840
0F80
0200
0400
0700
ENDCHAR
STARTCHAR Uacute
ENCODING 218
SWIDTH 719 0
DWIDTH 13 0
BBX 13 17 0 0
BITMAP
0180
0200
0400
0000
FCF8
3020
3020
3020
3020
3020
3020
3020
3020
3020
3020
1840
0F80
ENDCHAR
STARTCHAR Ucircumflex
ENCODING 219
SWIDTH 719 0
DWIDTH 13 0
BBX 13 17 0 0
BITMAP
0300
0480
0840
0000
FCF8
3020
3020
3020
3020
3020
3020
3020
3020
3020
3020
1840
0F80
ENDCHAR
STARTCHAR Udieresis
ENCODING 220
SWIDTH 719 0
DWIDTH 13 0
BBX 13 16 0 0
BITMAP
0D80
0D80
0000
FCF8
3020
3020
3020
3020
3020
3020
3020
3020
3020
3020
1840
0F80
ENDCHAR
STARTCHAR Utilde
ENCODING 221
SWIDTH 719 0
DWIDTH 13 0
BBX 13 16 0 0
BITMAP
0C80
1300
0000
FCF8
3020
3020
3020
3020
3020
3020
3020
3020
3020
3020
1840
0F80
ENDCHAR
STARTCHAR Umacron
ENCODING 222
SWIDTH 719 0
DWIDTH 13 0
BBX 13 15 0 0
BITMAP
0F80
0000
FCF8
3020
3020
3020
3020
3020
3020
3020
3020
3020
3020
1840
0F80
ENDCHAR
STARTCHAR germandbls
ENCODING 223
SWIDTH 614 0
DWIDTH 11 0
BBX 9 14 1 0
BITMAP
1E00
3300
3300
3300
3200
3400
3600
3600
3300
3380
3180
3080
3480
F700
ENDCHAR
STARTCHAR amacron
ENCODING 224
SWIDTH 543 0
DWIDTH 10 0
BBX 8 11 1 0
BITMAP
3E
00
7C
46
46
06
3E
E6
C6
C6
7B
ENDCHAR
STARTCHAR aacute
ENCODING 225
SWIDTH 543 0
DWIDTH 10 0
BBX 8 13 1 0
BITMAP
0C
10
20
00
7C
46
46
06
3E
E6
C6
C6
7B
ENDCHAR
STARTCHAR acircumflex
ENCODING 226
SWIDTH 543 0
DWIDTH 10 0
BBX 8 13 1 0
BITMAP
18
24
42
00
7C
46
46
06
3E
E6
C6
C6
7B
ENDCHAR
STARTCHAR atilde
ENCODING 227
SWIDTH 543 0
DWIDTH 10 0
BBX 8 12 1 0
BITMAP
32
4C
00
7C
46
46
06
3E
E6
C6
C6
7B
ENDCHAR
STARTCHAR adieresis
ENCODING 228
SWIDTH 543 0
DWIDTH 10 0
BBX 8 12 1 0
BITMAP
6C
6C
00
7C
46
46
06
3E
E6
C6
C6
7B
ENDCHAR
STARTCHAR aring
ENCODING 229
SWIDTH 543 0
DWIDTH 10 0
BBX 8 13 1 0
BITMAP
38
28
38
00
7C
46
46
06
3E
E6
C6
C6
7B
ENDCHAR
STARTCHAR ae
ENCODING 230
SWIDTH 819 0
DWIDTH 15 0
BBX 12 9 1 0
BITMAP
79C0
4720
4630
0630
3FF0
E600
C600
C710
79E0
ENDCHAR
STARTCHAR iogonek
ENCODING 231
SWIDTH 307 0
DWIDTH 6 0
BBX 6 16 0 -3
BITMAP
30
30
00
00
F0
30
30
30
30
30
30
30
FC
10
20
38
ENDCHAR
STARTCHAR ccaron
ENCODING 232
SWIDTH 509 0
DWIDTH 9 0
BBX 7 13 1 0
BITMAP
42
24
18
00
3E
62
C2
C0
C0
C0
C0
60
3E
ENDCHAR
STARTCHAR eacute
ENCODING 233
SWIDTH 530 0
DWIDTH 10 0
BBX 8 13 1 0
BITMAP
0C
10
20
00
3C
62
C3
C3
FF
C0
C0
61
3E
ENDCHAR
STARTCHAR eogonek
ENCODING 234
SWIDTH 530 0
DWIDTH 10 0
BBX 8 12 1 -3
BITMAP
3C
62
C3
C3
FF
C0
C0
61
3E
10
20
38
ENDCHAR
STARTCHAR edieresis
ENCODING 235
SWIDTH 530 0
DWIDTH 10 0
BBX 8 12 1 0
BITMAP
36
36
00
3C
62
C3
C3
FF
C0
C0
61
3E
ENDCHAR
STARTCHAR edotaccent
ENCODING 236
SWIDTH 530 0
DWIDTH 10 0
BBX 8 12 1 0
BITMAP
18
18
00
3C
62
C3
C3
FF
C0
C0
61
3E
ENDCHAR
STARTCHAR iacute
ENCODING 237
SWIDTH 307 0
DWIDTH 6 0
BBX 6 13 0 0
BITMAP
18
20
40
00
F0
30
30
30
30
30
30
30
FC
ENDCHAR
STARTCHAR icircumflex
ENCODING 238
SWIDTH 307 0
DWIDTH 6 0
BBX 6 13 0 0
BITMAP
30
48
84
00
F0
30
30
30
30
30
30
30
FC
ENDCHAR
STARTCHAR imacron
ENCODING 239
SWIDTH 307 0
DWIDTH 6 0
BBX 6 11 0 0
BITMAP
F8
00
F0
30
30
30
30
30
30
30
FC
ENDCHAR
STARTCHAR dcroat
ENCODING 240
SWIDTH 642 0
DWIDTH 12 0
BBX 11 13 1 0
BITMAP
0780
0180
07E0
0180
3D80
6380
C180
C180
C180
C180
C180
6380
3DE0
ENDCHAR
STARTCHAR ncommaaccent
ENCODING 241
SWIDTH 633 0
DWIDTH 11 0
BBX 12 15 0 -6
BITMAP
F780
38C0
30C0
30C0
30C0
30C0
30C0
30C0
FFF0
0000
0600
0600
0200
0200
0400
ENDCHAR
STARTCHAR omacron
ENCODING 242
SWIDTH 602 0
DWIDTH 11 0
BBX 9 11 1 0
BITMAP
3E00
0000
3E00
6300
C180
C180
C180
C180
C180
6300
3E00
ENDCHAR
STARTCHAR kcommaaccent
ENCODING 243
SWIDTH 599 0
DWIDTH 11 0
BBX 10 19 1 -6
BITMAP
F000
3000
3000
3000
3180
3100
3200
3400
3C00
3600
3700
3380
F9C0
0000
0C00
0C00
0400
0400
0800
ENDCHAR
STARTCHAR ocircumflex
ENCODING 244
SWIDTH 602 0
DWIDTH 11 0
BBX 9 13 1 0
BITMAP
1800
2400
4200
0000
3E00
6300
C180
C180
C180
C180
C180
6300
3E00
ENDCHAR
STARTCHAR otilde
ENCODING 245
SWIDTH 602 0
DWIDTH 11 0
BBX 9 12 1 0
BITMAP
3200
4C00
0000
3E00
6300
C180
C180
C180
C180
C180
6300
3E00
ENDCHAR
STARTCHAR odieresis
ENCODING 246
SWIDTH 602 0
DWIDTH 11 0
BBX 9 12 1 0
BITMAP
3600
3600
0000
3E00
6300
C180
C180
C180
C180
C180
6300
3E00
ENDCHAR
STARTCHAR divide
ENCODING 247
SWIDTH 608 0
DWIDTH 11 0
BBX 10 9 0 0
BITMAP
0C00
0C00
0000
0000
FFC0
0000
0000
0C00
0C00
ENDCHAR
STARTCHAR oslash
ENCODING 248
SWIDTH 602 0
DWIDTH 11 0
BBX 9 9 1 0
BITMAP
3C80
6300
C380
C580
C980
D180
E180
6300
DE00
ENDCHAR
STARTCHAR uogonek
ENCODING 249
SWIDTH 633 0
DWIDTH 11 0
BBX 12 12 0 -3
BITMAP
F3C0
30C0
30C0
30C0
30C0
30C0
30C0
31C0
1EF0
0200
0400
0700
ENDCHAR
STARTCHAR uacute
ENCODING 250
SWIDTH 633 0
DWIDTH 11 0
BBX 12 13 0 0
BITMAP
0300
0400
0800
0000
F3C0
30C0
30C0
30C0
30C0
30C0
30C0
31C0
1EF0
ENDCHAR
STARTCHAR ucircumflex
ENCODING 251
SWIDTH 633 0
DWIDTH 11 0
BBX 12 13 0 0
BITMAP
0600
0900
1080
0000
F3C0
30C0
30C0
30C0
30C0
30C0
30C0
31C0
1EF0
ENDCHAR
STARTCHAR udieresis
ENCODING 252
SWIDTH 633 0
DWIDTH 11 0
BBX 12 12 0 0
BITMAP
0D80
0D80
0000
F3C0
30C0
30C0
30C0
30C0
30C0
30C0
31C0
1EF0
ENDCHAR
STARTCHAR utilde
ENCODING 253
SWIDTH 633 0
DWIDTH 11 0
BBX 12 12 0 0
BITMAP
0C80
1300
0000
F3C0
30C0
30C0
30C0
30C0
30C0
30C0
31C0
1EF0
ENDCHAR
STARTCHAR umacron
ENCODING 254
SWIDTH 633 0
DWIDTH 11 0
BBX 12 11 0 0
BITMAP
1F00
0000
F3C0
30C0
30C0
30C0
30C0
30C0
30C0
31C0
1EF0
ENDCHAR
STARTCHAR dotaccent
ENCODING 255
SWIDTH 602 0
DWIDTH 11 0
BBX 2 2 4 11
BITMAP
C0
C0
ENDCHAR
ENDFONT
