STARTFONT 2.1
COMMENT AUTOMATICALLY GENERATED FILE. DO NOT EDIT!
COMMENT Generated with 'ucs2any luBS08.bdf /usr/local/lib/X11/fonts/util/map-ISO8859-2 ISO8859-2'
COMMENT from an ISO10646-1 encoded source BDF font.
COMMENT ucs2any by Ben Collver <collver1@attbi.com>, 2003, based on
COMMENT ucs2any.pl by Markus Kuhn <http://www.cl.cam.ac.uk/~mgk25/>, 2000.
COMMENT $Xorg: $
COMMENT ISO10646-1 extension by Markus Kuhn <mkuhn@acm.org>, 2001-03-20
COMMENT  (c) Copyright Bigelow & Holmes 1986, 1985. Lucida is a registered
COMMENT  trademark of Bigelow & Holmes. See LEGAL NOTICE file for terms
COMMENT  of the license.
FONT -B&H-Lucida-Bold-R-Normal-Sans-8-80-75-75-P-50-ISO8859-2
SIZE 8 72 72
FONTBOUNDINGBOX 8 12 0 -2
STARTPROPERTIES 22
COMMENT Begin LogicalFontDescription
FONTNAME_REGISTRY ""
FOUNDRY "B&H"
FAMILY_NAME "Lucida"
WEIGHT_NAME "Bold"
SLANT "R"
SETWIDTH_NAME "Normal"
ADD_STYLE_NAME "Sans"
PIXEL_SIZE 8
POINT_SIZE 80
RESOLUTION_X 75
RESOLUTION_Y 75
SPACING "P"
AVERAGE_WIDTH 50
CHARSET_REGISTRY "ISO8859"
CHARSET_ENCODING "2"
COMMENT END LogicalFontDescription
FONT_ASCENT 7
FONT_DESCENT 2
DEFAULT_CHAR 0
COPYRIGHT "Copyright Bigelow & Holmes 1986, 1985."
FACE_NAME "Lucida Sans Bold"
X_HEIGHT 4
CAP_HEIGHT 6
ENDPROPERTIES
CHARS 192
STARTCHAR defaultchar
ENCODING 0
SWIDTH 813 0
DWIDTH 7 0
BBX 5 5 1 0
BITMAP
A8
00
88
00
A8
ENDCHAR
STARTCHAR space
ENCODING 32
SWIDTH 343 0
DWIDTH 3 0
BBX 1 1 0 0
BITMAP
00
ENDCHAR
STARTCHAR exclam
ENCODING 33
SWIDTH 265 0
DWIDTH 3 0
BBX 1 6 1 0
BITMAP
80
80
80
80
00
80
ENDCHAR
STARTCHAR quotedbl
ENCODING 34
SWIDTH 530 0
DWIDTH 4 0
BBX 4 2 0 4
BITMAP
D0
90
ENDCHAR
STARTCHAR numbersign
ENCODING 35
SWIDTH 687 0
DWIDTH 5 0
BBX 5 6 0 0
BITMAP
38
30
F8
50
F8
E0
ENDCHAR
STARTCHAR dollar
ENCODING 36
SWIDTH 687 0
DWIDTH 5 0
BBX 5 9 0 -2
BITMAP
20
78
E0
60
38
28
F0
20
20
ENDCHAR
STARTCHAR percent
ENCODING 37
SWIDTH 898 0
DWIDTH 7 0
BBX 7 6 0 0
BITMAP
44
A8
B8
70
2E
4E
ENDCHAR
STARTCHAR ampersand
ENCODING 38
SWIDTH 792 0
DWIDTH 6 0
BBX 6 6 0 0
BITMAP
78
48
74
B4
98
7C
ENDCHAR
STARTCHAR quotesingle
ENCODING 39
SWIDTH 265 0
DWIDTH 2 0
BBX 2 3 0 3
BITMAP
C0
C0
80
ENDCHAR
STARTCHAR parenleft
ENCODING 40
SWIDTH 386 0
DWIDTH 3 0
BBX 2 8 0 -2
BITMAP
40
40
80
80
80
80
40
40
ENDCHAR
STARTCHAR parenright
ENCODING 41
SWIDTH 386 0
DWIDTH 3 0
BBX 2 8 1 -2
BITMAP
80
80
40
40
40
40
80
80
ENDCHAR
STARTCHAR asterisk
ENCODING 42
SWIDTH 464 0
DWIDTH 4 0
BBX 3 2 0 4
BITMAP
E0
A0
ENDCHAR
STARTCHAR plus
ENCODING 43
SWIDTH 687 0
DWIDTH 5 0
BBX 5 5 0 0
BITMAP
20
20
F8
20
20
ENDCHAR
STARTCHAR comma
ENCODING 44
SWIDTH 343 0
DWIDTH 3 0
BBX 2 3 0 -2
BITMAP
C0
40
80
ENDCHAR
STARTCHAR hyphen
ENCODING 45
SWIDTH 289 0
DWIDTH 2 0
BBX 2 1 0 2
BITMAP
C0
ENDCHAR
STARTCHAR period
ENCODING 46
SWIDTH 343 0
DWIDTH 3 0
BBX 2 1 0 0
BITMAP
C0
ENDCHAR
STARTCHAR slash
ENCODING 47
SWIDTH 596 0
DWIDTH 5 0
BBX 5 8 0 -2
BITMAP
08
10
10
20
20
40
40
80
ENDCHAR
STARTCHAR zero
ENCODING 48
SWIDTH 687 0
DWIDTH 5 0
BBX 5 6 0 0
BITMAP
70
88
88
88
88
70
ENDCHAR
STARTCHAR one
ENCODING 49
SWIDTH 687 0
DWIDTH 5 0
BBX 2 6 1 0
BITMAP
C0
40
40
40
40
40
ENDCHAR
STARTCHAR two
ENCODING 50
SWIDTH 687 0
DWIDTH 5 0
BBX 4 6 1 0
BITMAP
E0
10
10
20
C0
F0
ENDCHAR
STARTCHAR three
ENCODING 51
SWIDTH 687 0
DWIDTH 5 0
BBX 4 6 1 0
BITMAP
E0
10
60
10
10
E0
ENDCHAR
STARTCHAR four
ENCODING 52
SWIDTH 687 0
DWIDTH 5 0
BBX 5 6 0 0
BITMAP
30
70
D0
F8
10
10
ENDCHAR
STARTCHAR five
ENCODING 53
SWIDTH 687 0
DWIDTH 5 0
BBX 4 6 1 0
BITMAP
F0
80
E0
10
10
E0
ENDCHAR
STARTCHAR six
ENCODING 54
SWIDTH 687 0
DWIDTH 5 0
BBX 5 6 0 0
BITMAP
78
80
F0
88
88
70
ENDCHAR
STARTCHAR seven
ENCODING 55
SWIDTH 687 0
DWIDTH 5 0
BBX 4 6 1 0
BITMAP
F0
30
20
40
40
C0
ENDCHAR
STARTCHAR eight
ENCODING 56
SWIDTH 687 0
DWIDTH 5 0
BBX 5 6 0 0
BITMAP
70
88
70
98
88
70
ENDCHAR
STARTCHAR nine
ENCODING 57
SWIDTH 687 0
DWIDTH 5 0
BBX 5 6 0 0
BITMAP
70
88
88
78
08
F0
ENDCHAR
STARTCHAR colon
ENCODING 58
SWIDTH 343 0
DWIDTH 3 0
BBX 1 4 1 0
BITMAP
80
00
00
80
ENDCHAR
STARTCHAR semicolon
ENCODING 59
SWIDTH 343 0
DWIDTH 3 0
BBX 1 6 1 -2
BITMAP
80
00
00
80
80
80
ENDCHAR
STARTCHAR less
ENCODING 60
SWIDTH 687 0
DWIDTH 5 0
BBX 5 5 0 0
BITMAP
08
30
C0
30
08
ENDCHAR
STARTCHAR equal
ENCODING 61
SWIDTH 687 0
DWIDTH 5 0
BBX 5 3 0 1
BITMAP
F8
00
F8
ENDCHAR
STARTCHAR greater
ENCODING 62
SWIDTH 687 0
DWIDTH 5 0
BBX 5 5 0 0
BITMAP
80
60
18
60
80
ENDCHAR
STARTCHAR question
ENCODING 63
SWIDTH 572 0
DWIDTH 5 0
BBX 4 6 0 0
BITMAP
F0
10
10
60
00
40
ENDCHAR
STARTCHAR at
ENCODING 64
SWIDTH 833 0
DWIDTH 7 0
BBX 7 6 0 0
BITMAP
3C
4E
9A
B2
AC
70
ENDCHAR
STARTCHAR A
ENCODING 65
SWIDTH 773 0
DWIDTH 6 0
BBX 6 6 0 0
BITMAP
30
30
58
78
C8
8C
ENDCHAR
STARTCHAR B
ENCODING 66
SWIDTH 669 0
DWIDTH 5 0
BBX 4 6 1 0
BITMAP
F0
90
E0
B0
90
F0
ENDCHAR
STARTCHAR C
ENCODING 67
SWIDTH 726 0
DWIDTH 6 0
BBX 5 6 0 0
BITMAP
78
C0
80
80
C0
78
ENDCHAR
STARTCHAR D
ENCODING 68
SWIDTH 819 0
DWIDTH 7 0
BBX 6 6 0 0
BITMAP
F8
8C
84
84
84
F8
ENDCHAR
STARTCHAR E
ENCODING 69
SWIDTH 645 0
DWIDTH 5 0
BBX 4 6 1 0
BITMAP
F0
80
E0
80
80
F0
ENDCHAR
STARTCHAR F
ENCODING 70
SWIDTH 602 0
DWIDTH 5 0
BBX 3 6 1 0
BITMAP
E0
80
80
E0
80
80
ENDCHAR
STARTCHAR G
ENCODING 71
SWIDTH 759 0
DWIDTH 6 0
BBX 5 6 0 0
BITMAP
78
C0
80
88
C8
78
ENDCHAR
STARTCHAR H
ENCODING 72
SWIDTH 813 0
DWIDTH 7 0
BBX 5 6 1 0
BITMAP
88
88
F8
88
88
88
ENDCHAR
STARTCHAR I
ENCODING 73
SWIDTH 361 0
DWIDTH 3 0
BBX 1 6 1 0
BITMAP
80
80
80
80
80
80
ENDCHAR
STARTCHAR J
ENCODING 74
SWIDTH 501 0
DWIDTH 4 0
BBX 3 8 0 -2
BITMAP
20
20
20
20
20
20
20
E0
ENDCHAR
STARTCHAR K
ENCODING 75
SWIDTH 753 0
DWIDTH 6 0
BBX 5 6 1 0
BITMAP
98
A0
C0
A0
A0
98
ENDCHAR
STARTCHAR L
ENCODING 76
SWIDTH 620 0
DWIDTH 5 0
BBX 4 6 1 0
BITMAP
80
80
80
80
80
F0
ENDCHAR
STARTCHAR M
ENCODING 77
SWIDTH 940 0
DWIDTH 8 0
BBX 6 6 1 0
BITMAP
CC
CC
EC
B4
B4
94
ENDCHAR
STARTCHAR N
ENCODING 78
SWIDTH 783 0
DWIDTH 6 0
BBX 5 6 1 0
BITMAP
88
C8
A8
A8
98
88
ENDCHAR
STARTCHAR O
ENCODING 79
SWIDTH 855 0
DWIDTH 7 0
BBX 6 6 0 0
BITMAP
78
CC
84
84
CC
78
ENDCHAR
STARTCHAR P
ENCODING 80
SWIDTH 657 0
DWIDTH 5 0
BBX 4 6 1 0
BITMAP
F0
90
90
E0
80
80
ENDCHAR
STARTCHAR Q
ENCODING 81
SWIDTH 855 0
DWIDTH 7 0
BBX 7 8 0 -2
BITMAP
78
CC
84
84
CC
78
0E
04
ENDCHAR
STARTCHAR R
ENCODING 82
SWIDTH 734 0
DWIDTH 6 0
BBX 5 6 1 0
BITMAP
F0
90
90
E0
A0
98
ENDCHAR
STARTCHAR S
ENCODING 83
SWIDTH 594 0
DWIDTH 5 0
BBX 4 6 0 0
BITMAP
70
C0
C0
30
10
E0
ENDCHAR
STARTCHAR T
ENCODING 84
SWIDTH 735 0
DWIDTH 6 0
BBX 5 6 0 0
BITMAP
F8
20
20
20
20
20
ENDCHAR
STARTCHAR U
ENCODING 85
SWIDTH 783 0
DWIDTH 6 0
BBX 5 6 1 0
BITMAP
88
88
88
88
88
70
ENDCHAR
STARTCHAR V
ENCODING 86
SWIDTH 735 0
DWIDTH 6 0
BBX 6 6 0 0
BITMAP
C4
48
48
28
30
30
ENDCHAR
STARTCHAR W
ENCODING 87
SWIDTH 940 0
DWIDTH 8 0
BBX 7 6 0 0
BITMAP
92
52
5C
6C
6C
6C
ENDCHAR
STARTCHAR X
ENCODING 88
SWIDTH 699 0
DWIDTH 6 0
BBX 5 6 0 0
BITMAP
D8
50
20
60
50
98
ENDCHAR
STARTCHAR Y
ENCODING 89
SWIDTH 738 0
DWIDTH 6 0
BBX 5 6 0 0
BITMAP
C8
50
30
20
20
20
ENDCHAR
STARTCHAR Z
ENCODING 90
SWIDTH 675 0
DWIDTH 5 0
BBX 4 6 1 0
BITMAP
F0
30
20
40
C0
F0
ENDCHAR
STARTCHAR bracketleft
ENCODING 91
SWIDTH 386 0
DWIDTH 3 0
BBX 2 8 1 -2
BITMAP
C0
80
80
80
80
80
80
C0
ENDCHAR
STARTCHAR backslash
ENCODING 92
SWIDTH 596 0
DWIDTH 5 0
BBX 5 8 0 -2
BITMAP
80
40
40
20
20
10
10
08
ENDCHAR
STARTCHAR bracketright
ENCODING 93
SWIDTH 386 0
DWIDTH 3 0
BBX 2 8 0 -2
BITMAP
C0
40
40
40
40
40
40
C0
ENDCHAR
STARTCHAR asciicircum
ENCODING 94
SWIDTH 687 0
DWIDTH 5 0
BBX 5 5 0 1
BITMAP
20
20
50
50
88
ENDCHAR
STARTCHAR underscore
ENCODING 95
SWIDTH 500 0
DWIDTH 4 0
BBX 4 1 0 -2
BITMAP
F0
ENDCHAR
STARTCHAR grave
ENCODING 96
SWIDTH 675 0
DWIDTH 5 0
BBX 2 1 1 5
BITMAP
C0
ENDCHAR
STARTCHAR a
ENCODING 97
SWIDTH 623 0
DWIDTH 5 0
BBX 4 4 0 0
BITMAP
F0
10
F0
F0
ENDCHAR
STARTCHAR b
ENCODING 98
SWIDTH 696 0
DWIDTH 6 0
BBX 5 6 0 0
BITMAP
80
80
F0
88
88
F0
ENDCHAR
STARTCHAR c
ENCODING 99
SWIDTH 545 0
DWIDTH 4 0
BBX 3 4 1 0
BITMAP
60
80
80
60
ENDCHAR
STARTCHAR d
ENCODING 100
SWIDTH 696 0
DWIDTH 6 0
BBX 5 6 0 0
BITMAP
08
08
78
88
88
78
ENDCHAR
STARTCHAR e
ENCODING 101
SWIDTH 614 0
DWIDTH 5 0
BBX 4 4 0 0
BITMAP
70
F0
C0
70
ENDCHAR
STARTCHAR f
ENCODING 102
SWIDTH 461 0
DWIDTH 4 0
BBX 3 6 0 0
BITMAP
60
40
E0
40
40
40
ENDCHAR
STARTCHAR g
ENCODING 103
SWIDTH 696 0
DWIDTH 6 0
BBX 5 6 0 -2
BITMAP
78
88
88
78
18
F0
ENDCHAR
STARTCHAR h
ENCODING 104
SWIDTH 693 0
DWIDTH 6 0
BBX 4 6 1 0
BITMAP
80
80
F0
90
90
90
ENDCHAR
STARTCHAR i
ENCODING 105
SWIDTH 361 0
DWIDTH 3 0
BBX 1 6 1 0
BITMAP
80
00
80
80
80
80
ENDCHAR
STARTCHAR j
ENCODING 106
SWIDTH 361 0
DWIDTH 3 0
BBX 2 8 0 -2
BITMAP
40
00
40
40
40
40
40
C0
ENDCHAR
STARTCHAR k
ENCODING 107
SWIDTH 681 0
DWIDTH 5 0
BBX 4 6 1 0
BITMAP
80
80
B0
E0
E0
B0
ENDCHAR
STARTCHAR l
ENCODING 108
SWIDTH 361 0
DWIDTH 3 0
BBX 1 6 1 0
BITMAP
80
80
80
80
80
80
ENDCHAR
STARTCHAR m
ENCODING 109
SWIDTH 1006 0
DWIDTH 8 0
BBX 7 4 1 0
BITMAP
FE
92
92
92
ENDCHAR
STARTCHAR n
ENCODING 110
SWIDTH 693 0
DWIDTH 6 0
BBX 4 4 1 0
BITMAP
F0
90
90
90
ENDCHAR
STARTCHAR o
ENCODING 111
SWIDTH 675 0
DWIDTH 5 0
BBX 5 4 0 0
BITMAP
70
88
88
70
ENDCHAR
STARTCHAR p
ENCODING 112
SWIDTH 696 0
DWIDTH 6 0
BBX 5 6 0 -2
BITMAP
F0
88
88
F0
80
80
ENDCHAR
STARTCHAR q
ENCODING 113
SWIDTH 696 0
DWIDTH 6 0
BBX 5 6 0 -2
BITMAP
78
88
88
78
08
08
ENDCHAR
STARTCHAR r
ENCODING 114
SWIDTH 500 0
DWIDTH 4 0
BBX 3 4 1 0
BITMAP
E0
80
80
80
ENDCHAR
STARTCHAR s
ENCODING 115
SWIDTH 622 0
DWIDTH 5 0
BBX 4 4 1 0
BITMAP
F0
C0
30
F0
ENDCHAR
STARTCHAR t
ENCODING 116
SWIDTH 436 0
DWIDTH 3 0
BBX 2 6 1 0
BITMAP
80
80
C0
80
80
C0
ENDCHAR
STARTCHAR u
ENCODING 117
SWIDTH 693 0
DWIDTH 6 0
BBX 4 4 1 0
BITMAP
90
90
90
F0
ENDCHAR
STARTCHAR v
ENCODING 118
SWIDTH 663 0
DWIDTH 5 0
BBX 5 4 0 0
BITMAP
C8
50
50
30
ENDCHAR
STARTCHAR w
ENCODING 119
SWIDTH 885 0
DWIDTH 7 0
BBX 7 4 0 0
BITMAP
9A
5E
6C
6C
ENDCHAR
STARTCHAR x
ENCODING 120
SWIDTH 568 0
DWIDTH 5 0
BBX 4 4 0 0
BITMAP
D0
60
60
B0
ENDCHAR
STARTCHAR y
ENCODING 121
SWIDTH 645 0
DWIDTH 5 0
BBX 5 6 0 -2
BITMAP
C8
50
50
20
20
40
ENDCHAR
STARTCHAR z
ENCODING 122
SWIDTH 608 0
DWIDTH 5 0
BBX 4 4 0 0
BITMAP
F0
20
40
F0
ENDCHAR
STARTCHAR braceleft
ENCODING 123
SWIDTH 386 0
DWIDTH 3 0
BBX 2 8 1 -2
BITMAP
40
40
40
40
C0
40
40
40
ENDCHAR
STARTCHAR bar
ENCODING 124
SWIDTH 265 0
DWIDTH 2 0
BBX 1 8 1 -2
BITMAP
80
80
80
80
80
80
80
80
ENDCHAR
STARTCHAR braceright
ENCODING 125
SWIDTH 386 0
DWIDTH 3 0
BBX 2 8 1 -2
BITMAP
80
80
80
80
C0
80
80
80
ENDCHAR
STARTCHAR asciitilde
ENCODING 126
SWIDTH 687 0
DWIDTH 5 0
BBX 5 2 0 1
BITMAP
E8
B8
ENDCHAR
STARTCHAR space
ENCODING 160
SWIDTH 343 0
DWIDTH 3 0
BBX 1 1 0 0
BITMAP
00
ENDCHAR
STARTCHAR Aogonek
ENCODING 161
SWIDTH 773 0
DWIDTH 6 0
BBX 6 8 0 -2
BITMAP
30
30
58
78
C8
8C
00
30
ENDCHAR
STARTCHAR breve
ENCODING 162
SWIDTH 675 0
DWIDTH 5 0
BBX 3 1 1 5
BITMAP
E0
ENDCHAR
STARTCHAR Lslash
ENCODING 163
SWIDTH 620 0
DWIDTH 5 0
BBX 5 6 0 0
BITMAP
40
40
60
C0
40
78
ENDCHAR
STARTCHAR currency
ENCODING 164
SWIDTH 687 0
DWIDTH 5 0
BBX 5 6 0 0
BITMAP
88
D8
70
50
70
88
ENDCHAR
STARTCHAR Lcaron
ENCODING 165
SWIDTH 854 0
DWIDTH 7 0
BBX 6 6 1 0
BITMAP
8C
8C
88
80
80
F0
ENDCHAR
STARTCHAR Sacute
ENCODING 166
SWIDTH 594 0
DWIDTH 5 0
BBX 4 8 0 0
BITMAP
60
00
70
C0
C0
30
10
E0
ENDCHAR
STARTCHAR section
ENCODING 167
SWIDTH 693 0
DWIDTH 5 0
BBX 4 8 1 -2
BITMAP
F0
80
E0
90
D0
70
10
E0
ENDCHAR
STARTCHAR dieresis
ENCODING 168
SWIDTH 675 0
DWIDTH 5 0
BBX 3 1 1 5
BITMAP
A0
ENDCHAR
STARTCHAR Scaron
ENCODING 169
SWIDTH 594 0
DWIDTH 5 0
BBX 4 7 0 0
BITMAP
70
70
C0
C0
30
10
E0
ENDCHAR
STARTCHAR Scedilla
ENCODING 170
SWIDTH 594 0
DWIDTH 5 0
BBX 4 8 0 -2
BITMAP
70
C0
C0
30
10
E0
60
60
ENDCHAR
STARTCHAR Tcaron
ENCODING 171
SWIDTH 735 0
DWIDTH 6 0
BBX 5 8 0 0
BITMAP
70
00
F8
20
20
20
20
20
ENDCHAR
STARTCHAR Zacute
ENCODING 172
SWIDTH 675 0
DWIDTH 5 0
BBX 4 8 1 0
BITMAP
60
00
F0
30
20
40
C0
F0
ENDCHAR
STARTCHAR hyphen
ENCODING 173
SWIDTH 289 0
DWIDTH 2 0
BBX 2 1 0 2
BITMAP
C0
ENDCHAR
STARTCHAR Zcaron
ENCODING 174
SWIDTH 675 0
DWIDTH 5 0
BBX 4 7 1 0
BITMAP
70
F0
30
20
40
C0
F0
ENDCHAR
STARTCHAR Zdotaccent
ENCODING 175
SWIDTH 675 0
DWIDTH 5 0
BBX 4 8 1 0
BITMAP
20
00
F0
30
20
40
C0
F0
ENDCHAR
STARTCHAR degree
ENCODING 176
SWIDTH 241 0
DWIDTH 2 0
BBX 1 2 0 4
BITMAP
80
80
ENDCHAR
STARTCHAR aogonek
ENCODING 177
SWIDTH 623 0
DWIDTH 5 0
BBX 4 6 0 -2
BITMAP
F0
10
F0
F0
00
60
ENDCHAR
STARTCHAR ogonek
ENCODING 178
SWIDTH 675 0
DWIDTH 5 0
BBX 2 1 2 -2
BITMAP
C0
ENDCHAR
STARTCHAR lslash
ENCODING 179
SWIDTH 361 0
DWIDTH 3 0
BBX 3 6 0 0
BITMAP
40
40
60
C0
40
40
ENDCHAR
STARTCHAR acute
ENCODING 180
SWIDTH 675 0
DWIDTH 5 0
BBX 2 1 2 5
BITMAP
C0
ENDCHAR
STARTCHAR lcaron
ENCODING 181
SWIDTH 608 0
DWIDTH 5 0
BBX 4 6 1 0
BITMAP
B0
B0
A0
80
80
80
ENDCHAR
STARTCHAR sacute
ENCODING 182
SWIDTH 622 0
DWIDTH 5 0
BBX 4 6 1 0
BITMAP
60
00
F0
C0
30
F0
ENDCHAR
STARTCHAR caron
ENCODING 183
SWIDTH 675 0
DWIDTH 5 0
BBX 3 1 1 5
BITMAP
E0
ENDCHAR
STARTCHAR cedilla
ENCODING 184
SWIDTH 675 0
DWIDTH 5 0
BBX 2 2 2 -2
BITMAP
C0
C0
ENDCHAR
STARTCHAR scaron
ENCODING 185
SWIDTH 622 0
DWIDTH 5 0
BBX 4 5 1 0
BITMAP
70
F0
C0
30
F0
ENDCHAR
STARTCHAR scedilla
ENCODING 186
SWIDTH 622 0
DWIDTH 5 0
BBX 4 6 1 -2
BITMAP
F0
C0
30
F0
60
60
ENDCHAR
STARTCHAR tcaron
ENCODING 187
SWIDTH 679 0
DWIDTH 5 0
BBX 4 6 1 0
BITMAP
B0
B0
E0
80
80
C0
ENDCHAR
STARTCHAR zacute
ENCODING 188
SWIDTH 608 0
DWIDTH 5 0
BBX 4 6 0 0
BITMAP
60
00
F0
20
40
F0
ENDCHAR
STARTCHAR hungarumlaut
ENCODING 189
SWIDTH 675 0
DWIDTH 5 0
BBX 3 1 2 5
BITMAP
E0
ENDCHAR
STARTCHAR zcaron
ENCODING 190
SWIDTH 608 0
DWIDTH 5 0
BBX 4 5 0 0
BITMAP
70
F0
20
40
F0
ENDCHAR
STARTCHAR zdotaccent
ENCODING 191
SWIDTH 608 0
DWIDTH 5 0
BBX 4 6 0 0
BITMAP
20
00
F0
20
40
F0
ENDCHAR
STARTCHAR Racute
ENCODING 192
SWIDTH 734 0
DWIDTH 6 0
BBX 5 8 1 0
BITMAP
60
00
F0
90
90
E0
A0
98
ENDCHAR
STARTCHAR Aacute
ENCODING 193
SWIDTH 773 0
DWIDTH 6 0
BBX 6 7 0 0
BITMAP
30
30
30
58
78
C8
8C
ENDCHAR
STARTCHAR Acircumflex
ENCODING 194
SWIDTH 773 0
DWIDTH 6 0
BBX 6 7 0 0
BITMAP
38
30
30
58
78
C8
8C
ENDCHAR
STARTCHAR Abreve
ENCODING 195
SWIDTH 773 0
DWIDTH 6 0
BBX 6 8 0 0
BITMAP
38
00
30
30
58
78
C8
8C
ENDCHAR
STARTCHAR Adieresis
ENCODING 196
SWIDTH 773 0
DWIDTH 6 0
BBX 6 7 0 0
BITMAP
28
30
30
58
78
C8
8C
ENDCHAR
STARTCHAR Lacute
ENCODING 197
SWIDTH 620 0
DWIDTH 5 0
BBX 4 8 1 0
BITMAP
C0
00
80
80
80
80
80
F0
ENDCHAR
STARTCHAR Cacute
ENCODING 198
SWIDTH 726 0
DWIDTH 6 0
BBX 5 8 0 0
BITMAP
60
00
78
C0
80
80
C0
78
ENDCHAR
STARTCHAR Ccedilla
ENCODING 199
SWIDTH 726 0
DWIDTH 6 0
BBX 5 8 0 -2
BITMAP
78
C0
80
80
C0
78
20
30
ENDCHAR
STARTCHAR Ccaron
ENCODING 200
SWIDTH 726 0
DWIDTH 6 0
BBX 5 8 0 0
BITMAP
70
00
78
C0
80
80
C0
78
ENDCHAR
STARTCHAR Eacute
ENCODING 201
SWIDTH 645 0
DWIDTH 5 0
BBX 4 7 1 0
BITMAP
40
F0
80
E0
80
80
F0
ENDCHAR
STARTCHAR Eogonek
ENCODING 202
SWIDTH 645 0
DWIDTH 5 0
BBX 4 8 1 -2
BITMAP
F0
80
E0
80
80
F0
00
60
ENDCHAR
STARTCHAR Edieresis
ENCODING 203
SWIDTH 645 0
DWIDTH 5 0
BBX 4 7 1 0
BITMAP
A0
F0
80
E0
80
80
F0
ENDCHAR
STARTCHAR Ecaron
ENCODING 204
SWIDTH 645 0
DWIDTH 5 0
BBX 4 8 1 0
BITMAP
E0
00
F0
80
E0
80
80
F0
ENDCHAR
STARTCHAR Iacute
ENCODING 205
SWIDTH 361 0
DWIDTH 3 0
BBX 2 7 1 0
BITMAP
C0
80
80
80
80
80
80
ENDCHAR
STARTCHAR Icircumflex
ENCODING 206
SWIDTH 361 0
DWIDTH 3 0
BBX 3 7 2 0
BITMAP
E0
40
40
40
40
40
40
ENDCHAR
STARTCHAR Dcaron
ENCODING 207
SWIDTH 819 0
DWIDTH 7 0
BBX 6 8 0 0
BITMAP
70
00
F8
8C
84
84
84
F8
ENDCHAR
STARTCHAR Dcroat
ENCODING 208
SWIDTH 819 0
DWIDTH 7 0
BBX 7 6 0 0
BITMAP
7C
46
E2
42
42
7C
ENDCHAR
STARTCHAR Nacute
ENCODING 209
SWIDTH 783 0
DWIDTH 6 0
BBX 5 8 1 0
BITMAP
60
00
88
C8
A8
A8
98
88
ENDCHAR
STARTCHAR Ncaron
ENCODING 210
SWIDTH 783 0
DWIDTH 6 0
BBX 5 8 1 0
BITMAP
70
00
88
C8
A8
A8
98
88
ENDCHAR
STARTCHAR Oacute
ENCODING 211
SWIDTH 855 0
DWIDTH 7 0
BBX 6 7 0 0
BITMAP
20
78
CC
84
84
CC
78
ENDCHAR
STARTCHAR Ocircumflex
ENCODING 212
SWIDTH 855 0
DWIDTH 7 0
BBX 6 7 0 0
BITMAP
28
78
CC
84
84
CC
78
ENDCHAR
STARTCHAR Ohungarumlaut
ENCODING 213
SWIDTH 855 0
DWIDTH 7 0
BBX 6 8 0 0
BITMAP
38
00
78
CC
84
84
CC
78
ENDCHAR
STARTCHAR Odieresis
ENCODING 214
SWIDTH 855 0
DWIDTH 7 0
BBX 6 7 0 0
BITMAP
28
78
CC
84
84
CC
78
ENDCHAR
STARTCHAR multiply
ENCODING 215
SWIDTH 687 0
DWIDTH 5 0
BBX 5 5 0 0
BITMAP
88
50
20
50
88
ENDCHAR
STARTCHAR Rcaron
ENCODING 216
SWIDTH 734 0
DWIDTH 6 0
BBX 5 8 1 0
BITMAP
70
00
F0
90
90
E0
A0
98
ENDCHAR
STARTCHAR Uring
ENCODING 217
SWIDTH 783 0
DWIDTH 6 0
BBX 5 10 1 0
BITMAP
20
50
20
00
88
88
88
88
88
70
ENDCHAR
STARTCHAR Uacute
ENCODING 218
SWIDTH 783 0
DWIDTH 6 0
BBX 5 7 1 0
BITMAP
30
88
88
88
88
88
70
ENDCHAR
STARTCHAR Uhungarumlaut
ENCODING 219
SWIDTH 783 0
DWIDTH 6 0
BBX 5 8 1 0
BITMAP
70
00
88
88
88
88
88
70
ENDCHAR
STARTCHAR Udieresis
ENCODING 220
SWIDTH 783 0
DWIDTH 6 0
BBX 5 7 1 0
BITMAP
50
88
88
88
88
88
70
ENDCHAR
STARTCHAR Yacute
ENCODING 221
SWIDTH 738 0
DWIDTH 6 0
BBX 5 7 0 0
BITMAP
30
C8
50
30
20
20
20
ENDCHAR
STARTCHAR Tcommaaccent
ENCODING 222
SWIDTH 735 0
DWIDTH 6 0
BBX 5 8 0 -2
BITMAP
F8
20
20
20
20
20
30
30
ENDCHAR
STARTCHAR germandbls
ENCODING 223
SWIDTH 724 0
DWIDTH 6 0
BBX 5 6 1 0
BITMAP
70
B0
E0
B0
88
B8
ENDCHAR
STARTCHAR racute
ENCODING 224
SWIDTH 500 0
DWIDTH 4 0
BBX 3 6 1 0
BITMAP
C0
00
E0
80
80
80
ENDCHAR
STARTCHAR aacute
ENCODING 225
SWIDTH 623 0
DWIDTH 5 0
BBX 4 5 0 0
BITMAP
40
F0
10
F0
F0
ENDCHAR
STARTCHAR acircumflex
ENCODING 226
SWIDTH 623 0
DWIDTH 5 0
BBX 4 5 0 0
BITMAP
50
F0
10
F0
F0
ENDCHAR
STARTCHAR abreve
ENCODING 227
SWIDTH 623 0
DWIDTH 5 0
BBX 4 6 0 0
BITMAP
70
00
F0
10
F0
F0
ENDCHAR
STARTCHAR adieresis
ENCODING 228
SWIDTH 623 0
DWIDTH 5 0
BBX 4 5 0 0
BITMAP
50
F0
10
F0
F0
ENDCHAR
STARTCHAR lacute
ENCODING 229
SWIDTH 361 0
DWIDTH 3 0
BBX 2 8 1 0
BITMAP
C0
00
80
80
80
80
80
80
ENDCHAR
STARTCHAR cacute
ENCODING 230
SWIDTH 545 0
DWIDTH 4 0
BBX 3 6 1 0
BITMAP
60
00
60
80
80
60
ENDCHAR
STARTCHAR ccedilla
ENCODING 231
SWIDTH 545 0
DWIDTH 4 0
BBX 3 6 1 -2
BITMAP
60
80
80
60
60
60
ENDCHAR
STARTCHAR ccaron
ENCODING 232
SWIDTH 545 0
DWIDTH 4 0
BBX 3 6 1 0
BITMAP
E0
00
60
80
80
60
ENDCHAR
STARTCHAR eacute
ENCODING 233
SWIDTH 614 0
DWIDTH 5 0
BBX 4 5 0 0
BITMAP
40
70
F0
C0
70
ENDCHAR
STARTCHAR eogonek
ENCODING 234
SWIDTH 614 0
DWIDTH 5 0
BBX 4 6 0 -2
BITMAP
70
F0
C0
70
00
60
ENDCHAR
STARTCHAR edieresis
ENCODING 235
SWIDTH 614 0
DWIDTH 5 0
BBX 4 5 0 0
BITMAP
50
70
F0
C0
70
ENDCHAR
STARTCHAR ecaron
ENCODING 236
SWIDTH 614 0
DWIDTH 5 0
BBX 4 6 0 0
BITMAP
70
00
70
F0
C0
70
ENDCHAR
STARTCHAR iacute
ENCODING 237
SWIDTH 361 0
DWIDTH 3 0
BBX 2 5 1 0
BITMAP
C0
80
80
80
80
ENDCHAR
STARTCHAR icircumflex
ENCODING 238
SWIDTH 361 0
DWIDTH 3 0
BBX 3 5 2 0
BITMAP
E0
40
40
40
40
ENDCHAR
STARTCHAR dcaron
ENCODING 239
SWIDTH 926 0
DWIDTH 8 0
BBX 8 6 0 0
BITMAP
0B
0B
7A
88
88
78
ENDCHAR
STARTCHAR dcroat
ENCODING 240
SWIDTH 696 0
DWIDTH 6 0
BBX 5 6 0 0
BITMAP
08
38
78
88
88
78
ENDCHAR
STARTCHAR nacute
ENCODING 241
SWIDTH 693 0
DWIDTH 6 0
BBX 4 6 1 0
BITMAP
60
00
F0
90
90
90
ENDCHAR
STARTCHAR ncaron
ENCODING 242
SWIDTH 693 0
DWIDTH 6 0
BBX 4 6 1 0
BITMAP
70
00
F0
90
90
90
ENDCHAR
STARTCHAR oacute
ENCODING 243
SWIDTH 675 0
DWIDTH 5 0
BBX 5 5 0 0
BITMAP
20
70
88
88
70
ENDCHAR
STARTCHAR ocircumflex
ENCODING 244
SWIDTH 675 0
DWIDTH 5 0
BBX 5 5 0 0
BITMAP
70
70
88
88
70
ENDCHAR
STARTCHAR ohungarumlaut
ENCODING 245
SWIDTH 675 0
DWIDTH 5 0
BBX 5 6 0 0
BITMAP
70
00
70
88
88
70
ENDCHAR
STARTCHAR odieresis
ENCODING 246
SWIDTH 675 0
DWIDTH 5 0
BBX 5 5 0 0
BITMAP
50
70
88
88
70
ENDCHAR
STARTCHAR divide
ENCODING 247
SWIDTH 687 0
DWIDTH 5 0
BBX 5 5 0 0
BITMAP
20
00
F8
00
20
ENDCHAR
STARTCHAR rcaron
ENCODING 248
SWIDTH 500 0
DWIDTH 4 0
BBX 3 6 1 0
BITMAP
E0
00
E0
80
80
80
ENDCHAR
STARTCHAR uring
ENCODING 249
SWIDTH 693 0
DWIDTH 6 0
BBX 4 8 1 0
BITMAP
20
50
20
00
90
90
90
F0
ENDCHAR
STARTCHAR uacute
ENCODING 250
SWIDTH 693 0
DWIDTH 6 0
BBX 4 5 1 0
BITMAP
60
90
90
90
F0
ENDCHAR
STARTCHAR uhungarumlaut
ENCODING 251
SWIDTH 693 0
DWIDTH 6 0
BBX 4 6 1 0
BITMAP
70
00
90
90
90
F0
ENDCHAR
STARTCHAR udieresis
ENCODING 252
SWIDTH 693 0
DWIDTH 6 0
BBX 4 5 1 0
BITMAP
50
90
90
90
F0
ENDCHAR
STARTCHAR yacute
ENCODING 253
SWIDTH 645 0
DWIDTH 5 0
BBX 5 7 0 -2
BITMAP
30
C8
50
50
20
20
40
ENDCHAR
STARTCHAR tcommaaccent
ENCODING 254
SWIDTH 436 0
DWIDTH 3 0
BBX 2 8 1 -2
BITMAP
80
80
C0
80
80
C0
C0
C0
ENDCHAR
STARTCHAR dotaccent
ENCODING 255
SWIDTH 675 0
DWIDTH 5 0
BBX 1 1 2 5
BITMAP
80
ENDCHAR
ENDFONT
